<svg width="27" height="24" viewBox="0 0 27 24" fill="none" xmlns="http://www.w3.org/2000/svg">
<g clip-path="url(#clip0_104_63)">
<path d="M13.4223 8.99922C17.7724 8.99922 22.1215 9.00173 26.4715 8.99338C26.7402 8.99254 26.8255 9.03597 26.8238 9.32247C26.8109 12.6661 26.816 16.0097 26.8152 19.3533C26.8143 22.0437 24.7973 23.9983 22.0199 23.9991C16.2738 24 10.5278 24.0008 4.78173 23.9991C2.03014 23.9983 0.00885535 22.0354 0.00799413 19.365C0.00713291 16.0214 0.0105778 12.6778 0.0019656 9.33417C0.00110438 9.0744 0.0441653 8.99087 0.340425 8.99171C4.70164 9.0034 9.06199 8.99922 13.4223 8.99922ZM10.638 14.6524C10.3263 14.6524 10.0154 14.6449 9.7036 14.654C9.18256 14.6691 8.80276 14.9255 8.66325 15.344C8.5177 15.78 8.67789 16.201 9.11366 16.5117C9.59767 16.8567 10.0791 17.205 10.5726 17.5374C10.725 17.6402 10.7517 17.7337 10.6931 17.8966C10.5011 18.4362 10.3194 18.9791 10.1394 19.5229C9.96541 20.0474 10.0851 20.4717 10.4761 20.7532C10.8611 21.0297 11.3244 21.0105 11.7852 20.6898C12.2554 20.3623 12.7282 20.0366 13.1881 19.6949C13.3491 19.5755 13.4585 19.5621 13.6273 19.6883C14.0855 20.0316 14.5592 20.3556 15.0294 20.6839C15.4927 21.0072 15.9483 21.0314 16.3384 20.7591C16.7303 20.4859 16.8569 20.0508 16.6864 19.5321C16.515 19.0075 16.3531 18.4796 16.1533 17.9651C16.062 17.7295 16.1231 17.6201 16.3221 17.4898C16.7751 17.1925 17.2108 16.8709 17.6518 16.5576C18.1375 16.2118 18.308 15.8076 18.1625 15.3532C18.0169 14.8971 17.6191 14.6557 17.0007 14.6532C16.4642 14.6507 15.9259 14.639 15.3902 14.6591C15.1362 14.6682 15.0147 14.6064 14.9433 14.3525C14.8003 13.8422 14.6117 13.3443 14.442 12.8407C14.256 12.2894 13.9081 12.0062 13.4163 12.0037C12.9237 12.0012 12.5672 12.286 12.3846 12.8323C12.2063 13.3652 12.0246 13.8973 11.8558 14.4335C11.8041 14.5989 11.7257 14.6666 11.5406 14.6566C11.24 14.639 10.9386 14.6515 10.638 14.6524Z" fill="#FFCC66"/>
<path d="M13.3817 7.99944C9.03256 7.99944 4.68426 7.99694 0.335105 8.00529C0.0758781 8.00613 -0.0102438 7.95935 0.000952053 7.69039C0.0354008 6.86096 -0.0524435 6.02736 0.199032 5.21046C0.770882 3.35531 2.56222 2.02722 4.55938 2.00132C5.021 1.99548 5.48347 2.01385 5.94423 1.99297C6.17245 1.98295 6.20345 2.06898 6.19829 2.25775C6.18623 2.68458 6.18795 3.11141 6.19656 3.53823C6.21982 4.62409 7.13099 5.49278 8.24368 5.49779C9.37274 5.5028 10.2934 4.63328 10.3158 3.53155C10.3252 3.08384 10.3244 2.63613 10.3149 2.18843C10.3123 2.04058 10.3528 1.99548 10.5104 1.99548C12.443 2.00049 14.3764 2.00216 16.309 1.99381C16.5045 1.99297 16.5088 2.0765 16.5071 2.21599C16.5019 2.64282 16.5002 3.06964 16.5062 3.4973C16.5217 4.62242 17.4338 5.50197 18.5757 5.49863C19.7022 5.49529 20.6082 4.61992 20.628 3.5115C20.6358 3.07382 20.6297 2.63697 20.6297 2.19928C20.6297 2.09822 20.5996 1.9913 20.7787 1.99631C21.6873 2.02388 22.6019 1.92448 23.4967 2.18341C25.4138 2.7372 26.7831 4.4679 26.8133 6.40574C26.8202 6.86347 26.8064 7.32204 26.8202 7.7806C26.8253 7.95852 26.7702 8.00529 26.5894 8.00362C25.6231 7.99527 24.6568 7.99944 23.6905 7.99944C20.2542 7.99944 16.818 7.99944 13.3817 7.99944Z" fill="#FFCC66"/>
<path d="M9.28731 2.28111C9.28731 2.68622 9.2942 3.09217 9.28559 3.49644C9.27267 4.07111 8.81192 4.50713 8.24007 4.49877C7.682 4.49042 7.23417 4.05691 7.22814 3.49561C7.21953 2.66451 7.21953 1.83341 7.22814 1.00147C7.23417 0.436823 7.67856 0.00749135 8.24007 -2.61423e-05C8.81278 -0.00754363 9.26751 0.427635 9.28645 1.00231C9.28731 1.02319 9.28731 1.04407 9.28731 1.06495C9.28731 1.47006 9.28731 1.876 9.28731 2.28111Z" fill="#FFCC66"/>
<path d="M17.5359 2.23104C17.5359 1.82594 17.5299 1.42083 17.5376 1.01572C17.548 0.434364 17.9941 2.04183e-05 18.5694 0.000855695C19.1412 0.00169097 19.5908 0.440211 19.596 1.02156C19.6037 1.84264 19.6037 2.66372 19.596 3.48396C19.5899 4.06281 19.1361 4.50133 18.5642 4.49966C17.9932 4.49798 17.5463 4.05863 17.5376 3.47811C17.5308 3.06214 17.5359 2.64618 17.5359 2.23104Z" fill="#FFCC66"/>
</g>
<defs>
<clipPath id="clip0_104_63">
<rect width="26.8235" height="24" fill="white"/>
</clipPath>
</defs>
</svg>
