<svg width="31" height="4" viewBox="0 0 31 4" fill="none" xmlns="http://www.w3.org/2000/svg">
<g clip-path="url(#clip0_263_163)">
<path d="M2.33152 3.403C2.327 3.40091 2.32248 3.39882 2.31796 3.39674C2.31569 3.3863 2.30665 3.38422 2.2976 3.38422C2.27499 3.38004 2.25464 3.38422 2.23428 3.39465C1.83853 3.58662 1.44279 3.78067 1.04478 3.97264C1.02216 3.98307 0.999548 3.99767 0.970149 3.99976C0.872908 4.00811 0.802804 3.93716 0.818634 3.84744C0.854817 3.65339 0.890999 3.45933 0.927182 3.26319C0.970149 3.03575 1.01085 2.8104 1.05382 2.58296C1.05834 2.55792 1.04251 2.54749 1.02895 2.53497C0.820895 2.34718 0.610583 2.15939 0.402533 1.97159C0.293985 1.87561 0.185436 1.77545 0.0746269 1.67947C0.0452284 1.65234 0.0180914 1.62313 0 1.58975C0 1.56888 0 1.54593 0 1.52506C0.0384441 1.42908 0.133424 1.42908 0.219358 1.41864C0.454545 1.38735 0.691995 1.35605 0.927182 1.32266C1.11488 1.29762 1.30258 1.2705 1.49254 1.24754C1.51515 1.24337 1.52646 1.23294 1.53777 1.21416C1.73903 0.834399 1.94256 0.456725 2.14609 0.0769653C2.17322 0.0268871 2.21619 -0.00441185 2.28177 -0.000238659C2.27951 0.0206273 2.28856 0.03732 2.29534 0.0560994C2.37223 0.256412 2.44912 0.456725 2.52601 0.657038C2.62777 0.919949 2.72727 1.18286 2.82904 1.44577C2.83582 1.46455 2.84487 1.47498 2.86748 1.47916C2.9602 1.49168 3.05292 1.50628 3.14564 1.5188C3.29715 1.53967 3.45093 1.56053 3.6047 1.57931C3.75848 1.60018 3.91 1.62104 4.06151 1.64191C4.07282 1.644 4.08865 1.63982 4.09317 1.65026C4.09995 1.66486 4.08412 1.67112 4.07508 1.67947C3.95975 1.78171 3.84894 1.88813 3.7336 1.98828C3.56852 2.13017 3.41022 2.28041 3.2474 2.42438C3.20896 2.45777 3.19086 2.48698 3.20217 2.54123C3.24288 2.74155 3.27906 2.94186 3.31524 3.14217C3.34464 3.30075 3.37404 3.45933 3.4057 3.62C3.41022 3.64087 3.40118 3.64295 3.38082 3.63878C3.36952 3.63461 3.35821 3.63252 3.3469 3.63043C3.02352 3.55532 2.7024 3.4802 2.37901 3.40508C2.36545 3.39674 2.34735 3.38213 2.33152 3.403Z" fill="#FECA2B"/>
<path d="M2.33154 3.40323C2.34737 3.38445 2.36546 3.39906 2.37903 3.40115C2.70241 3.47626 3.02353 3.55138 3.34692 3.6265C3.35822 3.62859 3.36953 3.63067 3.38084 3.63485C3.39893 3.64111 3.41024 3.63902 3.40571 3.61607C3.37631 3.45749 3.34465 3.2989 3.31526 3.13824C3.27907 2.93792 3.24289 2.73761 3.20219 2.5373C3.19088 2.48513 3.20897 2.45383 3.24741 2.42045C3.41024 2.27647 3.56854 2.12624 3.73362 1.98435C3.84895 1.88419 3.95976 1.77778 4.07509 1.67553C4.08414 1.66719 4.10223 1.66302 4.09318 1.64632C4.0864 1.63589 4.07283 1.64006 4.06152 1.63798C3.90775 1.61711 3.75623 1.59624 3.60472 1.57538C3.45094 1.55451 3.29943 1.53573 3.14565 1.51487C3.05293 1.50235 2.96021 1.48774 2.8675 1.47522C2.84488 1.47313 2.83584 1.46062 2.82905 1.44184C2.72955 1.17893 2.62778 0.916015 2.52602 0.653104C2.44913 0.452791 2.37224 0.252478 2.29536 0.0521648C2.28857 0.0375587 2.27953 0.0208659 2.28179 0C2.34511 0.00208659 2.37903 0.0375587 2.40617 0.0855503C2.5622 0.37976 2.7205 0.671883 2.87654 0.966093C2.91951 1.04747 2.96474 1.12885 3.0077 1.21231C3.01901 1.23318 3.03032 1.24361 3.05972 1.24778C3.50748 1.30621 3.95524 1.36672 4.40074 1.42723C4.46406 1.43558 4.51833 1.45644 4.53868 1.51904C4.55904 1.57955 4.5319 1.62337 4.48667 1.6651C4.16329 1.95514 3.84217 2.24517 3.51878 2.53312C3.49617 2.55399 3.48939 2.57068 3.49391 2.5999C3.57306 3.01304 3.64995 3.42619 3.72457 3.84142C3.73362 3.89567 3.72231 3.94158 3.67256 3.97496C3.62733 4.00626 3.57532 4.00835 3.52557 3.98539C3.12982 3.79343 2.73407 3.60146 2.33606 3.40949C2.33606 3.40532 2.3338 3.40323 2.33154 3.40323Z" fill="#FF9900"/>
</g>
<g clip-path="url(#clip1_263_163)">
<path d="M8.87696 3.403C8.87244 3.40091 8.86792 3.39882 8.8634 3.39674C8.86113 3.3863 8.85209 3.38422 8.84304 3.38422C8.82043 3.38004 8.80008 3.38422 8.77972 3.39465C8.38398 3.58662 7.98823 3.78067 7.59022 3.97264C7.5676 3.98307 7.54499 3.99767 7.51559 3.99976C7.41835 4.00811 7.34824 3.93716 7.36407 3.84744C7.40026 3.65339 7.43644 3.45933 7.47262 3.26319C7.51559 3.03575 7.5563 2.8104 7.59926 2.58296C7.60379 2.55792 7.58796 2.54749 7.57439 2.53497C7.36634 2.34718 7.15602 2.15939 6.94797 1.97159C6.83943 1.87561 6.73088 1.77545 6.62007 1.67947C6.59067 1.65234 6.56353 1.62313 6.54544 1.58975C6.54544 1.56888 6.54544 1.54593 6.54544 1.52506C6.58388 1.42908 6.67886 1.42908 6.7648 1.41864C6.99999 1.38735 7.23744 1.35605 7.47262 1.32266C7.66032 1.29762 7.84802 1.2705 8.03798 1.24754C8.06059 1.24337 8.0719 1.23294 8.08321 1.21416C8.28447 0.834399 8.488 0.456725 8.69153 0.0769653C8.71867 0.0268871 8.76163 -0.00441185 8.82721 -0.000238659C8.82495 0.0206273 8.834 0.03732 8.84078 0.0560994C8.91767 0.256412 8.99456 0.456725 9.07145 0.657038C9.17321 0.919949 9.27271 1.18286 9.37448 1.44577C9.38126 1.46455 9.39031 1.47498 9.41292 1.47916C9.50564 1.49168 9.59836 1.50628 9.69108 1.5188C9.84259 1.53967 9.99637 1.56053 10.1501 1.57931C10.3039 1.60018 10.4554 1.62104 10.607 1.64191C10.6183 1.644 10.6341 1.63982 10.6386 1.65026C10.6454 1.66486 10.6296 1.67112 10.6205 1.67947C10.5052 1.78171 10.3944 1.88813 10.279 1.98828C10.114 2.13017 9.95566 2.28041 9.79284 2.42438C9.7544 2.45777 9.7363 2.48698 9.74761 2.54123C9.78832 2.74155 9.8245 2.94186 9.86068 3.14217C9.89008 3.30075 9.91948 3.45933 9.95114 3.62C9.95566 3.64087 9.94662 3.64295 9.92626 3.63878C9.91496 3.63461 9.90365 3.63252 9.89234 3.63043C9.56896 3.55532 9.24784 3.4802 8.92445 3.40508C8.91089 3.39674 8.89279 3.38213 8.87696 3.403Z" fill="#FECA2B"/>
<path d="M8.87698 3.40323C8.89281 3.38445 8.9109 3.39906 8.92447 3.40115C9.24785 3.47626 9.56897 3.55138 9.89236 3.6265C9.90366 3.62859 9.91497 3.63067 9.92628 3.63485C9.94437 3.64111 9.95568 3.63902 9.95115 3.61607C9.92176 3.45749 9.8901 3.2989 9.8607 3.13824C9.82451 2.93792 9.78833 2.73761 9.74763 2.5373C9.73632 2.48513 9.75441 2.45383 9.79285 2.42045C9.95568 2.27647 10.114 2.12624 10.2791 1.98435C10.3944 1.88419 10.5052 1.77778 10.6205 1.67553C10.6296 1.66719 10.6477 1.66302 10.6386 1.64632C10.6318 1.63589 10.6183 1.64006 10.607 1.63798C10.4532 1.61711 10.3017 1.59624 10.1502 1.57538C9.99638 1.55451 9.84487 1.53573 9.69109 1.51487C9.59837 1.50235 9.50565 1.48774 9.41294 1.47522C9.39032 1.47313 9.38128 1.46062 9.37449 1.44184C9.27499 1.17893 9.17323 0.916015 9.07146 0.653104C8.99457 0.452791 8.91768 0.252478 8.8408 0.0521648C8.83401 0.0375587 8.82497 0.0208659 8.82723 0C8.89055 0.00208659 8.92447 0.0375587 8.95161 0.0855503C9.10764 0.37976 9.26594 0.671883 9.42198 0.966093C9.46495 1.04747 9.51018 1.12885 9.55314 1.21231C9.56445 1.23318 9.57576 1.24361 9.60516 1.24778C10.0529 1.30621 10.5007 1.36672 10.9462 1.42723C11.0095 1.43558 11.0638 1.45644 11.0841 1.51904C11.1045 1.57955 11.0773 1.62337 11.0321 1.6651C10.7087 1.95514 10.3876 2.24517 10.0642 2.53312C10.0416 2.55399 10.0348 2.57068 10.0393 2.5999C10.1185 3.01304 10.1954 3.42619 10.27 3.84142C10.2791 3.89567 10.2678 3.94158 10.218 3.97496C10.1728 4.00626 10.1208 4.00835 10.071 3.98539C9.67526 3.79343 9.27951 3.60146 8.8815 3.40949C8.8815 3.40532 8.87924 3.40323 8.87698 3.40323Z" fill="#FF9900"/>
</g>
<g clip-path="url(#clip2_263_163)">
<path d="M15.4224 3.403C15.4179 3.40091 15.4134 3.39882 15.4089 3.39674C15.4066 3.3863 15.3976 3.38422 15.3885 3.38422C15.3659 3.38004 15.3455 3.38422 15.3252 3.39465C14.9294 3.58662 14.5337 3.78067 14.1357 3.97264C14.1131 3.98307 14.0905 3.99767 14.0611 3.99976C13.9638 4.00811 13.8937 3.93716 13.9095 3.84744C13.9457 3.65339 13.9819 3.45933 14.0181 3.26319C14.0611 3.03575 14.1018 2.8104 14.1447 2.58296C14.1493 2.55792 14.1334 2.54749 14.1199 2.53497C13.9118 2.34718 13.7015 2.15939 13.4934 1.97159C13.3849 1.87561 13.2763 1.77545 13.1655 1.67947C13.1361 1.65234 13.109 1.62313 13.0909 1.58975C13.0909 1.56888 13.0909 1.54593 13.0909 1.52506C13.1294 1.42908 13.2243 1.42908 13.3103 1.41864C13.5455 1.38735 13.7829 1.35605 14.0181 1.32266C14.2058 1.29762 14.3935 1.2705 14.5834 1.24754C14.6061 1.24337 14.6174 1.23294 14.6287 1.21416C14.8299 0.834399 15.0335 0.456725 15.237 0.0769653C15.2641 0.0268871 15.3071 -0.00441185 15.3727 -0.000238659C15.3704 0.0206273 15.3795 0.03732 15.3863 0.0560994C15.4631 0.256412 15.54 0.456725 15.6169 0.657038C15.7187 0.919949 15.8182 1.18286 15.9199 1.44577C15.9267 1.46455 15.9358 1.47498 15.9584 1.47916C16.0511 1.49168 16.1438 1.50628 16.2365 1.5188C16.3881 1.53967 16.5418 1.56053 16.6956 1.57931C16.8494 1.60018 17.0009 1.62104 17.1524 1.64191C17.1637 1.644 17.1796 1.63982 17.1841 1.65026C17.1909 1.66486 17.175 1.67112 17.166 1.67947C17.0507 1.78171 16.9398 1.88813 16.8245 1.98828C16.6594 2.13017 16.5011 2.28041 16.3383 2.42438C16.2999 2.45777 16.2818 2.48698 16.2931 2.54123C16.3338 2.74155 16.37 2.94186 16.4062 3.14217C16.4356 3.30075 16.465 3.45933 16.4966 3.62C16.5011 3.64087 16.4921 3.64295 16.4717 3.63878C16.4604 3.63461 16.4491 3.63252 16.4378 3.63043C16.1144 3.55532 15.7933 3.4802 15.4699 3.40508C15.4564 3.39674 15.4383 3.38213 15.4224 3.403Z" fill="#FECA2B"/>
<path d="M15.4225 3.40323C15.4383 3.38445 15.4564 3.39906 15.4699 3.40115C15.7933 3.47626 16.1144 3.55138 16.4378 3.6265C16.4491 3.62859 16.4604 3.63067 16.4717 3.63485C16.4898 3.64111 16.5011 3.63902 16.4966 3.61607C16.4672 3.45749 16.4356 3.2989 16.4062 3.13824C16.37 2.93792 16.3338 2.73761 16.2931 2.5373C16.2818 2.48513 16.2999 2.45383 16.3383 2.42045C16.5011 2.27647 16.6594 2.12624 16.8245 1.98435C16.9399 1.88419 17.0507 1.77778 17.166 1.67553C17.1751 1.66719 17.1931 1.66302 17.1841 1.64632C17.1773 1.63589 17.1637 1.64006 17.1524 1.63798C16.9987 1.61711 16.8471 1.59624 16.6956 1.57538C16.5419 1.55451 16.3903 1.53573 16.2366 1.51487C16.1438 1.50235 16.0511 1.48774 15.9584 1.47522C15.9358 1.47313 15.9267 1.46062 15.92 1.44184C15.8205 1.17893 15.7187 0.916015 15.6169 0.653104C15.54 0.452791 15.4632 0.252478 15.3863 0.0521648C15.3795 0.0375587 15.3704 0.0208659 15.3727 0C15.436 0.00208659 15.4699 0.0375587 15.4971 0.0855503C15.6531 0.37976 15.8114 0.671883 15.9675 0.966093C16.0104 1.04747 16.0556 1.12885 16.0986 1.21231C16.1099 1.23318 16.1212 1.24361 16.1506 1.24778C16.5984 1.30621 17.0461 1.36672 17.4916 1.42723C17.555 1.43558 17.6092 1.45644 17.6296 1.51904C17.6499 1.57955 17.6228 1.62337 17.5776 1.6651C17.2542 1.95514 16.9331 2.24517 16.6097 2.53312C16.5871 2.55399 16.5803 2.57068 16.5848 2.5999C16.664 3.01304 16.7409 3.42619 16.8155 3.84142C16.8245 3.89567 16.8132 3.94158 16.7635 3.97496C16.7182 4.00626 16.6662 4.00835 16.6165 3.98539C16.2207 3.79343 15.825 3.60146 15.427 3.40949C15.427 3.40532 15.4247 3.40323 15.4225 3.40323Z" fill="#FF9900"/>
</g>
<g clip-path="url(#clip3_263_163)">
<path d="M21.9679 3.403C21.9634 3.40091 21.9588 3.39882 21.9543 3.39674C21.952 3.3863 21.943 3.38422 21.934 3.38422C21.9113 3.38004 21.891 3.38422 21.8706 3.39465C21.4749 3.58662 21.0791 3.78067 20.6811 3.97264C20.6585 3.98307 20.6359 3.99767 20.6065 3.99976C20.5093 4.00811 20.4392 3.93716 20.455 3.84744C20.4912 3.65339 20.5274 3.45933 20.5635 3.26319C20.6065 3.03575 20.6472 2.8104 20.6902 2.58296C20.6947 2.55792 20.6789 2.54749 20.6653 2.53497C20.4572 2.34718 20.2469 2.15939 20.0389 1.97159C19.9303 1.87561 19.8218 1.77545 19.711 1.67947C19.6816 1.65234 19.6544 1.62313 19.6364 1.58975C19.6364 1.56888 19.6364 1.54593 19.6364 1.52506C19.6748 1.42908 19.7698 1.42908 19.8557 1.41864C20.0909 1.38735 20.3283 1.35605 20.5635 1.32266C20.7512 1.29762 20.9389 1.2705 21.1289 1.24754C21.1515 1.24337 21.1628 1.23294 21.1741 1.21416C21.3754 0.834399 21.5789 0.456725 21.7824 0.0769653C21.8096 0.0268871 21.8525 -0.00441185 21.9181 -0.000238659C21.9159 0.0206273 21.9249 0.03732 21.9317 0.0560994C22.0086 0.256412 22.0855 0.456725 22.1624 0.657038C22.2641 0.919949 22.3636 1.18286 22.4654 1.44577C22.4722 1.46455 22.4812 1.47498 22.5038 1.47916C22.5966 1.49168 22.6893 1.50628 22.782 1.5188C22.9335 1.53967 23.0873 1.56053 23.2411 1.57931C23.3948 1.60018 23.5463 1.62104 23.6979 1.64191C23.7092 1.644 23.725 1.63982 23.7295 1.65026C23.7363 1.66486 23.7205 1.67112 23.7114 1.67947C23.5961 1.78171 23.4853 1.88813 23.37 1.98828C23.2049 2.13017 23.0466 2.28041 22.8838 2.42438C22.8453 2.45777 22.8272 2.48698 22.8385 2.54123C22.8792 2.74155 22.9154 2.94186 22.9516 3.14217C22.981 3.30075 23.0104 3.45933 23.0421 3.62C23.0466 3.64087 23.0375 3.64295 23.0172 3.63878C23.0059 3.63461 22.9946 3.63252 22.9833 3.63043C22.6599 3.55532 22.3387 3.4802 22.0154 3.40508C22.0018 3.39674 21.9837 3.38213 21.9679 3.403Z" fill="#FECA2B"/>
<path d="M21.9679 3.40323C21.9837 3.38445 22.0018 3.39906 22.0154 3.40115C22.3388 3.47626 22.6599 3.55138 22.9833 3.6265C22.9946 3.62859 23.0059 3.63067 23.0172 3.63485C23.0353 3.64111 23.0466 3.63902 23.0421 3.61607C23.0127 3.45749 22.981 3.2989 22.9516 3.13824C22.9154 2.93792 22.8792 2.73761 22.8385 2.5373C22.8272 2.48513 22.8453 2.45383 22.8838 2.42045C23.0466 2.27647 23.2049 2.12624 23.37 1.98435C23.4853 1.88419 23.5961 1.77778 23.7114 1.67553C23.7205 1.66719 23.7386 1.66302 23.7295 1.64632C23.7228 1.63589 23.7092 1.64006 23.6979 1.63798C23.5441 1.61711 23.3926 1.59624 23.2411 1.57538C23.0873 1.55451 22.9358 1.53573 22.782 1.51487C22.6893 1.50235 22.5966 1.48774 22.5038 1.47522C22.4812 1.47313 22.4722 1.46062 22.4654 1.44184C22.3659 1.17893 22.2641 0.916015 22.1624 0.653104C22.0855 0.452791 22.0086 0.252478 21.9317 0.0521648C21.9249 0.0375587 21.9159 0.0208659 21.9181 0C21.9815 0.00208659 22.0154 0.0375587 22.0425 0.0855503C22.1986 0.37976 22.3569 0.671883 22.5129 0.966093C22.5559 1.04747 22.6011 1.12885 22.6441 1.21231C22.6554 1.23318 22.6667 1.24361 22.6961 1.24778C23.1438 1.30621 23.5916 1.36672 24.0371 1.42723C24.1004 1.43558 24.1547 1.45644 24.175 1.51904C24.1954 1.57955 24.1683 1.62337 24.123 1.6651C23.7996 1.95514 23.4785 2.24517 23.1551 2.53312C23.1325 2.55399 23.1257 2.57068 23.1303 2.5999C23.2094 3.01304 23.2863 3.42619 23.3609 3.84142C23.37 3.89567 23.3587 3.94158 23.3089 3.97496C23.2637 4.00626 23.2117 4.00835 23.1619 3.98539C22.7662 3.79343 22.3704 3.60146 21.9724 3.40949C21.9724 3.40532 21.9702 3.40323 21.9679 3.40323Z" fill="#FF9900"/>
</g>
<g clip-path="url(#clip4_263_163)">
<path d="M28.5133 3.403C28.5088 3.40091 28.5043 3.39882 28.4998 3.39674C28.4975 3.3863 28.4885 3.38422 28.4794 3.38422C28.4568 3.38004 28.4365 3.38422 28.4161 3.39465C28.0204 3.58662 27.6246 3.78067 27.2266 3.97264C27.204 3.98307 27.1814 3.99767 27.152 3.99976C27.0547 4.00811 26.9846 3.93716 27.0005 3.84744C27.0366 3.65339 27.0728 3.45933 27.109 3.26319C27.152 3.03575 27.1927 2.8104 27.2356 2.58296C27.2402 2.55792 27.2243 2.54749 27.2108 2.53497C27.0027 2.34718 26.7924 2.15939 26.5844 1.97159C26.4758 1.87561 26.3673 1.77545 26.2565 1.67947C26.2271 1.65234 26.1999 1.62313 26.1818 1.58975C26.1818 1.56888 26.1818 1.54593 26.1818 1.52506C26.2203 1.42908 26.3152 1.42908 26.4012 1.41864C26.6364 1.38735 26.8738 1.35605 27.109 1.32266C27.2967 1.29762 27.4844 1.2705 27.6744 1.24754C27.697 1.24337 27.7083 1.23294 27.7196 1.21416C27.9209 0.834399 28.1244 0.456725 28.3279 0.0769653C28.355 0.0268871 28.398 -0.00441185 28.4636 -0.000238659C28.4613 0.0206273 28.4704 0.03732 28.4772 0.0560994C28.5541 0.256412 28.6309 0.456725 28.7078 0.657038C28.8096 0.919949 28.9091 1.18286 29.0109 1.44577C29.0176 1.46455 29.0267 1.47498 29.0493 1.47916C29.142 1.49168 29.2347 1.50628 29.3275 1.5188C29.479 1.53967 29.6328 1.56053 29.7865 1.57931C29.9403 1.60018 30.0918 1.62104 30.2433 1.64191C30.2546 1.644 30.2705 1.63982 30.275 1.65026C30.2818 1.66486 30.2659 1.67112 30.2569 1.67947C30.1416 1.78171 30.0308 1.88813 29.9154 1.98828C29.7503 2.13017 29.592 2.28041 29.4292 2.42438C29.3908 2.45777 29.3727 2.48698 29.384 2.54123C29.4247 2.74155 29.4609 2.94186 29.4971 3.14217C29.5265 3.30075 29.5559 3.45933 29.5875 3.62C29.592 3.64087 29.583 3.64295 29.5626 3.63878C29.5513 3.63461 29.54 3.63252 29.5287 3.63043C29.2053 3.55532 28.8842 3.4802 28.5608 3.40508C28.5473 3.39674 28.5292 3.38213 28.5133 3.403Z" fill="#FECA2B"/>
<path d="M28.5134 3.40323C28.5292 3.38445 28.5473 3.39906 28.5609 3.40115C28.8842 3.47626 29.2054 3.55138 29.5287 3.6265C29.54 3.62859 29.5514 3.63067 29.5627 3.63485C29.5808 3.64111 29.5921 3.63902 29.5875 3.61607C29.5581 3.45749 29.5265 3.2989 29.4971 3.13824C29.4609 2.93792 29.4247 2.73761 29.384 2.5373C29.3727 2.48513 29.3908 2.45383 29.4292 2.42045C29.5921 2.27647 29.7504 2.12624 29.9154 1.98435C30.0308 1.88419 30.1416 1.77778 30.2569 1.67553C30.266 1.66719 30.2841 1.66302 30.275 1.64632C30.2682 1.63589 30.2547 1.64006 30.2433 1.63798C30.0896 1.61711 29.9381 1.59624 29.7865 1.57538C29.6328 1.55451 29.4813 1.53573 29.3275 1.51487C29.2348 1.50235 29.142 1.48774 29.0493 1.47522C29.0267 1.47313 29.0177 1.46062 29.0109 1.44184C28.9114 1.17893 28.8096 0.916015 28.7078 0.653104C28.631 0.452791 28.5541 0.252478 28.4772 0.0521648C28.4704 0.0375587 28.4613 0.0208659 28.4636 0C28.5269 0.00208659 28.5609 0.0375587 28.588 0.0855503C28.744 0.37976 28.9023 0.671883 29.0584 0.966093C29.1013 1.04747 29.1466 1.12885 29.1895 1.21231C29.2008 1.23318 29.2121 1.24361 29.2415 1.24778C29.6893 1.30621 30.1371 1.36672 30.5826 1.42723C30.6459 1.43558 30.7002 1.45644 30.7205 1.51904C30.7409 1.57955 30.7137 1.62337 30.6685 1.6651C30.3451 1.95514 30.024 2.24517 29.7006 2.53312C29.678 2.55399 29.6712 2.57068 29.6757 2.5999C29.7549 3.01304 29.8318 3.42619 29.9064 3.84142C29.9154 3.89567 29.9041 3.94158 29.8544 3.97496C29.8092 4.00626 29.7571 4.00835 29.7074 3.98539C29.3116 3.79343 28.9159 3.60146 28.5179 3.40949C28.5179 3.40532 28.5156 3.40323 28.5134 3.40323Z" fill="#FF9900"/>
</g>
<defs>
<clipPath id="clip0_263_163">
<rect width="4.54545" height="4" fill="white"/>
</clipPath>
<clipPath id="clip1_263_163">
<rect width="4.54545" height="4" fill="white" transform="translate(6.54544)"/>
</clipPath>
<clipPath id="clip2_263_163">
<rect width="4.54545" height="4" fill="white" transform="translate(13.0909)"/>
</clipPath>
<clipPath id="clip3_263_163">
<rect width="4.54545" height="4" fill="white" transform="translate(19.6364)"/>
</clipPath>
<clipPath id="clip4_263_163">
<rect width="4.54545" height="4" fill="white" transform="translate(26.1818)"/>
</clipPath>
</defs>
</svg>
