<svg width="19" height="17" viewBox="0 0 19 17" fill="none" xmlns="http://www.w3.org/2000/svg">
<g clip-path="url(#clip0_423_1115)">
<path d="M0 7.26245C1.26601 7.26045 2.53201 7.25894 3.79802 7.25342C3.90364 7.25292 3.91405 7.29305 3.91157 7.38586C3.88133 8.34351 3.16278 9.1577 2.22902 9.28461C1.27394 9.41454 0.349106 8.81507 0.0813259 7.89152C0.0595067 7.81728 0.0649615 7.733 0 7.67531C0 7.53786 0 7.39991 0 7.26245Z" fill="#FFCC66"/>
<path d="M4.47646 9.11575C4.94111 9.74683 5.5327 10.1813 6.28943 10.3418C7.54006 10.6077 8.57747 10.2279 9.39717 9.23765C9.45916 9.1629 9.48643 9.08816 9.58958 9.21859C10.8843 10.8525 13.1996 10.8334 14.4681 9.18448C14.483 9.16491 14.4994 9.14635 14.5252 9.11475C14.6962 9.32193 14.8604 9.52811 15.0647 9.69616C15.8472 10.3403 16.7319 10.561 17.7177 10.3458C17.8585 10.3152 17.8888 10.3353 17.8888 10.4848C17.8838 12.5987 17.8838 14.7127 17.8888 16.8267C17.8893 16.9661 17.858 17.0002 17.7182 17.0002C12.2406 16.9962 6.76251 16.9962 1.28492 16.9997C1.15301 16.9997 1.10937 16.9781 1.10987 16.8307C1.11582 14.7102 1.11383 12.5902 1.11334 10.4697C1.11334 10.3789 1.09648 10.3077 1.24128 10.3378C2.54695 10.6112 3.61163 10.2088 4.43679 9.15187C4.44423 9.14284 4.45464 9.13531 4.47646 9.11575Z" fill="#FFCC66"/>
<path d="M8.9423 3.07823C8.9423 4.0414 8.93982 5.00408 8.94527 5.96725C8.94626 6.09718 8.91453 6.1333 8.78312 6.13279C7.62125 6.12727 6.45888 6.12677 5.29701 6.13279C5.15469 6.1333 5.13734 6.08514 5.15866 5.96223C5.41256 4.50543 5.66348 3.04763 5.91539 1.59033C5.99622 1.12279 6.08548 0.657257 6.15391 0.18771C6.17623 0.0332012 6.23425 9.20767e-05 6.37805 0.00159703C7.169 0.00862017 7.96044 0.0116301 8.75138 -0.000409576C8.92544 -0.00291784 8.94626 0.0542705 8.94527 0.207776C8.93883 1.16493 8.9423 2.12158 8.9423 3.07823Z" fill="#FFCC66"/>
<path d="M10.0557 3.05205C10.0557 2.09539 10.0597 1.13874 10.0518 0.182091C10.0508 0.0305922 10.0949 0.000994735 10.2348 0.00199804C11.0321 0.00851952 11.8295 0.00952283 12.6269 0.00149639C12.7792 -8.57026e-06 12.8193 0.0521633 12.8436 0.195636C13.167 2.0964 13.4967 3.99616 13.8265 5.89591C13.8671 6.12968 13.8706 6.12918 13.638 6.12918C12.5005 6.12918 11.3634 6.12667 10.2263 6.13269C10.0895 6.13319 10.0518 6.10209 10.0528 5.95962C10.0592 4.99043 10.0557 4.02124 10.0557 3.05205Z" fill="#FFCC66"/>
<path d="M2.12437 6.12915C1.54964 6.12915 0.974902 6.12614 0.400662 6.13116C0.272226 6.13216 0.226605 6.12113 0.278673 5.97113C0.955562 4.02673 1.627 2.07981 2.29595 0.132399C2.33066 0.0310651 2.37827 0.00247093 2.48042 0.00297258C3.28971 0.0069858 4.0995 0.00849076 4.90879 0.00196928C5.04516 0.000965971 5.05756 0.0466163 5.03723 0.164003C4.7025 2.08734 4.36976 4.01118 4.04148 5.93551C4.01669 6.08099 3.97354 6.13818 3.81139 6.13417C3.24905 6.12113 2.68671 6.12915 2.12437 6.12915Z" fill="#FFCC66"/>
<path d="M16.8741 6.1292C16.2993 6.1292 15.7246 6.12418 15.1503 6.13271C15.0224 6.13472 14.9837 6.08706 14.9644 5.97268C14.765 4.79831 14.5622 3.62394 14.3599 2.45008C14.2295 1.69409 14.101 0.937595 13.9647 0.182608C13.9404 0.048667 13.9518 -0.00049498 14.1075 0.00100998C14.9044 0.00953807 15.7018 0.00702981 16.4987 0.00251494C16.6127 0.00201328 16.6678 0.0291025 16.7089 0.148997C17.3719 2.08538 18.0394 4.02025 18.7133 5.95262C18.7708 6.11766 18.7257 6.13321 18.5799 6.13171C18.0111 6.12569 17.4423 6.1292 16.8741 6.1292Z" fill="#FFCC66"/>
<path d="M12.0123 7.2555C12.6118 7.2555 13.2114 7.25902 13.8104 7.25249C13.9393 7.25099 13.974 7.28109 13.9656 7.41704C13.9036 8.47602 13.0735 9.2872 12.0292 9.29823C11.0101 9.30927 10.1473 8.51666 10.0605 7.48978C10.0407 7.2555 10.0407 7.255 10.2693 7.255C10.8504 7.2555 11.4311 7.2555 12.0123 7.2555Z" fill="#FFCC66"/>
<path d="M6.98471 7.25562C7.57185 7.25562 8.15898 7.26164 8.74562 7.2516C8.9043 7.24909 8.95339 7.27969 8.94249 7.45176C8.87653 8.49419 7.99385 9.31891 6.95099 9.29834C5.90318 9.27778 5.0557 8.42798 5.02942 7.38103C5.02645 7.25762 5.07653 7.25411 5.16827 7.25461C5.77375 7.25712 6.37923 7.25562 6.98471 7.25562Z" fill="#FFCC66"/>
<path d="M17.0541 7.25544C17.6537 7.25544 18.2532 7.25745 18.8522 7.25344C18.9544 7.25294 19.002 7.26096 19 7.39039C18.9841 8.43433 18.0896 9.3057 17.0303 9.29868C15.9706 9.29165 15.086 8.40975 15.0845 7.36681C15.0845 7.24742 15.1405 7.25444 15.2189 7.25444C15.8303 7.25595 16.4422 7.25544 17.0541 7.25544Z" fill="#FFCC66"/>
</g>
<defs>
<clipPath id="clip0_423_1115">
<rect width="19" height="17" fill="white"/>
</clipPath>
</defs>
</svg>
