<svg width="67" height="67" viewBox="0 0 67 67" fill="none" xmlns="http://www.w3.org/2000/svg">
<g filter="url(#filter0_d_88_70)">
<circle cx="33.5" cy="29.5" r="29.5" fill="#EBEAE9"/>
<circle cx="33.5" cy="29.5" r="29" stroke="#EBEAE9"/>
</g>
<path d="M19 23.9527C19.1146 23.8943 19.0918 23.7713 19.1163 23.6788C19.5187 22.1536 20.8358 21.0769 22.4163 21.0167C23.1379 20.9896 23.8612 21.0036 24.5845 21.0036C28.8151 21.0027 33.0456 21.0071 37.2762 21.001C38.8479 20.9984 40.0112 21.6519 40.7214 23.0654C40.9785 23.5784 41.0581 24.1334 41.0581 24.6996C41.0599 28.612 41.0625 32.5245 41.0572 36.4369C41.0546 38.3163 39.8704 39.7621 38.0704 40.0893C37.7905 40.1399 37.4992 40.139 37.2132 40.139C32.4299 40.1416 27.6466 40.1416 22.8632 40.1408C20.8787 40.1408 19.6402 39.215 19.0761 37.312C19.0621 37.264 19.0717 37.203 19.0009 37.1907C19 32.7792 19 28.366 19 23.9527Z" fill="#FFCC66"/>
<path d="M51.6683 30.5787C51.6683 32.4023 51.6806 34.225 51.664 36.0486C51.6508 37.4961 50.2961 38.4934 48.9203 38.0947C48.6946 38.0292 48.4882 37.921 48.287 37.805C46.5579 36.8173 44.8314 35.8244 43.0987 34.8436C42.9072 34.7354 42.839 34.6194 42.8399 34.4004C42.8477 31.8352 42.846 29.2699 42.8425 26.7047C42.8425 26.5267 42.8591 26.4002 43.0454 26.2946C44.8323 25.279 46.6077 24.2433 48.3929 23.2259C49.4966 22.5968 50.7605 22.9345 51.3937 24.013C51.608 24.3785 51.6701 24.7851 51.6692 25.204C51.6675 26.9961 51.6692 28.7874 51.6683 30.5787Z" fill="#FFCC66"/>
<path d="M33.9624 29.8145C33.9597 29.9392 33.8933 30.0806 33.7752 30.201C33.3108 30.6757 32.849 31.1512 32.3837 31.6258C32.3391 31.6712 32.3216 31.7105 32.3329 31.7785C32.4484 32.4626 32.5603 33.1475 32.6679 33.8333C32.7046 34.0698 32.6277 34.2705 32.4283 34.4101C32.2341 34.5462 32.0286 34.5471 31.8221 34.4319C31.2545 34.1178 30.686 33.8045 30.1201 33.4869C30.0493 33.4468 29.9994 33.4494 29.9303 33.4887C29.3679 33.8054 28.8029 34.1187 28.2379 34.4319C28.0324 34.5462 27.8251 34.5462 27.6318 34.4083C27.4385 34.2705 27.3563 34.0768 27.3939 33.8412C27.5041 33.1501 27.6169 32.4591 27.7306 31.7689C27.7403 31.7096 27.7219 31.6712 27.6817 31.6302C27.2155 31.1538 26.7519 30.6748 26.2866 30.1975C26.1073 30.0143 26.0496 29.8023 26.1379 29.5606C26.2245 29.3241 26.4073 29.2142 26.6522 29.1784C27.2828 29.0868 27.9117 28.9882 28.5414 28.894C28.6 28.8852 28.6245 28.8529 28.6472 28.805C28.9289 28.2055 29.214 27.6079 29.4939 27.0076C29.5752 26.8339 29.6907 26.7013 29.8796 26.6481C30.1481 26.5722 30.4122 26.6934 30.5382 26.9552C30.735 27.3644 30.9274 27.7762 31.1216 28.1872C31.2222 28.3992 31.3236 28.6104 31.4198 28.8242C31.4417 28.8739 31.4767 28.8861 31.5213 28.8931C31.991 28.9646 32.4615 29.0362 32.9312 29.1086C33.114 29.1365 33.2968 29.1627 33.4787 29.195C33.7673 29.2447 33.9632 29.4803 33.9624 29.8145Z" fill="white"/>
<defs>
<filter id="filter0_d_88_70" x="0" y="0" width="67" height="67" filterUnits="userSpaceOnUse" color-interpolation-filters="sRGB">
<feFlood flood-opacity="0" result="BackgroundImageFix"/>
<feColorMatrix in="SourceAlpha" type="matrix" values="0 0 0 0 0 0 0 0 0 0 0 0 0 0 0 0 0 0 127 0" result="hardAlpha"/>
<feOffset dy="4"/>
<feGaussianBlur stdDeviation="2"/>
<feComposite in2="hardAlpha" operator="out"/>
<feColorMatrix type="matrix" values="0 0 0 0 0 0 0 0 0 0 0 0 0 0 0 0 0 0 0.25 0"/>
<feBlend mode="normal" in2="BackgroundImageFix" result="effect1_dropShadow_88_70"/>
<feBlend mode="normal" in="SourceGraphic" in2="effect1_dropShadow_88_70" result="shape"/>
</filter>
</defs>
</svg>
