<svg width="14" height="15" viewBox="0 0 14 15" fill="none" xmlns="http://www.w3.org/2000/svg">
<path d="M12.9609 5.00755C12.7502 3.35618 12.7779 2.32199 12.8167 1.82157C12.8333 1.58804 12.6393 1.40456 12.4119 1.42124C11.9905 1.46016 11.3695 1.69925 10.9869 2.66672C10.754 3.26166 10.8205 3.87328 10.8261 4.46265C10.8372 5.45237 10.8261 6.23079 10.8261 6.23079C10.8261 6.23079 5.90214 0.320322 4.90404 0.053433C4.36618 -0.0911316 4.17209 0.0701127 3.97248 0.387043C3.78949 0.681732 4.15547 1.37119 4.15547 1.37119L6.9335 5.35228C6.9335 5.35228 2.73596 0.398165 1.9763 0.414845C1.20001 0.431526 0.883933 0.993103 1.3608 1.88829C1.72122 2.56107 5.38645 6.91469 5.38645 6.91469C5.38645 6.91469 1.46615 3.11709 0.684314 3.15045C-0.0975265 3.18381 0.0355567 4.01228 0.445884 4.35701C0.856212 4.70174 3.75623 8.08233 3.75623 8.08233C3.75623 8.08233 0.922744 5.68589 0.351612 5.87494C-0.236154 6.06955 0.0244715 6.69785 0.329445 7.21494C0.634418 7.72648 7.73751 14.8546 7.73751 14.8546L13.898 11.752C14.0588 10.8847 14.0311 9.99503 13.8037 9.13876C13.532 8.09345 13.155 6.5088 12.9609 5.00755Z" fill="#FFD3C1"/>
</svg>
