<svg width="30" height="25" viewBox="0 0 30 25" fill="none" xmlns="http://www.w3.org/2000/svg">
<path d="M11.6277 5.67861C11.4912 6.23708 11.3537 6.79473 11.218 7.3532C10.175 11.6627 9.1338 15.9721 8.08833 20.2808C7.92982 20.9352 7.56222 21.2764 7.01251 21.3084C6.41136 21.3428 6.0328 21.0705 5.78324 20.4235C4.77824 17.8189 3.77072 15.2152 2.77246 12.6082C2.69658 12.4089 2.61143 12.3204 2.37873 12.3335C1.98078 12.3556 1.58029 12.3442 1.18066 12.3384C0.528925 12.3286 0.0297987 11.8669 0.0011327 11.2543C-0.0258471 10.6671 0.431966 10.1365 1.07274 10.1086C1.89056 10.0726 2.7126 10.0824 3.53127 10.1062C4.07424 10.1218 4.4039 10.4457 4.59023 10.9303C5.23774 12.6205 5.89116 14.3082 6.54205 15.9968C6.57409 16.0812 6.60697 16.1649 6.66936 16.3256C6.80679 15.7729 6.92904 15.2915 7.04539 14.8093C8.15999 10.2021 9.27375 5.59496 10.3884 0.986984C10.5384 0.36701 10.9389 0.0143792 11.4996 0.00043796C12.0847 -0.0135033 12.4945 0.305504 12.6842 0.94106C14.4868 7.00303 16.2877 13.0658 18.0902 19.1278C18.1164 19.2147 18.1467 19.3 18.199 19.4575C18.4064 18.6177 18.597 17.8468 18.7867 17.0768C19.8363 12.8223 20.8843 8.5669 21.9357 4.31237C22.079 3.73094 22.4753 3.39225 23.0174 3.37011C23.5992 3.34633 24.0005 3.63089 24.2045 4.22545C25.1134 6.87428 26.0232 9.52311 26.9194 12.176C27.0062 12.4319 27.1184 12.5279 27.4017 12.5098C27.8409 12.4819 28.2844 12.5 28.7253 12.5032C29.4791 12.5082 29.9942 12.9584 29.9993 13.6144C30.0052 14.2656 29.4816 14.7355 28.738 14.7396C27.9387 14.7437 27.1403 14.7429 26.341 14.7396C25.6505 14.7371 25.2955 14.4919 25.0755 13.8555C24.5114 12.2236 23.9525 10.5892 23.3901 8.95644C23.3581 8.86459 23.321 8.77438 23.251 8.59069C23.0512 9.39682 22.8733 10.1119 22.697 10.827C21.6179 15.2111 20.5387 19.596 19.4628 23.981C19.344 24.464 19.0969 24.8371 18.5835 24.961C18.1324 25.07 17.7302 24.9511 17.4158 24.6018C17.2733 24.4435 17.2033 24.2524 17.1451 24.0556C15.356 18.0215 13.5669 11.9874 11.777 5.95416C11.7491 5.86149 11.7146 5.77128 11.6825 5.68025C11.6648 5.68025 11.6463 5.67943 11.6277 5.67861Z" fill="#FFCC66"/>
</svg>
