<svg width="16" height="23" viewBox="0 0 16 23" fill="none" xmlns="http://www.w3.org/2000/svg">
<g clip-path="url(#clip0_197_18)">
<path d="M8.6602 0C8.96186 0.05762 9.2663 0.0996346 9.56405 0.174661C12.8322 1.00235 14.9137 3.1697 15.7714 6.66352C16.2478 8.60399 15.9317 10.488 15.2593 12.3211C14.5564 14.2375 13.5635 15.9752 12.4437 17.6341C11.2037 19.4702 9.8262 21.179 8.33239 22.7797C8.058 23.0738 7.92999 23.0738 7.65561 22.7779C5.5507 20.5061 3.64726 18.0585 2.10837 15.2993C1.25628 13.7712 0.555011 12.1716 0.186011 10.4184C-0.562006 6.86219 1.00137 3.01905 3.93556 1.19742C4.92791 0.581602 5.98593 0.196268 7.12075 0.0492171C7.16361 0.0438152 7.22205 0.0708246 7.24431 0C7.71627 0 8.18824 0 8.6602 0ZM8.00346 12.575C10.0076 12.5768 11.6601 10.796 11.6589 8.6352C11.6578 6.45704 10.0232 4.67383 8.02684 4.67142C5.97257 4.66902 4.3335 6.42583 4.33016 8.6328C4.32738 10.802 5.97758 12.5732 8.00346 12.575Z" fill="black"/>
</g>
<defs>
<clipPath id="clip0_197_18">
<rect width="16" height="23" fill="white"/>
</clipPath>
</defs>
</svg>
