<svg width="3" height="5" viewBox="0 0 3 5" fill="none" xmlns="http://www.w3.org/2000/svg">
<path d="M0.0551053 4.25321C0.0725148 4.22974 0.0924114 4.248 0.107334 4.2506C0.462986 4.34448 0.816151 4.43836 1.1718 4.53224C1.18424 4.53485 1.19667 4.53745 1.20911 4.54267C1.22901 4.55049 1.24144 4.54789 1.23647 4.5192C1.20413 4.32101 1.16932 4.12283 1.13698 3.92203C1.09719 3.67169 1.0574 3.42135 1.01263 3.171C1.00019 3.10581 1.02009 3.06669 1.06237 3.02497C1.24144 2.84504 1.41554 2.65728 1.59709 2.47995C1.72393 2.35478 1.8458 2.22179 1.97264 2.09401C1.98259 2.08358 2.00249 2.07836 1.99254 2.0575C1.98508 2.04446 1.97015 2.04968 1.95772 2.04707C1.7886 2.02099 1.62196 1.99492 1.45533 1.96884C1.28621 1.94276 1.11957 1.91929 0.950453 1.89321C0.848483 1.87757 0.746513 1.85931 0.644542 1.84367C0.619672 1.84106 0.609723 1.82541 0.602262 1.80194C0.492831 1.47337 0.380912 1.14479 0.268994 0.81622C0.184433 0.565878 0.0998724 0.315536 0.0153118 0.0651933C0.00785062 0.0469392 -0.00209756 0.0260773 0.000389519 0C0.0700277 0.00260773 0.107334 0.0469392 0.137179 0.106917C0.308787 0.474607 0.482882 0.83969 0.654491 1.20738C0.701745 1.30908 0.751487 1.41078 0.798741 1.51509C0.811176 1.54117 0.823612 1.55421 0.855944 1.55942C1.34838 1.63244 1.84083 1.70806 2.33078 1.78369C2.40042 1.79412 2.46011 1.8202 2.48249 1.89843C2.50488 1.97405 2.47503 2.02882 2.42529 2.08097C2.06964 2.44345 1.71647 2.80592 1.36082 3.16579C1.33595 3.19187 1.32849 3.21273 1.33346 3.24923C1.42051 3.76557 1.50507 4.2819 1.58714 4.80084C1.59709 4.86864 1.58466 4.92601 1.52994 4.96773C1.4802 5.00685 1.423 5.00945 1.36828 4.98077C0.933043 4.74086 0.497805 4.50095 0.0600793 4.26104C0.0600793 4.25582 0.0575923 4.25321 0.0551053 4.25321Z" fill="#FF9900"/>
</svg>
