<svg width="280" height="247" viewBox="0 0 280 247" fill="none" xmlns="http://www.w3.org/2000/svg">
<g filter="url(#filter0_d_759_340)">
<path d="M0 30C0 13.4315 13.4315 0 30 0H250C266.569 0 280 13.4315 280 30V247H0V30Z" fill="#D9D9D9"/>
<path d="M16 47C16 30.4315 29.4315 17 46 17H234C250.569 17 264 30.4315 264 47V247H16V47Z" fill="white"/>
<path d="M16 47C16 30.4315 29.4315 17 46 17H234C250.569 17 264 30.4315 264 47V89H16V47Z" fill="#FFCC66"/>
<rect x="79" y="9" width="131" height="24" rx="10" fill="#D9D9D9"/>
<rect x="128" y="19" width="33" height="4" rx="2" fill="white"/>
</g>
<defs>
<filter id="filter0_d_759_340" x="-20" y="-16" width="320" height="287" filterUnits="userSpaceOnUse" color-interpolation-filters="sRGB">
<feFlood flood-opacity="0" result="BackgroundImageFix"/>
<feColorMatrix in="SourceAlpha" type="matrix" values="0 0 0 0 0 0 0 0 0 0 0 0 0 0 0 0 0 0 127 0" result="hardAlpha"/>
<feOffset dy="4"/>
<feGaussianBlur stdDeviation="10"/>
<feComposite in2="hardAlpha" operator="out"/>
<feColorMatrix type="matrix" values="0 0 0 0 0 0 0 0 0 0 0 0 0 0 0 0 0 0 0.14 0"/>
<feBlend mode="normal" in2="BackgroundImageFix" result="effect1_dropShadow_759_340"/>
<feBlend mode="normal" in="SourceGraphic" in2="effect1_dropShadow_759_340" result="shape"/>
</filter>
</defs>
</svg>
