<svg width="17" height="23" viewBox="0 0 17 23" fill="none" xmlns="http://www.w3.org/2000/svg">
<g clip-path="url(#clip0_104_64)">
<path d="M8.14986 23C8.03247 22.9088 7.88301 22.9128 7.75311 22.8559C7.32647 22.6701 7.00254 22.366 6.74927 21.9662C4.834 18.9407 2.90567 15.9237 1.00398 12.8886C0.525163 12.124 0.270807 11.2472 0.132215 10.3502C-0.378127 7.04825 0.597448 4.27728 3.00622 2.07278C4.34811 0.845244 5.95142 0.178545 7.73952 0.0332673C10.451 -0.187464 12.7924 0.687579 14.6609 2.73779C16.5001 4.75591 17.255 7.1817 16.9246 9.95042C16.8105 10.9082 16.5235 11.8131 16.117 12.6792C16.0762 12.7659 16.0235 12.8475 15.9724 12.9286C14.0718 15.9288 12.169 18.9272 10.27 21.9285C9.91242 22.4938 9.44936 22.8852 8.78032 22.9663C8.77162 22.9674 8.7651 22.9882 8.75749 23C8.55477 23 8.35259 23 8.14986 23ZM8.49498 4.17761C6.0911 4.18156 4.11223 6.23008 4.12093 8.70655C4.12908 11.196 6.10686 13.2254 8.5102 13.2113C10.9195 13.1972 12.8701 11.1819 12.8734 8.70261C12.8772 6.22445 10.8929 4.17367 8.49498 4.17761Z" fill="#FFCC66"/>
<path d="M8.06824 9.96562C7.66606 9.94591 7.31496 9.77868 7.03941 9.45152C6.89212 9.2764 6.74755 9.09903 6.61059 8.91546C6.37091 8.59393 6.40569 8.19301 6.68668 7.95257C6.96766 7.7127 7.35681 7.75662 7.61388 8.06069C7.73291 8.20146 7.85356 8.34223 7.95791 8.49427C8.05955 8.64236 8.13455 8.61758 8.24434 8.50046C8.6275 8.09278 9.01773 7.6913 9.40905 7.29207C9.6346 7.06176 9.93135 7.00715 10.183 7.13722C10.4286 7.26391 10.5661 7.53195 10.5373 7.82363C10.521 7.98749 10.446 8.1215 10.3362 8.23525C9.91776 8.66995 9.49981 9.10578 9.07751 9.53655C8.80359 9.81753 8.46934 9.95887 8.06824 9.96562Z" fill="#FFCC66"/>
</g>
<defs>
<clipPath id="clip0_104_64">
<rect width="17" height="23" fill="white"/>
</clipPath>
</defs>
</svg>
