<svg width="19" height="21" viewBox="0 0 19 21" fill="none" xmlns="http://www.w3.org/2000/svg">
<path d="M18.0672 9.81766C18.7361 10.2141 18.7251 11.1861 18.0473 11.5672L1.50526 20.8688C0.827447 21.2499 -0.00877479 20.7544 5.98227e-05 19.9768L0.215669 1.00019C0.224503 0.222615 1.07177 -0.2538 1.74075 0.142636L18.0672 9.81766Z" fill="black"/>
<path d="M18.0672 9.81766C18.7361 10.2141 18.7251 11.1861 18.0473 11.5672L1.50526 20.8688C0.827447 21.2499 -0.00877479 20.7544 5.98227e-05 19.9768L0.215669 1.00019C0.224503 0.222615 1.07177 -0.2538 1.74075 0.142636L18.0672 9.81766Z" fill="black"/>
<path d="M18.0672 9.81766C18.7361 10.2141 18.7251 11.1861 18.0473 11.5672L1.50526 20.8688C0.827447 21.2499 -0.00877479 20.7544 5.98227e-05 19.9768L0.215669 1.00019C0.224503 0.222615 1.07177 -0.2538 1.74075 0.142636L18.0672 9.81766Z" fill="black"/>
<path d="M18.0672 9.81766C18.7361 10.2141 18.7251 11.1861 18.0473 11.5672L1.50526 20.8688C0.827447 21.2499 -0.00877479 20.7544 5.98227e-05 19.9768L0.215669 1.00019C0.224503 0.222615 1.07177 -0.2538 1.74075 0.142636L18.0672 9.81766Z" fill="#E1EAEA"/>
</svg>
