<svg width="29" height="25" viewBox="0 0 29 25" fill="none" xmlns="http://www.w3.org/2000/svg">
<g clip-path="url(#clip0_467_32)">
<path d="M14.5153 5.00059C19.2349 5.00059 23.9554 5.00309 28.6751 4.9939C28.939 4.99307 29.0003 5.05488 28.9995 5.32883C28.9907 11.3182 28.9931 17.3068 28.9931 23.2962C28.9931 24.4046 28.4233 25.0001 27.362 25.0001C18.7878 25.0001 10.2137 25.0001 1.63867 25.0001C0.589491 25.0001 0.00760253 24.4037 0.00760253 23.3271C0.00760253 17.3168 0.00921664 11.3074 0.00195312 5.29709C0.00195312 5.05237 0.0608683 4.9939 0.294915 4.99474C5.03557 5.00226 9.77542 5.00059 14.5153 5.00059ZM18.2382 14.4954C18.8823 14.4954 19.5255 14.4988 20.1695 14.4946C20.5811 14.4921 20.7627 14.31 20.7643 13.8857C20.7684 12.5427 20.7659 11.2005 20.7659 9.85743C20.7659 9.6102 20.6909 9.40724 20.452 9.30701C20.2083 9.20428 20.0267 9.31453 19.8612 9.48993C19.6433 9.72045 19.4149 9.94095 19.2027 10.1773C19.0848 10.3093 19.0227 10.3419 18.8855 10.1773C17.4029 8.39578 15.5297 7.64491 13.2724 7.9339C10.9513 8.23124 8.85215 10.1305 8.25977 12.4717C8.11611 13.0413 8.2517 13.5391 8.6641 13.9525C9.37028 14.6617 10.944 14.7919 11.4202 13.2476C11.7898 12.0491 12.6526 11.3692 13.8616 11.233C14.9963 11.1061 15.8929 11.5763 16.5652 12.5268C16.6806 12.6905 16.6927 12.7991 16.5353 12.9402C16.3303 13.124 16.1504 13.3361 15.9559 13.5324C15.7815 13.7078 15.6451 13.8924 15.7509 14.163C15.859 14.4395 16.0777 14.4988 16.3384 14.4963C16.9703 14.4921 17.6047 14.4954 18.2382 14.4954ZM9.95378 19.1009C9.99897 19.1719 10.0224 19.2186 10.0547 19.2587C11.1135 20.5859 12.4662 21.3518 14.1158 21.5807C16.9647 21.9766 19.8725 20.0438 20.703 17.1857C21.0258 16.074 20.2543 14.9949 19.1341 14.9924C18.3883 14.9907 17.8968 15.4042 17.5805 16.2645C17.1713 17.3786 16.3885 18.0644 15.2545 18.2356C14.0803 18.4127 13.1312 17.9608 12.4266 16.9619C12.3015 16.784 12.2999 16.672 12.4662 16.5242C12.6865 16.3279 12.881 16.0999 13.0884 15.8878C13.2522 15.7199 13.3297 15.5286 13.2337 15.2956C13.1384 15.0659 12.9568 14.9899 12.7236 14.9899C11.4057 14.9932 10.0878 14.9891 8.76983 14.9932C8.39374 14.9941 8.22264 15.177 8.22183 15.5729C8.21861 16.9268 8.22264 18.2799 8.21861 19.6338C8.2178 19.8751 8.28882 20.0722 8.50592 20.1691C8.73351 20.271 8.93366 20.1984 9.10395 20.0113C9.37189 19.7164 9.6479 19.4275 9.95378 19.1009Z" fill="#FFCC66"/>
<path d="M14.4856 3.99997C9.76593 3.99997 5.04626 3.99746 0.325783 4.00665C0.0634895 4.00749 -0.00914562 3.94902 -0.00026799 3.67173C0.0223296 2.97431 0.00457436 2.27606 0.00780259 1.57865C0.0118379 0.64403 0.621166 0.00174112 1.51781 0.00174112C10.1727 7.0668e-05 18.8276 7.0668e-05 27.4825 0.00174112C28.3799 0.00174112 28.9884 0.641525 28.9925 1.57865C28.9957 2.28692 28.982 2.99519 28.9989 3.70346C29.0046 3.94819 28.9408 4.00749 28.706 4.00665C23.9661 3.9983 19.2255 3.99997 14.4856 3.99997ZM11.1145 1.50014C8.61023 1.50014 6.10593 1.50014 3.60163 1.50014C3.50155 1.50014 3.39664 1.48844 3.3014 1.51183C3.06009 1.5703 2.91321 1.734 2.9116 1.99626C2.90917 2.25936 3.05525 2.4239 3.29495 2.48738C3.39018 2.51243 3.4951 2.4999 3.59517 2.4999C8.61346 2.50074 13.6325 2.4999 18.6508 2.4999C18.7315 2.4999 18.8122 2.50575 18.8921 2.49573C19.1536 2.46232 19.3433 2.24683 19.328 1.98791C19.3118 1.71312 19.1601 1.55025 18.8994 1.50598C18.8114 1.49095 18.7186 1.50014 18.6282 1.50014C16.1231 1.50014 13.6188 1.50014 11.1145 1.50014ZM24.1606 2.01547C24.1687 1.46005 23.7329 1.00318 23.1946 1.00067C22.6716 0.999002 22.2358 1.44251 22.2301 1.98373C22.2245 2.54166 22.6587 2.9977 23.1954 2.99853C23.72 2.99853 24.1534 2.55753 24.1606 2.01547ZM26.5761 1.9854C26.5689 1.43165 26.1202 0.987308 25.5818 1.00067C25.0605 1.01404 24.6376 1.4709 24.6457 2.01297C24.6545 2.56923 25.1025 3.01357 25.6391 2.9977C26.1621 2.9835 26.5834 2.5283 26.5761 1.9854Z" fill="#FFCC66"/>
</g>
<defs>
<clipPath id="clip0_467_32">
<rect width="29" height="25" fill="white"/>
</clipPath>
</defs>
</svg>
