<svg width="66" height="54" viewBox="0 0 66 54" fill="none" xmlns="http://www.w3.org/2000/svg">
<g clip-path="url(#clip0_88_12)">
<path d="M0 47.8606C0 36.934 0 26.0102 0 15.0836C0.220084 15.0052 0.142079 14.7895 0.181081 14.6411C1.1227 11.1231 3.83335 8.99151 7.45777 8.9691C10.2046 8.9523 12.9543 8.9551 15.7012 8.97751C16.158 8.98031 16.2695 8.84866 16.2667 8.40051C16.2583 7.26051 16.1385 6.10651 16.445 4.98612C17.3225 1.80981 19.6654 0.0143871 22.9528 0.00878514C27.8893 0.000382219 32.8287 0.00318319 37.7652 0.00878514C39.7822 0.0115861 41.8019 -0.0248266 43.8189 0.0507998C46.29 0.143232 48.5883 2.03109 49.36 4.39231C49.789 5.70317 49.7138 7.03363 49.7027 8.36409C49.6971 8.84306 49.8113 8.97751 50.3044 8.97471C53.2463 8.9551 56.1882 8.92429 59.1273 8.99711C62.4424 9.08114 65.3537 11.7561 65.8551 15.0556C66.1031 16.6886 65.9638 18.33 65.9666 19.9685C65.9833 28.7524 65.9694 37.5391 65.9777 46.3229C65.9777 47.5273 65.8217 48.6953 65.2785 49.7737C63.8382 52.6279 61.5008 54.0032 58.3249 54.0032C41.4286 53.9976 24.5324 54.0004 7.63885 54.0004C7.40205 54.0004 7.16804 53.9892 6.93124 53.978C3.85564 53.8211 1.27871 51.8156 0.334304 48.8662C0.225655 48.5301 0.2563 48.1463 0 47.8606ZM32.9875 47.6814C41.827 47.6758 49.0619 40.41 49.0926 31.5114C49.1232 22.6071 41.8549 15.2881 32.9875 15.2881C24.12 15.2881 16.8489 22.6127 16.8824 31.5142C16.9102 40.41 24.1618 47.687 32.9875 47.6814Z" fill="#FFCC66"/>
<rect x="40" y="31" width="3" height="13" rx="1.5" transform="rotate(90 40 31)" fill="#FFCC66"/>
<rect x="32" y="26" width="3" height="13" rx="1.5" fill="#FFCC66"/>
</g>
<defs>
<clipPath id="clip0_88_12">
<rect width="66" height="54" fill="white"/>
</clipPath>
</defs>
</svg>
