<svg width="37" height="37" viewBox="0 0 37 37" fill="none" xmlns="http://www.w3.org/2000/svg">
<g clip-path="url(#clip0_497_127)">
<path d="M12.8971 30.9612C12.924 30.88 12.8497 30.8392 12.8198 30.7841C12.5742 30.3476 12.5319 29.8931 12.7179 29.4294C13.8892 26.5056 15.0701 23.5851 16.2372 20.6604C16.2984 20.5067 16.4066 20.4872 16.5272 20.4559C19.6801 19.6287 22.833 18.8015 25.9844 17.9732C26.092 17.9456 26.1966 17.9156 26.3132 17.8833C26.2622 17.783 26.1741 17.8197 26.108 17.8131C22.815 17.4908 19.5206 17.1674 16.2255 16.8533C16.0447 16.836 15.9393 16.7737 15.8477 16.6191C14.2667 13.9984 12.6766 11.3797 11.0903 8.75933C10.4317 7.67245 11.0543 6.38563 12.2711 6.31682C12.5417 6.30137 12.7947 6.36768 13.0426 6.46923C16.6517 7.96396 20.2605 9.45603 23.8696 10.9508C27.6601 12.5203 31.4494 14.0914 35.2397 15.6583C36.2704 16.0854 36.5978 16.8365 36.1987 17.8747C36.1943 17.8858 36.2079 17.9048 36.213 17.9191C36.0798 18.0759 35.9478 18.2313 35.8146 18.3882C35.7232 18.3676 35.6792 18.4515 35.6191 18.4872C32.3328 20.5237 29.0466 22.5628 25.7619 24.6031C22.1954 26.8178 18.6263 29.0327 15.0598 31.2474C14.7628 31.4311 14.448 31.5452 14.0939 31.5367C13.8202 31.5297 13.5749 31.4279 13.328 31.3222C13.1832 31.2042 13.0409 31.0833 12.8971 30.9612Z" fill="#FFCC66"/>
</g>
<defs>
<clipPath id="clip0_497_127">
<rect width="26" height="26" fill="white" transform="translate(16.9922) scale(1.00961) rotate(40.3406)"/>
</clipPath>
</defs>
</svg>
