<svg width="25" height="21" viewBox="0 0 25 21" fill="none" xmlns="http://www.w3.org/2000/svg">
<path d="M25 9.56707C24.9612 9.56129 24.9535 9.53045 24.9414 9.49961C24.6677 8.81152 24.2604 8.53141 23.5239 8.53141C18.097 8.53076 12.6694 8.53076 7.24246 8.53076C7.15335 8.53076 7.06488 8.53076 6.93057 8.53076C7.01077 8.44339 7.06488 8.38042 7.12344 8.32132C8.77838 6.64704 10.4346 4.9734 12.0889 3.29848C12.614 2.76651 12.7572 2.0977 12.3906 1.53747C12.0418 1.00293 11.588 0.540353 11.052 0.192133C10.5746 -0.11818 9.96485 -0.0378714 9.52883 0.327052C9.45372 0.390014 9.38307 0.458116 9.31433 0.527503C6.37935 3.48865 3.44501 6.45044 0.511303 9.41288C-0.0373745 9.96733 -0.151947 10.622 0.203865 11.2163C0.282793 11.348 0.389091 11.4656 0.497936 11.5754C3.44246 14.5501 6.38762 17.5241 9.33406 20.4968C9.99922 21.1675 10.7923 21.1669 11.4594 20.5C11.6733 20.2861 11.8871 20.0721 12.0991 19.8562C12.7451 19.199 12.7496 18.4055 12.1016 17.7521C10.4149 16.0515 8.72555 14.3541 7.03623 12.6554C6.9904 12.6092 6.93885 12.5687 6.8771 12.5147C6.9764 12.4473 7.06679 12.4762 7.14953 12.4762C12.5606 12.4742 17.9716 12.4698 23.382 12.48C24.1585 12.4813 24.6989 12.198 24.9484 11.4322C24.9542 11.4142 24.9815 11.4039 24.9994 11.3898C25 10.7826 25 10.1748 25 9.56707Z" fill="black"/>
</svg>
