<svg width="34" height="6" viewBox="0 0 34 6" fill="none" xmlns="http://www.w3.org/2000/svg">
<path d="M2.56468 4.25451C2.5597 4.2519 2.55473 4.24929 2.54975 4.24668C2.54726 4.23364 2.53731 4.23103 2.52736 4.23103C2.50249 4.22582 2.4801 4.23103 2.45771 4.24407C2.02239 4.48403 1.58706 4.7266 1.14925 4.96656C1.12438 4.9796 1.0995 4.99786 1.06716 5.00046C0.960199 5.0109 0.883085 4.92222 0.900497 4.81006C0.940298 4.5675 0.980099 4.32493 1.0199 4.07975C1.06716 3.79546 1.11194 3.51377 1.1592 3.22947C1.16418 3.19817 1.14677 3.18513 1.13184 3.16948C0.902985 2.93474 0.671642 2.69999 0.442786 2.46525C0.323383 2.34527 0.20398 2.22008 0.0820896 2.1001C0.0497512 2.06619 0.0199005 2.02968 0 1.98794C0 1.96186 0 1.93317 0 1.90709C0.0422886 1.78711 0.146766 1.78711 0.241294 1.77407C0.5 1.73495 0.761194 1.69582 1.0199 1.65409C1.22637 1.62279 1.43284 1.58888 1.64179 1.56019C1.66667 1.55498 1.6791 1.54194 1.69154 1.51846C1.91294 1.04376 2.13682 0.57167 2.3607 0.0969696C2.39055 0.0343718 2.43781 -0.00475187 2.50995 0.000464616C2.50746 0.026547 2.51741 0.047413 2.52488 0.0708871C2.60945 0.321278 2.69403 0.57167 2.77861 0.822061C2.89055 1.1507 3 1.47934 3.11194 1.80798C3.1194 1.83145 3.12935 1.84449 3.15423 1.84971C3.25622 1.86536 3.35821 1.88362 3.4602 1.89926C3.62687 1.92535 3.79602 1.95143 3.96517 1.9749C4.13433 2.00099 4.30099 2.02707 4.46766 2.05315C4.4801 2.05576 4.49751 2.05054 4.50249 2.06358C4.50995 2.08184 4.49254 2.08967 4.48259 2.1001C4.35572 2.2279 4.23383 2.36092 4.10697 2.48612C3.92537 2.66348 3.75124 2.85127 3.57214 3.03124C3.52985 3.07297 3.50995 3.10949 3.52239 3.1773C3.56716 3.42769 3.60697 3.67809 3.64677 3.92848C3.6791 4.1267 3.71144 4.32493 3.74627 4.52576C3.75124 4.55185 3.74129 4.55445 3.71891 4.54924C3.70647 4.54402 3.69403 4.54141 3.68159 4.53881C3.32587 4.44491 2.97264 4.35101 2.61692 4.25711C2.60199 4.24668 2.58209 4.22842 2.56468 4.25451Z" fill="#FECA2B"/>
<path d="M2.56488 4.25478C2.58229 4.2313 2.6022 4.24956 2.61712 4.25217C2.97284 4.34606 3.32608 4.43996 3.6818 4.53386C3.69423 4.53647 3.70667 4.53907 3.71911 4.54429C3.73901 4.55211 3.75145 4.54951 3.74647 4.52082C3.71414 4.32259 3.67931 4.12436 3.64697 3.92353C3.60717 3.67314 3.56737 3.42275 3.52259 3.17235C3.51016 3.10715 3.53006 3.06803 3.57234 3.02629C3.75145 2.84632 3.92558 2.65853 4.10717 2.48117C4.23404 2.35598 4.35593 2.22295 4.48279 2.09515C4.49274 2.08472 4.51264 2.0795 4.50269 2.05864C4.49523 2.04559 4.4803 2.05081 4.46787 2.0482C4.29871 2.02212 4.13205 1.99604 3.96538 1.96996C3.79622 1.94387 3.62956 1.9204 3.4604 1.89432C3.35841 1.87867 3.25642 1.86041 3.15443 1.84476C3.12956 1.84215 3.11961 1.8265 3.11215 1.80303C3.00269 1.47439 2.89075 1.14575 2.77881 0.817112C2.69423 0.566721 2.60966 0.31633 2.52508 0.0659385C2.51762 0.0476808 2.50767 0.0268148 2.51016 0.000732422C2.57981 0.00334066 2.61712 0.0476808 2.64697 0.10767C2.81861 0.475432 2.99274 0.840586 3.16438 1.20835C3.21165 1.31007 3.2614 1.41179 3.30866 1.51612C3.3211 1.5422 3.33354 1.55524 3.36588 1.56046C3.85841 1.63349 4.35095 1.70913 4.841 1.78477C4.91065 1.7952 4.97035 1.82129 4.99274 1.89953C5.01513 1.97517 4.98528 2.02994 4.93553 2.08211C4.57981 2.44466 4.22657 2.8072 3.87085 3.16714C3.84598 3.19322 3.83851 3.21409 3.84349 3.2506C3.93055 3.76703 4.01513 4.28347 4.09722 4.80251C4.10717 4.87032 4.09473 4.9277 4.04001 4.96943C3.99025 5.00856 3.93304 5.01117 3.87831 4.98247C3.44299 4.74252 3.00767 4.50256 2.56986 4.2626C2.56986 4.25738 2.56737 4.25478 2.56488 4.25478Z" fill="#FF9900"/>
<path d="M9.56488 4.25551C9.58229 4.23203 9.6022 4.25029 9.61712 4.2529C9.97284 4.3468 10.3261 4.44069 10.6818 4.53459C10.6942 4.5372 10.7067 4.53981 10.7191 4.54502C10.739 4.55285 10.7514 4.55024 10.7465 4.52155C10.7141 4.32332 10.6793 4.1251 10.647 3.92426C10.6072 3.67387 10.5674 3.42348 10.5226 3.17309C10.5102 3.10788 10.5301 3.06876 10.5723 3.02703C10.7514 2.84706 10.9256 2.65926 11.1072 2.4819C11.234 2.35671 11.3559 2.22369 11.4828 2.09588C11.4927 2.08545 11.5126 2.08023 11.5027 2.05937C11.4952 2.04633 11.4803 2.05154 11.4679 2.04893C11.2987 2.02285 11.132 1.99677 10.9654 1.97069C10.7962 1.94461 10.6296 1.92113 10.4604 1.89505C10.3584 1.8794 10.2564 1.86114 10.1544 1.84549C10.1296 1.84288 10.1196 1.82723 10.1121 1.80376C10.0027 1.47512 9.89075 1.14648 9.77881 0.817845C9.69423 0.567453 9.60966 0.317062 9.52508 0.0666709C9.51762 0.0484132 9.50767 0.0275473 9.51016 0.00146484C9.57981 0.00407309 9.61712 0.0484132 9.64697 0.108403C9.81861 0.476165 9.99274 0.841319 10.1644 1.20908C10.2116 1.3108 10.2614 1.41252 10.3087 1.51685C10.3211 1.54294 10.3335 1.55598 10.3659 1.56119C10.8584 1.63422 11.351 1.70986 11.841 1.7855C11.9107 1.79594 11.9704 1.82202 11.9927 1.90027C12.0151 1.9759 11.9853 2.03068 11.9355 2.08284C11.5798 2.44539 11.2266 2.80793 10.8709 3.16787C10.846 3.19395 10.8385 3.21482 10.8435 3.25133C10.9306 3.76777 11.0151 4.2842 11.0972 4.80324C11.1072 4.87105 11.0947 4.92843 11.04 4.97017C10.9903 5.00929 10.933 5.0119 10.8783 4.98321C10.443 4.74325 10.0077 4.50329 9.56986 4.26333C9.56986 4.25812 9.56737 4.25551 9.56488 4.25551Z" fill="#FF9900"/>
<path d="M16.5649 4.25551C16.5823 4.23203 16.6022 4.25029 16.6171 4.2529C16.9728 4.3468 17.3261 4.44069 17.6818 4.53459C17.6942 4.5372 17.7067 4.53981 17.7191 4.54502C17.739 4.55285 17.7514 4.55024 17.7465 4.52155C17.7141 4.32332 17.6793 4.1251 17.647 3.92426C17.6072 3.67387 17.5674 3.42348 17.5226 3.17309C17.5102 3.10788 17.5301 3.06876 17.5723 3.02703C17.7514 2.84706 17.9256 2.65926 18.1072 2.4819C18.234 2.35671 18.3559 2.22369 18.4828 2.09588C18.4927 2.08545 18.5126 2.08023 18.5027 2.05937C18.4952 2.04633 18.4803 2.05154 18.4679 2.04893C18.2987 2.02285 18.132 1.99677 17.9654 1.97069C17.7962 1.94461 17.6296 1.92113 17.4604 1.89505C17.3584 1.8794 17.2564 1.86114 17.1544 1.84549C17.1296 1.84288 17.1196 1.82723 17.1121 1.80376C17.0027 1.47512 16.8908 1.14648 16.7788 0.817845C16.6942 0.567453 16.6097 0.317062 16.5251 0.0666709C16.5176 0.0484132 16.5077 0.0275473 16.5102 0.00146484C16.5798 0.00407309 16.6171 0.0484132 16.647 0.108403C16.8186 0.476165 16.9927 0.841319 17.1644 1.20908C17.2116 1.3108 17.2614 1.41252 17.3087 1.51685C17.3211 1.54294 17.3335 1.55598 17.3659 1.56119C17.8584 1.63422 18.351 1.70986 18.841 1.7855C18.9107 1.79594 18.9704 1.82202 18.9927 1.90027C19.0151 1.9759 18.9853 2.03068 18.9355 2.08284C18.5798 2.44539 18.2266 2.80793 17.8709 3.16787C17.846 3.19395 17.8385 3.21482 17.8435 3.25133C17.9306 3.76777 18.0151 4.2842 18.0972 4.80324C18.1072 4.87105 18.0947 4.92843 18.04 4.97017C17.9903 5.00929 17.933 5.0119 17.8783 4.98321C17.443 4.74325 17.0077 4.50329 16.5699 4.26333C16.5699 4.25812 16.5674 4.25551 16.5649 4.25551Z" fill="#FF9900"/>
<path d="M24.0779 4.25551C24.0988 4.23203 24.1226 4.25029 24.1405 4.2529C24.5674 4.3468 24.9913 4.44069 25.4182 4.53459C25.4331 4.5372 25.448 4.53981 25.4629 4.54502C25.4868 4.55285 25.5017 4.55024 25.4958 4.52155C25.457 4.32332 25.4152 4.1251 25.3764 3.92426C25.3286 3.67387 25.2808 3.42348 25.2271 3.17309C25.2122 3.10788 25.2361 3.06876 25.2868 3.02703C25.5017 2.84706 25.7107 2.65926 25.9286 2.4819C26.0808 2.35671 26.2271 2.22369 26.3794 2.09588C26.3913 2.08545 26.4152 2.08023 26.4032 2.05937C26.3943 2.04633 26.3764 2.05154 26.3614 2.04893C26.1585 2.02285 25.9585 1.99677 25.7585 1.97069C25.5555 1.94461 25.3555 1.92113 25.1525 1.89505C25.0301 1.8794 24.9077 1.86114 24.7853 1.84549C24.7555 1.84288 24.7435 1.82723 24.7346 1.80376C24.6032 1.47512 24.4689 1.14648 24.3346 0.817845C24.2331 0.567453 24.1316 0.317062 24.0301 0.0666709C24.0211 0.0484132 24.0092 0.0275473 24.0122 0.00146484C24.0958 0.00407309 24.1405 0.0484132 24.1764 0.108403C24.3823 0.476165 24.5913 0.841319 24.7973 1.20908C24.854 1.3108 24.9137 1.41252 24.9704 1.51685C24.9853 1.54294 25.0002 1.55598 25.0391 1.56119C25.6301 1.63422 26.2211 1.70986 26.8092 1.7855C26.8928 1.79594 26.9644 1.82202 26.9913 1.90027C27.0182 1.9759 26.9823 2.03068 26.9226 2.08284C26.4958 2.44539 26.0719 2.80793 25.645 3.16787C25.6152 3.19395 25.6062 3.21482 25.6122 3.25133C25.7167 3.76777 25.8182 4.2842 25.9167 4.80324C25.9286 4.87105 25.9137 4.92843 25.848 4.97017C25.7883 5.00929 25.7196 5.0119 25.654 4.98321C25.1316 4.74325 24.6092 4.50329 24.0838 4.26333C24.0838 4.25812 24.0808 4.25551 24.0779 4.25551Z" fill="#FF9900"/>
<path d="M31.5647 4.25524C31.5597 4.25263 31.5547 4.25002 31.5498 4.24741C31.5473 4.23437 31.5373 4.23176 31.5274 4.23176C31.5025 4.22655 31.4801 4.23177 31.4577 4.24481C31.0224 4.48476 30.5871 4.72733 30.1493 4.96729C30.1244 4.98033 30.0995 4.99859 30.0672 5.0012C29.9602 5.01163 29.8831 4.92295 29.9005 4.81079C29.9403 4.56823 29.9801 4.32566 30.0199 4.08049C30.0672 3.79619 30.1119 3.5145 30.1592 3.2302C30.1642 3.1989 30.1468 3.18586 30.1318 3.17021C29.903 2.93547 29.6716 2.70073 29.4428 2.46599C29.3234 2.34601 29.204 2.22081 29.0821 2.10083C29.0498 2.06692 29.0199 2.03041 29 1.98868C29 1.96259 29 1.9339 29 1.90782C29.0423 1.78784 29.1468 1.78784 29.2413 1.7748C29.5 1.73568 29.7612 1.69655 30.0199 1.65482C30.2264 1.62352 30.4328 1.58962 30.6418 1.56093C30.6667 1.55571 30.6791 1.54267 30.6915 1.51919C30.9129 1.04449 31.1368 0.572402 31.3607 0.097702C31.3905 0.0351042 31.4378 -0.00401945 31.51 0.00119704C31.5075 0.0272795 31.5174 0.0481454 31.5249 0.0716196C31.6095 0.322011 31.694 0.572402 31.7786 0.822793C31.8905 1.15143 32 1.48007 32.1119 1.80871C32.1194 1.83218 32.1294 1.84522 32.1542 1.85044C32.2562 1.86609 32.3582 1.88435 32.4602 1.9C32.6269 1.92608 32.796 1.95216 32.9652 1.97564C33.1343 2.00172 33.301 2.0278 33.4677 2.05388C33.4801 2.05649 33.4975 2.05128 33.5025 2.06432C33.51 2.08257 33.4925 2.0904 33.4826 2.10083C33.3557 2.22864 33.2338 2.36166 33.107 2.48685C32.9254 2.66421 32.7512 2.85201 32.5721 3.03197C32.5299 3.07371 32.51 3.11022 32.5224 3.17804C32.5672 3.42843 32.607 3.67882 32.6468 3.92921C32.6791 4.12744 32.7114 4.32566 32.7463 4.5265C32.7512 4.55258 32.7413 4.55519 32.7189 4.54997C32.7065 4.54475 32.694 4.54215 32.6816 4.53954C32.3259 4.44564 31.9726 4.35174 31.6169 4.25785C31.602 4.24741 31.5821 4.22916 31.5647 4.25524Z" fill="#FECA2B"/>
<path d="M9.56468 4.25524C9.5597 4.25263 9.55473 4.25002 9.54975 4.24741C9.54726 4.23437 9.53731 4.23176 9.52736 4.23176C9.50249 4.22655 9.4801 4.23177 9.45771 4.24481C9.02239 4.48476 8.58706 4.72733 8.14925 4.96729C8.12438 4.98033 8.0995 4.99859 8.06716 5.0012C7.9602 5.01163 7.88308 4.92295 7.9005 4.81079C7.9403 4.56823 7.9801 4.32566 8.0199 4.08049C8.06716 3.79619 8.11194 3.5145 8.1592 3.2302C8.16418 3.1989 8.14677 3.18586 8.13184 3.17021C7.90299 2.93547 7.67164 2.70073 7.44279 2.46599C7.32338 2.34601 7.20398 2.22081 7.08209 2.10083C7.04975 2.06692 7.0199 2.03041 7 1.98868C7 1.96259 7 1.9339 7 1.90782C7.04229 1.78784 7.14677 1.78784 7.24129 1.7748C7.5 1.73568 7.76119 1.69655 8.0199 1.65482C8.22637 1.62352 8.43284 1.58962 8.64179 1.56093C8.66667 1.55571 8.6791 1.54267 8.69154 1.51919C8.91294 1.04449 9.13682 0.572402 9.3607 0.097702C9.39055 0.0351042 9.43781 -0.00401945 9.50995 0.00119704C9.50746 0.0272795 9.51741 0.0481454 9.52488 0.0716196C9.60945 0.322011 9.69403 0.572402 9.77861 0.822793C9.89055 1.15143 10 1.48007 10.1119 1.80871C10.1194 1.83218 10.1294 1.84522 10.1542 1.85044C10.2562 1.86609 10.3582 1.88435 10.4602 1.9C10.6269 1.92608 10.796 1.95216 10.9652 1.97564C11.1343 2.00172 11.301 2.0278 11.4677 2.05388C11.4801 2.05649 11.4975 2.05128 11.5025 2.06432C11.51 2.08257 11.4925 2.0904 11.4826 2.10083C11.3557 2.22864 11.2338 2.36166 11.107 2.48685C10.9254 2.66421 10.7512 2.85201 10.5721 3.03197C10.5299 3.07371 10.51 3.11022 10.5224 3.17804C10.5672 3.42843 10.607 3.67882 10.6468 3.92921C10.6791 4.12744 10.7114 4.32566 10.7463 4.5265C10.7512 4.55258 10.7413 4.55519 10.7189 4.54997C10.7065 4.54475 10.694 4.54215 10.6816 4.53954C10.3259 4.44564 9.97264 4.35174 9.61692 4.25785C9.60199 4.24741 9.58209 4.22916 9.56468 4.25524Z" fill="#FECA2B"/>
<path d="M16.5647 4.25524C16.5597 4.25263 16.5547 4.25002 16.5498 4.24741C16.5473 4.23437 16.5373 4.23176 16.5274 4.23176C16.5025 4.22655 16.4801 4.23177 16.4577 4.24481C16.0224 4.48476 15.5871 4.72733 15.1493 4.96729C15.1244 4.98033 15.0995 4.99859 15.0672 5.0012C14.9602 5.01163 14.8831 4.92295 14.9005 4.81079C14.9403 4.56823 14.9801 4.32566 15.0199 4.08049C15.0672 3.79619 15.1119 3.5145 15.1592 3.2302C15.1642 3.1989 15.1468 3.18586 15.1318 3.17021C14.903 2.93547 14.6716 2.70073 14.4428 2.46599C14.3234 2.34601 14.204 2.22081 14.0821 2.10083C14.0498 2.06692 14.0199 2.03041 14 1.98868C14 1.96259 14 1.9339 14 1.90782C14.0423 1.78784 14.1468 1.78784 14.2413 1.7748C14.5 1.73568 14.7612 1.69655 15.0199 1.65482C15.2264 1.62352 15.4328 1.58962 15.6418 1.56093C15.6667 1.55571 15.6791 1.54267 15.6915 1.51919C15.9129 1.04449 16.1368 0.572402 16.3607 0.097702C16.3905 0.0351042 16.4378 -0.00401945 16.51 0.00119704C16.5075 0.0272795 16.5174 0.0481454 16.5249 0.0716196C16.6095 0.322011 16.694 0.572402 16.7786 0.822793C16.8905 1.15143 17 1.48007 17.1119 1.80871C17.1194 1.83218 17.1294 1.84522 17.1542 1.85044C17.2562 1.86609 17.3582 1.88435 17.4602 1.9C17.6269 1.92608 17.796 1.95216 17.9652 1.97564C18.1343 2.00172 18.301 2.0278 18.4677 2.05388C18.4801 2.05649 18.4975 2.05128 18.5025 2.06432C18.51 2.08257 18.4925 2.0904 18.4826 2.10083C18.3557 2.22864 18.2338 2.36166 18.107 2.48685C17.9254 2.66421 17.7512 2.85201 17.5721 3.03197C17.5299 3.07371 17.51 3.11022 17.5224 3.17804C17.5672 3.42843 17.607 3.67882 17.6468 3.92921C17.6791 4.12744 17.7114 4.32566 17.7463 4.5265C17.7512 4.55258 17.7413 4.55519 17.7189 4.54997C17.7065 4.54475 17.694 4.54215 17.6816 4.53954C17.3259 4.44564 16.9726 4.35174 16.6169 4.25785C16.602 4.24741 16.5821 4.22916 16.5647 4.25524Z" fill="#FECA2B"/>
<path d="M24.0776 4.25524C24.0716 4.25263 24.0657 4.25002 24.0597 4.24741C24.0567 4.23437 24.0448 4.23176 24.0328 4.23176C24.003 4.22655 23.9761 4.23177 23.9493 4.24481C23.4269 4.48476 22.9045 4.72733 22.3791 4.96729C22.3493 4.98033 22.3194 4.99859 22.2806 5.0012C22.1522 5.01163 22.0597 4.92295 22.0806 4.81079C22.1284 4.56823 22.1761 4.32566 22.2239 4.08049C22.2806 3.79619 22.3343 3.5145 22.391 3.2302C22.397 3.1989 22.3761 3.18586 22.3582 3.17021C22.0836 2.93547 21.806 2.70073 21.5313 2.46599C21.3881 2.34601 21.2448 2.22081 21.0985 2.10083C21.0597 2.06692 21.0239 2.03041 21 1.98868C21 1.96259 21 1.9339 21 1.90782C21.0507 1.78784 21.1761 1.78784 21.2896 1.7748C21.6 1.73568 21.9134 1.69655 22.2239 1.65482C22.4716 1.62352 22.7194 1.58962 22.9701 1.56093C23 1.55571 23.0149 1.54267 23.0299 1.51919C23.2955 1.04449 23.5642 0.572402 23.8328 0.097702C23.8687 0.0351042 23.9254 -0.00401945 24.0119 0.00119704C24.009 0.0272795 24.0209 0.0481454 24.0299 0.0716196C24.1313 0.322011 24.2328 0.572402 24.3343 0.822793C24.4687 1.15143 24.6 1.48007 24.7343 1.80871C24.7433 1.83218 24.7552 1.84522 24.7851 1.85044C24.9075 1.86609 25.0299 1.88435 25.1522 1.9C25.3522 1.92608 25.5552 1.95216 25.7582 1.97564C25.9612 2.00172 26.1612 2.0278 26.3612 2.05388C26.3761 2.05649 26.397 2.05128 26.403 2.06432C26.4119 2.08257 26.391 2.0904 26.3791 2.10083C26.2269 2.22864 26.0806 2.36166 25.9284 2.48685C25.7104 2.66421 25.5015 2.85201 25.2866 3.03197C25.2358 3.07371 25.2119 3.11022 25.2269 3.17804C25.2806 3.42843 25.3284 3.67882 25.3761 3.92921C25.4149 4.12744 25.4537 4.32566 25.4955 4.5265C25.5015 4.55258 25.4896 4.55519 25.4627 4.54997C25.4478 4.54475 25.4328 4.54215 25.4179 4.53954C24.991 4.44564 24.5672 4.35174 24.1403 4.25785C24.1224 4.24741 24.0985 4.22916 24.0776 4.25524Z" fill="#FECA2B"/>
<path d="M31.5649 4.25551C31.5823 4.23203 31.6022 4.25029 31.6171 4.2529C31.9728 4.3468 32.3261 4.44069 32.6818 4.53459C32.6942 4.5372 32.7067 4.53981 32.7191 4.54502C32.739 4.55285 32.7514 4.55024 32.7465 4.52155C32.7141 4.32332 32.6793 4.1251 32.647 3.92426C32.6072 3.67387 32.5674 3.42348 32.5226 3.17309C32.5102 3.10788 32.5301 3.06876 32.5723 3.02703C32.7514 2.84706 32.9256 2.65926 33.1072 2.4819C33.234 2.35671 33.3559 2.22369 33.4828 2.09588C33.4927 2.08545 33.5126 2.08023 33.5027 2.05937C33.4952 2.04633 33.4803 2.05154 33.4679 2.04893C33.2987 2.02285 33.132 1.99677 32.9654 1.97069C32.7962 1.94461 32.6296 1.92113 32.4604 1.89505C32.3584 1.8794 32.2564 1.86114 32.1544 1.84549C32.1296 1.84288 32.1196 1.82723 32.1121 1.80376C32.0027 1.47512 31.8908 1.14648 31.7788 0.817845C31.6942 0.567453 31.6097 0.317062 31.5251 0.0666709C31.5176 0.0484132 31.5077 0.0275473 31.5102 0.00146484C31.5798 0.00407309 31.6171 0.0484132 31.647 0.108403C31.8186 0.476165 31.9927 0.841319 32.1644 1.20908C32.2116 1.3108 32.2614 1.41252 32.3087 1.51685C32.3211 1.54294 32.3335 1.55598 32.3659 1.56119C32.8584 1.63422 33.351 1.70986 33.841 1.7855C33.9107 1.79594 33.9704 1.82202 33.9927 1.90027C34.0151 1.9759 33.9853 2.03068 33.9355 2.08284C33.5798 2.44539 33.2266 2.80793 32.8709 3.16787C32.846 3.19395 32.8385 3.21482 32.8435 3.25133C32.9306 3.76777 33.0151 4.2842 33.0972 4.80324C33.1072 4.87105 33.0947 4.92843 33.04 4.97017C32.9903 5.00929 32.933 5.0119 32.8783 4.98321C32.443 4.74325 32.0077 4.50329 31.5699 4.26333C31.5699 4.25812 31.5674 4.25551 31.5649 4.25551Z" fill="#FF9900"/>
</svg>
