<svg width="233" height="184" viewBox="0 0 233 184" fill="none" xmlns="http://www.w3.org/2000/svg">
<path d="M116.5 183.883C52.1587 183.883 -0.00012226 181.66 -0.00012226 178.917C-0.00012226 176.174 52.1587 173.951 116.5 173.951C180.841 173.951 233 176.174 233 178.917C233 181.66 180.841 183.883 116.5 183.883Z" fill="#E2DDDA"/>
<path d="M14.5219 178.789C14.5219 177.494 24.1422 176.442 36.0061 176.442C47.87 176.442 57.4903 177.494 57.4903 178.789C57.4903 180.084 47.87 181.136 36.0061 181.136C24.1367 181.136 14.5219 180.084 14.5219 178.789Z" fill="#D4CFCD"/>
<path d="M157.816 131.885L170.111 164.419H157.816L142.913 135.446L157.816 131.885Z" fill="#7D3322"/>
<path d="M151.506 133.394L164.491 161.815" stroke="#A1412B" stroke-width="0.25" stroke-miterlimit="10"/>
<path d="M169.78 161.815H155.678L162.48 172.237C162.48 172.237 149.517 168.433 149.517 177.865H175.648L169.78 161.815Z" fill="#797D5E"/>
<path d="M170.492 163.767H156.954" stroke="#919570" stroke-width="0.25" stroke-miterlimit="10"/>
<path d="M168.271 163.767L172.299 177.865" stroke="#919570" stroke-width="0.25" stroke-miterlimit="10"/>
<path d="M204.465 123.101L203.956 128.081C203.415 133.357 198.281 137.404 192.131 137.404H151.506L152.832 164.419H140.642L137.553 131.652C137.078 126.605 141.753 122.301 147.626 122.377L204.465 123.101Z" fill="#A1412B"/>
<path d="M194.463 123.101C194.463 123.101 195.723 130.528 185.898 130.6C178.505 130.652 157.894 130.628 148.152 130.609C145.35 130.605 143.162 132.69 143.438 135.09L146.549 161.81" stroke="#C24E33" stroke-width="0.25" stroke-miterlimit="10"/>
<path d="M153.417 161.839H139.603L140.824 172.243C140.824 172.243 125.59 168.443 125.59 177.866H152.616L153.417 161.839Z" fill="#919570"/>
<path d="M153.417 163.791H139.835" stroke="#A5AB7C" stroke-width="0.25" stroke-miterlimit="10"/>
<path d="M151.091 163.791L150.229 177.866" stroke="#A5AB7C" stroke-width="0.25" stroke-miterlimit="10"/>
<path d="M194.75 58.8323C193.032 59.0894 191.335 58.718 189.915 57.3943C187.849 55.4708 187.418 52.7521 187.948 50.1762C187.871 50.5428 182.362 49.5334 181.997 49.4572C180.361 49.1287 178.731 48.4002 177.112 48.1479C175.653 47.9193 174.813 48.5192 173.283 48.643C172.57 48.7002 171.796 48.643 171.249 48.2431C170.724 47.8622 170.509 47.2194 170.586 46.629C170.664 46.0386 170.99 45.491 171.387 45.0054C170.1 45.1006 169.044 43.9722 168.973 42.8628C168.906 41.7534 169.547 40.7107 170.244 39.7727C171.907 37.5396 176.67 34.4638 179.919 35.6303C181.533 36.2112 182.627 37.7253 182.516 39.2299C182.577 38.4443 184.611 38.0396 185.268 38.0776C186.749 38.1586 188.064 39.6584 188.589 41.3058C190.639 40.6773 193.922 39.8346 195.911 40.9916C196.696 41.4487 197.248 42.1771 197.425 42.9771C197.701 44.2483 197.033 45.5196 196.353 46.6766C197.602 46.548 198.961 47.0766 199.657 47.9812C200.354 48.8811 200.597 49.9905 200.669 51.0761C200.812 53.3901 200.171 56.5278 197.712 57.8229C196.745 58.3228 195.745 58.6847 194.75 58.8323Z" fill="#562923"/>
<path d="M189.462 71.578L185.682 63.2124L174.863 62.941L175.62 55.3752L172.155 55.0753L175.465 44.9908C180.394 48.7046 187.721 46.7096 187.721 46.7096L189.506 51.7042C190.567 50.0235 192.346 47.3571 194.457 49.4617C196.568 51.5614 193.302 55.1943 193.302 55.1943L198.115 66.8833C198.11 66.8881 194.463 75.9346 189.462 71.578Z" fill="#FF9999"/>
<path d="M191.142 56.2375C191.115 58.6801 191.07 60.737 191.015 61.1465C190.827 62.6034 190.197 64.108 188.821 64.9698C187.445 65.8316 185.219 65.7459 184.301 64.5127C184.207 66.2458 182.621 67.9075 180.616 68.079C178.61 68.2456 176.576 66.6458 176.841 64.927C175.46 64.7317 174.2 63.9556 173.537 62.8891C172.371 61.0179 173.266 56.4613 175.687 55.4424C176.969 54.9044 178.582 54.9996 179.776 55.6757C180.455 56.0566 180.991 56.6137 181.693 56.9708C183.489 57.885 185.976 57.1946 187.241 55.7662C188.506 54.3378 188.064 48.4861 187.716 46.7149H191.081C191.186 46.7101 191.186 52.038 191.142 56.2375Z" fill="#562923"/>
<path d="M182.561 48.9666C182.472 48.3953 181.842 48.0524 181.196 48.1858C180.372 48.3524 179.45 48.4476 178.693 48.7714C178.333 48.9238 178.173 49.338 178.273 49.657C178.389 50.0141 178.748 50.195 179.151 50.2331C179.897 50.3046 180.743 50.1093 181.489 50.0332C182.135 49.9617 182.655 49.5808 182.561 48.9666Z" fill="#562923"/>
<path d="M180.405 51.3948C180.046 51.409 179.737 51.6471 179.737 51.9709V52.0328C179.737 52.3327 180.041 52.6184 180.405 52.6089C180.764 52.5946 181.074 52.3565 181.074 52.0328V51.9709C181.074 51.6661 180.764 51.3805 180.405 51.3948Z" fill="#47241E"/>
<path d="M191.59 51.7327L192.8 53.8372C192.8 53.8372 194.855 51.4947 193.91 50.6805C192.966 49.8663 191.59 51.7327 191.59 51.7327Z" fill="#943C28"/>
<path d="M181.439 56.4991C179.925 55.6134 178.51 54.7659 176.598 54.885C176.068 54.9183 175.537 54.9659 175.034 55.1087C173.863 55.4373 172.874 56.4467 172.951 57.5418C172.99 58.1084 173.415 58.4893 174.067 58.2465C174.233 58.1846 174.393 58.1131 174.548 58.0322C175.128 58.6274 176.112 59.0321 176.836 59.1654C178.421 59.4606 180.068 59.5225 181.682 59.3416C183.19 59.1749 184.793 58.6178 185.406 57.4228C184.047 57.7989 182.61 57.1894 181.439 56.4991Z" fill="#783930"/>
<path d="M145.792 84.2814C145.378 84.1624 144.566 83.8815 144.151 84.0053C143.737 84.1291 143.455 84.6147 143.753 84.8909C143.577 84.8718 143.317 84.929 143.251 85.1099C143.173 85.3622 143.251 85.6432 143.455 85.8336C142.858 86.0907 142.786 86.5859 143.273 86.9763C143.035 86.9621 142.952 87.1477 142.914 87.4191C143.173 87.8953 144.03 88.0143 144.638 88.1048C146.179 88.3285 147.726 88.5047 149.285 88.638C149.721 87.6048 149.915 86.1383 150.18 85.0623C149.285 84.61 146.422 83.6101 145.527 83.1577L145.792 84.2814Z" fill="#FF9999"/>
<path d="M193.928 78.2727L171.581 93.29L150.053 84.4863L147.113 89.5L173.77 101.103L200.934 88.1001L193.928 78.2727Z" fill="#DEA846"/>
<path d="M152.827 85.6245L150.18 90.8381" stroke="#FFD587" stroke-width="0.25" stroke-miterlimit="10"/>
<path d="M174.023 94.8995L171.581 93.2901L171.808 95.5184" stroke="#FFD587" stroke-width="0.25" stroke-miterlimit="10"/>
<path d="M205.99 93.7756C206.001 95.3088 205.984 96.8372 205.962 98.3513C205.957 98.8274 205.94 99.3083 205.929 99.7797C205.924 100.17 205.912 100.551 205.901 100.937C205.89 101.418 205.879 101.894 205.857 102.365C205.846 102.756 205.83 103.146 205.813 103.527C205.796 104.012 205.774 104.498 205.758 104.974H178.532C178.532 104.489 178.532 104.008 178.538 103.527C178.538 103.136 178.538 102.746 178.543 102.365C178.554 101.889 178.56 101.413 178.571 100.937C178.582 100.551 178.593 100.165 178.615 99.7797C178.637 99.3035 178.665 98.8274 178.704 98.3513C178.947 95.0898 179.56 91.7188 181.069 87.7954C181.279 87.2622 181.5 86.7146 181.743 86.1575C182.467 84.4863 183.356 82.7151 184.439 80.8106C184.495 80.7153 184.55 80.6201 184.611 80.5249C188.269 74.2447 194.01 69.0977 199.884 65.8695C200.243 66.5361 200.602 67.2503 200.945 68.0074C200.95 68.0074 200.95 68.0074 200.95 68.0121C203.288 73.0782 205.277 80.0392 205.719 86.1575C205.89 88.6667 205.973 91.2283 205.99 93.7756Z" fill="#FAC35C"/>
<path d="M200.934 67.9977L187.623 76.1491L186.766 70.5736L199.989 63.2221L200.934 67.9977Z" fill="#F5A031"/>
<path d="M206.764 123.1C198.243 127.048 184.329 128.071 176.582 122.053C176.538 120.401 177.682 107.179 177.726 105.193C177.753 104.107 177.798 102.989 177.864 101.846C177.958 100.222 178.107 98.551 178.323 96.8846C178.466 95.7799 178.638 94.6801 178.842 93.5945C179.638 89.395 180.958 85.4098 183.086 82.372C183.263 82.1244 183.439 81.8768 183.627 81.6435C183.937 81.2531 184.263 80.877 184.6 80.5246C192.17 82.691 200.94 68.0071 200.94 68.0071C200.94 68.0071 201.194 68.2595 201.597 68.8022C201.791 69.0641 202.023 69.3926 202.277 69.7974C203.785 72.1875 206.112 77.1203 206.742 85.424C206.924 87.9333 206.764 123.1 206.764 123.1Z" fill="#CC9933"/>
<path d="M197.746 95.0038C193.311 95.0038 189.717 91.7188 189.717 87.6666C189.717 83.6144 193.311 80.3294 197.746 80.3294C202.18 80.3294 205.775 83.6144 205.775 87.6666C205.775 91.7188 202.18 95.0038 197.746 95.0038Z" stroke="#A5AB7C" stroke-width="0.25" stroke-miterlimit="10"/>
<path d="M191.413 120.196C185.976 114.725 181.517 108.54 178.234 101.917" stroke="#A5AB7C" stroke-width="0.25" stroke-miterlimit="10"/>
<path d="M177.588 106.335C178.831 109.597 180.074 112.854 181.318 116.115" stroke="#A5AB7C" stroke-width="0.25" stroke-miterlimit="10"/>
<path d="M197.994 64.3315L198.945 69.2166" stroke="#F5A947" stroke-width="0.25" stroke-miterlimit="10"/>
<path d="M195.226 65.8742L195.955 71.0497" stroke="#F5A947" stroke-width="0.25" stroke-miterlimit="10"/>
<path d="M191.518 67.9308L192.507 73.1588" stroke="#F5A947" stroke-width="0.25" stroke-miterlimit="10"/>
<path d="M188.363 69.6882L189.717 74.8637" stroke="#F5A947" stroke-width="0.25" stroke-miterlimit="10"/>
<path d="M202.995 71.0499C202.995 71.0499 189.843 88.0621 183.085 82.3771" stroke="#A5AB7C" stroke-width="0.25" stroke-miterlimit="10"/>
<path d="M199.525 109.488L199.652 113.34C199.652 113.34 192.474 116.758 186.429 112.959L186.683 109.488H199.525Z" fill="#A3A87B"/>
<path d="M206.769 120.196C206.769 120.196 198.348 124.243 191.723 123.734C183.6 123.106 179.958 121.525 176.676 119.82" stroke="#A5AB7C" stroke-width="0.25" stroke-miterlimit="10"/>
<path d="M200.641 73.8301C200.641 73.8301 202.476 75.2442 204.073 83.1575" stroke="#A5AB7C" stroke-width="0.25" stroke-miterlimit="10"/>
<path d="M204.476 91.6758C204.476 91.6758 204.761 112.111 204.476 121.177" stroke="#A5AB7C" stroke-width="0.25" stroke-miterlimit="10"/>
<path d="M142.095 85.2911C142.095 84.0103 128.545 2.62491 88.0636 2.62491C82.1233 2.62491 13.366 17.7612 36.6462 177.861" stroke="#362A2E" stroke-width="0.25" stroke-miterlimit="10"/>
<path d="M34.4695 176.908C34.4695 177.189 34.4916 177.518 34.5247 177.87H37.4699C37.5086 177.546 37.5252 177.246 37.5307 176.989V176.908C37.5307 176.685 37.5197 176.47 37.4921 176.261C37.4534 175.932 37.3815 175.613 37.2876 175.337C37.2102 175.085 37.1108 174.866 36.9947 174.675C36.724 174.223 36.3759 173.952 35.9946 173.952C35.6409 173.952 35.3149 174.18 35.0607 174.571C34.9391 174.751 34.8342 174.956 34.7513 175.194C34.6518 175.447 34.58 175.732 34.5302 176.042C34.4915 176.27 34.475 176.508 34.4695 176.761C34.4695 176.804 34.4695 176.856 34.4695 176.908Z" fill="#7BBB99"/>
<path d="M34.7624 175.195C35.5802 175.537 36.4367 175.523 37.2987 175.337C37.2213 175.085 37.1219 174.866 37.0058 174.676C36.3538 174.799 35.7017 174.79 35.0773 174.566C34.9502 174.747 34.8452 174.956 34.7624 175.195Z" fill="#8DD9B1"/>
<path d="M34.475 176.756C35.4751 177.156 36.5085 177.237 37.5307 176.985V176.904C37.5307 176.68 37.5197 176.466 37.4921 176.256C36.4974 176.513 35.4972 176.442 34.5302 176.032C34.5026 176.271 34.4805 176.504 34.475 176.756Z" fill="#8DD9B1"/>
<path d="M46.1286 34.9209C46.7199 33.6163 47.3553 32.3259 48.0461 31.0499C53.4116 21.1987 61.9323 12.4046 72.3982 5.9101C77.3824 2.82 82.8364 -0.0701233 89.0308 0.00129664C94.8328 0.0679552 100.171 2.29626 104.625 5.01973C114.024 10.7714 120.992 18.9466 126.092 27.6932C131.59 37.1254 134.967 47.3717 137.691 57.7229C140.702 69.1596 143.089 80.7439 146.742 92.0234C146.819 92.2567 146.388 92.4377 146.306 92.1949C144.802 87.9573 143.543 83.653 142.388 79.325C141.879 79.4345 141.371 79.544 140.863 79.6488C140.526 79.7202 140.382 79.2726 140.719 79.2012C141.233 79.0917 141.752 78.9822 142.266 78.8727C141.874 77.4014 141.498 75.9302 141.128 74.4541C140.68 74.5827 140.227 74.7113 139.78 74.8398C139.448 74.935 139.31 74.4875 139.636 74.3923C140.095 74.2589 140.553 74.1304 141.012 73.9971C140.642 72.5258 140.282 71.0546 139.918 69.5833C139.498 69.6357 139.089 69.7309 138.691 69.8595C138.365 69.9642 138.227 69.5167 138.547 69.4119C138.956 69.2786 139.376 69.1929 139.807 69.1357C139.398 67.474 138.989 65.8171 138.575 64.1602C137.973 64.2078 137.387 64.3078 136.812 64.4696C136.481 64.5649 136.337 64.1126 136.669 64.0221C137.254 63.8554 137.851 63.7554 138.459 63.7031C137.928 61.5748 137.376 59.4512 136.801 57.3372C136.287 57.3419 135.784 57.3896 135.282 57.4991C134.944 57.5705 134.801 57.1229 135.138 57.0515C135.641 56.942 136.155 56.8801 136.674 56.8706C136.569 56.4801 136.47 56.0897 136.359 55.6993C135.862 53.9233 135.342 52.1473 134.795 50.3809C134.464 50.4475 134.127 50.519 133.795 50.5856L133.348 50.6761C133.248 50.6951 133.149 50.7189 133.049 50.738C133.038 50.7427 133.027 50.7427 133.016 50.7475C132.977 50.7904 132.922 50.8285 132.867 50.8427C132.74 50.8761 132.646 50.8475 132.546 50.7713C132.458 50.7047 132.447 50.5761 132.502 50.4904C132.657 50.2619 133.077 50.2523 133.348 50.2C133.784 50.1095 134.215 50.019 134.652 49.9333C133.939 47.6574 133.171 45.3958 132.342 43.158C131.618 43.2389 130.916 43.3865 130.225 43.6008C129.899 43.7007 129.756 43.2532 130.082 43.1532C130.761 42.9389 131.458 42.7961 132.176 42.7104C131.309 40.3964 130.364 38.111 129.33 35.8541C128.606 35.9874 127.905 36.1779 127.231 36.4397C126.916 36.5588 126.639 36.1588 126.96 36.0398C127.662 35.7684 128.385 35.5636 129.137 35.4208C128.026 33.0211 126.811 30.6642 125.473 28.3502C124.772 28.6169 124.07 28.8883 123.362 29.1549C123.047 29.2739 122.771 28.874 123.092 28.7549C123.805 28.4836 124.517 28.2122 125.23 27.9408C124.993 27.5313 124.755 27.1218 124.506 26.7123C123.318 24.7697 122.025 22.8509 120.627 20.9797C119.975 21.2654 119.318 21.5511 118.666 21.8367C118.356 21.9701 118.085 21.5701 118.395 21.4368C119.041 21.1511 119.693 20.8702 120.34 20.5845C118.837 18.599 117.212 16.6707 115.461 14.8376C114.936 15.2328 114.405 15.6232 113.88 16.0184C113.621 16.2136 113.234 15.8851 113.499 15.6899C114.04 15.2852 114.576 14.8852 115.118 14.4805C113.245 12.5474 111.222 10.7238 109.051 9.04305C108.62 9.43348 108.178 9.80487 107.708 10.1572C107.448 10.3524 107.067 10.0239 107.327 9.82867C107.785 9.4811 108.222 9.11448 108.642 8.73357C106.724 7.2766 104.696 5.93391 102.536 4.73405C102.32 4.61502 102.105 4.50075 101.889 4.38648C101.475 4.89594 101.055 5.4054 100.64 5.9101C100.442 6.15293 99.9718 5.91963 100.176 5.6768C100.596 5.16734 101.011 4.65311 101.431 4.14365C99.1264 2.95808 96.6011 1.95344 93.9377 1.34399C93.6448 2.05819 93.4072 2.78667 93.2249 3.52468C93.153 3.81512 92.6336 3.69132 92.7054 3.40088C92.8878 2.66288 93.1309 1.93916 93.4182 1.22972C91.0698 0.744063 88.6274 0.582178 86.1408 0.891665C85.323 0.996414 84.5273 1.15354 83.7371 1.35351C84.0742 2.17246 84.3615 3.00093 84.5715 3.85321C84.6433 4.14365 84.1239 4.27221 84.0521 3.977C83.8421 3.13425 83.5603 2.31054 83.2232 1.50111C81.0737 2.11056 79.0346 3.03426 77.084 4.07223L78.0676 6.18626C78.1947 6.46242 77.6753 6.58621 77.5482 6.31005C77.2388 5.64823 76.9348 4.98641 76.6254 4.32458C74.7853 5.32446 72.995 6.40052 71.2654 7.53848C71.6301 8.15745 71.9893 8.77642 72.354 9.39539C72.5087 9.66203 72.0445 9.90009 71.8898 9.6287C71.5362 9.02877 71.1825 8.42408 70.8344 7.82416C70.3094 8.17173 69.79 8.52883 69.2761 8.88593C67.6405 10.0382 66.0712 11.2475 64.5626 12.5093C65.0986 12.9473 65.6567 13.3568 66.259 13.7234C66.5408 13.8948 66.2701 14.2996 65.9883 14.1234C65.3473 13.733 64.745 13.2949 64.1758 12.8283C62.612 14.152 61.1201 15.5327 59.6944 16.9611C60.2857 17.4944 60.8714 18.0229 61.4627 18.5562C61.7003 18.7704 61.319 19.1037 61.0814 18.8847C60.5012 18.361 59.921 17.842 59.3463 17.3182C57.8764 18.8181 56.4894 20.3702 55.1854 21.9701C55.865 22.489 56.5392 23.0128 57.2189 23.5318C57.4786 23.7317 57.0973 24.0603 56.8376 23.8603C56.1855 23.3556 55.528 22.8557 54.8759 22.351C53.6437 23.8889 52.4888 25.4696 51.4223 27.0885C52.1241 27.5979 52.8811 28.0407 53.6934 28.4121C54.0029 28.5502 53.7266 28.9549 53.4226 28.8121C52.6159 28.4455 51.8644 28.0027 51.1626 27.5027C50.0022 29.2882 48.9468 31.1166 48.0018 32.983C48.7478 33.3877 49.4993 33.7877 50.2508 34.1924C50.5437 34.3495 50.273 34.7542 49.9801 34.5923C49.2507 34.1971 48.5213 33.8067 47.7919 33.4115C47.5045 33.9876 47.2282 34.5685 46.963 35.1494C46.7309 35.6113 45.9242 35.3732 46.1286 34.9209Z" fill="#362A2E"/>
<path d="M145.587 82.3244L148.477 94.4468C148.477 94.4468 146.82 96.1751 144.593 94.861L142.095 82.7006L145.587 82.3244Z" fill="#562923"/>
<path d="M138.978 86.6955C138.978 88.1763 140.371 89.3809 142.095 89.3809C143.814 89.3809 145.212 88.1811 145.212 86.6955C145.212 85.2148 143.819 84.0101 142.095 84.0101C140.376 84.0101 138.978 85.2148 138.978 86.6955Z" fill="#91966E"/>
<path d="M140.47 86.6952C140.47 87.4713 141.2 88.0998 142.095 88.0998C142.995 88.0998 143.725 87.4713 143.725 86.6952C143.725 85.9191 142.995 85.2954 142.095 85.2954C141.194 85.2906 140.47 85.9191 140.47 86.6952Z" fill="#747858"/>
<path d="M191.529 87.0666C191.562 87.8046 191.744 88.5379 191.971 89.2568C192.65 91.3851 194.723 93.8086 197.546 93.8943C198.287 93.9182 199.027 93.7705 199.718 93.5372C201.762 92.8421 203.337 91.2994 204.039 89.5234C204.951 87.2142 204.431 84.0479 202.37 82.2862C200.171 80.4007 196.198 80.6864 193.932 82.3338C192.49 83.3813 191.595 84.9669 191.529 86.5952C191.518 86.7524 191.518 86.9095 191.529 87.0666Z" fill="#FAC35C"/>
<path d="M149.582 72.9019C149.559 72.9019 149.559 72.927 149.582 72.927C149.605 72.9321 149.605 72.9019 149.582 72.9019Z" fill="#C4C5BD"/>
<path d="M147.096 88.6379C146.681 88.5188 144.571 87.9475 144.156 88.0713C143.742 88.195 143.46 88.6807 143.758 88.9569C143.582 88.9378 143.322 88.9949 143.255 89.1759C143.178 89.4282 143.255 89.7091 143.46 89.8996C142.863 90.1567 142.791 90.6519 143.278 91.0423C143.04 91.028 142.957 91.2137 142.918 91.4851C143.178 91.9613 144.035 92.0803 144.642 92.1708C146.184 92.3945 147.731 92.5707 149.29 92.704C149.726 91.6708 149.92 90.2043 150.185 89.1283C149.29 88.6759 147.56 87.4761 146.698 86.9666L147.096 88.6379Z" fill="#FF9999"/>
<path d="M193.927 82.3337L171.581 97.3557L150.053 88.552L147.113 93.5657L173.769 105.164L200.934 92.1659L193.927 82.3337Z" fill="#FAC35C"/>
<path d="M152.826 89.6854L150.179 94.8991" stroke="#FFD587" stroke-width="0.25" stroke-miterlimit="10"/>
<path d="M174.537 98.5032L171.581 97.3557L173.062 100.293" stroke="#FFD587" stroke-width="0.25" stroke-miterlimit="10"/>
<path d="M201.735 91.8282L197.541 93.8946" stroke="#FFD587" stroke-width="0.25" stroke-miterlimit="10"/>
<path d="M158.767 150.826H210.875V145.103C210.875 140.87 206.891 137.437 201.978 137.437H167.663C162.751 137.437 158.767 140.87 158.767 145.103V150.826Z" fill="#4D2A1C"/>
<path d="M158.767 150.826H210.875V155.282H158.767V150.826Z" fill="#F6A65D"/>
<path d="M210.882 177.863H205.61V155.28H210.882V177.863Z" fill="#CD6D3D"/>
<path d="M164.038 177.863H158.766V155.28H164.038V177.863Z" fill="#CD6D3D"/>
</svg>
