<svg width="111" height="88" viewBox="0 0 111 88" fill="none" xmlns="http://www.w3.org/2000/svg">
<path d="M55.5 87.6013C24.8481 87.6013 -6.86662e-05 86.5421 -6.86662e-05 85.2355C-6.86662e-05 83.9289 24.8481 82.8697 55.5 82.8697C86.1518 82.8697 111 83.9289 111 85.2355C111 86.5421 86.1518 87.6013 55.5 87.6013Z" fill="#E2DDDA"/>
<path d="M6.91814 85.1742C6.91814 84.5573 11.5012 84.056 17.1531 84.056C22.805 84.056 27.3881 84.5573 27.3881 85.1742C27.3881 85.7912 22.805 86.2925 17.1531 86.2925C11.4986 86.2925 6.91814 85.7912 6.91814 85.1742Z" fill="#D4CFCD"/>
<path d="M75.1828 62.8295L81.04 78.3286H75.1828L68.0831 64.5262L75.1828 62.8295Z" fill="#7D3322"/>
<path d="M72.1766 63.5485L78.3629 77.0878" stroke="#A1412B" stroke-width="0.25" stroke-miterlimit="10"/>
<path d="M80.8821 77.0879H74.1641L77.4047 82.0532C77.4047 82.0532 71.2289 80.2408 71.2289 84.7343H83.6778L80.8821 77.0879Z" fill="#797D5E"/>
<path d="M81.2217 78.0179H74.7722" stroke="#919570" stroke-width="0.25" stroke-miterlimit="10"/>
<path d="M80.1635 78.0179L82.0826 84.7342" stroke="#919570" stroke-width="0.25" stroke-miterlimit="10"/>
<path d="M97.406 58.6445L97.1639 61.0171C96.9059 63.5304 94.4603 65.4584 91.5304 65.4584H72.1766L72.8084 78.3286H67.0012L65.5296 62.7183C65.3033 60.314 67.5303 58.2634 70.3286 58.2997L97.406 58.6445Z" fill="#A1412B"/>
<path d="M92.6413 58.6445C92.6413 58.6445 93.2415 62.183 88.561 62.217C85.0388 62.242 75.2197 62.2306 70.5787 62.2215C69.244 62.2193 68.2016 63.2128 68.3332 64.356L69.8153 77.0855" stroke="#C24E33" stroke-width="0.25" stroke-miterlimit="10"/>
<path d="M73.0875 77.0992H66.5063L67.0881 82.0553C67.0881 82.0553 59.8304 80.2452 59.8304 84.7342H72.7058L73.0875 77.0992Z" fill="#919570"/>
<path d="M73.0875 78.0291H66.6169" stroke="#A5AB7C" stroke-width="0.25" stroke-miterlimit="10"/>
<path d="M71.9793 78.0291L71.5686 84.7341" stroke="#A5AB7C" stroke-width="0.25" stroke-miterlimit="10"/>
<path d="M92.7781 28.0275C91.9595 28.1499 91.1513 27.973 90.4748 27.3424C89.4902 26.4261 89.2849 25.1309 89.5376 23.9037C89.5007 24.0784 86.8762 23.5975 86.7024 23.5612C85.9232 23.4047 85.1467 23.0577 84.3754 22.9375C83.6804 22.8286 83.2803 23.1144 82.5511 23.1734C82.2115 23.2006 81.8429 23.1734 81.5823 22.9828C81.3322 22.8014 81.2296 22.4951 81.2664 22.2139C81.3033 21.9326 81.4586 21.6718 81.6481 21.4404C81.0348 21.4858 80.532 20.9482 80.4977 20.4197C80.4662 19.8912 80.7715 19.3944 81.1032 18.9476C81.8956 17.8838 84.1648 16.4185 85.7126 16.9742C86.4813 17.2509 87.0025 17.9722 86.9499 18.689C86.9789 18.3147 87.9476 18.1219 88.2609 18.1401C88.9664 18.1786 89.5929 18.8931 89.843 19.678C90.8196 19.3785 92.3833 18.9771 93.331 19.5282C93.7048 19.746 93.968 20.0931 94.0523 20.4741C94.1839 21.0797 93.8654 21.6854 93.5416 22.2366C94.1365 22.1753 94.7841 22.4271 95.1158 22.8581C95.4475 23.2868 95.5633 23.8153 95.5975 24.3324C95.666 25.4348 95.3606 26.9296 94.1891 27.5466C93.7285 27.7848 93.252 27.9571 92.7781 28.0275Z" fill="#562923"/>
<path d="M90.2589 34.0997L88.4583 30.1143L83.3039 29.985L83.6646 26.3807L82.014 26.2378L83.5909 21.4336C85.939 23.2029 89.4297 22.2525 89.4297 22.2525L90.2799 24.6319C90.7854 23.8312 91.633 22.561 92.6386 23.5635C93.6442 24.5638 92.0884 26.2945 92.0884 26.2945L94.3813 31.8631C94.3787 31.8654 92.6413 36.1751 90.2589 34.0997Z" fill="#FF9999"/>
<path d="M91.0592 26.7912C91.046 27.9549 91.025 28.9348 90.9987 29.1298C90.9092 29.8239 90.6091 30.5407 89.9536 30.9512C89.2981 31.3618 88.2372 31.321 87.8002 30.7335C87.7555 31.5591 87 32.3508 86.0444 32.4324C85.0888 32.5118 84.1201 31.7497 84.2464 30.9308C83.5883 30.8378 82.9881 30.4681 82.6722 29.96C82.1168 29.0686 82.5432 26.8978 83.6962 26.4124C84.307 26.1561 85.0756 26.2015 85.6442 26.5236C85.968 26.705 86.2234 26.9704 86.5577 27.1405C87.4133 27.5761 88.5979 27.2472 89.2007 26.5667C89.8035 25.8862 89.5929 23.0985 89.4271 22.2547H91.0302C91.0803 22.2524 91.0803 24.7906 91.0592 26.7912Z" fill="#562923"/>
<path d="M86.971 23.3276C86.9289 23.0554 86.6288 22.8921 86.3208 22.9556C85.9285 23.035 85.4889 23.0804 85.1283 23.2346C84.9571 23.3072 84.8808 23.5046 84.9282 23.6565C84.9835 23.8267 85.1546 23.9129 85.3468 23.931C85.7021 23.965 86.1049 23.872 86.4603 23.8357C86.7683 23.8017 87.0157 23.6202 86.971 23.3276Z" fill="#562923"/>
<path d="M85.9443 24.4845C85.7732 24.4913 85.6258 24.6047 85.6258 24.7589V24.7884C85.6258 24.9313 85.7706 25.0674 85.9443 25.0629C86.1154 25.0561 86.2628 24.9427 86.2628 24.7884V24.7589C86.2628 24.6138 86.1154 24.4777 85.9443 24.4845Z" fill="#47241E"/>
<path d="M91.2724 24.6455L91.8489 25.6481C91.8489 25.6481 92.8282 24.5321 92.3781 24.1442C91.9279 23.7563 91.2724 24.6455 91.2724 24.6455Z" fill="#943C28"/>
<path d="M86.4366 26.916C85.7153 26.4941 85.0414 26.0904 84.1306 26.1471C83.8779 26.163 83.6252 26.1857 83.3856 26.2537C82.8275 26.4102 82.3563 26.8911 82.3932 27.4128C82.4116 27.6827 82.6143 27.8642 82.9249 27.7485C83.0039 27.719 83.0802 27.685 83.1539 27.6464C83.4304 27.93 83.8989 28.1228 84.2438 28.1863C84.9993 28.3269 85.7838 28.3564 86.5524 28.2702C87.2711 28.1908 88.0345 27.9254 88.3267 27.3561C87.6791 27.5353 86.9947 27.2449 86.4366 26.916Z" fill="#783930"/>
<path d="M69.4545 40.1513C69.2571 40.0946 68.8701 39.9607 68.6727 40.0197C68.4753 40.0787 68.341 40.31 68.4832 40.4416C68.3989 40.4325 68.2752 40.4597 68.2436 40.5459C68.2068 40.6662 68.2436 40.8 68.341 40.8907C68.0567 41.0132 68.0225 41.2491 68.2541 41.4351C68.1409 41.4283 68.1015 41.5168 68.083 41.6461C68.2068 41.8729 68.6148 41.9296 68.9043 41.9727C69.6388 42.0793 70.3759 42.1632 71.1182 42.2267C71.3262 41.7345 71.4183 41.0359 71.5447 40.5233C71.1182 40.3078 69.7546 39.8314 69.3282 39.6159L69.4545 40.1513Z" fill="#FF9999"/>
<path d="M92.3859 37.2887L81.7403 44.4429L71.4842 40.2488L70.0838 42.6373L82.7827 48.1651L95.7239 41.9705L92.3859 37.2887Z" fill="#DEA846"/>
<path d="M72.8057 40.7909L71.5448 43.2747" stroke="#FFD587" stroke-width="0.25" stroke-miterlimit="10"/>
<path d="M82.9039 45.2095L81.7403 44.4428L81.8482 45.5044" stroke="#FFD587" stroke-width="0.25" stroke-miterlimit="10"/>
<path d="M98.1327 44.6742C98.1379 45.4046 98.13 46.1327 98.1195 46.8541C98.1169 47.0809 98.109 47.31 98.1037 47.5345C98.1011 47.7205 98.0958 47.902 98.0905 48.0857C98.0853 48.3148 98.08 48.5417 98.0695 48.7662C98.0642 48.9522 98.0563 49.1382 98.0484 49.3197C98.0405 49.551 98.03 49.7824 98.0221 50.0092H85.052C85.052 49.7779 85.052 49.5488 85.0546 49.3197C85.0546 49.1337 85.0546 48.9477 85.0573 48.7662C85.0625 48.5394 85.0652 48.3126 85.0704 48.0857C85.0757 47.902 85.081 47.7183 85.0915 47.5345C85.102 47.3077 85.1152 47.0809 85.1336 46.8541C85.2494 45.3003 85.5416 43.6944 86.2603 41.8253C86.3603 41.5713 86.4656 41.3104 86.5814 41.045C86.9263 40.2488 87.3501 39.4051 87.8661 38.4977C87.8924 38.4524 87.9187 38.407 87.9477 38.3616C89.6904 35.3698 92.4255 32.9178 95.2238 31.3799C95.3949 31.6975 95.566 32.0377 95.7292 32.3984C95.7319 32.3984 95.7319 32.3984 95.7319 32.4006C96.8454 34.8141 97.7931 38.1303 98.0037 41.045C98.0853 42.2404 98.1248 43.4607 98.1327 44.6742Z" fill="#FAC35C"/>
<path d="M95.7239 32.3938L89.3823 36.2771L88.9743 33.621L95.2737 30.1188L95.7239 32.3938Z" fill="#F5A031"/>
<path d="M98.5012 58.6445C94.4419 60.5249 87.8134 61.0126 84.1227 58.1455C84.1016 57.3584 84.6466 51.0594 84.6676 50.1136C84.6808 49.5964 84.7018 49.0634 84.7334 48.519C84.7782 47.7455 84.8493 46.9493 84.9519 46.1554C85.0204 45.6292 85.102 45.1052 85.1994 44.5881C85.5784 42.5874 86.2076 40.6889 87.2211 39.2417C87.3053 39.1238 87.3896 39.0058 87.4791 38.8947C87.6265 38.7087 87.7818 38.5295 87.9424 38.3617C91.5488 39.3937 95.7266 32.3984 95.7266 32.3984C95.7266 32.3984 95.8476 32.5186 96.0398 32.7772C96.1319 32.9019 96.2425 33.0584 96.3636 33.2512C97.0823 34.3899 98.1905 36.7398 98.4906 40.6957C98.5775 41.8911 98.5012 58.6445 98.5012 58.6445Z" fill="#CC9933"/>
<path d="M94.205 45.2594C92.0925 45.2594 90.38 43.6945 90.38 41.764C90.38 39.8336 92.0925 38.2686 94.205 38.2686C96.3175 38.2686 98.03 39.8336 98.03 41.764C98.03 43.6945 96.3175 45.2594 94.205 45.2594Z" stroke="#A5AB7C" stroke-width="0.25" stroke-miterlimit="10"/>
<path d="M91.1882 57.2609C88.5979 54.6547 86.4735 51.7082 84.9098 48.5531" stroke="#A5AB7C" stroke-width="0.25" stroke-miterlimit="10"/>
<path d="M84.6018 50.658C85.1941 52.2117 85.7864 53.7632 86.3787 55.317" stroke="#A5AB7C" stroke-width="0.25" stroke-miterlimit="10"/>
<path d="M94.3234 30.6472L94.7762 32.9745" stroke="#F5A947" stroke-width="0.25" stroke-miterlimit="10"/>
<path d="M93.0046 31.3822L93.3521 33.8478" stroke="#F5A947" stroke-width="0.25" stroke-miterlimit="10"/>
<path d="M91.2382 32.3621L91.7094 34.8527" stroke="#F5A947" stroke-width="0.25" stroke-miterlimit="10"/>
<path d="M89.735 33.199L90.38 35.6647" stroke="#F5A947" stroke-width="0.25" stroke-miterlimit="10"/>
<path d="M96.7058 33.8477C96.7058 33.8477 90.4406 41.9523 87.2211 39.244" stroke="#A5AB7C" stroke-width="0.25" stroke-miterlimit="10"/>
<path d="M95.0526 52.1596L95.1131 53.9946C95.1131 53.9946 91.6936 55.6232 88.8137 53.8132L88.9348 52.1596H95.0526Z" fill="#A3A87B"/>
<path d="M98.5038 57.2609C98.5038 57.2609 94.492 59.1889 91.3357 58.9462C87.466 58.6468 85.7312 57.8937 84.1675 57.0817" stroke="#A5AB7C" stroke-width="0.25" stroke-miterlimit="10"/>
<path d="M95.5844 35.1725C95.5844 35.1725 96.4584 35.8462 97.2191 39.616" stroke="#A5AB7C" stroke-width="0.25" stroke-miterlimit="10"/>
<path d="M97.4113 43.6739C97.4113 43.6739 97.5469 53.4093 97.4113 57.7281" stroke="#A5AB7C" stroke-width="0.25" stroke-miterlimit="10"/>
<path d="M67.6933 40.6321C67.6933 40.022 61.2385 1.2504 41.9531 1.2504C39.1233 1.2504 6.36763 8.46123 17.4582 84.7318" stroke="#362A2E" stroke-width="0.25" stroke-miterlimit="10"/>
<path d="M16.4212 84.2782C16.4212 84.412 16.4317 84.5685 16.4475 84.7363H17.8506C17.869 84.5821 17.877 84.4392 17.8796 84.3167V84.2782C17.8796 84.1715 17.8743 84.0695 17.8612 83.9697C17.8427 83.8132 17.8085 83.6612 17.7638 83.5296C17.7269 83.4094 17.6795 83.3051 17.6242 83.2143C17.4952 82.9988 17.3294 82.8696 17.1478 82.8696C16.9793 82.8696 16.824 82.9784 16.7029 83.1644C16.645 83.2506 16.5949 83.3482 16.5555 83.4616C16.5081 83.5818 16.4738 83.7179 16.4502 83.8653C16.4317 83.9742 16.4238 84.0876 16.4212 84.2078C16.4212 84.2283 16.4212 84.2532 16.4212 84.2782Z" fill="#7BBB99"/>
<path d="M16.5607 83.4616C16.9503 83.6249 17.3583 83.6181 17.769 83.5296C17.7321 83.4094 17.6847 83.3051 17.6295 83.2143C17.3188 83.2733 17.0082 83.2688 16.7107 83.1622C16.6502 83.2484 16.6002 83.3482 16.5607 83.4616Z" fill="#8DD9B1"/>
<path d="M16.4238 84.2056C16.9003 84.3961 17.3926 84.4347 17.8796 84.3144V84.2759C17.8796 84.1693 17.8743 84.0672 17.8612 83.9674C17.3873 84.0899 16.9108 84.0559 16.4502 83.8608C16.437 83.9742 16.4265 84.0854 16.4238 84.2056Z" fill="#8DD9B1"/>
<path d="M21.9755 16.6361C22.2572 16.0146 22.5599 15.3999 22.8889 14.792C25.4451 10.099 29.5043 5.90946 34.4902 2.81554C36.8646 1.34343 39.4629 -0.0334064 42.4138 0.000617713C45.1779 0.0323735 47.7209 1.09392 49.8426 2.39138C54.3204 5.13145 57.64 9.02607 60.0697 13.1929C62.689 17.6863 64.2974 22.5677 65.5952 27.4989C67.0299 32.9473 68.1671 38.466 69.9072 43.8395C69.9441 43.9506 69.7387 44.0368 69.6992 43.9212C68.9832 41.9024 68.383 39.8519 67.8328 37.79C67.5906 37.8422 67.3485 37.8944 67.1063 37.9443C66.9457 37.9783 66.8772 37.7651 67.0378 37.731C67.2826 37.6789 67.5301 37.6267 67.7749 37.5745C67.588 36.8736 67.409 36.1727 67.2326 35.4696C67.0194 35.5308 66.8035 35.5921 66.5903 35.6533C66.4324 35.6987 66.3665 35.4855 66.5219 35.4401C66.7404 35.3766 66.9589 35.3153 67.1773 35.2518C67.001 34.5509 66.8299 33.85 66.6561 33.1491C66.4561 33.1741 66.2613 33.2195 66.0717 33.2807C65.9164 33.3306 65.8506 33.1174 66.0033 33.0675C66.1981 33.004 66.3981 32.9631 66.6035 32.9359C66.4087 32.1443 66.2139 31.3549 66.0164 30.5656C65.7295 30.5883 65.4505 30.6359 65.1767 30.713C65.0187 30.7584 64.9503 30.5429 65.1082 30.4998C65.3873 30.4204 65.6716 30.3728 65.9612 30.3478C65.7084 29.3339 65.4452 28.3223 65.1714 27.3151C64.9266 27.3174 64.687 27.3401 64.4475 27.3923C64.2869 27.4263 64.2185 27.2131 64.379 27.179C64.6186 27.1269 64.8634 27.0974 65.1109 27.0929C65.0608 26.9069 65.0135 26.7209 64.9608 26.5349C64.7239 25.6888 64.4764 24.8427 64.2158 24.0012C64.0579 24.033 63.8973 24.067 63.7394 24.0987L63.5261 24.1418C63.4787 24.1509 63.4314 24.1622 63.384 24.1713C63.3787 24.1736 63.3734 24.1736 63.3682 24.1759C63.3498 24.1963 63.3234 24.2144 63.2971 24.2212C63.2366 24.2371 63.1918 24.2235 63.1444 24.1872C63.1023 24.1554 63.097 24.0942 63.1234 24.0534C63.1971 23.9445 63.3971 23.94 63.5261 23.915C63.7341 23.8719 63.9394 23.8288 64.1474 23.788C63.8078 22.7037 63.4419 21.6263 63.047 20.5602C62.7022 20.5988 62.3678 20.6691 62.0388 20.7712C61.8835 20.8188 61.815 20.6056 61.9704 20.558C62.2941 20.4559 62.6258 20.3878 62.968 20.347C62.5548 19.2446 62.1046 18.1559 61.6123 17.0807C61.2675 17.1442 60.9332 17.2349 60.612 17.3597C60.462 17.4164 60.3303 17.2259 60.483 17.1692C60.8173 17.0399 61.1622 16.9423 61.5202 16.8743C60.9911 15.7311 60.4119 14.6083 59.7749 13.5059C59.4406 13.6329 59.1062 13.7622 58.7693 13.8892C58.6192 13.946 58.4876 13.7554 58.6403 13.6987C58.9799 13.5694 59.3195 13.4401 59.6591 13.3108C59.5459 13.1158 59.4327 12.9207 59.3142 12.7256C58.7482 11.8002 58.1322 10.8861 57.4662 9.99462C57.1556 10.1307 56.8423 10.2668 56.5317 10.4029C56.3843 10.4664 56.2553 10.2759 56.4027 10.2124C56.7107 10.0763 57.0213 9.94245 57.3293 9.80635C56.6133 8.86049 55.8394 7.94184 55.0049 7.06855C54.7548 7.25682 54.5021 7.44282 54.252 7.63108C54.1283 7.72408 53.944 7.56757 54.0704 7.47457C54.3283 7.28177 54.5837 7.09123 54.8417 6.89843C53.9493 5.97751 52.9858 5.10876 51.9512 4.30807C51.7459 4.49406 51.5353 4.67099 51.3115 4.83884C51.1878 4.93184 51.0062 4.77533 51.1299 4.68233C51.3484 4.51675 51.5564 4.34209 51.7564 4.16063C50.843 3.46654 49.8769 2.82688 48.8476 2.25528C48.7449 2.19857 48.6422 2.14413 48.5396 2.0897C48.3421 2.3324 48.1421 2.57511 47.9446 2.81554C47.8499 2.93122 47.6261 2.82008 47.7235 2.7044C47.9236 2.46169 48.121 2.21672 48.3211 1.97401C47.2233 1.40921 46.0203 0.930609 44.7515 0.64027C44.6119 0.980511 44.4988 1.32756 44.4119 1.67914C44.3777 1.8175 44.1302 1.75853 44.1644 1.62016C44.2513 1.26858 44.3671 0.923804 44.504 0.585832C43.3852 0.354468 42.2217 0.277347 41.0371 0.424784C40.6475 0.474686 40.2684 0.549539 39.892 0.644807C40.0525 1.03495 40.1894 1.42963 40.2895 1.83565C40.3237 1.97401 40.0762 2.03526 40.042 1.89462C39.942 1.49314 39.8077 1.10073 39.6471 0.715123C38.6231 1.00546 37.6517 1.44551 36.7225 1.93999L37.1911 2.9471C37.2516 3.07866 37.0042 3.13764 36.9436 3.00608C36.7962 2.69079 36.6514 2.3755 36.504 2.06021C35.6274 2.53655 34.7745 3.04917 33.9505 3.59129C34.1243 3.88617 34.2954 4.18104 34.4691 4.47592C34.5428 4.60294 34.3217 4.71635 34.248 4.58706C34.0795 4.30126 33.911 4.01319 33.7452 3.72739C33.4951 3.89297 33.2476 4.06309 33.0028 4.23321C32.2236 4.78213 31.476 5.35827 30.7573 5.95937C31.0127 6.16805 31.2786 6.36312 31.5655 6.53778C31.6998 6.61943 31.5708 6.81224 31.4365 6.72831C31.1312 6.54231 30.8442 6.33363 30.5731 6.11134C29.8281 6.74192 29.1173 7.39972 28.4381 8.0802C28.7198 8.33425 28.9989 8.58603 29.2805 8.84007C29.3937 8.94214 29.2121 9.10092 29.0989 8.99658C28.8225 8.74707 28.5461 8.49983 28.2723 8.25032C27.5721 8.96483 26.9113 9.70428 26.2901 10.4664C26.6139 10.7137 26.935 10.9632 27.2588 11.2104C27.3825 11.3057 27.2009 11.4622 27.0772 11.3669C26.7665 11.1265 26.4533 10.8883 26.1426 10.6479C25.5556 11.3805 25.0054 12.1336 24.4974 12.9048C24.8317 13.1475 25.1923 13.3585 25.5793 13.5354C25.7267 13.6012 25.5951 13.794 25.4503 13.7259C25.066 13.5513 24.708 13.3403 24.3736 13.1022C23.8208 13.9528 23.318 14.8238 22.8679 15.7129C23.2233 15.9057 23.5813 16.0963 23.9393 16.2891C24.0788 16.3639 23.9498 16.5567 23.8103 16.4796C23.4628 16.2913 23.1153 16.1053 22.7678 15.9171C22.631 16.1915 22.4993 16.4683 22.373 16.745C22.2624 16.965 21.8781 16.8516 21.9755 16.6361Z" fill="#362A2E"/>
<path d="M69.3571 39.219L70.7339 44.994C70.7339 44.994 69.9442 45.8174 68.8833 45.1913L67.6934 39.3982L69.3571 39.219Z" fill="#562923"/>
<path d="M66.2088 41.3013C66.2088 42.0067 66.8722 42.5806 67.6935 42.5806C68.5122 42.5806 69.1782 42.009 69.1782 41.3013C69.1782 40.5958 68.5148 40.022 67.6935 40.022C66.8748 40.022 66.2088 40.5958 66.2088 41.3013Z" fill="#91966E"/>
<path d="M66.9194 41.3013C66.9194 41.671 67.2669 41.9704 67.6933 41.9704C68.1224 41.9704 68.4699 41.671 68.4699 41.3013C68.4699 40.9316 68.1224 40.6344 67.6933 40.6344C67.2643 40.6322 66.9194 40.9316 66.9194 41.3013Z" fill="#747858"/>
<path d="M91.2435 41.4782C91.2593 41.8298 91.3461 42.1791 91.4541 42.5216C91.7779 43.5355 92.765 44.6901 94.1102 44.7309C94.463 44.7423 94.8157 44.6719 95.1448 44.5608C96.1188 44.2296 96.869 43.4947 97.2034 42.6486C97.6377 41.5485 97.3903 40.0401 96.4084 39.2009C95.3606 38.3026 93.4679 38.4387 92.3886 39.2236C91.7015 39.7226 91.2751 40.4779 91.2435 41.2537C91.2382 41.3285 91.2382 41.4034 91.2435 41.4782Z" fill="#FAC35C"/>
<path d="M71.2601 34.7301C71.2492 34.7301 71.2492 34.7421 71.2601 34.7421C71.2711 34.7445 71.2711 34.7301 71.2601 34.7301Z" fill="#C4C5BD"/>
<path d="M70.0758 42.2269C69.8784 42.1701 68.8728 41.898 68.6754 41.9569C68.4779 42.0159 68.3437 42.2473 68.4858 42.3788C68.4016 42.3698 68.2779 42.397 68.2463 42.4832C68.2094 42.6034 68.2463 42.7372 68.3437 42.8279C68.0594 42.9504 68.0252 43.1863 68.2568 43.3723C68.1436 43.3655 68.1041 43.454 68.0857 43.5833C68.2094 43.8101 68.6175 43.8668 68.907 43.9099C69.6415 44.0165 70.3786 44.1004 71.1209 44.164C71.3289 43.6717 71.421 42.9731 71.5474 42.4605C71.1209 42.245 70.297 41.6734 69.8863 41.4307L70.0758 42.2269Z" fill="#FF9999"/>
<path d="M92.3859 39.2236L81.7403 46.38L71.4842 42.186L70.0838 44.5745L82.7827 50.1L95.7239 43.9076L92.3859 39.2236Z" fill="#FAC35C"/>
<path d="M72.8057 42.7258L71.5448 45.2095" stroke="#FFD587" stroke-width="0.25" stroke-miterlimit="10"/>
<path d="M83.1486 46.9267L81.7403 46.38L82.4458 47.7796" stroke="#FFD587" stroke-width="0.25" stroke-miterlimit="10"/>
<path d="M96.1056 43.7465L94.1076 44.731" stroke="#FFD587" stroke-width="0.25" stroke-miterlimit="10"/>
<path d="M75.6354 71.8526H100.459V69.1262C100.459 67.1097 98.5615 65.4742 96.2212 65.4742H79.8737C77.5334 65.4742 75.6354 67.1097 75.6354 69.1262V71.8526Z" fill="#4D2A1C"/>
<path d="M75.6358 71.8526H100.46V73.9757H75.6358V71.8526Z" fill="#F6A65D"/>
<path d="M100.463 84.7331H97.9513V73.9747H100.463V84.7331Z" fill="#CD6D3D"/>
<path d="M78.1465 84.7331H75.6351V73.9747H78.1465V84.7331Z" fill="#CD6D3D"/>
</svg>
