<svg width="26" height="21" viewBox="0 0 26 21" fill="none" xmlns="http://www.w3.org/2000/svg">
<g clip-path="url(#clip0_917_9)">
<path d="M26.0002 11.7351C25.9022 11.9131 25.9302 12.1124 25.9092 12.3011C25.5661 15.387 24.4142 18.1241 22.4675 20.516C22.0159 21.0712 21.3226 21.1495 20.8009 20.7295C20.1357 20.1956 19.9957 19.5087 20.4578 18.8894C21.046 18.1027 21.6097 17.3019 22.0509 16.4156C22.7126 15.0773 23.1432 13.6678 23.3148 12.18C23.6999 8.86986 22.9262 5.85868 21.0355 3.14291C20.7764 2.77274 20.4718 2.43461 20.2057 2.068C19.8346 1.56258 19.8906 0.953931 20.3388 0.476982C20.8184 -0.0391195 21.4136 -0.149459 21.9318 0.188677C22.0369 0.256304 22.1349 0.345287 22.2154 0.441389C24.1306 2.67664 25.3385 5.25359 25.8042 8.18291C25.8707 8.58868 25.9197 8.998 25.9512 9.41088C25.9547 9.45003 25.9442 9.49986 26.0002 9.51054C26.0002 10.258 26.0002 10.9983 26.0002 11.7351Z" fill="white"/>
<path d="M13.0035 10.6495C13.0035 13.3083 13.0035 15.9636 13.0035 18.6224C13.0035 19.3521 12.5939 19.8504 11.9356 19.9287C11.568 19.9714 11.2634 19.8219 10.9868 19.587C9.03313 17.939 7.07245 16.3053 5.13278 14.6431C4.77565 14.337 4.42553 14.1911 3.95287 14.2089C3.06706 14.2445 2.17775 14.2231 1.28845 14.2195C0.476165 14.216 0 13.7319 0 12.9026C0 11.3899 0 9.8736 0 8.36089C0 7.53869 0.486668 7.04394 1.29195 7.04038C2.3248 7.03682 3.35766 7.03683 4.38702 7.04394C4.54807 7.04394 4.67062 7.00123 4.79666 6.89445C6.85187 5.1575 8.91058 3.42767 10.9658 1.69072C11.3789 1.34191 11.8341 1.21377 12.3278 1.45225C12.8214 1.69072 13.007 2.12852 13.007 2.67666C13.0035 5.33547 13.007 7.99072 13.0035 10.6495Z" fill="white"/>
<path d="M20.2791 10.5391C20.2791 12.7352 19.6524 14.643 18.4305 16.3444C18.0418 16.8889 17.3416 17.0206 16.8129 16.6683C16.1547 16.2305 15.9271 15.4901 16.3017 14.8922C16.6834 14.2835 17.0755 13.682 17.2996 12.9915C18.0523 10.685 17.7687 8.52809 16.3893 6.53131C16.2142 6.2786 16.0041 6.05436 15.9411 5.73402C15.8221 5.13961 16.1617 4.51317 16.7604 4.22843C17.2611 3.99351 17.8423 4.15012 18.2099 4.62351C19.5754 6.38182 20.2721 8.38216 20.2791 10.5391Z" fill="white"/>
</g>
<defs>
<clipPath id="clip0_917_9">
<rect width="26" height="21" fill="white"/>
</clipPath>
</defs>
</svg>
