<svg width="26" height="30" viewBox="0 0 26 30" fill="none" xmlns="http://www.w3.org/2000/svg">
<path d="M4.61088 29.9992C4.26655 29.8351 3.87965 29.8381 3.52164 29.715C1.48759 29.0172 0.272179 27.6117 0.073791 25.4766C-0.162603 22.9325 0.164244 20.4318 1.12274 18.0503C1.69434 16.6312 2.5487 15.4059 3.9473 14.6489C4.83815 14.1669 5.79361 13.9579 6.79619 13.9404C7.14052 13.9344 7.44304 14.0833 7.72808 14.262C8.18111 14.5455 8.62577 14.8434 9.08108 15.1232C11.6685 16.711 14.2574 16.711 16.8425 15.1171C17.212 14.889 17.5875 14.6679 17.9333 14.4079C18.5452 13.948 19.2202 13.8903 19.9461 13.9944C21.9581 14.2832 23.3878 15.3755 24.3524 17.1329C25.2182 18.7101 25.5861 20.4264 25.7883 22.1907C25.8901 23.0754 25.9243 23.964 25.9068 24.8541C25.8521 27.6543 24.0537 29.6245 21.2618 29.94C21.2192 29.9445 21.1835 29.9506 21.1736 30C15.653 29.9992 10.1315 29.9992 4.61088 29.9992Z" fill="black"/>
<path d="M20.4416 7.47951C20.4454 11.6145 17.0568 14.9955 12.9408 14.9651C8.77997 14.9339 5.47502 11.6229 5.47274 7.48255C5.47046 3.3354 8.82558 -0.0136402 12.9689 4.17726e-05C17.1115 0.0137237 20.4378 3.343 20.4416 7.47951Z" fill="black"/>
</svg>
