<svg width="22" height="20" viewBox="0 0 22 20" fill="none" xmlns="http://www.w3.org/2000/svg">
<g clip-path="url(#clip0_415_702)">
<path d="M20.9995 10.1702C20.8938 10.3526 20.8396 10.56 20.6951 10.7251C20.2782 11.2012 19.558 11.2783 19.0668 10.8836C18.9759 10.8103 18.892 10.7272 18.8097 10.6431C16.2429 8.02017 13.676 5.39618 11.1097 2.77273C10.6774 2.33078 10.3157 2.33241 9.87913 2.77816C7.29795 5.41627 4.71677 8.05492 2.13505 10.693C1.66024 11.1784 1.12063 11.2745 0.594838 10.9705C-0.0169984 10.617 -0.192795 9.76678 0.229967 9.19236C0.299542 9.09789 0.378677 9.00939 0.460468 8.92578C3.04112 6.28659 5.62177 3.64848 8.20349 1.01037C9.52382 -0.338273 11.473 -0.336101 12.7954 1.01471C13.4917 1.72596 14.1875 2.43774 14.8827 3.14952C14.9289 3.19676 14.9693 3.24942 15.0532 3.34715C15.0532 2.87534 15.0484 2.47357 15.0542 2.0718C15.0627 1.49521 15.3814 1.03155 15.8727 0.866494C16.6853 0.592856 17.4596 1.19008 17.4644 2.10492C17.4708 3.26463 17.4681 4.42487 17.4628 5.58458C17.4623 5.72791 17.4989 5.8289 17.5998 5.93097C18.5272 6.87078 19.4454 7.81929 20.3738 8.75747C20.6468 9.03382 20.9023 9.31452 20.9984 9.70869C20.9995 9.86288 20.9995 10.0165 20.9995 10.1702Z" fill="black"/>
<path d="M18.0884 15.2337C18.0884 16.0584 18.0905 16.8831 18.0879 17.7073C18.0841 19.0147 17.1675 19.9778 15.8949 19.993C14.8014 20.0055 13.7073 19.9919 12.6137 20.0001C12.4613 20.0012 12.456 19.9355 12.456 19.816C12.4587 18.1319 12.4544 16.4477 12.4624 14.7635C12.4634 14.5697 12.43 14.5051 12.2234 14.5072C11.0613 14.5192 9.89924 14.5159 8.73718 14.5094C8.57838 14.5083 8.5327 14.5474 8.53323 14.7152C8.53961 16.3994 8.53323 18.0835 8.54226 19.7677C8.54333 19.967 8.48384 20.0017 8.30592 20.0001C7.19166 19.9898 6.07686 20.0115 4.96366 19.9843C3.84568 19.9572 2.91996 18.981 2.91252 17.8398C2.90084 16.0926 2.90987 14.3454 2.90668 12.5988C2.90615 12.3703 3.01131 12.2052 3.16214 12.051C4.38688 10.8028 5.60949 9.55189 6.8321 8.30206C7.88103 7.22977 8.92997 6.15748 9.97944 5.08573C10.3496 4.7073 10.646 4.70622 11.0135 5.08193C13.2808 7.39916 15.547 9.71748 17.8175 12.0315C18.0103 12.228 18.0964 12.4403 18.0926 12.7194C18.081 13.5566 18.0884 14.3954 18.0884 15.2337Z" fill="black"/>
</g>
<defs>
<clipPath id="clip0_415_702">
<rect width="21.0088" height="20" fill="white"/>
</clipPath>
</defs>
</svg>
