<svg width="21" height="21" viewBox="0 0 21 21" fill="none" xmlns="http://www.w3.org/2000/svg">
<path d="M0 7.80221C0.10859 7.54022 0.0986928 7.25559 0.151857 6.98271C0.455571 5.41795 1.13285 4.04495 2.18453 2.86228C3.4353 1.45574 4.97649 0.544803 6.80839 0.178766C8.9211 -0.243739 10.9295 0.0770091 12.7845 1.20149C14.9156 2.49366 16.2668 4.38031 16.7863 6.8434C17.2305 8.94991 16.9031 10.9547 15.87 12.8382C15.6834 13.1781 15.6777 13.175 15.9535 13.4544C17.4423 14.9636 18.9306 16.4733 20.4204 17.9816C20.9314 18.499 21.1282 19.1029 20.9152 19.8181C20.5821 20.9363 19.1532 21.3748 18.263 20.633C18.1524 20.5407 18.0461 20.4424 17.9448 20.3398C16.4551 18.8315 14.9648 17.3238 13.4802 15.8103C13.3674 15.6954 13.2967 15.6819 13.1618 15.7745C12.1466 16.4707 11.0267 16.9133 9.8181 17.1002C8.13014 17.3616 6.50015 17.1515 4.94313 16.416C3.25375 15.618 1.96028 14.3883 1.05112 12.7461C0.49403 11.7398 0.165996 10.6543 0.0429837 9.50599C0.0384591 9.46328 0.0647583 9.40537 0 9.38244C0 8.8556 0 8.32905 0 7.80221ZM2.74983 8.60336C2.74587 11.8037 5.31952 14.413 8.48447 14.4175C11.6409 14.4221 14.2197 11.8134 14.2262 8.60909C14.2327 5.41651 11.6514 2.79979 8.49013 2.79434C5.33535 2.7889 2.75378 5.40132 2.74983 8.60336Z" fill="white"/>
</svg>
