<svg width="23" height="24" viewBox="0 0 23 24" fill="none" xmlns="http://www.w3.org/2000/svg">
<path d="M0 8.90256C0.118932 8.60363 0.108092 8.27885 0.166319 7.96749C0.498958 6.18205 1.24074 4.61541 2.39258 3.26595C3.76247 1.66105 5.45045 0.621638 7.45681 0.203977C9.77073 -0.278114 11.9704 0.0878698 14.0021 1.37094C16.3362 2.84534 17.816 4.99808 18.385 7.80854C18.8715 10.2121 18.5129 12.4996 17.3815 14.6487C17.1771 15.0366 17.1709 15.033 17.4728 15.3519C19.1035 17.0739 20.7336 18.7966 22.3652 20.5176C22.9248 21.1079 23.1404 21.7971 22.9072 22.6131C22.5423 23.889 20.9773 24.3894 20.0023 23.5429C19.8812 23.4376 19.7648 23.3254 19.6539 23.2083C18.0223 21.4873 16.3901 19.767 14.764 18.0401C14.6404 17.9089 14.563 17.8935 14.4153 17.9992C13.3034 18.7936 12.0769 19.2986 10.7532 19.5119C8.90444 19.8101 7.11922 19.5704 5.4139 18.7312C3.56363 17.8206 2.14698 16.4175 1.15123 14.5438C0.54108 13.3954 0.181805 12.1568 0.0470774 10.8466C0.0421219 10.7979 0.0709258 10.7318 0 10.7057C0 10.1045 0 9.50371 0 8.90256ZM3.01171 9.81671C3.00738 13.4684 5.82614 16.4456 9.29252 16.4509C12.7496 16.4561 15.5739 13.4795 15.5811 9.82325C15.5882 6.18041 12.7611 3.19465 9.29871 3.18843C5.84348 3.18222 3.01605 6.16308 3.01171 9.81671Z" fill="#FFCC66"/>
</svg>
