<svg width="47" height="109" viewBox="0 0 47 109" fill="none" xmlns="http://www.w3.org/2000/svg">
<path d="M29.7679 31.3255C24.4195 23.1438 25.1969 11.4555 31.5889 4.05647C33.5718 1.76057 36.3425 -0.23791 39.3689 0.0229877C42.4632 0.289104 44.9573 2.94505 45.9018 5.90363C46.841 8.86221 46.5175 12.0713 45.9644 15.129C45.1922 19.4077 43.8929 23.7908 40.9239 26.9685C37.9496 30.1463 33.5874 33.4127 29.7679 31.3255Z" fill="#FFCC66"/>
<path d="M31.3854 70.7107C29.3712 66.0093 30.8323 60.0608 34.7927 56.8257C36.0241 55.8238 37.6313 55.0464 39.1654 55.4534C40.736 55.8708 41.7795 57.4623 41.9987 59.0746C42.2179 60.687 41.7587 62.3098 41.1951 63.8334C40.4072 65.9676 39.3428 68.1069 37.5269 69.474C35.7058 70.8411 33.1647 72.13 31.3854 70.7107Z" fill="#FFCC66"/>
<path d="M19.8276 67.8981C21.2991 60.6452 17.4743 52.6408 10.9101 49.2231C8.86991 48.1638 6.36529 47.5377 4.30941 48.5656C2.20658 49.6196 1.19429 52.1869 1.36127 54.5297C1.52824 56.8778 2.65532 59.0433 3.90241 61.0365C5.64521 63.8281 7.78457 66.5467 10.764 67.9503C13.7435 69.3592 17.7248 70.4341 19.8276 67.8981Z" fill="#FFCC66"/>
<path d="M20.7512 48.2839C23.3132 40.0187 18.9719 30.0002 11.7346 25.257C9.48565 23.7856 6.64187 22.7629 4.13203 23.7178C1.56479 24.6987 0.0881112 27.5634 0.00462389 30.3133C-0.0788634 33.0631 0.980382 35.7138 2.19617 38.1767C3.89722 41.631 6.06789 45.0435 9.36564 47.0264C12.6686 49.0092 18.0118 50.9868 20.7512 48.2839Z" fill="#FFCC66"/>
<path d="M24.5551 88.6813C24.5446 88.6813 24.5133 88.5456 24.4716 88.2795C24.4246 87.9769 24.3672 87.596 24.2994 87.1263C24.2629 86.8707 24.2263 86.5941 24.1846 86.2915C24.1272 85.9888 24.0646 85.6601 23.9968 85.3105C23.8611 84.6061 23.7254 83.7973 23.4906 82.9259C23.3863 82.4876 23.2715 82.0284 23.1567 81.5484C23.0158 81.0735 22.8749 80.583 22.7236 80.0717C22.447 79.0437 22.04 77.9845 21.6591 76.8522C20.8138 74.6189 19.7598 72.2134 18.4709 69.7766C17.156 67.3555 15.7315 65.1431 14.3383 63.2072C13.6078 62.2628 12.9503 61.3392 12.2459 60.5409C11.9067 60.1339 11.5728 59.7425 11.2545 59.3668C10.9206 59.0068 10.597 58.6572 10.2892 58.3284C9.68911 57.6553 9.09427 57.0918 8.58291 56.5909C8.32723 56.3404 8.09242 56.1056 7.86805 55.8917C7.63846 55.6882 7.42974 55.5055 7.23667 55.3333C6.88185 55.015 6.59487 54.7541 6.37049 54.5506C6.17743 54.368 6.07829 54.2689 6.0835 54.2584C6.08872 54.248 6.20352 54.3315 6.41745 54.4932C6.65748 54.6863 6.9549 54.9263 7.32538 55.2238C7.52366 55.3855 7.74282 55.5681 7.97762 55.7612C8.20721 55.9751 8.45246 56.1995 8.71336 56.4448C9.24037 56.9352 9.85087 57.4883 10.4666 58.1562C10.7797 58.485 11.1084 58.8294 11.4528 59.1842C11.7763 59.5599 12.1155 59.9512 12.4651 60.353C13.1799 61.1461 13.853 62.0697 14.594 63.0142C16.0081 64.9552 17.4534 67.1729 18.7736 69.6097C20.0728 72.0621 21.1217 74.4885 21.9565 76.7374C22.3322 77.8801 22.734 78.9498 22.9949 79.983C23.1358 80.4943 23.2767 80.9953 23.4123 81.4701C23.5219 81.9501 23.6263 82.4145 23.7254 82.8633C23.9446 83.7451 24.0646 84.5591 24.1794 85.2688C24.2368 85.6236 24.289 85.9523 24.3411 86.2602C24.3724 86.5628 24.3985 86.8446 24.4246 87.1003C24.4664 87.5751 24.5029 87.9612 24.529 88.2639C24.5655 88.5404 24.5707 88.6813 24.5551 88.6813Z" fill="#263238"/>
<path d="M24.3672 90.1684C24.3619 90.1684 24.3619 90.111 24.3672 90.0014C24.3776 89.8709 24.388 89.7144 24.4037 89.5213C24.4454 89.0726 24.5028 88.4621 24.5707 87.6846C24.6124 87.2828 24.6541 86.8393 24.7011 86.3593C24.7376 85.874 24.7533 85.347 24.7794 84.7782C24.8211 83.6407 24.9307 82.3519 24.889 80.9221C24.8837 80.2073 24.8837 79.4559 24.8785 78.6784C24.8681 77.8957 24.795 77.087 24.7585 76.2469C24.7011 74.5667 24.4715 72.7821 24.2732 70.9037C23.7619 67.1624 22.9583 63.0767 21.7373 58.8867C20.4746 54.7071 18.9196 50.8458 17.3125 47.4281C16.4567 45.7427 15.6793 44.1251 14.8079 42.685C14.3852 41.9597 14.0043 41.2396 13.5869 40.5821C13.1642 39.9247 12.7572 39.2985 12.3711 38.6932C11.6249 37.4722 10.8318 36.4495 10.1743 35.5207C9.84037 35.0615 9.54294 34.6232 9.24552 34.2371C8.94288 33.8614 8.66633 33.5118 8.41586 33.1987C7.93581 32.5882 7.54968 32.1029 7.27313 31.7533C7.15834 31.5968 7.0592 31.4716 6.98093 31.3724C6.91831 31.2837 6.887 31.2368 6.89222 31.2368C6.89744 31.2368 6.93397 31.2733 7.00702 31.3516C7.0905 31.4507 7.19486 31.5655 7.32531 31.7116C7.61752 32.056 8.01408 32.5256 8.52022 33.1204C8.78112 33.4283 9.06811 33.7727 9.37597 34.1432C9.67861 34.5241 9.98647 34.9572 10.3309 35.4111C11.004 36.3295 11.8128 37.347 12.5746 38.5628C12.9711 39.1628 13.3834 39.789 13.8112 40.4465C14.2391 41.1039 14.6252 41.824 15.0583 42.5493C15.9402 43.9895 16.7333 45.6122 17.5995 47.2976C19.2327 50.7258 20.8033 54.6028 22.0713 58.798C23.2975 63.0089 24.0958 67.1154 24.5915 70.8776C24.7846 72.7665 25.0038 74.5562 25.0507 76.2469C25.082 77.0922 25.1499 77.901 25.1499 78.6889C25.1446 79.4716 25.1394 80.2229 25.1394 80.943C25.1655 82.378 25.0351 83.672 24.9777 84.8095C24.9411 85.3783 24.915 85.9105 24.8681 86.3958C24.8107 86.8758 24.7533 87.3194 24.7063 87.7211C24.6072 88.4934 24.5289 89.1039 24.4715 89.5527C24.4454 89.7457 24.4193 89.9023 24.4037 90.0275C24.388 90.1162 24.3724 90.1684 24.3672 90.1684Z" fill="#263238"/>
<path d="M38.2941 9.90054C38.2993 9.90576 38.2784 9.95794 38.2262 10.0519C38.1636 10.1667 38.0906 10.3075 37.9966 10.4797C37.7723 10.8763 37.4696 11.4242 37.0835 12.113C36.8852 12.4678 36.6504 12.8539 36.426 13.2922C36.2069 13.7357 35.9668 14.2158 35.7112 14.7324C35.4555 15.249 35.1789 15.8021 34.8867 16.3865C34.6102 16.9761 34.3441 17.6179 34.0466 18.2806C33.7597 18.9485 33.4361 19.6373 33.1439 20.373C32.8569 21.1139 32.5647 21.881 32.2569 22.6793C32.1056 23.0759 31.949 23.4829 31.7873 23.8951C31.6464 24.3125 31.5003 24.7352 31.3542 25.1683C31.062 26.0293 30.7645 26.9163 30.4567 27.8242C29.3244 31.4925 28.2495 35.5729 27.3416 39.909C26.4649 44.2504 25.8492 48.4299 25.39 52.2443C24.9987 56.0638 24.7117 59.5129 24.6334 62.4141C24.5604 63.8647 24.5447 65.1796 24.5395 66.3328C24.5186 67.4859 24.5186 68.4825 24.5447 69.2913C24.5552 70.0792 24.5656 70.7054 24.5708 71.1646C24.5708 71.3629 24.5708 71.5194 24.5708 71.6499C24.5708 71.7594 24.5656 71.8168 24.5604 71.8168C24.5552 71.8168 24.5447 71.7594 24.5395 71.6499C24.5291 71.5194 24.5186 71.3577 24.5082 71.1646C24.4873 70.7106 24.456 70.0845 24.4143 69.2913C24.3673 68.4773 24.3517 67.4859 24.3517 66.3275C24.336 65.1744 24.336 63.8542 24.3934 62.4036C24.4404 59.492 24.7065 56.0377 25.077 52.2077C25.5153 48.383 26.1258 44.193 27.0024 39.836C27.9103 35.4894 29.0009 31.3933 30.154 27.7251C30.4671 26.8172 30.7698 25.9249 31.0672 25.0639C31.2185 24.6308 31.3646 24.2082 31.5055 23.7908C31.6672 23.3785 31.8238 22.9715 31.9803 22.575C32.2934 21.7818 32.596 21.0096 32.8883 20.2686C33.1909 19.5329 33.5196 18.8441 33.817 18.1814C34.1197 17.5188 34.3962 16.8822 34.6832 16.2925C34.9859 15.7133 35.2676 15.1602 35.5338 14.6489C35.7999 14.1375 36.0451 13.6627 36.2747 13.2192C36.5095 12.7861 36.7548 12.4052 36.9635 12.0503C37.3757 11.372 37.6992 10.8398 37.934 10.4484C38.0384 10.2815 38.1271 10.1458 38.1949 10.0362C38.2575 9.94229 38.2888 9.90054 38.2941 9.90054Z" fill="#263238"/>
<path d="M36.4783 60.1078C36.4991 60.1235 36.2956 60.4783 35.9095 61.1044C35.5182 61.7306 34.9807 62.6542 34.3493 63.8125C33.7127 64.9657 33.024 66.3746 32.3248 67.9713C31.6412 69.5732 30.9577 71.3629 30.3576 73.2779C29.7732 75.1981 29.3244 77.0662 28.9853 78.7724C28.667 80.4839 28.4374 82.0389 28.3121 83.3486C28.1817 84.6583 28.1034 85.7228 28.0721 86.4637C28.0356 87.1994 28.0043 87.6064 27.9782 87.6064C27.9521 87.6064 27.9417 87.1994 27.9365 86.4585C27.926 85.7175 27.9625 84.6479 28.0669 83.3277C28.1608 82.0076 28.3643 80.4422 28.667 78.7151C28.9905 76.9931 29.4288 75.1147 30.0184 73.1788C30.6237 71.2481 31.3177 69.4479 32.0221 67.846C32.7422 66.2493 33.4623 64.8405 34.1302 63.6978C34.7929 62.5498 35.3616 61.6419 35.7895 61.0366C36.2121 60.4261 36.4574 60.0922 36.4783 60.1078Z" fill="#263238"/>
<path d="M14.0514 84.9974H37.5479L34.7041 109H16.9787L14.0514 84.9974Z" fill="#455A64"/>
<path d="M14.9072 106.407L16.9057 109H34.7041L36.76 106.49L14.9072 106.407Z" fill="#263238"/>
<path d="M36.6346 92.0573C36.6346 92.1565 31.7558 92.2347 25.7447 92.2347C19.7284 92.2347 14.8548 92.1565 14.8548 92.0573C14.8548 91.9582 19.7284 91.8799 25.7447 91.8799C31.7558 91.8851 36.6346 91.9634 36.6346 92.0573Z" fill="white"/>
<path d="M36.6346 93.654C36.6346 93.7531 31.7558 93.8314 25.7447 93.8314C19.7284 93.8314 14.8548 93.7531 14.8548 93.654C14.8548 93.5548 19.7284 93.4766 25.7447 93.4766C31.7558 93.4818 36.6346 93.5601 36.6346 93.654Z" fill="white"/>
<path d="M36.3424 95.2038C36.3424 95.3029 31.6358 95.3812 25.8334 95.3812C20.0258 95.3812 15.3245 95.3029 15.3245 95.2038C15.3245 95.1047 20.031 95.0264 25.8334 95.0264C31.6358 95.0264 36.3424 95.1047 36.3424 95.2038Z" fill="white"/>
</svg>
