<svg width="23" height="21" viewBox="0 0 23 21" fill="none" xmlns="http://www.w3.org/2000/svg">
<path d="M0 14.5113C0.189105 14.0532 0.301968 13.5706 0.444848 13.0981C1.06799 11.0414 1.68214 8.98232 2.30048 6.92383C2.31669 6.87 2.3389 6.81797 2.39173 6.76953C2.39173 6.84788 2.39173 6.92622 2.39173 7.00516C2.39173 9.01103 2.37792 11.0175 2.39653 13.0234C2.40974 14.4635 3.04129 15.5705 4.3146 16.2821C4.8597 16.5872 5.45644 16.7056 6.08138 16.705C8.64901 16.702 11.2166 16.7038 13.7843 16.7038C15.7306 16.7038 17.6768 16.7038 19.6231 16.7038C19.7054 16.7038 19.7876 16.7038 19.8969 16.7038C19.8657 16.8048 19.8398 16.8928 19.8122 16.9801C19.5487 17.8167 19.2869 18.6546 19.0198 19.4901C18.6644 20.6043 17.552 21.225 16.4137 20.9242C13.1827 20.0696 9.95354 19.2042 6.72374 18.3424C5.08003 17.9041 3.43931 17.4543 1.792 17.0291C0.875287 16.7929 0.282157 16.2552 0.0486271 15.336C0.0408227 15.3061 0.0354197 15.2792 0 15.272C0 15.0185 0 14.7649 0 14.5113Z" fill="#FFCC66"/>
<path d="M13.4241 0.000781129C15.7894 0.000781129 18.1547 -0.00161108 20.5206 0.00197723C21.7219 0.00377139 22.641 0.704688 22.9274 1.82185C22.9814 2.03236 22.9994 2.24647 22.9994 2.46356C22.9982 5.90894 23 9.35431 22.9982 12.7991C22.9976 14.2338 21.9626 15.2702 20.5272 15.2708C15.7888 15.2732 11.0504 15.2726 6.31192 15.2708C4.87592 15.2702 3.83314 14.2392 3.83073 12.8057C3.82533 9.3603 3.82593 5.91492 3.83073 2.47014C3.83254 1.02046 4.86571 0.00317334 6.32752 0.00137918C8.69344 -0.00101303 11.0588 0.000781129 13.4241 0.000781129ZM5.75 11.3997C6.63309 10.5193 7.47716 9.67547 8.32364 8.83401C9.08606 8.07628 10.0796 8.07747 10.848 8.8358C11.162 9.1456 11.482 9.44881 11.7822 9.77116C11.9136 9.9123 11.9713 9.87223 12.0745 9.74843C13.1911 8.4058 14.312 7.06617 15.434 5.72773C16.1826 4.83424 17.3497 4.82646 18.1121 5.70979C18.9219 6.64753 19.7282 7.58887 20.5368 8.52781C20.7037 8.72158 20.873 8.91295 21.0789 9.14978C21.0789 9.02539 21.0789 8.96139 21.0789 8.8968C21.0789 6.77193 21.0789 4.64705 21.0789 2.52217C21.0789 2.06167 20.9198 1.90318 20.46 1.90318C15.7678 1.90259 11.075 1.90259 6.38275 1.90318C5.91269 1.90318 5.75 2.06585 5.75 2.53353C5.75 5.40418 5.75 8.27423 5.75 11.1449C5.75 11.2107 5.75 11.2771 5.75 11.3997Z" fill="#FFCC66"/>
<path d="M8.62268 2.8667C9.67867 2.8655 10.5359 3.71175 10.5438 4.76312C10.5516 5.81211 9.67567 6.68287 8.61608 6.67928C7.5679 6.67569 6.70341 5.81031 6.70582 4.76791C6.70822 3.72012 7.5679 2.8679 8.62268 2.8667Z" fill="#FFCC66"/>
</svg>
