<svg width="23" height="23" viewBox="0 0 23 23" fill="none" xmlns="http://www.w3.org/2000/svg">
<path d="M10.5579 0C11.1567 0 11.7555 0 12.3548 0C12.3722 0.0630302 12.4246 0.0410822 12.4651 0.043896C13.72 0.141818 14.9345 0.424328 16.0752 0.951081C19.9081 2.72212 22.1833 5.69467 22.8828 9.86648C22.9239 10.1107 22.9025 10.3651 22.9999 10.6003C22.9999 11.1991 22.9999 11.7979 22.9999 12.3973C22.9402 12.4164 22.9582 12.4682 22.9549 12.5092C22.8766 13.4136 22.696 14.2977 22.4045 15.1571C20.3909 21.0915 14.0903 24.319 8.09867 22.4877C2.41259 20.7499 -1.01966 14.847 0.271304 9.02739C1.31071 4.33952 5.0975 0.819393 9.84716 0.120433C10.0841 0.085541 10.3311 0.0990474 10.5579 0ZM13.6238 14.7322C13.6238 14.0062 13.6289 13.2802 13.6199 12.5543C13.6176 12.3916 13.6514 12.337 13.8264 12.3398C14.455 12.3517 15.0836 12.3466 15.7122 12.3432C16.0431 12.3415 16.3143 12.2166 16.4629 11.9076C16.6109 11.6004 16.5485 11.3128 16.3425 11.0489C14.9395 9.25024 13.5394 7.44938 12.1319 5.65415C11.7797 5.20449 11.2208 5.20506 10.8686 5.65471C9.46167 7.45051 8.06097 9.25081 6.65915 11.05C6.55222 11.1873 6.47118 11.3364 6.46218 11.5171C6.43855 11.9994 6.7807 12.3382 7.3125 12.3427C7.92591 12.3477 8.53987 12.3517 9.15384 12.3393C9.34518 12.3353 9.38345 12.3944 9.38288 12.5768C9.375 13.9916 9.37669 15.4058 9.37951 16.8206C9.38063 17.3721 9.67158 17.6687 10.222 17.6721C11.0751 17.6777 11.9282 17.6777 12.7814 17.6721C13.3312 17.6681 13.6204 17.3716 13.6232 16.8195C13.6261 16.1245 13.6232 15.4283 13.6238 14.7322Z" fill="#FFCC66"/>
</svg>
