<svg width="44" height="44" viewBox="0 0 44 44" fill="none" xmlns="http://www.w3.org/2000/svg">
<g clip-path="url(#clip0_825_679)">
<path d="M21.0317 43.4071C20.6723 42.6675 20.306 41.9315 19.9565 41.1878C19.1828 39.5379 18.4257 37.8837 17.9227 36.1147C17.4327 34.3904 18.2467 32.5221 19.787 31.588C21.3696 30.6274 23.3808 30.8261 24.6368 32.1085C25.6812 33.1743 26.0397 34.4679 25.5983 35.9641C25.1393 37.5219 24.4464 38.9916 23.7256 40.4473C23.2636 41.3805 22.7713 42.2999 22.2932 43.2266C22.2665 43.2781 22.2055 43.3186 22.2342 43.3894C22.1466 43.4769 22.0595 43.5638 21.9719 43.6513C21.7602 43.7407 21.5435 43.7257 21.3263 43.7044C21.2287 43.6044 21.1304 43.506 21.0317 43.4071Z" fill="#FFCC66"/>
<path d="M21.327 43.7029C21.5436 43.7248 21.7609 43.7392 21.9726 43.6497C21.958 43.6643 21.9434 43.6789 21.9288 43.6935C21.6227 43.9991 21.6227 43.9991 21.327 43.7029Z" fill="#FFCC66"/>
<path d="M28.5022 27.1556C28.4784 27.4729 28.4625 27.7326 28.4385 27.9914C28.3942 28.4668 28.1641 28.6943 27.688 28.7024C23.8093 28.7666 19.9302 28.8268 16.0516 28.8841C15.5985 28.8906 15.3756 28.6628 15.3502 28.2039C15.3357 27.944 15.3281 27.6841 15.3158 27.3657C14.7772 27.7702 14.2806 28.1408 13.7862 28.5149C12.9428 29.1527 12.1021 29.7945 11.257 30.4318C11.0343 30.6001 10.7849 30.6436 10.5419 30.5171C10.2773 30.3794 10.1908 30.1385 10.1988 29.837C10.2697 27.2759 10.8982 24.8422 12.0842 22.537C12.8005 21.1445 13.687 19.8653 14.7738 18.727C14.9112 18.5831 14.971 18.4432 14.967 18.2429C14.8767 13.1934 16.2237 8.49908 18.9306 4.15263C19.7358 2.85977 20.6868 1.67198 21.7771 0.599123C22.2116 0.172073 22.5332 0.161292 22.9453 0.570485C25.3603 2.96569 26.9572 5.8663 28.0075 9.09811C28.9482 11.9946 29.3551 14.9828 29.1599 18.063C29.1459 18.2791 29.2518 18.3946 29.3724 18.5282C32.1252 21.5771 33.5112 25.1895 33.5373 29.3628C33.5391 29.6263 33.4918 29.8722 33.2831 30.0569C33.0289 30.2813 32.691 30.2699 32.3945 30.049C31.1173 29.0982 29.8395 28.1491 28.5022 27.1556ZM19.9068 10.3313C18.6253 11.6098 18.5893 13.6766 19.8265 14.9168C21.0626 16.1558 23.1322 16.1246 24.4131 14.8478C25.6935 13.5705 25.7301 11.4997 24.4941 10.2606C23.2569 9.02155 21.1878 9.0534 19.9068 10.3313Z" fill="#FFCC66"/>
</g>
<defs>
<clipPath id="clip0_825_679">
<rect width="31" height="30" fill="white" transform="translate(0 22.3441) scale(1.02008) rotate(-44.9577)"/>
</clipPath>
</defs>
</svg>
