<svg width="25" height="22" viewBox="0 0 25 22" fill="none" xmlns="http://www.w3.org/2000/svg">
<g clip-path="url(#clip0_82_112)">
<path d="M0 21.4894C0 16.1607 0 10.8325 0 5.5038C8.24721 5.5038 16.4951 5.50503 24.7423 5.49829C24.9641 5.49829 25 5.55523 25 5.74808C24.9941 10.8766 24.9954 16.0045 24.9954 21.1331C24.9954 21.749 24.7364 21.9939 24.0852 21.9939C16.3828 21.9939 8.68045 21.9914 0.977398 22C0.523933 22 0.194436 21.8818 0 21.4894ZM8.83639 13.0543C8.83639 14.4054 8.83508 15.7566 8.83704 17.1078C8.83834 17.7432 9.41643 18.0659 9.99191 17.7432C12.4028 16.3921 14.8104 15.0348 17.2193 13.68C17.3772 13.5912 17.5025 13.4761 17.571 13.3132C17.7139 12.9747 17.5762 12.6441 17.1899 12.4261C14.796 11.078 12.4021 9.72993 10.0056 8.3855C9.41643 8.05491 8.83834 8.37387 8.83704 9.02343C8.83508 10.3672 8.83639 11.7105 8.83639 13.0543Z" fill="#FFCC66"/>
<path d="M0 0.511219C0.193783 0.117564 0.523933 -0.00487953 0.978051 1.82035e-05C2.51462 0.0183847 4.05118 0.00675259 5.5884 0.00675259C5.61123 0.0765453 5.54794 0.0857285 5.51597 0.108381C3.73669 1.35179 1.95675 2.59459 0.174862 3.83494C0.127231 3.868 0.0874308 3.94881 0 3.90045C0 2.77091 0 1.64076 0 0.511219Z" fill="#FFCC66"/>
<path d="M13.9619 4.12938C15.9187 2.75251 17.816 1.41788 19.7128 0.0826325C19.7721 0.0410017 19.827 0.00549316 19.9079 0.00549316C21.0105 0.00732981 22.1132 0.0067176 23.2863 0.0067176C22.9595 0.235074 22.6848 0.426698 22.4101 0.618322C20.788 1.75092 19.1647 2.8823 17.5446 4.01735C17.4357 4.09388 17.33 4.13244 17.191 4.13183C16.1992 4.12632 15.2075 4.12877 14.2157 4.12877C14.1544 4.12938 14.0924 4.12938 13.9619 4.12938Z" fill="#FFCC66"/>
<path d="M2.19922 4.12939C2.83538 3.68553 3.41738 3.27902 4.00003 2.87251C5.32259 1.94929 6.64579 1.02668 7.9677 0.102844C8.04665 0.0477444 8.12103 0.00427698 8.22934 0.0048892C9.302 0.0085625 10.3747 0.00733807 11.4584 0.00733807C11.446 0.0905995 11.3716 0.113252 11.3207 0.14876C9.48991 1.43931 7.65712 2.72864 5.82564 4.01858C5.7343 4.08286 5.64817 4.13368 5.52094 4.13307C4.46394 4.12756 3.40759 4.13 2.35059 4.13C2.32188 4.12939 2.29383 4.12939 2.19922 4.12939Z" fill="#FFCC66"/>
<path d="M8.10449 4.12939C10.0619 2.75191 11.9599 1.41727 13.8573 0.0801936C13.9252 0.0324407 13.9911 0.00489094 14.0785 0.00550316C15.144 0.00795202 16.2095 0.00733981 17.2743 0.00856424C17.2873 0.00856424 17.2997 0.0195841 17.333 0.0348895C17.2404 0.102233 17.1555 0.165904 17.0688 0.227126C15.2817 1.48523 13.4932 2.74211 11.7081 4.00266C11.5861 4.08899 11.4673 4.13368 11.3107 4.13245C10.3346 4.12633 9.35919 4.12939 8.3831 4.12939C8.31328 4.12939 8.24347 4.12939 8.10449 4.12939Z" fill="#FFCC66"/>
<path d="M24.9421 0.560181C25.0093 0.637932 24.9943 0.70099 24.9943 0.759151C24.9956 1.82747 24.993 2.8964 24.9982 3.96472C24.9989 4.08777 24.9734 4.13308 24.8286 4.13246C23.2013 4.12757 21.5747 4.1294 19.9475 4.12879C19.9266 4.12879 19.9064 4.12022 19.8516 4.10859C21.561 2.91721 23.2464 1.74237 24.9421 0.560181Z" fill="#FFCC66"/>
<path d="M10.3125 10.1586C12.0337 11.1277 13.7327 12.084 15.4696 13.0617C13.7373 14.037 12.0344 14.9957 10.3125 15.9654C10.3125 14.018 10.3125 12.103 10.3125 10.1586Z" fill="#FFCC66"/>
</g>
<defs>
<clipPath id="clip0_82_112">
<rect width="25" height="22" fill="white"/>
</clipPath>
</defs>
</svg>
