<svg width="118" height="57" viewBox="0 0 118 57" fill="none" xmlns="http://www.w3.org/2000/svg">
<path d="M0 6.82469C2.5421 6.81462 5.08419 6.81462 7.62629 6.78947C8.23171 6.78276 8.44708 7.16518 8.65737 7.61133C10.9027 12.3497 13.1531 17.0846 15.4035 21.8196C15.5697 22.1685 15.7562 22.5089 15.9971 22.9752C17.1909 20.4627 18.3323 18.0675 19.4651 15.6673C20.7387 12.9702 22.0157 10.2732 23.257 7.56269C23.5267 6.97229 23.8675 6.76263 24.5357 6.77605C26.9065 6.82301 29.279 6.7945 31.6634 6.7945C31.7923 7.19704 31.5057 7.44528 31.3649 7.71868C30.3678 9.65258 29.3621 11.5815 28.3328 13.5003C28.0462 14.0336 28.1021 14.2098 28.7567 14.1796C30.5323 14.1007 32.3112 14.2584 34.0885 14.0504C35.0857 13.933 35.4486 14.2953 35.3977 15.3C35.1637 20.045 35.3434 24.7934 35.3027 29.5401C35.296 30.372 35.3553 31.2224 35.5266 32.0342C36.1948 35.1758 38.8081 37.0594 42.0811 36.8262C45.5983 36.5763 47.708 34.5032 47.9505 30.9842C48.0658 29.317 48.1048 27.6465 48.0777 25.9708C48.02 22.3395 48.0777 18.7082 48.0454 15.0769C48.0387 14.3305 48.293 14.1477 49.0273 14.1511C52.6717 14.1729 56.3145 14.1427 59.9589 14.1091C60.6745 14.1024 60.9849 14.4446 61.2189 15.0769C63.4048 20.9826 65.6196 26.8783 67.826 32.7773C67.9328 33.0607 68.0549 33.3391 68.2058 33.7081C68.9554 32.3563 69.3217 30.9574 69.8355 29.6206C71.6637 24.8605 73.4732 20.0937 75.2403 15.3101C75.5489 14.4764 75.9407 14.1125 76.8819 14.1494C78.7439 14.2249 80.611 14.146 82.4748 14.1846C83.2091 14.1997 83.4618 13.9582 83.4499 13.2218C83.4126 10.7076 83.4347 8.19335 83.4364 5.67911C83.4364 4.62577 83.4431 4.62074 84.5387 4.61906C86.2617 4.61739 87.9847 4.61739 89.7077 4.61906C90.737 4.62074 90.7879 4.661 90.7845 5.72272C90.7693 10.8619 90.7472 16.0011 90.7303 21.1403C90.7252 22.5643 90.7286 23.99 90.732 25.414C90.732 25.5448 90.6913 25.6991 90.8948 25.7796C91.2254 25.6807 91.3645 25.3503 91.5646 25.102C94.2339 21.7793 96.9066 18.46 99.5436 15.1138C100.076 14.4379 100.646 14.146 101.536 14.1527C106.339 14.188 111.142 14.1661 115.946 14.136C116.648 14.1309 116.919 14.411 116.896 15.0618C116.875 15.6187 116.841 16.1772 116.841 16.7341C116.838 25.0316 116.83 33.3274 116.855 41.6249C116.857 42.4199 116.643 42.6917 115.812 42.685C111.036 42.6514 106.261 42.6564 101.485 42.6816C100.761 42.685 100.264 42.4384 99.8252 41.8899C97.0965 38.4733 94.3492 35.0701 91.607 31.6619C91.5188 31.5528 91.4425 31.4321 91.3408 31.3381C91.1898 31.1956 91.1101 30.8853 90.832 31.0027C90.6099 31.0966 90.771 31.3532 90.7303 31.531C90.7184 31.5847 90.7286 31.6417 90.7286 31.6988C90.7472 34.9946 90.7642 38.2888 90.7879 41.5847C90.7947 42.5944 90.7286 42.6682 89.6924 42.6699C87.9965 42.6715 86.3024 42.6715 84.6065 42.6699C83.4703 42.6682 83.4381 42.6363 83.4381 41.4723C83.4381 32.9232 83.4381 24.3758 83.4381 15.8267C83.4381 15.5264 83.4381 15.2262 83.4381 14.879C83.0819 15.0266 83.0633 15.3335 82.9666 15.5616C77.3618 28.7166 71.7671 41.8765 66.1657 55.0331C66.008 55.4021 65.796 55.7493 65.6095 56.1066C63.1233 56.1066 60.6355 56.1066 58.1494 56.1066C57.9628 55.6671 58.1969 55.2998 58.3631 54.9241C60.1471 50.8986 61.9278 46.8731 63.7254 42.8527C64.0306 42.17 64.034 41.5427 63.7406 40.845C61.1494 34.681 58.5801 28.5069 56.0024 22.3362C55.8803 22.0427 55.8142 21.7122 55.4377 21.3852C55.4377 21.7709 55.4377 22.0343 55.4377 22.2976C55.4377 28.7199 55.4394 35.1422 55.436 41.5645C55.436 42.5524 55.319 42.6665 54.3133 42.6682C52.5361 42.6715 50.7588 42.6481 48.9832 42.6782C48.2303 42.6917 47.9827 42.3864 48.0319 41.6685C48.0827 40.9137 48.0437 40.1539 48.0437 39.3958C47.9657 39.3606 47.8877 39.3237 47.8097 39.2885C47.6215 39.5266 47.4621 39.7933 47.2416 39.9979C44.4129 42.6296 41.0364 43.6209 37.2598 42.9214C31.6685 41.8866 28.0478 37.3764 28.0054 31.5579C27.9664 26.1973 27.98 20.8367 27.9715 15.4744C27.9715 15.1826 27.9715 14.8907 27.9715 14.359C27.7155 14.7448 27.5832 14.9109 27.4848 15.097C25.0004 19.8404 22.5244 24.5888 20.0315 29.3288C19.7093 29.941 19.5702 30.5616 19.5736 31.2493C19.5906 34.7112 19.5635 38.1747 19.594 41.6367C19.6008 42.4384 19.3413 42.7118 18.5154 42.685C16.7127 42.6279 14.9049 42.6564 13.1005 42.6749C12.49 42.6816 12.2255 42.4384 12.2272 41.8329C12.2373 38.5102 12.2085 35.1875 12.2475 31.8648C12.2611 30.7746 12.0525 29.7682 11.5488 28.8122C7.81792 21.7273 4.08194 14.6458 0.34426 7.56605C0.261163 7.41006 0.259467 7.17356 0 7.16014C0 7.04777 0 6.93707 0 6.82469ZM109.447 41.962C109.447 32.7957 109.447 23.8642 109.447 14.9528C109.263 14.8907 109.196 14.9964 109.127 15.0752C105.328 19.3473 101.536 23.6243 97.7274 27.888C97.3373 28.3241 97.395 28.6059 97.7698 29.0151C99.8489 31.2912 101.899 33.5907 103.961 35.8819C105.74 37.8561 107.521 39.8269 109.447 41.962Z" fill="#060606"/>
<path d="M118 11.5665C117.734 11.7091 117.522 11.959 117.188 11.9624C115.251 11.9842 113.299 12.2291 111.386 11.7829C108.524 11.1153 106.653 8.75876 106.614 5.87384C106.577 3.11639 108.313 0.95605 111.21 0.149278C111.278 0.130828 111.328 0.0519957 111.388 0C112.066 0 112.745 0 113.423 0C113.53 0.166051 113.718 0.13586 113.872 0.189533C116.582 1.11036 118.039 4.10095 116.999 6.60345C116.387 8.07611 114.564 9.24349 113.036 9.14118C111.432 9.03383 110.109 7.99224 109.67 6.51456C109.468 5.83358 109.449 5.18112 110.213 4.8876C111.023 4.57562 111.364 5.12074 111.617 5.80004C111.893 6.53636 112.322 7.15025 113.26 7.11335C114.147 7.07812 114.825 6.57326 115.156 5.68598C115.529 4.68297 115.22 3.82085 114.561 3.05097C113.801 2.16201 112.816 1.82656 111.674 2.05467C110.206 2.34819 108.854 3.8611 108.668 5.34046C108.357 7.80271 110.318 9.97143 112.926 10.0251C114.169 10.0503 115.412 10.0419 116.655 10.0234C117.15 10.0167 117.598 10.0989 117.998 10.3924C118 10.7849 118 11.1757 118 11.5665Z" fill="#EFB719"/>
</svg>
