<svg width="29" height="24" viewBox="0 0 29 24" fill="none" xmlns="http://www.w3.org/2000/svg">
<g clip-path="url(#clip0_467_53)">
<path d="M0 22.0649C0 19.0466 0 16.0283 0 13.0099C0.271714 12.5763 0.603221 12.45 0.947594 12.6973C1.48648 13.0836 2.07911 13.2008 2.73152 13.1986C5.75065 13.1866 8.77054 13.1963 11.7897 13.1873C12.0281 13.1866 12.0917 13.2512 12.0826 13.4812C12.0644 13.9396 12.075 14.3996 12.078 14.8581C12.0811 15.3729 12.3036 15.5954 12.8167 15.5961C13.9399 15.5976 15.0624 15.5976 16.1855 15.5961C16.6843 15.5954 16.9144 15.3721 16.9189 14.8814C16.9235 14.4222 16.9371 13.9622 16.9129 13.5045C16.8993 13.2392 16.9878 13.1866 17.2398 13.1873C20.3067 13.1963 23.3735 13.1896 26.4403 13.1963C26.9958 13.1978 27.5044 13.0761 27.9563 12.7522C28.1788 12.5928 28.4096 12.5214 28.667 12.653C28.9372 12.7912 28.9992 13.0302 28.9992 13.3128C28.9955 16.0486 28.9962 18.785 28.9977 21.5208C28.9977 21.7568 28.9705 21.9867 28.9114 22.2152C28.6836 23.1051 27.8117 24.0025 26.407 23.9995C18.4713 23.9814 10.5355 23.9912 2.59983 23.9904C2.50522 23.9904 2.41137 23.9889 2.31676 23.9852C1.29045 23.9438 0.416275 23.2779 0.107475 22.3069C0.0817413 22.2242 0.0991492 22.1175 0 22.0649Z" fill="#FFCC66"/>
<path d="M0 10.0862C0 8.56798 0 7.04905 0 5.53088C0.0862825 5.50833 0.0673609 5.4249 0.0855256 5.36929C0.443522 4.24944 1.30256 3.60985 2.48857 3.6061C4.38603 3.60008 6.28273 3.60008 8.18019 3.60985C8.40649 3.61136 8.47158 3.54973 8.45795 3.32952C8.43903 3.02137 8.44584 2.71097 8.45568 2.40207C8.49807 1.06653 9.47896 0.0278533 10.783 0.0158281C13.2656 -0.0074707 15.7481 -0.00296126 18.2298 0.0158281C19.2887 0.0240954 20.1757 0.762141 20.4527 1.77902C20.5912 2.28633 20.5443 2.80341 20.5383 3.31674C20.536 3.54747 20.5943 3.61211 20.8327 3.61061C22.7203 3.60008 24.6079 3.60008 26.4963 3.6061C27.9752 3.61136 28.9939 4.63575 28.9977 6.10658C29 7.2129 28.9985 8.31846 28.9985 9.42478C28.9977 10.9963 27.9843 11.9982 26.3941 11.9982C23.3735 11.9982 20.3528 11.9982 17.3329 11.9982C16.9227 11.9982 16.9227 11.9982 16.9212 11.5893C16.9197 10.9918 16.7282 10.8032 16.1197 10.8032C15.1191 10.8024 14.1178 10.8302 13.1187 10.7949C12.1764 10.7618 12.0198 11.076 12.0811 11.802C12.0947 11.9658 12.0341 12.0012 11.8775 12.0012C8.70621 11.9967 5.53419 12.0034 2.36293 11.9929C1.33208 11.9891 0.430656 11.2985 0.11353 10.3252C0.0855256 10.2417 0.10369 10.1343 0 10.0862ZM14.5182 3.60459C15.6398 3.60459 16.7615 3.59933 17.8824 3.60985C18.0845 3.61136 18.1405 3.55273 18.1276 3.35958C18.111 3.1078 18.1155 2.85452 18.1269 2.60199C18.1337 2.45093 18.0996 2.3908 17.9293 2.39155C15.6391 2.39756 13.3496 2.39681 11.0593 2.3923C10.9064 2.3923 10.8655 2.44116 10.8723 2.58471C10.8822 2.81845 10.8905 3.05369 10.8708 3.28593C10.8504 3.52944 10.9102 3.61737 11.1834 3.61286C12.2937 3.59407 13.4063 3.60459 14.5182 3.60459Z" fill="#FFCC66"/>
</g>
<defs>
<clipPath id="clip0_467_53">
<rect width="29" height="24" fill="white"/>
</clipPath>
</defs>
</svg>
