<svg width="37" height="37" viewBox="0 0 37 37" fill="none" xmlns="http://www.w3.org/2000/svg">
<circle cx="18.5" cy="18.5" r="18.5" fill="#FFCC66"/>
<path d="M24.2739 15.8736C25.1717 15.2566 26.024 14.6713 26.8764 14.0849C27.6325 13.5648 28.3898 13.047 29.1429 12.5234C29.3324 12.3919 29.5224 12.3173 29.743 12.4324C29.9546 12.5433 30 12.7353 30 12.9531C29.9988 16.6497 29.9988 20.3462 30 24.0422C30 24.2682 29.9534 24.4672 29.7268 24.5758C29.5123 24.6786 29.3288 24.6052 29.1465 24.479C27.6002 23.4112 26.0509 22.3469 24.5022 21.282C24.4419 21.2403 24.3803 21.201 24.3116 21.1558C24.2458 21.2297 24.2763 21.3125 24.2757 21.3865C24.2733 22.5647 24.2745 23.7434 24.2739 24.9216C24.2733 25.6296 23.8932 26 23.167 26C18.8144 26 14.4619 26 10.11 26C9.37477 26.0006 9 25.6302 9 24.9028C9 20.6356 9 16.3685 9 12.1007C9 11.3604 9.36998 11 10.1285 11C14.4661 11 18.8037 11 23.1413 11C23.9099 11 24.2739 11.3593 24.2739 12.1183C24.2739 13.2748 24.2739 14.4312 24.2739 15.5877C24.2739 15.6664 24.2739 15.745 24.2739 15.8736ZM12.8182 18.5006C12.9383 18.5006 13.0106 18.5006 13.0824 18.5006C13.8797 18.5006 14.6771 18.507 15.4744 18.4959C15.6573 18.4935 15.6914 18.5493 15.6902 18.7154C15.683 19.8279 15.6896 20.9409 15.683 22.0533C15.6824 22.2013 15.7117 22.2535 15.8749 22.25C16.374 22.2388 16.8737 22.2383 17.3727 22.25C17.5479 22.2541 17.5933 22.2083 17.5921 22.0357C17.5837 20.9303 17.5933 19.8249 17.5825 18.7201C17.5807 18.5305 17.6369 18.4947 17.8174 18.4971C18.622 18.507 19.4271 18.5023 20.2322 18.4994C20.2926 18.4994 20.3643 18.5317 20.4199 18.466C19.1952 17.2631 17.9722 16.0638 16.7523 14.8604C16.6657 14.7752 16.619 14.7641 16.5264 14.8557C15.3071 16.0591 14.0829 17.2584 12.8182 18.5006Z" fill="#333333"/>
</svg>
