<svg width="43" height="39" viewBox="0 0 43 39" fill="none" xmlns="http://www.w3.org/2000/svg">
<g filter="url(#filter0_d_82_131)">
<path d="M21.6123 32.4185C21.4002 32.3849 21.2103 32.4237 21.0149 32.5213C17.2874 34.3682 13.5566 36.2099 9.82572 38.0495C9.60573 38.1575 9.39132 38.2823 9.13114 38.3044C8.22215 38.383 7.54879 37.7128 7.7029 36.8465C8.03455 34.9828 8.38296 33.1212 8.72466 31.2585C9.12332 29.0885 9.51863 26.9175 9.92622 24.7486C9.96977 24.5178 9.82237 24.414 9.68501 24.2892C7.72076 22.4926 5.75651 20.696 3.79226 18.8994C2.76491 17.9597 1.74203 17.0168 0.709095 16.0833C0.427691 15.8285 0.17867 15.5558 0 15.2296C0 15.0199 0 14.8111 0 14.6014C0.366273 13.6858 1.24845 13.6942 2.06475 13.582C4.28696 13.2778 6.50916 12.9747 8.73136 12.6695C10.5013 12.4272 12.2701 12.1787 14.0412 11.9469C14.2679 11.9175 14.3717 11.821 14.4667 11.6396C16.3717 8.00966 18.2835 4.38394 20.1897 0.756128C20.4554 0.251654 20.853 -0.0378163 21.475 0.00413582C21.4437 0.195018 21.5308 0.363876 21.5945 0.534831C22.3192 2.451 23.0473 4.36611 23.772 6.28228C24.7245 8.80045 25.6771 11.3186 26.6218 13.84C26.6888 14.0183 26.7681 14.121 26.9847 14.1494C27.8613 14.2637 28.7334 14.4 29.6089 14.5217C31.045 14.7199 32.4821 14.9118 33.9193 15.109C35.3554 15.3051 36.7926 15.5034 38.2286 15.6995C38.3358 15.7142 38.4787 15.6722 38.5335 15.7781C38.6072 15.9208 38.4385 15.9774 38.3593 16.0498C37.2805 17.0315 36.2387 18.0467 35.1432 19.0127C33.5921 20.3803 32.1047 21.8119 30.5704 23.1963C30.213 23.5194 30.0433 23.8046 30.1472 24.3091C30.538 26.2221 30.8618 28.1467 31.2125 30.0671C31.4905 31.5899 31.7708 33.1128 32.0556 34.6356C32.0947 34.8433 32.0053 34.8632 31.8278 34.8118C31.7217 34.7804 31.6122 34.7615 31.505 34.7363C28.4688 34.0158 25.4336 33.2942 22.3962 32.581C22.2544 32.5475 22.0847 32.4069 21.9429 32.5957C21.8982 32.5768 21.8535 32.559 21.8077 32.5401C21.7865 32.4373 21.7028 32.4216 21.6123 32.4185Z" fill="#FECF6A" stroke="#FECF6B" stroke-miterlimit="10"/>
<path d="M21.9786 32.5858C22.1228 32.397 22.2929 32.5375 22.436 32.5711C25.5001 33.2852 28.5632 34.0066 31.6251 34.726C31.7333 34.7512 31.8437 34.7711 31.9507 34.8015C32.1287 34.8539 32.2199 34.834 32.1805 34.6253C31.8932 33.1038 31.6105 31.5801 31.33 30.0575C30.9762 28.1375 30.6495 26.2133 30.2553 24.3006C30.1516 23.7963 30.3217 23.511 30.6822 23.1881C32.2301 21.8039 33.7306 20.3736 35.2954 19.0051C36.4005 18.0383 37.4527 17.0243 38.5398 16.0428C38.6198 15.9704 38.7899 15.9128 38.7156 15.7712C38.6604 15.6653 38.5162 15.7072 38.408 15.6925C36.9582 15.4965 35.5094 15.2983 34.0607 15.1022C32.6108 14.9061 31.161 14.7142 29.7123 14.515C28.8291 14.3944 27.9492 14.257 27.0649 14.1427C26.8452 14.1144 26.7652 14.0116 26.6988 13.8334C25.7446 11.3135 24.7848 8.79475 23.8238 6.27702C23.0927 4.3612 22.3571 2.44642 21.6271 0.5306C21.5618 0.359676 21.4739 0.190848 21.5066 0C22.1047 0.0167779 22.4337 0.357578 22.6782 0.820018C24.1652 3.63136 25.6567 6.43955 27.1471 9.24985C27.5628 10.0342 27.9875 10.8144 28.3931 11.604C28.499 11.8106 28.6184 11.9123 28.8831 11.9469C33.1302 12.51 37.3761 13.0909 41.622 13.6624C42.2303 13.7442 42.7305 13.9456 42.9333 14.5433C43.1305 15.1231 42.8646 15.5489 42.4331 15.939C39.3723 18.7094 36.3172 21.4851 33.2541 24.2535C33.0434 24.4433 32.968 24.6068 33.0232 24.8963C33.7689 28.8558 34.4944 32.8175 35.2233 36.7792C35.3179 37.2941 35.194 37.745 34.7197 38.0648C34.2815 38.3605 33.805 38.3878 33.3296 38.155C29.5658 36.3167 25.8054 34.4733 22.0439 32.6309C22.0203 32.6214 22 32.6015 21.9786 32.5858Z" fill="#FEB821"/>
</g>
<defs>
<filter id="filter0_d_82_131" x="-4.53429" y="-0.503687" width="51.5638" height="47.3791" filterUnits="userSpaceOnUse" color-interpolation-filters="sRGB">
<feFlood flood-opacity="0" result="BackgroundImageFix"/>
<feColorMatrix in="SourceAlpha" type="matrix" values="0 0 0 0 0 0 0 0 0 0 0 0 0 0 0 0 0 0 127 0" result="hardAlpha"/>
<feOffset dy="4"/>
<feGaussianBlur stdDeviation="2"/>
<feComposite in2="hardAlpha" operator="out"/>
<feColorMatrix type="matrix" values="0 0 0 0 0 0 0 0 0 0 0 0 0 0 0 0 0 0 0.22 0"/>
<feBlend mode="normal" in2="BackgroundImageFix" result="effect1_dropShadow_82_131"/>
<feBlend mode="normal" in="SourceGraphic" in2="effect1_dropShadow_82_131" result="shape"/>
</filter>
</defs>
</svg>
