<svg width="21" height="20" viewBox="0 0 21 20" fill="none" xmlns="http://www.w3.org/2000/svg">
<g clip-path="url(#clip0_407_390)">
<path d="M21 10.1702C20.8943 10.3526 20.8401 10.56 20.6956 10.7251C20.2787 11.2012 19.5585 11.2783 19.0673 10.8836C18.9764 10.8103 18.8925 10.7272 18.8102 10.6431C16.2434 8.02017 13.6765 5.39618 11.1102 2.77273C10.6779 2.33078 10.3162 2.33241 9.87962 2.77816C7.29844 5.41627 4.71725 8.05492 2.13554 10.693C1.66073 11.1784 1.12112 11.2745 0.595326 10.9705C-0.0165101 10.617 -0.192307 9.76678 0.230455 9.19236C0.30003 9.09789 0.379165 9.00939 0.460956 8.92578C3.04161 6.28659 5.62226 3.64848 8.20398 1.01037C9.52431 -0.338273 11.4735 -0.336101 12.7959 1.01471C13.4922 1.72596 14.188 2.43774 14.8832 3.14952C14.9294 3.19676 14.9698 3.24942 15.0537 3.34715C15.0537 2.87534 15.0489 2.47357 15.0547 2.0718C15.0632 1.49521 15.3819 1.03155 15.8732 0.866494C16.6858 0.592856 17.4601 1.19008 17.4649 2.10492C17.4713 3.26463 17.4686 4.42487 17.4633 5.58458C17.4628 5.72791 17.4994 5.8289 17.6003 5.93097C18.5277 6.87078 19.4459 7.81929 20.3743 8.75747C20.6473 9.03382 20.9028 9.31452 20.9989 9.70869C21 9.86288 21 10.0165 21 10.1702Z" fill="white"/>
<path d="M18.0888 15.2337C18.0888 16.0584 18.0909 16.8831 18.0883 17.7073C18.0846 19.0147 17.1679 19.9778 15.8953 19.993C14.8018 20.0055 13.7077 19.9919 12.6142 20.0001C12.4617 20.0012 12.4564 19.9355 12.4564 19.816C12.4591 18.1319 12.4548 16.4477 12.4628 14.7635C12.4639 14.5697 12.4304 14.5051 12.2238 14.5072C11.0617 14.5192 9.89966 14.5159 8.7376 14.5094C8.5788 14.5083 8.53312 14.5474 8.53365 14.7152C8.54003 16.3994 8.53365 18.0835 8.54268 19.7677C8.54374 19.967 8.48426 20.0017 8.30634 20.0001C7.19207 19.9898 6.07728 20.0115 4.96408 19.9843C3.8461 19.9572 2.92038 18.981 2.91294 17.8398C2.90126 16.0926 2.91028 14.3454 2.9071 12.5988C2.90657 12.3703 3.01173 12.2052 3.16256 12.051C4.38729 10.8028 5.6099 9.55189 6.83251 8.30206C7.88145 7.22977 8.93039 6.15748 9.97986 5.08573C10.35 4.7073 10.6464 4.70622 11.0139 5.08193C13.2812 7.39916 15.5475 9.71748 17.8179 12.0315C18.0107 12.228 18.0968 12.4403 18.0931 12.7194C18.0814 13.5566 18.0888 14.3954 18.0888 15.2337Z" fill="white"/>
</g>
<defs>
<clipPath id="clip0_407_390">
<rect width="21" height="20" fill="white"/>
</clipPath>
</defs>
</svg>
