<svg width="126" height="20" viewBox="0 0 126 20" fill="none" xmlns="http://www.w3.org/2000/svg">
<path d="M49.7899 2.58148V0.245177H50.4066V2.56583C50.4066 3.53581 51.0531 3.97908 52.1825 3.97908C53.3193 3.97908 53.9657 3.53581 53.9657 2.56583V0.245177H54.5676V2.58148C54.5676 3.75484 53.6685 4.35977 52.1825 4.35977C50.6964 4.35977 49.7899 3.75484 49.7899 2.58148Z" fill="#263238"/>
<path d="M60.7198 2.78996C60.7198 3.72343 59.791 4.35444 58.5427 4.35444C57.8443 4.35444 57.2499 4.14584 56.8784 3.7495V5.46H56.2914V1.26198H56.8561V1.86691C57.2127 1.46014 57.822 1.23591 58.5427 1.23591C59.791 1.23591 60.7198 1.86691 60.7198 2.78996ZM60.1328 2.78996C60.1328 2.08072 59.4269 1.59574 58.5056 1.59574C57.5768 1.59574 56.8784 2.08072 56.8784 2.78996C56.8784 3.50962 57.5768 3.98417 58.5056 3.98417C59.4269 3.98939 60.1328 3.50962 60.1328 2.78996Z" fill="#263238"/>
<path d="M61.9233 0H62.5103V4.3284H61.9233V0Z" fill="#263238"/>
<path d="M63.7215 2.78996C63.7215 1.88256 64.6651 1.23591 65.9505 1.23591C67.2285 1.23591 68.1722 1.88256 68.1722 2.78996C68.1722 3.70257 67.236 4.35444 65.9505 4.35444C64.6651 4.35444 63.7215 3.70257 63.7215 2.78996ZM67.5629 2.78996C67.5629 2.07029 66.8719 1.59574 65.9431 1.59574C65.0143 1.59574 64.3159 2.07551 64.3159 2.78996C64.3159 3.50962 65.0143 3.98417 65.9431 3.98417C66.8719 3.98939 67.5629 3.50962 67.5629 2.78996Z" fill="#263238"/>
<path d="M72.6379 2.425V4.32324H72.0732V3.84346C71.8057 4.15636 71.293 4.34931 70.5723 4.34931C69.5841 4.34931 68.9748 3.98948 68.9748 3.45755C68.9748 2.98299 69.4058 2.58666 70.6615 2.58666H72.0509V2.39892C72.0509 1.87221 71.6274 1.5906 70.8101 1.5906C70.2454 1.5906 69.7104 1.73141 69.3537 1.95044L69.0863 1.64276C69.5246 1.38201 70.1711 1.23077 70.8621 1.23077C71.9989 1.23599 72.6379 1.63233 72.6379 2.425ZM72.0509 3.4054V2.90477H70.6838C69.8367 2.90477 69.5618 3.13945 69.5618 3.45234C69.5618 3.80696 69.9705 4.0312 70.6689 4.0312C71.3228 4.02599 71.8131 3.80695 72.0509 3.4054Z" fill="#263238"/>
<path d="M78.2476 0V4.3284H77.6829V3.72347C77.3262 4.13545 76.717 4.35969 75.9962 4.35969C74.748 4.35969 73.8192 3.72347 73.8192 2.79521C73.8192 1.86695 74.748 1.24116 75.9962 1.24116C76.6947 1.24116 77.2965 1.44976 77.6606 1.84609V0.00522003H78.2476V0ZM77.6606 2.79C77.6606 2.07034 76.9622 1.59578 76.0408 1.59578C75.112 1.59578 74.4136 2.07555 74.4136 2.79C74.4136 3.50966 75.112 3.98422 76.0408 3.98422C76.9622 3.98943 77.6606 3.50966 77.6606 2.79Z" fill="#263238"/>
<path d="M79.5035 4.03638C79.5035 3.85386 79.7041 3.72348 79.9418 3.72348C80.1796 3.72348 80.3877 3.85907 80.3877 4.03638C80.3877 4.21369 80.1796 4.35971 79.9418 4.35971C79.7041 4.35449 79.5035 4.21369 79.5035 4.03638Z" fill="#263238"/>
<path d="M81.2644 4.03638C81.2644 3.85386 81.465 3.72348 81.7028 3.72348C81.9406 3.72348 82.1486 3.85907 82.1486 4.03638C82.1486 4.21369 81.9406 4.35971 81.7028 4.35971C81.465 4.35449 81.2644 4.21369 81.2644 4.03638Z" fill="#263238"/>
<path d="M83.0252 4.03638C83.0252 3.85386 83.2258 3.72348 83.4635 3.72348C83.7013 3.72348 83.9093 3.85907 83.9093 4.03638C83.9093 4.21369 83.7013 4.35971 83.4635 4.35971C83.2258 4.35449 83.0252 4.21369 83.0252 4.03638Z" fill="#263238"/>
<path d="M120.867 19.2274H4.97831C2.25885 19.2274 0.0520664 17.6786 0.0520664 15.7699V14.7582C0.0520664 12.8496 2.25885 11.3007 4.97831 11.3007H120.86C123.579 11.3007 125.786 12.8496 125.786 14.7582V15.7699C125.786 17.6786 123.579 19.2274 120.867 19.2274Z" fill="#E0E0E0"/>
<path d="M58.0004 19.2274H4.97831C2.25885 19.2274 0.0520664 17.6786 0.0520664 15.7699V14.7582C0.0520664 12.8496 2.25885 11.3007 4.97831 11.3007H58.0004C60.7198 11.3007 62.9266 12.8496 62.9266 14.7582V15.7699C62.9192 17.6786 60.7198 19.2274 58.0004 19.2274Z" fill="#FFCC66"/>
<g opacity="0.3">
<path d="M9.55534 11.306L2.86072 18.7581L3.90837 19.0867C4.20558 19.1806 4.52509 19.2275 4.84459 19.2275H6.96963L14.2364 11.306H9.55534Z" fill="white"/>
</g>
<g opacity="0.3">
<path d="M21.5106 11.306L14.3999 19.2275H18.9398L26.2065 11.306H21.5106Z" fill="white"/>
</g>
<g opacity="0.3">
<path d="M33.4733 11.306L26.3551 19.2275H30.9024L38.1618 11.306H33.4733Z" fill="white"/>
</g>
<g opacity="0.3">
<path d="M45.4284 11.306L38.3177 19.2275H42.8576L50.1243 11.306H45.4284Z" fill="white"/>
</g>
<g opacity="0.3">
<path d="M57.391 11.306L50.2803 19.2275H54.8201L60.5414 12.9852L61.2176 12.3073C60.3408 11.6293 58.9959 11.3529 57.391 11.306Z" fill="white"/>
</g>
<path d="M120.971 19.2275C120.971 19.217 121.202 19.2222 121.655 19.1753C122.101 19.1336 122.77 19.0241 123.52 18.6955C124.271 18.3826 125.088 17.8194 125.549 16.9798C125.779 16.5626 125.883 16.0776 125.868 15.5613C125.853 15.0399 125.92 14.4766 125.69 13.9186C125.296 12.8026 123.877 11.6866 121.871 11.4363C121.38 11.3633 120.86 11.379 120.325 11.379C119.79 11.379 119.248 11.379 118.69 11.3842C117.583 11.3842 116.432 11.3894 115.235 11.3894C110.465 11.3946 105.026 11.3998 99.0226 11.4103C74.9933 11.4207 41.8099 11.4363 5.15666 11.452C4.05698 11.4572 2.96474 11.7284 2.1177 12.2186C1.27065 12.7088 0.683662 13.4024 0.475616 14.1533C0.364163 14.5236 0.386457 14.9095 0.386457 15.311C0.386457 15.7126 0.379022 16.0881 0.497906 16.4635C0.720812 17.2041 1.33009 17.882 2.15484 18.3566C2.98703 18.8311 4.04956 19.0919 5.11208 19.1023C6.21918 19.1023 7.31885 19.1023 8.41852 19.1023C10.6179 19.1023 12.7949 19.1023 14.9571 19.1023C23.5985 19.1075 31.9352 19.1075 39.8781 19.1127C55.7565 19.1232 70.0596 19.1336 82.0743 19.144C94.0815 19.1649 103.793 19.1753 110.525 19.1857C113.876 19.1962 116.484 19.2066 118.259 19.2118C119.136 19.217 119.805 19.2222 120.273 19.2275C120.741 19.217 120.971 19.2275 120.971 19.2275C120.971 19.2275 120.741 19.2379 120.288 19.2431C119.827 19.2483 119.151 19.2483 118.274 19.2587C116.499 19.264 113.89 19.2744 110.539 19.2848C103.815 19.2952 94.0964 19.3109 82.0892 19.3265C70.0745 19.337 55.7713 19.3474 39.8929 19.3578C31.95 19.3578 23.6133 19.363 14.972 19.3682C12.8098 19.3682 10.6327 19.3682 8.43339 19.3682C7.33371 19.3682 6.22661 19.3682 5.1195 19.3682C3.96782 19.3578 2.81614 19.0762 1.91708 18.5652C1.01802 18.0489 0.364166 17.324 0.118968 16.5157C-0.00734526 16.1141 8.22453e-05 15.6969 8.22453e-05 15.3058C0.00751247 14.9147 -0.0222048 14.5027 0.0966787 14.0959C0.327016 13.2876 0.966014 12.5367 1.8725 12.0048C2.78642 11.478 3.96782 11.1808 5.15666 11.1756C41.8025 11.1912 74.9859 11.2069 99.0226 11.2173C105.026 11.2225 110.458 11.2329 115.235 11.2382C116.432 11.2382 117.576 11.2434 118.69 11.2434C119.248 11.2434 119.79 11.2434 120.325 11.2486C120.853 11.2538 121.388 11.2382 121.9 11.3164C123.981 11.5876 125.437 12.7453 125.831 13.8978C126.061 14.4819 125.987 15.0503 125.994 15.5718C126.002 16.0985 125.89 16.5939 125.645 17.0215C125.162 17.8768 124.315 18.4452 123.55 18.7581C122.784 19.0814 122.101 19.1805 121.648 19.217C121.209 19.2379 120.971 19.2275 120.971 19.2275Z" fill="#263238"/>
</svg>
