<svg width="23" height="23" viewBox="0 0 23 23" fill="none" xmlns="http://www.w3.org/2000/svg">
<g clip-path="url(#clip0_267_892)">
<path d="M22.8516 20.4652C22.9199 20.4677 22.9823 20.4804 23 20.5613C22.9502 20.5293 22.9013 20.4973 22.8516 20.4652Z" fill="black"/>
<path d="M0.494207 23C0.490833 22.9545 0.452882 22.9402 0.420835 22.925C0.121443 22.7841 0 22.5388 0 22.22C0 21.6213 0 21.0226 0 20.4247C0 16.7211 0 13.0183 0 9.31471C0 8.76912 0.126503 8.5777 0.62324 8.37953C2.7485 7.53036 4.87375 6.6812 6.99985 5.83287C7.05467 5.81095 7.10865 5.78987 7.18623 5.75867C7.18623 5.85143 7.18623 5.9231 7.18623 5.99394C7.18623 10.7449 7.18455 15.495 7.19214 20.2459C7.19214 20.434 7.12214 20.4989 6.96949 20.5596C4.95303 21.359 2.93825 22.1627 0.922631 22.9671C0.911668 22.9714 0.906607 22.9891 0.898174 23.0009C0.763237 23 0.629143 23 0.494207 23Z" fill="black"/>
<path d="M22.9958 5.48633C22.8558 5.77388 22.8313 6.09516 22.72 6.39284C22.2595 7.62063 21.5705 8.71771 20.8199 9.78107C20.1292 10.7593 19.3803 11.6919 18.5935 12.595C18.1929 13.0555 17.7383 13.0588 17.3419 12.6001C16.0845 11.1438 14.897 9.63603 13.9457 7.95709C13.5477 7.25465 13.2019 6.5286 13.0248 5.73256C12.8519 4.9576 12.9388 4.19614 13.1977 3.45997C13.8285 1.67225 15.0834 0.557455 16.9253 0.118115C18.8768 -0.347366 21.11 0.592029 22.1836 2.30301C22.591 2.95148 22.8575 3.64801 22.9511 4.40864C22.9553 4.44405 22.946 4.48537 22.9958 4.49802C22.9958 4.82774 22.9958 5.15661 22.9958 5.48633ZM17.9584 2.88317C16.7769 2.89161 15.7977 3.87991 15.8112 5.05036C15.8256 6.22587 16.7904 7.18719 17.9618 7.19141C19.1374 7.19562 20.1225 6.21153 20.1199 5.03518C20.1182 3.85714 19.1315 2.87474 17.9584 2.88317Z" fill="black"/>
<path d="M15.8096 23.0001C15.8096 19.697 15.8096 16.3931 15.8096 13.0369C15.9985 13.2503 16.152 13.4274 16.3088 13.6011C17.2483 14.6434 18.6989 14.6434 19.6274 13.5926C20.8166 12.246 21.9214 10.836 22.8609 9.30044C22.8912 9.25069 22.8862 9.14444 22.9958 9.16805C22.9958 12.7308 22.9958 16.2936 22.9958 19.8556C22.8162 20.1962 22.4949 20.332 22.1575 20.4644C20.7837 21.0049 19.4141 21.5547 18.0445 22.1045C17.3124 22.3988 16.5838 22.7007 15.8543 22.9992C15.8399 23.0001 15.8248 23.0001 15.8096 23.0001Z" fill="black"/>
<path d="M8.62921 5.76038C9.24064 6.00324 9.84111 6.24188 10.4424 6.48137C10.8928 6.66098 11.3423 6.84144 11.7926 7.02105C11.8829 7.05731 11.9579 7.09442 12.0009 7.20151C12.5601 8.58952 13.368 9.83418 14.2409 11.0392C14.332 11.1657 14.3758 11.2888 14.3758 11.4482C14.3716 15.1366 14.3725 18.8251 14.3725 22.5126C14.3725 22.586 14.3725 22.6585 14.3725 22.7648C14.0326 22.629 13.7163 22.5017 13.4001 22.376C11.8635 21.7621 10.3269 21.1466 8.78861 20.536C8.66969 20.4888 8.61993 20.4374 8.61993 20.2999C8.62415 15.4967 8.62331 10.6943 8.62331 5.89108C8.62331 5.85482 8.62668 5.81772 8.62921 5.76038Z" fill="black"/>
</g>
<defs>
<clipPath id="clip0_267_892">
<rect width="23" height="23" fill="white"/>
</clipPath>
</defs>
</svg>
