<svg width="24" height="24" viewBox="0 0 24 24" fill="none" xmlns="http://www.w3.org/2000/svg">
<path d="M8.8818e-06 12.0048C-0.00675063 6.44769 3.84542 1.57749 9.24251 0.319353C15.7009 -1.18605 22.1367 2.77174 23.6621 9.22325C24.3568 12.1612 23.973 14.9856 22.5565 17.6582C22.4596 17.8408 22.4453 17.9919 22.5099 18.1835C22.9696 19.5469 23.4142 20.9147 23.8754 22.2773C24.0496 22.7914 24.0181 23.2604 23.6207 23.6527C23.2324 24.0368 22.766 24.0668 22.2666 23.8985C20.8952 23.437 19.5215 22.9838 18.1515 22.5194C17.9781 22.4607 17.8436 22.469 17.6791 22.5577C10.991 26.1495 2.74362 22.7501 0.520491 15.4899C0.173503 14.3573 0.001511 13.2051 8.8818e-06 12.0048ZM20.8869 20.9012C20.5917 20.0121 20.3221 19.1606 20.0239 18.3188C19.8542 17.8401 19.9068 17.4192 20.1696 16.9848C21.4089 14.9345 21.8295 12.7211 21.4427 10.3544C20.5835 5.09636 15.4365 1.50534 10.2024 2.51245C4.86686 3.53985 1.43303 8.70692 2.56712 14.0018C3.9408 20.4142 11.2463 23.6024 16.8785 20.2361C17.3885 19.9309 17.8586 19.864 18.4167 20.073C19.2158 20.3729 20.036 20.6186 20.8869 20.9012Z" fill="white"/>
</svg>
