<svg width="34" height="22" viewBox="0 0 34 22" fill="none" xmlns="http://www.w3.org/2000/svg">
<g clip-path="url(#clip0_104_48)">
<path d="M0 11.8911C0.238085 11.3233 0.317151 10.7157 0.457515 10.1237C1.22685 6.88472 1.98286 3.64232 2.74331 0.400793C2.76019 0.327221 2.78684 0.256244 2.81971 0.14978C3.21237 0.445803 3.59438 0.733169 3.97638 1.0214C5.34093 2.05056 6.70281 3.08404 8.07269 4.1054C8.25125 4.2387 8.26813 4.32872 8.15087 4.51395C6.31104 7.41704 4.47742 10.3245 2.64825 13.2336C2.54431 13.3989 2.47413 13.4448 2.27958 13.334C1.52712 12.9056 0.76134 12.4996 0 12.0859C0 12.021 0 11.9561 0 11.8911Z" fill="#FFCC66"/>
<path d="M16.4028 4.82641C15.3013 5.39595 14.277 5.92221 13.2562 6.4554C12.7019 6.7445 12.5313 7.29153 12.8387 7.75547C12.9506 7.92512 13.1203 8.02899 13.2944 8.12247C14.6332 8.84089 16.0315 8.8885 17.4716 8.47476C17.9611 8.33454 18.4301 8.14498 18.8779 7.91128C19.0351 7.82905 19.1355 7.82645 19.2812 7.9433C21.8344 9.9791 24.3956 12.0054 26.9497 14.0395C27.5404 14.5095 27.631 15.2486 27.1886 15.7914C26.7551 16.3228 25.9938 16.3938 25.3763 15.9601C23.4921 14.6358 21.6078 13.3115 19.7227 11.9872C19.633 11.924 19.5433 11.86 19.4491 11.8054C19.3229 11.7319 19.2119 11.7725 19.1284 11.8773C19.0395 11.9898 19.0644 12.1032 19.1613 12.1967C19.2234 12.2564 19.3007 12.3023 19.3718 12.3525C21.193 13.6326 23.015 14.9128 24.8371 16.1921C25.3177 16.5297 25.5238 16.9815 25.3843 17.5441C25.2555 18.0652 24.8868 18.3716 24.3494 18.4703C23.9665 18.5404 23.6342 18.4105 23.3242 18.1959C21.6558 17.0412 19.9848 15.8892 18.3146 14.7371C18.288 14.7181 18.2622 14.6973 18.2347 14.68C18.0694 14.5718 17.8882 14.4116 17.723 14.6454C17.5711 14.8617 17.7727 14.9708 17.9264 15.0773C19.4331 16.1194 20.938 17.1633 22.4474 18.2011C22.9049 18.5161 23.1483 18.9256 23.0355 19.4735C22.8605 20.3217 21.8948 20.6896 21.1414 20.1945C20.2424 19.6042 19.3576 18.9939 18.4665 18.3924C17.8029 17.944 17.1393 17.4965 16.4757 17.0482C16.3087 16.9348 16.1337 16.8447 16.0004 17.0741C15.8876 17.2689 16.0519 17.3675 16.1896 17.461C17.1526 18.1119 18.1174 18.762 19.0804 19.4129C19.2892 19.554 19.4997 19.6933 19.7049 19.8405C20.2513 20.2317 20.3997 20.9138 20.0567 21.4417C19.7103 21.9749 19.0093 22.161 18.4239 21.8468C17.6883 21.4521 16.9714 21.0254 16.2367 20.6298C16.0262 20.5165 16.1221 20.436 16.2003 20.3113C16.8213 19.3142 16.3806 18.1111 15.271 17.764C15.0578 17.6973 14.8384 17.661 14.6172 17.6982C14.4155 17.7328 14.3356 17.6869 14.3649 17.4705C14.4013 17.2005 14.3756 16.9278 14.2512 16.6803C14.1961 16.5704 14.2112 16.309 13.934 16.4864C13.8568 16.5357 13.5911 16.2008 13.6586 16.1367C13.8132 15.9896 13.6906 15.9454 13.5902 15.8805C13.2962 15.6918 12.9701 15.5568 12.6228 15.6035C12.2621 15.6511 12.2301 15.4927 12.2275 15.2123C12.2195 14.4445 11.6882 13.7703 10.9358 13.553C10.456 13.4145 9.99408 13.4699 9.55967 13.7149C9.43618 13.785 9.31803 13.8646 9.19721 13.9399C9.12258 13.8361 9.12081 13.727 9.10038 13.6223C8.84719 12.3213 7.34672 11.7596 6.27711 12.5758C5.85069 12.9012 5.45092 13.2605 5.05026 13.6171C4.91878 13.7348 4.83083 13.74 4.69402 13.6309C4.39375 13.3929 4.08904 13.1574 3.76922 12.9463C3.57111 12.8156 3.55334 12.7195 3.68305 12.5161C4.95432 10.5218 6.21226 8.5189 7.47464 6.51945C7.72339 6.12475 7.89307 5.62619 8.24753 5.36825C8.60733 5.10599 9.16434 5.27477 9.63251 5.25313C11.5248 5.16485 13.409 5.00212 15.2808 4.71302C15.6379 4.65763 15.9764 4.76496 16.4028 4.82641Z" fill="#FFCC66"/>
<path d="M27.7679 14.1563C27.1922 13.495 26.4877 13.0372 25.8401 12.5187C23.7276 10.8282 21.6008 9.1551 19.4891 7.46466C19.2475 7.27077 19.0609 7.24221 18.7828 7.39455C17.978 7.83685 17.1207 8.13807 16.1914 8.22895C15.2356 8.32243 14.3463 8.13374 13.5139 7.67153C13.3566 7.58411 13.2118 7.49149 13.2109 7.28462C13.2101 7.06391 13.3584 6.9661 13.5316 6.87694C14.9655 6.13689 16.3984 5.39423 17.8314 4.65245C18.2747 4.42307 18.7331 4.38499 19.211 4.53819C19.9555 4.77622 20.7097 4.98655 21.4453 5.24882C22.6739 5.68766 23.8661 5.63746 25.0512 5.10687C25.618 4.85326 25.6251 4.86884 25.9574 5.3951C27.2766 7.4863 28.5932 9.57923 29.9213 11.6644C30.0457 11.86 30.0333 11.9604 29.8662 12.1179C29.16 12.787 28.4697 13.4717 27.7679 14.1563Z" fill="#FFCC66"/>
<path d="M31.2301 0C31.6734 1.87221 32.1167 3.73836 32.5556 5.60538C33.0318 7.6308 33.4999 9.65881 33.9832 11.6825C34.0276 11.8669 33.9894 11.943 33.8233 12.0305C33.1339 12.394 32.4499 12.7696 31.7721 13.154C31.5944 13.2544 31.5073 13.2552 31.39 13.07C29.5564 10.1513 27.7157 7.23783 25.8759 4.32348C25.7986 4.20144 25.7231 4.10969 25.899 3.97812C27.6464 2.67199 29.3868 1.35547 31.1289 0.0424126C31.1555 0.0242357 31.1893 0.0173112 31.2301 0Z" fill="#FFCC66"/>
<path d="M7.93047 18.6321C7.40722 18.6312 6.92394 18.3032 6.72583 17.815C6.5375 17.3511 6.64766 16.8257 7.04121 16.4838C7.89849 15.7368 8.76111 14.995 9.63438 14.2653C10.1763 13.8126 10.9074 13.8828 11.3845 14.4021C11.8589 14.9188 11.8571 15.6528 11.3374 16.1124C10.4783 16.8741 9.59974 17.6142 8.7238 18.3568C8.50081 18.5473 8.23163 18.6425 7.93047 18.6321Z" fill="#FFCC66"/>
<path d="M12.6232 16.0934C13.1597 16.1107 13.5488 16.3574 13.7638 16.8352C13.9815 17.3182 13.9078 17.7908 13.5178 18.1439C12.7484 18.8407 11.9578 19.5176 11.1476 20.1685C10.6545 20.5649 9.92072 20.4636 9.49785 20.0057C9.06077 19.5323 9.04033 18.8035 9.51917 18.3664C10.2938 17.6592 11.104 16.9893 11.9089 16.3141C12.1052 16.1505 12.3566 16.0847 12.6232 16.0934Z" fill="#FFCC66"/>
<path d="M5.66233 16.489C5.24924 16.4587 4.85569 16.225 4.63448 15.7472C4.42393 15.2919 4.50122 14.7804 4.8779 14.4367C5.4429 13.9226 6.02301 13.4214 6.62178 12.9445C7.12905 12.5403 7.86373 12.6277 8.29637 13.0995C8.74589 13.5894 8.75033 14.3086 8.25995 14.7605C7.6985 15.2781 7.10684 15.7654 6.51873 16.2544C6.31174 16.4267 6.05411 16.4977 5.66233 16.489Z" fill="#FFCC66"/>
<path d="M15.9791 19.3211C15.9764 19.7461 15.8405 20.0448 15.5713 20.2793C15.1253 20.6671 14.6829 21.0592 14.2236 21.4314C13.687 21.8659 12.9426 21.8036 12.4948 21.3076C12.0462 20.8108 12.08 20.0837 12.5934 19.6215C13.0323 19.2268 13.4818 18.8416 13.9429 18.4712C14.3569 18.1397 14.8286 18.092 15.3101 18.3214C15.7578 18.5369 15.9711 18.9083 15.9791 19.3211Z" fill="#FFCC66"/>
</g>
<defs>
<clipPath id="clip0_104_48">
<rect width="34" height="22" fill="white"/>
</clipPath>
</defs>
</svg>
