<svg width="23" height="17" viewBox="0 0 23 17" fill="none" xmlns="http://www.w3.org/2000/svg">
<g clip-path="url(#clip0_93_195)">
<path d="M0 1.10693C0.0756441 1.06552 0.0654381 0.982103 0.0906528 0.917617C0.299575 0.380433 0.816476 0.0171826 1.40062 0.00120906C1.43063 2.58329e-05 1.46065 2.58329e-05 1.49067 2.58329e-05C8.16776 2.58329e-05 14.8448 -0.00056578 21.5219 0.000617446C22.375 0.000617446 23.0144 0.633052 23 1.44889C22.9868 2.18367 22.381 2.79717 21.6348 2.8303C21.5454 2.83444 21.4553 2.83267 21.3652 2.83267C14.8004 2.83267 8.2356 2.83267 1.67077 2.83267C0.761244 2.83267 0.387826 2.58478 0.0348203 1.74765C0.0306178 1.73818 0.012007 1.73404 0 1.72694C0 1.51988 0 1.31341 0 1.10693Z" fill="white"/>
<path d="M0.000112069 8.19029C0.0757561 8.14888 0.0655502 8.06546 0.0907649 8.00097C0.300287 7.4632 0.816588 7.10054 1.40073 7.08457C1.40793 7.08457 1.41574 7.08397 1.42294 7.08397C8.13725 7.08397 14.8522 7.08279 21.5665 7.08575C22.3818 7.08634 23.0139 7.73652 22.9995 8.53343C22.9863 9.26821 22.3806 9.88171 21.6343 9.91484C21.5449 9.91898 21.4548 9.91721 21.3648 9.91721C14.7999 9.91721 8.23511 9.91721 1.67029 9.91721C0.760755 9.91721 0.387338 9.66932 0.034332 8.83219C0.0301296 8.82213 0.0115187 8.8174 -0.000488281 8.8103C0.000112069 8.60324 0.000112069 8.39676 0.000112069 8.19029Z" fill="white"/>
<path d="M0.000112069 15.2737C0.0757561 15.2323 0.0655502 15.1489 0.0907649 15.0844C0.300287 14.5466 0.816588 14.184 1.40073 14.168C1.42294 14.1674 1.44575 14.1674 1.46797 14.1674C8.16007 14.1674 14.8522 14.1662 21.5443 14.1686C22.3776 14.1686 23.0139 14.8105 22.9995 15.6169C22.9863 16.3516 22.3806 16.9651 21.6343 16.9983C21.5449 17.0024 21.4548 17.0006 21.3648 17.0006C14.7999 17.0006 8.23511 17.0006 1.67029 17.0006C0.760755 17.0006 0.387338 16.7528 0.034332 15.9156C0.0301296 15.9056 0.0115187 15.9008 -0.000488281 15.8937C0.000112069 15.6867 0.000112069 15.4802 0.000112069 15.2737Z" fill="white"/>
</g>
<defs>
<clipPath id="clip0_93_195">
<rect width="23" height="17" fill="white"/>
</clipPath>
</defs>
</svg>
