<svg width="17" height="24" viewBox="0 0 17 24" fill="none" xmlns="http://www.w3.org/2000/svg">
<path d="M1.84874 0C6.25265 0 10.6573 0 15.0612 0C15.2794 0.0872478 15.516 0.114912 15.7268 0.229824C16.5754 0.693727 16.9997 1.42363 16.9997 2.42237C16.9997 6.86066 16.9997 11.2989 16.9997 15.7372C16.9997 17.9872 17.001 20.238 16.9983 22.488C16.9976 23.1065 16.7318 23.5647 16.1973 23.8399C15.635 24.1293 15.1258 24.0123 14.66 23.6016C14.163 23.1625 13.6646 22.7249 13.1669 22.2865C11.6561 20.9565 10.1446 19.6279 8.63718 18.2944C8.53111 18.2 8.46923 18.1929 8.36316 18.293C8.10819 18.5341 7.83894 18.759 7.5758 18.9909C5.81954 20.5373 4.06327 22.0843 2.30633 23.6307C1.91061 23.979 1.46321 24.0854 0.965503 23.9286C0.351525 23.7364 0.000679932 23.1952 0.000679932 22.4404C0 18.1036 0 13.7667 0 9.43057C0 7.09403 0 4.7582 0 2.42166C0 1.42292 0.422918 0.688052 1.27623 0.23337C1.45777 0.136901 1.65767 0.0766079 1.84874 0Z" fill="#FFCC66"/>
</svg>
