<svg width="126" height="61" viewBox="0 0 126 61" fill="none" xmlns="http://www.w3.org/2000/svg">
<g clip-path="url(#clip0_33_1922)">
<path d="M0 7.39035C2.71445 7.37945 5.4289 7.37945 8.14334 7.3522C8.78981 7.34493 9.01979 7.75914 9.24433 8.24239C11.6419 13.3746 14.0449 18.5032 16.4479 23.6318C16.6253 24.0097 16.8245 24.3785 17.0816 24.8835C18.3565 22.1621 19.5752 19.5678 20.7848 16.9681C22.1448 14.0468 23.5083 11.1255 24.8338 8.18971C25.1218 7.55022 25.4857 7.32313 26.1992 7.33766C28.7308 7.38853 31.2641 7.35765 33.8102 7.35765C33.9478 7.79366 33.6418 8.06254 33.4915 8.35866C32.4267 10.4533 31.3529 12.5426 30.2537 14.6209C29.9477 15.1986 30.0074 15.3894 30.7064 15.3567C32.6023 15.2713 34.5019 15.4421 36.3997 15.2168C37.4645 15.0896 37.852 15.482 37.7976 16.5702C37.5477 21.7097 37.7397 26.8529 37.6962 31.9942C37.689 32.8953 37.7524 33.8164 37.9353 34.6957C38.6487 38.0984 41.4392 40.1385 44.9342 39.886C48.6898 39.6153 50.9425 37.3699 51.2015 33.5584C51.3246 31.7526 51.3663 29.9431 51.3373 28.1282C51.2757 24.195 51.3373 20.2618 51.3029 16.3286C51.2956 15.5202 51.5673 15.3221 52.3514 15.3258C56.2429 15.3494 60.1325 15.3167 64.024 15.2804C64.7882 15.2731 65.1196 15.6437 65.3695 16.3286C67.7037 22.7253 70.0686 29.1111 72.4245 35.5005C72.5386 35.8075 72.669 36.1091 72.8301 36.5087C73.6305 35.0445 74.0217 33.5293 74.5704 32.0814C76.5224 26.9255 78.4546 21.7624 80.3415 16.5811C80.6711 15.6782 81.0894 15.284 82.0944 15.324C84.0827 15.4057 86.0764 15.3203 88.0665 15.3621C88.8506 15.3785 89.1204 15.1169 89.1078 14.3193C89.0679 11.5961 89.0915 8.87279 89.0933 6.14953C89.0933 5.00863 89.1005 5.00318 90.2703 5.00136C92.1101 4.99955 93.95 4.99955 95.7898 5.00136C96.8889 5.00318 96.9433 5.04678 96.9397 6.19676C96.9234 11.7632 96.8998 17.3296 96.8817 22.8961C96.8763 24.4384 96.8799 25.9827 96.8835 27.5251C96.8835 27.6668 96.8401 27.8339 97.0574 27.9211C97.4105 27.8139 97.559 27.456 97.7726 27.1871C100.623 23.5882 103.477 19.9929 106.293 16.3686C106.861 15.6364 107.47 15.3203 108.42 15.3276C113.549 15.3658 118.677 15.3421 123.807 15.3094C124.557 15.304 124.846 15.6074 124.821 16.3123C124.799 16.9154 124.763 17.5204 124.763 18.1235C124.76 27.1108 124.751 36.0963 124.778 45.0837C124.779 45.9448 124.551 46.2391 123.664 46.2318C118.565 46.1955 113.465 46.2009 108.366 46.2282C107.593 46.2318 107.062 45.9648 106.593 45.3707C103.68 41.67 100.746 37.9839 97.8179 34.2923C97.7237 34.1743 97.6423 34.0434 97.5336 33.9417C97.3724 33.7873 97.2873 33.4512 96.9904 33.5784C96.7531 33.6801 96.9252 33.9581 96.8817 34.1506C96.869 34.2088 96.8799 34.2705 96.8799 34.3323C96.8998 37.9022 96.9179 41.4702 96.9433 45.0401C96.9505 46.1337 96.8799 46.2137 95.7735 46.2155C93.9626 46.2173 92.1536 46.2173 90.3428 46.2155C89.1295 46.2137 89.0951 46.1791 89.0951 44.9183C89.0951 35.6585 89.0951 26.4005 89.0951 17.1407C89.0951 16.8155 89.0951 16.4903 89.0951 16.1142C88.7148 16.2741 88.6949 16.6066 88.5917 16.8536C82.6069 31.1022 76.6329 45.3562 70.6517 59.6065C70.4833 60.0062 70.2569 60.3823 70.0577 60.7692C67.4031 60.7692 64.7466 60.7692 62.0919 60.7692C61.8927 60.2932 62.1426 59.8954 62.32 59.4884C64.225 55.1283 66.1264 50.7682 68.0459 46.4135C68.3718 45.6741 68.3755 44.9946 68.0622 44.2389C65.2952 37.5624 62.5518 30.8751 59.7993 24.1914C59.669 23.8734 59.5983 23.5156 59.1963 23.1613C59.1963 23.5791 59.1963 23.8644 59.1963 24.1496C59.1963 31.1058 59.1981 38.062 59.1945 45.0183C59.1945 46.0883 59.0696 46.2118 57.9957 46.2137C56.098 46.2173 54.2002 46.1919 52.3043 46.2246C51.5003 46.2391 51.2359 45.9085 51.2884 45.1309C51.3427 44.3134 51.3011 43.4904 51.3011 42.6692C51.2178 42.6311 51.1345 42.5911 51.0512 42.553C50.8502 42.8109 50.68 43.0998 50.4445 43.3214C47.4241 46.1719 43.8187 47.2456 39.7859 46.488C33.8156 45.3671 29.9495 40.4819 29.9042 34.1797C29.8625 28.3735 29.877 22.5672 29.868 16.7592C29.868 16.4431 29.868 16.127 29.868 15.5511C29.5945 15.9689 29.4533 16.1488 29.3483 16.3504C26.6954 21.4881 24.0516 26.6312 21.3896 31.7653C21.0456 32.4284 20.8971 33.1006 20.9007 33.8454C20.9188 37.5951 20.8898 41.3467 20.9224 45.0964C20.9297 45.9648 20.6526 46.2609 19.7707 46.2318C17.8458 46.1701 15.9155 46.2009 13.9887 46.2209C13.3368 46.2282 13.0543 45.9648 13.0562 45.3089C13.067 41.71 13.0362 38.1111 13.0779 34.5122C13.0924 33.3313 12.8696 32.2413 12.3318 31.2057C8.34797 23.5319 4.35869 15.8617 0.3676 8.19334C0.278869 8.02438 0.277058 7.76823 0 7.75369C0 7.63197 0 7.51207 0 7.39035ZM116.868 45.4488C116.868 35.5204 116.868 25.8464 116.868 16.1942C116.671 16.127 116.6 16.2414 116.526 16.3268C112.469 20.954 108.42 25.5866 104.353 30.2047C103.937 30.6771 103.998 30.9823 104.399 31.4256C106.619 33.8908 108.808 36.3816 111.01 38.8632C112.909 41.0015 114.811 43.1361 116.868 45.4488Z" fill="#060606"/>
<path d="M126 12.5264C125.716 12.6808 125.489 12.9515 125.133 12.9551C123.065 12.9788 120.98 13.244 118.938 12.7607C115.881 12.0377 113.884 9.4852 113.842 6.36044C113.802 3.37376 115.657 1.03382 118.749 0.159979C118.822 0.139995 118.876 0.0546093 118.94 -0.00170898C119.664 -0.00170898 120.388 -0.00170898 121.113 -0.00170898C121.227 0.178146 121.428 0.145445 121.592 0.20358C124.486 1.20096 126.042 4.44017 124.932 7.15072C124.278 8.7458 122.331 10.0102 120.7 9.89942C118.987 9.78314 117.574 8.65496 117.105 7.05443C116.89 6.31684 116.87 5.61014 117.685 5.29221C118.55 4.9543 118.914 5.54474 119.184 6.28051C119.479 7.07805 119.937 7.74297 120.939 7.703C121.886 7.66485 122.61 7.11802 122.963 6.15697C123.362 5.07057 123.032 4.13678 122.328 3.3029C121.516 2.34004 120.464 1.9767 119.246 2.22377C117.677 2.5417 116.234 4.18038 116.035 5.78273C115.704 8.44967 117.797 10.7987 120.582 10.8568C121.909 10.8841 123.237 10.875 124.564 10.855C125.093 10.8477 125.571 10.9368 125.998 11.2547C126 11.6798 126 12.1031 126 12.5264Z" fill="#EFB719"/>
</g>
<defs>
<clipPath id="clip0_33_1922">
<rect width="126" height="61" fill="white"/>
</clipPath>
</defs>
</svg>
