<svg width="22" height="30" viewBox="0 0 22 30" fill="none" xmlns="http://www.w3.org/2000/svg">
<g clip-path="url(#clip0_41_86)">
<path d="M11.9077 0C12.3225 0.0751566 12.7411 0.129958 13.1505 0.227818C17.6442 1.30741 20.5063 4.13439 21.6856 8.69154C22.3406 11.2226 21.906 13.6801 20.9815 16.071C20.015 18.5707 18.6497 20.8372 17.11 23.001C15.405 25.3959 13.5109 27.6247 11.4569 29.7127C11.0797 30.0963 10.9037 30.0963 10.5264 29.7103C7.63213 26.7471 5.0149 23.5545 2.89893 19.9556C1.7273 17.9624 0.763058 15.876 0.255683 13.5892C-0.772841 8.95068 1.3768 3.93789 5.41131 1.56185C6.77579 0.758612 8.23057 0.256002 9.79095 0.0641962C9.84988 0.0571503 9.93023 0.0923799 9.96084 0C10.6098 0 11.2587 0 11.9077 0ZM11.0047 16.4021C13.7604 16.4045 16.0325 14.0817 16.031 11.2633C16.0294 8.42223 13.7818 6.09629 11.0368 6.09316C8.2122 6.09003 5.95848 8.38152 5.95389 11.2602C5.95006 14.0895 8.21909 16.3998 11.0047 16.4021Z" fill="#FFCC66"/>
<circle cx="11.5" cy="11.5" r="5.5" fill="#333333"/>
</g>
<defs>
<clipPath id="clip0_41_86">
<rect width="22" height="30" fill="white"/>
</clipPath>
</defs>
</svg>
