<svg width="12" height="11" viewBox="0 0 12 11" fill="none" xmlns="http://www.w3.org/2000/svg">
<path d="M5.28064 0.33851C5.43757 -0.112957 6.07605 -0.112958 6.23298 0.338509L7.30099 3.41102C7.37021 3.61018 7.55608 3.74522 7.76689 3.74952L11.019 3.81579C11.4969 3.82553 11.6942 4.43276 11.3133 4.72152L8.72124 6.68671C8.55322 6.8141 8.48222 7.03259 8.54328 7.23441L9.48522 10.3479C9.62363 10.8054 9.10709 11.1807 8.71476 10.9077L6.04475 9.0497C5.87168 8.92926 5.64194 8.92926 5.46887 9.0497L2.79886 10.9077C2.40653 11.1807 1.88999 10.8054 2.0284 10.3479L2.97034 7.23441C3.0314 7.03259 2.9604 6.8141 2.79238 6.68671L0.200284 4.72152C-0.180593 4.43276 0.0167073 3.82553 0.494572 3.81579L3.74674 3.74952C3.95754 3.74522 4.14341 3.61018 4.21264 3.41102L5.28064 0.33851Z" fill="black"/>
</svg>
