<svg width="36" height="35" viewBox="0 0 36 35" fill="none" xmlns="http://www.w3.org/2000/svg">
<path d="M16.8638 23.31C16.4753 24.6145 16.7494 25.7039 17.7472 26.694C17.8083 25.7292 17.8655 24.8501 17.9187 23.972C18.0144 22.3968 18.1061 20.8227 18.2037 19.2475C18.2372 18.6936 18.0548 18.4833 17.483 18.4229C16.5917 18.3285 15.7004 18.2321 14.8091 18.1318C13.7414 18.0121 13.0433 17.0726 13.2622 16.0242C13.8084 13.4025 14.3605 10.7817 14.9176 8.16198C15.165 6.99667 16.1303 6.29671 17.3035 6.41061C18.3723 6.51477 19.1758 7.4552 19.1719 8.61953C19.1709 8.79866 19.2389 8.91062 19.3493 9.03036C20.4023 10.1665 21.7658 10.7827 23.1964 11.2938C23.8619 11.5313 24.5323 11.655 25.2461 11.6306C26.2035 11.5975 27.1638 11.619 28.1221 11.6229C29.3397 11.6277 30.0387 12.3209 30.0427 13.5232C30.0437 13.8873 30.0516 14.2523 30.0358 14.6155C29.9954 15.5043 29.2697 16.2111 28.3696 16.2442C28.0383 16.2559 27.705 16.2578 27.3738 16.2451C27.1874 16.2374 27.1441 16.2987 27.1638 16.4739C27.3087 17.7901 27.6449 19.044 28.3587 20.1801C28.6663 20.6688 29.0508 21.0845 29.527 21.4253C30.7565 22.3053 31.2642 23.4891 30.9931 24.9747C30.9517 25.2035 30.9833 25.2736 31.2435 25.2765C33.7192 25.3057 35.7029 27.0766 35.9908 29.4919C36.0292 29.8161 35.9553 30.0896 35.6339 30.2094C35.4041 30.2941 35.5343 30.4167 35.554 30.5248C35.9218 32.5527 34.7012 34.4335 32.7145 34.8959C30.6678 35.372 28.6446 34.122 28.1734 32.0893C28.1605 32.0318 28.1389 31.9773 28.1201 31.9199C28.0817 31.9296 28.0531 31.9277 28.0422 31.9413C27.497 32.5848 27.0553 32.5137 26.7428 31.7252C26.6629 31.5227 26.6018 31.3134 26.5269 31.0885C26.2686 31.2919 25.9698 31.3056 25.6583 31.3056C22.5358 31.3017 19.4134 31.3056 16.291 31.2978C16.0218 31.2968 15.8946 31.3241 15.8503 31.6473C15.6097 33.4103 13.9878 34.7557 12.1442 34.7626C10.2837 34.7684 8.66581 33.4191 8.41144 31.6346C8.3799 31.4107 8.33257 31.3143 8.06834 31.2958C6.66537 31.1975 5.74353 29.9874 5.8648 28.4619C5.92987 27.6441 6.14578 26.8653 6.44156 26.105C6.79452 25.1986 7.24805 24.341 7.74299 23.5037C7.81496 23.3821 7.88102 23.3042 8.04764 23.3042C10.9719 23.311 13.8962 23.31 16.8638 23.31ZM18.3368 12.3676C18.1928 12.9819 18.0538 13.5456 17.9296 14.1112C17.8261 14.5814 17.9375 14.7771 18.394 14.9474C19.2409 15.2638 20.0897 15.5773 20.9386 15.8879C21.967 16.2646 22.3751 16.8653 22.2736 17.9478C22.1563 19.2027 22.0054 20.4547 21.8723 21.7086C21.685 23.4687 21.5036 25.2288 21.3074 26.988C21.2837 27.2012 21.335 27.2528 21.5469 27.2479C22.1365 27.2343 22.7261 27.2333 23.3157 27.2479C23.5306 27.2528 23.5809 27.1837 23.5799 26.9812C23.575 22.905 23.574 18.8299 23.5819 14.7537C23.5819 14.5317 23.508 14.4548 23.2989 14.4363C22.8208 14.3935 22.3564 14.2845 21.894 14.1569C20.6034 13.8045 19.4381 13.2039 18.3368 12.3676ZM32.9778 29.7674C31.7237 29.7586 30.649 30.0536 29.6414 30.6046C29.388 30.7438 29.2165 30.922 29.2322 31.2345C29.2855 32.2947 29.7627 33.1046 30.7407 33.5534C31.7454 34.0149 32.7224 33.8786 33.5575 33.1592C34.3689 32.4592 34.6223 31.5528 34.3423 30.5219C34.1668 29.8755 34.08 29.8229 33.3958 29.7859C33.2233 29.7771 33.0507 29.7703 32.9778 29.7674ZM12.1471 31.3046C11.3742 31.3046 10.6012 31.3153 9.82921 31.2988C9.57977 31.2939 9.54723 31.3718 9.58667 31.5898C9.79371 32.7191 10.9068 33.606 12.1313 33.6041C13.3578 33.6021 14.4581 32.7259 14.676 31.5879C14.7184 31.3659 14.6701 31.2939 14.4276 31.2988C13.6684 31.3143 12.9073 31.3046 12.1471 31.3046Z" fill="#010101"/>
<path d="M5.90718 18.0647C4.56731 18.0647 3.22645 18.0667 1.88657 18.0637C0.74191 18.0618 0.00246482 17.3297 0.00147889 16.1926C-0.000492963 14.1414 -0.000492963 12.0892 0.00147889 10.038C0.00246482 8.8834 0.738952 8.1591 1.91516 8.15813C4.57125 8.15618 7.22635 8.15618 9.88244 8.15813C11.0813 8.1591 11.804 8.87756 11.805 10.0662C11.806 12.1058 11.807 14.1453 11.805 16.1848C11.804 17.3414 11.0685 18.0628 9.89131 18.0647C8.56228 18.0667 7.23522 18.0647 5.90718 18.0647Z" fill="#010101"/>
<path d="M11.8415 19.1482C13.3401 19.1482 14.8387 19.1473 16.3373 19.1492C16.8953 19.1502 17.0935 19.3429 17.0975 19.8891C17.1014 20.5443 17.0866 21.1994 17.1044 21.8536C17.1113 22.1009 17.0284 22.1506 16.7938 22.1496C13.7719 22.1418 10.7501 22.1438 7.7282 22.1477C7.56946 22.1477 7.4551 22.1126 7.34862 21.987C6.82509 21.3718 6.53621 20.6669 6.49875 19.8667C6.47607 19.3741 6.69593 19.1511 7.19777 19.1502C8.74567 19.1463 10.2936 19.1482 11.8415 19.1482Z" fill="#010101"/>
<path d="M18.8918 2.17346e-06C20.5186 0.00194922 21.8388 1.31037 21.8368 2.91765C21.8348 4.52202 20.5088 5.82849 18.882 5.82654C17.2591 5.8246 15.9341 4.51326 15.936 2.90889C15.939 1.30452 17.267 -0.00194487 18.8918 2.17346e-06Z" fill="#010101"/>
</svg>
