<svg width="26" height="22" viewBox="0 0 26 22" fill="none" xmlns="http://www.w3.org/2000/svg">
<g clip-path="url(#clip0_466_163)">
<path d="M0 19.357C0 14.9378 0 10.5197 0 6.10048C0.0866996 6.06876 0.0559706 5.98153 0.0713351 5.92149C0.442278 4.49865 1.51011 3.63656 2.93791 3.62749C4.02001 3.6207 5.1032 3.62183 6.1853 3.63089C6.36529 3.63203 6.40918 3.57878 6.40809 3.39753C6.4048 2.93646 6.3576 2.46973 6.47833 2.0166C6.82403 0.731958 7.74699 0.00580793 9.042 0.00354225C10.9867 0.000143736 12.9325 0.00127657 14.8772 0.00354225C15.6718 0.00467509 16.4674 -0.0100518 17.262 0.0205348C18.2354 0.0579185 19.1409 0.821452 19.4449 1.77644C19.6139 2.3066 19.5842 2.8447 19.5798 3.3828C19.5776 3.57652 19.6226 3.63089 19.8169 3.62976C20.9758 3.62183 22.1347 3.60937 23.2926 3.63882C24.5985 3.67281 25.7454 4.75467 25.9429 6.08915C26.0406 6.7496 25.9857 7.41344 25.9868 8.07615C25.9934 11.6287 25.9879 15.1825 25.9912 18.735C25.9912 19.2222 25.9298 19.6945 25.7158 20.1307C25.1484 21.2851 24.2276 21.8413 22.9765 21.8413C16.3204 21.839 9.66426 21.8401 3.00924 21.8401C2.91596 21.8401 2.82377 21.8356 2.73049 21.8311C1.51889 21.7676 0.503736 20.9565 0.131696 19.7637C0.0888945 19.6277 0.100967 19.4725 0 19.357ZM12.9951 19.2845C16.4773 19.2822 19.3274 16.3436 19.3395 12.7446C19.3516 9.14329 16.4883 6.18318 12.9951 6.18318C9.50184 6.18318 6.63746 9.14555 6.65063 12.7457C6.6616 16.3436 9.5183 19.2867 12.9951 19.2845Z" fill="#FFCC66"/>
</g>
<rect x="17.6797" y="11.4399" width="2.08" height="10.4" rx="1.04" transform="rotate(90 17.6797 11.4399)" fill="#FFCC66"/>
<rect x="11.4404" y="7.28003" width="2.08" height="10.4" rx="1.04" fill="#FFCC66"/>
<defs>
<clipPath id="clip0_466_163">
<rect width="26" height="21.84" fill="white"/>
</clipPath>
</defs>
</svg>
