<svg width="25" height="21" viewBox="0 0 25 21" fill="none" xmlns="http://www.w3.org/2000/svg">
<g clip-path="url(#clip0_415_505)">
<path d="M0 19.3068C0 16.6657 0 14.0247 0 11.3837C0.234236 11.0042 0.520018 10.8937 0.816891 11.1101C1.28145 11.4481 1.79233 11.5507 2.35476 11.5487C4.95746 11.5382 7.56081 11.5468 10.1635 11.5389C10.369 11.5382 10.4238 11.5948 10.416 11.796C10.4004 12.1972 10.4095 12.5996 10.4121 13.0008C10.4147 13.4513 10.6065 13.6459 11.0489 13.6466C12.0172 13.6479 12.9848 13.6479 13.953 13.6466C14.383 13.6459 14.5814 13.4506 14.5853 13.0212C14.5892 12.6194 14.601 12.2169 14.5801 11.8164C14.5683 11.5843 14.6447 11.5382 14.8619 11.5389C17.5057 11.5468 20.1495 11.5408 22.7934 11.5468C23.2723 11.5481 23.7107 11.4415 24.1002 11.1581C24.2921 11.0187 24.4911 10.9562 24.7129 11.0713C24.9458 11.1923 24.9993 11.4014 24.9993 11.6487C24.9961 14.0425 24.9967 16.4369 24.998 18.8306C24.998 19.0371 24.9746 19.2384 24.9237 19.4383C24.7273 20.2169 23.9756 21.0021 22.7646 20.9995C15.9235 20.9837 9.08237 20.9923 2.24123 20.9916C2.15967 20.9916 2.07877 20.9903 1.99721 20.987C1.11246 20.9508 0.358858 20.3682 0.0926506 19.5185C0.0704666 19.4462 0.0854734 19.3528 0 19.3068Z" fill="white"/>
<path d="M0 8.82539C0 7.49699 0 6.16792 0 4.83952C0.0743815 4.81979 0.0580697 4.74679 0.073729 4.69813C0.382347 3.71826 1.1229 3.15862 2.14532 3.15533C3.78106 3.15007 5.41614 3.15007 7.05188 3.15862C7.24697 3.15994 7.30308 3.10601 7.29134 2.91333C7.27503 2.6437 7.2809 2.3721 7.28938 2.10181C7.32592 0.933212 8.17152 0.0243716 9.29572 0.0138496C11.4358 -0.00653686 13.5759 -0.0025911 15.7154 0.0138496C16.6282 0.0210835 17.3929 0.666873 17.6317 1.55664C17.7511 2.00054 17.7106 2.45299 17.7054 2.90215C17.7034 3.10404 17.7537 3.16059 17.9592 3.15928C19.5865 3.15007 21.2137 3.15007 22.8416 3.15533C24.1166 3.15994 24.9948 4.05628 24.998 5.34326C25 6.31129 24.9987 7.27865 24.9987 8.24668C24.998 9.62178 24.1244 10.4984 22.7535 10.4984C20.1495 10.4984 17.5455 10.4984 14.9422 10.4984C14.5886 10.4984 14.5886 10.4984 14.5872 10.1406C14.5859 9.61783 14.4209 9.45277 13.8963 9.45277C13.0337 9.45211 12.1705 9.47644 11.3092 9.44553C10.4969 9.4166 10.3619 9.69149 10.4147 10.3268C10.4265 10.4701 10.3743 10.501 10.2392 10.501C7.50535 10.4971 4.77085 10.503 2.03701 10.4938C1.14835 10.4905 0.371255 9.88614 0.0978703 9.03452C0.073729 8.96152 0.0893882 8.86748 0 8.82539ZM12.5157 3.15402C13.4826 3.15402 14.4496 3.14941 15.4159 3.15862C15.5901 3.15994 15.6384 3.10864 15.6273 2.93963C15.6129 2.71933 15.6168 2.49771 15.6266 2.27674C15.6325 2.14456 15.6031 2.09195 15.4563 2.09261C13.482 2.09787 11.5082 2.09721 9.53388 2.09327C9.40208 2.09327 9.36684 2.13601 9.37272 2.26162C9.3812 2.46614 9.38838 2.67198 9.37141 2.87518C9.3538 3.08826 9.40534 3.1652 9.64088 3.16125C10.5981 3.14481 11.5572 3.15402 12.5157 3.15402Z" fill="white"/>
</g>
<defs>
<clipPath id="clip0_415_505">
<rect width="25" height="21" fill="white"/>
</clipPath>
</defs>
</svg>
