<svg width="20" height="25" viewBox="0 0 20 25" fill="none" xmlns="http://www.w3.org/2000/svg">
<g clip-path="url(#clip0_467_107)">
<path d="M9.44146 25.0001C9.14125 24.8546 8.80845 24.8174 8.50574 24.6719C7.38575 24.1335 6.67815 23.2421 6.35538 22.0101C6.34535 21.9722 6.34849 21.9305 6.34473 21.8828C8.78589 21.8828 11.2208 21.8828 13.6745 21.8828C13.536 22.5758 13.2452 23.1762 12.7977 23.6911C12.1847 24.3959 11.4307 24.8331 10.517 24.9558C10.5007 24.9577 10.4875 24.9851 10.4725 25.0001C10.129 25.0001 9.78555 25.0001 9.44146 25.0001Z" fill="#FFCC66"/>
<path d="M9.98387 20.8373C7.27195 20.8373 4.55941 20.8386 1.84749 20.8366C0.926177 20.836 0.217957 20.2774 0.0424688 19.386C-0.0998019 18.6636 0.127706 18.0567 0.664825 17.5764C1.23265 17.068 1.70397 16.4761 2.08252 15.8033C2.71302 14.6829 3.00258 13.4678 3.00446 12.1737C3.00634 11.1564 2.99255 10.139 3.0126 9.12232C3.07779 5.73613 5.59917 2.72973 8.80935 2.20376C8.9698 2.17766 9.01618 2.12154 9.01054 1.95904C8.99988 1.6419 9.00051 1.32409 9.01054 1.00694C9.02871 0.432681 9.46743 -0.0038893 10.0114 2.61295e-05C10.5442 0.00394156 10.9766 0.436596 10.9961 0.999113C11.0073 1.32409 11.0048 1.65038 10.9979 1.97536C10.9954 2.10979 11.0218 2.17374 11.1678 2.19984C14.1762 2.73887 16.4619 5.16382 16.9345 8.31313C16.9946 8.71577 17.0009 9.12297 17.0053 9.53018C17.0172 10.6285 16.9558 11.7287 17.0372 12.825C17.1751 14.6842 17.9253 16.2406 19.2547 17.487C19.6457 17.8537 19.9516 18.259 19.9948 18.8221C20.0832 19.9694 19.3004 20.8353 18.1685 20.8373C16.0739 20.8412 13.9794 20.8386 11.8842 20.8386C11.2499 20.8373 10.6169 20.8373 9.98387 20.8373Z" fill="#FFCC66"/>
</g>
<defs>
<clipPath id="clip0_467_107">
<rect width="20" height="25" fill="white"/>
</clipPath>
</defs>
</svg>
