<svg width="29" height="30" viewBox="0 0 29 30" fill="none" xmlns="http://www.w3.org/2000/svg">
<path d="M13.342 7.24199C12.997 7.90019 12.9261 8.54371 13.1768 9.20623C13.7096 10.6159 15.4192 11.1342 16.649 10.2384C17.4057 9.68735 18.1338 9.09566 18.875 8.52298C18.9588 8.45819 19.0445 8.396 19.1897 8.28803C18.9407 9.13453 18.7124 9.91366 18.4823 10.6919C18.0646 12.1025 17.6452 13.5122 17.2275 14.9227C17.1289 15.2544 17.0866 15.5922 17.0866 15.9403C17.09 20.5071 17.0857 25.073 17.0969 29.6398C17.0978 29.9395 17.0157 29.9991 16.7294 29.9991C11.2734 29.9905 5.81746 29.9896 0.362352 30C0.0674581 30.0009 4.3575e-06 29.9257 4.3575e-06 29.6355C0.00951707 25.1231 0.0112467 20.6098 4.3575e-06 16.0975C-0.000860435 15.5999 0.127129 15.1438 0.264631 14.68C0.97549 12.2813 1.68635 9.88257 2.39115 7.48212C2.43958 7.318 2.48888 7.23594 2.68691 7.23681C6.22218 7.24458 9.75918 7.24199 13.342 7.24199ZM8.28817 16.7246C8.28817 16.2573 8.2899 15.9454 8.28731 15.6327C8.28385 15.2294 8.08668 14.9936 7.76065 14.9996C7.44587 15.0048 7.25648 15.2337 7.25215 15.6181C7.24956 15.8331 7.25129 16.0491 7.25129 16.2642C7.25129 17.0899 7.25129 17.0822 6.43665 17.0718C6.2438 17.0692 6.20921 17.0053 6.21354 16.8325C6.22478 16.4024 6.22391 15.9713 6.2144 15.5403C6.20748 15.213 5.98869 14.997 5.69466 14.9996C5.39977 15.0022 5.19395 15.2181 5.18357 15.549C5.17579 15.7856 5.18184 16.0223 5.18184 16.2599C5.18184 17.1098 5.18184 17.1046 4.33867 17.0709C4.18041 17.0649 4.14063 17.02 4.14409 16.8688C4.1536 16.4602 4.14928 16.0508 4.14668 15.6414C4.14409 15.2328 3.9547 14.9996 3.62867 14.9996C3.30351 14.9996 3.14612 15.2354 3.10547 15.6414C2.96797 17.0217 3.21357 18.3061 3.99621 19.4705C4.00832 19.4878 4.01091 19.5111 4.02302 19.5293C4.13371 19.6891 4.13544 19.8627 4.12074 20.0518C3.97718 21.9513 3.83276 23.8516 3.70823 25.7528C3.64856 26.6675 4.34731 27.3914 5.26659 27.4078C5.54678 27.413 5.82697 27.4121 6.10717 27.4087C7.0619 27.3957 7.75546 26.6615 7.6906 25.7131C7.57904 24.0917 7.477 22.4687 7.32393 20.8508C7.25561 20.1218 7.31355 19.4602 7.71741 18.8261C8.15154 18.1438 8.46113 17.4121 8.28817 16.7246ZM12.9477 19.1C12.9477 17.7127 12.9243 16.7436 12.9555 15.7753C12.9779 15.0782 12.6277 14.927 12.0492 15.0246C11.1143 15.1827 10.4873 15.7554 10.0195 16.5294C9.26279 17.7801 8.97136 19.1734 8.81137 20.6029C8.7811 20.8698 8.90304 21.0573 9.14259 21.173C9.24896 21.224 9.34927 21.2957 9.46083 21.3276C9.83096 21.4322 9.85777 21.6723 9.81799 22.0135C9.67616 23.2418 9.56634 24.4735 9.44613 25.7044C9.40375 26.1432 9.55942 26.5103 9.80502 26.8748C10.2997 27.6082 12.4755 27.6039 12.9909 26.8723C13.323 26.4015 13.3827 25.9126 13.3213 25.3753C13.0705 23.1502 12.8301 20.9251 12.9477 19.1Z" fill="black"/>
<path d="M9.90452 3.05271C11.0071 2.45065 12.108 1.84687 13.2124 1.24914C13.4908 1.09884 13.7935 1.03578 14.1135 1.03665C17.6064 1.03924 21.0984 1.0401 24.5913 1.03406C24.798 1.03406 24.8611 1.07984 24.8585 1.29492C24.8455 2.16647 24.8481 3.03889 24.8568 3.91131C24.8585 4.09011 24.8161 4.15316 24.6285 4.14539C24.2947 4.12984 23.96 4.13416 23.6262 4.14366C23.1436 4.15662 22.8219 4.46931 22.7839 4.94611C22.6931 6.08458 22.0012 6.78683 20.8692 6.70823C19.8851 6.63999 19.1102 6.91812 18.3855 7.57201C17.6842 8.20516 16.9016 8.74847 16.15 9.32548C15.5369 9.79624 14.82 9.74528 14.3599 9.20973C13.9094 8.68542 13.9682 7.99353 14.5139 7.44762C15.6407 6.31953 16.7692 5.19316 17.8987 4.06765C18.0785 3.88798 18.1901 3.69191 18.0811 3.43364C17.9739 3.18055 17.7681 3.0959 17.5069 3.10799C17.442 3.11145 17.3772 3.10886 17.3132 3.10886C14.9523 3.10886 12.5914 3.10886 10.2314 3.10886C10.1259 3.10886 10.0195 3.10886 9.91403 3.10886C9.91057 3.08812 9.90712 3.06998 9.90452 3.05271Z" fill="black"/>
<path d="M18.1235 29.2649C18.1235 29.0792 18.1235 28.9738 18.1235 28.8676C18.1235 24.6022 18.1278 20.3369 18.1174 16.0724C18.1165 15.5861 18.2463 15.1404 18.3803 14.6877C18.9632 12.7209 19.5443 10.755 20.1263 8.78813C20.1376 8.75012 20.1505 8.71212 20.1644 8.66893C20.2984 8.71125 20.2725 8.83305 20.2967 8.91251C20.9228 11.0227 21.542 13.1355 22.1629 15.2475C22.2234 15.4548 22.2658 15.663 22.2658 15.8815C22.2641 20.2652 22.2649 24.6489 22.2649 29.0325C22.2649 29.0844 22.2649 29.1353 22.2649 29.2899C21.7279 28.7423 21.2514 28.2551 20.7732 27.7706C20.6737 27.6695 20.7144 27.5477 20.7144 27.4345C20.7118 23.9233 20.7126 20.412 20.7126 16.9007C20.7126 16.8256 20.7135 16.7496 20.7126 16.6744C20.7083 16.2667 20.5181 16.0327 20.192 16.0344C19.8677 16.0361 19.6775 16.2693 19.6775 16.6788C19.6766 20.2436 19.674 23.8093 19.6827 27.3741C19.6835 27.622 19.6092 27.7922 19.4336 27.9589C19.0047 28.3657 18.5948 28.7915 18.1235 29.2649Z" fill="black"/>
<path d="M16.3653 4.14017C15.6649 4.83637 15.0163 5.47643 14.3746 6.12254C14.2846 6.21324 14.1869 6.20892 14.0797 6.20805C9.95203 6.20805 5.82438 6.20633 1.69673 6.21151C1.48658 6.21151 1.33957 6.1355 1.24617 5.96274C0.965113 5.44102 0.964248 4.91325 1.24358 4.39066C1.33611 4.21791 1.47966 4.13671 1.69067 4.13671C6.55081 4.14103 11.4118 4.14017 16.3653 4.14017Z" fill="black"/>
<path d="M28.9939 2.87989C28.9939 3.73071 28.9861 4.58153 28.9991 5.43235C29.0026 5.64398 28.9455 5.69926 28.7345 5.69667C27.861 5.68458 26.9876 5.68631 26.1142 5.69581C25.9308 5.69753 25.8833 5.64657 25.8833 5.46431C25.8902 3.71948 25.8902 1.97464 25.8833 0.230672C25.8824 0.0484145 25.9317 -0.00168474 26.1142 4.28241e-05C26.998 0.0095444 27.8827 0.0095444 28.7665 4.28241e-05C28.9498 -0.00168474 28.9991 0.0492783 28.9974 0.231536C28.9887 1.11346 28.9939 1.9971 28.9939 2.87989Z" fill="black"/>
<path d="M21.542 29.9871C20.6141 29.9871 19.7753 29.9871 18.8664 29.9871C19.3048 29.5474 19.7095 29.1449 20.1108 28.7398C20.2094 28.6404 20.2621 28.726 20.3201 28.783C20.711 29.1656 21.0992 29.5491 21.542 29.9871Z" fill="black"/>
<path d="M5.68863 26.3729C5.63501 26.3729 5.58053 26.3729 5.52691 26.3729C4.85064 26.3729 4.71055 26.1976 4.7633 25.5135C4.89129 23.8403 5.01063 22.1663 5.11354 20.4915C5.12997 20.2211 5.20694 20.1321 5.46897 20.1658C5.72235 20.1986 6.04319 20.0622 6.21615 20.2202C6.377 20.3671 6.28187 20.6893 6.30003 20.9337C6.42197 22.5317 6.53872 24.1306 6.65373 25.7286C6.684 26.1475 6.47213 26.3652 6.04319 26.3721C5.92558 26.3747 5.8071 26.3729 5.68863 26.3729Z" fill="black"/>
<path d="M4.50561 18.1135C5.30035 18.1135 6.09163 18.1135 6.91924 18.1135C6.76531 18.4262 6.61483 18.7268 6.46955 19.0308C6.42372 19.1267 6.34934 19.1379 6.25854 19.1353C6.14093 19.131 6.02245 19.1345 5.90397 19.1345C4.87574 19.1336 4.87574 19.1336 4.50561 18.1135Z" fill="black"/>
<path d="M11.9117 16.1312C11.9117 17.7922 11.9091 19.4049 11.916 21.0185C11.9169 21.1895 11.8477 21.2137 11.7067 21.2042C11.5675 21.1947 11.4265 21.2007 11.2864 21.2024C11.0668 21.2059 10.88 21.2353 10.7745 20.9286C10.6828 20.6617 10.33 20.6177 10.0853 20.4916C9.94343 20.4181 9.87684 20.3447 9.90451 20.1745C10.0714 19.1415 10.3006 18.1274 10.816 17.2031C11.0625 16.7592 11.3669 16.361 11.9117 16.1312Z" fill="black"/>
<path d="M11.3807 26.3704C11.2406 26.3704 11.0997 26.3799 10.9604 26.3687C10.6707 26.3445 10.458 26.1467 10.4822 25.8634C10.5817 24.6955 10.7027 23.5286 10.8117 22.3616C10.8212 22.2623 10.8662 22.2329 10.9544 22.2364C10.9864 22.2381 11.0192 22.2346 11.0512 22.2364C11.3496 22.2536 11.7387 22.1111 11.9212 22.2934C12.0812 22.4532 12.0155 22.8401 12.0449 23.1269C12.1279 23.919 12.2144 24.7102 12.2896 25.5023C12.3588 26.2305 12.2213 26.3713 11.4767 26.3713C11.4447 26.3713 11.4119 26.3713 11.3799 26.3713C11.3807 26.3721 11.3807 26.3713 11.3807 26.3704Z" fill="black"/>
</svg>
