<svg width="18" height="23" viewBox="0 0 18 23" fill="none" xmlns="http://www.w3.org/2000/svg">
<path d="M8.87904 22.9988C7.40642 23.0062 5.93446 22.9842 4.4725 22.7821C3.49275 22.6467 2.52234 22.4613 1.61929 22.0338C0.811615 21.6509 0.162669 21.1114 0.0312794 20.1643C-0.0881046 19.3066 0.132004 18.5343 0.730258 17.8867C1.28449 17.2864 1.96677 16.8576 2.66573 16.4547C3.59946 15.9158 4.54521 15.3983 5.56297 15.0288C5.74972 14.9608 5.92846 14.8727 6.09386 14.7587C6.61408 14.3992 6.76747 13.8143 6.48669 13.246C6.36063 12.9906 6.17723 12.7745 6.00449 12.5511C5.15546 11.4519 4.52386 10.2474 4.27576 8.87017C4.03165 7.51359 4.03832 6.16902 4.64325 4.89248C5.35755 3.38584 6.58006 2.5795 8.21809 2.37275C9.19317 2.24936 10.1476 2.33206 11.0473 2.7429C12.5133 3.41318 13.2882 4.61503 13.5757 6.15968C13.8732 7.75969 13.5797 9.27968 12.9148 10.7436C12.8707 10.8403 12.82 10.9064 12.7053 10.9277C12.4526 10.9751 12.2024 11.0344 11.9523 11.0951C11.859 11.1178 11.7949 11.0771 11.7236 11.0311C11.4868 10.8784 11.226 10.8083 10.9446 10.8103C10.6285 10.8123 10.3123 10.805 9.99619 10.8137C9.2392 10.8357 8.63895 11.4566 8.64762 12.2009C8.65629 12.9412 9.24653 13.5415 9.99485 13.5608C10.3523 13.5702 10.7098 13.5655 11.0673 13.5582C11.1834 13.5555 11.2554 13.5522 11.228 13.7076C11.1267 14.2898 11.4014 14.6726 11.8896 14.9508C12.4846 15.2896 13.1442 15.4716 13.7638 15.7498C14.7949 16.2126 15.8093 16.7008 16.675 17.4511C17.6201 18.2702 17.9275 19.2986 17.7088 20.5018C17.6147 21.02 17.2886 21.3962 16.8671 21.6916C16.1655 22.1825 15.3618 22.4159 14.5374 22.5847C12.818 22.9368 11.0746 22.9955 9.32657 22.9995C9.17784 22.9988 9.02844 22.9988 8.87904 22.9988Z" fill="#FFCC66"/>
<path d="M3.40938 9.21835C3.40938 9.60918 3.41605 10 3.40805 10.3908C3.39404 11.0951 2.87982 11.6034 2.1902 11.6047C1.49323 11.606 0.963009 11.0845 0.957006 10.3755C0.950337 9.60185 0.953671 8.82885 0.956339 8.05519C0.957672 7.60833 1.13574 7.24884 1.51657 7.00541C1.61194 6.94472 1.64663 6.88003 1.65397 6.76798C1.8954 3.37721 4.40247 0.648039 7.78191 0.0911363C11.5002 -0.521124 15.1997 2.01795 15.9714 5.71086C16.0447 6.061 16.1041 6.41316 16.1188 6.77064C16.1234 6.88469 16.1661 6.94605 16.2595 7.00608C16.6317 7.24418 16.8124 7.59633 16.8157 8.03251C16.8217 8.81418 16.8251 9.59585 16.8157 10.3775C16.8044 11.2932 15.9133 11.8608 15.0723 11.4926C14.9669 11.4466 14.8963 11.4199 14.7849 11.4953C13.8918 12.1042 12.8821 12.3797 11.8223 12.4991C11.7009 12.5131 11.6082 12.5338 11.5288 12.6411C11.3928 12.8252 11.1954 12.9072 10.9646 12.9066C10.6571 12.9052 10.349 12.9112 10.0415 12.9046C9.64603 12.8966 9.35257 12.6251 9.32389 12.2516C9.29321 11.8575 9.53998 11.5227 9.94282 11.486C10.3136 11.452 10.6905 11.4706 11.064 11.478C11.188 11.4806 11.3287 11.5167 11.4028 11.6154C11.5495 11.8114 11.7282 11.7901 11.9317 11.7608C12.7614 11.6407 13.5504 11.4079 14.2693 10.9631C14.3887 10.8891 14.4381 10.829 14.398 10.669C14.35 10.4796 14.366 10.2728 14.3647 10.074C14.3614 9.40843 14.3674 8.74348 14.362 8.07786C14.358 7.61833 14.5261 7.24884 14.9189 7.00474C15.033 6.93404 15.0223 6.85267 15.015 6.75397C14.8142 4.11885 12.8321 1.83922 10.2496 1.27298C6.86018 0.529995 3.57145 2.64756 2.86182 6.03033C2.83647 6.15238 2.82446 6.27643 2.79911 6.39848C2.73575 6.70728 2.72109 6.96739 3.0559 7.17748C3.30333 7.33221 3.40137 7.63834 3.40471 7.94447C3.40871 8.36865 3.40604 8.79284 3.40604 9.21702C3.40671 9.21768 3.40805 9.21835 3.40938 9.21835Z" fill="#FFCC66"/>
</svg>
