<svg width="22" height="25" viewBox="0 0 22 25" fill="none" xmlns="http://www.w3.org/2000/svg">
<g clip-path="url(#clip0_415_476)">
<path d="M20.5907 12.8163C20.5893 13.2663 20.3955 13.5077 20.0903 13.6788C18.9809 14.3021 17.8735 14.9303 16.7654 15.557C15.1465 16.4725 13.5256 17.3844 11.9106 18.3075C11.743 18.4035 11.6539 18.384 11.5229 18.2442C9.27729 15.8547 7.02706 13.4694 4.7729 11.0897C4.6465 10.9562 4.63799 10.8629 4.7192 10.7009C6.16914 7.80708 7.61254 4.9098 9.05921 2.01393C9.39059 1.3503 9.94987 1.26474 10.4541 1.79898C13.7293 5.26805 17.0038 8.73782 20.2796 12.2055C20.459 12.3954 20.5952 12.6013 20.5907 12.8163Z" fill="white"/>
<path d="M5.92487 21.8664C5.31188 21.8567 4.76373 21.6528 4.3243 21.1979C3.52925 20.3743 2.73355 19.55 1.96797 18.6958C1.12577 17.7567 1.13232 16.2652 1.97518 15.3248C2.68443 14.5331 3.4297 13.7784 4.15009 12.9979C4.29614 12.8393 4.34132 12.9882 4.40878 13.0598C6.07549 14.8232 7.74025 16.588 9.40565 18.3528C9.81562 18.7876 9.81562 18.7883 9.40696 19.2203C8.81035 19.8505 8.21439 20.4807 7.61712 21.111C7.14953 21.6042 6.58501 21.8553 5.92487 21.8664Z" fill="white"/>
<path d="M12.8799 23.0636C12.8511 23.7495 12.5053 24.4034 11.7731 24.772C11.0357 25.1435 10.3068 25.0663 9.6866 24.5035C9.15352 24.0201 8.67871 23.465 8.17837 22.9405C8.13318 22.8932 8.07752 22.8591 8.16789 22.7826C9.11291 21.9875 9.89617 21.0136 10.7639 20.1329C10.8988 19.9959 10.9663 19.9813 11.1005 20.1315C11.483 20.5593 11.8838 20.9684 12.2761 21.3864C12.669 21.8052 12.8819 22.3047 12.8799 23.0636Z" fill="white"/>
<path d="M0.159792 18.9524C1.33795 20.4932 2.64644 21.89 4.08525 23.1157C3.40678 23.4531 2.06948 23.3703 1.12511 22.5077C0.131632 21.6013 -0.24428 20.201 0.159792 18.9524Z" fill="white"/>
<path d="M17.2448 5.82863C16.9776 5.8175 16.7307 5.67281 16.5873 5.36534C16.4393 5.04814 16.4596 4.72328 16.6875 4.47077C17.2343 3.86349 17.7936 3.26873 18.3673 2.68998C18.6587 2.39573 19.1256 2.44094 19.4112 2.74145C19.6961 3.04126 19.7432 3.53794 19.4668 3.84749C18.9161 4.46242 18.343 5.0544 17.7713 5.64846C17.6462 5.77715 17.4753 5.82654 17.2448 5.82863Z" fill="white"/>
<path d="M13.3593 1.66401C13.3593 1.38715 13.3547 1.11029 13.3606 0.833436C13.3704 0.363891 13.7051 0.0063405 14.1334 7.9889e-05C14.5702 -0.00618072 14.9225 0.356239 14.9291 0.835523C14.9363 1.38924 14.9363 1.94295 14.9291 2.49667C14.9225 2.97526 14.5689 3.33768 14.1321 3.33072C13.707 3.32377 13.3704 2.96204 13.3606 2.49528C13.3547 2.21842 13.3593 1.94087 13.3593 1.66401Z" fill="white"/>
<path d="M20.421 9.16011C20.1597 9.16011 19.8984 9.16637 19.6378 9.15872C19.1997 9.1462 18.8611 8.78169 18.8591 8.33093C18.8571 7.87669 19.1918 7.50522 19.6299 7.49688C20.1604 7.48714 20.6909 7.48783 21.2213 7.49618C21.6595 7.50314 21.998 7.87182 22 8.32258C22.002 8.77543 21.666 9.14411 21.2292 9.15802C20.96 9.16707 20.6902 9.16011 20.421 9.16011Z" fill="white"/>
</g>
<defs>
<clipPath id="clip0_415_476">
<rect width="22" height="25" fill="white"/>
</clipPath>
</defs>
</svg>
