<svg width="48" height="31" viewBox="0 0 48 31" fill="none" xmlns="http://www.w3.org/2000/svg">
<path d="M36.8596 28.2791C36.3 28.8118 35.7535 28.8403 35.152 28.637C32.9639 27.8995 30.7724 27.1705 28.5817 26.4389C25.3814 25.3698 22.183 24.2939 18.9782 23.2391C18.6453 23.1298 18.5558 22.988 18.5621 22.6475C18.6592 16.8192 18.7454 10.9896 18.8196 5.16145C18.8239 4.8345 18.9286 4.71247 19.2331 4.62817C24.6703 3.123 30.1035 1.60498 35.5391 0.0929697C36.7846 -0.253714 37.6042 0.389584 37.5853 1.69561C37.4632 10.1772 37.3394 18.6587 37.2199 27.1395C37.2134 27.604 37.132 28.03 36.8596 28.2791Z" fill="#FFCC66"/>
<path d="M6.9297 19.4927C6.15973 18.6647 5.71306 17.6926 5.7164 16.5671C5.72309 14.5302 5.72981 12.4915 5.81205 10.4575C5.90173 8.22065 7.75896 6.45834 10.0002 6.46412C11.8864 6.46873 13.7729 6.56509 15.6595 6.59775C16.0424 6.60393 15.9156 6.84088 15.9128 7.01581C15.8531 11.3297 15.7893 15.6426 15.7262 19.9564C15.7103 21.0187 15.7094 21.0195 14.6526 20.9882C13.1101 20.942 11.5685 20.8966 10.0252 20.8495C8.81724 20.8124 7.78571 20.3587 6.9297 19.4927Z" fill="#FFCC66"/>
<path d="M14.319 30.1777C13.4319 30.9538 12.1802 31.2697 10.789 30.7323C9.3877 30.1913 8.55348 29.1288 8.45988 27.6345C8.37909 26.3504 8.46149 25.0588 8.47336 23.7696C8.47435 23.6532 8.44558 23.5386 8.65574 23.5681C10.8471 23.8826 13.0536 23.7694 15.2524 23.8793C15.5944 23.8963 15.6986 23.9688 15.6836 24.326C15.6412 25.3434 15.6455 26.363 15.6277 27.3819C15.6099 28.4025 15.2623 29.2791 14.319 30.1777Z" fill="#FFCC66"/>
<path d="M3.18694 8.35399C2.77995 11.7528 2.71774 15.1543 3.03392 18.5261C1.75008 18.0231 0.14656 16.1436 0.0110462 13.8616C-0.132804 11.462 1.12351 9.29855 3.18694 8.35399Z" fill="#FFCC66"/>
<path d="M41.2531 15.5251C40.9261 15.156 40.7904 14.6554 40.9886 14.0992C41.193 13.5254 41.6216 13.1667 42.2254 13.1704C43.6759 13.1776 45.1268 13.2162 46.5761 13.2931C47.3127 13.3318 47.8524 14.0074 47.8442 14.7446C47.8359 15.48 47.2804 16.1326 46.544 16.1321C45.0791 16.1288 43.6141 16.0685 42.1483 16.0125C41.8291 15.9987 41.5498 15.8297 41.2531 15.5251Z" fill="#FFCC66"/>
<path d="M41.459 5.40446C41.8022 5.0757 42.1396 4.74083 42.4903 4.41991C43.085 3.87542 43.9552 3.89655 44.5094 4.45957C45.0744 5.03393 45.0746 5.93356 44.4888 6.51143C43.8116 7.17855 43.1252 7.83608 42.4296 8.48401C41.8279 9.04361 40.9274 9.00296 40.3788 8.41291C39.8451 7.83856 39.8641 6.96068 40.4302 6.39332C40.7659 6.05671 41.1158 5.73323 41.459 5.40446Z" fill="#FFCC66"/>
<path d="M41.1758 23.7116C40.8424 23.3635 40.5012 23.0229 40.1782 22.6667C39.6347 22.0683 39.6547 21.1845 40.2109 20.6466C40.7716 20.1046 41.659 20.1092 42.2283 20.6828C42.9172 21.3778 43.5931 22.0851 44.2595 22.8016C44.8098 23.3934 44.7848 24.2821 44.2285 24.82C43.6696 25.3604 42.7839 25.3507 42.2094 24.7854C41.8548 24.4377 41.5192 24.07 41.1758 23.7116Z" fill="#FFCC66"/>
</svg>
