<svg width="23" height="22" viewBox="0 0 23 22" fill="none" xmlns="http://www.w3.org/2000/svg">
<path d="M9.54753 21.9953C9.74311 21.4652 9.68579 20.9391 9.68713 20.4182C9.69118 18.733 9.69051 17.0483 9.68579 15.363C9.68511 15.2063 9.7303 15.0888 9.83213 14.9675C12.9135 11.2728 10.8424 5.73154 6.04194 4.82691C5.71216 4.76459 5.37765 4.71998 5.04112 4.72195C4.89949 4.7226 4.83745 4.70358 4.84014 4.53958C4.85093 3.79566 4.83542 3.05109 4.84824 2.30653C4.86982 1.05814 5.91515 0.0177162 7.19519 0.0105001C10.1215 -0.00458808 13.0477 0.00722005 15.974 3.97028e-06C16.1568 -0.000652037 16.15 0.0800369 16.1493 0.204022C16.1466 1.40648 16.1466 2.60895 16.148 3.81141C16.1493 5.28283 17.1832 6.28652 18.6979 6.28718C19.9254 6.28784 21.1535 6.29243 22.3809 6.28259C22.5731 6.28128 22.6115 6.33048 22.6109 6.51022C22.6055 10.8615 22.6082 15.2135 22.6055 19.5648C22.6048 20.9732 21.5561 21.9927 20.1095 21.994C16.6531 21.9966 13.1974 21.9946 9.74109 21.9946C9.69186 21.9953 9.64195 21.9953 9.54753 21.9953ZM15.3144 18.0684C16.3557 18.0684 17.3977 18.0691 18.439 18.0678C18.5395 18.0678 18.6426 18.0697 18.7398 18.0494C19.1451 17.9628 19.4175 17.5922 19.3737 17.1979C19.3292 16.7964 18.9832 16.4992 18.5408 16.4992C16.407 16.4966 14.2738 16.4979 12.14 16.4992C12.0651 16.4992 11.9882 16.5052 11.9161 16.5235C11.5188 16.6232 11.2639 16.9794 11.3064 17.3685C11.3489 17.7608 11.6901 18.0651 12.1137 18.0671C13.1813 18.0717 14.2482 18.0684 15.3144 18.0684ZM16.148 10.2147C16.929 10.2147 17.7099 10.216 18.4909 10.214C19.0061 10.2127 19.3703 9.8926 19.3764 9.44061C19.3831 8.97681 19.0156 8.64421 18.4895 8.64421C16.9276 8.6429 15.3657 8.6429 13.8037 8.64421C13.2865 8.64487 12.925 8.96238 12.9182 9.41699C12.9115 9.88079 13.279 10.2134 13.8044 10.2147C14.5861 10.216 15.367 10.2147 16.148 10.2147ZM16.1473 14.1416C16.9283 14.1416 17.7093 14.1429 18.4902 14.1409C19.0163 14.1396 19.3831 13.8076 19.3764 13.3439C19.3697 12.8919 19.0055 12.5717 18.4902 12.5711C16.9283 12.5698 15.3663 12.5698 13.8044 12.5711C13.2871 12.5717 12.9257 12.8892 12.9182 13.3425C12.9108 13.8063 13.2784 14.1396 13.8037 14.1409C14.5854 14.1429 15.3663 14.1416 16.1473 14.1416ZM12.5271 4.7167C12.1325 4.7167 11.738 4.71407 11.3442 4.71735C10.8545 4.72129 10.4971 5.05389 10.4971 5.50128C10.4964 5.94671 10.8559 6.28456 11.3435 6.28652C12.1238 6.29046 12.9041 6.2898 13.6844 6.28652C14.172 6.28456 14.5321 5.94671 14.5321 5.50259C14.5328 5.05848 14.172 4.72195 13.685 4.71735C13.2993 4.71407 12.9135 4.7167 12.5271 4.7167Z" fill="#FFCC66"/>
<path d="M9.68862 11.0131C9.68255 13.6089 7.50758 15.7154 4.83691 15.7121C2.15815 15.7095 -0.0100809 13.5853 3.52552e-05 10.9744C0.0101514 8.38056 2.19052 6.28003 4.86456 6.2879C7.53321 6.29577 9.69469 8.41336 9.68862 11.0131Z" fill="#FFCC66"/>
<path d="M8.07354 16.4475C8.07354 18.0515 8.07624 19.6292 8.07152 21.2069C8.07017 21.5611 7.88066 21.8117 7.54346 21.9409C7.22109 22.0649 6.92907 21.9888 6.68763 21.7559C6.12045 21.2095 5.55462 20.6604 4.99891 20.1028C4.87279 19.9762 4.80805 19.9873 4.68868 20.1074C4.15589 20.6407 3.60894 21.1616 3.07346 21.6923C2.80033 21.9632 2.4874 22.08 2.11715 21.9278C1.74959 21.7763 1.61201 21.4824 1.61336 21.1012C1.61876 19.557 1.61539 18.0128 1.61539 16.4456C3.76608 17.5595 5.90599 17.5647 8.07354 16.4475Z" fill="#FFCC66"/>
<path d="M17.7638 0.512474C19.2117 1.91961 20.6415 3.30903 22.0895 4.71683C22.0025 4.71683 21.9229 4.71683 21.8433 4.71683C20.7838 4.71683 19.7243 4.71748 18.6648 4.71617C18.0862 4.71551 17.7638 4.39932 17.7638 3.83318C17.7631 2.73109 17.7638 1.62834 17.7638 0.512474Z" fill="#FFCC66"/>
</svg>
