<svg width="23" height="17" viewBox="0 0 23 17" fill="none" xmlns="http://www.w3.org/2000/svg">
<path d="M0.000591638 8.98703C0.0804627 8.95449 0.0573889 8.87284 0.0715882 8.81604C0.393439 7.54639 1.39686 6.6826 2.70852 6.61988C3.5025 6.58202 4.30239 6.55954 5.09578 6.64296C5.76492 6.71336 6.32402 7.02693 6.79023 7.51148C6.87779 7.60259 6.86004 7.63809 6.76183 7.70436C5.18689 8.76694 4.2237 10.233 3.87464 12.1014C3.81488 12.4209 3.79536 12.7451 3.7782 13.0687C3.77406 13.151 3.78707 13.2285 3.6581 13.2273C3.02386 13.219 2.38785 13.2492 1.75598 13.2066C0.911122 13.1492 0.317118 12.6321 0.0638969 11.8162C0.0502892 11.7719 0.0668551 11.7074 0 11.6873C0.000591638 10.7874 0.000591638 9.88691 0.000591638 8.98703Z" fill="#FFCC66"/>
<path d="M11.336 16.9993C10.4142 16.9993 9.49182 17.0005 8.57005 16.9993C6.91109 16.9964 5.66925 15.7498 5.66747 14.0867C5.66688 13.3649 5.64262 12.6443 5.8426 11.9355C6.40229 9.94878 8.23814 8.52056 10.3024 8.50459C11.1573 8.49808 12.0134 8.45193 12.8671 8.54068C14.8384 8.74538 16.5773 10.3635 16.9092 12.3189C17.0506 13.1513 17.0896 13.9974 16.9104 14.8251C16.6364 16.0912 15.4893 16.9833 14.1912 16.9993C14.1764 16.9993 14.1616 16.9993 14.1468 16.9993C13.2097 16.9993 12.2731 16.9993 11.336 16.9993Z" fill="#FFCC66"/>
<path d="M15.1069 3.77347C15.1081 5.86373 13.4166 7.55995 11.3322 7.55877C9.2479 7.55759 7.55759 5.85959 7.56055 3.76992C7.5641 1.68736 9.24494 0.00355542 11.3245 5.59666e-06C13.416 -0.00354423 15.1057 1.68203 15.1069 3.77347Z" fill="#FFCC66"/>
<path d="M22.6556 10.3554C22.6556 10.7536 22.6946 11.1565 22.6479 11.5488C22.5295 12.5439 21.7421 13.2131 20.7191 13.2243C20.1736 13.2302 19.6276 13.219 19.0815 13.2296C18.9217 13.2326 18.8904 13.1787 18.885 13.0308C18.8294 11.5157 18.3212 10.1691 17.3574 8.99705C16.9468 8.4983 16.4712 8.06936 15.928 7.72029C15.792 7.63273 15.8044 7.58422 15.9044 7.48246C16.4238 6.95649 17.0498 6.64647 17.7864 6.61985C18.5744 6.59145 19.3655 6.56305 20.1517 6.63641C21.5208 6.76421 22.6272 7.96346 22.6632 9.33665C22.6721 9.67566 22.6644 10.0153 22.6644 10.3543C22.6621 10.3554 22.6585 10.3554 22.6556 10.3554Z" fill="#FFCC66"/>
<path d="M6.60662 2.84344C6.60129 4.41365 5.32809 5.67384 3.75551 5.66614C2.2072 5.65905 0.933994 4.37164 0.941685 2.82214C0.949968 1.25608 2.22968 -0.00706987 3.7993 2.97822e-05C5.3553 0.00712944 6.61253 1.28093 6.60662 2.84344Z" fill="#FFCC66"/>
<path d="M16.0601 2.82274C16.0654 1.25017 17.3362 -0.00824227 18.9106 4.06549e-05C20.4619 0.00832358 21.7339 1.29336 21.7256 2.84286C21.7173 4.40774 20.4352 5.67503 18.8686 5.66616C17.312 5.65787 16.0548 4.38467 16.0601 2.82274Z" fill="#FFCC66"/>
</svg>
