<svg width="16" height="22" viewBox="0 0 16 22" fill="none" xmlns="http://www.w3.org/2000/svg">
<g clip-path="url(#clip0_917_41)">
<path d="M0.00383627 22C0.00383627 14.7419 0.00438431 7.48374 0 0.225606C0 0.0551039 0.0252098 -0.0109156 0.204967 0.0011401C0.483918 0.0200848 0.765062 0.0149181 1.04511 0.00228826C1.19034 -0.00402665 1.2446 0.0252516 1.23857 0.19518C1.22432 0.609668 1.23364 1.0253 1.23418 1.44037C1.23418 1.50983 1.22487 1.57413 1.30598 1.61891C2.32807 2.19012 3.38414 2.6379 4.57284 2.57533C5.45737 2.52883 6.25696 2.18782 7.02805 1.75956C7.78051 1.3422 8.50995 0.879487 9.29529 0.528722C11.0523 -0.255475 12.7797 -0.115973 14.4858 0.711855C14.9626 0.94321 15.4224 1.20729 15.8657 1.50294C15.9534 1.5615 16 1.61718 16 1.73774C15.9962 5.60304 15.9967 9.46834 15.9967 13.3331C15.9967 13.36 15.9929 13.387 15.9885 13.4444C15.7479 13.2768 15.5216 13.1229 15.2991 12.9634C14.5554 12.4323 13.7514 12.0351 12.8844 11.7807C11.6804 11.4277 10.53 11.6177 9.43011 12.1941C8.63819 12.6091 7.86765 13.069 7.07409 13.48C6.15009 13.9588 5.16965 14.2183 4.13057 14.177C3.18191 14.1391 2.29574 13.8411 1.43586 13.4416C1.37558 13.4134 1.32351 13.36 1.23364 13.3732C1.23364 16.2488 1.23364 19.1238 1.23364 21.9988C0.823703 22 0.413769 22 0.00383627 22ZM1.25446 3.04837C1.24405 3.07765 1.23583 3.09028 1.23583 3.10234C1.23473 5.99399 1.23528 8.88564 1.23199 11.7767C1.23199 11.876 1.27583 11.9145 1.34653 11.9507C1.5789 12.0695 1.80853 12.1952 2.04254 12.31C3.5913 13.0719 5.1291 13.0879 6.66799 12.2613C7.44401 11.8445 8.19264 11.3749 8.98291 10.9856C10.4675 10.2543 11.9856 10.0998 13.5563 10.6481C13.9618 10.7893 14.3553 10.961 14.7477 11.1378C14.7576 11.1102 14.7664 11.0982 14.7664 11.0855C14.7675 8.19388 14.7669 5.30222 14.7702 2.41114C14.7702 2.31182 14.7264 2.27336 14.6557 2.23719C14.3921 2.10343 14.1323 1.96163 13.8665 1.83419C12.3353 1.10108 10.8172 1.11371 9.31886 1.93982C8.65573 2.30551 7.99808 2.68211 7.33331 3.04435C5.71221 3.92672 4.03686 4.14315 2.2908 3.48754C1.93896 3.35608 1.59644 3.20395 1.25446 3.04837Z" fill="white"/>
</g>
<defs>
<clipPath id="clip0_917_41">
<rect width="16" height="22" fill="white"/>
</clipPath>
</defs>
</svg>
