<svg width="31" height="31" viewBox="0 0 31 31" fill="none" xmlns="http://www.w3.org/2000/svg">
<g clip-path="url(#clip0_273_59)">
<path d="M3.08882 31C2.59424 30.7712 2.43161 30.3798 2.40187 29.8428C2.17674 25.8452 1.92793 21.8483 1.68398 17.8519C1.51346 15.0534 1.3399 12.2548 1.16149 9.45627C1.14935 9.26513 1.18273 9.20203 1.39148 9.20203C7.12312 9.20809 12.8541 9.20809 18.5858 9.20263C18.7854 9.20263 18.8376 9.25118 18.8218 9.45203C18.7697 10.0952 18.7314 10.7403 18.7041 11.3847C18.6956 11.5795 18.6362 11.6353 18.4389 11.6335C17.4298 11.6231 16.4206 11.6195 15.412 11.6322C11.6441 11.6796 8.43936 14.6189 8.04006 18.3683C7.9466 19.2445 7.97513 20.0795 8.53403 20.8179C8.85626 21.2439 9.27074 21.5479 9.7641 21.7846C9.53957 22.1808 9.34781 22.608 9.26467 23.0776C9.11114 23.9454 9.25132 24.7621 9.684 25.5273C9.75136 25.6462 9.78777 25.7075 9.62149 25.7912C8.29493 26.4629 7.75909 27.6426 8.07647 29.1438C8.20512 29.7518 8.43572 30.3143 8.78162 30.8313C8.81257 30.8774 8.91149 30.9132 8.84048 30.9994C6.92347 31 5.00584 31 3.08882 31Z" fill="#010101"/>
<path d="M31 19.4374C30.7597 19.9623 30.3446 20.1128 29.7826 20.1116C23.497 20.0982 17.2113 20.1031 10.9256 20.1031C10.127 20.1031 9.79018 19.7548 9.81263 18.9526C9.88849 16.2226 12.1029 13.8076 14.8082 13.4957C15.1201 13.4599 15.4308 13.4441 15.7439 13.4441C18.8413 13.4447 21.9392 13.4793 25.0359 13.4344C28.1606 13.3889 30.5715 15.6559 30.9393 18.3816C30.9448 18.4235 30.9508 18.4599 31 18.469C31 18.7918 31 19.1146 31 19.4374Z" fill="black"/>
<path d="M12.0495 30.9999C11.9754 30.9016 11.8553 30.9119 11.7545 30.8828C10.6555 30.5655 9.84238 29.5206 9.81204 28.3804C9.79565 27.7657 10.1737 27.3695 10.7897 27.3689C12.3929 27.3664 13.9962 27.3683 15.6001 27.3683C20.3299 27.3683 25.0596 27.3749 29.7887 27.3598C30.3507 27.3579 30.7597 27.5145 31 28.0345C31 28.2966 31 28.5594 31 28.8215C30.8889 28.8731 30.909 28.9878 30.8792 29.077C30.5904 29.9423 30.0163 30.5297 29.1649 30.8537C29.012 30.9119 28.8354 30.8931 28.6994 31.0005C23.1492 30.9999 17.5997 30.9999 12.0495 30.9999Z" fill="black"/>
<path d="M20.4069 25.5515C17.8849 25.5515 15.3634 25.5576 12.8414 25.5479C12.0907 25.5449 11.5264 25.1893 11.2005 24.5091C10.8855 23.8513 10.9638 23.2093 11.4001 22.631C11.7691 22.1413 12.2825 21.918 12.8972 21.9186C15.0964 21.9205 17.295 21.9193 19.4942 21.9193C22.3185 21.9193 25.1427 21.9138 27.9676 21.9235C28.7316 21.9259 29.3008 22.2906 29.6194 22.989C29.9337 23.6771 29.8276 24.3313 29.3512 24.9102C28.9755 25.3659 28.47 25.5546 27.8814 25.5534C25.3903 25.5497 22.8986 25.5515 20.4069 25.5515Z" fill="black"/>
<path d="M11.6683 5.57454C14.1466 5.57454 16.5679 5.57333 18.9892 5.57515C19.7053 5.57576 20.1629 6.1868 19.9141 6.80998C19.7745 7.1595 19.5032 7.34699 19.1318 7.38765C19.042 7.39736 18.9504 7.39068 18.8594 7.39068C12.9469 7.39068 7.03441 7.39068 1.12193 7.39008C0.991461 7.39008 0.856742 7.39675 0.730519 7.37066C0.272352 7.27539 -0.0401727 6.84882 0.00352006 6.39675C0.050247 5.9186 0.441054 5.57636 0.960512 5.57576C3.69495 5.57333 6.42878 5.5709 9.16322 5.58122C9.41688 5.58243 9.55524 5.50416 9.69057 5.2936C10.7095 3.70986 11.7484 2.13947 12.7673 0.555733C13.0161 0.169204 13.3322 -0.00616003 13.7934 -9.2073e-05C14.9131 0.0156846 16.0333 0.0041555 17.1529 0.00536909C17.7446 0.00597589 18.1542 0.370054 18.1627 0.897966C18.1718 1.43923 17.7579 1.81969 17.1529 1.8209C16.2147 1.82272 15.2766 1.8209 14.3378 1.82212C14.2316 1.82212 14.126 1.79663 14.0465 1.91981C13.2667 3.12612 12.4802 4.32879 11.6683 5.57454Z" fill="#010101"/>
</g>
<defs>
<clipPath id="clip0_273_59">
<rect width="31" height="31" fill="white"/>
</clipPath>
</defs>
</svg>
