<svg width="25" height="25" viewBox="0 0 25 25" fill="none" xmlns="http://www.w3.org/2000/svg">
<g clip-path="url(#clip0_467_115)">
<path d="M0 13.9182C0.365561 13.1323 0.669324 12.3212 0.998329 11.5206C1.73989 9.72178 2.4745 7.92033 3.21171 6.11976C3.23608 6.06145 3.25436 6.00054 3.28569 5.9109C2.73909 5.9109 2.21425 5.90394 1.69028 5.91525C1.51969 5.91873 1.44745 5.89262 1.45876 5.69681C1.47878 5.36437 1.48313 5.02845 1.45789 4.69688C1.44048 4.46452 1.53013 4.4419 1.72771 4.44277C4.5434 4.44886 7.35821 4.44538 10.1739 4.4506C10.3515 4.4506 10.4559 4.42275 10.5377 4.23478C10.7449 3.75439 11.1122 3.4089 11.5891 3.19829C11.7371 3.13302 11.7711 3.05992 11.7702 2.91198C11.7641 2.00865 11.7711 1.10619 11.7632 0.202854C11.7623 0.0479471 11.7963 -0.00513888 11.9608 0.000952948C12.3185 0.0148771 12.6771 0.0131366 13.0348 0.00182321C13.1915 -0.00339836 13.2376 0.0366337 13.2368 0.199373C13.2281 1.1027 13.2359 2.00516 13.2298 2.9085C13.2289 3.0547 13.2594 3.13215 13.4074 3.19655C13.9035 3.41238 14.2673 3.77876 14.484 4.27394C14.5493 4.42362 14.6276 4.4506 14.773 4.4506C17.6131 4.44625 20.4522 4.4506 23.2923 4.44277C23.4986 4.4419 23.5508 4.49324 23.5404 4.69427C23.5221 5.04325 23.5282 5.39396 23.5386 5.74381C23.543 5.88566 23.4968 5.91786 23.3619 5.91612C22.8179 5.90916 22.274 5.91264 21.6943 5.91264C21.8031 6.17981 21.9014 6.42609 22.0024 6.67064C22.979 9.04732 23.9538 11.4257 24.9356 13.8007C25.054 14.087 24.9869 14.3646 24.9365 14.6388C24.6196 16.3575 23.1191 17.6177 21.3714 17.6264C20.689 17.6298 20.0049 17.6751 19.3242 17.5855C17.6461 17.3644 16.2692 15.8415 16.2126 14.1488C16.2083 14.0235 16.2335 13.9112 16.2805 13.7955C17.3224 11.2526 18.3625 8.70879 19.4026 6.16501C19.433 6.09104 19.4609 6.01707 19.4887 5.94484C19.4191 5.89175 19.353 5.91438 19.2929 5.91438C17.788 5.91264 16.2822 5.91612 14.7774 5.90916C14.6137 5.90829 14.5432 5.95789 14.4762 6.10671C14.2577 6.59057 13.8983 6.94999 13.4109 7.16408C13.2655 7.2276 13.2298 7.30158 13.2298 7.45039C13.2342 10.7939 13.235 14.1375 13.2289 17.4819C13.2289 17.6568 13.2768 17.723 13.4483 17.7726C14.7791 18.1555 15.6364 19.0196 16.0368 20.3451C16.0864 20.5104 16.0725 20.5652 15.8793 20.5644C13.625 20.5583 11.3715 20.5574 9.11726 20.5644C8.91272 20.5652 8.91968 20.4947 8.96581 20.3407C9.36096 19.0231 10.2165 18.1642 11.5334 17.7787C11.7328 17.7203 11.7719 17.6412 11.7719 17.4523C11.7658 14.1331 11.7658 10.814 11.7728 7.4939C11.7728 7.30419 11.7197 7.21629 11.5448 7.1371C11.06 6.91779 10.7153 6.54532 10.502 6.05797C10.4585 5.95789 10.4159 5.90916 10.2931 5.90916C8.72297 5.91438 7.15193 5.91264 5.58176 5.91351C5.56 5.91351 5.53737 5.92221 5.49037 5.93265C5.62441 6.26161 5.7541 6.58274 5.88553 6.903C6.81945 9.17525 7.74902 11.4484 8.69338 13.7163C8.85875 14.1131 8.76649 14.4873 8.67597 14.8598C8.28778 16.4611 6.82641 17.6159 5.17704 17.6255C4.51119 17.6298 3.841 17.6821 3.17864 17.5907C1.62413 17.3766 0.428228 16.2661 0.0835567 14.7449C0.0652787 14.6657 0.0905198 14.563 0 14.5056C0 14.3089 0 14.1131 0 13.9182ZM1.83564 13.2254C3.55203 13.2254 5.23796 13.2254 6.95349 13.2254C6.10225 11.1829 5.25885 9.15871 4.39369 7.08314C3.52679 9.16568 2.68426 11.1873 1.83564 13.2254ZM20.6046 7.08227C19.7368 9.16568 18.8943 11.1873 18.0456 13.2254C19.762 13.2254 21.448 13.2254 23.1635 13.2254C22.314 11.1856 21.4715 9.16394 20.6046 7.08227Z" fill="#FFCC66"/>
<path d="M5.90861 25C5.9147 24.6432 5.8825 24.2794 5.93472 23.9296C6.10706 22.7695 7.00007 22.0237 8.18379 22.0228C11.0613 22.0211 13.9388 22.0219 16.8154 22.0219C16.9781 22.0219 17.1392 22.0341 17.3002 22.0628C18.2898 22.2386 19.0531 23.1124 19.0871 24.1228C19.0966 24.4152 19.0906 24.7076 19.0914 25C14.6969 25 10.3032 25 5.90861 25Z" fill="#FFCC66"/>
</g>
<defs>
<clipPath id="clip0_467_115">
<rect width="25" height="25" fill="white"/>
</clipPath>
</defs>
</svg>
