<svg width="5" height="6" viewBox="0 0 5 6" fill="none" xmlns="http://www.w3.org/2000/svg">
<path d="M2.84692 4.72271C2.8414 4.71982 2.83587 4.71692 2.83035 4.71403C2.82759 4.69955 2.81654 4.69666 2.8055 4.69666C2.77789 4.69087 2.75303 4.69666 2.72818 4.71113C2.24495 4.9775 1.76172 5.24676 1.27573 5.51312C1.24812 5.5276 1.2205 5.54787 1.18461 5.55076C1.06587 5.56234 0.980268 5.46391 0.999597 5.33941C1.04378 5.07015 1.08796 4.80089 1.13214 4.52873C1.18461 4.21315 1.23431 3.90046 1.28677 3.58487C1.2923 3.55013 1.27297 3.53565 1.2564 3.51828C1.00236 3.2577 0.745556 2.99713 0.491515 2.73655C0.358971 2.60337 0.226428 2.4644 0.0911235 2.33121C0.0552264 2.29358 0.0220905 2.25304 0 2.20672C0 2.17776 0 2.14592 0 2.11696C0.0469424 1.98378 0.162918 1.98378 0.267848 1.9693C0.555025 1.92588 0.844963 1.88245 1.13214 1.83612C1.36133 1.80138 1.59052 1.76374 1.82247 1.73189C1.85008 1.7261 1.86389 1.71163 1.8777 1.68557C2.12345 1.15863 2.37197 0.634582 2.62049 0.107641C2.65363 0.0381544 2.70609 -0.00527481 2.78617 0.000515746C2.78341 0.0294685 2.79445 0.0526308 2.80274 0.0786883C2.89662 0.356635 2.99051 0.634582 3.08439 0.912528C3.20865 1.27733 3.33015 1.64214 3.45441 2.00694C3.46269 2.033 3.47374 2.04748 3.50135 2.05327C3.61456 2.07064 3.72778 2.09091 3.84099 2.10828C4.026 2.13723 4.21377 2.16618 4.40154 2.19224C4.58931 2.22119 4.77432 2.25015 4.95933 2.2791C4.97313 2.28199 4.99246 2.2762 4.99798 2.29068C5.00627 2.31095 4.98694 2.31963 4.97589 2.33121C4.83507 2.47308 4.69976 2.62074 4.55894 2.75972C4.35736 2.95659 4.16407 3.16505 3.96525 3.36483C3.91831 3.41115 3.89622 3.45169 3.91003 3.52696C3.95973 3.80491 4.00391 4.08286 4.04809 4.3608C4.08399 4.58085 4.11989 4.80089 4.15854 5.02382C4.16407 5.05278 4.15302 5.05567 4.12817 5.04988C4.11436 5.04409 4.10056 5.04119 4.08675 5.0383C3.69188 4.93407 3.29977 4.82984 2.90491 4.72561C2.88834 4.71403 2.86625 4.69376 2.84692 4.72271Z" fill="#FECA2B"/>
</svg>
