<svg width="20" height="29" viewBox="0 0 20 29" fill="none" xmlns="http://www.w3.org/2000/svg">
<path d="M14.9821 29C13.3827 27.9388 11.8318 26.9092 10.2808 25.8805C9.42837 25.3146 8.57359 24.755 7.72662 24.1791C7.56332 24.0686 7.44612 24.0731 7.28282 24.1827C4.95755 25.7348 2.62838 27.2777 0.299215 28.8207C0.217956 28.8742 0.145291 28.9593 0.0155893 28.9566C0.0155893 28.8334 0.0155893 28.7139 0.0155893 28.5953C0.0155893 22.3608 0.0148079 16.1273 0.0171519 9.89285C0.0171519 9.40841 -0.0375417 8.92486 0.0484055 8.4386C0.320311 6.89471 1.49154 5.76644 2.84794 5.809C3.92931 5.84251 5.01068 5.82621 6.09206 5.83073C7.93367 5.83798 9.77529 5.83526 11.6169 5.83073C12.0349 5.82983 12.4506 5.7764 12.8663 5.89593C14.2258 6.28621 15.1603 7.82738 15.0017 9.43285C14.986 9.58951 14.9837 9.74888 14.9837 9.90644C14.9829 16.1291 14.9829 22.3518 14.9829 28.5744C14.9821 28.6985 14.9821 28.8226 14.9821 29ZM7.51331 12.3106C7.48518 12.268 7.47034 12.2517 7.46252 12.2318C7.08045 11.2928 6.44757 10.7649 5.54824 10.8138C4.56923 10.8672 3.91525 11.4974 3.62147 12.5768C3.21908 14.0573 3.51989 15.411 4.26685 16.6498C4.96146 17.8016 5.91235 18.6156 6.92887 19.3518C7.34064 19.6497 7.66177 19.657 8.079 19.3527C9.23773 18.507 10.3113 17.568 11.0012 16.1581C11.5692 14.9954 11.7427 13.7621 11.3528 12.4745C11.0387 11.4377 10.3222 10.8409 9.39243 10.8011C8.60562 10.7667 7.90164 11.329 7.51331 12.3106Z" fill="#010101"/>
<path d="M19.9811 13.0132C19.9811 16.2948 19.9788 19.5754 19.985 22.857C19.9858 23.1359 19.9647 23.2219 19.717 23.0517C18.8716 22.4722 18.0184 21.9089 17.1621 21.3521C16.9425 21.209 16.8417 21.0279 16.8425 20.73C16.8503 16.849 16.8417 12.9679 16.8581 9.08782C16.8706 6.00637 14.7188 3.57779 12.0623 3.63574C9.83154 3.68464 7.60003 3.65295 5.36853 3.66291C5.11538 3.66381 5.02318 3.53251 5.01771 3.25271C4.98099 1.35748 6.45303 -0.199999 8.07509 0.020946C8.19073 0.0363397 8.30793 0.0435838 8.42435 0.0435838C11.1332 0.0444893 13.8421 0.0490169 16.551 0.0399618C16.998 0.0381507 17.4402 -0.0261405 17.884 0.114214C19.1435 0.511733 19.9991 1.79394 19.9991 3.30614C19.9983 6.54153 19.9991 9.77782 19.9991 13.0132C19.9928 13.0132 19.9874 13.0132 19.9811 13.0132Z" fill="#020202"/>
</svg>
