<svg width="18" height="21" viewBox="0 0 18 21" fill="none" xmlns="http://www.w3.org/2000/svg">
<path d="M16.5532 20.9993C16.4008 20.9993 16.2485 20.9993 16.0962 20.9993C16.0894 20.9664 16.0641 20.9621 16.0364 20.9566C15.6349 20.8799 15.3185 20.6637 15.0287 20.3879C13.0719 18.5251 11.1096 16.669 9.15533 14.8044C9.02275 14.6777 8.96046 14.6868 8.83404 14.8074C6.9889 16.5673 5.13636 18.3199 3.28937 20.0791C2.87865 20.4701 2.48335 20.875 1.89441 20.9999C1.70077 20.9999 1.50713 20.9999 1.31287 20.9999C1.28882 20.9366 1.22345 20.9414 1.17596 20.9256C0.398934 20.671 0.00116764 20.1431 0.00116764 19.338C-0.000682436 13.4482 -6.57449e-05 7.55838 0.00116764 1.66855C0.00116764 1.45724 0.0196684 1.24715 0.0973715 1.04498C0.348982 0.390958 0.955806 0.00609766 1.74887 0.00609766C6.56523 0.0054887 11.3816 0.0121872 16.1973 8.09108e-06C17.0909 -0.00242774 18.003 0.545025 17.9993 1.76842C17.9796 7.59005 17.9907 13.4111 17.9907 19.2327C17.9907 19.2875 17.9919 19.3423 17.9901 19.3965C17.966 20.1833 17.5177 20.7399 16.7567 20.942C16.6895 20.9603 16.6013 20.9152 16.5532 20.9993ZM16.1788 19.0037C16.1825 18.9325 16.1856 18.8996 16.1856 18.8673C16.1856 13.2296 16.185 7.59187 16.1905 1.95415C16.1905 1.77877 16.1159 1.77694 15.9827 1.77694C11.3249 1.77938 6.6676 1.77938 2.00973 1.77573C1.85309 1.77573 1.80129 1.80557 1.80129 1.97364C1.80622 7.59065 1.80561 13.2083 1.80684 18.8253C1.80684 18.874 1.77847 18.9331 1.84014 18.9769C1.89071 18.9294 1.94005 18.8831 1.98938 18.8363C4.27731 16.6702 6.56646 14.5054 8.85069 12.3356C8.96539 12.2266 9.02521 12.2242 9.14115 12.335C10.0761 13.2284 11.0184 14.1144 11.9576 15.0035C13.3544 16.3267 14.7518 17.6512 16.1788 19.0037Z" fill="white"/>
</svg>
