<svg width="106" height="85" viewBox="0 0 106 85" fill="none" xmlns="http://www.w3.org/2000/svg">
<path d="M7.19508 84.683C3.22546 84.683 0.00759361 81.4651 0.00759361 77.4955V15.0073C0.00759361 11.8246 2.76174 9.25309 6.15524 9.25309H12.0289C14.4247 9.25309 16.6027 7.94628 17.6074 5.90877L18.8721 3.34432C19.8768 1.30681 22.0548 0 24.4506 0H52.3434C54.5144 0 56.5308 1.07496 57.6339 2.83143L59.0039 5.00243C60.107 6.75187 62.1234 7.83386 64.2944 7.83386H99.8524C103.246 7.83386 106 10.4124 106 13.5881V77.4955C106 81.4651 102.782 84.683 98.8126 84.683H7.19508Z" fill="#FF9933"/>
<g opacity="0.3">
<path d="M7.19508 84.683C3.22546 84.683 0.00759361 81.4651 0.00759361 77.4955V15.0073C0.00759361 11.8246 2.76174 9.25309 6.15524 9.25309H12.0289C14.4247 9.25309 16.6027 7.94628 17.6074 5.90877L18.8721 3.34432C19.8768 1.30681 22.0548 0 24.4506 0H52.3434C54.5144 0 56.5308 1.07496 57.6339 2.83143L59.0039 5.00243C60.107 6.75187 62.1234 7.83386 64.2944 7.83386H99.8524C103.246 7.83386 106 10.4124 106 13.5881V77.4955C106 81.4651 102.782 84.683 98.8126 84.683H7.19508Z" fill="#FF9933"/>
</g>
<path d="M60.7879 7.82683L38.1716 7.77765L36.1482 3.99773C34.8343 1.54569 32.1645 0 29.2347 0H7.12424C3.18975 0 0 2.986 0 6.67459V9.25309V77.102C0 81.2895 3.62536 84.683 8.09382 84.683H97.8986C102.367 84.683 105.992 81.2895 105.992 77.102V13.0049C105.992 10.1454 103.674 7.82683 100.814 7.82683H60.7879Z" fill="#FFCC66"/>
<path d="M72.198 61.1954H62.1862C61.7927 61.1954 61.4765 60.8792 61.4765 60.4858C61.4765 60.0923 61.7927 59.7762 62.1862 59.7762H72.198C77.6923 59.7762 82.1607 55.3077 82.1607 49.8135C82.1607 44.53 78.0225 40.1669 72.7461 39.8789C72.4369 39.8648 72.177 39.647 72.0997 39.3519C70.287 32.319 63.9497 27.4079 56.6919 27.4079C51.837 27.4079 47.3124 29.5859 44.2631 33.3869C44.1086 33.5766 43.8697 33.675 43.6308 33.6469C43.0758 33.5837 42.5769 33.5485 42.1132 33.5485C34.8836 33.5485 29.0029 39.4292 29.0029 46.6588C29.0029 53.8885 34.8836 59.7691 42.1132 59.7691H50.2281C50.6216 59.7691 50.9377 60.0853 50.9377 60.4788C50.9377 60.8722 50.6216 61.1884 50.2281 61.1884H42.1132C34.1037 61.1884 27.5837 54.6684 27.5837 46.6588C27.5837 38.6493 34.1037 32.1293 42.1132 32.1293C42.5207 32.1293 42.9493 32.1504 43.406 32.1926C46.7152 28.244 51.5419 25.9817 56.6919 25.9817C64.4274 25.9817 71.2004 31.1035 73.3362 38.5018C79.1185 39.0779 83.58 43.9469 83.58 49.8064C83.5729 56.0876 78.4722 61.1954 72.198 61.1954Z" fill="black"/>
<path d="M56.0105 67.5889C55.617 67.5889 55.3009 67.2727 55.3009 66.8793V48.612C55.3009 48.2185 55.617 47.9024 56.0105 47.9024C56.4039 47.9024 56.7201 48.2185 56.7201 48.612V66.8793C56.7201 67.2657 56.3969 67.5889 56.0105 67.5889Z" fill="black"/>
<path d="M61.3431 55.9048C61.1253 55.9048 60.9145 55.8065 60.774 55.6238L56.1159 49.3848C56.0737 49.3356 56.0386 49.3286 55.9824 49.3216C55.9402 49.3216 55.891 49.3356 55.8489 49.3848L50.9097 55.4482C50.6638 55.7503 50.2141 55.7995 49.912 55.5535C49.6099 55.3076 49.5607 54.858 49.8066 54.5559L54.7458 48.4925C55.055 48.1131 55.5117 47.9094 56.0035 47.9024C56.4953 47.9094 56.9449 48.1342 57.247 48.5277L61.9052 54.7737C62.1371 55.0898 62.0738 55.5325 61.7647 55.7643C61.6452 55.8557 61.4907 55.9048 61.3431 55.9048Z" fill="black"/>
</svg>
