<svg width="35" height="35" viewBox="0 0 35 35" fill="none" xmlns="http://www.w3.org/2000/svg">
<g clip-path="url(#clip0_594_287)">
<path d="M0 8.89253C0.117329 8.79015 0.204683 8.90641 0.297176 8.94199C5.55814 10.9358 10.8174 12.934 16.0801 14.9227C16.3336 15.0181 16.4124 15.137 16.4115 15.4138C16.4021 21.8179 16.4038 28.2211 16.4038 34.6252C16.4038 34.7389 16.4038 34.8525 16.4038 35.0009C10.9184 32.9159 5.45879 30.8423 0 28.7677C0 22.1432 0 15.5179 0 8.89253ZM4.37457 24.8156C4.37457 25.5704 4.37971 26.2941 4.37029 27.0177C4.36772 27.1955 4.47734 27.2172 4.59638 27.2615C5.20273 27.4888 5.80821 27.7205 6.4137 27.9504C7.18447 28.2437 7.95525 28.5378 8.74914 28.8397C8.74914 28.084 8.74743 27.3691 8.75086 26.6541C8.75171 26.5387 8.72945 26.4624 8.60955 26.4173C7.20759 25.8906 5.8065 25.3587 4.37457 24.8156Z" fill="#FFCC66"/>
<path d="M0 6.53879C0.117329 6.64117 0.204683 6.52491 0.297176 6.48934C5.94181 4.34885 11.5856 2.20576 17.2285 0.0583389C17.4075 -0.0102052 17.5608 -0.0232199 17.7458 0.0470595C23.3656 2.18928 28.988 4.32542 34.6095 6.46331C34.7105 6.50148 34.809 6.54487 34.9769 6.61341C34.0305 6.97435 33.1536 7.31013 32.2766 7.64331C31.0862 8.09535 29.8941 8.54306 28.7062 9.00204C28.5135 9.07666 28.3594 9.08273 28.1632 8.9925C26.1678 8.07626 24.1655 7.17564 22.1683 6.26201C21.9662 6.16917 21.8009 6.16657 21.5954 6.25681C20.2525 6.84681 18.9028 7.42206 17.494 8.02854C19.6821 8.94391 21.8198 9.83758 23.9736 10.7382C23.9017 10.8631 23.7904 10.864 23.7056 10.8961C21.7196 11.6553 19.731 12.4076 17.7458 13.1693C17.5617 13.2396 17.4084 13.2257 17.2285 13.1581C11.5865 11.0106 5.94181 8.86755 0.297176 6.72707C0.204683 6.69236 0.117329 6.5761 0 6.67848C0 6.63076 0 6.58478 0 6.53879Z" fill="#FFCC66"/>
<path d="M18.5918 34.9887C18.5918 34.849 18.5918 34.7458 18.5918 34.6425C18.5918 28.228 18.5935 21.8126 18.585 15.3981C18.585 15.1352 18.6578 15.0198 18.8984 14.9304C20.5384 14.3196 22.1733 13.6932 23.81 13.0728C23.8827 13.045 23.9573 13.0234 24.0609 12.9887C24.0609 14.8419 24.0609 16.6692 24.0609 18.5303C25.3986 18.0219 26.6978 17.5117 28.0115 17.0397C28.3447 16.92 28.45 16.7707 28.4449 16.4107C28.4218 14.8072 28.4346 13.203 28.4346 11.5996C28.4346 11.4538 28.4072 11.321 28.6067 11.2464C30.7229 10.4525 32.8357 9.64648 34.9965 8.82568C34.9965 8.94889 34.9965 9.0452 34.9965 9.14064C34.9965 15.5786 34.9956 22.0165 34.999 28.4545C34.999 28.6505 34.9896 28.7772 34.7592 28.8649C29.422 30.8821 24.09 32.9107 18.7562 34.9375C18.7151 34.9523 18.6723 34.9635 18.5918 34.9887Z" fill="#FFCC66"/>
</g>
<defs>
<clipPath id="clip0_594_287">
<rect width="35" height="35" fill="white"/>
</clipPath>
</defs>
</svg>
