<svg width="51" height="47" viewBox="0 0 51 47" fill="none" xmlns="http://www.w3.org/2000/svg">
<g filter="url(#filter0_d_82_140)">
<path d="M25.8625 32.271C25.6579 32.2387 25.4749 32.2761 25.2865 32.3702C21.6928 34.1514 18.0958 35.9277 14.4989 37.7019C14.2868 37.8061 14.0801 37.9264 13.8292 37.9477C12.9529 38.0235 12.3037 37.3772 12.4522 36.5417C12.772 34.7442 13.1079 32.9488 13.4373 31.1523C13.8217 29.0595 14.2028 26.9656 14.5958 24.8738C14.6378 24.6513 14.4956 24.5511 14.3632 24.4307C12.4695 22.698 10.5757 20.9653 8.68194 19.2326C7.69146 18.3262 6.70528 17.4169 5.70941 16.5166C5.43811 16.2708 5.19802 16.0078 5.02577 15.6932C5.02577 15.4909 5.02577 15.2897 5.02577 15.0873C5.3789 14.2043 6.22942 14.2124 7.01642 14.1041C9.15888 13.8108 11.3013 13.5185 13.4438 13.2241C15.1502 12.9905 16.8556 12.7507 18.5631 12.5272C18.7816 12.4989 18.8817 12.4058 18.9733 12.2308C20.8089 8.72995 22.651 5.23313 24.4898 1.73428C24.7461 1.24774 25.1293 0.968563 25.729 1.00902C25.6989 1.19312 25.7828 1.35597 25.8442 1.52085C26.5429 3.3689 27.2449 5.21593 27.9436 7.06398C28.8619 9.49263 29.7803 11.9213 30.6911 14.353C30.7557 14.5249 30.8321 14.6241 31.041 14.6514C31.8861 14.7616 32.727 14.8931 33.571 15.0105C34.9556 15.2016 36.3412 15.3868 37.7268 15.5769C39.1113 15.7661 40.4969 15.9573 41.8814 16.1464C41.9847 16.1606 42.1226 16.1201 42.1753 16.2223C42.2464 16.3598 42.0838 16.4145 42.0074 16.4843C40.9673 17.431 39.9629 18.4102 38.9067 19.3418C37.4113 20.6608 35.9773 22.0415 34.498 23.3767C34.1535 23.6883 33.9898 23.9634 34.09 24.45C34.4668 26.295 34.779 28.1511 35.117 30.0032C35.3851 31.4719 35.6554 32.9407 35.9299 34.4094C35.9676 34.6097 35.8814 34.6289 35.7103 34.5793C35.608 34.549 35.5025 34.5308 35.3991 34.5065C32.4718 33.8116 29.5456 33.1157 26.6172 32.4278C26.4805 32.3954 26.3168 32.2599 26.1801 32.442C26.137 32.4238 26.094 32.4066 26.0498 32.3884C26.0304 32.2892 25.9497 32.2741 25.8625 32.271Z" stroke="#FECF6B" stroke-width="2" stroke-miterlimit="10"/>
<path d="M26.1825 32.4412C26.3203 32.2591 26.4829 32.3946 26.6196 32.427C29.548 33.1159 32.4753 33.8118 35.4015 34.5057C35.5049 34.53 35.6104 34.5492 35.7127 34.5785C35.8828 34.6291 35.97 34.6099 35.9323 34.4086C35.6578 32.9409 35.3875 31.4711 35.1194 30.0024C34.7814 28.1503 34.4692 26.2942 34.0924 24.4492C33.9933 23.9626 34.1559 23.6875 34.5004 23.3759C35.9797 22.0407 37.4137 20.661 38.9091 19.341C39.9653 18.4084 40.9708 17.4302 42.0098 16.4835C42.0862 16.4137 42.2488 16.358 42.1777 16.2215C42.125 16.1193 41.9871 16.1598 41.8838 16.1456C40.4982 15.9564 39.1137 15.7653 37.7292 15.5761C36.3436 15.387 34.958 15.2019 33.5734 15.0097C32.7294 14.8933 31.8885 14.7608 31.0434 14.6506C30.8335 14.6233 30.757 14.5241 30.6935 14.3522C29.7816 11.9215 28.8643 9.49183 27.946 7.06317C27.2473 5.21513 26.5442 3.36809 25.8466 1.52005C25.7842 1.35517 25.7002 1.19232 25.7314 1.00822C26.3031 1.02441 26.6175 1.35315 26.8511 1.79923C28.2722 4.51111 29.6976 7.21996 31.122 9.93083C31.5193 10.6874 31.9251 11.44 32.3127 12.2017C32.4139 12.401 32.528 12.4991 32.781 12.5325C36.8399 13.0756 40.8976 13.636 44.9554 14.1873C45.5367 14.2662 46.0147 14.4604 46.2085 15.037C46.3969 15.5963 46.1429 16.007 45.7305 16.3833C42.8054 19.0557 39.8856 21.7332 36.9583 24.4036C36.757 24.5867 36.6848 24.7445 36.7376 25.0237C37.4503 28.8432 38.1436 32.6647 38.8402 36.4862C38.9306 36.9829 38.8122 37.4178 38.359 37.7264C37.9402 38.0116 37.4848 38.0379 37.0304 37.8134C33.4335 36.0402 29.8397 34.2619 26.2449 32.4847C26.2223 32.4756 26.203 32.4563 26.1825 32.4412Z" fill="#FEB821"/>
<path d="M25.8621 32.271C25.9492 32.2741 26.0288 32.2895 26.0514 32.3878C25.9879 32.3489 25.9256 32.31 25.8621 32.271Z" fill="#FEB821"/>
</g>
<defs>
<filter id="filter0_d_82_140" x="0" y="0" width="50.292" height="47" filterUnits="userSpaceOnUse" color-interpolation-filters="sRGB">
<feFlood flood-opacity="0" result="BackgroundImageFix"/>
<feColorMatrix in="SourceAlpha" type="matrix" values="0 0 0 0 0 0 0 0 0 0 0 0 0 0 0 0 0 0 127 0" result="hardAlpha"/>
<feOffset dy="4"/>
<feGaussianBlur stdDeviation="2"/>
<feComposite in2="hardAlpha" operator="out"/>
<feColorMatrix type="matrix" values="0 0 0 0 0 0 0 0 0 0 0 0 0 0 0 0 0 0 0.37 0"/>
<feBlend mode="normal" in2="BackgroundImageFix" result="effect1_dropShadow_82_140"/>
<feBlend mode="normal" in="SourceGraphic" in2="effect1_dropShadow_82_140" result="shape"/>
</filter>
</defs>
</svg>
