<svg width="58" height="50" viewBox="0 0 58 50" fill="none" xmlns="http://www.w3.org/2000/svg">
<path d="M29.0102 49.9998C21.8016 49.9998 14.5929 49.9998 7.38739 49.9998C3.0357 49.9998 0 46.9714 0 42.6311C0 33.4203 0 24.2095 0 14.9986C0 10.7472 3.06036 7.70353 7.335 7.70047C9.85293 7.70047 12.3678 7.69434 14.8857 7.70966C15.2432 7.71273 15.4097 7.62384 15.5175 7.26215C15.7857 6.36406 16.0969 5.47516 16.4236 4.59545C17.4437 1.84293 20.0048 0.031418 22.9481 0.0160921C26.9761 -0.00536404 31.0011 -0.00536404 35.0292 0.0160921C37.9848 0.031418 40.5428 1.82454 41.5691 4.574C41.8989 5.4537 42.207 6.3426 42.4721 7.24069C42.5861 7.62997 42.7741 7.71273 43.1501 7.70966C45.6465 7.69434 48.1428 7.70047 50.6392 7.70047C54.9539 7.70353 57.9958 10.7319 57.9958 15.0354C57.9958 24.2462 57.9958 33.4571 57.9958 42.6679C57.9958 46.9653 54.9477 49.9967 50.633 49.9998C43.4244 49.9998 36.2189 49.9998 29.0102 49.9998ZM28.9794 46.1561C36.185 46.1561 43.3936 46.1561 50.5991 46.1561C52.8212 46.1561 54.131 44.8626 54.131 42.6618C54.131 33.4509 54.131 24.2432 54.131 15.0324C54.131 12.8561 52.8243 11.5473 50.6546 11.5473C47.5758 11.5442 44.4938 11.5503 41.415 11.5442C40.3486 11.5411 39.723 11.0997 39.3778 10.1005C38.9279 8.7978 38.4995 7.48897 38.0557 6.18321C37.5348 4.65063 36.4223 3.85675 34.7888 3.85368C30.9241 3.85062 27.0594 3.85062 23.1946 3.85368C21.5704 3.85368 20.4671 4.65369 19.9432 6.2016C19.521 7.44913 19.1111 8.70278 18.6857 9.9503C18.2882 11.1243 17.6964 11.5411 16.4452 11.5411C13.4249 11.5411 10.4046 11.5411 7.38739 11.5411C5.1684 11.5411 3.87091 12.8377 3.87091 15.0477C3.87091 24.2371 3.87091 33.4264 3.87091 42.6189C3.87091 44.8656 5.16223 46.153 7.42129 46.153C14.6053 46.1561 21.7923 46.1561 28.9794 46.1561Z" fill="#FFCC66"/>
<path d="M29.0194 42.3096C21.0126 42.3188 14.5035 35.8575 14.5005 27.8941C14.4943 19.9554 20.9879 13.4725 28.9455 13.4695C36.9955 13.4664 43.4953 19.9216 43.4983 27.9156C43.5014 35.836 36.9986 42.3004 29.0194 42.3096ZM29.041 17.3163C23.0898 17.3285 18.359 22.0489 18.3683 27.9677C18.3775 33.7609 23.1977 38.4843 29.0749 38.4628C34.8597 38.4414 39.6274 33.6843 39.6305 27.9309C39.6336 22.0826 34.8659 17.304 29.041 17.3163Z" fill="#FFCC66"/>
<path d="M46.3985 17.2793C46.4139 16.2126 47.3169 15.3605 48.3925 15.3911C49.4342 15.4218 50.2786 16.3045 50.2632 17.3436C50.2478 18.4042 49.3386 19.2655 48.2692 19.2348C47.2275 19.2042 46.3831 18.3214 46.3985 17.2793Z" fill="#FFCC66"/>
</svg>
