<svg width="28" height="28" viewBox="0 0 28 28" fill="none" xmlns="http://www.w3.org/2000/svg">
<g clip-path="url(#clip0_273_68)">
<path d="M25.0463 28C25.0381 27.9411 24.9874 27.9356 24.9462 27.926C24.3142 27.7754 23.8598 27.3763 23.4389 26.9046C20.5346 23.6494 17.62 20.4032 14.7156 17.148C14.5676 16.9816 14.4935 16.9549 14.3325 17.1322C14.0267 17.4691 13.6854 17.7737 13.3749 18.1057C13.2453 18.244 13.1781 18.2447 13.0417 18.1071C11.7393 16.7941 10.428 15.4899 9.12015 14.1831C7.21866 12.2841 5.33294 10.3693 3.41089 8.49148C1.88641 7.0032 1.41275 5.18701 1.60537 3.13807C1.70065 2.12626 1.99266 1.16305 2.37241 0.223124C2.43204 0.0759397 2.50264 0.0362341 2.66236 0.0143275C3.22444 -0.0616608 3.61036 0.154666 4.01067 0.55583C11.6742 8.23613 19.3535 15.9007 27.0321 23.5652C27.4722 24.0047 27.8327 24.4812 27.9493 25.1076C27.9527 25.1268 27.9829 25.1418 28 25.1583C28 25.2308 28 25.3041 28 25.3766C27.9177 25.4677 27.9184 25.5587 28 25.6498C28 25.7593 28 25.8682 28 25.9777C27.9088 26.0174 27.9177 26.1126 27.8992 26.1831C27.7539 26.7266 27.4489 27.1559 27.0095 27.505C26.6695 27.7747 26.2637 27.8726 25.8668 28C25.5933 28 25.3198 28 25.0463 28Z" fill="#010101"/>
<path d="M2.1798 28C2.17226 27.9562 2.14004 27.9493 2.10234 27.9425C1.14612 27.7714 0.468874 27.2497 0.150817 26.3255C-0.190546 25.3336 0.0562222 24.4559 0.784875 23.7248C3.3259 21.1754 5.87653 18.6363 8.41893 16.0883C8.54232 15.9644 8.60058 15.9767 8.71574 16.0931C9.77547 17.1597 10.8386 18.2228 11.908 19.2791C12.0313 19.401 12.0211 19.4585 11.9045 19.5756C9.3546 22.1154 6.81014 24.662 4.26088 27.2025C3.82424 27.6379 3.3074 27.9261 2.67128 27.9528C2.65278 27.9535 2.63495 27.9836 2.61713 28C2.47181 28 2.32581 28 2.1798 28Z" fill="#010101"/>
<path d="M28 25.6505C27.9185 25.5595 27.9178 25.4684 28 25.3774C28 25.4684 28 25.5595 28 25.6505Z" fill="#020202"/>
<path d="M20.0294 6.81642C21.4455 5.40139 22.848 4.00896 24.2375 2.60283C24.4294 2.40909 24.5377 2.36733 24.7296 2.59325C24.9647 2.86982 25.2321 3.12174 25.5008 3.36682C25.6399 3.49415 25.6159 3.56261 25.4939 3.68378C24.1237 5.04404 22.7616 6.41389 21.3887 7.77141C21.2283 7.92954 21.2159 8.01101 21.388 8.16299C21.667 8.41012 21.9302 8.67779 22.1811 8.95368C22.3181 9.10428 22.3915 9.10497 22.5389 8.95641C23.879 7.60437 25.2328 6.26533 26.5708 4.91123C26.7586 4.72092 26.8635 4.69217 27.0472 4.90849C27.2761 5.17822 27.5359 5.42467 27.7992 5.6629C27.9479 5.79708 27.9513 5.87033 27.8033 6.01751C26.3919 7.41474 24.9901 8.82087 23.5856 10.2243C23.225 10.585 22.848 10.9314 22.506 11.3086C21.6526 12.2506 20.6065 12.7839 19.3329 12.8619C19.2877 12.8647 19.2349 12.8565 19.1979 12.877C18.8428 13.0728 18.6317 12.8763 18.3932 12.6333C17.3334 11.5544 16.26 10.4899 15.1838 9.42741C15.0412 9.28638 15.0069 9.17069 15.0762 8.97832C15.1804 8.68669 15.1667 8.36836 15.2188 8.06441C15.3716 7.17719 15.7802 6.42142 16.417 5.78613C18.2801 3.92681 20.1445 2.06749 22.0022 0.202693C22.142 0.0623543 22.2126 0.0733076 22.3394 0.209539C22.6054 0.496378 22.8823 0.775002 23.1709 1.03925C23.3155 1.17206 23.2977 1.24531 23.1661 1.37538C21.7951 2.73495 20.4331 4.1048 19.0601 5.46232C18.9038 5.61635 18.9127 5.69645 19.0642 5.83952C19.3939 6.15169 19.7045 6.4844 20.0294 6.81642Z" fill="#020202"/>
</g>
<defs>
<clipPath id="clip0_273_68">
<rect width="28" height="28" fill="white"/>
</clipPath>
</defs>
</svg>
