<svg width="38" height="114" viewBox="0 0 38 114" fill="none" xmlns="http://www.w3.org/2000/svg">
<path d="M16.0696 0.00395606C16.0696 0.00395606 11.9098 -0.295424 12.2932 9.03267C12.6766 18.3608 13.6273 23.3347 13.6273 23.3347C13.6273 23.3347 13.5065 25.4041 11.9045 24.9997C10.3026 24.5952 7.28773 22.5784 5.80133 24.0858C4.25715 25.6457 4.80864 28.0407 6.85179 30.8612C8.90019 33.6817 13.1598 40.0265 13.5432 40.599C13.9214 41.161 14.0685 42.222 12.934 42.1222C11.7995 42.0224 4.1311 39.4225 3.11741 43.1359C2.10371 46.8492 9.09978 53.7665 9.85086 54.5386C10.6019 55.3107 10.644 55.7939 10.3393 56.2614C10.0347 56.7288 7.53984 55.6101 5.32862 54.9641C3.1174 54.3128 0.438736 53.9504 0.0343084 56.1406C-0.370119 58.3308 2.70773 64.7438 14.247 71.4773L19.7987 74.2505L25.051 70.8995C35.8603 63.0421 38.2816 56.3559 37.6618 54.2182C37.0368 52.0805 34.4106 52.7108 32.2782 53.5774C30.1458 54.4441 27.7717 55.8044 27.4251 55.3737C27.0732 54.9378 27.0679 54.4493 27.7349 53.6089C28.402 52.7686 34.6732 45.1843 33.2919 41.5917C31.9105 37.9991 24.5416 41.3501 23.4228 41.5654C22.3041 41.7808 22.3461 40.7145 22.6665 40.1105C22.9921 39.5013 26.5952 32.7626 28.3495 29.753C30.1037 26.7434 30.4136 24.3064 28.7171 22.9092C27.0837 21.5594 24.2894 23.8652 22.7348 24.4272C21.1801 24.9892 20.8544 22.946 20.8544 22.946C20.8544 22.946 21.3061 17.9038 20.7546 8.58622C20.2031 -0.736612 15.996 0.0144629 15.996 0.0144629" fill="#FFCC66"/>
<path d="M16.3952 8.3604C16.3952 8.3604 16.4057 8.42867 16.4162 8.55473C16.4267 8.69129 16.4425 8.88038 16.4582 9.12724C16.495 9.64196 16.5423 10.3825 16.6053 11.3332C16.7313 13.245 16.8942 16.0183 17.0833 19.4428C17.4614 26.2918 17.9079 35.7511 18.3648 46.2085C18.8218 56.6658 19.242 66.1305 19.5834 72.9795C19.7567 76.3987 19.8985 79.1667 19.9983 81.089C20.0455 82.0397 20.0823 82.7803 20.1086 83.295C20.1191 83.5419 20.1243 83.7309 20.1296 83.8675C20.1348 83.9988 20.1296 84.0618 20.1296 84.0618C20.1296 84.0618 20.1191 83.9936 20.1086 83.8675C20.0981 83.7309 20.0823 83.5419 20.0666 83.295C20.0298 82.7803 19.9825 82.0397 19.9195 81.0943C19.7934 79.1824 19.6306 76.4092 19.4415 72.9847C19.0634 66.1357 18.6169 56.6711 18.16 46.2137C17.703 35.7617 17.2828 26.297 16.9414 19.448C16.7681 16.0288 16.6263 13.2608 16.5265 11.3385C16.4792 10.3878 16.4425 9.64721 16.4162 9.13249C16.4057 8.88563 16.4005 8.69655 16.3952 8.55999C16.3952 8.42868 16.3952 8.3604 16.3952 8.3604Z" fill="#E0E0E0"/>
<path d="M9.89811 27.0691C9.90861 27.0586 10.0294 27.1636 10.2448 27.3579C10.4601 27.5523 10.7595 27.8412 11.1271 28.2036C11.8572 28.9284 12.8446 29.9578 13.9109 31.1133C14.9561 32.2531 15.8962 33.2878 16.6263 34.0861C16.9519 34.438 17.2251 34.7374 17.4509 34.9843C17.6453 35.1944 17.7503 35.3152 17.7398 35.3257C17.7293 35.3362 17.6085 35.2364 17.3931 35.0421C17.1778 34.8477 16.8784 34.5589 16.516 34.1912C15.7912 33.4559 14.8195 32.4159 13.7533 31.2604C12.7028 30.1259 11.7522 29.1017 11.0169 28.3086C10.6912 27.9567 10.4128 27.6626 10.187 27.4157C9.99264 27.2004 9.8876 27.0796 9.89811 27.0691Z" fill="#E0E0E0"/>
<path d="M18.2913 35.1419C18.2493 35.0999 20.2819 32.9727 22.824 30.3938C25.3714 27.8097 27.4671 25.756 27.5091 25.7928C27.5511 25.8348 25.5237 27.962 22.9764 30.5409C20.429 33.125 18.3333 35.1839 18.2913 35.1419Z" fill="#E0E0E0"/>
<path d="M18.2702 51.2297C18.265 51.2192 18.4015 51.1299 18.6589 50.9828C18.953 50.8147 19.3154 50.6152 19.7461 50.3736C20.66 49.8588 21.9258 49.1445 23.2914 48.3041C24.657 47.469 25.8703 46.6707 26.7422 46.0824C27.1519 45.8093 27.4933 45.5782 27.7769 45.3891C28.0238 45.2263 28.1656 45.1423 28.1708 45.158C28.1761 45.1738 28.0553 45.2788 27.8242 45.4574C27.5931 45.6412 27.2517 45.8986 26.8262 46.2032C25.9754 46.823 24.7726 47.6424 23.3965 48.4827C22.0256 49.3231 20.7493 50.0216 19.8144 50.5049C19.347 50.7465 18.9635 50.9303 18.6957 51.0564C18.4278 51.1772 18.2755 51.2402 18.2702 51.2297Z" fill="#E0E0E0"/>
<path d="M9.07349 45.5992C9.07874 45.5887 9.21531 45.6517 9.45692 45.7778C9.69852 45.9038 10.0399 46.0982 10.4653 46.3345C11.311 46.8125 12.4717 47.49 13.7428 48.2463C15.0191 49.0027 16.1641 49.7012 16.9887 50.216C17.4036 50.4733 17.7345 50.6834 17.9604 50.8357C18.1862 50.988 18.307 51.0721 18.3018 51.0878C18.2965 51.0984 18.16 51.0353 17.9184 50.9093C17.6768 50.7832 17.3354 50.5889 16.9099 50.3525C16.0643 49.8746 14.9035 49.197 13.6325 48.4407C12.3562 47.6844 11.2112 46.9858 10.3866 46.4711C9.97164 46.2137 9.64074 46.0036 9.41489 45.8513C9.18904 45.699 9.06299 45.6097 9.07349 45.5992Z" fill="#E0E0E0"/>
<path d="M7.24575 59.7961C7.25101 59.7856 7.42435 59.8696 7.73423 60.0325C8.07563 60.2216 8.51157 60.4579 9.02629 60.7468C10.1135 61.356 11.6052 62.2122 13.2491 63.1681C14.8931 64.124 16.3743 65.0011 17.4405 65.6419C17.9447 65.9518 18.3649 66.2092 18.701 66.414C18.9952 66.5978 19.1527 66.7081 19.1475 66.7239C19.1422 66.7344 18.9689 66.6504 18.659 66.4876C18.3176 66.2985 17.8817 66.0621 17.367 65.7732C16.2797 65.164 14.7881 64.3078 13.1441 63.3519C11.5001 62.396 10.019 61.5189 8.95275 60.8781C8.44853 60.5682 8.02835 60.3108 7.6922 60.106C7.39807 59.9169 7.2405 59.8066 7.24575 59.7961Z" fill="#E0E0E0"/>
<path d="M18.9058 66.4718C18.9005 66.4613 19.0686 66.3457 19.389 66.1462C19.7409 65.9308 20.1978 65.6577 20.7388 65.3268C21.8786 64.6335 23.449 63.6671 25.1507 62.5588C26.8577 61.4506 28.3757 60.4054 29.4681 59.6438C29.9881 59.2814 30.4241 58.9768 30.7655 58.7404C31.0753 58.5303 31.2487 58.42 31.2539 58.4305C31.2644 58.441 31.1069 58.5776 30.8127 58.8087C30.5186 59.0398 30.0932 59.3707 29.5522 59.7646C28.4807 60.5577 26.9733 61.6239 25.2611 62.7374C23.5541 63.8509 21.9679 64.7963 20.8071 65.4581C20.2241 65.789 19.7514 66.0464 19.4205 66.2197C19.1001 66.3983 18.9163 66.4876 18.9058 66.4718Z" fill="#E0E0E0"/>
<path d="M27.2518 76.0521H11.894L16.9047 114H22.2411L27.2518 76.0521Z" fill="#263238"/>
<path d="M12.6923 80.7161C12.6871 80.7213 12.7081 80.7686 12.7764 80.8526C12.8394 80.9314 12.9602 81.0364 13.1493 81.1152C13.5117 81.2728 14.1525 81.2886 14.7722 80.9157C15.392 80.5743 15.933 79.902 16.7629 79.6026C17.5875 79.2874 18.6064 79.3452 19.5886 79.6603C20.5813 79.965 21.4374 80.4692 22.22 80.9366C23.0026 81.3989 23.7169 81.8138 24.3577 82.0817C24.9932 82.36 25.55 82.4861 25.9334 82.5386C26.1277 82.5649 26.2748 82.5701 26.3798 82.5701C26.4796 82.5701 26.5374 82.5649 26.5374 82.5596C26.5479 82.5071 25.6708 82.5176 24.4312 81.9241C23.8115 81.6405 23.1129 81.215 22.3408 80.7423C21.5687 80.2644 20.6863 79.7444 19.6674 79.4292C18.659 79.1036 17.5717 79.0458 16.6841 79.3977C16.2429 79.5658 15.87 79.8284 15.5601 80.091C15.245 80.3484 14.9666 80.5953 14.683 80.7738C14.121 81.1362 13.5327 81.152 13.186 81.0312C12.8236 80.9051 12.7081 80.6951 12.6923 80.7161Z" fill="#F5F5F5"/>
<path d="M13.2491 87.7069C13.2701 87.7174 13.3699 87.5494 13.6115 87.2973C13.8584 87.0556 14.2576 86.7353 14.8406 86.5199C15.4183 86.2993 16.1589 86.168 16.9783 86.1995C17.8029 86.2258 18.6958 86.4096 19.6517 86.5619C20.6024 86.7195 21.5478 86.793 22.3881 86.6775C23.2285 86.5672 23.9586 86.3256 24.5416 86.063C25.1246 85.8003 25.5553 85.5062 25.8336 85.2909C26.1173 85.0755 26.2538 84.9337 26.2433 84.9232C26.2171 84.8812 25.6236 85.4117 24.468 85.9001C23.8903 86.1365 23.176 86.3571 22.3566 86.4464C21.5373 86.5462 20.6339 86.4726 19.6884 86.3151C18.743 86.1628 17.8344 85.9842 16.9835 85.9684C16.1326 85.9474 15.3658 86.105 14.7723 86.3571C14.1735 86.6039 13.7691 86.9611 13.538 87.2342C13.4277 87.376 13.3489 87.4916 13.3069 87.5756C13.2649 87.6597 13.2439 87.7017 13.2491 87.7069Z" fill="#F5F5F5"/>
<path d="M25.5132 91.4465C25.5184 91.436 25.3766 91.3414 25.0878 91.2259C24.8041 91.1103 24.3682 90.9948 23.8167 90.9528C23.2652 90.9108 22.6087 90.9423 21.8944 91.0631C21.18 91.1786 20.4079 91.3782 19.6043 91.5463C18.8007 91.7144 18.0234 91.8299 17.3196 91.8037C16.6158 91.7774 15.9908 91.6251 15.5023 91.4097C14.5149 90.9738 14.163 90.3435 14.1262 90.3855C14.1157 90.3908 14.184 90.5484 14.3836 90.7847C14.5831 91.0211 14.9246 91.3205 15.4288 91.5673C15.9277 91.8142 16.5738 91.9927 17.3091 92.0295C18.0444 92.0715 18.8428 91.956 19.6569 91.7879C20.471 91.6146 21.2326 91.4097 21.9364 91.2837C22.6349 91.1576 23.2757 91.1051 23.8114 91.1209C24.8829 91.1681 25.4974 91.4938 25.5132 91.4465Z" fill="#F5F5F5"/>
<path d="M14.6095 96.7093C14.6147 96.7514 15.1557 96.3679 16.1011 96.557C16.5633 96.6411 17.0781 96.8722 17.6611 97.14C18.2388 97.4079 18.9374 97.639 19.6885 97.6968C21.1959 97.8438 22.5405 97.3554 23.3598 96.8459C23.78 96.5938 24.0741 96.3259 24.2737 96.1421C24.4628 95.9425 24.5574 95.827 24.5416 95.8165C24.5101 95.7797 24.1057 96.2314 23.2705 96.6936C22.4459 97.1505 21.1539 97.5865 19.7095 97.4499C18.2546 97.3659 17.1411 96.4992 16.1327 96.3837C15.6389 96.3102 15.2293 96.3784 14.9719 96.4835C14.7093 96.5885 14.599 96.6988 14.6095 96.7093Z" fill="#F5F5F5"/>
<path d="M15.4656 103.994C15.4656 104.021 15.9803 104.021 16.7472 103.742C17.5192 103.485 18.4752 102.891 19.5887 102.45C20.1507 102.235 20.7074 102.104 21.2221 102.109C21.7316 102.109 22.1886 102.235 22.5352 102.408C23.239 102.76 23.4439 103.259 23.4859 103.228C23.4964 103.222 23.4649 103.096 23.3388 102.902C23.2128 102.708 22.9817 102.455 22.6192 102.251C22.2621 102.046 21.7789 101.893 21.2274 101.878C20.6759 101.862 20.0824 101.993 19.5046 102.214C18.3491 102.676 17.4247 103.285 16.6841 103.574C15.9488 103.889 15.4604 103.952 15.4656 103.994Z" fill="#F5F5F5"/>
<path d="M16.2167 107.382C16.2062 107.414 16.5738 107.545 17.1884 107.697C17.8029 107.849 18.659 108.012 19.6202 108.107C20.5813 108.201 21.4532 108.207 22.0835 108.18C22.7138 108.149 23.1025 108.091 23.0972 108.06C23.0919 107.986 21.5425 108.049 19.6412 107.86C17.7451 107.676 16.2377 107.309 16.2167 107.382Z" fill="#F5F5F5"/>
</svg>
