<svg width="94" height="95" viewBox="0 0 94 95" fill="none" xmlns="http://www.w3.org/2000/svg">
<g clip-path="url(#clip0_93_156)">
<path d="M16.5948 48.8419C17.1721 48.9548 17.7558 49.0368 18.3269 49.1838C24.5894 50.8018 28.5782 55.0388 30.2216 61.8699C31.1352 65.6645 30.5282 69.3477 29.2396 72.9303C27.8934 76.6769 25.9901 80.0755 23.844 83.3178C21.4691 86.9081 18.828 90.2479 15.966 93.3773C15.44 93.9527 15.1957 93.9527 14.6696 93.3742C10.6357 88.933 6.98933 84.1469 4.04015 78.7529C2.4076 75.7642 1.06297 72.6379 0.356412 69.21C-1.07693 62.2567 1.91893 54.7434 7.54181 51.1824C9.4436 49.9773 11.4714 49.2256 13.6456 48.9378C13.7281 48.927 13.8401 48.9796 13.8821 48.8419C14.7863 48.8419 15.6906 48.8419 16.5948 48.8419ZM15.3357 73.4269C19.1766 73.43 22.3421 69.9479 22.3406 65.7248C22.3375 61.4662 19.2062 57.9795 15.3808 57.9748C11.445 57.9702 8.30284 61.4043 8.29817 65.7202C8.29194 69.9603 11.4543 73.4238 15.3357 73.4269Z" fill="#FFCC66"/>
<path d="M79.9358 48.8419C80.5132 48.9548 81.0968 49.0368 81.668 49.1838C87.9305 50.8018 91.9193 55.0388 93.5627 61.8699C94.4763 65.6645 93.8693 69.3477 92.5807 72.9303C91.2345 76.6769 89.3312 80.0755 87.185 83.3178C84.8101 86.9081 82.1691 90.2479 79.3071 93.3773C78.7811 93.9527 78.5367 93.9527 78.0107 93.3742C73.9768 88.933 70.3304 84.1469 67.3812 78.7529C65.7487 75.7642 64.404 72.6379 63.6975 69.21C62.2641 62.2567 65.26 54.7434 70.8829 51.1824C72.7847 49.9773 74.8125 49.2256 76.9866 48.9378C77.0691 48.927 77.1812 48.9796 77.2232 48.8419C78.1274 48.8419 79.0316 48.8419 79.9358 48.8419ZM78.6768 73.4269C82.5177 73.43 85.6832 69.9479 85.6816 65.7248C85.6785 61.4662 82.5473 57.9795 78.7219 57.9748C74.786 57.9702 71.6439 61.4043 71.6392 65.7202C71.633 69.9603 74.7954 73.4238 78.6768 73.4269Z" fill="#FFCC66"/>
<path d="M48.5982 -4.00102e-05C49.8183 0.238183 51.0525 0.411436 52.257 0.722364C65.4871 4.13947 73.9128 13.093 77.3865 27.524C79.3163 35.5401 78.0339 43.321 75.3135 50.8915C72.4686 58.8071 68.4471 65.9847 63.9137 72.8359C58.8946 80.4204 53.3169 87.4789 47.2707 94.0888C46.1595 95.3032 45.6413 95.3047 44.5316 94.0811C36.0094 84.6976 28.3057 74.5886 22.0759 63.191C18.6256 56.8781 15.7869 50.2728 14.2929 43.0317C11.2643 28.3423 17.5938 12.468 29.4714 4.94386C33.4897 2.39921 37.7726 0.808991 42.3668 0.201057C42.5396 0.177854 42.7777 0.290778 42.8664 -0.00158691C44.7759 -4.00102e-05 46.6871 -4.00102e-05 48.5982 -4.00102e-05ZM45.9369 51.9403C54.0514 51.9465 60.7404 44.591 60.7357 35.6669C60.731 26.6701 54.1153 19.3038 46.0319 19.2945C37.7166 19.2837 31.079 26.5417 31.0681 35.6576C31.0557 44.6173 37.7368 51.9326 45.9369 51.9403Z" fill="white"/>
</g>
<defs>
<clipPath id="clip0_93_156">
<rect width="94" height="95" fill="white"/>
</clipPath>
</defs>
</svg>
