<svg width="185" height="187" viewBox="0 0 185 187" fill="none" xmlns="http://www.w3.org/2000/svg">
<path d="M168.481 1.11887C168.737 0.327179 167.815 -0.323812 167.148 0.173688C160.378 5.22678 143.726 20.7711 143.972 51.2748C144.28 89.546 134.859 102.426 124.126 109.716C124.126 109.716 138.005 107.293 148.042 94.2773C172.685 62.3215 163.923 15.1983 168.481 1.11887Z" fill="#FF9933"/>
<path d="M162.487 12.3796C161.244 16.4949 160.084 20.6324 159.075 24.807C158.046 28.9748 157.143 33.1729 156.372 37.3926C155.617 41.615 154.942 45.8508 154.447 50.1088C153.933 54.3648 153.603 58.6377 153.286 62.9287C152.946 67.2157 152.627 71.5363 151.865 75.8381C151.109 80.1312 149.828 84.4027 147.806 88.3133C147.301 89.2881 146.777 90.2569 146.2 91.1852C145.64 92.125 145.039 93.0399 144.421 93.944C143.176 95.7462 141.81 97.4683 140.322 99.0819C137.339 102.301 133.867 105.063 130.134 107.31C129.741 107.546 129.23 107.419 128.994 107.026C128.762 106.639 128.881 106.141 129.257 105.898L129.26 105.896C130.153 105.324 131.038 104.742 131.894 104.123C132.327 103.82 132.746 103.499 133.171 103.185C133.583 102.856 134.008 102.543 134.41 102.202C136.039 100.863 137.571 99.4118 138.99 97.854C141.839 94.7559 144.24 91.2162 146.178 87.4833C147.126 85.6057 147.935 83.6608 148.591 81.6607C149.246 79.6599 149.748 77.606 150.134 75.521C150.905 71.3498 151.256 67.0757 151.628 62.7914C152.005 58.5064 152.413 54.2033 152.998 49.9237C153.284 47.7836 153.609 45.6481 153.972 43.5201C154.148 42.4551 154.344 41.3935 154.537 40.3318C154.742 39.2722 154.952 38.2132 155.17 37.157C156.052 32.9319 157.063 28.7358 158.204 24.5781C159.366 20.4258 160.636 16.3051 162.064 12.2409C162.105 12.1245 162.233 12.0639 162.348 12.1043C162.461 12.1447 162.521 12.2658 162.487 12.3796Z" fill="white"/>
<path d="M136.472 131.8C136.626 133.327 138.288 134.198 139.639 133.475C147.097 129.487 167.163 116.305 172.726 87.6253C177.423 63.4074 182.269 50.7221 184.868 45.1157C185.418 43.9301 184.136 42.7318 182.99 43.3586C170.352 50.2778 130.872 76.5086 136.472 131.8Z" fill="#FFCC66"/>
<path d="M138.481 132.319C138.506 132.347 138.535 132.373 138.567 132.396C138.832 132.594 139.207 132.538 139.404 132.273C139.628 131.972 161.848 101.808 169.9 68.4302C169.977 68.109 169.78 67.7852 169.458 67.7071C169.137 67.6297 168.814 67.827 168.736 68.1488C160.743 101.284 138.666 131.259 138.444 131.558C138.27 131.792 138.292 132.112 138.481 132.319Z" fill="#FFCC66"/>
<path d="M39.0966 22.568C38.4254 49.6679 36.2481 143.147 37.288 176.273C37.3983 179.782 40.2091 182.599 43.7147 182.714C61.0558 183.282 110.942 184.721 139.307 183.53C145.215 183.282 149.913 178.493 150.035 172.575C150.625 144.13 151.925 64.1251 148.834 27.4743C148.464 23.083 145.02 19.5864 140.639 19.1474C121.754 17.2564 71.5942 12.6341 47.0885 14.2256C42.6695 14.5137 39.2063 18.1369 39.0966 22.568Z" fill="#FF9933"/>
<path d="M46.1428 30.9891C45.1958 53.1841 42.2081 127.021 43.1565 154.325C43.295 158.315 46.4374 161.542 50.4206 161.776C66.8187 162.736 108.879 164.854 132.932 162.926C137.263 162.579 140.661 159.073 140.895 154.731C142.114 132.087 145.614 63.3347 144.705 36.3371C144.56 32.0299 141.227 28.513 136.938 28.1273C119.198 26.5331 73.6349 22.7396 53.1958 23.8558C49.3586 24.0652 46.307 27.1464 46.1428 30.9891Z" fill="#FFCC66"/>
<path opacity="0.5" d="M81.9543 18.9617C81.9543 19.7931 82.602 20.4791 83.4314 20.5229C87.5275 20.7376 99.0654 21.3449 104.222 21.6445C105.239 21.7037 106.037 20.7888 105.844 19.7877L105.811 19.6168C105.679 18.9341 105.113 18.4198 104.421 18.3565C100.936 18.0367 90.4184 17.1501 83.4495 17.3992C82.6121 17.4295 81.9543 18.1236 81.9543 18.9617Z" fill="white"/>
<path d="M129.697 103.091H55.9837C53.3323 103.091 51.1833 100.647 51.1833 97.6318V36.8782C51.1833 32.8397 54.1206 29.6015 57.6699 29.7281L131.106 32.4849C137.335 32.9339 137.251 39.6249 137.251 44.3926V94.5007C137.25 99.2455 133.869 103.091 129.697 103.091Z" fill="#CCCCCC"/>
<g opacity="0.86">
<path d="M131.613 54.4739H83.7637C83.4005 54.4739 83.1025 54.1763 83.1025 53.8121V50.4272C83.1025 50.0637 83.3998 49.7655 83.7637 49.7655H131.613C131.976 49.7655 132.274 50.063 132.274 50.4272V53.8121C132.274 54.1763 131.977 54.4739 131.613 54.4739Z" fill="white"/>
<path d="M131.613 63.3083H83.7637C83.4005 63.3083 83.1025 63.0108 83.1025 62.6466V59.2617C83.1025 58.8981 83.3998 58.5999 83.7637 58.5999H131.613C131.976 58.5999 132.274 58.8975 132.274 59.2617V62.6466C132.274 63.0108 131.977 63.3083 131.613 63.3083Z" fill="white"/>
</g>
<g opacity="0.86">
<path d="M131.4 83.2272H83.5512C83.1879 83.2272 82.89 82.9296 82.89 82.5654V79.1806C82.89 78.817 83.1873 78.5188 83.5512 78.5188H131.4C131.764 78.5188 132.061 78.8163 132.061 79.1806V82.5654C132.061 82.9296 131.764 83.2272 131.4 83.2272Z" fill="white"/>
<path d="M131.4 92.0616H83.5512C83.1879 92.0616 82.89 91.7641 82.89 91.3999V88.015C82.89 87.6515 83.1873 87.3532 83.5512 87.3532H131.4C131.764 87.3532 132.061 87.6508 132.061 88.015V91.3999C132.061 91.7634 131.764 92.0616 131.4 92.0616Z" fill="white"/>
</g>
<path opacity="0.86" d="M112.711 40.8455H79.3742C79.011 40.8455 78.713 40.5479 78.713 40.1837V36.7989C78.713 36.4353 79.0103 36.1371 79.3742 36.1371H112.711C113.074 36.1371 113.372 36.4346 113.372 36.7989V40.1837C113.372 40.5479 113.074 40.8455 112.711 40.8455Z" fill="white"/>
<path opacity="0.7" d="M79.3985 69.2144H58.0143C56.955 69.2144 56.0967 68.3547 56.0967 67.2951V45.8918C56.0967 44.8315 56.9557 43.9725 58.0143 43.9725H79.3978C80.4572 43.9725 81.3154 44.8322 81.3154 45.8918V67.2944C81.3161 68.3547 80.4572 69.2144 79.3985 69.2144Z" fill="white"/>
<path d="M62.42 52.8582C63.3737 59.7821 66.9049 63.0263 71.6864 64.4885L74.4468 62.2683C69.4191 60.2325 65.8899 56.614 64.392 50.8493L62.42 52.8582Z" fill="#FFCC66"/>
<path d="M71.5189 64.4353C74.4293 64.914 74.7757 64.9416 77.1567 63.3609C77.4237 63.1839 77.4493 62.7981 77.2058 62.5901L73 58.9999C72.8359 58.8598 72.583 58.9164 72.4935 59.113L71.8001 60.6459L71.5189 64.4353Z" fill="#FFCC66"/>
<path d="M62.3204 53.0279C62.0325 50.366 62.0816 49.9641 63.7261 47.7492C63.9172 47.4921 64.3032 47.4867 64.4976 47.7412L67.8546 52.1365C67.9858 52.3082 67.9158 52.558 67.7147 52.6367L66.1482 53.248L62.6513 53.3207C62.4825 53.3241 62.3386 53.1955 62.3204 53.0279Z" fill="#FFCC66"/>
<path opacity="0.7" d="M79.0675 97.3261H56.7767C55.7173 97.3261 54.8591 96.4665 54.8591 95.4068V73.0961C54.8591 72.0358 55.718 71.1768 56.7767 71.1768H79.0675C80.1268 71.1768 80.9851 72.0365 80.9851 73.0961V95.4068C80.9851 96.4671 80.1262 97.3261 79.0675 97.3261Z" fill="white"/>
<path d="M72.9318 85.4855C75.6454 82.7695 75.6454 78.366 72.9318 75.6499C70.2182 72.9339 65.8186 72.9339 63.105 75.6499C60.3914 78.3659 60.3914 82.7695 63.105 85.4855C65.8186 88.2016 70.2182 88.2016 72.9318 85.4855Z" fill="#FFCC66"/>
<path d="M74.9553 80.1951H68.0194H61.0707C61.0707 80.1951 60.5178 84.0552 66.7192 94.6286C66.9896 95.0898 67.484 95.3658 68.0187 95.3658C68.5534 95.3658 69.0485 95.0951 69.3188 94.6333C75.5196 84.0593 74.9553 80.1951 74.9553 80.1951Z" fill="#FFCC66"/>
<path d="M68.0159 95.5914V95.6304H68.0179C67.4133 95.6304 66.8483 95.2972 66.5449 94.7795C62.9203 88.5988 61.5919 84.6915 61.1157 82.5042C60.9798 82.0014 60.9018 81.5079 60.8776 81.0023C60.8359 80.4853 60.8675 80.2672 60.8715 80.2443L60.8897 80.1332C61.1695 76.3976 64.2762 73.49 68.0193 73.49C71.8114 73.49 74.9458 76.4386 75.1577 80.2046C75.163 80.2537 75.1731 80.3789 75.1691 80.5876V80.6132C75.1691 81.2965 75.0729 81.9731 74.8826 82.6241C74.3902 84.8086 73.0537 88.6782 69.491 94.7546C69.1849 95.2763 68.6408 95.5914 68.0159 95.5914ZM61.2603 80.5082C61.2589 80.6125 61.2616 80.7613 61.2798 80.9855L61.2805 80.9848C61.3033 81.4635 61.3773 81.9246 61.5065 82.4026L61.5091 82.4107C61.978 84.5676 63.2922 88.4264 66.8934 94.5654C67.1254 94.9606 67.5552 95.2056 68.0173 95.2063L68.0166 95.4076V95.2056C68.4336 95.2056 68.9098 94.9579 69.1439 94.5593C72.6845 88.522 74.0062 84.6854 74.4911 82.5298L74.4945 82.517C74.6747 81.9004 74.7265 81.2601 74.7265 80.6132L74.6862 80.5849V80.5829C74.6862 80.3816 74.7205 80.2726 74.7171 80.2443L74.7366 80.2328C74.5395 76.6783 71.5908 73.8939 68.0106 73.8939C64.4377 73.8939 61.4843 76.7173 61.2805 80.3028L61.2744 80.5082H61.2603Z" fill="url(#paint0_linear_36_5)"/>
<path opacity="0.8" d="M68.6865 84.5088C70.8737 84.1535 72.3591 82.0908 72.0041 79.9016C71.6491 77.7124 69.5883 76.2258 67.401 76.581C65.2138 76.9363 63.7285 78.999 64.0834 81.1882C64.4384 83.3774 66.4993 84.8641 68.6865 84.5088Z" fill="white"/>
<path d="M68.0415 84.7858C65.7056 84.7858 63.8055 82.8833 63.8055 80.5452C63.8055 78.2072 65.7062 76.3047 68.0415 76.3047C70.3775 76.3047 72.2783 78.2072 72.2783 80.5452C72.2776 82.8833 70.3775 84.7858 68.0415 84.7858ZM68.0415 76.7537C65.9531 76.7537 64.2534 78.4549 64.2534 80.5452C64.2534 82.6355 65.9531 84.3367 68.0415 84.3367C70.13 84.3367 71.8296 82.6355 71.8296 80.5452C71.8296 78.4549 70.13 76.7537 68.0415 76.7537Z" fill="url(#paint1_linear_36_5)"/>
<path opacity="0.8" d="M64.2353 76.3645C64.2165 76.3645 64.1976 76.3564 64.1842 76.3409C64.16 76.3127 64.1633 76.2702 64.1916 76.246C65.3189 75.2773 66.7589 74.7434 68.2467 74.7434C68.2837 74.7434 68.314 74.7737 68.314 74.8107C68.314 74.8478 68.2837 74.878 68.2467 74.878C66.7912 74.878 65.3821 75.3998 64.2797 76.3483C64.2662 76.3591 64.2508 76.3645 64.2353 76.3645Z" fill="white"/>
<path opacity="0.8" d="M62.087 81.0434C62.05 81.0434 62.0197 81.0131 62.0197 80.976C62.0197 79.8134 62.3419 78.6784 62.9513 77.6955C62.9708 77.6639 63.0125 77.6544 63.0441 77.674C63.0757 77.6935 63.0851 77.7352 63.0656 77.7669C62.4697 78.7289 62.1542 79.839 62.1542 80.9767C62.1542 81.0131 62.1239 81.0434 62.087 81.0434Z" fill="white"/>
<path d="M25.2867 179.993C25.2867 179.993 24.8407 182.385 24.6107 184.756C24.5206 185.683 25.2275 186.494 26.1563 186.542C29.3115 186.704 36.0618 187.024 38.4859 186.939C38.8504 186.927 39.0919 186.556 38.9607 186.215C38.8504 185.93 38.6345 185.698 38.3581 185.567L27.2534 180.33L25.2867 179.993Z" fill="url(#paint2_linear_36_5)"/>
<path d="M24.9538 178.581L25.2665 181.451C25.2665 181.451 27.2117 182.38 28.5556 181.368L27.7767 178.165L24.9538 178.581Z" fill="url(#paint3_linear_36_5)"/>
<path d="M25.7225 124.685C25.5684 125.433 24.5784 162.038 28.3322 178.483C28.3934 178.751 28.2555 179.026 27.9999 179.128C27.3979 179.367 26.2189 179.711 24.8091 179.745C24.3726 179.756 23.9838 179.468 23.8647 179.047C22.7832 175.23 17.6095 156.107 17.0842 137.88C16.4977 117.514 17.0909 137.187 17.0909 137.187L17.6687 124.607L25.7225 124.685Z" fill="url(#paint4_linear_36_5)"/>
<path d="M12.444 181.121C12.444 181.121 11.7593 182.325 11.0766 185.534C10.9535 186.113 11.3537 186.673 11.9422 186.737C12.9834 186.849 14.5869 186.997 15.8723 187C16.4648 187.001 16.9323 186.49 16.8664 185.9C16.7352 184.725 16.3101 182.795 14.9541 181.282L12.444 181.121Z" fill="url(#paint5_linear_36_5)"/>
<path d="M11.8877 177.428L12.6403 181.77C12.6403 181.77 13.4199 182.362 14.9769 181.954L14.6426 177.286L11.8877 177.428Z" fill="url(#paint6_linear_36_5)"/>
<path d="M10.2357 125.661C6.85387 144.947 10.4745 173.411 11.7336 178.987C11.811 179.328 12.0827 179.592 12.4271 179.653C13.0122 179.756 13.9761 179.844 14.9292 179.577C15.2574 179.484 15.4908 179.191 15.5076 178.85C15.7269 174.353 15.6731 146.736 18.7563 135.852C18.9123 135.3 19.2547 134.821 19.7248 134.493L25.5476 130.433L26.0547 123.785L10.2357 125.661Z" fill="url(#paint7_linear_36_5)"/>
<path d="M30.9621 89.2537C21.3801 89.0039 10.7806 91.5796 10.7806 91.5796C7.76459 108.235 9.93845 127.501 9.93845 127.501C17.3391 129.52 25.7386 126.461 25.7386 126.461C27.0381 119.5 32.9785 99.9294 32.9785 99.9294C37.6666 99.3922 41.5368 98.0774 44.7303 96.3197C42.3338 93.4855 41.226 89.8973 40.7498 87.778C37.3512 88.8006 33.9175 89.3311 30.9621 89.2537Z" fill="#FFCC66"/>
<path d="M59.4046 75.3957C58.4737 74.2486 57.2771 74.7757 57.2771 74.7757C55.8102 80.7248 48.3691 85.4884 40.7499 87.7793C41.2261 89.8986 42.3339 93.4868 44.7303 96.321C57.4056 89.3452 59.4046 75.3957 59.4046 75.3957Z" fill="url(#paint8_linear_36_5)"/>
<path d="M59.1732 75.6825C59.2687 75.9969 58.1233 76.4635 57.4641 75.1749C57.4466 74.5603 57.0982 71.9247 57.4702 71.4279C59.449 68.7808 63.2687 65.4754 63.2687 65.4754C63.903 66.1136 63.3696 66.7296 63.3696 66.7296L61.5139 68.628C61.8919 69.3268 62.3546 69.9179 62.5665 70.7607C62.7266 71.3989 62.6183 72.0782 62.2914 72.6551C61.9632 73.2334 61.5159 73.9854 61.0942 74.5731C60.2958 75.6852 59.1732 75.6825 59.1732 75.6825Z" fill="url(#paint9_linear_36_5)"/>
<path d="M60.6981 69.8633L59.0098 71.2683L58.4704 72.678L59.9474 74.3495C59.9474 74.3495 60.4761 71.5477 60.8548 70.9438C61.2341 70.3392 61.0431 70.0437 60.6981 69.8633Z" fill="url(#paint10_linear_36_5)"/>
<path d="M14.3675 100.903L10.7805 91.5797C10.7805 91.5797 1.77099 97.582 0.225341 105.286C1.9156 105.427 4.9894 105.897 7.98721 107.448C8.68335 103.81 14.3675 100.903 14.3675 100.903Z" fill="#FFCC66"/>
<path d="M22.1066 109.717C22.1066 109.717 12.002 115.306 8.65717 110.419C7.96304 109.405 7.80364 108.401 7.98658 107.448C4.98878 105.897 1.91498 105.427 0.224719 105.286C-0.241397 107.609 -0.0301987 110.086 1.31165 112.6C7.14784 123.533 23.4128 112.21 23.4128 112.21L22.1066 109.717Z" fill="url(#paint11_linear_36_5)"/>
<path d="M21.3291 81.3739L18.1954 90.1714C18.1436 90.3168 18.2021 90.4797 18.3367 90.5557C19.1633 91.0236 22.1456 92.3815 25.7763 90.1262C26.1543 89.8913 26.414 89.5049 26.4758 89.0632L27.5359 81.4338L21.3291 81.3739Z" fill="url(#paint12_linear_36_5)"/>
<path d="M28.0417 73.2637C28.0417 73.2637 31.33 79.6046 30.8767 82.1487C30.4234 84.6927 26.2747 84.4706 22.6709 82.3661L20.2038 75.5297L28.0417 73.2637Z" fill="url(#paint13_linear_36_5)"/>
<path d="M22.8626 79.0223C23.0106 78.9584 23.0664 78.7786 22.9797 78.6426C22.7153 78.23 22.2203 77.3884 22.0669 76.654C22.0669 76.654 21.469 76.2622 23.6079 75.7714C25.7468 75.2806 28.9369 74.5172 29.623 72.7056C30.2922 70.9391 28.6208 66.465 25.853 69.9906C25.7474 70.1245 25.5443 70.1259 25.4414 69.9892C24.9988 69.4008 23.8319 68.1783 22.1893 68.8973C20.6518 69.5705 20.4688 70.6914 20.4843 71.2575C20.489 71.4238 20.339 71.5524 20.1756 71.5194C19.4027 71.3646 17.547 71.2198 16.6619 73.1183C15.9328 74.6821 16.3888 75.5762 16.8072 76.0144C16.943 76.1565 16.8805 76.3881 16.6921 76.4439C16.1816 76.5947 15.5211 77.0202 15.5756 78.2138C15.651 79.8638 17.4946 79.7359 18.0192 79.6659C18.1053 79.6545 18.1914 79.6847 18.2492 79.75C18.6945 80.2523 20.7002 82.3863 22.8902 82.6623C23.0799 82.6859 23.2285 82.5001 23.1687 82.3183L22.2458 79.5481C22.2028 79.4195 22.2654 79.2795 22.3898 79.2256L22.8626 79.0223Z" fill="url(#paint14_linear_36_5)"/>
<path d="M23.2406 79.4182C23.2406 79.4182 20.8723 77.7581 20.6847 79.1354C20.4977 80.5128 22.8128 81.153 23.967 80.6502L23.2406 79.4182Z" fill="url(#paint15_linear_36_5)"/>
<path d="M20.0417 118.55L25.5463 99.3108C25.6088 99.0926 25.7951 98.9331 26.0204 98.9068C27.0179 98.7904 29.9074 98.4632 33.2442 98.1811C37.263 97.8412 41.9302 97.5651 44.7195 97.7994C45.1157 97.8324 45.3558 98.2525 45.1796 98.6093C43.5936 101.82 37.07 114.885 33.8032 119.164C33.6949 119.306 33.5274 119.388 33.3491 119.386L20.5784 119.267C20.2051 119.265 19.9394 118.908 20.0417 118.55Z" fill="url(#paint16_linear_36_5)"/>
<path d="M21.3714 113.902C21.3714 113.902 20.6047 110.746 20.9141 109.626C21.2235 108.507 21.8228 107.067 23.8204 107.387C25.818 107.707 28.1742 108.549 28.1742 108.549C28.1742 108.549 28.0551 110.007 26.537 109.537L27.4787 110.266C27.4787 110.266 27.3442 111.433 26.0615 110.81L26.9372 111.777C26.9372 111.777 26.3864 112.736 25.4434 112.121C24.499 111.506 24.0471 114.282 21.3714 113.902Z" fill="url(#paint17_linear_36_5)"/>
<path d="M125.451 158.851L56.3193 156.688C53.4567 156.598 51.1833 154.275 51.1833 151.439V114.634C51.1833 111.308 53.9067 108.612 57.2657 108.612H131.099C133.726 108.612 135.829 110.772 135.73 113.371L134.325 150.652C134.148 155.336 130.183 158.999 125.451 158.851Z" fill="#CCCCCC"/>
<path d="M117.404 151.651H69.5319C67.5989 151.651 66.0324 150.216 66.0324 148.446V119.904C66.0324 118.203 67.4832 116.799 69.3369 116.705L119.056 114.167C121.138 114.061 122.858 115.635 122.745 117.541L120.898 148.621C120.797 150.32 119.263 151.651 117.404 151.651Z" fill="#FFCC66"/>
<path d="M94.5858 134.427L120.754 114.472C120.244 114.249 119.666 114.136 119.057 114.167L69.3376 116.704C68.4827 116.748 67.7139 117.07 67.1334 117.571L86.7184 134.249C88.8438 136.059 92.3413 136.139 94.5858 134.427Z" fill="#FF9933"/>
<path d="M90.9477 133.438C89.6468 133.438 88.3514 133.012 87.3109 132.171L79.9317 126.205C79.7152 126.03 79.6943 125.728 79.886 125.53C80.077 125.331 80.4079 125.312 80.6245 125.487L88.0037 131.452C89.5715 132.719 91.8516 132.824 93.55 131.706L97.3737 129.19C97.6091 129.036 97.9354 129.085 98.1035 129.299C98.2723 129.514 98.2185 129.813 97.9838 129.968L94.16 132.484C93.1908 133.123 92.0669 133.438 90.9477 133.438Z" fill="white"/>
<path d="M77.5326 124.106C77.4095 124.106 77.2864 124.067 77.1869 123.987L76.1935 123.183C75.9769 123.008 75.956 122.706 76.1477 122.508C76.3387 122.309 76.6697 122.291 76.8856 122.465L77.879 123.268C78.0956 123.443 78.1164 123.746 77.9248 123.944C77.8218 124.052 77.6772 124.106 77.5326 124.106Z" fill="white"/>
<defs>
<linearGradient id="paint0_linear_36_5" x1="65.4149" y1="71.3344" x2="72.7208" y2="97.5077" gradientUnits="userSpaceOnUse">
<stop stop-color="#FF928E"/>
<stop offset="1" stop-color="#FE7062"/>
</linearGradient>
<linearGradient id="paint1_linear_36_5" x1="73.7172" y1="74.4115" x2="98.1082" y2="48.0988" gradientUnits="userSpaceOnUse">
<stop stop-color="#FEBBBA"/>
<stop offset="1" stop-color="#FF928E"/>
</linearGradient>
<linearGradient id="paint2_linear_36_5" x1="38.2286" y1="176.804" x2="-3.07608" y2="220.844" gradientUnits="userSpaceOnUse">
<stop stop-color="#09005D"/>
<stop offset="1" stop-color="#1A0F91"/>
</linearGradient>
<linearGradient id="paint3_linear_36_5" x1="24.9402" y1="179.98" x2="28.5681" y2="180.014" gradientUnits="userSpaceOnUse">
<stop stop-color="#FEBBBA"/>
<stop offset="1" stop-color="#FF928E"/>
</linearGradient>
<linearGradient id="paint4_linear_36_5" x1="5.84503" y1="203.593" x2="33.0427" y2="121.433" gradientUnits="userSpaceOnUse">
<stop stop-color="#09005D"/>
<stop offset="1" stop-color="#1A0F91"/>
</linearGradient>
<linearGradient id="paint5_linear_36_5" x1="29.1462" y1="168.284" x2="-12.1602" y2="212.326" gradientUnits="userSpaceOnUse">
<stop stop-color="#09005D"/>
<stop offset="1" stop-color="#1A0F91"/>
</linearGradient>
<linearGradient id="paint6_linear_36_5" x1="11.8665" y1="179.669" x2="14.9988" y2="179.698" gradientUnits="userSpaceOnUse">
<stop stop-color="#FEBBBA"/>
<stop offset="1" stop-color="#FF928E"/>
</linearGradient>
<linearGradient id="paint7_linear_36_5" x1="-3.09876" y1="200.632" x2="24.0989" y2="118.472" gradientUnits="userSpaceOnUse">
<stop stop-color="#09005D"/>
<stop offset="1" stop-color="#1A0F91"/>
</linearGradient>
<linearGradient id="paint8_linear_36_5" x1="40.7724" y1="85.387" x2="59.3079" y2="85.5629" gradientUnits="userSpaceOnUse">
<stop stop-color="#FEBBBA"/>
<stop offset="1" stop-color="#FF928E"/>
</linearGradient>
<linearGradient id="paint9_linear_36_5" x1="65.1156" y1="50.913" x2="57.6487" y2="81.1805" gradientUnits="userSpaceOnUse">
<stop stop-color="#FEBBBA"/>
<stop offset="1" stop-color="#FF928E"/>
</linearGradient>
<linearGradient id="paint10_linear_36_5" x1="61.4152" y1="60.5482" x2="56.2946" y2="94.6545" gradientUnits="userSpaceOnUse">
<stop stop-color="#FEBBBA"/>
<stop offset="1" stop-color="#FF928E"/>
</linearGradient>
<linearGradient id="paint11_linear_36_5" x1="-0.0362739" y1="111.277" x2="23.4198" y2="111.5" gradientUnits="userSpaceOnUse">
<stop stop-color="#FEBBBA"/>
<stop offset="1" stop-color="#FF928E"/>
</linearGradient>
<linearGradient id="paint12_linear_36_5" x1="18.2138" y1="86.3507" x2="27.4879" y2="86.4387" gradientUnits="userSpaceOnUse">
<stop stop-color="#FEBBBA"/>
<stop offset="1" stop-color="#FF928E"/>
</linearGradient>
<linearGradient id="paint13_linear_36_5" x1="29.7498" y1="80.5548" x2="19.6072" y2="74.2414" gradientUnits="userSpaceOnUse">
<stop stop-color="#FEBBBA"/>
<stop offset="1" stop-color="#FF928E"/>
</linearGradient>
<linearGradient id="paint14_linear_36_5" x1="14.2773" y1="67.6203" x2="27.3603" y2="78.1474" gradientUnits="userSpaceOnUse">
<stop stop-color="#09005D"/>
<stop offset="1" stop-color="#1A0F91"/>
</linearGradient>
<linearGradient id="paint15_linear_36_5" x1="27.0495" y1="82.8506" x2="17.924" y2="77.1703" gradientUnits="userSpaceOnUse">
<stop stop-color="#FEBBBA"/>
<stop offset="1" stop-color="#FF928E"/>
</linearGradient>
<linearGradient id="paint16_linear_36_5" x1="29.7093" y1="96.36" x2="42.6742" y2="150.332" gradientUnits="userSpaceOnUse">
<stop stop-color="#09005D"/>
<stop offset="1" stop-color="#1A0F91"/>
</linearGradient>
<linearGradient id="paint17_linear_36_5" x1="20.8405" y1="110.64" x2="28.1737" y2="110.64" gradientUnits="userSpaceOnUse">
<stop stop-color="#FEBBBA"/>
<stop offset="1" stop-color="#FF928E"/>
</linearGradient>
</defs>
</svg>
