<svg width="26" height="19" viewBox="0 0 26 19" fill="none" xmlns="http://www.w3.org/2000/svg">
<path d="M0.188766 1.86545C1.73457 2.89625 3.25246 3.90921 4.77035 4.92061C6.9638 6.38266 9.15725 7.84392 11.3499 9.30597C12.4242 10.0226 13.5558 10.035 14.6292 9.32148C18.2297 6.92559 21.8262 4.52427 25.4243 2.12606C25.5445 2.04617 25.6655 1.96706 25.8059 1.87476C25.9587 2.18345 25.9983 2.50068 25.9983 2.82567C25.9998 3.9573 25.999 5.08892 25.999 6.21978C25.999 9.39206 26.0022 12.5636 25.9975 15.7358C25.9952 17.0645 25.18 18.1325 23.9243 18.4784C23.6621 18.5506 23.3937 18.5746 23.1215 18.5746C16.3721 18.5738 9.62262 18.5754 2.87318 18.5731C1.21026 18.5723 0.00184127 17.3646 0.00106565 15.7033C-0.0012612 11.4281 0.00106565 7.1544 0.000290034 2.87996C0.000290034 2.53869 0.0406222 2.20672 0.188766 1.86545Z" fill="white"/>
<path d="M1.36289 0.409527C1.87015 0.11324 2.36732 0 2.90095 0C9.63953 0.00232686 16.3781 0.00155124 23.1167 0.000775619C23.3401 0.000775619 23.5611 0.0139611 23.7791 0.0604983C24.0722 0.122548 24.3499 0.222603 24.6098 0.379278C24.5686 0.501826 24.4562 0.531299 24.3724 0.587919C20.8317 2.95123 17.2902 5.31222 13.748 7.6732C13.1244 8.08893 12.8777 8.08816 12.2518 7.67087C8.71111 5.30989 5.17041 2.9489 1.62971 0.588695C1.55214 0.536729 1.47458 0.483986 1.36289 0.409527Z" fill="white"/>
</svg>
