<svg width="20" height="17" viewBox="0 0 20 17" fill="none" xmlns="http://www.w3.org/2000/svg">
<path d="M0 14.3995C0 12.2118 0 10.0242 0 7.83656C0.0130498 7.8386 0.0260997 7.83911 0.0386275 7.84319C3.13457 8.85032 6.23052 9.85643 9.32489 10.8682C9.77433 11.015 10.2097 11.0206 10.6602 10.8733C13.6308 9.90335 16.6041 8.93854 19.5763 7.97272C19.7126 7.92835 19.8493 7.88552 19.9981 7.83809C19.9981 7.88858 19.9981 7.91407 19.9981 7.93906C19.9981 9.97372 19.9981 12.0079 19.9971 14.0425C19.9971 14.1374 19.9929 14.2338 19.9777 14.3276C19.7877 15.5096 18.8711 16.2771 17.6413 16.2786C15.6431 16.2812 13.6454 16.2791 11.6472 16.2791C8.54921 16.2791 5.4517 16.2806 2.35367 16.2786C1.21259 16.2781 0.346604 15.6198 0.0584633 14.5509C0.0454134 14.4999 0.0678592 14.4306 0 14.3995Z" fill="#FFCC66"/>
<path d="M0 4.3255C0.0673372 4.29389 0.0454134 4.22454 0.0589853 4.17456C0.346082 3.11236 1.21103 2.44995 2.33488 2.4474C3.68893 2.44383 5.04246 2.44638 6.39651 2.44638C6.66951 2.44638 6.66481 2.44638 6.67056 2.16999C6.67734 1.86607 6.63976 1.55959 6.71284 1.25822C6.88614 0.543284 7.51201 0.0211058 8.2642 0.0114169C9.42251 -0.00286137 10.5813 -0.00490113 11.7396 0.0119269C12.5988 0.0246754 13.2889 0.710034 13.3228 1.54684C13.3328 1.78805 13.3369 2.03027 13.3249 2.27147C13.3176 2.41782 13.3662 2.44995 13.5108 2.44944C14.8904 2.44383 16.2705 2.44434 17.6507 2.44689C18.7881 2.44893 19.6692 3.1195 19.9381 4.1817C19.9803 4.34896 19.9991 4.51877 19.9986 4.69113C19.9971 5.25716 19.996 5.8232 20.0002 6.38872C20.0012 6.4953 19.9824 6.55394 19.8613 6.5932C16.6532 7.63297 13.4466 8.67784 10.2405 9.72423C10.0578 9.7839 9.88656 9.76554 9.70804 9.7074C6.53275 8.67172 3.35694 7.63858 0.18061 6.60493C0.122668 6.58607 0.0673372 6.54374 0.000521994 6.57689C0 5.82677 0 5.07614 0 4.3255ZM10.0097 1.62487C9.50237 1.62487 8.99552 1.62894 8.48814 1.62181C8.35816 1.61977 8.31797 1.6575 8.3258 1.78244C8.33624 1.95327 8.33467 2.12563 8.32632 2.29646C8.32058 2.41068 8.35242 2.45505 8.47718 2.44944C8.69119 2.43975 8.90625 2.44689 9.12079 2.44689C9.91422 2.44689 10.7071 2.44383 11.5006 2.44995C11.6389 2.45097 11.6822 2.41221 11.6728 2.27912C11.6613 2.12104 11.6608 1.96092 11.6728 1.80334C11.6838 1.66311 11.6431 1.61773 11.4922 1.62079C10.9979 1.63149 10.5036 1.62487 10.0097 1.62487Z" fill="#FFCC66"/>
</svg>
