<svg width="24" height="23" viewBox="0 0 24 23" fill="none" xmlns="http://www.w3.org/2000/svg">
<g clip-path="url(#clip0_467_121)">
<path d="M12.2701 18.5172C11.7551 18.356 11.3197 18.6956 10.8761 19.153C9.70849 20.3571 8.49702 21.5209 7.30288 22.6998C6.90008 23.0968 6.5248 23.0989 6.12812 22.7069C4.1763 20.7793 2.2255 18.8517 0.274708 16.9231C-0.0893453 16.5634 -0.0913849 16.1261 0.26757 15.7704C0.946729 15.0983 1.62997 14.4293 2.30403 13.7522C2.4213 13.6343 2.48248 13.6131 2.61199 13.7451C2.94239 14.0827 3.2575 14.4383 3.6705 14.6882C5.28274 15.6646 7.37528 14.916 7.96674 13.1405C8.01977 12.9803 8.10033 12.9118 8.25533 12.8594C9.18025 12.547 9.79721 11.9233 10.1082 11.0094C10.1521 10.8804 10.2071 10.8099 10.3428 10.7666C11.2901 10.4613 11.9224 9.83451 12.2405 8.90246C12.2844 8.77449 12.3364 8.70598 12.4782 8.66164C14.5319 8.01575 15.1917 5.4977 13.7202 3.9369C13.5183 3.72227 13.3072 3.51571 13.091 3.31419C12.9992 3.22854 13.0043 3.17916 13.0931 3.09452C13.5183 2.68442 13.9282 2.25921 14.3596 1.85515C15.0418 1.21732 16.0361 1.11958 16.8264 1.59518C17.5943 2.05768 17.9593 2.96353 17.7115 3.84218C17.6626 4.01448 17.7034 4.0699 17.8543 4.1485C18.6875 4.58178 19.1025 5.52793 18.8465 6.42673C18.7925 6.61717 18.8394 6.68065 19.0005 6.76832C19.85 7.22981 20.2304 8.14977 19.9734 9.07779C19.9469 9.17251 19.8918 9.25009 20.0458 9.3307C21.3429 10.0078 21.5774 11.5646 20.5393 12.5994C19.384 13.7522 18.2194 14.8938 17.0589 16.0415C16.7163 16.38 16.3644 16.7095 16.033 17.0592C15.0541 18.091 13.8609 18.5908 12.2701 18.5172Z" fill="#FFCC66"/>
<path d="M7.58597 4.08088C7.33613 3.79069 7.12504 3.48437 7.09648 3.08434C7.05161 2.44954 7.36876 1.88225 7.93677 1.60717C8.50171 1.33309 9.16353 1.42479 9.62854 1.86814C10.1904 2.4042 10.737 2.95637 11.2887 3.5015C11.7476 3.95392 12.2116 4.40231 12.6623 4.8628C13.1039 5.31421 13.2354 5.85228 13.0101 6.44073C12.7857 7.02616 12.3309 7.34558 11.6976 7.40402C11.3672 7.43425 11.0684 7.32442 10.7798 7.18335C10.7646 7.17328 10.7431 7.15111 10.737 7.15514C10.6993 7.17731 10.7299 7.19746 10.7452 7.2166C11.2887 8.12951 10.8186 9.16132 9.93039 9.44547C9.51739 9.57746 9.17679 9.53313 8.59043 9.26208C9.00445 10.0521 8.94938 10.7634 8.24065 11.3176C7.68386 11.7519 7.07099 11.7116 6.42344 11.3378C6.63861 11.7005 6.75079 12.0431 6.69776 12.422C6.6172 13.0004 6.30107 13.4095 5.7606 13.6241C5.21809 13.8397 4.68476 13.7682 4.2483 13.3822C3.78839 12.9772 3.35295 12.5409 2.93791 12.0905C2.478 11.5927 2.45455 10.841 2.84002 10.2899C3.22854 9.73566 3.93728 9.50693 4.5787 9.72861C4.65213 9.7538 4.72453 9.78 4.79795 9.80619C4.80815 9.82534 4.82344 9.8465 4.84384 9.82735C4.86321 9.80821 4.8469 9.79007 4.82446 9.78C4.69598 9.64598 4.56952 9.51096 4.439 9.37896C3.89139 8.82275 3.79757 8.06099 4.20343 7.45843C4.61337 6.84983 5.35576 6.63823 6.08285 6.92238C6.10426 6.93044 6.1267 6.93951 6.14811 6.94757C6.1736 6.96369 6.20012 6.98283 6.22255 6.94757C6.22561 6.94354 6.19706 6.92036 6.1838 6.90626C6.05633 6.77325 5.92886 6.63823 5.79935 6.50623C5.2599 5.95506 5.17832 5.19128 5.5954 4.58973C6.01452 3.98516 6.75487 3.78363 7.47481 4.07786C7.50337 4.08995 7.53396 4.096 7.56353 4.10506C7.57475 4.12421 7.59209 4.14537 7.61146 4.12421C7.6288 4.10305 7.60942 4.08693 7.58597 4.08088Z" fill="#FFCC66"/>
<path d="M13.7793 19.8281C15.055 19.5852 16.0829 18.9887 16.963 18.108C18.4182 16.652 19.8907 15.2131 21.351 13.7622C21.4744 13.6402 21.5407 13.6191 21.6743 13.7551C22.3463 14.4343 23.0305 15.1013 23.7097 15.7734C24.0972 16.1583 24.0962 16.5331 23.7066 16.918C21.7558 18.8456 19.8061 20.7732 17.8542 22.7008C17.4525 23.0978 17.0772 23.0998 16.6795 22.7078C15.7668 21.807 14.8562 20.9062 13.9445 20.0044C13.8976 19.957 13.8527 19.9056 13.7793 19.8281Z" fill="#FFCC66"/>
<path d="M10.6836 0.939084C11.3148 0.633775 11.9155 0.328465 12.5294 0.0523762C12.8077 -0.0735767 13.0627 0.0433076 13.2728 0.246847C13.39 0.359701 13.5746 0.464494 13.5991 0.596493C13.6266 0.743606 13.4002 0.819177 13.2911 0.930016C12.9107 1.31795 12.5171 1.69279 12.1367 2.08072C12.0297 2.18954 11.9675 2.21474 11.8461 2.08979C11.4749 1.70589 11.0884 1.3371 10.6836 0.939084Z" fill="#FFCC66"/>
<path d="M7.586 4.08081C7.61047 4.08686 7.62883 4.10298 7.60945 4.12414C7.59008 4.1453 7.57274 4.12414 7.56152 4.10499C7.56968 4.09593 7.57784 4.08786 7.586 4.08081Z" fill="#FFCC66"/>
<path d="M6.18218 6.9043C6.19543 6.9184 6.22399 6.94158 6.22093 6.94561C6.19849 6.98088 6.17198 6.96173 6.14648 6.94561C6.15872 6.9315 6.17096 6.9184 6.18218 6.9043Z" fill="#FFCC66"/>
<path d="M10.7428 7.21551C10.7285 7.19637 10.6969 7.17622 10.7346 7.15405C10.7408 7.15002 10.7632 7.17219 10.7775 7.18226C10.7673 7.19335 10.755 7.20443 10.7428 7.21551Z" fill="#FFCC66"/>
</g>
<defs>
<clipPath id="clip0_467_121">
<rect width="24" height="23" fill="white"/>
</clipPath>
</defs>
</svg>
