<svg width="251" height="168" viewBox="0 0 251 168" fill="none" xmlns="http://www.w3.org/2000/svg">
<path d="M185.286 122.753L180.645 150.187H164.002L165.308 128.067L165.319 127.853L165.261 128.083L159.283 150.187L141.923 141.273C142.676 135.885 143.381 130.811 144.003 126.197C145.048 118.436 145.879 112.004 146.36 107.661C146.668 104.902 146.841 102.995 146.841 102.132L182.333 97.6279L182.736 97.5809L184.711 105.743C184.821 106.198 184.92 106.642 185.014 107.097C186.08 112.244 186.174 117.564 185.286 122.753Z" fill="#E58A21"/>
<path d="M134.001 89.0371H144.682L150.828 54.5531L142.723 41.6039C142.728 41.6039 134.001 41.8077 134.001 89.0371Z" fill="#F6CF62"/>
<path d="M184.711 99.7392C184.863 100.403 184.863 101.082 184.727 101.756L185.025 107.353L145.994 107.666L144.259 102.221C146.747 73.4856 142.796 41.3531 142.796 41.3531L151.591 38.7821L153.122 38.2543C156.801 36.9949 160.652 36.3104 164.535 36.232L166.207 36.2006C170.367 36.117 174.511 36.7284 178.466 38.0087L191.285 42.1526C186.3 53.4139 184.403 68.8766 183.692 79.8452C183.169 87.7307 183.269 93.2855 183.269 93.2855L184.711 99.7392Z" fill="#F6CF62"/>
<path d="M178.064 38.3745C178.064 38.3745 180.609 39.1113 186.864 40.6058C192.272 41.8965 196.756 45.706 198.831 50.8637C202.645 60.3326 207.74 68.9915 210.735 83.9943C206.423 87.1872 200.283 85.839 197.702 81.1359L185.265 58.467L178.064 38.3745Z" fill="#F6CF62"/>
<path d="M181.675 103.909C171.396 105.038 161.081 105.613 150.739 105.634C150.525 105.634 150.519 105.973 150.739 105.968C161.081 105.947 171.396 105.372 181.675 104.244C181.889 104.223 181.894 103.888 181.675 103.909Z" fill="#213B56"/>
<path d="M166.212 102.66C159.978 103.12 153.739 103.261 147.489 103.089C147.269 103.084 147.274 103.418 147.489 103.423C153.739 103.596 159.973 103.455 166.212 102.995C166.426 102.984 166.426 102.645 166.212 102.66Z" fill="#213B56"/>
<path d="M135.464 87.2029C138.224 87.6784 140.962 87.7568 143.742 87.4485C143.956 87.4224 143.956 87.762 143.742 87.7829C140.93 88.0965 138.161 88.0077 135.376 87.5269C135.161 87.4955 135.255 87.1663 135.464 87.2029Z" fill="#213B56"/>
<path d="M171.898 37.7839C171.872 37.5697 171.532 37.5697 171.558 37.7839C172.645 46.5735 156.843 48.1464 158.395 38.2595C158.426 38.0452 158.102 37.9564 158.071 38.1706C157.391 42.4766 160.224 45.8471 164.629 45.4656C168.726 45.1207 172.441 42.1839 171.898 37.7839Z" fill="#213B56"/>
<path d="M143.59 49.1757C143.559 48.9614 143.235 49.0502 143.266 49.2645C144.129 55.4203 144.547 61.5866 144.531 67.8051C144.531 68.0245 144.865 68.0245 144.865 67.8051C144.881 61.5552 144.453 55.3576 143.59 49.1757Z" fill="#213B56"/>
<path d="M182.265 109.03C171.124 110.995 159.868 110.295 148.649 109.506C148.44 109.49 148.44 109.819 148.649 109.835C159.894 110.629 171.187 111.319 182.354 109.349C182.563 109.313 182.474 108.994 182.265 109.03Z" fill="#213B56"/>
<path d="M184.674 118.52C183.483 118.421 182.338 118.159 181.251 117.778V117.773C181.251 117.6 181.048 117.574 180.964 117.679C178.795 116.863 176.872 115.505 175.32 113.66C175.184 113.498 174.955 113.733 175.09 113.89C176.689 115.792 178.68 117.177 180.922 118.008V126.139C180.922 126.348 181.251 126.353 181.251 126.139V118.118C182.344 118.489 183.483 118.745 184.674 118.844C184.888 118.87 184.883 118.541 184.674 118.52Z" fill="#213B56"/>
<path d="M157.574 112.004C154.23 114.35 149.668 118.118 145.513 118.541C145.304 118.562 145.304 118.891 145.513 118.87C146.909 118.729 148.131 118.201 149.323 117.564C149.312 117.585 149.297 117.595 149.302 117.621C149.49 120.992 149.02 124.263 147.902 127.451C147.834 127.649 148.147 127.738 148.22 127.54C149.354 124.315 149.819 121.039 149.631 117.627C149.626 117.538 149.558 117.491 149.49 117.48C149.966 117.219 150.436 116.947 150.912 116.67C153.258 115.317 155.526 113.843 157.741 112.291C157.914 112.166 157.752 111.878 157.574 112.004Z" fill="#213B56"/>
<path d="M166.855 117.323C166.635 120.913 166.034 124.425 165.062 127.884C165.005 128.088 165.324 128.177 165.381 127.973C166.364 124.482 166.965 120.945 167.189 117.323C167.195 117.114 166.865 117.114 166.855 117.323Z" fill="#213B56"/>
<path d="M169.504 28.8322L169.494 29.6109L169.625 31.6645L169.875 35.5994L169.99 37.0313L170.09 38.6512C170.205 40.4279 169.295 42.1158 167.754 42.9885C167.341 43.2184 166.907 43.3804 166.484 43.464C163.939 43.9866 161.332 42.0531 161.347 39.226V39.1215V38.9282L161.352 38.3743L161.368 37.6583L161.415 34.4655C161.426 34.1258 161.608 33.7966 161.912 33.6346L164.681 32.1035L169.363 28.9106L169.504 28.8322Z" fill="#F4AF9B"/>
<path d="M169.504 28.8322L169.494 29.6109L169.625 31.6645C168.543 34.8992 165.695 37.5173 161.964 38.2802C161.765 38.322 161.567 38.3429 161.363 38.369L161.379 37.6531L161.426 34.4603C161.436 34.1206 161.619 33.7914 161.922 33.6294L164.692 32.0983L169.374 28.9054L169.504 28.8322Z" fill="#AA5B33"/>
<path d="M176.575 20.1786C176.888 17.9212 176.026 15.0575 174.171 15.0627C173.617 15.0627 173.011 15.324 172.431 15.7368C170.502 9.57059 165.224 2.9706 160.589 2.97583C154.522 2.98628 149.568 6.40908 150.023 22.0756C150.201 28.2732 154.956 34.4081 160.955 34.9254C165.465 35.3121 170.225 30.0812 172.222 24.8295C174.145 24.1031 176.183 23.0371 176.575 20.1786Z" fill="#F4AF9B"/>
<path d="M162.941 20.9206C163.035 21.5843 162.627 22.1905 162.027 22.2793C161.426 22.3681 160.856 21.903 160.762 21.2394C160.668 20.5757 161.075 19.9696 161.676 19.8807C162.277 19.7919 162.842 20.257 162.941 20.9206Z" fill="#213B56"/>
<path d="M155.4 21.8562C155.5 22.5198 155.087 23.126 154.486 23.2148C153.885 23.3037 153.315 22.8386 153.221 22.1749C153.127 21.5113 153.535 20.9051 154.136 20.8163C154.737 20.7274 155.301 21.1925 155.4 21.8562Z" fill="#213B56"/>
<path d="M164.65 18.8254C164.509 18.8306 164.368 18.747 164.305 18.6111C163.265 16.4581 161.285 17.2629 161.201 17.2942C161.008 17.3726 160.793 17.2838 160.71 17.0957C160.631 16.9023 160.72 16.6828 160.914 16.6045C161.849 16.2073 163.908 16.0558 164.984 18.2819C165.073 18.47 164.995 18.6947 164.807 18.7836C164.754 18.8149 164.702 18.8254 164.65 18.8254Z" fill="#213B56"/>
<path d="M159.994 28.6599C160.036 28.524 160.151 28.4143 160.302 28.3933C162.669 28.0432 162.492 25.9164 162.486 25.8276C162.465 25.6238 162.617 25.4409 162.826 25.4147C163.03 25.3938 163.218 25.5454 163.234 25.7544C163.333 26.7629 162.863 28.7748 160.412 29.1406C160.208 29.172 160.015 29.0309 159.983 28.8219C159.973 28.7644 159.978 28.7069 159.994 28.6599Z" fill="#213B56"/>
<path d="M154.946 17.9212C154.873 18.0153 154.747 18.0623 154.622 18.0309C152.667 17.5659 152.14 19.2746 152.119 19.3478C152.066 19.515 151.894 19.6091 151.727 19.5621C151.559 19.5098 151.465 19.3374 151.512 19.1701C151.753 18.3549 152.746 16.9336 154.768 17.4143C154.935 17.4561 155.045 17.6233 155.003 17.7958C154.993 17.848 154.972 17.8899 154.946 17.9212Z" fill="#213B56"/>
<path d="M156.477 27.3222C156.231 27.2857 156.007 27.1864 155.824 27.0191C155.238 26.4966 155.217 25.5037 155.777 24.3645L157.224 20.4975C157.282 20.346 157.438 20.2728 157.595 20.3303C157.747 20.3878 157.82 20.555 157.762 20.7013L156.304 24.5892C155.782 25.6709 155.913 26.3241 156.21 26.5854C156.513 26.8519 157.041 26.8049 157.564 26.4705C157.694 26.3868 157.888 26.413 157.977 26.5436C158.065 26.6743 158.045 26.8415 157.914 26.9303C157.407 27.2543 156.905 27.3849 156.477 27.3222Z" fill="#213B56"/>
<path d="M176.752 13.3801C176.407 12.0998 175.514 11.1801 174.908 10.0305C174.443 9.14213 174.573 8.0552 173.988 7.14594C173.424 6.26803 172.593 5.52076 171.903 4.73692C171.213 3.95829 170.476 3.06471 169.572 2.53169C169.112 2.25996 168.658 2.06661 168.13 1.983C167.775 1.92552 167.21 2.04571 166.881 1.91507C166.317 1.69559 165.82 1.01103 165.225 0.749751C164.503 0.430987 163.615 0.336925 162.842 0.216735C161.509 0.0129353 160.072 -0.117706 158.724 0.154028C154.355 1.03194 150.619 4.20913 146.036 4.49131C146.6 4.70556 147.133 4.98252 147.682 5.22813C148.048 5.39012 148.691 5.53121 148.905 5.84475C147.212 7.02575 146.083 8.79201 146.266 10.9293C146.35 11.8856 146.971 12.4865 147.358 13.3122C147.619 13.8661 147.818 14.4566 147.969 15.0419C148.095 15.5279 148.142 15.9982 148.178 16.4685C148.011 17.0485 147.724 17.6233 147.76 18.1564C149.208 16.9545 150.985 15.2509 151.612 13.4324C151.575 15.6167 154.376 16.897 156.184 17.3673C156.299 16.5207 156.315 15.6428 156.466 14.7858C156.634 13.8086 157.161 12.9464 157.313 12.0006C157.026 14.2319 160.704 14.9008 162.173 15.3868C164.315 16.0975 166.197 17.7435 166.625 20.0219C166.829 21.1245 166.693 22.3369 166.573 23.4238C166.829 22.7288 167.388 22.154 167.691 21.4694C168.046 20.6856 168.208 19.8077 168.585 19.0395C168.632 19.839 168.94 20.6647 169.024 21.4694C169.102 22.2062 169.149 22.9431 169.206 23.6799C169.295 24.7825 169.98 25.9844 170.67 26.8414C170.858 25.9687 170.941 25.1692 171.349 24.3435C171.814 23.4081 172.551 22.6504 172.979 21.6575C173.847 19.6457 174.427 17.3098 174.181 15.1203C175.488 15.7682 176.266 16.4215 176.982 17.707C177.406 16.4058 177.097 14.6761 176.752 13.3801Z" fill="#292929"/>
<path d="M189.289 65.9606C185.955 60.9126 183.812 55.1435 183.044 49.1393C183.023 48.9773 182.762 48.972 182.783 49.1393C183.556 55.1906 185.704 61.0015 189.064 66.0912C189.158 66.2323 189.383 66.1017 189.289 65.9606Z" fill="#213B56"/>
<path d="M95.0284 141.168L95.1747 150.188H52.1363C51.5876 138.508 51.5406 125.92 52.732 116.864C53.5524 110.593 54.237 104.249 57.456 98.8143C58.2921 97.4034 59.1387 96.1858 59.9695 95.1563C60.2778 94.7592 60.5914 94.3934 60.8945 94.0485C63.3348 91.2371 65.2892 90.1031 65.2892 90.1031L68.4821 90.1711L91.893 90.6414C91.893 90.6414 92.2535 91.6238 92.5671 92.5383C92.5723 92.5435 92.5723 92.5435 92.5723 92.5487C92.797 93.2176 93.0008 93.8552 93.0217 94.0537C93.0583 94.5136 93.1001 94.9734 93.1419 95.4385C93.1419 95.4437 93.1419 95.4437 93.1419 95.449C93.1785 95.8931 93.2203 96.3426 93.2569 96.7867C93.3353 97.6176 93.4084 98.4433 93.4868 99.2689L94.1034 105.832C94.2027 106.721 94.2654 107.578 94.3386 108.45C94.4483 109.731 94.5476 111.016 94.6312 112.302C94.6417 112.464 94.6521 112.631 94.6626 112.788C94.9029 116.393 95.0702 120.004 95.1642 123.61C95.321 129.473 95.2687 135.326 95.0284 141.168Z" fill="#F6CF62"/>
<path d="M83.1244 41.1911L84.875 41.6405C89.0346 42.7065 92.4992 45.5806 94.3177 49.4737L102.961 67.9934L91.1353 73.1198L74.455 60.3065L83.1244 41.1911Z" fill="#E58A21"/>
<path d="M92.3371 13.6623C92.358 13.9445 92.4364 14.2215 92.5044 14.4932C92.8702 15.9825 93.0635 17.5032 93.2569 19.0238C93.4763 20.7692 93.6958 22.5146 93.9153 24.2547C94.0668 25.4462 94.2131 26.6376 94.2393 27.8395C94.2758 29.7887 93.9675 31.7431 93.3405 33.5877C93.1419 34.1625 92.912 34.7321 92.5462 35.2181C92.0602 35.8556 91.3652 36.2998 90.644 36.6499C87.6027 38.1183 84.0493 38.0138 80.7049 37.5383C79.2678 37.3345 77.836 37.068 76.4616 36.5872C74.988 36.0699 73.5301 35.2442 72.7776 33.8751C72.3752 33.1383 72.208 32.297 72.0878 31.4661C71.8787 30.0552 71.7847 28.6181 71.9258 27.202C72.2027 24.4115 73.3681 21.7934 74.6327 19.2903C75.2388 18.0937 75.8764 16.9022 76.7752 15.9094C77.7419 14.8433 78.9699 14.049 80.0046 13.0509C80.5638 12.5075 81.2692 11.849 82.006 12.1103" fill="#7B3D37"/>
<path d="M59.9123 95.1407C71.5393 98.4015 84.7863 101.474 93.4295 96.6928C93.3355 96.489 91.5013 87.8562 91.7626 85.4576C91.773 85.4367 91.773 85.4263 91.773 85.4054L92.8652 75.393L93.1996 74.9436L95.4257 72.0016C95.7131 71.6724 95.9796 71.338 96.2148 70.9826C96.591 70.4391 96.9098 69.8695 97.1763 69.2791C97.2704 69.0648 97.3592 68.8505 97.4219 68.6467C98.2476 66.452 98.3625 64.0482 97.7302 61.7698C97.4951 60.9023 97.1397 60.0558 96.6799 59.2354L95.7602 57.6415L92.9226 52.6876L88.4077 44.8126C87.2528 42.738 85.126 41.3689 82.7588 41.1337H82.6961C82.5132 41.1233 82.3303 41.1128 82.1265 41.0815C82.1265 41.0815 80.5431 41.1024 78.6305 41.1128C77.4234 41.1233 76.0856 41.1546 74.9517 41.186C74.2566 41.2069 73.6348 41.2383 73.1645 41.2696C72.0253 41.348 69.7992 41.4995 67.7507 41.6406C64.8453 41.8444 62.3579 43.8563 61.6106 46.6729C61.6054 46.6886 61.6054 46.699 61.6001 46.7147C60.6595 50.1898 60.2937 54.2553 60.3146 58.4411C60.3251 62.6791 60.7327 67.0529 61.318 71.0662C61.9085 75.1736 62.708 78.9204 63.4709 81.7945C64.1973 84.4177 64.3906 87.1455 64.0928 89.8419C64.0928 89.8419 64.0405 89.8106 64.0301 89.8419C63.4082 90.7982 60.5655 93.9754 59.9123 95.1407Z" fill="#E58A21"/>
<path d="M82.5654 53.1005C80.8357 53.3931 79.0538 52.9124 77.6167 51.8934C75.307 50.2525 73.6871 47.8957 72.5531 45.5285C71.4191 43.1561 70.9331 42.8478 70.583 41.1442C71.7797 41.4159 72.9137 40.5067 72.9032 39.2839L73.0548 24.3542L73.7341 25.0126L81.1388 32.1613L81.5516 37.9357L81.6875 39.8587C81.7607 40.9352 81.9906 40.9979 83.0462 41.2383L85.8942 41.8915C87.4044 49.7247 85.0842 52.6615 82.5654 53.1005Z" fill="#F4C192"/>
<path d="M72.9137 37.8574C72.9137 37.8574 66.3294 40.2403 66.7475 41.5989L70.2643 43.8878L69.8201 49.521C69.8201 49.521 82.6021 59.2146 84.0287 65.8511C84.0287 65.8511 82.1526 49.7039 72.9137 37.8574Z" fill="#F6CF62"/>
<path d="M81.5516 37.9357L83.9867 65.5219C83.9867 65.5219 86.4062 52.045 88.0314 49.521L86.3069 46.9134L88.0314 42.8165C88.0314 42.8113 87.2057 39.7125 81.5516 37.9357Z" fill="#F6CF62"/>
<path d="M78.0609 57.2026C75.5579 54.5323 72.9555 51.9456 70.0082 49.7613C69.8724 49.662 69.7417 49.8867 69.8776 49.986C72.7412 52.1076 75.2809 54.6211 77.7161 57.213C80.0362 59.6848 82.8215 62.2087 84.013 65.4643C84.0704 65.6211 84.3213 65.5532 84.2638 65.3964C83.0723 62.1617 80.3655 59.6691 78.0609 57.2026Z" fill="#213B56"/>
<path d="M83.0567 51.5641C82.8843 49.6619 82.7066 47.765 82.5342 45.8629C82.3722 44.1071 82.2677 42.3304 81.8183 40.6163C81.7765 40.4544 81.5256 40.5223 81.5674 40.6843C82.043 42.4976 82.137 44.3893 82.3095 46.2496C82.4819 48.1047 82.6491 49.965 82.8216 51.8201C83.1613 55.5356 83.5009 59.2458 83.8458 62.9612C83.8615 63.1284 84.1228 63.1284 84.1071 62.9612C83.7517 59.1622 83.4069 55.3631 83.0567 51.5641Z" fill="#213B56"/>
<path d="M87.206 50.7542C86.166 54.2606 85.3613 57.8297 84.7917 61.4458C84.7656 61.6078 85.0164 61.681 85.0425 61.5138C85.6121 57.9029 86.4169 54.3285 87.4568 50.8221C87.5038 50.6653 87.253 50.5974 87.206 50.7542Z" fill="#213B56"/>
<path d="M87.4463 43.6733C87.0753 44.4989 86.7095 45.3193 86.3385 46.145C86.2706 46.2965 86.4953 46.4324 86.5632 46.2756C86.9342 45.4552 87.3 44.6296 87.671 43.8039C87.7442 43.6524 87.5143 43.5217 87.4463 43.6733Z" fill="#213B56"/>
<path d="M77.7057 48.8833C76.4149 45.7322 74.9517 42.6334 72.9033 39.89C72.804 39.7593 72.5793 39.8848 72.6786 40.0206C74.7584 42.8059 76.232 45.9622 77.5437 49.1655C78.9285 52.5569 80.2349 55.9797 81.5779 59.3868C81.6406 59.5436 81.8914 59.4757 81.8287 59.3189C80.4543 55.8386 79.1218 52.3427 77.7057 48.8833Z" fill="#213B56"/>
<path d="M68.9211 46.4533C69.3234 43.5478 66.6584 41.1545 63.8208 41.8756C60.4294 42.7379 56.322 44.9431 53.7563 50.3464C49.3772 59.5696 44.8465 68.4741 41.8522 83.477C46.1634 86.6698 52.3035 85.3216 54.885 80.6185L61.7358 68.1293C65.4303 61.4039 67.8655 54.0566 68.9211 46.4533Z" fill="#E58A21"/>
<path d="M72.8298 76.5686C78.3481 77.1695 85.3348 73.6788 86.8502 68.1187C86.9129 67.8992 87.2578 67.9933 87.1951 68.2128C85.6274 73.961 78.5205 77.5405 72.8298 76.9239C72.6051 76.903 72.5999 76.5425 72.8298 76.5686Z" fill="#213B56"/>
<path d="M97.4164 61.0799C97.3694 60.9179 97.1186 60.9859 97.1656 61.1479C98.89 67.1208 95.8801 73.4804 90.1841 75.9417C90.0326 76.0096 90.1632 76.2343 90.3148 76.1664C96.1205 73.6581 99.1722 67.1521 97.4164 61.0799Z" fill="#213B56"/>
<path d="M66.4912 55.9848C65.8589 58.7387 64.6726 61.3045 63.4237 63.8233C62.1382 66.4204 60.837 69.0071 59.5463 71.599C59.4731 71.7506 59.6978 71.8812 59.771 71.7297C61.0983 69.0646 62.4413 66.4048 63.7582 63.7345C64.9757 61.2627 66.1201 58.744 66.742 56.0475C66.7838 55.8908 66.5277 55.8228 66.4912 55.9848Z" fill="#213B56"/>
<path d="M91.9557 95.6213C82.769 98.208 72.8716 97.8265 63.9149 94.5396C63.7581 94.4821 63.6902 94.733 63.8469 94.7904C72.8455 98.0878 82.8003 98.4693 92.0288 95.8722C92.1856 95.8251 92.1177 95.5743 91.9557 95.6213Z" fill="#213B56"/>
<path d="M81.9172 117.167C81.264 122.46 79.4821 127.508 78.2227 132.671C76.9842 137.735 76.1533 142.887 75.7144 148.082C75.6987 148.249 75.96 148.249 75.9757 148.082C76.4251 142.746 77.2977 137.447 78.5937 132.253C79.8479 127.237 81.541 122.319 82.1785 117.167C82.1994 117.005 81.9381 117.005 81.9172 117.167Z" fill="#213B56"/>
<path d="M96.2198 25.4463C95.6502 23.6487 95.0022 21.872 94.302 20.1214C93.5756 18.3029 92.7656 16.5314 92.7447 14.5404C92.7343 13.7722 91.548 13.8977 91.5533 14.6658C91.5742 16.5941 92.2692 18.4022 93.006 20.1789C92.8806 20.2677 92.8074 20.4349 92.9172 20.5969C94.3072 22.6924 93.7898 25.4777 93.9257 27.8554C94.0877 30.672 94.511 33.776 92.7134 36.1955C92.4834 36.5038 92.9433 36.8853 93.1732 36.5769C95.0179 34.1 94.7252 30.996 94.5371 28.0905C94.4535 26.7632 94.5528 25.3366 94.464 23.957C95.3366 26.366 96.0996 28.8534 96.0003 31.4245C95.8958 34.0895 95.8069 37.434 93.2202 38.9128C90.5813 40.4178 87.4302 38.918 86.5419 36.1119C86.3067 35.375 85.1884 35.8036 85.4236 36.5404C86.2231 39.0644 88.6635 40.8986 91.3495 40.7157C94.1556 40.5275 96.2511 38.338 96.7528 35.6572C97.4008 32.1613 97.291 28.8378 96.2198 25.4463Z" fill="#7B3D37"/>
<path d="M81.5515 37.9357C81.4156 37.9409 81.2797 37.9461 81.1439 37.9461C76.8327 37.9461 73.3367 33.5461 73.3367 28.1167C73.3367 27.0298 73.4778 25.9846 73.7339 25.0127L81.1386 32.1613L81.5515 37.9357Z" fill="#F09672"/>
<path d="M65.5767 21.5322C65.1116 19.3113 65.77 16.4006 67.6147 16.2752C68.1634 16.2386 68.7852 16.4529 69.3914 16.8291C70.8859 10.5583 75.6883 3.62914 80.2973 3.32082C86.3329 2.91322 91.4958 5.98068 92.1229 21.6053C92.3685 27.7873 88.0626 34.2148 82.1263 35.145C77.6636 35.84 72.5686 30.9592 70.217 25.8747C68.2679 25.2737 66.1619 24.354 65.5767 21.5322Z" fill="#F4C192"/>
<path d="M78.8969 21.3336C78.8446 22.0025 79.294 22.5773 79.9002 22.6243C80.5064 22.6713 81.0394 22.1697 81.0864 21.5008C81.1387 20.8319 80.6893 20.2571 80.0831 20.2101C79.4769 20.163 78.9439 20.6647 78.8969 21.3336Z" fill="#213B56"/>
<path d="M86.9339 21.6785C86.8817 22.3474 87.3311 22.9222 87.9373 22.9693C88.5434 23.0163 89.0765 22.5146 89.1235 21.8458C89.1757 21.1769 88.7263 20.6021 88.1202 20.555C87.5192 20.508 86.9862 21.0097 86.9339 21.6785Z" fill="#213B56"/>
<path d="M77.4234 18.8619C77.5645 18.8776 77.7108 18.8149 77.7892 18.6843C79.0434 16.6567 80.9246 17.6548 81.003 17.6966C81.1859 17.7959 81.4106 17.728 81.5151 17.5503C81.6144 17.3674 81.5464 17.1427 81.3635 17.0434C80.4752 16.5574 78.4529 16.1916 77.1517 18.2923C77.0419 18.47 77.0994 18.6999 77.2719 18.8097C77.3189 18.8358 77.3711 18.8515 77.4234 18.8619Z" fill="#213B56"/>
<path d="M83.459 28.984C83.391 28.8586 83.2604 28.775 83.1089 28.7802C80.726 28.9004 80.4804 26.7841 80.4699 26.6952C80.449 26.4914 80.2661 26.3399 80.0571 26.3608C79.8533 26.3817 79.7017 26.5646 79.7226 26.7736C79.8272 27.7822 80.6789 29.6529 83.1454 29.5327C83.3545 29.5223 83.5112 29.3446 83.5008 29.1356C83.5008 29.0833 83.4851 29.0311 83.459 28.984Z" fill="#213B56"/>
<path d="M86.5996 17.6497C86.678 17.7385 86.8086 17.7751 86.9288 17.7385C88.8414 17.1376 89.4841 18.8045 89.5103 18.8777C89.573 19.0397 89.7507 19.1233 89.9179 19.0606C90.0799 18.9979 90.1635 18.8202 90.1008 18.653C89.8029 17.8535 88.716 16.5105 86.7407 17.1323C86.5735 17.1846 86.4794 17.3623 86.5369 17.5295C86.5473 17.5765 86.5682 17.6131 86.5996 17.6497Z" fill="#213B56"/>
<path d="M84.7601 27.2491C84.572 27.2178 84.4466 27.0453 84.4727 26.8572C84.5041 26.6691 84.6765 26.5384 84.8647 26.5698C84.8699 26.5698 85.5231 26.6534 85.7478 26.3294C85.8523 26.1779 86.0039 25.6866 85.2409 24.3593C85.1468 24.1921 85.2043 23.9831 85.3715 23.889C85.5388 23.795 85.7478 23.8524 85.8419 24.0144C86.5525 25.2581 86.7093 26.1413 86.3174 26.7161C85.8419 27.4059 84.8072 27.2596 84.7601 27.2491Z" fill="#213B56"/>
<path d="M92.2065 8.28524C91.2973 6.16363 89.8759 4.16221 87.8327 3.08573C86.5315 2.40117 85.0526 2.12421 83.5999 1.89428C81.9747 1.633 80.313 1.41875 78.6826 1.6539C76.1586 2.01447 73.8907 3.4463 72.046 5.20734C68.2522 8.83393 65.9738 14.3209 67.1444 19.4368C67.5833 21.3598 68.4769 23.147 69.4332 24.8767C69.8565 25.6448 70.3006 26.413 70.9434 27.0139C71.5861 27.6097 72.4588 28.0173 73.3263 27.9023C72.1871 25.4672 72.1035 22.5617 73.0964 20.0638C74.0892 17.566 76.1481 15.5123 78.646 14.5247C79.8009 14.07 81.0393 13.8296 82.1419 13.2601C83.2341 12.6957 84.1538 11.8021 84.76 10.7308C84.8645 11.8805 84.6764 13.0563 84.2218 14.1171C85.6745 13.7356 87.1586 13.3437 88.3814 12.4762C88.7994 12.1836 89.1757 11.8178 89.4944 11.405L89.3063 12.0216C90.4716 13.908 92.0602 16.1185 92.4156 19.2225C93.4868 16.1969 93.4764 11.2325 92.2065 8.28524Z" fill="#7B3D37"/>
<path d="M67.902 11.3371C65.9006 16.7927 65.1638 22.0392 63.1623 27.4896C62.2792 29.8986 61.3908 32.5637 62.2792 34.9727C63.2512 37.596 66.0835 39.0853 68.8374 39.566C69.7623 39.728 70.7291 39.8012 71.6227 39.5295C73.577 38.9285 74.7058 36.7964 74.8625 34.7637C75.0193 32.7257 74.4184 30.719 73.9951 28.7228C73.0179 24.1347 72.9447 19.3533 73.7808 14.739C73.9951 13.5476 74.2721 12.3195 73.9794 11.1438C73.6868 9.96801 72.6103 8.8863 71.4136 9.05352" fill="#7B3D37"/>
<path d="M77.3971 60.505C77.4076 60.4946 77.418 60.4841 77.4285 60.4737C78.0869 59.6637 78.761 58.7231 79.0536 57.7093C79.294 56.8889 79.132 55.9378 78.4945 55.3682C78.8603 54.4224 79.1738 53.3929 79.1791 52.3844C79.1843 51.5901 78.808 50.8742 78.1444 50.5659C78.4422 49.3849 78.7767 48.1255 78.1705 46.9811C77.742 46.1711 76.9477 45.612 76.0541 45.5022C76.1377 44.5616 76.0437 43.5949 75.4323 42.8476C74.8993 42.1944 74.0893 41.7502 73.2532 41.4576C73.2532 41.3322 73.2584 41.2067 73.248 41.0813C73.133 39.7801 72.2185 38.6932 71.21 37.9355C70.1178 37.1203 68.7853 36.5925 67.4057 36.6761C66.4703 36.7336 65.5558 37.0942 64.8451 37.6951C64.0926 38.155 63.5962 38.9545 63.3663 39.8115C63.2043 40.4072 63.1468 41.0761 63.4603 41.63C63.7582 42.1578 64.2964 42.5184 64.8138 42.8058C65.3102 43.0827 65.8694 43.2709 66.4546 43.4276C66.0366 44.4205 66.2717 45.5911 67.1131 46.3226C67.9857 47.0856 69.2294 47.4618 70.4104 47.9112C70.2484 48.5488 70.3164 49.249 70.5777 49.8447C71.0218 50.8585 71.8579 51.564 72.7306 52.1963C72.4798 52.6666 72.3701 53.2153 72.4641 53.7431C72.6313 54.6523 73.1852 55.248 73.875 55.7654C73.5876 56.058 73.3577 56.4134 73.2218 56.7896C73.0442 57.2704 72.856 57.8974 72.9135 58.42C72.9605 58.8485 73.2689 59.1411 73.5145 59.4704C72.4432 59.7734 71.5601 60.6514 71.4033 61.8742C71.2674 62.9193 71.8423 63.8024 71.9781 64.8057C72.1035 65.7464 71.8579 66.6974 70.98 67.173C70.353 67.5126 70.933 68.4114 71.5444 68.2181C73.875 67.4813 76.8014 67.0005 77.8831 64.4974C78.484 63.1231 78.2437 61.5972 77.3971 60.505Z" fill="#7B3D37"/>
<path d="M71.4712 38.6148C70.8232 38.8917 70.217 39.2575 69.6683 39.6965C69.3391 39.963 68.9629 40.2974 68.7904 40.6998C67.9282 39.5659 66.7942 38.6514 65.4878 38.0818C65.1325 37.9302 64.8816 38.4737 65.237 38.6252C66.6636 39.2471 67.8759 40.2818 68.712 41.5882C68.8427 41.7868 69.0569 41.724 69.1719 41.5725C69.2816 41.5046 69.3652 41.3896 69.313 41.2328C69.2398 41.0134 69.4018 40.7887 69.5377 40.6267C69.7206 40.4124 69.9505 40.2295 70.17 40.0623C70.6351 39.7017 71.142 39.4039 71.6854 39.1687C72.0355 39.0224 71.8265 38.458 71.4712 38.6148Z" fill="black"/>
<path d="M74.1414 44.9117C73.6659 44.3787 73.0911 43.945 72.464 43.6315C72.6155 43.6367 72.7566 43.5478 72.7775 43.3911C72.7828 43.3545 72.788 43.3179 72.7984 43.2866C72.8037 43.2709 72.8089 43.25 72.8089 43.2343C72.8193 43.1716 72.8611 43.0984 72.8873 43.041C72.903 43.0096 72.9134 42.9835 72.9291 42.9573C72.9395 42.9417 72.9448 42.926 72.9552 42.9103C72.997 42.8528 73.0388 42.7953 73.0859 42.7379C73.1068 42.7117 73.1277 42.6908 73.1486 42.6647C73.159 42.6543 73.1747 42.6386 73.1851 42.6281C73.2374 42.5811 73.2949 42.5341 73.3524 42.4975C73.3837 42.4766 73.4151 42.4609 73.4412 42.44C73.4778 42.4191 73.4464 42.4452 73.4307 42.4452C73.4464 42.4452 73.4778 42.4243 73.4882 42.4139C73.5509 42.3825 73.6189 42.3564 73.6868 42.3355C73.8383 42.2885 73.922 42.0899 73.8592 41.9488C73.7913 41.792 73.6345 41.7241 73.4726 41.7763C72.8037 41.9906 72.2863 42.602 72.1766 43.297C72.1557 43.412 72.2288 43.5165 72.3281 43.5792C71.3091 43.0932 70.1595 42.9051 69.0255 43.0984C68.6493 43.1611 68.7068 43.7569 69.0882 43.6942C70.75 43.4172 72.511 44.0025 73.6398 45.2619C73.9063 45.544 74.3975 45.1991 74.1414 44.9117Z" fill="black"/>
<path d="M75.7771 49.1131C75.6151 48.7891 75.3956 48.4965 75.1344 48.2404C75.1344 48.2195 75.1344 48.2091 75.1291 48.1986C75.1291 48.1829 75.1344 48.162 75.1344 48.1464C75.1396 48.0732 75.1553 48.0053 75.1762 47.9373C75.1762 47.9321 75.1762 47.9373 75.1762 47.9321C75.1814 47.9164 75.1866 47.9008 75.1918 47.8851C75.2023 47.8485 75.218 47.8171 75.2336 47.7806C75.2493 47.7492 75.265 47.7179 75.2807 47.6917C75.2911 47.6761 75.3016 47.6604 75.3068 47.6447C75.3486 47.5872 75.3904 47.5297 75.4374 47.4722C75.4583 47.4461 75.4845 47.42 75.5054 47.3991C75.5315 47.373 75.5367 47.373 75.5054 47.3991C75.5211 47.3886 75.5315 47.373 75.5472 47.3625C75.5994 47.3155 75.6621 47.2737 75.7196 47.2371C75.7248 47.2371 75.7405 47.2266 75.751 47.2214C75.7614 47.2162 75.7719 47.211 75.7719 47.211C75.8085 47.1953 75.8398 47.1796 75.8764 47.1692C76.0227 47.1117 76.1115 46.9288 76.0488 46.7825C75.9861 46.6361 75.8189 46.5525 75.6621 46.61C75.1291 46.8138 74.732 47.2789 74.5909 47.8224C74.4341 47.7231 74.2669 47.6395 74.0892 47.5768C73.3106 47.2841 72.4379 47.3155 71.6854 47.6656C71.3353 47.8276 71.5496 48.3867 71.8997 48.2247C73.1173 47.6604 74.6013 48.1255 75.2127 49.343C75.2859 49.4841 75.4374 49.5782 75.5994 49.5155C75.7405 49.4475 75.8503 49.2594 75.7771 49.1131Z" fill="black"/>
<path d="M77.9771 53.5236C77.7942 53.0377 77.4911 52.6092 77.1096 52.2643C77.1149 52.2538 77.1305 52.2538 77.1358 52.2434C77.1619 52.1911 77.188 52.1441 77.2194 52.097C77.2246 52.0866 77.2298 52.0814 77.2351 52.0709C77.2507 52.05 77.2612 52.0291 77.2769 52.0082C77.3396 51.9141 77.4075 51.8253 77.4859 51.7365C77.5591 51.6529 77.6322 51.5693 77.7106 51.4961C77.7158 51.4909 77.7158 51.4909 77.721 51.4856C77.721 51.4856 77.7158 51.4909 77.7263 51.4804C77.7472 51.4647 77.7681 51.4438 77.789 51.4282C77.836 51.3864 77.883 51.3498 77.9301 51.3132C78.0555 51.2191 78.1025 51.0258 77.998 50.8951C77.8987 50.7697 77.7106 50.7227 77.58 50.8272C77.1933 51.1251 76.8849 51.4961 76.6446 51.9194C76.5662 51.8723 76.493 51.8149 76.4146 51.7731C75.636 51.3811 74.7111 51.3498 73.8959 51.6424C73.5353 51.7731 73.7443 52.3322 74.1101 52.2016C75.4479 51.7156 76.9267 52.4106 77.418 53.7379C77.5486 54.0985 78.1077 53.8894 77.9771 53.5236Z" fill="black"/>
<path d="M78.5311 55.6295C78.4631 55.4779 78.3011 55.3996 78.1444 55.457C77.7943 55.5824 77.4546 55.7288 77.1254 55.8908C77.047 55.9326 76.9634 55.9744 76.885 56.0162C76.7857 56.0684 76.6969 56.1155 76.6185 56.2043C76.5976 56.2252 76.5924 56.2566 76.5767 56.2775C76.514 56.1677 76.446 56.0632 76.3468 55.99C76.19 55.8699 76.0019 55.8228 75.8137 55.8019C75.4532 55.7601 75.0874 55.7288 74.7268 55.6922C74.5648 55.6765 74.408 55.7706 74.3819 55.9378C74.3558 56.0893 74.4655 56.267 74.6275 56.2827C74.9463 56.314 75.265 56.3454 75.5838 56.3767C75.704 56.3872 75.866 56.382 75.9653 56.4447C76.0123 56.476 76.0175 56.4917 76.0489 56.5387C76.0698 56.5753 76.0907 56.6171 76.1116 56.6746C76.3154 57.2233 76.3886 57.8295 76.3833 58.4095C76.3833 58.5715 76.5662 58.6917 76.7126 58.676C76.8902 58.6551 76.9791 58.5088 76.9791 58.3468C76.9791 58.0019 76.9529 57.657 76.8902 57.3174C76.8641 57.1606 76.8327 56.9986 76.7909 56.8418C76.9216 56.8627 77.0627 56.8157 77.1097 56.6955C77.1306 56.6485 77.1149 56.6067 77.1149 56.5596C77.1149 56.5596 77.1202 56.5596 77.1202 56.5544C77.2456 56.476 77.3867 56.4133 77.5225 56.3506C77.7943 56.2252 78.0712 56.1102 78.3534 56.0057C78.5049 55.9639 78.5938 55.7758 78.5311 55.6295Z" fill="black"/>
<path d="M77.1514 60.7035C76.5139 60.5781 75.845 60.7088 75.2911 61.0432C74.941 60.4788 74.4184 60.019 73.807 59.7472C73.4569 59.5905 73.2061 60.1339 73.5562 60.2907C74.0474 60.5102 74.4498 60.8603 74.7529 61.3045C74.8992 61.524 75.0089 61.7539 75.0925 62.0099C75.1343 62.1354 75.1552 62.2346 75.1762 62.3601C75.1866 62.4332 75.2023 62.5064 75.2023 62.5743C75.2023 62.5482 75.1971 62.6057 75.1971 62.6213C74.9201 62.846 75.2493 63.3007 75.5576 63.0864C75.913 62.8408 75.798 62.3548 75.7092 61.9995C75.6726 61.8479 75.6203 61.7016 75.5576 61.5553C75.5942 61.5344 75.6256 61.5083 75.6621 61.4874C75.683 61.4769 75.6935 61.4717 75.6674 61.4822C75.683 61.4717 75.6987 61.4665 75.7144 61.456C75.7457 61.4403 75.7823 61.4247 75.8137 61.409C75.8816 61.3776 75.9495 61.3515 76.0227 61.3306C76.0593 61.3202 76.0959 61.3097 76.1272 61.2993C76.1481 61.294 76.1638 61.2888 76.1324 61.2993C76.1533 61.294 76.1795 61.2888 76.2004 61.2836C76.3467 61.2522 76.493 61.2365 76.6393 61.2365C76.6602 61.2365 76.6759 61.2365 76.6968 61.2365C76.7438 61.2365 76.6498 61.2313 76.702 61.2365C76.7386 61.2418 76.7752 61.2418 76.8118 61.247C76.8902 61.2522 76.9685 61.2679 77.0469 61.2836C77.1985 61.3149 77.3709 61.1947 77.3918 61.038C77.418 60.8812 77.3187 60.7349 77.1514 60.7035Z" fill="black"/>
<path d="M72.7462 30.2644C72.5581 26.2929 71.4868 22.3214 72.4849 18.376C72.579 18.005 71.9885 17.9057 71.8944 18.2767C71.0897 21.4591 71.607 24.6938 71.9519 27.9076C72.2655 30.8183 72.9761 36.4829 69.0726 37.3399C68.7016 37.4235 68.7591 38.0192 69.1353 37.9356C72.579 37.1779 72.8873 33.1541 72.7462 30.2644Z" fill="black"/>
<path d="M66.4599 36.9532C65.1064 34.9518 65.467 32.4174 66.0105 30.2069C66.695 27.4008 67.667 24.673 68.8584 22.0445C69.0152 21.6944 68.4717 21.4435 68.315 21.7936C67.0451 24.605 65.9948 27.5471 65.3155 30.5623C64.8086 32.8145 64.6204 35.3019 65.9739 37.3033C66.1881 37.6221 66.6741 37.272 66.4599 36.9532Z" fill="black"/>
<path d="M83.0512 6.99441C82.2622 8.85997 80.6265 10.1193 78.923 11.1174C78.0137 11.6557 77.0679 12.1312 76.1534 12.659C75.333 13.1345 74.4969 13.6153 73.99 14.441C73.7862 14.7702 74.3349 15.0158 74.5334 14.6918C75.0769 13.8139 76.2004 13.3122 77.0731 12.8262C77.998 12.3141 78.9387 11.8281 79.8322 11.2638C81.4052 10.2761 82.8631 8.99061 83.5999 7.24002C83.7462 6.8899 83.2028 6.63907 83.0512 6.99441Z" fill="black"/>
<path d="M86.2858 8.02385C86.1343 7.6685 85.5751 7.88275 85.7267 8.2381C86.1709 9.26755 86.1447 10.4381 85.6483 11.4414C85.4759 11.7863 86.0246 12.0371 86.1918 11.6922C86.7561 10.5531 86.7927 9.18917 86.2858 8.02385Z" fill="black"/>
<path d="M89.1286 8.8757C89.1652 7.39684 88.3291 6.2263 87.4355 5.12369C87.1951 4.82583 86.7039 5.17072 86.9495 5.4738C87.7282 6.44055 88.5172 7.45432 88.5329 8.75028C88.5434 9.87379 88.0156 10.9816 87.1272 11.6662C86.8241 11.9013 87.169 12.3873 87.4773 12.1522C88.4911 11.3736 89.0973 10.156 89.1286 8.8757Z" fill="black"/>
<path d="M77.4441 4.74225C71.9153 7.27146 68.1895 12.9256 68.017 19.003C68.0066 19.3845 68.6023 19.3218 68.6127 18.9403C68.7747 13.1555 72.3961 7.71041 77.6583 5.30662C78.0084 5.1394 77.7994 4.58025 77.4441 4.74225Z" fill="black"/>
<path d="M70.2852 52.1283V114.946L118.648 125.946V61.8637L70.2852 52.1283Z" fill="#FFFFD8"/>
<path d="M166.772 52.1283V114.946L118.413 125.946V61.8637L166.772 52.1283Z" fill="#E3ECCA"/>
<path d="M163.741 106.292L120.896 114.773V117.083L163.741 108.602V106.292Z" fill="#FFFFD8"/>
<path d="M163.741 100.44L120.896 108.921V111.231L163.741 102.749V100.44Z" fill="#FFFFD8"/>
<path d="M163.741 94.5868L120.896 103.063V105.373L163.741 96.8913V94.5868Z" fill="#FFFFD8"/>
<path d="M163.741 88.7286L120.896 97.2099V99.5196L163.741 91.0384V88.7286Z" fill="#FFFFD8"/>
<path d="M163.741 73.5326L120.896 82.0138V93.667L163.741 85.1858V73.5326Z" fill="#FFFFD8"/>
<path d="M163.741 69.1745L120.896 77.6557V79.9654L163.741 71.4842V69.1745Z" fill="#FFFFD8"/>
<path d="M163.741 63.7816L120.896 72.2576V74.5674L163.741 66.0862V63.7816Z" fill="#FFFFD8"/>
<path d="M163.741 58.3835L120.896 66.8647V69.1744L163.741 60.6932V58.3835Z" fill="#FFFFD8"/>
<path d="M115.947 69.1744L73.1018 60.6932V58.3835L115.947 66.8647V69.1744Z" fill="#E3ECCA"/>
<path d="M115.947 75.0272L73.1018 66.546V64.2362L115.947 72.7174V75.0272Z" fill="#E3ECCA"/>
<path d="M115.947 80.8799L73.1018 72.4039V70.0941L115.947 78.5754V80.8799Z" fill="#E3ECCA"/>
<path d="M115.947 86.7379L73.1018 78.2566V75.9469L115.947 84.4281V86.7379Z" fill="#E3ECCA"/>
<path d="M115.947 101.934L73.1018 93.4529V81.7997L115.947 90.2809V101.934Z" fill="#E3ECCA"/>
<path d="M115.947 106.292L73.1018 97.8108V95.5011L115.947 103.982V106.292Z" fill="#E3ECCA"/>
<path d="M115.947 111.685L73.1018 103.209V100.899L115.947 109.38V111.685Z" fill="#E3ECCA"/>
<path d="M115.947 117.083L73.1018 108.602V106.292L115.947 114.773V117.083Z" fill="#E3ECCA"/>
<path d="M45.9807 87.8039C51.9119 85.8129 61.0254 80.744 63.5755 79.145L65.4463 79.2391C66.3033 79.2077 67.1341 78.9046 67.8135 78.3873L70.2382 76.527C70.2382 76.527 73.06 76.0462 74.309 75.1683C74.7218 74.8756 74.45 74.2224 73.9484 74.2799L69.6007 74.7973C69.6007 74.7973 69.1303 72.5973 76.3156 71.8082C76.3156 71.8082 77.9303 70.554 76.1275 70.1935C76.1275 70.1935 71.0795 69.8747 69.6007 71.155C69.6007 71.155 69.2244 69.5507 77.4182 69.4514C77.4182 69.4514 81.2225 66.5251 68.1218 68.3959L70.9907 66.175L74.6434 65.6472C75.9132 65.6472 76.1954 64.346 74.9517 64.0899C74.6225 64.022 74.2201 63.975 73.7341 63.9645L70.8444 64.3669C69.9612 64.4923 69.1303 64.8372 68.4197 65.3807L66.8572 66.5721C65.2999 67.7635 64.1242 69.3783 63.4657 71.2229L62.1071 75.0272C62.1071 75.0272 54.8225 75.2467 49.1318 76.6315C45.4634 77.525 42.6781 80.5089 41.9413 84.2139C41.4867 86.5602 43.718 88.5616 45.9807 87.8039Z" fill="#F4C192"/>
<path d="M25.6683 133.215H3.86694V150.506H25.6683V133.215Z" fill="#FFFFD8"/>
<path d="M26.2066 133.643H0L5.37196 120.004H31.5786L26.2066 133.643Z" fill="#FFCC66"/>
<path d="M31.3593 120.558L34.9075 133.215V150.506H25.6685V133.215L31.3593 120.558Z" fill="#CAF4F8"/>
<path d="M10.5611 137.082H7.0913V142.668H10.5611V137.082Z" fill="#7DB3FF"/>
<path d="M20.9758 137.082H17.506V142.668H20.9758V137.082Z" fill="#7DB3FF"/>
<path d="M32.6498 142.668H29.5354V150.506H32.6498V142.668Z" fill="#7DB3FF"/>
<path d="M58.1718 133.215H36.3704V150.506H58.1718V133.215Z" fill="#FFFFD8"/>
<path d="M58.7102 133.643H32.5036L37.8756 120.004H64.0822L58.7102 133.643Z" fill="#FFCC66"/>
<path d="M63.8627 120.558L67.4109 133.215V150.506H58.172V133.215L63.8627 120.558Z" fill="#CAF4F8"/>
<path d="M43.0594 137.082H39.5896V142.668H43.0594V137.082Z" fill="#7DB3FF"/>
<path d="M53.4792 137.082H50.0094V142.668H53.4792V137.082Z" fill="#7DB3FF"/>
<path d="M65.1535 142.668H62.039V150.506H65.1535V142.668Z" fill="#7DB3FF"/>
<path d="M90.9263 133.256H67.4109V150.501H90.9263V133.256Z" fill="#FFFFD8"/>
<path d="M91.2136 133.643H65.007L70.3738 120.004H96.5804L91.2136 133.643Z" fill="#FFCC66"/>
<path d="M96.3662 120.558L99.9144 133.215V150.506H90.6755V133.215L96.3662 120.558Z" fill="#CAF4F8"/>
<path d="M75.5629 137.082H72.0931V142.668H75.5629V137.082Z" fill="#7DB3FF"/>
<path d="M85.9827 137.082H82.5129V142.668H85.9827V137.082Z" fill="#7DB3FF"/>
<path d="M97.657 142.668H94.5425V150.506H97.657V142.668Z" fill="#7DB3FF"/>
<path d="M176.057 133.215H154.256V150.506H176.057V133.215Z" fill="#FFFFD8"/>
<path d="M176.595 133.643H150.389L155.761 120.004H181.967L176.595 133.643Z" fill="#FFCC66"/>
<path d="M181.748 120.558L185.296 133.215V150.506H176.062V133.215L181.748 120.558Z" fill="#CAF4F8"/>
<path d="M160.95 137.082H157.48V142.668H160.95V137.082Z" fill="#7DB3FF"/>
<path d="M171.37 137.082H167.9V142.668H171.37V137.082Z" fill="#7DB3FF"/>
<path d="M183.044 142.668H179.929V150.506H183.044V142.668Z" fill="#7DB3FF"/>
<path d="M208.461 133.215H186.66V150.506H208.461V133.215Z" fill="#FFFFD8"/>
<path d="M209 133.643H182.793L188.165 120.004H214.372L209 133.643Z" fill="#FFCC66"/>
<path d="M214.152 120.558L217.7 133.215V150.506H208.467V133.215L214.152 120.558Z" fill="#CAF4F8"/>
<path d="M193.354 137.082H189.884V142.668H193.354V137.082Z" fill="#7DB3FF"/>
<path d="M203.774 137.082H200.304V142.668H203.774V137.082Z" fill="#7DB3FF"/>
<path d="M215.448 142.668H212.333V150.506H215.448V142.668Z" fill="#7DB3FF"/>
<path d="M240.965 133.215H219.163V150.506H240.965V133.215Z" fill="#FFFFD8"/>
<path d="M241.503 133.643H215.296L220.668 120.004H246.875L241.503 133.643Z" fill="#FFCC66"/>
<path d="M246.656 120.558L250.204 133.215V150.506H240.965V133.215L246.656 120.558Z" fill="#CAF4F8"/>
<path d="M225.857 137.082H222.388V142.668H225.857V137.082Z" fill="#7DB3FF"/>
<path d="M236.272 137.082H232.802V142.668H236.272V137.082Z" fill="#7DB3FF"/>
<path d="M247.946 142.668H244.832V150.506H247.946V142.668Z" fill="#7DB3FF"/>
<path d="M98.3412 143.912C97.5051 144.293 96.5488 144.502 95.5716 144.533C95.185 144.554 94.7826 144.539 94.3959 144.492C93.6173 144.408 92.8648 144.204 92.1959 143.896L91.7204 143.671C91.4591 143.551 91.2135 143.41 90.9888 143.264C90.022 142.605 89.4995 141.727 89.5413 140.802C89.6771 138.174 89.8548 135.509 90.0899 132.875L91.7622 133.089L92.7184 133.209C92.6453 133.183 92.2795 133.079 91.7831 132.932C91.3075 132.791 90.7118 132.619 90.1318 132.452C90.7536 125.596 91.7569 119.027 93.403 114.037C93.7688 112.929 96.2353 112.981 96.5018 114.099C96.6429 114.705 96.784 115.364 96.9199 116.059C97.364 118.295 97.7978 120.966 98.2211 123.845C96.8206 124.232 94.8819 124.812 94.7617 124.843L98.2994 124.388C98.4196 125.209 98.5346 126.04 98.6548 126.886C98.6705 127.017 98.6914 127.148 98.707 127.284C99.3184 131.725 99.9194 136.46 100.536 140.823C100.703 142.035 99.8671 143.211 98.3412 143.912Z" fill="#5BC184"/>
<path d="M97.8969 133.293C97.6984 134.317 97.1444 134.74 97.1444 134.74L97.1235 133.601C97.7297 132.844 97.8238 131.48 97.8238 131.48L97.1026 133.314C96.9563 132.645 96.5853 132.013 96.5853 132.013C96.5853 132.013 96.8832 132.624 96.8257 133.742C96.7212 135.817 96.1098 137.385 95.5715 138.393L95.2684 131.433C95.2632 131.312 95.2162 131.229 95.1483 131.166C95.2266 130.581 95.3625 129.954 95.5663 129.29C95.9007 128.219 96.3867 127.749 96.3867 127.749C96.3867 127.749 95.8171 128.214 95.4513 128.788L95.4043 126.818C95.4043 126.818 95.0281 128.13 95.3311 129.055L94.9183 130.121C94.9183 130.121 94.5473 129.531 94.7145 128.501C94.7145 128.501 94.354 129.656 94.6414 130.461L94.3226 142.093C93.591 140.959 92.7445 139.203 92.41 136.841C92.2219 135.524 92.5093 134.772 92.5093 134.772C92.5093 134.772 92.1383 135.561 92.039 136.366L90.9886 134.281C90.9886 134.281 91.2499 135.88 92.0494 136.711L92.1487 138.059C92.1487 138.059 91.4537 137.615 91.1088 136.428C91.1088 136.428 91.3074 137.85 92.0233 138.566C92.0233 138.566 92.6399 141.753 94.3017 143.718L94.1711 150.538H96.1045L95.6395 139.851C97.0034 138.08 97.296 135.159 97.296 135.159C97.8395 134.5 97.8969 133.293 97.8969 133.293Z" fill="#7B3D37"/>
<path d="M96.7472 118.024C96.6427 117.208 96.5487 116.388 96.3867 115.583C96.2665 114.982 96.0627 114.413 95.5871 114.005C95.4617 113.895 95.2788 114.078 95.4043 114.188C95.9582 114.664 96.094 115.369 96.209 116.059C96.3449 116.895 96.4546 117.731 96.5539 118.572C96.7472 120.213 96.8831 121.864 96.9615 123.516C96.9667 123.683 97.228 123.683 97.2175 123.516C97.1339 121.676 96.9772 119.847 96.7472 118.024Z" fill="#213B56"/>
<path d="M100.034 139.783C99.8619 138.869 99.6528 137.959 99.4699 137.045C98.7383 133.319 98.1688 129.557 97.7559 125.784C97.7403 125.622 97.479 125.616 97.4946 125.784C97.8448 129.003 98.3098 132.206 98.8899 135.388C99.1721 136.951 99.5483 138.498 99.8148 140.06C99.9611 140.922 99.9821 141.873 99.3236 142.542C98.8063 143.065 98.0851 143.316 97.411 143.546C97.2543 143.598 97.3222 143.849 97.479 143.796C98.5763 143.42 99.7835 142.924 100.087 141.68C100.249 141.053 100.154 140.4 100.034 139.783Z" fill="#213B56"/>
<path d="M94.9027 138.958C94.9131 138.791 94.6518 138.791 94.6466 138.958C94.4428 142.302 94.4742 145.652 94.7459 148.986C94.7616 149.153 95.0176 149.153 95.0072 148.986C94.7355 145.647 94.6989 142.297 94.9027 138.958Z" fill="#213B56"/>
<path d="M160.281 143.912C159.445 144.293 158.488 144.502 157.511 144.533C157.124 144.554 156.722 144.539 156.335 144.492C155.557 144.408 154.804 144.204 154.135 143.896L153.66 143.671C153.399 143.551 153.153 143.41 152.928 143.264C151.961 142.605 151.439 141.727 151.481 140.802C151.617 138.174 151.794 135.509 152.029 132.875L153.702 133.089L154.658 133.209C154.585 133.183 154.219 133.079 153.723 132.932C153.247 132.791 152.651 132.619 152.071 132.452C152.693 125.596 153.696 119.027 155.342 114.037C155.708 112.929 158.175 112.981 158.441 114.099C158.582 114.705 158.723 115.364 158.859 116.059C159.304 118.295 159.737 120.966 160.161 123.845C158.76 124.232 156.821 124.812 156.701 124.843L160.239 124.388C160.359 125.209 160.474 126.04 160.594 126.886C160.61 127.017 160.631 127.148 160.647 127.284C161.258 131.725 161.859 136.46 162.476 140.823C162.643 142.035 161.807 143.211 160.281 143.912Z" fill="#5BC184"/>
<path d="M159.831 133.293C159.633 134.317 159.084 134.74 159.084 134.74L159.063 133.601C159.669 132.844 159.764 131.48 159.764 131.48L159.042 133.314C158.896 132.645 158.525 132.013 158.525 132.013C158.525 132.013 158.823 132.624 158.765 133.742C158.661 135.817 158.05 137.385 157.511 138.393L157.208 131.433C157.203 131.312 157.156 131.229 157.088 131.166C157.166 130.581 157.302 129.954 157.506 129.29C157.84 128.219 158.326 127.749 158.326 127.749C158.326 127.749 157.757 128.214 157.391 128.788L157.344 126.818C157.344 126.818 156.968 128.13 157.271 129.055L156.858 130.121C156.858 130.121 156.487 129.531 156.654 128.501C156.654 128.501 156.294 129.656 156.581 130.461L156.262 142.093C155.531 140.959 154.684 139.203 154.35 136.841C154.162 135.524 154.449 134.772 154.449 134.772C154.449 134.772 154.078 135.561 153.979 136.366L152.928 134.281C152.928 134.281 153.19 135.88 153.989 136.711L154.088 138.059C154.088 138.059 153.393 137.615 153.049 136.428C153.049 136.428 153.247 137.85 153.963 138.566C153.963 138.566 154.58 141.753 156.241 143.718L156.111 150.538H158.044L157.579 139.851C158.943 138.08 159.236 135.159 159.236 135.159C159.779 134.5 159.831 133.293 159.831 133.293Z" fill="#7B3D37"/>
<path d="M158.682 118.024C158.577 117.208 158.483 116.388 158.321 115.583C158.201 114.982 157.997 114.413 157.522 114.005C157.396 113.895 157.213 114.078 157.339 114.188C157.893 114.664 158.029 115.369 158.143 116.059C158.279 116.895 158.389 117.731 158.488 118.572C158.682 120.213 158.818 121.864 158.896 123.516C158.901 123.683 159.162 123.683 159.157 123.516C159.068 121.676 158.917 119.847 158.682 118.024Z" fill="#213B56"/>
<path d="M161.974 139.783C161.802 138.869 161.593 137.959 161.41 137.045C160.678 133.319 160.108 129.557 159.696 125.784C159.68 125.622 159.419 125.616 159.44 125.784C159.79 129.003 160.255 132.206 160.835 135.388C161.117 136.951 161.493 138.498 161.76 140.06C161.906 140.922 161.927 141.873 161.269 142.542C160.751 143.065 160.03 143.316 159.356 143.546C159.199 143.598 159.267 143.849 159.424 143.796C160.521 143.42 161.728 142.924 162.031 141.68C162.188 141.053 162.089 140.4 161.974 139.783Z" fill="#213B56"/>
<path d="M156.842 138.958C156.853 138.791 156.591 138.791 156.581 138.958C156.377 142.302 156.409 145.652 156.68 148.986C156.696 149.153 156.952 149.153 156.942 148.986C156.67 145.647 156.639 142.297 156.842 138.958Z" fill="#213B56"/>
<path d="M146.741 98.276L154.486 121.556L101.362 122.612L133.181 98.276H146.741Z" fill="#F6CF62"/>
<path d="M136.828 120.825H100.228V150.339H136.828V120.825Z" fill="#E58A21"/>
<path d="M128.953 128.172H123.127V136.956H128.953V128.172Z" fill="#DC5B48"/>
<path d="M129.669 127.446C129.654 127.44 129.643 127.425 129.627 127.425H122.259C122.097 127.425 122.097 127.67 122.254 127.681C122.191 127.686 122.134 127.722 122.134 127.801V137.74C122.134 137.897 122.348 137.902 122.379 137.766C122.395 137.771 122.406 137.787 122.426 137.787H129.633C129.701 137.787 129.732 137.74 129.748 137.688C129.8 137.677 129.847 137.641 129.847 137.573V127.555C129.836 127.456 129.742 127.425 129.669 127.446ZM122.385 137.547V127.806C122.385 127.733 122.332 127.696 122.27 127.686H129.575V137.531H122.416C122.406 137.531 122.4 137.541 122.385 137.547Z" fill="#213B56"/>
<path d="M128.843 128.715C128.843 128.548 128.587 128.548 128.587 128.715V136.867H123.299V128.433H128.634C128.802 128.433 128.802 128.172 128.634 128.172H123.252C123.184 128.172 123.153 128.219 123.137 128.271C123.085 128.282 123.038 128.318 123.038 128.386V136.888C122.928 136.935 122.938 137.129 123.085 137.129H128.718C128.823 137.129 128.854 137.035 128.828 136.961C128.833 136.946 128.849 136.935 128.849 136.92V128.715H128.843Z" fill="#213B56"/>
<path d="M112.184 128.172H106.357V136.956H112.184V128.172Z" fill="#DC5B48"/>
<path d="M112.9 127.446C112.884 127.44 112.874 127.425 112.858 127.425H105.49C105.328 127.425 105.328 127.67 105.485 127.681C105.422 127.686 105.365 127.722 105.365 127.801V137.74C105.365 137.897 105.579 137.902 105.61 137.766C105.626 137.771 105.636 137.787 105.657 137.787H112.863C112.931 137.787 112.963 137.74 112.978 137.688C113.031 137.677 113.078 137.641 113.078 137.573V127.555C113.067 127.456 112.973 127.425 112.9 127.446ZM105.615 137.547V127.806C105.615 127.733 105.563 127.696 105.501 127.686H112.806V137.531H105.647C105.636 137.531 105.631 137.541 105.615 137.547Z" fill="#213B56"/>
<path d="M112.074 128.715C112.074 128.548 111.813 128.548 111.813 128.715V136.867H106.525V128.433H111.86C112.027 128.433 112.027 128.172 111.86 128.172H106.478C106.41 128.172 106.378 128.219 106.363 128.271C106.31 128.282 106.263 128.318 106.263 128.386V136.888C106.154 136.935 106.164 137.129 106.31 137.129H111.944C112.048 137.129 112.08 137.035 112.053 136.961C112.059 136.946 112.074 136.935 112.074 136.92V128.715Z" fill="#213B56"/>
<path d="M146.375 99.2218L152.333 120.825V150.339H136.828V120.825L146.375 99.2218Z" fill="#FFE2B8"/>
<path d="M137.727 121.556H93.7374L102.752 98.276H146.741L137.727 121.556Z" fill="#F6CF62"/>
<path d="M148.549 136.956H143.318V150.339H148.549V136.956Z" fill="#DC5B48"/>
<path d="M104.236 99.6973C102.067 106.344 99.768 112.955 97.3485 119.513C97.291 119.67 97.5419 119.738 97.5993 119.581C100.024 113.023 102.318 106.412 104.487 99.7653C104.534 99.6033 104.283 99.5353 104.236 99.6973Z" fill="#213B56"/>
<path d="M107.81 99.6973C105.642 106.344 103.342 112.955 100.923 119.513C100.866 119.67 101.116 119.738 101.174 119.581C103.599 113.023 105.893 106.412 108.061 99.7653C108.114 99.6033 107.863 99.5353 107.81 99.6973Z" fill="#213B56"/>
<path d="M111.39 99.6973C109.221 106.344 106.922 112.955 104.502 119.513C104.445 119.67 104.696 119.738 104.753 119.581C107.178 113.023 109.472 106.412 111.641 99.7653C111.688 99.6033 111.437 99.5353 111.39 99.6973Z" fill="#213B56"/>
<path d="M114.964 99.6973C112.796 106.344 110.496 112.955 108.077 119.513C108.019 119.67 108.27 119.738 108.328 119.581C110.752 113.023 113.046 106.412 115.215 99.7653C115.267 99.6033 115.016 99.5353 114.964 99.6973Z" fill="#213B56"/>
<path d="M118.544 99.6973C116.375 106.344 114.076 112.955 111.656 119.513C111.599 119.67 111.85 119.738 111.907 119.581C114.332 113.023 116.626 106.412 118.795 99.7653C118.842 99.6033 118.596 99.5353 118.544 99.6973Z" fill="#213B56"/>
<path d="M122.118 99.6973C119.95 106.344 117.65 112.955 115.231 119.513C115.173 119.67 115.424 119.738 115.482 119.581C117.906 113.023 120.2 106.412 122.369 99.7653C122.421 99.6033 122.17 99.5353 122.118 99.6973Z" fill="#213B56"/>
<path d="M125.698 99.6973C123.529 106.344 121.23 112.955 118.81 119.513C118.753 119.67 119.004 119.738 119.061 119.581C121.486 113.023 123.78 106.412 125.949 99.7653C126.001 99.6033 125.75 99.5353 125.698 99.6973Z" fill="#213B56"/>
<path d="M129.272 99.6973C127.103 106.344 124.804 112.955 122.385 119.513C122.327 119.67 122.578 119.738 122.635 119.581C125.06 113.023 127.354 106.412 129.523 99.7653C129.575 99.6033 129.324 99.5353 129.272 99.6973Z" fill="#213B56"/>
<path d="M132.852 99.6973C130.683 106.344 128.384 112.955 125.964 119.513C125.907 119.67 126.157 119.738 126.215 119.581C128.64 113.023 130.934 106.412 133.102 99.7653C133.155 99.6033 132.904 99.5353 132.852 99.6973Z" fill="#213B56"/>
<path d="M136.431 99.6973C134.263 106.344 131.963 112.955 129.544 119.513C129.486 119.67 129.737 119.738 129.795 119.581C132.219 113.023 134.513 106.412 136.682 99.7653C136.729 99.6033 136.478 99.5353 136.431 99.6973Z" fill="#213B56"/>
<path d="M140.005 99.6973C137.837 106.344 135.538 112.955 133.118 119.513C133.061 119.67 133.311 119.738 133.369 119.581C135.794 113.023 138.088 106.412 140.256 99.7653C140.309 99.6033 140.058 99.5353 140.005 99.6973Z" fill="#213B56"/>
<path d="M150.028 111.418C149.03 108.011 148.032 104.604 147.039 101.197C146.992 101.035 146.741 101.103 146.788 101.265C147.786 104.672 148.785 108.079 149.777 111.486C150.749 114.81 151.732 118.139 152.317 121.556C152.343 121.718 152.594 121.65 152.568 121.488C151.983 118.065 151 114.742 150.028 111.418Z" fill="#213B56"/>
<path d="M147.959 143.676C147.959 143.603 147.901 143.546 147.828 143.546C147.776 143.546 147.724 143.551 147.671 143.551H147.666C147.661 143.551 147.65 143.551 147.645 143.556C147.535 143.567 147.431 143.582 147.332 143.629C147.227 143.682 147.138 143.776 147.091 143.88C146.976 144.11 146.992 144.392 147.164 144.591C147.326 144.779 147.609 144.821 147.833 144.737C148.079 144.648 148.257 144.418 148.23 144.152C148.21 143.953 148.105 143.786 147.959 143.676ZM147.959 144.277C147.954 144.288 147.953 144.298 147.948 144.309C147.948 144.309 147.948 144.309 147.948 144.314L147.943 144.324C147.933 144.34 147.922 144.356 147.912 144.377C147.927 144.35 147.912 144.377 147.901 144.387C147.896 144.397 147.886 144.403 147.875 144.413C147.87 144.418 147.859 144.429 147.849 144.434L147.844 144.439C147.823 144.45 147.807 144.465 147.786 144.476C147.776 144.481 147.75 144.492 147.776 144.481C147.765 144.486 147.755 144.486 147.75 144.492C147.729 144.497 147.703 144.507 147.682 144.512C147.677 144.512 147.64 144.518 147.661 144.518C147.677 144.518 147.65 144.518 147.645 144.518C147.624 144.518 147.598 144.518 147.577 144.518C147.567 144.518 147.535 144.512 147.567 144.518C147.556 144.518 147.546 144.512 147.535 144.512C147.515 144.507 147.488 144.502 147.468 144.492C147.447 144.486 147.483 144.502 147.462 144.492C147.452 144.486 147.441 144.481 147.431 144.476C147.42 144.471 147.415 144.465 147.405 144.46L147.4 144.455L147.394 144.45C147.379 144.434 147.363 144.418 147.347 144.403C147.332 144.387 147.358 144.418 147.342 144.397C147.337 144.387 147.326 144.377 147.321 144.366C147.316 144.356 147.311 144.35 147.306 144.34C147.306 144.34 147.306 144.34 147.306 144.345C147.306 144.34 147.3 144.335 147.3 144.33C147.295 144.309 147.285 144.288 147.279 144.262C147.279 144.256 147.274 144.225 147.274 144.246C147.274 144.267 147.274 144.225 147.274 144.225C147.274 144.204 147.274 144.178 147.274 144.157C147.274 144.147 147.279 144.131 147.274 144.152C147.274 144.141 147.279 144.131 147.279 144.121C147.285 144.1 147.29 144.073 147.3 144.053C147.306 144.042 147.316 144.011 147.306 144.037C147.311 144.026 147.316 144.011 147.321 144C147.326 143.99 147.332 143.979 147.337 143.969C147.342 143.964 147.363 143.932 147.353 143.948C147.342 143.959 147.363 143.938 147.368 143.932C147.379 143.922 147.389 143.911 147.394 143.906C147.4 143.901 147.4 143.901 147.405 143.896C147.415 143.891 147.426 143.88 147.436 143.875C147.483 143.849 147.551 143.828 147.603 143.823C147.619 143.823 147.64 143.823 147.656 143.817C147.656 143.817 147.656 143.817 147.661 143.817C147.64 143.812 147.656 143.817 147.666 143.817C147.677 143.817 147.692 143.823 147.703 143.828C147.713 143.833 147.724 143.833 147.729 143.838C147.734 143.844 147.739 143.844 147.75 143.849C147.765 143.859 147.786 143.87 147.802 143.88C147.807 143.88 147.812 143.885 147.818 143.891C147.828 143.901 147.839 143.911 147.849 143.922C147.854 143.927 147.865 143.938 147.87 143.943C147.875 143.948 147.875 143.953 147.88 143.953C147.896 143.974 147.906 143.995 147.922 144.016C147.927 144.026 147.933 144.037 147.938 144.042V144.047C147.938 144.047 147.943 144.053 147.943 144.058C147.948 144.084 147.959 144.105 147.964 144.131C147.964 144.141 147.969 144.152 147.969 144.162C147.964 144.136 147.969 144.162 147.969 144.173C147.969 144.199 147.969 144.22 147.969 144.246V144.251C147.964 144.256 147.964 144.267 147.959 144.277Z" fill="#213B56"/>
<path d="M147.306 144.336C147.3 144.318 147.3 144.33 147.306 144.336V144.336Z" fill="#213B56"/>
<path d="M142.414 136.669V150.25C142.414 150.417 142.676 136.669 142.676 136.669C142.676 136.501 142.414 136.501 142.414 136.669Z" fill="#213B56"/>
<path d="M149.25 136.407C149.229 136.387 149.208 136.371 149.171 136.371H142.796C142.629 136.371 142.629 136.627 142.796 136.627H149.171C149.187 136.627 149.192 136.617 149.208 136.611V150.329C149.208 150.496 149.469 150.496 149.469 150.329V136.502C149.464 136.376 149.323 136.345 149.25 136.407Z" fill="#213B56"/>
<path d="M145.712 101.213C143.068 107.99 140.424 114.768 137.774 121.546H113.726C113.558 121.546 113.558 121.807 113.726 121.807H137.706C137.743 121.896 137.905 121.922 137.952 121.797C140.622 114.956 143.287 108.121 145.957 101.281C146.02 101.129 145.769 101.061 145.712 101.213Z" fill="#213B56"/>
<path d="M136.619 123.829V150.329C136.619 150.496 136.875 150.496 136.875 150.329V123.829C136.875 123.662 136.619 123.662 136.619 123.829Z" fill="#213B56"/>
<g opacity="0.48">
<path opacity="0.57" d="M117.326 96.285L101.759 152.994C97.0193 148.097 93.701 141.732 92.5775 134.484C89.8915 117.12 100.766 100.795 117.326 96.285Z" fill="#CBEBF9"/>
<path opacity="0.57" d="M144.019 99.9795L126.591 163.45C121.69 163.492 116.96 162.473 112.654 160.576L130.568 95.3182C135.396 95.9139 139.969 97.5339 144.019 99.9795Z" fill="#CBEBF9"/>
<path opacity="0.57" d="M160.15 124.033C162.554 139.579 154.083 154.29 140.397 160.435L154.355 109.616C157.281 113.775 159.319 118.661 160.15 124.033Z" fill="#CBEBF9"/>
</g>
<path d="M215.197 96.5621C214.194 93.7768 211.126 92.3293 208.341 93.3326L162.81 109.694C155.76 95.031 140.261 85.4367 123.064 86.7431C100.661 88.4414 83.8713 107.975 85.5696 130.388C87.268 152.79 106.801 169.58 129.209 167.882C151.611 166.183 168.407 146.65 166.708 124.242C166.598 122.763 166.4 121.316 166.139 119.889L211.962 103.423C214.748 102.42 216.195 99.3473 215.197 96.5621ZM128.718 161.397C109.89 162.823 93.476 148.714 92.0494 129.891C90.6228 111.058 104.727 94.6443 123.555 93.2177C142.388 91.7911 158.802 105.895 160.228 124.728C161.655 143.556 147.551 159.97 128.718 161.397Z" fill="#E58A21"/>
<path d="M166.254 122.199C166.766 143.697 150.331 162.066 128.645 163.706C106.937 165.352 87.9318 149.649 85.2197 128.297C85.2353 128.977 85.2719 129.661 85.3242 130.351C87.0225 152.759 106.556 169.543 128.964 167.845C151.366 166.147 168.161 146.613 166.463 124.206C166.41 123.537 166.343 122.863 166.254 122.199ZM214.946 96.536C214.868 96.3165 214.779 96.1075 214.669 95.9142C214.168 97.4139 213.008 98.6838 211.403 99.2586L165.58 115.725C165.825 117.052 166.013 118.4 166.123 119.774L211.717 103.392C214.502 102.389 215.95 99.3213 214.946 96.536Z" fill="#E58A21"/>
<path d="M209.836 86.1421C205.331 92.0889 196.144 100.466 193.364 102.739L192.758 104.886C192.392 105.843 191.744 106.663 190.893 107.238L187.872 109.276C187.872 109.276 186.257 112.286 184.794 113.362C184.308 113.718 183.671 113.164 183.927 112.62L186.163 107.907C186.163 107.907 183.859 106.538 180.232 114.366C180.232 114.366 178.2 115.714 178.482 113.54C178.482 113.54 180.039 107.708 182.046 106.527C182.046 106.527 180.373 105.493 177.149 114.721C177.149 114.721 172.399 117.909 179.49 103.81L175.89 106.209L173.904 110.138C173.423 111.575 171.845 111.398 172.023 109.898C172.07 109.501 172.174 109.025 172.342 108.471L173.894 105.357C174.369 104.406 175.08 103.596 175.958 103L177.902 101.688C179.84 100.382 182.114 99.666 184.444 99.6242L189.262 99.5354C189.262 99.5354 192.277 91.3834 196.009 85.4784C198.412 81.6742 202.849 79.6571 207.312 80.2319C210.139 80.5924 211.555 83.8741 209.836 86.1421Z" fill="#F4AF9B"/>
</svg>
