<svg width="42" height="21" viewBox="0 0 42 21" fill="none" xmlns="http://www.w3.org/2000/svg">
<path d="M0 3.1753C0.147286 3.11244 0.118054 2.98014 0.149534 2.88068C0.666721 1.24054 2.35995 0.0826898 4.39159 0.0179477C5.31915 -0.0111394 6.24897 0.00387326 7.17878 0.00387326C12.6171 0.00293497 18.0554 0.00762643 23.4938 0.00105839C25.5142 -0.00175649 27.0095 0.701024 27.9225 2.22106C28.253 2.77277 28.3553 3.36953 28.3553 3.97848C28.3576 8.18578 28.361 12.3931 28.3542 16.6004C28.3508 18.6215 26.8285 20.1762 24.5147 20.5281C24.1549 20.5825 23.7805 20.5816 23.4128 20.5816C17.2639 20.5844 11.115 20.5844 4.96612 20.5834C2.41504 20.5834 0.823002 19.5879 0.0978158 17.5415C0.0798267 17.4899 0.0921942 17.4242 0.00112432 17.4111C0 12.6671 0 7.92119 0 3.1753Z" fill="#333333"/>
<path d="M41.9944 10.301C41.9944 12.262 42.0102 14.2221 41.9888 16.1831C41.9719 17.7398 40.2304 18.8122 38.4618 18.3834C38.1717 18.3131 37.9064 18.1967 37.6478 18.0719C35.425 17.0098 33.2056 15.942 30.9783 14.8874C30.7321 14.771 30.6444 14.6462 30.6455 14.4107C30.6557 11.6521 30.6534 8.89355 30.6489 6.13497C30.6489 5.94356 30.6703 5.80751 30.9098 5.69397C33.2067 4.6018 35.4891 3.48805 37.7838 2.394C39.2027 1.71749 40.8274 2.08061 41.6414 3.24034C41.9168 3.63348 41.9967 4.07073 41.9955 4.52111C41.9933 6.44836 41.9955 8.37467 41.9944 10.301Z" fill="#333333"/>
<path d="M19.2338 9.47886C19.2304 9.61304 19.145 9.76504 18.9932 9.89453C18.3962 10.405 17.8025 10.9163 17.2044 11.4268C17.147 11.4756 17.1246 11.5178 17.1392 11.591C17.2876 12.3266 17.4315 13.0631 17.5698 13.8006C17.617 14.0549 17.5181 14.2707 17.2617 14.4208C17.0121 14.5672 16.7479 14.5682 16.4826 14.4443C15.7529 14.1065 15.0221 13.7697 14.2947 13.4281C14.2036 13.385 14.1395 13.3878 14.0507 13.43C13.3277 13.7706 12.6014 14.1075 11.8751 14.4443C11.6109 14.5672 11.3444 14.5672 11.096 14.419C10.8475 14.2707 10.7418 14.0624 10.7901 13.8091C10.9318 13.066 11.0768 12.3228 11.223 11.5806C11.2354 11.5168 11.2118 11.4756 11.16 11.4315C10.5608 10.9191 9.9649 10.404 9.36676 9.89078C9.13627 9.69373 9.06207 9.46573 9.17563 9.20582C9.28693 8.95154 9.52192 8.83332 9.83672 8.79485C10.6474 8.69633 11.4557 8.5903 12.2653 8.48897C12.3406 8.47958 12.3721 8.44487 12.4013 8.39326C12.7633 7.74865 13.1299 7.10592 13.4896 6.46038C13.5942 6.27366 13.7426 6.13104 13.9855 6.0738C14.3306 5.99217 14.6702 6.12259 14.8321 6.40408C15.085 6.84414 15.3324 7.28701 15.582 7.72895C15.7113 7.95695 15.8417 8.18402 15.9654 8.4139C15.9935 8.46739 16.0385 8.48052 16.0958 8.48803C16.6996 8.56497 17.3045 8.64191 17.9082 8.71979C18.1432 8.74981 18.3782 8.77796 18.612 8.81268C18.9831 8.86616 19.2349 9.1195 19.2338 9.47886Z" fill="#FFCD68"/>
</svg>
