<svg width="23" height="20" viewBox="0 0 23 20" fill="none" xmlns="http://www.w3.org/2000/svg">
<g clip-path="url(#clip0_917_25)">
<path d="M11.4966 16.624C11.4966 15.7588 11.4947 14.8943 11.4986 14.029C11.4992 13.9064 11.4883 13.8453 11.3353 13.8518C9.7865 13.9179 8.2518 14.0663 6.75488 14.5082C4.772 15.094 3.24818 16.2541 2.2417 18.0757C1.98303 18.5433 1.73781 19.0186 1.49003 19.4926C1.28579 19.8825 0.957339 20.0656 0.601996 19.9795C0.218481 19.8864 -0.00112714 19.5858 -0.000486885 19.1406C0.000793631 17.3621 0.0494533 15.586 0.383668 13.8319C0.714682 12.0918 1.32421 10.4802 2.56247 9.16666C3.6445 8.01883 4.99097 7.32448 6.47893 6.87486C7.80682 6.4734 9.17121 6.28842 10.5516 6.20363C10.7987 6.18821 11.0459 6.16638 11.293 6.17087C11.4601 6.17408 11.5018 6.1227 11.5005 5.95634C11.4928 4.81107 11.496 3.66581 11.496 2.52055C11.496 1.98421 11.5043 1.44723 11.4934 0.910891C11.4857 0.531921 11.601 0.228102 11.9602 0.0694488C12.3232 -0.0904895 12.6171 0.0495368 12.8911 0.304539C15.294 2.53276 17.7001 4.7584 20.1043 6.98534C20.9545 7.77282 21.8054 8.55967 22.6551 9.34844C23.1122 9.77302 23.116 10.2233 22.6621 10.6434C19.3904 13.6745 16.1167 16.7043 12.8457 19.7367C12.5806 19.9827 12.2867 20.0804 11.9487 19.9243C11.624 19.7746 11.4934 19.501 11.4953 19.1464C11.5005 18.3056 11.4966 17.4648 11.4966 16.624ZM13.03 2.52826C13.03 4.01716 13.032 5.45083 13.0288 6.88449C13.0275 7.36431 12.7106 7.68033 12.2368 7.69253C11.6785 7.70731 11.1189 7.71116 10.5619 7.74456C9.0931 7.8332 7.64356 8.0381 6.25612 8.5616C4.7259 9.1384 3.49916 10.0794 2.72061 11.5535C2.1988 12.5414 1.93309 13.607 1.77367 14.7035C1.70388 15.1807 1.64434 15.6599 1.62449 16.1943C1.68211 16.132 1.70388 16.1121 1.72117 16.0896C2.96839 14.4485 4.65547 13.5011 6.6057 12.9621C8.42083 12.4605 10.2776 12.3198 12.1491 12.307C12.7298 12.3031 13.0294 12.6057 13.0294 13.1947C13.03 14.5326 13.0288 15.8699 13.0313 17.2079C13.0313 17.2811 12.9987 17.364 13.0614 17.4359C13.089 17.4128 13.1133 17.3935 13.1363 17.373C15.7409 14.9617 18.3436 12.5478 20.9545 10.143C21.1191 9.99141 21.0333 9.93874 20.927 9.84046C19.0901 8.14152 17.2545 6.44065 15.4189 4.73978C14.6352 4.01267 13.8509 3.28749 13.03 2.52826Z" fill="white"/>
</g>
<defs>
<clipPath id="clip0_917_25">
<rect width="23" height="20" fill="white"/>
</clipPath>
</defs>
</svg>
