<svg width="18" height="24" viewBox="0 0 18 24" fill="none" xmlns="http://www.w3.org/2000/svg">
<g clip-path="url(#clip0_82_101)">
<path d="M9.74244 0C10.0818 0.0601253 10.4243 0.103967 10.7593 0.182255C14.4359 1.04593 16.7776 3.30752 17.7425 6.95324C18.2785 8.97808 17.9228 10.944 17.1665 12.8568C16.3757 14.8566 15.2586 16.6697 13.9989 18.4008C12.6039 20.3167 11.0542 22.0998 9.37364 23.7701C9.06496 24.077 8.92095 24.077 8.61227 23.7683C6.24424 21.3977 4.10288 18.8436 2.37163 15.9645C1.41302 14.3699 0.624095 12.7008 0.208971 10.8714C-0.632549 7.16054 1.12625 3.15031 4.42721 1.24948C5.5436 0.606889 6.73388 0.204802 8.01056 0.051357C8.05877 0.0457202 8.12451 0.073904 8.14956 0C8.68052 0 9.21148 0 9.74244 0ZM9.0036 13.1217C11.2583 13.1236 13.1173 11.2653 13.116 9.01065C13.1148 6.73779 11.2758 4.87704 9.0299 4.87453C6.71885 4.87202 4.8749 6.70522 4.87114 9.00814C4.86801 11.2716 6.72449 13.1198 9.0036 13.1217Z" fill="#FFCC66"/>
</g>
<defs>
<clipPath id="clip0_82_101">
<rect width="18" height="24" fill="white"/>
</clipPath>
</defs>
</svg>
