<svg width="14" height="19" viewBox="0 0 14 19" fill="none" xmlns="http://www.w3.org/2000/svg">
<path d="M7.57773 0C7.84146 0.047645 8.10821 0.082296 8.36856 0.144482C11.2281 0.82791 13.0493 2.61862 13.8001 5.50486C14.2172 7.10808 13.94 8.66428 13.352 10.1784C12.7371 11.7615 11.8679 13.1971 10.8881 14.5673C9.80323 16.0842 8.59764 17.4959 7.2908 18.8179C7.05063 19.0608 6.93861 19.0611 6.69877 18.8164C4.85641 16.94 3.19133 14.9182 1.8448 12.6386C1.09904 11.3763 0.485485 10.055 0.16256 8.60673C-0.492037 5.66883 0.876023 2.49394 3.44328 0.989098C4.31181 0.480163 5.23753 0.162117 6.23053 0.0405292C6.26787 0.0358885 6.31933 0.0584734 6.33851 0C6.75192 0 7.16466 0 7.57773 0ZM7.00286 10.3882C8.75675 10.3894 10.2025 8.91828 10.2015 7.13345C10.2005 5.33408 8.77054 3.86079 7.02338 3.85894C5.2261 3.85677 3.79143 5.3084 3.78908 7.13159C3.78605 8.92354 5.23013 10.3866 7.00286 10.3882Z" fill="#FFCC66"/>
</svg>
