<svg width="22" height="26" viewBox="0 0 22 26" fill="none" xmlns="http://www.w3.org/2000/svg">
<g clip-path="url(#clip0_88_54)">
<path d="M0.000989552 13.0067C0.000989552 9.73727 0.000989552 6.46786 0.000989552 3.19844C0.000989552 1.2752 1.26455 0.00501814 3.17868 0.00501814C7.52056 0.00334794 11.8624 0.00919364 16.2043 7.54526e-06C17.0227 -0.00166265 17.6975 0.27392 18.2696 0.85682C19.2175 1.82303 20.1745 2.78089 21.1408 3.72789C21.7237 4.29994 22.001 4.97386 22.0002 5.79226C21.9926 11.4876 21.9977 17.183 21.996 22.8784C21.9951 24.3615 21.1383 25.5156 19.7645 25.8956C19.4822 25.9741 19.1933 26 18.901 26C13.6329 25.9992 8.36405 26.0008 3.09601 25.9983C1.30464 25.9975 0.00516523 24.6981 0.00265982 22.9085C-0.00151586 19.6082 0.000989552 16.307 0.000989552 13.0067ZM9.1282 16.5341C8.98789 16.3554 8.89269 16.2335 8.79832 16.1116C7.9874 15.0685 7.17815 14.0247 6.3664 12.9833C5.95885 12.4605 5.35839 12.3495 4.89238 12.7077C4.4197 13.071 4.37042 13.6739 4.77713 14.1984C5.8862 15.6281 6.9986 17.0561 8.11016 18.4841C8.62461 19.1447 9.22925 19.1823 9.82637 18.586C11.3213 17.0928 12.8145 15.598 14.3094 14.1032C15.583 12.8296 16.854 11.5544 18.131 10.2843C18.4183 9.99866 18.5644 9.67213 18.4675 9.27129C18.3773 8.9005 18.1418 8.64914 17.7685 8.54391C17.3551 8.427 17.0194 8.56396 16.7238 8.85958C14.2676 11.3198 11.8081 13.7775 9.35118 16.2377C9.271 16.3195 9.21255 16.4222 9.1282 16.5341Z" fill="#FFCC66"/>
</g>
<defs>
<clipPath id="clip0_88_54">
<rect width="22" height="26" fill="white"/>
</clipPath>
</defs>
</svg>
