<svg width="17" height="23" viewBox="0 0 17 23" fill="none" xmlns="http://www.w3.org/2000/svg">
<g clip-path="url(#clip0_93_192)">
<path d="M0.00163898 12.0378C0.00163898 9.21779 -0.00168653 6.3978 0.00296918 3.57708C0.00496448 1.9641 0.949409 0.592523 2.35477 0.141613C2.65007 0.0466468 2.95203 0.000250972 3.2613 0.000975907C6.75309 0.00242578 10.2442 -0.00192383 13.736 0.00315071C15.5351 0.00605045 16.987 1.55379 16.9917 3.52271C17.005 9.20837 17.001 14.8933 16.9943 20.579C16.9923 21.9781 16.0073 23.0408 14.7842 22.9988C14.2468 22.9807 13.7972 22.7335 13.4041 22.342C12.2482 21.1886 11.0876 20.0411 9.92895 18.8906C9.52456 18.489 9.11087 18.0968 8.71979 17.6807C8.55485 17.5052 8.46306 17.498 8.28681 17.6749C6.74311 19.2233 5.18744 20.7573 3.63842 22.2992C3.05313 22.8821 2.3827 23.1271 1.60254 22.9162C0.641467 22.6559 0.00363428 21.6983 0.00296918 20.5253C-0.000356329 17.6959 0.00163898 14.8672 0.00163898 12.0378Z" fill="black"/>
</g>
<defs>
<clipPath id="clip0_93_192">
<rect width="17" height="23" fill="white"/>
</clipPath>
</defs>
</svg>
