<svg width="23" height="26" viewBox="0 0 23 26" fill="none" xmlns="http://www.w3.org/2000/svg">
<path d="M3.99609 25.9993C3.69768 25.8571 3.36237 25.8597 3.05209 25.753C1.28925 25.1482 0.235889 23.9302 0.0639522 22.0797C-0.140922 19.8748 0.142345 17.7075 0.973042 15.6436C1.46843 14.4137 2.20888 13.3518 3.421 12.6957C4.19306 12.278 5.02113 12.0969 5.89003 12.0817C6.18845 12.0764 6.45064 12.2056 6.69767 12.3604C7.09029 12.6061 7.47567 12.8643 7.87027 13.1067C10.1127 14.4829 12.3564 14.4829 14.5969 13.1015C14.917 12.9038 15.2425 12.7121 15.5422 12.4868C16.0725 12.0883 16.6575 12.0382 17.2866 12.1285C19.0303 12.3788 20.2695 13.3254 21.1054 14.8485C21.8558 16.2154 22.1746 17.7029 22.3498 19.2319C22.4381 19.9987 22.4677 20.7688 22.4526 21.5402C22.4052 23.9671 20.8465 25.6746 18.4269 25.948C18.39 25.9519 18.3591 25.9572 18.3505 26C13.5659 25.9993 8.78067 25.9993 3.99609 25.9993Z" fill="white"/>
<path d="M17.7161 6.48224C17.7194 10.0659 14.7826 12.9961 11.2154 12.9697C7.60936 12.9427 4.74507 10.0731 4.74309 6.48488C4.74112 2.89068 7.64889 -0.0118215 11.2398 3.62029e-05C14.83 0.0118939 17.7128 2.89727 17.7161 6.48224Z" fill="white"/>
</svg>
