<svg width="20" height="14" viewBox="0 0 20 14" fill="none" xmlns="http://www.w3.org/2000/svg">
<path d="M0.145203 1.40576C1.33427 2.1827 2.50186 2.94618 3.66946 3.7085C5.35671 4.81047 7.04396 5.91186 8.73061 7.01383C9.55693 7.554 10.4274 7.56335 11.2531 7.02552C14.0227 5.21969 16.7892 3.40977 19.5569 1.60219C19.6494 1.54197 19.7425 1.48234 19.8505 1.41278C19.968 1.64545 19.9984 1.88455 19.9984 2.1295C19.9996 2.98243 19.999 3.83536 19.999 4.68771C19.999 7.07872 20.0014 9.46915 19.9978 11.8602C19.996 12.8616 19.369 13.6666 18.4031 13.9273C18.2014 13.9817 17.995 13.9998 17.7856 13.9998C12.5937 13.9992 7.40193 14.0004 2.21012 13.9986C0.930955 13.998 0.00141635 13.0878 0.000819724 11.8356C-0.000970146 8.6133 0.000819724 5.39215 0.000223101 2.17042C0.000223101 1.91319 0.0312475 1.66299 0.145203 1.40576Z" fill="#FFCC66"/>
<path d="M1.04858 0.308669C1.43878 0.0853516 1.82121 0 2.23169 0C7.41515 0.0017538 12.5986 0.0011692 17.7821 0.0005846C17.9539 0.0005846 18.1239 0.0105228 18.2916 0.0455988C18.5171 0.0923668 18.7307 0.16778 18.9306 0.285869C18.899 0.378236 18.8124 0.400451 18.748 0.443127C16.0244 2.2244 13.3002 4.00393 10.5755 5.78345C10.0958 6.09679 9.90605 6.09621 9.42458 5.78169C6.70099 4.00217 3.97741 2.22265 1.25382 0.443711C1.19416 0.404543 1.1345 0.36479 1.04858 0.308669Z" fill="#FFCC66"/>
</svg>
