<svg width="40" height="111" viewBox="0 0 40 111" fill="none" xmlns="http://www.w3.org/2000/svg">
<path d="M12.9553 90.6381L14.227 102.922C14.227 102.922 2.20291 108.343 2.21943 110.634L26.0585 109.016L24.8582 89.7934L12.9553 90.6381Z" fill="#455A64"/>
<g opacity="0.3">
<path d="M12.9553 90.6381L14.227 102.922C14.227 102.922 2.20291 108.343 2.21943 110.634L26.0585 109.016L24.8582 89.7934L12.9553 90.6381Z" fill="black"/>
</g>
<g opacity="0.6">
<path d="M21.527 101.387C21.995 101.481 22.3529 101.983 22.2758 102.458C22.1987 102.933 21.6977 103.297 21.2242 103.209C20.7508 103.12 20.3103 102.535 20.4369 102.071C20.5636 101.608 21.1802 101.21 21.6151 101.409" fill="white"/>
</g>
<g opacity="0.6">
<path d="M26.0581 109.016L25.8599 107.084L3.07799 109.359C3.07799 109.359 2.04845 109.894 2.21913 110.634L26.0581 109.016Z" fill="white"/>
</g>
<path d="M13.8304 102.822C13.8414 102.938 14.425 102.955 15.0251 103.286C15.6307 103.606 15.961 104.092 16.0656 104.037C16.1702 104.009 15.95 103.319 15.2177 102.927C14.4965 102.53 13.8028 102.717 13.8304 102.822Z" fill="#263238"/>
<path d="M11.4025 104.031C11.3859 104.147 11.9035 104.313 12.3274 104.776C12.7678 105.229 12.9055 105.759 13.0211 105.743C13.1312 105.754 13.1642 105.064 12.6247 104.495C12.0851 103.921 11.397 103.921 11.4025 104.031Z" fill="#263238"/>
<path d="M10.1856 107.128C10.2957 107.145 10.4168 106.554 10.0754 105.936C9.7396 105.312 9.17253 105.097 9.12849 105.202C9.06793 105.301 9.44781 105.621 9.71758 106.135C10.0039 106.637 10.0699 107.123 10.1856 107.128Z" fill="#263238"/>
<path d="M13.8523 99.9955C13.9073 100.1 14.4304 99.9017 15.091 99.9017C15.7517 99.8907 16.2802 100.073 16.3353 99.9735C16.3958 99.8851 15.8673 99.4876 15.091 99.4987C14.3092 99.4987 13.7917 99.9072 13.8523 99.9955Z" fill="#263238"/>
<path d="M13.6431 97.5113C13.6431 97.561 14.1111 97.5996 14.8378 97.4229C15.2012 97.3346 15.6251 97.1856 16.0601 96.9537C16.2803 96.8378 16.5005 96.6997 16.7207 96.5396C16.8253 96.4624 16.952 96.3795 17.0621 96.236C17.1832 96.1035 17.2328 95.7888 17.0731 95.6122C16.941 95.4355 16.7152 95.3748 16.5445 95.3803C16.3684 95.3858 16.2307 95.43 16.0986 95.4741C15.8398 95.557 15.5921 95.6619 15.3719 95.7778C14.9314 96.0152 14.5791 96.3022 14.3203 96.5783C13.8028 97.1303 13.6431 97.5775 13.6817 97.5996C13.7367 97.6327 13.979 97.2518 14.5185 96.7881C14.7828 96.5562 15.1296 96.3133 15.5425 96.1145C15.7518 96.0152 15.9775 95.9268 16.2142 95.8551C16.462 95.7723 16.6767 95.7557 16.7483 95.8606C16.7758 95.9048 16.7813 95.9213 16.7317 95.9986C16.6822 96.0704 16.5831 96.1421 16.4785 96.2194C16.2748 96.374 16.0711 96.5065 15.8729 96.6225C15.471 96.8598 15.0856 97.0254 14.7497 97.1469C14.0836 97.3843 13.6376 97.445 13.6431 97.5113Z" fill="#263238"/>
<path d="M13.8029 97.6659C13.8469 97.6825 14.0506 97.2463 14.0396 96.49C14.0341 96.1146 13.9625 95.6619 13.7864 95.1927C13.6983 94.9553 13.5826 94.7179 13.434 94.486C13.2798 94.2597 13.0871 93.9561 12.6302 93.934C12.3934 93.9395 12.2118 94.1382 12.1567 94.3038C12.0906 94.4695 12.0851 94.613 12.0631 94.751C12.0356 95.0326 12.0631 95.3086 12.1182 95.557C12.2283 96.0594 12.465 96.4679 12.7128 96.7605C13.2193 97.3457 13.7148 97.4561 13.7203 97.4175C13.7533 97.3568 13.3349 97.158 12.9385 96.5894C12.7403 96.3078 12.5586 95.9324 12.487 95.4908C12.4485 95.27 12.4375 95.0381 12.4595 94.7952C12.4815 94.5412 12.5586 94.3259 12.6577 94.348C12.7788 94.337 12.988 94.5136 13.1037 94.7124C13.2413 94.9166 13.3514 95.1319 13.445 95.3417C13.6212 95.7613 13.7148 96.1754 13.7588 96.5232C13.8359 97.2077 13.7423 97.6549 13.8029 97.6659Z" fill="#263238"/>
<path d="M10.8903 0.739805C10.8903 0.739805 0.330634 48.8136 0.00580665 53.1032C-0.319021 57.3982 13.0925 94.4584 13.0925 94.4584L24.6321 92.2722C24.6321 92.2722 23.8999 37.546 23.5255 36.4695C23.1511 35.3985 26.4765 8.50184 26.4765 8.50184L10.8903 0.739805Z" fill="#263238"/>
<path d="M18.2624 91.2066L18.389 103.556C18.389 103.556 5.91347 107.835 5.71527 110.12L29.5983 110.369L30.1874 91.4827L18.2624 91.2066Z" fill="#455A64"/>
<g opacity="0.6">
<path d="M25.8048 102.706C26.2618 102.844 26.5701 103.374 26.449 103.838C26.3278 104.302 25.7938 104.622 25.3368 104.489C24.8744 104.357 24.489 103.733 24.6597 103.286C24.8303 102.839 25.48 102.496 25.8929 102.734" fill="white"/>
</g>
<g opacity="0.6">
<path d="M29.6036 110.369L29.5926 108.79L6.69499 108.928C6.69499 108.928 5.6214 109.364 5.7205 110.12L29.6036 110.369Z" fill="white"/>
</g>
<path d="M18.0088 103.424C18.0088 103.54 18.5924 103.612 19.154 103.998C19.7265 104.373 20.0128 104.887 20.1174 104.843C20.2275 104.821 20.0679 104.119 19.3797 103.656C18.6915 103.198 17.9868 103.319 18.0088 103.424Z" fill="#263238"/>
<path d="M15.4764 104.401C15.4489 104.511 15.9444 104.727 16.3298 105.229C16.7262 105.72 16.8142 106.261 16.9299 106.256C17.04 106.278 17.1391 105.593 16.6491 104.975C16.1646 104.357 15.4819 104.291 15.4764 104.401Z" fill="#263238"/>
<path d="M13.9735 107.371C14.0781 107.399 14.2543 106.819 13.9735 106.173C13.6927 105.522 13.1532 105.257 13.0981 105.35C13.032 105.444 13.3734 105.798 13.5991 106.333C13.8413 106.863 13.8579 107.354 13.9735 107.371Z" fill="#263238"/>
<path d="M18.2896 100.608C18.3336 100.719 18.8732 100.57 19.5338 100.63C20.1945 100.68 20.701 100.912 20.7616 100.813C20.8331 100.73 20.3431 100.283 19.5669 100.222C18.7906 100.156 18.2345 100.514 18.2896 100.608Z" fill="#263238"/>
<g opacity="0.3">
<path d="M18.2897 93.6523L18.3118 95.855L30.0551 96.0482L30.1212 94.0663L18.2897 93.6523Z" fill="black"/>
</g>
<path d="M18.3118 98.1185C18.3118 98.1682 18.7688 98.251 19.5065 98.1406C19.8754 98.0854 20.3103 97.9749 20.7673 97.7872C20.9985 97.6934 21.2298 97.5774 21.461 97.4394C21.5711 97.3732 21.7032 97.3014 21.8299 97.1689C21.962 97.053 22.0446 96.7438 21.9014 96.5506C21.7858 96.3629 21.5711 96.2801 21.3949 96.269C21.2187 96.258 21.0756 96.2911 20.9435 96.3187C20.6737 96.3739 20.4259 96.4568 20.1947 96.5561C19.7322 96.7549 19.3579 97.0088 19.0716 97.2517C18.5045 97.7541 18.3063 98.1847 18.3449 98.2068C18.3944 98.2454 18.6752 97.8866 19.2478 97.4781C19.534 97.2738 19.8974 97.064 20.3323 96.9039C20.5471 96.8266 20.7783 96.7549 21.0261 96.7107C21.2793 96.65 21.494 96.6555 21.5601 96.7714C21.5821 96.8156 21.5876 96.8322 21.5326 96.9039C21.4775 96.9702 21.3729 97.0364 21.2628 97.1027C21.0481 97.2352 20.8334 97.3511 20.6241 97.4505C20.2002 97.6492 19.7983 97.7762 19.457 97.8645C18.7578 98.0301 18.3118 98.0522 18.3118 98.1185Z" fill="#263238"/>
<path d="M18.4548 98.2896C18.4933 98.3062 18.7355 97.8977 18.8016 97.1413C18.8291 96.7659 18.8016 96.3077 18.6695 95.8219C18.6034 95.579 18.5098 95.3305 18.3832 95.0876C18.251 94.8503 18.0859 94.5245 17.6344 94.4638C17.3977 94.4472 17.1995 94.6294 17.1279 94.784C17.0453 94.9441 17.0233 95.0821 16.9958 95.2201C16.9462 95.4962 16.9407 95.7722 16.9738 96.0261C17.0343 96.5396 17.2325 96.9702 17.4528 97.2793C17.9042 97.9142 18.3887 98.0633 18.3997 98.0246C18.4382 97.9694 18.0418 97.732 17.695 97.1248C17.5243 96.8266 17.3812 96.4347 17.3426 95.9875C17.3261 95.7667 17.3316 95.5293 17.3812 95.2974C17.4252 95.0435 17.5243 94.8392 17.6179 94.8668C17.739 94.8668 17.9317 95.0656 18.0253 95.2698C18.1409 95.4851 18.2345 95.7115 18.3061 95.9268C18.4437 96.3629 18.4988 96.7769 18.5098 97.1303C18.5318 97.8314 18.3942 98.2675 18.4548 98.2896Z" fill="#263238"/>
<path d="M37.7298 0L10.8902 0.739765L14.7441 48.6259L17.1335 94.784L31.057 95.2699C31.7673 86.3595 31.8168 54.8753 31.8168 54.8753L34.6301 35.8566C35.2798 30.7279 37.3334 25.3398 38.3244 20.7411C38.9024 18.036 39.7558 14.5304 39.932 13.3876C40.4605 10.0034 37.7298 0 37.7298 0Z" fill="#263238"/>
<path d="M12.4538 11.759C12.4593 11.759 12.4593 11.8307 12.4593 11.9743C12.4538 12.1289 12.4483 12.3386 12.4428 12.6036C12.4207 13.1723 12.3877 13.9838 12.3492 15.0217C12.3051 16.0706 12.2501 17.3569 12.206 18.8475C12.162 20.3381 12.0904 22.0384 12.0519 23.9154C11.9473 27.6695 11.8922 32.1412 11.9142 37.1098C11.9528 42.0784 12.0684 47.5328 12.3492 53.2577C12.641 58.9826 13.0759 64.426 13.5659 69.367C13.8357 71.8347 14.0724 74.181 14.3697 76.3727C14.5129 77.4658 14.634 78.5257 14.7826 79.5415C14.9313 80.5573 15.0744 81.529 15.2065 82.4564C15.4598 84.3169 15.7626 85.9896 15.9993 87.4637C16.2306 88.9377 16.4618 90.2019 16.6545 91.2343C16.8362 92.2556 16.9848 93.0561 17.0839 93.6136C17.128 93.8786 17.161 94.0829 17.1885 94.232C17.2106 94.37 17.2216 94.4417 17.2161 94.4473C17.2106 94.4473 17.1941 94.3755 17.161 94.2375C17.128 94.0884 17.0839 93.8842 17.0289 93.6247C16.9188 93.0671 16.7536 92.2721 16.5499 91.2508C16.3407 90.2185 16.0929 88.9597 15.8452 87.4857C15.5919 86.0117 15.2781 84.3445 15.0138 82.484C14.8707 81.5565 14.7221 80.5794 14.5679 79.5691C14.4137 78.5533 14.2871 77.4934 14.144 76.4003C13.8357 74.2086 13.5879 71.8623 13.3126 69.3946C12.8061 64.4481 12.3657 58.9992 12.0739 53.2687C11.7931 47.5383 11.683 42.0784 11.661 37.1043C11.6555 32.1357 11.7326 27.6584 11.8592 23.9044C11.9032 22.0274 11.9913 20.327 12.0519 18.8364C12.1124 17.3459 12.1785 16.0596 12.2446 15.0106C12.3051 13.9727 12.3547 13.1612 12.3877 12.5926C12.4042 12.3276 12.4207 12.1178 12.4317 11.9632C12.4373 11.8307 12.4483 11.759 12.4538 11.759Z" fill="#455A64"/>
</svg>
