<svg width="23" height="22" viewBox="0 0 23 22" fill="none" xmlns="http://www.w3.org/2000/svg">
<g clip-path="url(#clip0_467_47)">
<path d="M16.0262 21.8368C15.7408 21.9263 15.4831 21.9942 15.2106 21.9942C11.7365 21.9942 8.26169 21.9923 4.78757 21.9994C4.58519 22.0001 4.56091 21.9367 4.56158 21.7669C4.569 20.5284 4.56631 19.2906 4.56428 18.0521C4.56428 17.9469 4.56361 17.8372 4.53393 17.7379C4.46916 17.523 4.30524 17.4205 4.07656 17.4355C3.8472 17.4505 3.70014 17.5746 3.66978 17.7974C3.65022 17.9417 3.65764 18.09 3.65764 18.2363C3.65696 19.4173 3.65359 20.599 3.66101 21.78C3.66236 21.9472 3.62391 22.0073 3.44177 21.9962C2.16411 21.9211 1.21227 21.3456 0.59367 20.2632C0.151142 19.4905 -0.00266353 18.6426 3.48081e-05 17.7712C0.00408232 16.3152 0.394667 14.9585 1.20147 13.7246C1.6386 13.0557 2.18772 12.4901 2.90278 12.0883C3.3453 11.8401 3.82291 11.6951 4.32953 11.6415C4.6513 11.6076 4.92856 11.6474 5.20986 11.8708C6.0767 12.5599 7.05553 13.0583 8.17466 13.2445C9.79367 13.5143 11.298 13.2138 12.6762 12.3444C12.9366 12.1804 13.2023 12.0165 13.4304 11.8153C13.6348 11.635 13.8459 11.605 14.1178 11.6474C12.3207 13.1491 11.5139 15.0278 11.9321 17.2839C12.351 19.5453 13.7872 21.0301 16.0262 21.8368Z" fill="#FFCC66"/>
<path d="M14.8617 5.50394C14.7336 8.59883 12.1911 10.87 8.98879 10.7518C6.05637 10.6434 3.63798 8.0926 3.75401 5.2309C3.87746 2.18369 6.43279 -0.11168 9.57231 0.0039373C12.5371 0.113676 14.9798 2.65334 14.8617 5.50394Z" fill="#FFCC66"/>
<path d="M12.734 16.2497C12.7806 13.4109 15.0802 11.2397 17.9917 11.2854C20.7758 11.3291 23.041 13.6082 22.9999 16.3242C22.958 19.0716 20.6112 21.2638 17.7637 21.2154C14.9757 21.1677 12.6902 18.9109 12.734 16.2497ZM19.0002 16.4281C18.1213 16.4359 17.5533 15.7442 17.7475 15.0002C17.7772 14.8872 17.8035 14.767 17.7469 14.6651C17.4952 14.2157 17.3165 13.7284 17.0217 13.3025C16.7545 12.9164 16.37 12.7864 15.9012 12.8818C15.5612 12.9504 15.2495 13.0882 14.9433 13.2404C14.4765 13.473 14.3038 13.8244 14.4043 14.3274C14.4785 14.6997 14.6357 15.0413 14.836 15.3607C15.7514 16.8187 16.9259 18.0474 18.3567 19.0429C18.7533 19.3185 19.1831 19.5406 19.6721 19.6301C20.1457 19.717 20.5835 19.5517 20.8 19.1696C21.0139 18.7927 21.198 18.3988 21.3154 17.9821C21.4281 17.5823 21.3026 17.2746 20.935 17.0643C20.7049 16.933 20.4553 16.8324 20.2165 16.7148C19.8077 16.5136 19.4225 16.223 19.0002 16.4281Z" fill="#FFCC66"/>
<path d="M18.9967 17.3068C19.5343 17.2062 19.9027 17.6099 20.3607 17.7575C20.4599 17.7895 20.4093 17.8627 20.385 17.9188C20.2777 18.1651 20.1644 18.4094 20.0592 18.6563C19.9964 18.8039 19.8777 18.7798 19.7637 18.7504C19.3839 18.6524 19.0567 18.4538 18.7471 18.2291C17.4829 17.312 16.4265 16.2107 15.6096 14.8978C15.4753 14.6816 15.3708 14.4523 15.2993 14.208C15.2696 14.1061 15.2851 14.0329 15.3984 13.9989C15.4065 13.9963 15.4126 13.9905 15.42 13.9865C16.1776 13.5979 16.2026 13.6103 16.579 14.3563C16.7267 14.6495 16.8131 14.9324 16.8029 15.2753C16.7692 16.4295 17.7676 17.3355 18.9967 17.3068Z" fill="#FFCC66"/>
</g>
<defs>
<clipPath id="clip0_467_47">
<rect width="23" height="22" fill="white"/>
</clipPath>
</defs>
</svg>
