<svg width="10" height="8" viewBox="0 0 10 8" fill="none" xmlns="http://www.w3.org/2000/svg">
<g clip-path="url(#clip0_275_162)">
<path d="M1.08576 3.15904C1.35461 3.1597 1.5381 3.25091 1.69474 3.41258C2.25768 3.9944 2.82351 4.57261 3.38389 5.15673C3.45518 5.23115 3.48779 5.22621 3.55683 5.15509C5.12483 3.53573 6.69538 1.91867 8.26529 0.301614C8.65561 -0.100428 9.08685 -0.100428 9.47781 0.300955C9.57084 0.396773 9.66514 0.491274 9.75657 0.588739C10.0807 0.934475 10.0817 1.39875 9.75241 1.74119C9.25884 2.25453 8.76079 2.76391 8.26465 3.27494C6.80727 4.7761 5.3502 6.27725 3.89281 7.7784C3.60479 8.07508 3.3337 8.07409 3.04536 7.77708C2.12662 6.83043 1.20756 5.88377 0.28882 4.93711C-0.0960656 4.54034 -0.0967049 4.09384 0.287542 3.6974C0.388878 3.59269 0.488936 3.48666 0.592509 3.38459C0.742756 3.23642 0.921453 3.15706 1.08576 3.15904Z" fill="#30BA00"/>
</g>
<defs>
<clipPath id="clip0_275_162">
<rect width="10" height="8" fill="white"/>
</clipPath>
</defs>
</svg>
