<svg width="17" height="23" viewBox="0 0 17 23" fill="none" xmlns="http://www.w3.org/2000/svg">
<g clip-path="url(#clip0_620_416)">
<path d="M0.00145587 12.0377C0.00145587 9.21767 -0.00186964 6.39768 0.00278607 3.57696C0.00478138 1.96398 0.949226 0.5924 2.35459 0.141491C2.64989 0.0465247 2.95185 0.000128902 3.26112 0.000853836C6.7529 0.00230371 10.244 -0.0020459 13.7358 0.00302864C15.5349 0.00592838 16.9868 1.55366 16.9915 3.52259C17.0048 9.20825 17.0008 14.8932 16.9941 20.5788C16.9921 21.978 16.0071 23.0407 14.784 22.9987C14.2466 22.9806 13.797 22.7334 13.4039 22.3419C12.248 21.1885 11.0874 20.0409 9.92876 18.8905C9.52438 18.4889 9.11069 18.0967 8.71961 17.6806C8.55466 17.5051 8.46288 17.4979 8.28663 17.6748C6.74293 19.2232 5.18725 20.7572 3.63823 22.2991C3.05294 22.882 2.38252 23.127 1.60236 22.916C0.641284 22.6558 0.00345118 21.6981 0.00278607 20.5252C-0.000539434 17.6958 0.00145587 14.8671 0.00145587 12.0377Z" fill="#010101"/>
</g>
<defs>
<clipPath id="clip0_620_416">
<rect width="17" height="23" fill="white"/>
</clipPath>
</defs>
</svg>
