<svg width="32" height="26" viewBox="0 0 32 26" fill="none" xmlns="http://www.w3.org/2000/svg">
<g clip-path="url(#clip0_265_480)">
<path d="M32 24.4913C31.8598 24.7666 31.805 25.0767 31.6295 25.341C31.0397 26.2238 29.998 26.2207 29.4207 25.3267C29.156 24.9169 29.0471 24.4644 29.0597 23.9803C29.109 22.0872 29.2187 20.1965 29.3448 18.3074C29.4513 16.7125 29.5766 15.1185 29.7027 13.5252C29.7176 13.3385 29.6667 13.3014 29.492 13.2974C28.6665 13.276 28.325 12.9193 28.332 12.0807C28.3453 10.345 28.285 8.6086 28.3688 6.87374C28.4761 4.65078 29.1607 2.61846 30.3661 0.76019C30.4969 0.558462 30.634 0.359107 30.7766 0.16529C30.8596 0.0513724 30.9692 -0.0364386 31.1235 0.0165645C31.2708 0.0671943 31.3264 0.185858 31.3264 0.336956C31.3264 0.431887 31.328 0.526027 31.328 0.620958C31.328 4.53528 31.3342 8.44959 31.324 12.3631C31.3209 13.7127 31.5026 15.0481 31.5817 16.3914C31.6749 17.9767 31.7791 19.5613 31.8755 21.1466C31.9021 21.5872 31.9193 22.0295 31.9413 22.4701C31.9436 22.5199 31.9326 22.5777 32.0008 22.5967C32 23.2288 32 23.86 32 24.4913Z" fill="#FFC558"/>
<path d="M16.5267 1.69524C22.3675 1.73401 27.1023 6.42913 27.0999 12.4003C27.0976 18.3999 22.333 23.0966 16.4915 23.0974C10.6461 23.0982 5.91282 18.2876 5.91596 12.3963C5.91987 6.48609 10.6883 1.67705 16.5267 1.69524ZM24.5544 12.4129C24.5779 7.97018 20.9866 4.32246 16.5471 4.28053C12.1256 4.2386 8.47094 7.91164 8.47173 12.3971C8.47173 16.8597 12.063 20.4971 16.4852 20.5161C20.9059 20.5351 24.5301 16.8953 24.5544 12.4129Z" fill="#FFC558"/>
<path d="M1.21483 4.36051C1.17724 5.19037 1.13807 6.02101 1.10204 6.85087C1.08324 7.27015 1.27044 7.53279 1.60019 7.55415C1.9323 7.5763 2.16257 7.31128 2.17432 6.87618C2.2174 5.22518 2.25656 3.57338 2.29729 1.92237C2.29964 1.83851 2.29729 1.75387 2.30513 1.67001C2.33411 1.36702 2.52992 1.17321 2.80563 1.16925C3.08212 1.1653 3.29125 1.3512 3.31631 1.6534C3.34138 1.95718 3.34921 2.26254 3.35626 2.5679C3.38759 3.91434 3.41579 5.26077 3.44555 6.60721C3.44868 6.74407 3.4479 6.88172 3.46591 7.01621C3.51213 7.36033 3.75337 7.58025 4.04083 7.55098C4.34081 7.52092 4.54524 7.27648 4.53585 6.93156C4.52488 6.52177 4.49825 6.11199 4.47788 5.7022C4.41287 4.39928 4.34708 3.09714 4.28364 1.79421C4.26484 1.40262 4.42932 1.18112 4.73636 1.17004C5.02851 1.15976 5.21493 1.3607 5.23764 1.73014C5.36453 3.79805 5.48359 5.86675 5.61674 7.93466C5.69428 9.13238 5.25331 10.0603 4.26249 10.7248C3.6633 11.1259 3.45025 11.6955 3.52074 12.4099C3.71186 14.3354 3.87399 16.2633 3.99148 18.1951C4.10584 20.0747 4.21158 21.9544 4.27972 23.8364C4.2993 24.3838 4.20923 24.9028 3.89514 25.3648C3.31553 26.2176 2.30121 26.2112 1.72238 25.3545C1.43493 24.9289 1.33154 24.4542 1.34799 23.9503C1.45216 20.7851 1.63779 17.6255 1.91898 14.4714C1.98164 13.7698 2.04195 13.0681 2.10853 12.3664C2.17667 11.6512 1.9229 11.099 1.32762 10.6979C0.325051 10.0216 -0.0736272 9.06592 0.0109646 7.85872C0.148818 5.9071 0.252991 3.95389 0.373613 2.00148C0.383012 1.84484 0.396327 1.68663 0.425308 1.53236C0.47152 1.29029 0.639137 1.174 0.870982 1.17321C1.12006 1.17162 1.28063 1.30611 1.32997 1.55768C1.34407 1.62888 1.35112 1.70403 1.3472 1.77602C1.30569 2.63752 1.26104 3.49901 1.21718 4.36051C1.2164 4.36051 1.21562 4.36051 1.21483 4.36051Z" fill="#FFC558"/>
<path d="M16.4939 6.44975C19.7123 6.42523 22.362 9.09042 22.3871 12.3758C22.4122 15.6454 19.7514 18.3486 16.5072 18.3486C13.2903 18.3478 10.6547 15.7008 10.6218 12.4375C10.5897 9.17269 13.2363 6.47428 16.4939 6.44975Z" fill="#FFC558"/>
</g>
<defs>
<clipPath id="clip0_265_480">
<rect width="32" height="26" fill="white"/>
</clipPath>
</defs>
</svg>
