<svg width="260" height="32" viewBox="0 0 260 32" fill="none" xmlns="http://www.w3.org/2000/svg">
<path d="M0 5.64566C0 4.68131 0.210659 3.81995 0.631977 3.06158C1.0533 2.29384 1.6291 1.69932 2.35938 1.278C3.08967 0.847318 3.90422 0.631977 4.80303 0.631977C5.89845 0.631977 6.83472 0.894131 7.61182 1.41844C8.39828 1.93338 8.9694 2.66367 9.32518 3.60929H8.17357C7.89269 2.94455 7.46201 2.42492 6.88153 2.05042C6.31041 1.67591 5.61758 1.48866 4.80303 1.48866C4.08211 1.48866 3.4314 1.65719 2.85092 1.99424C2.2798 2.33129 1.83039 2.81815 1.5027 3.45481C1.17501 4.08211 1.01116 4.81239 1.01116 5.64566C1.01116 6.47894 1.17501 7.20922 1.5027 7.83652C1.83039 8.46382 2.2798 8.94599 2.85092 9.28304C3.4314 9.6201 4.08211 9.78863 4.80303 9.78863C5.61758 9.78863 6.31041 9.60606 6.88153 9.24091C7.46201 8.86641 7.89269 8.35146 8.17357 7.69608H9.32518C8.9694 8.63234 8.39828 9.35795 7.61182 9.87289C6.82536 10.3878 5.88909 10.6453 4.80303 10.6453C3.90422 10.6453 3.08967 10.4346 2.35938 10.0133C1.6291 9.58265 1.0533 8.98812 0.631977 8.22975C0.210659 7.47138 0 6.61001 0 5.64566Z" fill="#494949"/>
<path d="M17.9269 2.89305V10.561H16.9438V9.21282C16.7191 9.69032 16.3727 10.0555 15.9045 10.3083C15.4364 10.561 14.9121 10.6874 14.3316 10.6874C13.4141 10.6874 12.6651 10.4066 12.0846 9.8448C11.5041 9.27368 11.2139 8.44977 11.2139 7.37307V2.89305H12.1829V7.26072C12.1829 8.09399 12.3889 8.73065 12.8008 9.17069C13.2222 9.61074 13.7933 9.83076 14.5142 9.83076C15.2538 9.83076 15.8437 9.59669 16.2837 9.12856C16.7238 8.66043 16.9438 7.97228 16.9438 7.0641V2.89305H17.9269Z" fill="#494949"/>
<path d="M22.8115 10.6734C21.9314 10.6734 21.2105 10.4721 20.6488 10.0695C20.0964 9.65755 19.7874 9.10047 19.7219 8.39828H20.733C20.7798 8.82896 20.9811 9.18006 21.3369 9.45157C21.7021 9.71373 22.1889 9.8448 22.7975 9.8448C23.3312 9.8448 23.7478 9.71841 24.0474 9.46562C24.3564 9.21283 24.5108 8.89918 24.5108 8.52467C24.5108 8.26252 24.4266 8.04718 24.2581 7.87865C24.0895 7.71012 23.8742 7.57905 23.612 7.48542C23.3592 7.38243 23.0128 7.27476 22.5728 7.16241C22.0017 7.01261 21.5382 6.86281 21.1824 6.713C20.8267 6.5632 20.5224 6.34318 20.2696 6.05294C20.0261 5.75333 19.9044 5.35542 19.9044 4.8592C19.9044 4.4847 20.0168 4.13828 20.2415 3.81995C20.4662 3.50162 20.7845 3.24883 21.1965 3.06158C21.6084 2.87433 22.0766 2.7807 22.6009 2.7807C23.4248 2.7807 24.0895 2.99136 24.5951 3.41268C25.1007 3.82463 25.3722 4.39575 25.4097 5.12604H24.4266C24.3985 4.67663 24.2206 4.31617 23.8929 4.04465C23.5746 3.76378 23.1345 3.62334 22.5728 3.62334C22.0766 3.62334 21.674 3.74037 21.365 3.97444C21.056 4.2085 20.9016 4.49874 20.9016 4.84516C20.9016 5.14476 20.9905 5.39287 21.1684 5.58949C21.3556 5.77674 21.585 5.92654 21.8565 6.03889C22.1281 6.14188 22.4932 6.25892 22.952 6.38999C23.5044 6.5398 23.9444 6.68492 24.2721 6.82536C24.5998 6.96579 24.8807 7.17177 25.1147 7.44329C25.3488 7.7148 25.4705 8.07527 25.4799 8.52467C25.4799 8.93663 25.3675 9.30645 25.1428 9.63414C24.9181 9.95247 24.6045 10.2053 24.2019 10.3925C23.7993 10.5798 23.3358 10.6734 22.8115 10.6734Z" fill="#494949"/>
<path d="M28.6084 3.72164V8.48254C28.6084 8.95067 28.6973 9.27368 28.8752 9.45157C29.0531 9.62946 29.3668 9.71841 29.8162 9.71841H30.715V10.561H29.6617C28.9688 10.561 28.4539 10.4019 28.1168 10.0835C27.7798 9.75586 27.6113 9.22219 27.6113 8.48254V3.72164H26.5439V2.89305H27.6113V0.969032H28.6084V2.89305H30.715V3.72164H28.6084Z" fill="#494949"/>
<path d="M35.6928 10.6734C34.9719 10.6734 34.3212 10.5142 33.7407 10.1959C33.1696 9.86821 32.7155 9.40944 32.3784 8.81959C32.0507 8.22039 31.8869 7.52287 31.8869 6.72705C31.8869 5.93122 32.0554 5.23839 32.3925 4.64854C32.7295 4.04934 33.1883 3.59057 33.7688 3.27224C34.3492 2.94455 34.9999 2.7807 35.7209 2.7807C36.4418 2.7807 37.0925 2.94455 37.673 3.27224C38.2628 3.59057 38.7216 4.04934 39.0493 4.64854C39.3863 5.23839 39.5549 5.93122 39.5549 6.72705C39.5549 7.51351 39.3863 8.20634 39.0493 8.80555C38.7122 9.40476 38.2488 9.86821 37.6589 10.1959C37.0691 10.5142 36.4137 10.6734 35.6928 10.6734ZM35.6928 9.81672C36.1984 9.81672 36.6665 9.70436 37.0972 9.47966C37.5279 9.24559 37.8743 8.89918 38.1364 8.44041C38.4079 7.97228 38.5437 7.40116 38.5437 6.72705C38.5437 6.05294 38.4126 5.4865 38.1505 5.02773C37.8883 4.5596 37.5419 4.21318 37.1112 3.98848C36.6805 3.75441 36.2124 3.63738 35.7068 3.63738C35.2012 3.63738 34.7331 3.75441 34.3024 3.98848C33.8718 4.21318 33.5253 4.5596 33.2632 5.02773C33.0104 5.4865 32.884 6.05294 32.884 6.72705C32.884 7.40116 33.0104 7.97228 33.2632 8.44041C33.5253 8.89918 33.8671 9.24559 34.2884 9.47966C34.7191 9.70436 35.1872 9.81672 35.6928 9.81672Z" fill="#494949"/>
<path d="M50.4755 2.75261C51.3743 2.75261 52.1046 3.03817 52.6663 3.60929C53.2374 4.17105 53.523 4.99028 53.523 6.06698V10.561H52.554V6.17933C52.554 5.34606 52.3527 4.7094 51.9501 4.26936C51.5475 3.82931 50.9998 3.60929 50.3069 3.60929C49.586 3.60929 49.0102 3.84804 48.5795 4.32553C48.1488 4.80303 47.9335 5.49586 47.9335 6.40404V10.561H46.9645V6.17933C46.9645 5.34606 46.7632 4.7094 46.3606 4.26936C45.958 3.82931 45.4056 3.60929 44.7034 3.60929C43.9825 3.60929 43.4067 3.84804 42.976 4.32553C42.5453 4.80303 42.33 5.49586 42.33 6.40404V10.561H41.3469V2.89305H42.33V4.21318C42.5734 3.73569 42.9198 3.37523 43.3692 3.1318C43.8186 2.87901 44.3195 2.75261 44.8719 2.75261C45.5367 2.75261 46.1172 2.91178 46.6134 3.23011C47.119 3.54844 47.4841 4.01657 47.7088 4.6345C47.9148 4.02593 48.2659 3.56248 48.7621 3.24415C49.2677 2.91646 49.8388 2.75261 50.4755 2.75261Z" fill="#494949"/>
<path d="M62.644 6.33382C62.644 6.67087 62.6346 6.92834 62.6159 7.10623H56.254C56.2821 7.68672 56.4225 8.18294 56.6753 8.59489C56.9281 9.00685 57.2605 9.3205 57.6724 9.53584C58.0844 9.74181 58.5338 9.8448 59.0206 9.8448C59.6573 9.8448 60.191 9.69032 60.6217 9.38135C61.0617 9.07239 61.3519 8.65575 61.4924 8.13144H62.5316C62.3444 8.88045 61.9418 9.4937 61.3239 9.9712C60.7153 10.4393 59.9475 10.6734 59.0206 10.6734C58.2997 10.6734 57.6537 10.5142 57.0826 10.1959C56.5115 9.86821 56.0621 9.40944 55.7344 8.81959C55.416 8.22039 55.2569 7.52287 55.2569 6.72705C55.2569 5.93122 55.416 5.23371 55.7344 4.6345C56.0527 4.03529 56.4974 3.57652 57.0685 3.25819C57.6397 2.93986 58.2904 2.7807 59.0206 2.7807C59.7509 2.7807 60.3876 2.93986 60.9306 3.25819C61.483 3.57652 61.9043 4.0072 62.1946 4.55024C62.4942 5.08391 62.644 5.67843 62.644 6.33382ZM61.6469 6.30573C61.6562 5.73461 61.5392 5.24775 61.2958 4.84516C61.0617 4.44257 60.7387 4.13828 60.3267 3.9323C59.9148 3.72633 59.4654 3.62334 58.9785 3.62334C58.2482 3.62334 57.6256 3.8574 57.1107 4.32553C56.5957 4.79366 56.3102 5.45373 56.254 6.30573H61.6469Z" fill="#494949"/>
<path d="M65.4257 4.25531C65.641 3.77782 65.9687 3.408 66.4088 3.14584C66.8582 2.88369 67.4059 2.75261 68.0519 2.75261V3.77782H67.7851C67.0735 3.77782 66.5024 3.96975 66.0717 4.35362C65.641 4.73749 65.4257 5.37883 65.4257 6.27764V10.561H64.4426V2.89305H65.4257V4.25531Z" fill="#494949"/>
<path d="M76.0249 10.6734C75.1448 10.6734 74.4239 10.4721 73.8621 10.0695C73.3097 9.65755 73.0008 9.10047 72.9352 8.39828H73.9464C73.9932 8.82896 74.1945 9.18006 74.5503 9.45157C74.9154 9.71373 75.4023 9.8448 76.0109 9.8448C76.5445 9.8448 76.9612 9.71841 77.2608 9.46562C77.5697 9.21283 77.7242 8.89918 77.7242 8.52467C77.7242 8.26252 77.64 8.04718 77.4714 7.87865C77.3029 7.71012 77.0876 7.57905 76.8254 7.48542C76.5726 7.38243 76.2262 7.27476 75.7862 7.16241C75.215 7.01261 74.7516 6.86281 74.3958 6.713C74.04 6.5632 73.7357 6.34318 73.4829 6.05294C73.2395 5.75333 73.1178 5.35542 73.1178 4.8592C73.1178 4.4847 73.2302 4.13828 73.4549 3.81995C73.6796 3.50162 73.9979 3.24883 74.4098 3.06158C74.8218 2.87433 75.2899 2.7807 75.8142 2.7807C76.6382 2.7807 77.3029 2.99136 77.8085 3.41268C78.3141 3.82463 78.5856 4.39575 78.623 5.12604H77.64C77.6119 4.67663 77.434 4.31617 77.1063 4.04465C76.7879 3.76378 76.3479 3.62334 75.7862 3.62334C75.2899 3.62334 74.8873 3.74037 74.5784 3.97444C74.2694 4.2085 74.1149 4.49874 74.1149 4.84516C74.1149 5.14476 74.2039 5.39287 74.3818 5.58949C74.569 5.77674 74.7984 5.92654 75.0699 6.03889C75.3414 6.14188 75.7066 6.25892 76.1653 6.38999C76.7177 6.5398 77.1578 6.68492 77.4855 6.82536C77.8132 6.96579 78.094 7.17177 78.3281 7.44329C78.5622 7.7148 78.6839 8.07527 78.6932 8.52467C78.6932 8.93663 78.5809 9.30645 78.3562 9.63414C78.1315 9.95247 77.8178 10.2053 77.4152 10.3925C77.0127 10.5798 76.5492 10.6734 76.0249 10.6734Z" fill="#494949"/>
<path d="M87.4815 6.33382C87.4815 6.67087 87.4721 6.92834 87.4534 7.10623H81.0915C81.1196 7.68672 81.26 8.18294 81.5128 8.59489C81.7656 9.00685 82.098 9.3205 82.5099 9.53584C82.9219 9.74181 83.3713 9.8448 83.8581 9.8448C84.4948 9.8448 85.0284 9.69032 85.4591 9.38135C85.8992 9.07239 86.1894 8.65575 86.3299 8.13144H87.3691C87.1819 8.88045 86.7793 9.4937 86.1613 9.9712C85.5528 10.4393 84.785 10.6734 83.8581 10.6734C83.1372 10.6734 82.4912 10.5142 81.9201 10.1959C81.3489 9.86821 80.8995 9.40944 80.5718 8.81959C80.2535 8.22039 80.0943 7.52287 80.0943 6.72705C80.0943 5.93122 80.2535 5.23371 80.5718 4.6345C80.8902 4.03529 81.3349 3.57652 81.906 3.25819C82.4771 2.93986 83.1278 2.7807 83.8581 2.7807C84.5884 2.7807 85.2251 2.93986 85.7681 3.25819C86.3205 3.57652 86.7418 4.0072 87.0321 4.55024C87.3317 5.08391 87.4815 5.67843 87.4815 6.33382ZM86.4843 6.30573C86.4937 5.73461 86.3767 5.24775 86.1332 4.84516C85.8992 4.44257 85.5762 4.13828 85.1642 3.9323C84.7523 3.72633 84.3029 3.62334 83.816 3.62334C83.0857 3.62334 82.4631 3.8574 81.9481 4.32553C81.4332 4.79366 81.1476 5.45373 81.0915 6.30573H86.4843Z" fill="#494949"/>
<path d="M90.2631 4.25531C90.4785 3.77782 90.8062 3.408 91.2462 3.14584C91.6956 2.88369 92.2433 2.75261 92.8894 2.75261V3.77782H92.6225C91.911 3.77782 91.3399 3.96975 90.9092 4.35362C90.4785 4.73749 90.2631 5.37883 90.2631 6.27764V10.561H89.2801V2.89305H90.2631V4.25531Z" fill="#494949"/>
<path d="M97.0928 9.60606L99.6769 2.89305H100.716L97.6405 10.561H96.531L93.4554 2.89305H94.5087L97.0928 9.60606Z" fill="#494949"/>
<path d="M102.54 1.44653C102.343 1.44653 102.175 1.37631 102.034 1.23587C101.894 1.09543 101.824 0.922219 101.824 0.716241C101.824 0.510263 101.894 0.341735 102.034 0.210659C102.175 0.0702194 102.343 0 102.54 0C102.737 0 102.905 0.0702194 103.046 0.210659C103.186 0.341735 103.256 0.510263 103.256 0.716241C103.256 0.922219 103.186 1.09543 103.046 1.23587C102.905 1.37631 102.737 1.44653 102.54 1.44653ZM103.032 2.89305V10.561H102.049V2.89305H103.032Z" fill="#494949"/>
<path d="M104.808 6.72705C104.808 5.93122 104.968 5.23839 105.286 4.64854C105.604 4.04934 106.044 3.59057 106.606 3.27224C107.168 2.94455 107.809 2.7807 108.53 2.7807C109.476 2.7807 110.253 3.01477 110.861 3.4829C111.479 3.95103 111.877 4.58769 112.055 5.39287H111.002C110.871 4.84048 110.585 4.4098 110.145 4.10083C109.714 3.7825 109.176 3.62334 108.53 3.62334C108.015 3.62334 107.552 3.74037 107.14 3.97444C106.728 4.2085 106.4 4.5596 106.157 5.02773C105.923 5.4865 105.806 6.05294 105.806 6.72705C105.806 7.40116 105.923 7.97228 106.157 8.44041C106.4 8.90854 106.728 9.25964 107.14 9.4937C107.552 9.72777 108.015 9.8448 108.53 9.8448C109.176 9.8448 109.714 9.69032 110.145 9.38135C110.585 9.06302 110.871 8.62298 111.002 8.06122H112.055C111.877 8.84768 111.479 9.47966 110.861 9.95715C110.243 10.4346 109.466 10.6734 108.53 10.6734C107.809 10.6734 107.168 10.5142 106.606 10.1959C106.044 9.86821 105.604 9.40944 105.286 8.81959C104.968 8.22039 104.808 7.52287 104.808 6.72705Z" fill="#494949"/>
<path d="M120.808 6.33382C120.808 6.67087 120.799 6.92834 120.78 7.10623H114.418C114.446 7.68672 114.587 8.18294 114.84 8.59489C115.093 9.00685 115.425 9.3205 115.837 9.53584C116.249 9.74181 116.698 9.8448 117.185 9.8448C117.822 9.8448 118.355 9.69032 118.786 9.38135C119.226 9.07239 119.516 8.65575 119.657 8.13144H120.696C120.509 8.88045 120.106 9.4937 119.488 9.9712C118.88 10.4393 118.112 10.6734 117.185 10.6734C116.464 10.6734 115.818 10.5142 115.247 10.1959C114.676 9.86821 114.226 9.40944 113.899 8.81959C113.58 8.22039 113.421 7.52287 113.421 6.72705C113.421 5.93122 113.58 5.23371 113.899 4.6345C114.217 4.03529 114.662 3.57652 115.233 3.25819C115.804 2.93986 116.455 2.7807 117.185 2.7807C117.915 2.7807 118.552 2.93986 119.095 3.25819C119.647 3.57652 120.069 4.0072 120.359 4.55024C120.659 5.08391 120.808 5.67843 120.808 6.33382ZM119.811 6.30573C119.821 5.73461 119.704 5.24775 119.46 4.84516C119.226 4.44257 118.903 4.13828 118.491 3.9323C118.079 3.72633 117.63 3.62334 117.143 3.62334C116.413 3.62334 115.79 3.8574 115.275 4.32553C114.76 4.79366 114.475 5.45373 114.418 6.30573H119.811Z" fill="#494949"/>
<path d="M127.444 4.25531C127.659 3.77782 127.987 3.408 128.427 3.14584C128.876 2.88369 129.424 2.75261 130.07 2.75261V3.77782H129.803C129.092 3.77782 128.521 3.96975 128.09 4.35362C127.659 4.73749 127.444 5.37883 127.444 6.27764V10.561H126.461V2.89305H127.444V4.25531Z" fill="#494949"/>
<path d="M138.487 6.33382C138.487 6.67087 138.477 6.92834 138.459 7.10623H132.097C132.125 7.68672 132.265 8.18294 132.518 8.59489C132.771 9.00685 133.103 9.3205 133.515 9.53584C133.927 9.74181 134.377 9.8448 134.863 9.8448C135.5 9.8448 136.034 9.69032 136.464 9.38135C136.904 9.07239 137.195 8.65575 137.335 8.13144H138.374C138.187 8.88045 137.785 9.4937 137.167 9.9712C136.558 10.4393 135.79 10.6734 134.863 10.6734C134.142 10.6734 133.496 10.5142 132.925 10.1959C132.354 9.86821 131.905 9.40944 131.577 8.81959C131.259 8.22039 131.1 7.52287 131.1 6.72705C131.1 5.93122 131.259 5.23371 131.577 4.6345C131.895 4.03529 132.34 3.57652 132.911 3.25819C133.482 2.93986 134.133 2.7807 134.863 2.7807C135.594 2.7807 136.23 2.93986 136.773 3.25819C137.326 3.57652 137.747 4.0072 138.037 4.55024C138.337 5.08391 138.487 5.67843 138.487 6.33382ZM137.49 6.30573C137.499 5.73461 137.382 5.24775 137.139 4.84516C136.904 4.44257 136.581 4.13828 136.169 3.9323C135.758 3.72633 135.308 3.62334 134.821 3.62334C134.091 3.62334 133.468 3.8574 132.953 4.32553C132.438 4.79366 132.153 5.45373 132.097 6.30573H137.49Z" fill="#494949"/>
<path d="M141.254 4.57832C141.498 4.06338 141.882 3.63738 142.406 3.30033C142.94 2.95391 143.572 2.7807 144.302 2.7807C144.995 2.7807 145.617 2.94455 146.17 3.27224C146.732 3.59057 147.167 4.04934 147.476 4.64854C147.794 5.23839 147.953 5.92654 147.953 6.713C147.953 7.49946 147.794 8.1923 147.476 8.79151C147.167 9.39071 146.732 9.85416 146.17 10.1819C145.617 10.5095 144.995 10.6734 144.302 10.6734C143.581 10.6734 142.954 10.5049 142.42 10.1678C141.886 9.8214 141.498 9.39071 141.254 8.87577V14.1844H140.285V2.89305H141.254V4.57832ZM146.956 6.713C146.956 6.07634 146.83 5.52863 146.577 5.06986C146.334 4.60173 145.997 4.24595 145.566 4.00252C145.135 3.75909 144.648 3.63738 144.105 3.63738C143.581 3.63738 143.099 3.76378 142.659 4.01657C142.228 4.26936 141.886 4.62982 141.634 5.09795C141.381 5.56608 141.254 6.10911 141.254 6.72705C141.254 7.34498 141.381 7.88801 141.634 8.35614C141.886 8.82428 142.228 9.18474 142.659 9.43753C143.099 9.69032 143.581 9.81672 144.105 9.81672C144.648 9.81672 145.135 9.695 145.566 9.45157C145.997 9.19878 146.334 8.83832 146.577 8.37019C146.83 7.89269 146.956 7.3403 146.956 6.713Z" fill="#494949"/>
<path d="M150.745 4.25531C150.961 3.77782 151.288 3.408 151.728 3.14584C152.178 2.88369 152.726 2.75261 153.372 2.75261V3.77782H153.105C152.393 3.77782 151.822 3.96975 151.391 4.35362C150.961 4.73749 150.745 5.37883 150.745 6.27764V10.561H149.762V2.89305H150.745V4.25531Z" fill="#494949"/>
<path d="M161.788 6.33382C161.788 6.67087 161.779 6.92834 161.76 7.10623H155.398C155.426 7.68672 155.567 8.18294 155.819 8.59489C156.072 9.00685 156.405 9.3205 156.817 9.53584C157.229 9.74181 157.678 9.8448 158.165 9.8448C158.801 9.8448 159.335 9.69032 159.766 9.38135C160.206 9.07239 160.496 8.65575 160.637 8.13144H161.676C161.489 8.88045 161.086 9.4937 160.468 9.9712C159.859 10.4393 159.092 10.6734 158.165 10.6734C157.444 10.6734 156.798 10.5142 156.227 10.1959C155.656 9.86821 155.206 9.40944 154.879 8.81959C154.56 8.22039 154.401 7.52287 154.401 6.72705C154.401 5.93122 154.56 5.23371 154.879 4.6345C155.197 4.03529 155.642 3.57652 156.213 3.25819C156.784 2.93986 157.435 2.7807 158.165 2.7807C158.895 2.7807 159.532 2.93986 160.075 3.25819C160.627 3.57652 161.049 4.0072 161.339 4.55024C161.638 5.08391 161.788 5.67843 161.788 6.33382ZM160.791 6.30573C160.8 5.73461 160.683 5.24775 160.44 4.84516C160.206 4.44257 159.883 4.13828 159.471 3.9323C159.059 3.72633 158.61 3.62334 158.123 3.62334C157.392 3.62334 156.77 3.8574 156.255 4.32553C155.74 4.79366 155.454 5.45373 155.398 6.30573H160.791Z" fill="#494949"/>
<path d="M166.227 10.6734C165.347 10.6734 164.626 10.4721 164.064 10.0695C163.512 9.65755 163.203 9.10047 163.137 8.39828H164.149C164.195 8.82896 164.397 9.18006 164.752 9.45157C165.118 9.71373 165.604 9.8448 166.213 9.8448C166.747 9.8448 167.163 9.71841 167.463 9.46562C167.772 9.21283 167.926 8.89918 167.926 8.52467C167.926 8.26252 167.842 8.04718 167.674 7.87865C167.505 7.71012 167.29 7.57905 167.028 7.48542C166.775 7.38243 166.428 7.27476 165.988 7.16241C165.417 7.01261 164.954 6.86281 164.598 6.713C164.242 6.5632 163.938 6.34318 163.685 6.05294C163.442 5.75333 163.32 5.35542 163.32 4.8592C163.32 4.4847 163.432 4.13828 163.657 3.81995C163.882 3.50162 164.2 3.24883 164.612 3.06158C165.024 2.87433 165.492 2.7807 166.016 2.7807C166.84 2.7807 167.505 2.99136 168.011 3.41268C168.516 3.82463 168.788 4.39575 168.825 5.12604H167.842C167.814 4.67663 167.636 4.31617 167.308 4.04465C166.99 3.76378 166.55 3.62334 165.988 3.62334C165.492 3.62334 165.089 3.74037 164.781 3.97444C164.472 4.2085 164.317 4.49874 164.317 4.84516C164.317 5.14476 164.406 5.39287 164.584 5.58949C164.771 5.77674 165.001 5.92654 165.272 6.03889C165.544 6.14188 165.909 6.25892 166.367 6.38999C166.92 6.5398 167.36 6.68492 167.688 6.82536C168.015 6.96579 168.296 7.17177 168.53 7.44329C168.764 7.7148 168.886 8.07527 168.895 8.52467C168.895 8.93663 168.783 9.30645 168.558 9.63414C168.334 9.95247 168.02 10.2053 167.617 10.3925C167.215 10.5798 166.751 10.6734 166.227 10.6734Z" fill="#494949"/>
<path d="M177.684 6.33382C177.684 6.67087 177.674 6.92834 177.656 7.10623H171.294C171.322 7.68672 171.462 8.18294 171.715 8.59489C171.968 9.00685 172.3 9.3205 172.712 9.53584C173.124 9.74181 173.573 9.8448 174.06 9.8448C174.697 9.8448 175.231 9.69032 175.661 9.38135C176.101 9.07239 176.392 8.65575 176.532 8.13144H177.571C177.384 8.88045 176.981 9.4937 176.363 9.9712C175.755 10.4393 174.987 10.6734 174.06 10.6734C173.339 10.6734 172.693 10.5142 172.122 10.1959C171.551 9.86821 171.102 9.40944 170.774 8.81959C170.456 8.22039 170.296 7.52287 170.296 6.72705C170.296 5.93122 170.456 5.23371 170.774 4.6345C171.092 4.03529 171.537 3.57652 172.108 3.25819C172.679 2.93986 173.33 2.7807 174.06 2.7807C174.791 2.7807 175.427 2.93986 175.97 3.25819C176.523 3.57652 176.944 4.0072 177.234 4.55024C177.534 5.08391 177.684 5.67843 177.684 6.33382ZM176.686 6.30573C176.696 5.73461 176.579 5.24775 176.335 4.84516C176.101 4.44257 175.778 4.13828 175.366 3.9323C174.954 3.72633 174.505 3.62334 174.018 3.62334C173.288 3.62334 172.665 3.8574 172.15 4.32553C171.635 4.79366 171.35 5.45373 171.294 6.30573H176.686Z" fill="#494949"/>
<path d="M183.077 2.75261C183.995 2.75261 184.744 3.03817 185.324 3.60929C185.905 4.17105 186.195 4.99028 186.195 6.06698V10.561H185.226V6.17933C185.226 5.34606 185.016 4.7094 184.594 4.26936C184.182 3.82931 183.616 3.60929 182.895 3.60929C182.155 3.60929 181.565 3.84336 181.125 4.31149C180.685 4.77962 180.465 5.46777 180.465 6.37595V10.561H179.482V2.89305H180.465V4.19914C180.709 3.73101 181.06 3.37523 181.519 3.1318C181.977 2.87901 182.497 2.75261 183.077 2.75261Z" fill="#494949"/>
<path d="M189.647 3.72164V8.48254C189.647 8.95067 189.736 9.27368 189.914 9.45157C190.092 9.62946 190.406 9.71841 190.855 9.71841H191.754V10.561H190.701C190.008 10.561 189.493 10.4019 189.156 10.0835C188.819 9.75586 188.65 9.22219 188.65 8.48254V3.72164H187.583V2.89305H188.65V0.969032H189.647V2.89305H191.754V3.72164H189.647Z" fill="#494949"/>
<path d="M192.926 6.713C192.926 5.92654 193.08 5.23839 193.389 4.64854C193.708 4.04934 194.143 3.59057 194.695 3.27224C195.257 2.94455 195.889 2.7807 196.591 2.7807C197.322 2.7807 197.949 2.94923 198.473 3.28628C199.007 3.62334 199.391 4.05402 199.625 4.57832V2.89305H200.608V10.561H199.625V8.86173C199.381 9.38603 198.993 9.8214 198.459 10.1678C197.935 10.5049 197.308 10.6734 196.577 10.6734C195.884 10.6734 195.257 10.5095 194.695 10.1819C194.143 9.85416 193.708 9.39071 193.389 8.79151C193.08 8.1923 192.926 7.49946 192.926 6.713ZM199.625 6.72705C199.625 6.10911 199.498 5.56608 199.246 5.09795C198.993 4.62982 198.646 4.26936 198.206 4.01657C197.776 3.76378 197.298 3.63738 196.774 3.63738C196.231 3.63738 195.744 3.75909 195.313 4.00252C194.883 4.24595 194.541 4.60173 194.288 5.06986C194.045 5.52863 193.923 6.07634 193.923 6.713C193.923 7.3403 194.045 7.89269 194.288 8.37019C194.541 8.83832 194.883 9.19878 195.313 9.45157C195.744 9.695 196.231 9.81672 196.774 9.81672C197.298 9.81672 197.776 9.69032 198.206 9.43753C198.646 9.18474 198.993 8.82428 199.246 8.35614C199.498 7.88801 199.625 7.34498 199.625 6.72705Z" fill="#494949"/>
<path d="M204.13 3.72164V8.48254C204.13 8.95067 204.219 9.27368 204.397 9.45157C204.575 9.62946 204.889 9.71841 205.338 9.71841H206.237V10.561H205.184C204.491 10.561 203.976 10.4019 203.639 10.0835C203.302 9.75586 203.133 9.22219 203.133 8.48254V3.72164H202.066V2.89305H203.133V0.969032H204.13V2.89305H206.237V3.72164H204.13Z" fill="#494949"/>
<path d="M208.35 1.44653C208.153 1.44653 207.985 1.37631 207.844 1.23587C207.704 1.09543 207.633 0.922219 207.633 0.716241C207.633 0.510263 207.704 0.341735 207.844 0.210659C207.985 0.0702194 208.153 0 208.35 0C208.546 0 208.715 0.0702194 208.855 0.210659C208.996 0.341735 209.066 0.510263 209.066 0.716241C209.066 0.922219 208.996 1.09543 208.855 1.23587C208.715 1.37631 208.546 1.44653 208.35 1.44653ZM208.841 2.89305V10.561H207.858V2.89305H208.841Z" fill="#494949"/>
<path d="M213.792 9.60606L216.376 2.89305H217.415L214.34 10.561H213.23L210.155 2.89305H211.208L213.792 9.60606Z" fill="#494949"/>
<path d="M225.685 6.33382C225.685 6.67087 225.676 6.92834 225.657 7.10623H219.295C219.323 7.68672 219.464 8.18294 219.717 8.59489C219.969 9.00685 220.302 9.3205 220.714 9.53584C221.126 9.74181 221.575 9.8448 222.062 9.8448C222.699 9.8448 223.232 9.69032 223.663 9.38135C224.103 9.07239 224.393 8.65575 224.534 8.13144H225.573C225.386 8.88045 224.983 9.4937 224.365 9.9712C223.757 10.4393 222.989 10.6734 222.062 10.6734C221.341 10.6734 220.695 10.5142 220.124 10.1959C219.553 9.86821 219.103 9.40944 218.776 8.81959C218.457 8.22039 218.298 7.52287 218.298 6.72705C218.298 5.93122 218.457 5.23371 218.776 4.6345C219.094 4.03529 219.539 3.57652 220.11 3.25819C220.681 2.93986 221.332 2.7807 222.062 2.7807C222.792 2.7807 223.429 2.93986 223.972 3.25819C224.524 3.57652 224.946 4.0072 225.236 4.55024C225.536 5.08391 225.685 5.67843 225.685 6.33382ZM224.688 6.30573C224.698 5.73461 224.581 5.24775 224.337 4.84516C224.103 4.44257 223.78 4.13828 223.368 3.9323C222.956 3.72633 222.507 3.62334 222.02 3.62334C221.29 3.62334 220.667 3.8574 220.152 4.32553C219.637 4.79366 219.352 5.45373 219.295 6.30573H224.688Z" fill="#494949"/>
<path d="M230.124 10.6734C229.244 10.6734 228.523 10.4721 227.961 10.0695C227.409 9.65755 227.1 9.10047 227.035 8.39828H228.046C228.093 8.82896 228.294 9.18006 228.65 9.45157C229.015 9.71373 229.502 9.8448 230.11 9.8448C230.644 9.8448 231.06 9.71841 231.36 9.46562C231.669 9.21283 231.824 8.89918 231.824 8.52467C231.824 8.26252 231.739 8.04718 231.571 7.87865C231.402 7.71012 231.187 7.57905 230.925 7.48542C230.672 7.38243 230.326 7.27476 229.885 7.16241C229.314 7.01261 228.851 6.86281 228.495 6.713C228.139 6.5632 227.835 6.34318 227.582 6.05294C227.339 5.75333 227.217 5.35542 227.217 4.8592C227.217 4.4847 227.329 4.13828 227.554 3.81995C227.779 3.50162 228.097 3.24883 228.509 3.06158C228.921 2.87433 229.389 2.7807 229.914 2.7807C230.737 2.7807 231.402 2.99136 231.908 3.41268C232.413 3.82463 232.685 4.39575 232.722 5.12604H231.739C231.711 4.67663 231.533 4.31617 231.206 4.04465C230.887 3.76378 230.447 3.62334 229.885 3.62334C229.389 3.62334 228.987 3.74037 228.678 3.97444C228.369 4.2085 228.214 4.49874 228.214 4.84516C228.214 5.14476 228.303 5.39287 228.481 5.58949C228.668 5.77674 228.898 5.92654 229.169 6.03889C229.441 6.14188 229.806 6.25892 230.265 6.38999C230.817 6.5398 231.257 6.68492 231.585 6.82536C231.912 6.96579 232.193 7.17177 232.427 7.44329C232.662 7.7148 232.783 8.07527 232.793 8.52467C232.793 8.93663 232.68 9.30645 232.456 9.63414C232.231 9.95247 231.917 10.2053 231.515 10.3925C231.112 10.5798 230.649 10.6734 230.124 10.6734Z" fill="#494949"/>
<path d="M238.048 6.713C238.048 5.92654 238.202 5.23839 238.511 4.64854C238.829 4.04934 239.265 3.59057 239.817 3.27224C240.379 2.94455 241.011 2.7807 241.713 2.7807C242.443 2.7807 243.071 2.94923 243.595 3.28628C244.129 3.62334 244.512 4.05402 244.746 4.57832V2.89305H245.73V10.561H244.746V8.86173C244.503 9.38603 244.115 9.8214 243.581 10.1678C243.057 10.5049 242.429 10.6734 241.699 10.6734C241.006 10.6734 240.379 10.5095 239.817 10.1819C239.265 9.85416 238.829 9.39071 238.511 8.79151C238.202 8.1923 238.048 7.49946 238.048 6.713ZM244.746 6.72705C244.746 6.10911 244.62 5.56608 244.367 5.09795C244.115 4.62982 243.768 4.26936 243.328 4.01657C242.897 3.76378 242.42 3.63738 241.896 3.63738C241.353 3.63738 240.866 3.75909 240.435 4.00252C240.004 4.24595 239.663 4.60173 239.41 5.06986C239.166 5.52863 239.045 6.07634 239.045 6.713C239.045 7.3403 239.166 7.89269 239.41 8.37019C239.663 8.83832 240.004 9.19878 240.435 9.45157C240.866 9.695 241.353 9.81672 241.896 9.81672C242.42 9.81672 242.897 9.69032 243.328 9.43753C243.768 9.18474 244.115 8.82428 244.367 8.35614C244.62 7.88801 244.746 7.34498 244.746 6.72705Z" fill="#494949"/>
<path d="M248.957 4.25531C249.172 3.77782 249.5 3.408 249.94 3.14584C250.389 2.88369 250.937 2.75261 251.583 2.75261V3.77782H251.316C250.605 3.77782 250.034 3.96975 249.603 4.35362C249.172 4.73749 248.957 5.37883 248.957 6.27764V10.561H247.974V2.89305H248.957V4.25531Z" fill="#494949"/>
<path d="M260 6.33382C260 6.67087 259.99 6.92834 259.972 7.10623H253.61C253.638 7.68672 253.778 8.18294 254.031 8.59489C254.284 9.00685 254.616 9.3205 255.028 9.53584C255.44 9.74181 255.89 9.8448 256.376 9.8448C257.013 9.8448 257.547 9.69032 257.977 9.38135C258.417 9.07239 258.708 8.65575 258.848 8.13144H259.887C259.7 8.88045 259.298 9.4937 258.68 9.9712C258.071 10.4393 257.303 10.6734 256.376 10.6734C255.655 10.6734 255.009 10.5142 254.438 10.1959C253.867 9.86821 253.418 9.40944 253.09 8.81959C252.772 8.22039 252.613 7.52287 252.613 6.72705C252.613 5.93122 252.772 5.23371 253.09 4.6345C253.408 4.03529 253.853 3.57652 254.424 3.25819C254.995 2.93986 255.646 2.7807 256.376 2.7807C257.107 2.7807 257.743 2.93986 258.286 3.25819C258.839 3.57652 259.26 4.0072 259.55 4.55024C259.85 5.08391 260 5.67843 260 6.33382ZM259.003 6.30573C259.012 5.73461 258.895 5.24775 258.652 4.84516C258.417 4.44257 258.094 4.13828 257.683 3.9323C257.271 3.72633 256.821 3.62334 256.334 3.62334C255.604 3.62334 254.981 3.8574 254.466 4.32553C253.951 4.79366 253.666 5.45373 253.61 6.30573H259.003Z" fill="#494949"/>
<path d="M0 27.7789C0 26.9925 0.154483 26.3043 0.46345 25.7145C0.781779 25.1152 1.21714 24.6565 1.76954 24.3381C2.33129 24.0105 2.96327 23.8466 3.66547 23.8466C4.39575 23.8466 5.02305 24.0151 5.54736 24.3522C6.08103 24.6892 6.46489 25.1199 6.69896 25.6442V23.959H7.68204V31.627H6.69896V29.9276C6.45553 30.4519 6.06698 30.8873 5.53331 31.2337C5.00901 31.5708 4.38171 31.7393 3.65142 31.7393C2.95859 31.7393 2.33129 31.5755 1.76954 31.2478C1.21714 30.9201 0.781779 30.4566 0.46345 29.8574C0.154483 29.2582 0 28.5654 0 27.7789ZM6.69896 27.793C6.69896 27.175 6.57256 26.632 6.31977 26.1639C6.06698 25.6957 5.72057 25.3353 5.28052 25.0825C4.84984 24.8297 4.37235 24.7033 3.84804 24.7033C3.30501 24.7033 2.81815 24.825 2.38747 25.0684C1.95679 25.3119 1.61505 25.6676 1.36226 26.1358C1.11883 26.5945 0.99712 27.1423 0.99712 27.7789C0.99712 28.4062 1.11883 28.9586 1.36226 29.4361C1.61505 29.9042 1.95679 30.2647 2.38747 30.5175C2.81815 30.7609 3.30501 30.8826 3.84804 30.8826C4.37235 30.8826 4.84984 30.7562 5.28052 30.5034C5.72057 30.2506 6.06698 29.8902 6.31977 29.4221C6.57256 28.9539 6.69896 28.4109 6.69896 27.793Z" fill="#494949"/>
<path d="M12.6508 30.672L15.2349 23.959H16.2742L13.1986 31.627H12.0891L9.01347 23.959H10.0668L12.6508 30.672Z" fill="#494949"/>
<path d="M17.1572 27.7789C17.1572 26.9925 17.3117 26.3043 17.6206 25.7145C17.939 25.1152 18.3743 24.6565 18.9267 24.3381C19.4885 24.0105 20.1205 23.8466 20.8227 23.8466C21.5529 23.8466 22.1802 24.0151 22.7046 24.3522C23.2382 24.6892 23.6221 25.1199 23.8562 25.6442V23.959H24.8392V31.627H23.8562V29.9276C23.6127 30.4519 23.2242 30.8873 22.6905 31.2337C22.1662 31.5708 21.5389 31.7393 20.8086 31.7393C20.1158 31.7393 19.4885 31.5755 18.9267 31.2478C18.3743 30.9201 17.939 30.4566 17.6206 29.8574C17.3117 29.2582 17.1572 28.5654 17.1572 27.7789ZM23.8562 27.793C23.8562 27.175 23.7298 26.632 23.477 26.1639C23.2242 25.6957 22.8778 25.3353 22.4377 25.0825C22.007 24.8297 21.5295 24.7033 21.0052 24.7033C20.4622 24.7033 19.9753 24.825 19.5447 25.0684C19.114 25.3119 18.7723 25.6676 18.5195 26.1358C18.276 26.5945 18.1543 27.1423 18.1543 27.7789C18.1543 28.4062 18.276 28.9586 18.5195 29.4361C18.7723 29.9042 19.114 30.2647 19.5447 30.5175C19.9753 30.7609 20.4622 30.8826 21.0052 30.8826C21.5295 30.8826 22.007 30.7562 22.4377 30.5034C22.8778 30.2506 23.2242 29.8902 23.477 29.4221C23.7298 28.9539 23.8562 28.4109 23.8562 27.793Z" fill="#494949"/>
<path d="M27.5751 22.5124C27.3784 22.5124 27.2099 22.4422 27.0695 22.3018C26.929 22.1613 26.8588 21.9881 26.8588 21.7821C26.8588 21.5762 26.929 21.4076 27.0695 21.2766C27.2099 21.1361 27.3784 21.0659 27.5751 21.0659C27.7717 21.0659 27.9402 21.1361 28.0806 21.2766C28.2211 21.4076 28.2913 21.5762 28.2913 21.7821C28.2913 21.9881 28.2211 22.1613 28.0806 22.3018C27.9402 22.4422 27.7717 22.5124 27.5751 22.5124ZM28.0666 23.959V31.627H27.0835V23.959H28.0666Z" fill="#494949"/>
<path d="M31.2759 21.2344V31.627H30.2928V21.2344H31.2759Z" fill="#494949"/>
<path d="M33.0526 27.7789C33.0526 26.9925 33.2071 26.3043 33.5161 25.7145C33.8344 25.1152 34.2698 24.6565 34.8222 24.3381C35.3839 24.0105 36.0159 23.8466 36.7181 23.8466C37.4484 23.8466 38.0757 24.0151 38.6 24.3522C39.1337 24.6892 39.5175 25.1199 39.7516 25.6442V23.959H40.7347V31.627H39.7516V29.9276C39.5082 30.4519 39.1196 30.8873 38.5859 31.2337C38.0616 31.5708 37.4343 31.7393 36.7041 31.7393C36.0112 31.7393 35.3839 31.5755 34.8222 31.2478C34.2698 30.9201 33.8344 30.4566 33.5161 29.8574C33.2071 29.2582 33.0526 28.5654 33.0526 27.7789ZM39.7516 27.793C39.7516 27.175 39.6252 26.632 39.3724 26.1639C39.1196 25.6957 38.7732 25.3353 38.3332 25.0825C37.9025 24.8297 37.425 24.7033 36.9007 24.7033C36.3576 24.7033 35.8708 24.825 35.4401 25.0684C35.0094 25.3119 34.6677 25.6676 34.4149 26.1358C34.1715 26.5945 34.0498 27.1423 34.0498 27.7789C34.0498 28.4062 34.1715 28.9586 34.4149 29.4361C34.6677 29.9042 35.0094 30.2647 35.4401 30.5175C35.8708 30.7609 36.3576 30.8826 36.9007 30.8826C37.425 30.8826 37.9025 30.7562 38.3332 30.5034C38.7732 30.2506 39.1196 29.8902 39.3724 29.4221C39.6252 28.9539 39.7516 28.4109 39.7516 27.793Z" fill="#494949"/>
<path d="M43.948 25.6583C44.2008 25.1246 44.5893 24.6892 45.1136 24.3522C45.6473 24.0151 46.2746 23.8466 46.9955 23.8466C47.6977 23.8466 48.325 24.0105 48.8774 24.3381C49.4298 24.6565 49.8605 25.1152 50.1695 25.7145C50.4878 26.3043 50.6469 26.9925 50.6469 27.7789C50.6469 28.5654 50.4878 29.2582 50.1695 29.8574C49.8605 30.4566 49.4251 30.9201 48.8634 31.2478C48.311 31.5755 47.6884 31.7393 46.9955 31.7393C46.2652 31.7393 45.6333 31.5755 45.0996 31.2478C44.5753 30.9107 44.1914 30.4753 43.948 29.9417V31.627H42.979V21.2344H43.948V25.6583ZM49.6498 27.7789C49.6498 27.1423 49.5234 26.5945 49.2706 26.1358C49.0272 25.6676 48.6902 25.3119 48.2595 25.0684C47.8288 24.825 47.3419 24.7033 46.7989 24.7033C46.2746 24.7033 45.7924 24.8297 45.3524 25.0825C44.9217 25.3353 44.58 25.6957 44.3272 26.1639C44.0744 26.632 43.948 27.175 43.948 27.793C43.948 28.4109 44.0744 28.9539 44.3272 29.4221C44.58 29.8902 44.9217 30.2506 45.3524 30.5034C45.7924 30.7562 46.2746 30.8826 46.7989 30.8826C47.3419 30.8826 47.8288 30.7609 48.2595 30.5175C48.6902 30.2647 49.0272 29.9042 49.2706 29.4361C49.5234 28.9586 49.6498 28.4062 49.6498 27.7789Z" fill="#494949"/>
<path d="M53.4389 21.2344V31.627H52.4559V21.2344H53.4389Z" fill="#494949"/>
<path d="M62.6028 27.3997C62.6028 27.7368 62.5935 27.9943 62.5747 28.1721H56.2128C56.2409 28.7526 56.3814 29.2488 56.6342 29.6608C56.887 30.0728 57.2193 30.3864 57.6313 30.6017C58.0432 30.8077 58.4926 30.9107 58.9795 30.9107C59.6162 30.9107 60.1498 30.7562 60.5805 30.4473C61.0206 30.1383 61.3108 29.7217 61.4512 29.1974H62.4905C62.3032 29.9464 61.9006 30.5596 61.2827 31.0371C60.6741 31.5052 59.9064 31.7393 58.9795 31.7393C58.2586 31.7393 57.6126 31.5801 57.0414 31.2618C56.4703 30.9341 56.0209 30.4753 55.6932 29.8855C55.3749 29.2863 55.2157 28.5888 55.2157 27.793C55.2157 26.9971 55.3749 26.2996 55.6932 25.7004C56.0115 25.1012 56.4563 24.6424 57.0274 24.3241C57.5985 24.0058 58.2492 23.8466 58.9795 23.8466C59.7098 23.8466 60.3464 24.0058 60.8895 24.3241C61.4419 24.6424 61.8632 25.0731 62.1534 25.6161C62.453 26.1498 62.6028 26.7443 62.6028 27.3997ZM61.6057 27.3716C61.6151 26.8005 61.498 26.3137 61.2546 25.9111C61.0206 25.5085 60.6975 25.2042 60.2856 24.9982C59.8736 24.7922 59.4242 24.6892 58.9374 24.6892C58.2071 24.6892 57.5845 24.9233 57.0695 25.3914C56.5546 25.8596 56.269 26.5196 56.2128 27.3716H61.6057Z" fill="#494949"/>
<path d="M74.0695 22.3299L70.1512 31.627H69.1541L73.1145 22.4141H67.4969V21.5715H74.0695V22.3299Z" fill="#494949"/>
<path d="M75.9121 31.6972C75.7061 31.6972 75.5329 31.627 75.3925 31.4865C75.2614 31.3461 75.1959 31.1729 75.1959 30.9669C75.1959 30.7609 75.2614 30.5924 75.3925 30.4613C75.5329 30.3209 75.7061 30.2506 75.9121 30.2506C76.1087 30.2506 76.2726 30.3209 76.4036 30.4613C76.5441 30.5924 76.6143 30.7609 76.6143 30.9669C76.6143 31.1729 76.5441 31.3461 76.4036 31.4865C76.2726 31.627 76.1087 31.6972 75.9121 31.6972ZM75.9121 25.5881C75.7061 25.5881 75.5329 25.5178 75.3925 25.3774C75.2614 25.237 75.1959 25.0638 75.1959 24.8578C75.1959 24.6518 75.2614 24.4833 75.3925 24.3522C75.5329 24.2118 75.7061 24.1415 75.9121 24.1415C76.1087 24.1415 76.2726 24.2118 76.4036 24.3522C76.5441 24.4833 76.6143 24.6518 76.6143 24.8578C76.6143 25.0638 76.5441 25.237 76.4036 25.3774C76.2726 25.5178 76.1087 25.5881 75.9121 25.5881Z" fill="#494949"/>
<path d="M78.125 26.5009C78.125 24.8905 78.3731 23.6406 78.8693 22.7512C79.3656 21.8617 80.255 21.417 81.5377 21.417C82.8204 21.417 83.7098 21.8617 84.206 22.7512C84.7023 23.6406 84.9504 24.8905 84.9504 26.5009C84.9504 28.1394 84.7023 29.408 84.206 30.3068C83.7098 31.2056 82.8204 31.655 81.5377 31.655C80.2457 31.655 79.3515 31.2056 78.8553 30.3068C78.3684 29.408 78.125 28.1394 78.125 26.5009ZM83.9813 26.5009C83.9813 25.6302 83.9205 24.8952 83.7988 24.296C83.6771 23.6968 83.4383 23.2146 83.0825 22.8495C82.7267 22.4843 82.2118 22.3018 81.5377 22.3018C80.8636 22.3018 80.3486 22.4843 79.9929 22.8495C79.6371 23.2146 79.3983 23.6968 79.2766 24.296C79.1549 24.8952 79.094 25.6302 79.094 26.5009C79.094 27.3997 79.1549 28.1534 79.2766 28.762C79.3983 29.3612 79.6371 29.8434 79.9929 30.2085C80.3486 30.5737 80.8636 30.7562 81.5377 30.7562C82.2118 30.7562 82.7267 30.5737 83.0825 30.2085C83.4383 29.8434 83.6771 29.3612 83.7988 28.762C83.9205 28.1534 83.9813 27.3997 83.9813 26.5009Z" fill="#494949"/>
<path d="M86.779 26.5009C86.779 24.8905 87.0272 23.6406 87.5234 22.7512C88.0196 21.8617 88.909 21.417 90.1917 21.417C91.4744 21.417 92.3639 21.8617 92.8601 22.7512C93.3563 23.6406 93.6044 24.8905 93.6044 26.5009C93.6044 28.1394 93.3563 29.408 92.8601 30.3068C92.3639 31.2056 91.4744 31.655 90.1917 31.655C88.8997 31.655 88.0055 31.2056 87.5093 30.3068C87.0225 29.408 86.779 28.1394 86.779 26.5009ZM92.6354 26.5009C92.6354 25.6302 92.5745 24.8952 92.4528 24.296C92.3311 23.6968 92.0923 23.2146 91.7366 22.8495C91.3808 22.4843 90.8658 22.3018 90.1917 22.3018C89.5176 22.3018 89.0027 22.4843 88.6469 22.8495C88.2911 23.2146 88.0524 23.6968 87.9306 24.296C87.8089 24.8952 87.7481 25.6302 87.7481 26.5009C87.7481 27.3997 87.8089 28.1534 87.9306 28.762C88.0524 29.3612 88.2911 29.8434 88.6469 30.2085C89.0027 30.5737 89.5176 30.7562 90.1917 30.7562C90.8658 30.7562 91.3808 30.5737 91.7366 30.2085C92.0923 29.8434 92.3311 29.3612 92.4528 28.762C92.5745 28.1534 92.6354 27.3997 92.6354 26.5009Z" fill="#494949"/>
<path d="M105.775 24.6331C105.775 25.4757 105.499 26.1545 104.947 26.6694C104.394 27.1844 103.566 27.4419 102.461 27.4419H100.481V31.627H99.4976V21.8102H102.461C103.556 21.8102 104.38 22.0677 104.933 22.5827C105.494 23.0976 105.775 23.7811 105.775 24.6331ZM102.461 26.5992C103.996 26.5992 104.764 25.9438 104.764 24.6331C104.764 23.9777 104.581 23.4815 104.216 23.1444C103.851 22.8074 103.266 22.6388 102.461 22.6388H100.481V26.5992H102.461Z" fill="#494949"/>
<path d="M117.017 21.9366V31.627H116.034V23.8887L112.579 31.627H111.863L108.408 23.9168V31.627H107.425V21.9366H108.464L112.214 30.3349L115.963 21.9366H117.017Z" fill="#494949"/>
<path d="M127.862 26.0094V26.838H122.399V26.0094H127.862Z" fill="#494949"/>
<path d="M140.051 22.3299L136.133 31.627H135.136L139.096 22.4141H133.479V21.5715H140.051V22.3299Z" fill="#494949"/>
<path d="M141.894 31.6972C141.688 31.6972 141.515 31.627 141.374 31.4865C141.243 31.3461 141.178 31.1729 141.178 30.9669C141.178 30.7609 141.243 30.5924 141.374 30.4613C141.515 30.3209 141.688 30.2506 141.894 30.2506C142.091 30.2506 142.254 30.3209 142.385 30.4613C142.526 30.5924 142.596 30.7609 142.596 30.9669C142.596 31.1729 142.526 31.3461 142.385 31.4865C142.254 31.627 142.091 31.6972 141.894 31.6972ZM141.894 25.5881C141.688 25.5881 141.515 25.5178 141.374 25.3774C141.243 25.237 141.178 25.0638 141.178 24.8578C141.178 24.6518 141.243 24.4833 141.374 24.3522C141.515 24.2118 141.688 24.1415 141.894 24.1415C142.091 24.1415 142.254 24.2118 142.385 24.3522C142.526 24.4833 142.596 24.6518 142.596 24.8578C142.596 25.0638 142.526 25.237 142.385 25.3774C142.254 25.5178 142.091 25.5881 141.894 25.5881Z" fill="#494949"/>
<path d="M144.107 26.5009C144.107 24.8905 144.355 23.6406 144.851 22.7512C145.347 21.8617 146.237 21.417 147.52 21.417C148.802 21.417 149.692 21.8617 150.188 22.7512C150.684 23.6406 150.932 24.8905 150.932 26.5009C150.932 28.1394 150.684 29.408 150.188 30.3068C149.692 31.2056 148.802 31.655 147.52 31.655C146.227 31.655 145.333 31.2056 144.837 30.3068C144.35 29.408 144.107 28.1394 144.107 26.5009ZM149.963 26.5009C149.963 25.6302 149.902 24.8952 149.781 24.296C149.659 23.6968 149.42 23.2146 149.064 22.8495C148.709 22.4843 148.194 22.3018 147.52 22.3018C146.845 22.3018 146.33 22.4843 145.975 22.8495C145.619 23.2146 145.38 23.6968 145.258 24.296C145.137 24.8952 145.076 25.6302 145.076 26.5009C145.076 27.3997 145.137 28.1534 145.258 28.762C145.38 29.3612 145.619 29.8434 145.975 30.2085C146.33 30.5737 146.845 30.7562 147.52 30.7562C148.194 30.7562 148.709 30.5737 149.064 30.2085C149.42 29.8434 149.659 29.3612 149.781 28.762C149.902 28.1534 149.963 27.3997 149.963 26.5009Z" fill="#494949"/>
<path d="M152.761 26.5009C152.761 24.8905 153.009 23.6406 153.505 22.7512C154.001 21.8617 154.891 21.417 156.174 21.417C157.456 21.417 158.346 21.8617 158.842 22.7512C159.338 23.6406 159.586 24.8905 159.586 26.5009C159.586 28.1394 159.338 29.408 158.842 30.3068C158.346 31.2056 157.456 31.655 156.174 31.655C154.882 31.655 153.987 31.2056 153.491 30.3068C153.004 29.408 152.761 28.1394 152.761 26.5009ZM158.617 26.5009C158.617 25.6302 158.556 24.8952 158.435 24.296C158.313 23.6968 158.074 23.2146 157.718 22.8495C157.363 22.4843 156.848 22.3018 156.174 22.3018C155.499 22.3018 154.984 22.4843 154.629 22.8495C154.273 23.2146 154.034 23.6968 153.912 24.296C153.791 24.8952 153.73 25.6302 153.73 26.5009C153.73 27.3997 153.791 28.1534 153.912 28.762C154.034 29.3612 154.273 29.8434 154.629 30.2085C154.984 30.5737 155.499 30.7562 156.174 30.7562C156.848 30.7562 157.363 30.5737 157.718 30.2085C158.074 29.8434 158.313 29.3612 158.435 28.762C158.556 28.1534 158.617 27.3997 158.617 26.5009Z" fill="#494949"/>
<path d="M171.757 24.6331C171.757 25.4757 171.481 26.1545 170.928 26.6694C170.376 27.1844 169.547 27.4419 168.443 27.4419H166.463V31.627H165.479V21.8102H168.443C169.538 21.8102 170.362 22.0677 170.914 22.5827C171.476 23.0976 171.757 23.7811 171.757 24.6331ZM168.443 26.5992C169.978 26.5992 170.746 25.9438 170.746 24.6331C170.746 23.9777 170.563 23.4815 170.198 23.1444C169.833 22.8074 169.248 22.6388 168.443 22.6388H166.463V26.5992H168.443Z" fill="#494949"/>
<path d="M182.999 21.9366V31.627H182.015V23.8887L178.561 31.627H177.844L174.39 23.9168V31.627H173.407V21.9366H174.446L178.196 30.3349L181.945 21.9366H182.999Z" fill="#494949"/>
<path d="M195.36 24.6331C195.36 25.4757 195.084 26.1545 194.532 26.6694C193.979 27.1844 193.151 27.4419 192.046 27.4419H190.066V31.627H189.083V21.8102H192.046C193.141 21.8102 193.965 22.0677 194.518 22.5827C195.079 23.0976 195.36 23.7811 195.36 24.6331ZM192.046 26.5992C193.581 26.5992 194.349 25.9438 194.349 24.6331C194.349 23.9777 194.166 23.4815 193.801 23.1444C193.436 22.8074 192.851 22.6388 192.046 22.6388H190.066V26.5992H192.046Z" fill="#494949"/>
<path d="M202.248 31.627L197.993 27.0908V31.627H197.01V21.8102H197.993V26.4026L202.248 21.8102H203.498L198.906 26.7116L203.54 31.627H202.248Z" fill="#494949"/>
<path d="M210.736 21.8102V22.6248H208.011V31.627H207.028V22.6248H204.29V21.8102H210.736Z" fill="#494949"/>
</svg>
