<svg width="29" height="29" viewBox="0 0 29 29" fill="none" xmlns="http://www.w3.org/2000/svg">
<path d="M14.5255 15.7554C19.2422 15.7554 23.9589 15.7588 28.6756 15.7478C28.9717 15.7469 29.0158 15.8182 28.995 16.095C28.7769 19.0767 27.7261 21.7359 25.7637 24.0231C23.4084 26.7671 20.4082 28.4057 16.7709 28.8446C14.5393 29.1138 12.3086 29.0688 10.1351 28.4261C5.96283 27.1925 2.9756 24.6115 1.1734 20.723C0.48004 19.2262 0.133795 17.6411 0.0160715 16.0025C-0.00383758 15.7257 0.131198 15.7537 0.312111 15.7537C5.04874 15.7554 9.7871 15.7554 14.5255 15.7554ZM9.00372 25.5292C9.00805 25.3858 8.87042 25.3866 8.78559 25.3433C6.83623 24.3525 5.22879 22.9797 3.97365 21.2112C3.82736 21.0048 3.73128 20.6432 3.52786 20.6287C3.30973 20.6126 3.07601 20.8766 2.83883 20.9981C2.6761 21.0813 2.69168 21.1585 2.78257 21.2833C3.01975 21.6093 3.23615 21.9515 3.48285 22.2707C4.79858 23.9747 6.42939 25.3102 8.37875 26.2679C8.4454 26.3001 8.53802 26.4394 8.61679 26.3001C8.75616 26.0505 8.87388 25.7899 9.00372 25.5292ZM9.84596 26.3969C9.84596 26.9361 9.84596 26.9361 10.3974 26.9361C10.8821 26.9361 10.8821 26.9361 10.8821 26.4589C10.8821 25.9198 10.8821 25.9198 10.3307 25.9198C9.84596 25.9198 9.84596 25.9198 9.84596 26.3969Z" fill="black"/>
<path d="M7.05871 13.7289C6.87001 13.0556 6.68217 12.4206 6.42854 11.8059C5.56986 9.72411 4.29827 7.9259 2.61726 6.40192C2.47097 6.26948 2.38354 6.23297 2.25197 6.40872C2.10048 6.60993 1.80704 6.78907 1.79752 6.98774C1.7906 7.1499 2.11174 7.3248 2.28573 7.4963C4.33636 9.51101 5.66854 11.9001 6.21214 14.7384C5.94813 14.7384 5.7023 14.7307 5.45733 14.7418C5.32922 14.7477 5.2617 14.6815 5.19072 14.5983C3.36428 12.4758 1.76809 10.197 0.388304 7.77223C0.336367 7.68054 0.29828 7.5812 0.250671 7.48611C-0.255712 6.47664 -0.0124746 5.82544 1.14831 5.35764C3.27685 4.49929 6.12472 4.93992 7.25867 7.8877C7.93471 9.64515 7.96414 11.4162 7.32532 13.1923C7.263 13.3672 7.2024 13.5438 7.05871 13.7289Z" fill="#020202"/>
<path d="M28.6126 14.7393C28.178 14.7393 27.8058 14.7393 27.4327 14.7393C26.1914 14.7393 24.9502 14.7342 23.7089 14.7444C23.4812 14.7461 23.4197 14.7079 23.4665 14.4685C23.7946 12.807 24.2161 11.1701 24.7658 9.56712C24.8454 9.33534 24.771 9.28015 24.5771 9.21648C23.8664 8.983 23.8673 8.97875 23.637 9.68004C23.1177 11.2601 22.716 12.8698 22.4148 14.5033C22.3914 14.6323 22.3914 14.7452 22.1975 14.7436C21.1518 14.7359 20.1062 14.7402 19.0406 14.7402C19.1549 14.2723 19.2059 13.8224 19.1557 13.3673C19.135 13.1831 19.225 13.2111 19.3444 13.2408C19.8249 13.3605 20.3044 13.4997 20.8082 13.4276C21.6063 13.3138 22.0763 12.717 22.0019 11.9274C21.9525 11.4086 21.7863 10.9154 21.6652 10.4119C21.6011 10.1453 21.531 9.87531 21.5085 9.60363C21.415 8.45916 22.059 7.53373 23.2665 7.04385C24.6636 6.47756 25.7119 7.02857 25.988 8.48548C26.1153 9.15874 26.0815 9.83456 25.93 10.5027C25.8443 10.8805 25.6582 11.2108 25.4141 11.5139C25.2678 11.6964 25.1146 11.8773 24.996 12.0768C24.6541 12.6558 24.9017 13.2518 25.5691 13.4013C26.0183 13.5023 26.4892 13.5108 26.9419 13.6025C27.6353 13.7409 28.1555 14.1425 28.6126 14.7393Z" fill="#020202"/>
<path d="M21.008 1.52518C21.375 1.52518 21.7421 1.52433 22.1082 1.52518C22.1922 1.52518 22.2787 1.50565 22.2831 1.64149C22.3203 2.73162 22.2727 3.80223 21.6148 4.74803C20.8003 5.91967 19.6741 6.55303 18.2259 6.60142C17.5897 6.62265 16.9526 6.60058 16.3164 6.60991C16.1346 6.61246 16.0532 6.59124 16.0567 6.37728C16.0688 5.64798 16.0411 4.92123 16.306 4.21655C16.9067 2.61446 18.4285 1.543 20.1658 1.52518C20.4471 1.52263 20.7276 1.52518 21.008 1.52518Z" fill="black"/>
<path d="M8.39686 13.2738C8.67559 12.3544 8.82794 11.4417 8.80976 10.5052C8.78812 9.38282 8.56739 8.30118 8.10602 7.27303C8.01773 7.07606 8.05148 6.94701 8.19171 6.79843C8.81322 6.14384 9.58362 5.95621 10.4362 6.17525C12.1943 6.62778 13.3845 7.68395 13.8926 9.42952C13.9653 9.67998 13.9394 9.80903 13.6459 9.90751C11.6706 10.5689 10.5384 12.5734 10.9816 14.5805C10.9902 14.6212 10.9972 14.6628 11.0084 14.7214C10.2172 14.7214 9.4356 14.7214 8.61846 14.7214C8.83833 14.4701 9.05559 14.2434 9.2469 13.9981C10.4241 12.4877 11.1287 10.7862 11.3798 8.90143C11.3988 8.7588 11.3867 8.68748 11.2188 8.67729C10.9824 8.66286 10.7461 8.634 10.5124 8.59494C10.3229 8.56353 10.3627 8.69852 10.3497 8.79021C10.193 9.90836 9.86667 10.9747 9.33432 11.9774C9.12484 12.3714 8.89199 12.7509 8.62539 13.11C8.57864 13.1754 8.55614 13.2738 8.39686 13.2738Z" fill="#020202"/>
<path d="M18.1004 13.9428C18.1108 13.9954 18.1195 14.0158 18.1177 14.0353C18.0286 14.7383 18.0286 14.7383 17.3127 14.7383C15.6724 14.7383 14.0321 14.7324 12.3917 14.7451C12.1485 14.7468 12.0325 14.6772 12.0065 14.4471C11.997 14.3631 11.9762 14.2807 11.9615 14.1975C11.8187 13.3994 11.8222 13.3926 12.5813 13.6287C12.7328 13.6754 12.8141 13.6838 12.8592 13.5064C12.9215 13.2619 13.118 12.9953 13.0608 12.7907C12.9977 12.5648 12.628 12.5988 12.3995 12.502C12.3034 12.4613 12.1935 12.4545 12.2861 12.2923C12.7752 11.4382 13.504 10.9212 14.5099 10.7174C14.5099 10.9959 14.5194 11.248 14.5064 11.4993C14.4986 11.6539 14.5497 11.7014 14.7055 11.6929C14.973 11.6776 15.3106 11.7744 15.4897 11.6479C15.662 11.5265 15.5426 11.175 15.5391 10.9263C15.5365 10.7352 15.6005 10.7165 15.7641 10.7615C16.8115 11.046 17.5361 11.6793 17.9446 12.6684C18.0225 12.8578 17.968 12.9214 17.7836 12.9681C17.5551 13.0267 17.337 13.1218 17.1102 13.1846C16.976 13.222 16.931 13.2814 16.989 13.4071C16.9933 13.4164 16.9985 13.4257 17.0028 13.4359C17.118 13.6771 17.0781 14.0642 17.3214 14.1457C17.5291 14.2128 17.8252 14.0235 18.1004 13.9428ZM15.0466 12.7058C14.5099 12.7058 14.5099 12.7058 14.5099 13.2271C14.5099 13.7221 14.5099 13.7221 15.0085 13.7221C15.5451 13.7221 15.5451 13.7221 15.5451 13.2008C15.546 12.7058 15.546 12.7058 15.0466 12.7058Z" fill="#020202"/>
<path d="M3.94258 14.7392C2.66926 14.7392 1.4323 14.7366 0.195342 14.7426C0.0239504 14.7434 0.0040413 14.6636 0.000578855 14.5303C-0.0141366 13.9776 0.252472 13.5718 0.713843 13.2967C1.14492 13.0395 1.61062 12.8433 2.08411 12.6659C2.24598 12.6048 2.32994 12.6413 2.43035 12.7737C2.91683 13.419 3.41455 14.0557 3.94258 14.7392Z" fill="#020202"/>
<path d="M6.73674 1.03019C6.72982 1.59139 6.24508 2.04816 5.67117 2.03287C5.11286 2.01844 4.65841 1.55233 4.66533 1.00302C4.67226 0.438427 5.15354 -0.0140973 5.73004 0.00033591C6.28922 0.0147691 6.74367 0.480028 6.73674 1.03019Z" fill="#020202"/>
<path d="M13.4729 2.52529C13.4807 3.08819 13.0107 3.55684 12.4368 3.55684C11.8776 3.55684 11.4093 3.10347 11.4015 2.55586C11.3937 1.98956 11.8611 1.52515 12.4368 1.52515C12.9968 1.52515 13.4651 1.97683 13.4729 2.52529Z" fill="#020202"/>
</svg>
