<svg width="25" height="25" viewBox="0 0 25 25" fill="none" xmlns="http://www.w3.org/2000/svg">
<g clip-path="url(#clip0_467_131)">
<path d="M8.64535 25C8.40167 25 8.15709 25 7.9134 25C7.90618 24.9612 7.8764 24.9558 7.84481 24.9458C5.75907 24.2526 3.67514 23.5558 1.5894 22.8644C0.529829 22.5133 0.00546101 21.7966 0.00546101 20.6809C0.00546101 15.8808 0.00546101 11.0806 0.00546101 6.28046C0.00546101 4.8814 -0.00717437 3.48142 0.00997364 2.08236C0.0199014 1.18334 0.46936 0.546089 1.27802 0.165181C1.65799 -0.0135389 2.06774 0.00180578 2.47297 0.00180578C6.15799 0.00180578 9.84301 -0.00270735 13.5289 0.00361103C15.2708 0.0063189 16.6372 1.36026 16.6607 3.10413C16.6742 4.13763 16.6634 5.17024 16.6643 6.20374C16.6643 6.3599 16.6472 6.51154 16.5858 6.65686C16.3963 7.10456 15.9233 7.3582 15.4315 7.27516C14.9703 7.19753 14.6011 6.78684 14.5957 6.30032C14.584 5.28306 14.5921 4.26671 14.5894 3.24945C14.5876 2.50478 14.1715 2.09048 13.4242 2.08958C11.9685 2.08867 10.5118 2.08867 9.056 2.08958C8.99012 2.08958 8.92423 2.0959 8.85835 2.09951C10.0082 2.53186 10.4324 3.36408 10.426 4.55284C10.4017 9.54797 10.417 14.544 10.4116 19.5391C10.4116 19.7422 10.463 19.7955 10.6652 19.7937C11.5596 19.7828 12.4558 19.7612 13.3493 19.7964C14.1887 19.8298 14.6129 19.2629 14.5984 18.5571C14.5722 17.2717 14.5912 15.9864 14.5903 14.7011C14.5903 14.5214 14.5966 14.3436 14.6697 14.1748C14.8583 13.7352 15.3313 13.4789 15.8006 13.5628C16.3069 13.6531 16.658 14.0421 16.6607 14.562C16.6697 15.9449 16.6706 17.3286 16.6634 18.7114C16.6544 20.5239 15.2898 21.8724 13.4712 21.876C12.519 21.8778 11.5677 21.8805 10.6156 21.8724C10.4567 21.8715 10.4062 21.9103 10.4116 22.0728C10.4233 22.3896 10.4206 22.7073 10.4089 23.0242C10.3737 23.9259 9.7338 24.7085 8.86286 24.9359C8.79066 24.954 8.69409 24.9043 8.64535 25Z" fill="#FFCC66"/>
<path d="M24.9996 10.6943C24.8146 11.0834 24.4924 11.3569 24.1972 11.6529C22.9951 12.8561 21.7938 14.0584 20.5898 15.2598C20.2189 15.6299 19.7884 15.7265 19.3696 15.5315C18.9608 15.341 18.755 15.0098 18.7523 14.563C18.7469 13.6026 18.7451 12.6431 18.7559 11.6827C18.7577 11.4959 18.7072 11.458 18.5285 11.4598C17.2433 11.4679 15.9581 11.4661 14.672 11.4634C14.0925 11.4625 13.6702 11.1384 13.5682 10.6275C13.4346 9.9623 13.9166 9.38101 14.6142 9.3783C15.9075 9.37379 17.2008 9.37108 18.4951 9.38282C18.7108 9.38462 18.7595 9.33137 18.7568 9.11925C18.7433 8.19226 18.7505 7.26436 18.7514 6.33646C18.7523 5.83279 18.9842 5.44376 19.4003 5.28941C19.848 5.12333 20.2433 5.22804 20.5817 5.56652C21.9382 6.92587 23.2947 8.28342 24.6557 9.63826C24.82 9.80164 24.9138 10.0002 25.0005 10.206C24.9996 10.3685 24.9996 10.531 24.9996 10.6943Z" fill="#FFCC66"/>
</g>
<defs>
<clipPath id="clip0_467_131">
<rect width="25" height="25" fill="white"/>
</clipPath>
</defs>
</svg>
