<svg width="25" height="19" viewBox="0 0 25 19" fill="none" xmlns="http://www.w3.org/2000/svg">
<path d="M14.6948 18.7945C10.0694 18.7652 6.16383 15.6526 5.21389 11.2385C4.35203 7.23291 6.42768 2.9846 10.1695 1.09551C15.2194 -1.45392 21.2999 0.599131 23.5707 5.66873C24.7597 8.32397 24.6469 10.9905 23.3455 13.6003C23.2651 13.7616 23.2543 13.896 23.3084 14.0659C23.7202 15.3622 24.1181 16.6626 24.5283 17.9593C24.6261 18.2681 24.623 18.5513 24.3788 18.7903C24.1351 19.0286 23.8438 19.0391 23.5251 18.9442C22.1738 18.5412 20.819 18.1488 19.4684 17.7439C19.3143 17.6978 19.1968 17.7158 19.0585 17.7826C17.6701 18.4534 16.1477 18.8038 14.6948 18.7945ZM14.6901 7.4569C14.6901 7.45727 14.6901 7.45727 14.6901 7.45765C15.7996 7.45765 16.9091 7.4599 18.0186 7.45652C18.4806 7.45502 18.8071 7.16425 18.8198 6.75716C18.8326 6.35008 18.4934 6.01954 18.0279 6.01841C15.8089 6.01353 13.5903 6.01578 11.3713 6.01691C11.2068 6.01691 11.0507 6.05405 10.912 6.14673C10.6462 6.32419 10.5307 6.63072 10.6176 6.9305C10.7107 7.25129 10.975 7.4539 11.3362 7.4554C12.4542 7.45952 13.5721 7.4569 14.6901 7.4569ZM14.6948 10.1118C15.7625 10.1118 16.8307 10.1121 17.8985 10.1114C17.9923 10.1114 18.087 10.1121 18.1797 10.0998C18.6529 10.0367 18.9438 9.56173 18.7638 9.13401C18.6564 8.87925 18.4601 8.69466 18.1673 8.69091C15.861 8.66164 13.5548 8.66727 11.2485 8.68603C11.24 8.68603 11.2315 8.68715 11.223 8.68865C10.924 8.73105 10.7235 8.89539 10.6277 9.1689C10.4569 9.6574 10.8173 10.1076 11.3883 10.1103C12.4905 10.1155 13.5926 10.1118 14.6948 10.1118ZM13.5915 11.3311C12.8656 11.3311 12.1397 11.3293 11.4138 11.3319C10.9174 11.3334 10.579 11.6298 10.5821 12.0526C10.5856 12.474 10.9282 12.7719 11.4212 12.7726C12.8555 12.7745 14.2903 12.7745 15.7247 12.7726C16.2126 12.7719 16.5599 12.4642 16.5572 12.0455C16.5545 11.6227 16.2168 11.3334 15.7173 11.3319C15.0092 11.3293 14.3003 11.3311 13.5915 11.3311Z" fill="#FFCC66"/>
<path d="M8.99202 18.7112C8.40676 18.7997 7.87326 18.8192 7.3359 18.7802C6.31217 18.7059 5.33789 18.4564 4.42079 18.0058C4.31726 17.9551 4.23265 17.9686 4.13028 17.999C3.13707 18.2947 2.14193 18.5847 1.14795 18.8785C0.950159 18.937 0.752754 18.9925 0.54569 18.9419C0.118043 18.8372 -0.0967469 18.4305 0.0419392 17.9784C0.341717 17.0033 0.63995 16.0282 0.954795 15.0575C1.01892 14.8598 0.999607 14.706 0.908051 14.5236C-0.953974 10.8032 0.816109 6.1332 4.73795 4.50037C3.46389 7.06481 3.18266 9.69903 3.9916 12.4098C4.80015 15.1194 6.50031 17.1871 8.99202 18.7112Z" fill="#FFCC66"/>
</svg>
