<svg width="23" height="17" viewBox="0 0 23 17" fill="none" xmlns="http://www.w3.org/2000/svg">
<g clip-path="url(#clip0_620_420)">
<path d="M0 1.10681C0.0756441 1.0654 0.0654381 0.981981 0.0906528 0.917495C0.299575 0.380311 0.816476 0.0170605 1.40062 0.00108699C1.43063 -9.62374e-05 1.46065 -9.62374e-05 1.49067 -9.62374e-05C8.16776 -9.62374e-05 14.8448 -0.00068785 21.5219 0.000495375C22.375 0.000495375 23.0144 0.63293 23 1.44876C22.9868 2.18355 22.381 2.79705 21.6348 2.83018C21.5454 2.83432 21.4553 2.83255 21.3652 2.83255C14.8004 2.83255 8.2356 2.83255 1.67077 2.83255C0.761244 2.83255 0.387826 2.58466 0.0348203 1.74753C0.0306178 1.73806 0.012007 1.73392 0 1.72682C0 1.51976 0 1.31328 0 1.10681Z" fill="black"/>
<path d="M-1.00018e-05 8.19029C0.0756341 8.14888 0.0654281 8.06546 0.0906428 8.00097C0.300165 7.4632 0.816466 7.10054 1.40061 7.08457C1.40781 7.08457 1.41561 7.08397 1.42282 7.08397C8.13713 7.08397 14.852 7.08279 21.5664 7.08575C22.3816 7.08634 23.0138 7.73652 22.9994 8.53343C22.9862 9.26821 22.3804 9.88171 21.6342 9.91484C21.5447 9.91898 21.4547 9.91721 21.3646 9.91721C14.7998 9.91721 8.23499 9.91721 1.67016 9.91721C0.760633 9.91721 0.387216 9.66932 0.0342099 8.83219C0.0300075 8.82213 0.0113966 8.8174 -0.000610352 8.8103C-1.00018e-05 8.60324 -1.00018e-05 8.39676 -1.00018e-05 8.19029Z" fill="black"/>
<path d="M-1.00018e-05 15.2736C0.0756341 15.2322 0.0654281 15.1488 0.0906428 15.0843C0.300165 14.5465 0.816466 14.1839 1.40061 14.1679C1.42282 14.1673 1.44563 14.1673 1.46785 14.1673C8.15994 14.1673 14.852 14.1661 21.5441 14.1685C22.3774 14.1685 23.0138 14.8104 22.9994 15.6167C22.9862 16.3515 22.3804 16.965 21.6342 16.9982C21.5447 17.0023 21.4547 17.0005 21.3646 17.0005C14.7998 17.0005 8.23499 17.0005 1.67016 17.0005C0.760633 17.0005 0.387216 16.7526 0.0342099 15.9155C0.0300075 15.9054 0.0113966 15.9007 -0.000610352 15.8936C-1.00018e-05 15.6865 -1.00018e-05 15.4801 -1.00018e-05 15.2736Z" fill="black"/>
</g>
<defs>
<clipPath id="clip0_620_420">
<rect width="23" height="17" fill="white"/>
</clipPath>
</defs>
</svg>
