<svg width="23" height="23" viewBox="0 0 23 23" fill="none" xmlns="http://www.w3.org/2000/svg">
<path d="M7.97367 23C7.53296 22.9784 7.08904 22.7173 6.63551 22.4974C5.79892 22.0909 5.02895 21.5694 4.31278 20.9573C3.70423 20.4372 3.55433 19.823 3.85989 19.0499C4.43385 17.5943 3.95149 15.9575 2.70685 15.1275C2.29368 14.8523 1.84015 14.717 1.361 14.6426C0.679424 14.5371 0.242557 14.0474 0.134299 13.3263C-0.0674824 11.9884 -0.036741 10.6573 0.191945 9.32687C0.32006 8.58284 0.787673 8.1087 1.51217 8.01062C3.47169 7.74615 4.64331 5.73391 3.97839 3.77442C3.70806 2.97764 3.87974 2.37295 4.51199 1.85889C5.41521 1.12434 6.40106 0.549411 7.46506 0.120582C8.10628 -0.137797 8.69625 0.022505 9.14721 0.575788C10.461 2.18626 12.5442 2.18762 13.8529 0.578497C14.3045 0.0231841 14.8938 -0.137798 15.5338 0.119228C16.7131 0.593374 17.7918 1.24879 18.7668 2.09563C19.317 2.57383 19.4797 3.16838 19.2478 3.87858C18.6143 5.8171 19.6757 7.74209 21.5827 8.11478C22.2976 8.2548 22.689 8.67686 22.8267 9.44794C23.0734 10.8237 23.0496 12.1974 22.8005 13.5685C22.6826 14.2171 22.2047 14.6811 21.575 14.7819C19.6021 15.0964 18.4753 17.1161 19.1761 19.0824C19.4342 19.8075 19.2792 20.4209 18.7123 20.9106C17.843 21.6621 16.8892 22.2648 15.8541 22.7254C15.1238 23.0507 14.5242 22.8931 14.0252 22.2404C12.8344 20.6841 10.7032 20.5894 9.45149 22.0389C9.34451 22.1633 9.25354 22.3026 9.15233 22.4332C8.86855 22.8018 8.50215 22.9926 7.97367 23ZM7.66683 11.4744C7.66555 13.7315 9.37525 15.5415 11.5103 15.5442C13.6191 15.5462 15.3345 13.7227 15.3345 11.4798C15.3345 9.27411 13.6133 7.45193 11.527 7.44854C9.39895 7.44381 7.66811 9.24976 7.66683 11.4744Z" fill="#FFCC66"/>
</svg>
