<svg width="19" height="2" viewBox="0 0 19 2" fill="none" xmlns="http://www.w3.org/2000/svg">
<path d="M0 0.781451C0.0624883 0.752218 0.0540573 0.693336 0.0748867 0.647816C0.247473 0.268627 0.674477 0.0122151 1.15702 0.000939621C1.18182 0.000104402 1.20662 0.000104402 1.23142 0.000104402C6.74724 0.000104402 12.2631 -0.000313207 17.7789 0.000522011C18.4836 0.000522011 19.0118 0.446946 18.9999 1.02283C18.989 1.5415 18.4886 1.97456 17.8721 1.99795C17.7982 2.00087 17.7239 1.99962 17.6495 1.99962C12.2264 1.99962 6.80329 1.99962 1.3802 1.99962C0.62885 1.99962 0.320376 1.82464 0.0287644 1.23372C0.0252929 1.22704 0.00991877 1.22412 0 1.21911C0 1.07294 0 0.927197 0 0.781451Z" fill="white"/>
</svg>
