<svg width="32" height="33" viewBox="0 0 32 33" fill="none" xmlns="http://www.w3.org/2000/svg">
<path d="M16.0166 6.6051e-05C24.8562 0.0262933 32.009 7.23071 32 16.1026C31.992 24.9956 24.7629 32.2495 15.9645 32.192C7.10787 32.1335 -0.035964 24.92 0.000136219 16.0693C0.0372392 7.17422 7.21317 -0.0251524 16.0166 6.6051e-05ZM12.7927 11.7357C13.0885 12.3763 13.6571 12.7657 14.1093 13.2549C14.2798 13.4395 14.4553 13.6191 14.6398 13.7875C15.1442 14.2465 15.4621 14.8235 15.6957 15.454C15.9063 16.0239 16.0286 16.609 16.0016 17.2223C15.9625 18.1251 16.1069 19.039 15.9223 19.9317C15.7128 20.9455 15.2294 21.7384 14.1203 22.0087C13.4695 22.1681 12.8358 22.4143 12.209 22.6574C11.4128 22.966 11.0207 23.8245 11.2714 24.6305C11.5211 25.4324 12.3374 25.9156 13.1627 25.6967C13.8115 25.5252 14.4362 25.2579 15.085 25.0854C16.6774 24.6637 17.7845 23.6732 18.5075 22.2155C18.6078 22.0138 18.688 22.0148 18.8705 22.1005C19.4542 22.3719 20.0689 22.5252 20.7167 22.5252C22.3422 22.5252 23.9677 22.5343 25.5932 22.5242C26.3994 22.5192 27.0001 22.0239 27.1736 21.235C27.4694 19.8853 27.5506 18.5286 27.335 17.1547C26.9249 14.539 25.1369 12.9351 22.5297 12.8716C21.5189 12.8464 20.7528 13.6049 20.8049 14.5794C20.85 15.4368 21.5369 16.0663 22.4585 16.0955C23.4673 16.1278 23.8744 16.4576 24.1201 17.4361C24.2505 17.9536 24.2545 18.4802 24.2535 19.0088C24.2535 19.2519 24.1783 19.3305 23.9306 19.3265C22.9428 19.3124 21.9551 19.3235 20.9674 19.3205C19.8543 19.3164 19.2095 18.6617 19.2085 17.533C19.2065 14.4765 19.2075 11.42 19.2075 8.36352C19.2075 8.25055 19.2105 8.13656 19.2045 8.02358C19.1784 7.55048 19.0119 7.1369 18.6459 6.83125C18.1425 6.4106 17.5749 6.30166 16.9673 6.572C16.3505 6.84739 16.0186 7.34268 16.0046 8.01954C15.9865 8.85377 16.0006 9.68901 16.0006 10.6322C15.4932 10.0058 14.9888 9.57906 14.2276 9.66379C13.4836 9.74651 13.0684 10.2176 12.7876 10.9469C12.7876 9.89378 12.8037 8.92539 12.7826 7.957C12.7656 7.18532 12.1719 6.55284 11.4138 6.44288C10.6688 6.33495 9.93873 6.79897 9.68302 7.53031C9.59779 7.77543 9.6038 8.02459 9.6038 8.27576C9.6028 11.8104 9.6028 15.344 9.6028 18.8786C9.6028 18.9664 9.6038 19.0552 9.6028 19.1429C9.59478 19.732 9.30497 20.0921 8.82664 20.1083C8.3423 20.1244 8.03846 19.7996 7.9833 19.2055C7.90007 18.3127 7.16904 17.65 6.3257 17.7024C5.43423 17.7579 4.79044 18.4681 4.80347 19.382C4.83255 21.3773 6.23144 22.958 8.27411 23.3009C10.0551 23.6005 11.9192 22.4506 12.558 20.6701C12.7435 20.1527 12.7937 19.6211 12.7927 19.0773C12.7907 16.6322 12.7927 14.184 12.7927 11.7357Z" fill="#010101"/>
</svg>
