<svg width="50" height="33" viewBox="0 0 50 33" fill="none" xmlns="http://www.w3.org/2000/svg">
<path d="M2.83336 1.58573L4.04184 23.786C4.0866 24.5789 4.7324 25.1991 5.52527 25.2055L45.4755 25.4996C46.3003 25.506 46.9781 24.841 46.9845 24.0098L47.1124 6.72658C47.1188 5.89535 46.4474 5.21758 45.6162 5.21758L21.0437 5.19839C20.6473 5.19839 20.2636 5.03854 19.9823 4.7572L15.743 0.517919C15.4617 0.23658 15.0908 0.08312 14.6944 0.0767259L4.33597 0C3.47916 0 2.7886 0.722529 2.83336 1.58573Z" fill="#EBEBEB"/>
<path d="M47.1452 2.61162L3.49275 2.29172L3.30161 28.3732L46.954 28.6931L47.1452 2.61162Z" fill="#F5F5F5"/>
<path d="M0.0072008 4.60374L3.1403 31.8298C3.19785 32.3157 3.60068 32.6802 4.09302 32.6866L46.6329 32.9999C47.138 33.0063 47.56 32.6226 47.5984 32.1175L49.9386 4.92985C49.9898 4.36717 49.5486 3.88761 48.9859 3.88122L0.972708 3.52954C0.390846 3.52315 -0.0631341 4.02827 0.0072008 4.60374Z" fill="#EBEBEB"/>
</svg>
