<svg width="33" height="45" viewBox="0 0 33 45" fill="none" xmlns="http://www.w3.org/2000/svg">
<path d="M32.5923 20.9083C30.7314 18.5424 30.6871 14.2272 30.748 13.0942C30.892 10.4784 25.0766 -4.79425 10.6654 1.51475V1.50364C5.50352 1.50364 5.4149 6.61304 4.43459 7.64603C3.45427 8.67346 2.3632 9.74532 2.10843 11.1449C1.65427 13.6274 4.00259 16.0377 3.40443 18.4868C3.18289 19.4088 2.56812 20.1863 2.13611 21.0249C1.67642 21.7802 1.30535 23.002 1.50473 23.6795C1.70412 24.3571 2.13612 24.9402 2.49059 25.5511C2.84505 26.162 3.13857 26.8618 3.01119 27.5616C2.78411 28.8223 1.33303 29.5165 0.939795 30.7383C0.557638 31.9323 1.30534 33.1597 1.98658 34.2149C2.66228 35.2701 3.32135 36.5919 2.77304 37.7193C2.4795 38.3191 1.90349 38.7189 1.43826 39.191C0.0148616 40.6239 -0.406063 42.962 0.419174 44.8058C3.18289 44.2615 5.9466 43.7117 8.71031 43.1675C9.07031 39.2077 9.43585 35.2423 9.79585 31.2826C12.2217 31.8879 14.8747 30.3329 16.0211 30.0385L17.4335 29.2721C20.5239 29.8164 23.8581 29.622 26.5665 28.0392C29.2748 26.4564 33.2902 28.4779 32.764 25.379C32.5148 23.8628 33.5339 22.1078 32.5923 20.9083Z" fill="#263238"/>
<path d="M23.1382 6.45756L11.8618 3.10868C8.22854 2.57552 5.61992 6.9796 5.2433 10.645C4.82237 14.7159 4.46791 19.6976 4.82791 22.7632C5.55345 28.9223 10.2002 29.8886 10.2002 29.8886C10.2002 29.883 9.3861 38.6135 9.30856 40.7961L23.2157 33.6596L24.9714 8.71791C25.0379 7.60162 24.2404 6.62417 23.1382 6.45756Z" fill="#FFD3C1"/>
<path d="M5.94113 15.6656C5.9079 16.0821 6.23467 16.4486 6.66667 16.4875C7.09868 16.5264 7.46976 16.2265 7.50299 15.81C7.53622 15.3934 7.20946 15.0269 6.78299 14.988C6.34545 14.9491 5.97436 15.249 5.94113 15.6656Z" fill="#263238"/>
<path d="M5.52569 13.8662C5.60323 13.9661 6.26784 13.8217 7.09862 14.0717C7.92939 14.3105 8.45557 14.8047 8.56634 14.7548C8.62172 14.7325 8.55525 14.5715 8.32817 14.3493C8.10663 14.1327 7.69679 13.8606 7.17617 13.7107C6.66109 13.5607 6.18478 13.5718 5.89677 13.6385C5.60877 13.7107 5.48692 13.8217 5.52569 13.8662Z" fill="#263238"/>
<path d="M13.7559 16.3043C13.7227 16.7208 14.0495 17.0873 14.4815 17.1262C14.9135 17.1651 15.2846 16.8652 15.3178 16.4487C15.351 16.0321 15.0243 15.6656 14.5978 15.6267C14.1603 15.5878 13.7836 15.8877 13.7559 16.3043Z" fill="#263238"/>
<path d="M13.8944 14.9825C14.0163 15.038 14.6255 14.6326 15.567 14.4993C16.5086 14.3604 17.2563 14.5715 17.3449 14.4826C17.3892 14.4437 17.2563 14.3271 16.9295 14.2272C16.6083 14.1272 16.0766 14.0661 15.4895 14.1494C14.9024 14.2327 14.4372 14.4437 14.1769 14.627C13.911 14.8103 13.8335 14.9547 13.8944 14.9825Z" fill="#263238"/>
<path d="M10.9867 20.4917C10.9922 20.4417 10.4716 20.3307 9.62972 20.1863C9.41372 20.1529 9.21433 20.103 9.1811 19.953C9.13679 19.7975 9.23649 19.5642 9.35279 19.3199C9.57433 18.8034 9.80695 18.2702 10.0562 17.7038C11.031 15.399 11.751 13.5052 11.6568 13.4663C11.5627 13.4274 10.6987 15.2601 9.71834 17.5649C9.48018 18.1314 9.25864 18.6757 9.04264 19.1921C8.95402 19.4365 8.79894 19.7086 8.89863 20.0363C8.94848 20.1974 9.10355 20.3251 9.24202 20.364C9.38048 20.414 9.49679 20.4195 9.60756 20.4306C10.4494 20.5139 10.9811 20.5417 10.9867 20.4917Z" fill="#263238"/>
<path d="M10.2003 29.8941C10.2003 29.8941 14.2101 30.4106 18.3806 28.1225C18.3086 28.1336 15.8772 32.3822 10.0507 31.5214L10.2003 29.8941Z" fill="#F4AF9B"/>
<path d="M11.2581 22.5466C11.5793 22.1578 12.1165 21.9579 12.6427 22.0356C13.0082 22.0912 13.3682 22.28 13.5787 22.591C13.7892 22.8965 13.8168 23.3241 13.6064 23.6018C13.3682 23.9128 12.8864 23.9683 12.4932 23.835C12.0944 23.7017 11.7621 23.4241 11.4408 23.1464C11.3522 23.0686 11.2636 22.9909 11.2082 22.8853C11.1528 22.7854 11.1473 22.6521 11.2193 22.5688" fill="#F4AF9B"/>
<path d="M13.4403 21.1804C13.3018 21.1693 13.263 22.0856 12.4544 22.7021C11.6458 23.3241 10.6766 23.1797 10.6655 23.3074C10.6489 23.363 10.8759 23.4963 11.2858 23.524C11.6901 23.5518 12.2827 23.4463 12.7756 23.0686C13.2686 22.691 13.4956 22.1634 13.54 21.7913C13.5953 21.4081 13.5067 21.1748 13.4403 21.1804Z" fill="#263238"/>
<path d="M14.0052 11.9724C14.0772 12.2057 14.9246 12.1279 15.9104 12.289C16.8963 12.4278 17.6828 12.75 17.8212 12.55C17.8822 12.4556 17.7548 12.2335 17.4391 11.9947C17.1289 11.7614 16.6249 11.5281 16.0378 11.4393C15.4452 11.3504 14.9025 11.4226 14.5369 11.5559C14.1603 11.6892 13.972 11.8614 14.0052 11.9724Z" fill="#263238"/>
<path d="M6.42846 11.4281C6.56692 11.628 7.15954 11.4503 7.85739 11.467C8.55524 11.4614 9.14233 11.6502 9.28633 11.4503C9.34726 11.3559 9.26418 11.1615 9.01495 10.9671C8.76572 10.7783 8.35033 10.6117 7.86848 10.6061C7.38663 10.6006 6.96569 10.7616 6.71646 10.9449C6.45615 11.1393 6.36754 11.3337 6.42846 11.4281Z" fill="#263238"/>
<path d="M10.5327 2.30897C15.0687 3.03095 19.5106 4.2972 23.7475 6.06882C24.7278 6.4798 25.758 6.96852 26.3118 7.87933C26.8989 8.84012 26.8214 10.0564 26.7272 11.1782C26.262 16.6653 25.7968 22.1523 25.3315 27.6394L24.7445 27.6061C23.0552 27.8837 22.9334 27.0174 21.726 25.8011C20.5186 24.5848 19.937 22.7688 20.214 21.0749C20.4632 19.581 21.3272 18.0815 20.862 16.6375C20.2472 14.727 17.6386 14.0495 17.0127 12.1446C16.6472 11.0394 17.0625 9.77314 16.6416 8.69017C16.2484 7.66829 15.2127 7.04628 14.1991 6.6353C13.1856 6.22433 12.0945 5.92443 11.2582 5.21911C10.4274 4.51934 9.94004 3.23089 10.5327 2.30897Z" fill="#263238"/>
</svg>
