<svg width="17" height="17" viewBox="0 0 17 17" fill="none" xmlns="http://www.w3.org/2000/svg">
<g clip-path="url(#clip0_88_28)">
<path d="M17 6.86911C16.9935 7.1372 16.8506 7.44162 16.5949 7.70244C15.5914 8.72472 14.592 9.75103 13.5877 10.7717C13.4919 10.8694 13.4537 10.9534 13.4789 11.1003C13.7281 12.5748 13.9709 14.0509 14.2039 15.5278C14.2843 16.0365 14.1179 16.4701 13.6867 16.7713C13.267 17.0644 12.8229 17.066 12.3756 16.819C11.1488 16.1415 9.91961 15.468 8.69691 14.7833C8.54347 14.6977 8.4363 14.7025 8.2861 14.7873C7.0699 15.4705 5.84883 16.1455 4.62776 16.8206C4.18285 17.066 3.73631 17.066 3.31738 16.7689C2.89845 16.4717 2.72227 16.0551 2.80346 15.5464C3.04215 14.0574 3.28572 12.5692 3.53172 11.081C3.55283 10.9534 3.51305 10.871 3.42536 10.7814C2.41782 9.75426 1.41595 8.72229 0.409221 7.69437C0.0219531 7.2987 -0.103077 6.84247 0.0885275 6.32245C0.276072 5.81373 0.671459 5.57552 1.19999 5.49962C2.56233 5.30259 3.92223 5.08942 5.28376 4.88674C5.4096 4.86817 5.46319 4.79872 5.5119 4.69456C6.12081 3.40258 6.73622 2.11383 7.34188 0.821046C7.51725 0.446372 7.7665 0.162137 8.17487 0.0466666C8.75537 -0.116446 9.32612 0.14518 9.59891 0.708805C10.0252 1.59058 10.4408 2.47801 10.8606 3.36301C11.0774 3.82005 11.2974 4.27466 11.506 4.73574C11.5539 4.84233 11.6294 4.86897 11.7244 4.88351C12.7401 5.03854 13.7566 5.19197 14.7722 5.347C15.1676 5.40757 15.563 5.46409 15.9568 5.53273C16.5787 5.64174 17.0017 6.14884 17 6.86911Z" fill="black"/>
</g>
<defs>
<clipPath id="clip0_88_28">
<rect width="17" height="17" fill="white"/>
</clipPath>
</defs>
</svg>
