<svg width="33" height="33" viewBox="0 0 33 33" fill="none" xmlns="http://www.w3.org/2000/svg">
<path d="M32.9941 13.32C32.9399 13.935 32.6582 14.5176 32.2032 14.9384C30.2529 16.9236 28.3134 18.9088 26.374 20.9048C26.1898 21.0559 26.1031 21.304 26.1573 21.5414C26.6449 24.4006 27.1108 27.2705 27.5658 30.1404C27.7609 31.0683 27.36 32.0286 26.5582 32.5572C25.8106 33.1075 24.803 33.1506 24.012 32.6543C21.6284 31.338 19.2447 30.0325 16.8719 28.6947C16.6335 28.5328 16.3085 28.5328 16.0809 28.7055C13.7189 30.0325 11.3569 31.3488 8.9841 32.6543C8.19316 33.1506 7.18552 33.1075 6.43791 32.5572C5.64697 32.0393 5.25692 31.1007 5.44111 30.1836C5.90701 27.2921 6.37291 24.4006 6.84964 21.509C6.89298 21.2933 6.81713 21.0667 6.64378 20.9264C4.69351 18.9304 2.74324 16.9236 0.792965 14.9276C0.0453613 14.2587 -0.20384 13.1905 0.175379 12.2627C0.511259 11.3456 1.35638 10.7198 2.33151 10.6658C4.97521 10.2882 7.61891 9.86744 10.2518 9.47903C10.4576 9.44666 10.631 9.3064 10.696 9.1122C11.877 6.5983 13.0688 4.0952 14.2498 1.59209C14.5315 0.869213 15.1275 0.318962 15.8642 0.0923875C16.9802 -0.23129 18.1612 0.318962 18.6271 1.37631C19.4506 3.0918 20.2632 4.81808 21.0758 6.53357C21.4983 7.41828 21.9209 8.303 22.3218 9.19851C22.3976 9.37114 22.5602 9.47903 22.7443 9.48982L28.6602 10.3853C29.4294 10.504 30.1987 10.6119 30.9571 10.7414C32.2032 10.9572 33.0808 12.0684 32.9941 13.32Z" fill="#FECA2B"/>
</svg>
