<svg width="27" height="27" viewBox="0 0 27 27" fill="none" xmlns="http://www.w3.org/2000/svg">
<g clip-path="url(#clip0_917_33)">
<path d="M12.4942 0C13.1448 0 13.7955 0 14.4461 0C14.4624 0.057081 14.5103 0.0465104 14.5519 0.0493292C15.2632 0.0930208 15.9632 0.21282 16.6568 0.372083C21.927 1.58206 26.0988 6.13937 26.8538 11.5029C26.8983 11.8172 26.8877 12.1406 27.0005 12.4444C27.0005 13.1653 27.0005 13.8855 27.0005 14.6064C26.93 14.6275 26.9504 14.6888 26.9462 14.7368C26.8983 15.235 26.8271 15.7304 26.7291 16.2209C25.169 23.9951 17.0784 28.7625 9.47771 26.3869C2.87945 24.3242 -1.05695 17.7113 0.248608 10.882C1.31166 5.32474 5.93467 0.926685 11.5249 0.145874C11.8484 0.100773 12.1812 0.112753 12.4942 0ZM1.57601 13.4894C1.56826 20.0594 6.88494 25.3876 13.474 25.4137C20.0455 25.4398 25.4094 20.0925 25.4179 13.5085C25.4263 6.92864 20.0772 1.57994 13.4931 1.58417C6.91454 1.5884 1.58377 6.91455 1.57601 13.4894Z" fill="white"/>
<path d="M13.4937 21.8922C10.1593 21.8873 7.09844 19.7978 5.8521 16.6753C5.67234 16.225 5.84646 15.7726 6.26661 15.5992C6.68393 15.4273 7.12452 15.6189 7.31768 16.0756C7.8915 17.4314 8.77761 18.5273 10.0331 19.306C13.2589 21.3066 17.392 20.2291 19.2918 16.8959C19.4476 16.6224 19.5766 16.3335 19.7106 16.0488C19.9143 15.6168 20.3422 15.4301 20.7511 15.6013C21.1698 15.7768 21.339 16.2229 21.1585 16.6767C19.915 19.807 16.8436 21.8972 13.4937 21.8922Z" fill="white"/>
<path d="M8.69165 13.3007C7.19435 13.2971 5.97974 12.0865 5.97269 10.5897C5.96564 9.0957 7.20563 7.85684 8.70504 7.86036C10.1946 7.86388 11.4163 9.08443 11.4247 10.5763C11.4332 12.0731 10.1981 13.3042 8.69165 13.3007ZM8.71068 11.7186C9.3409 11.713 9.85269 11.1943 9.84282 10.5714C9.83225 9.94628 9.30918 9.43608 8.68601 9.44242C8.06355 9.44876 7.54612 9.97658 7.55528 10.596C7.56515 11.2274 8.07694 11.7242 8.71068 11.7186Z" fill="white"/>
<path d="M18.2003 13.3005C16.6867 13.2934 15.4799 12.0722 15.4933 10.5592C15.506 9.06309 16.7283 7.85452 18.2228 7.86086C19.7243 7.86721 20.9446 9.10326 20.934 10.6078C20.9234 12.1004 19.6983 13.3068 18.2003 13.3005ZM18.1981 11.7184C18.8305 11.7233 19.343 11.2272 19.3514 10.6029C19.3599 9.96581 18.8446 9.44222 18.2108 9.44222C17.5848 9.44222 17.0773 9.9489 17.0745 10.5768C17.0723 11.211 17.5672 11.7135 18.1981 11.7184Z" fill="white"/>
</g>
<defs>
<clipPath id="clip0_917_33">
<rect width="27" height="27" fill="white"/>
</clipPath>
</defs>
</svg>
