<svg width="70" height="80" viewBox="0 0 70 80" fill="none" xmlns="http://www.w3.org/2000/svg">
<path d="M12.2584 23.5326L5.40182 16.1948L0 19.9931L5.40182 28.0024L12.2584 23.5326Z" fill="#FFD3C1"/>
<path d="M55.5883 26.2465L55.2535 21.595L39.7781 21.3693L39.6464 27.2098C39.6464 27.2098 32.0487 35.4503 29.2929 44.6927C24.6596 60.227 22.9798 80 22.9798 80H54.6496C54.3202 74.5283 52.0695 62.2858 52.0695 62.2858L59.1127 41.2303C60.8584 33.6613 55.5883 26.2465 55.5883 26.2465Z" fill="#FFCC66"/>
<path d="M17.2705 47.2689C17.2705 47.2689 17.3583 47.3515 17.534 47.5056C17.7042 47.6653 17.9732 47.8799 18.3355 48.1332C19.0601 48.6286 20.2294 49.2396 21.805 49.4708C22.5845 49.5919 23.4683 49.5919 24.3851 49.4433C25.3074 49.3387 26.29 49.2121 27.3221 49.0745C29.3862 48.7937 31.6534 48.4469 34.0249 48.0451C38.746 47.2139 43.0225 46.4597 46.1571 45.9093C47.6832 45.6615 48.9348 45.4524 49.8406 45.3037C50.2523 45.2377 50.5817 45.1826 50.8452 45.1441C51.0758 45.1056 51.1911 45.078 51.1911 45.078C51.1911 45.078 51.0703 45.0891 50.8397 45.1166C50.5762 45.1551 50.2469 45.1992 49.8351 45.2542C48.9623 45.3753 47.6997 45.568 46.1461 45.8212C43.0334 46.3166 38.746 47.1148 34.0084 47.924C31.6369 48.3258 29.3752 48.6781 27.3111 48.9644C26.279 49.1075 25.2964 49.2341 24.3741 49.3442C23.4573 49.4928 22.5955 49.4983 21.8214 49.3882C20.2624 49.168 19.0931 48.579 18.3629 48.1001C17.9951 47.8524 17.7261 47.6487 17.5505 47.4946C17.3693 47.3405 17.2705 47.2689 17.2705 47.2689Z" fill="#263238"/>
<path d="M56.5599 39.7605C56.5653 39.7605 56.5763 39.7165 56.5928 39.6394C56.6148 39.5238 56.6422 39.4082 56.6642 39.2816C56.7245 38.9679 56.8069 38.5165 56.8837 37.9495C57.032 36.832 57.1912 35.2247 56.7685 33.5182C56.3348 31.8117 55.2698 30.5071 54.3091 29.8961C53.826 29.5823 53.3923 29.4117 53.0849 29.3401C52.7775 29.2631 52.6018 29.2521 52.6018 29.2521C52.5853 29.2906 53.3264 29.3346 54.2652 29.9677C55.1984 30.5842 56.236 31.8723 56.6587 33.5512C57.0759 35.2302 56.9331 36.8265 56.8069 37.944C56.741 38.5055 56.6696 38.9624 56.6257 39.2761C56.6093 39.4027 56.5928 39.5238 56.5763 39.6394C56.5599 39.7165 56.5599 39.7605 56.5599 39.7605Z" fill="#263238"/>
<path d="M23.6165 43.5533C23.622 43.5533 23.6165 43.4267 23.5946 43.2065C23.5671 42.9148 23.5397 42.601 23.5067 42.2652C23.4409 41.467 23.386 40.3606 23.4134 39.1441C23.4464 37.922 23.5562 36.8211 23.6605 36.0284C23.7099 35.6926 23.7538 35.3843 23.7977 35.0926C23.8306 34.8724 23.8471 34.7458 23.8361 34.7458C23.8306 34.7458 23.7977 34.8669 23.7483 35.0816C23.6989 35.3018 23.6385 35.621 23.5781 36.0174C23.4519 36.8101 23.3256 37.9165 23.2927 39.1386C23.2652 40.3661 23.3311 41.4726 23.4189 42.2707C23.4628 42.6671 23.5068 42.9919 23.5452 43.212C23.5836 43.4322 23.6111 43.5533 23.6165 43.5533Z" fill="#263238"/>
<path d="M39.8329 27.1272C40.1568 26.0263 40.8485 25.0795 41.5237 24.1602C42.6326 22.6574 43.8294 21.083 45.5586 20.3729C46.7334 19.8885 49.7692 20.1583 50.5816 19.1729C53.1069 16.1068 49.4068 14.1967 50.7518 9.98004C52.223 5.35609 51.4655 6.06619 51.5753 2.43308L57.1857 0C58.0695 0.660565 60.5179 3.04961 60.2489 4.11752C59.9799 5.19094 60.0568 6.37996 60.463 7.65705C61.3249 10.3654 64.3003 11.9672 65.7056 14.4334C67.1494 16.9655 65.5245 20.3179 65.486 23.2299C65.4476 26.1419 66.5455 29.6484 69.3837 30.2814C68.3242 32.4172 66.551 34.1898 64.4101 35.2357C63.8172 34.4265 63.2243 33.6173 62.6314 32.8081C62.9828 35.0045 61.4896 37.3495 59.3541 37.955C58.7557 35.3953 58.1244 32.764 56.5818 30.6447C55.0392 28.5254 52.3273 27.0281 49.7966 27.7052C48.1058 28.1621 46.7938 29.4667 45.2841 30.3585C43.7745 31.2447 41.628 31.6246 40.4203 30.353C39.6243 29.5273 39.509 28.2227 39.8329 27.1272Z" fill="#263238"/>
<g opacity="0.3">
<path d="M29.2927 48.7056C36.5884 47.368 46.3161 45.7716 53.6118 44.4395C53.8863 44.39 54.1718 44.3404 54.4298 44.445C54.9129 44.6377 55.0556 45.3092 54.836 45.7826C54.6164 46.2561 54.1553 46.5643 53.6942 46.8065C51.3007 48.0616 48.49 48.1607 45.7891 48.2377C41.1778 48.3644 33.904 48.579 29.2927 48.7056Z" fill="black"/>
</g>
<path d="M23.9624 49.4324C26.2296 49.4764 52.3604 44.6928 52.3604 44.6928L23.9624 49.4324Z" fill="#FF725E"/>
<path d="M51.9156 28.3328C53.8315 28.5695 55.0776 28.9053 57.3174 31.3054C57.559 31.5641 57.7785 31.8834 57.9871 32.2467C60.4795 36.6504 58.6734 42.7331 53.9028 44.3846L49.2805 45.3369L23.9623 49.4324C23.9623 49.4324 18.5659 50.6489 13.9382 43.4377C12.2419 40.7955 0.543404 23.296 0.543404 23.296L8.22892 18.1381L23.7207 34.7568L51.9156 28.3328Z" fill="#FFCC66"/>
<path d="M17.2703 47.269C17.2703 47.269 17.3581 47.3516 17.5338 47.5057C17.7039 47.6654 17.9729 47.8801 18.3353 48.1333C19.0599 48.6287 20.2292 49.2397 21.8047 49.4709C22.5842 49.592 23.4681 49.592 24.3848 49.4434C25.3071 49.3388 26.2898 49.2122 27.3218 49.0746C29.3859 48.7938 31.6531 48.4471 34.0247 48.0452C38.7458 47.214 43.0222 46.4599 46.1568 45.9094C47.6829 45.6617 48.9346 45.4525 49.8404 45.3039C50.2521 45.2378 50.5815 45.1828 50.845 45.1442C51.0755 45.1057 51.1908 45.0782 51.1908 45.0782C51.1908 45.0782 51.07 45.0892 50.8395 45.1167C50.576 45.1552 50.2466 45.1993 49.8349 45.2543C48.962 45.3754 47.6994 45.5681 46.1458 45.8213C43.0332 46.3167 38.7458 47.1149 34.0082 47.9241C31.6367 48.326 29.3749 48.6783 27.3108 48.9645C26.2788 49.1076 25.2961 49.2342 24.3739 49.3443C23.4571 49.493 22.5952 49.4985 21.8212 49.3884C20.2621 49.1682 19.0928 48.5792 18.3627 48.1003C17.9949 47.8525 17.7259 47.6489 17.5502 47.4947C17.3691 47.3406 17.2703 47.269 17.2703 47.269Z" fill="#263238"/>
<path d="M56.5599 39.7605C56.5653 39.7605 56.5763 39.7165 56.5928 39.6394C56.6148 39.5238 56.6422 39.4082 56.6642 39.2816C56.7245 38.9679 56.8069 38.5165 56.8837 37.9495C57.032 36.832 57.1912 35.2247 56.7685 33.5182C56.3348 31.8117 55.2698 30.5071 54.3091 29.8961C53.826 29.5823 53.3923 29.4117 53.0849 29.3401C52.7775 29.2631 52.6018 29.2521 52.6018 29.2521C52.5853 29.2906 53.3264 29.3346 54.2652 29.9677C55.1984 30.5842 56.236 31.8723 56.6587 33.5512C57.0759 35.2302 56.9331 36.8265 56.8069 37.944C56.741 38.5055 56.6696 38.9624 56.6257 39.2761C56.6093 39.4027 56.5928 39.5238 56.5763 39.6394C56.5599 39.7165 56.5599 39.7605 56.5599 39.7605Z" fill="#263238"/>
<path d="M23.6163 43.5533C23.6218 43.5533 23.6163 43.4267 23.5943 43.2065C23.5669 42.9148 23.5394 42.601 23.5065 42.2652C23.4406 41.467 23.3857 40.3606 23.4132 39.1441C23.4461 37.922 23.5559 36.8211 23.6602 36.0284C23.7096 35.6926 23.7535 35.3843 23.7975 35.0926C23.8304 34.8724 23.8469 34.7458 23.8359 34.7458C23.8304 34.7458 23.7975 34.8669 23.748 35.0816C23.6986 35.3018 23.6383 35.621 23.5779 36.0174C23.4516 36.8101 23.3254 37.9165 23.2924 39.1386C23.265 40.3661 23.3308 41.4726 23.4187 42.2707C23.4626 42.6671 23.5065 42.9919 23.5449 43.212C23.5834 43.4322 23.6108 43.5533 23.6163 43.5533Z" fill="#263238"/>
</svg>
