<svg width="11" height="12" viewBox="0 0 11 12" fill="none" xmlns="http://www.w3.org/2000/svg">
<path d="M10.2146 5.20205C10.9039 5.61054 10.8925 6.61206 10.1941 7.00479L1.55105 11.8648C0.852623 12.2575 -0.00903275 11.7469 7.05625e-05 10.9457L0.112724 1.03057C0.121827 0.229353 0.994862 -0.261553 1.68419 0.14694L10.2146 5.20205Z" fill="black"/>
<path d="M10.2146 5.20205C10.9039 5.61054 10.8925 6.61206 10.1941 7.00479L1.55105 11.8648C0.852623 12.2575 -0.00903275 11.7469 7.05625e-05 10.9457L0.112724 1.03057C0.121827 0.229353 0.994862 -0.261553 1.68419 0.14694L10.2146 5.20205Z" fill="black"/>
<path d="M10.2146 5.20205C10.9039 5.61054 10.8925 6.61206 10.1941 7.00479L1.55105 11.8648C0.852623 12.2575 -0.00903275 11.7469 7.05625e-05 10.9457L0.112724 1.03057C0.121827 0.229353 0.994862 -0.261553 1.68419 0.14694L10.2146 5.20205Z" fill="black"/>
<path d="M10.2146 5.20205C10.9039 5.61054 10.8925 6.61206 10.1941 7.00479L1.55105 11.8648C0.852623 12.2575 -0.00903275 11.7469 7.05625e-05 10.9457L0.112724 1.03057C0.121827 0.229353 0.994862 -0.261553 1.68419 0.14694L10.2146 5.20205Z" fill="black"/>
</svg>
