<svg width="22" height="22" viewBox="0 0 22 22" fill="none" xmlns="http://www.w3.org/2000/svg">
<path d="M22.0002 8.89052C21.9916 9.23754 21.807 9.6318 21.4759 9.96898C20.1778 11.2921 18.8844 12.6199 17.5844 13.9411C17.4598 14.0677 17.411 14.1766 17.4433 14.3668C17.7658 16.2751 18.0804 18.1848 18.3812 20.0963C18.4848 20.755 18.2697 21.3159 17.7117 21.7049C17.1683 22.084 16.5931 22.086 16.0154 21.7665C14.4278 20.8901 12.8369 20.0183 11.2546 19.1327C11.0568 19.0218 10.9176 19.0284 10.723 19.1379C9.14931 20.0222 7.569 20.896 5.98869 21.7685C5.41289 22.0867 4.83512 22.0867 4.29296 21.7016C3.7508 21.3165 3.52259 20.7773 3.62746 20.12C3.93614 18.1926 4.25207 16.2673 4.56997 14.3412C4.59702 14.1766 4.54557 14.069 4.43213 13.9542C3.12883 12.6251 1.83213 11.2889 0.5295 9.95915C0.0282328 9.44746 -0.13336 8.85641 0.114635 8.18335C0.357354 7.52472 0.869174 7.21706 1.55314 7.11866C3.31615 6.86413 5.07586 6.5873 6.83821 6.32555C7.00112 6.30128 7.07103 6.21141 7.13369 6.07758C7.92187 4.40609 8.71862 2.73853 9.50218 1.06442C9.72907 0.57963 10.0516 0.211613 10.5806 0.0620447C11.3311 -0.149188 12.0705 0.189309 12.4234 0.919439C12.9748 2.06088 13.513 3.20823 14.0558 4.35361C14.3361 4.94467 14.6217 5.53376 14.8908 6.12941C14.9528 6.26717 15.0504 6.30193 15.1737 6.3203C16.4883 6.52104 17.8034 6.71981 19.1179 6.92054C19.6291 6.99861 20.1409 7.07208 20.6507 7.16064C21.4548 7.30168 22.0022 7.95834 22.0002 8.89052Z" fill="#FECA2B"/>
</svg>
