<svg width="17" height="23" viewBox="0 0 17 23" fill="none" xmlns="http://www.w3.org/2000/svg">
<g clip-path="url(#clip0_93_141)">
<path d="M0.00139484 12.0378C0.00139484 9.21779 -0.00193067 6.3978 0.00272504 3.57708C0.00472034 1.9641 0.949165 0.592523 2.35452 0.141613C2.64983 0.0466468 2.95179 0.000250972 3.26106 0.000975907C6.75284 0.00242578 10.244 -0.00192383 13.7357 0.00315071C15.5348 0.00605045 16.9868 1.55379 16.9914 3.52271C17.0047 9.20837 17.0007 14.8933 16.9941 20.579C16.9921 21.9781 16.0071 23.0408 14.7839 22.9988C14.2465 22.9807 13.7969 22.7335 13.4039 22.342C12.2479 21.1886 11.0873 20.0411 9.9287 18.8906C9.52432 18.489 9.11063 18.0968 8.71955 17.6807C8.5546 17.5052 8.46282 17.498 8.28657 17.6749C6.74287 19.2233 5.18719 20.7573 3.63817 22.2992C3.05288 22.8821 2.38246 23.1271 1.60229 22.9162C0.641223 22.6559 0.00339014 21.6983 0.00272504 20.5253C-0.00060047 17.6959 0.00139484 14.8672 0.00139484 12.0378Z" fill="#FFCC66"/>
</g>
<defs>
<clipPath id="clip0_93_141">
<rect width="17" height="23" fill="white"/>
</clipPath>
</defs>
</svg>
