<svg width="20" height="23" viewBox="0 0 20 23" fill="none" xmlns="http://www.w3.org/2000/svg">
<g clip-path="url(#clip0_467_119)">
<path d="M20 11.4933C20 14.1535 20.0018 16.8119 20 19.4721C19.9982 21.2517 18.8839 22.6394 17.1954 22.9571C16.9837 22.9961 16.763 22.9979 16.5476 22.9998C12.1819 23.0017 7.81805 23.0035 3.45236 23.0017C1.4319 22.9979 0 21.5118 0 19.4182C0 14.1256 0 8.83309 0 3.54055C0.00179437 1.74231 1.1161 0.352759 2.81715 0.0388105C3.01992 0.00165679 3.23165 0.00165679 3.4398 0.00165679C7.81446 -0.000200896 12.1873 -0.00205858 16.562 0.00165679C18.5663 0.00351447 20 1.49338 20.0018 3.56841C20 6.21004 20 8.85167 20 11.4933ZM10 16.6762C8.56092 16.6762 7.12184 16.6762 5.68096 16.6781C5.56074 16.6781 5.43693 16.68 5.32029 16.706C4.77481 16.8341 4.3962 17.3599 4.44644 17.9079C4.50565 18.5469 4.97398 18.9798 5.63072 18.9816C8.54477 18.9853 11.4588 18.9835 14.3711 18.9835C14.52 18.9835 14.6654 18.9649 14.8053 18.9148C15.3113 18.7346 15.6253 18.2014 15.541 17.6682C15.4495 17.0868 15.0153 16.6837 14.4482 16.6818C12.9643 16.6725 11.4821 16.6762 10 16.6762ZM9.98565 10.5384C11.4355 10.5384 12.8853 10.5384 14.3352 10.5384C14.4734 10.5384 14.6115 10.5422 14.7479 10.4994C15.2736 10.336 15.62 9.80652 15.5482 9.26593C15.4638 8.63804 15.0278 8.24792 14.3765 8.24606C11.4606 8.24235 8.54297 8.24421 5.62713 8.24421C5.44411 8.24421 5.26467 8.26464 5.096 8.34638C4.6187 8.57673 4.36749 9.09688 4.47694 9.63747C4.58281 10.1576 5.00987 10.531 5.53562 10.5329C7.01776 10.5422 8.5017 10.5384 9.98565 10.5384ZM9.99821 12.4612C8.53041 12.4612 7.06442 12.463 5.59663 12.4593C5.14804 12.4574 4.80531 12.6451 4.5864 13.0463C4.16831 13.8117 4.70842 14.7684 5.66481 14.761C8.55554 14.7368 11.4463 14.7535 14.3352 14.7498C14.4734 14.7498 14.6151 14.7424 14.7461 14.7052C15.2611 14.5585 15.6092 14.0272 15.55 13.5015C15.4818 12.9014 15.0458 12.4649 14.4769 12.463C12.984 12.4556 11.4911 12.4612 9.99821 12.4612ZM7.75525 6.32336C8.47479 6.32336 9.19612 6.32522 9.91566 6.32336C10.6101 6.3215 11.1017 5.84965 11.1053 5.18274C11.1089 4.51212 10.6262 4.02355 9.93361 4.01983C8.49273 4.01426 7.05365 4.01426 5.61278 4.01983C4.93451 4.02355 4.4267 4.53998 4.44105 5.19017C4.45541 5.84222 4.94886 6.31964 5.61995 6.32336C6.33232 6.32522 7.04289 6.32336 7.75525 6.32336Z" fill="#FFCC66"/>
</g>
<defs>
<clipPath id="clip0_467_119">
<rect width="20" height="23" fill="white"/>
</clipPath>
</defs>
</svg>
