<svg width="28" height="28" viewBox="0 0 28 28" fill="none" xmlns="http://www.w3.org/2000/svg">
<g clip-path="url(#clip0_472_181)">
<path d="M0 7.53871C0.114404 7.39531 0.0799014 7.2156 0.123484 7.05586C0.270575 6.5004 0.519359 5.99758 0.92613 5.58734C1.66522 4.84309 2.40249 4.09703 3.15611 3.3673C3.77534 2.76646 4.49082 2.49417 5.34795 2.82636C5.67663 2.95343 5.94902 3.16581 6.19599 3.41268C7.26195 4.4746 8.32609 5.53832 9.3866 6.60568C9.88417 7.1085 10.2328 7.67849 10.1275 8.42818C10.0512 8.98001 9.73708 9.39933 9.35936 9.7769C8.74739 10.3904 8.13179 11.0004 7.518 11.6121C7.17478 11.9534 7.17297 12.0205 7.37635 12.4725C8.07912 14.0427 9.15598 15.346 10.3073 16.5949C11.4604 17.8456 12.7388 18.9565 14.1734 19.8769C14.6637 20.1909 15.194 20.436 15.7097 20.7064C15.9494 20.8317 16.1256 20.7373 16.2926 20.5685C16.9355 19.9222 17.5783 19.276 18.2248 18.6316C18.4899 18.3666 18.775 18.1252 19.1309 17.9872C19.8319 17.7149 20.4693 17.8529 21.0486 18.3049C21.1993 18.4229 21.3409 18.5536 21.4753 18.6879C22.5031 19.7099 23.5292 20.7355 24.5552 21.7593C24.8947 22.0987 25.1798 22.4745 25.2852 22.9537C25.4159 23.5545 25.2725 24.1118 24.8766 24.562C24.0739 25.4696 23.2041 26.3191 22.3252 27.1523C21.8113 27.6388 21.1593 27.8857 20.4493 27.951C20.4112 27.9547 20.3785 27.9565 20.364 27.9982C19.9445 27.9982 19.525 27.9982 19.1055 27.9982C19.0837 27.9238 19.0202 27.9474 18.9711 27.9401C18.2393 27.8476 17.5184 27.7023 16.8174 27.4664C14.0972 26.5515 11.662 25.112 9.41747 23.3512C6.76257 21.2691 4.55438 18.7732 2.77657 15.9069C1.65251 14.1099 0.755432 12.2093 0.245152 10.1418C0.152539 9.76964 0.0817174 9.39025 0 9.01631C0 8.52438 0 8.03064 0 7.53871Z" fill="#FFCC66"/>
<path d="M14.6111 0.0219677C16.7975 0.34871 18.8477 1.09659 20.7362 2.28557C22.8046 3.5889 24.4898 5.27889 25.7954 7.34099C26.8959 9.07999 27.6168 10.9733 27.9964 12.9973C28.0182 13.1098 27.9873 13.1461 27.8892 13.1625C27.2609 13.2677 26.6326 13.3712 26.0061 13.4856C25.8427 13.5146 25.8499 13.4148 25.8318 13.3167C25.6556 12.3946 25.4014 11.4961 25.0436 10.6284C24.1557 8.4737 22.81 6.65665 21.0141 5.1736C19.3452 3.79584 17.4494 2.87007 15.3411 2.37814C15.0142 2.3019 14.6819 2.23655 14.3496 2.19299C14.1861 2.17121 14.1589 2.10767 14.1789 1.96427C14.2697 1.35253 14.3586 0.738986 14.4422 0.127251C14.4549 0.0183373 14.4821 -0.0306741 14.6111 0.0219677Z" fill="#FFCC66"/>
<path d="M13.8847 7.62951C13.9755 6.98329 14.0681 6.37155 14.1462 5.75801C14.1698 5.5783 14.2606 5.6019 14.3859 5.62368C16.4633 5.97039 18.2448 6.89071 19.7175 8.39373C21.0649 9.76786 21.9257 11.4034 22.2998 13.293C22.3306 13.4528 22.3234 13.52 22.149 13.5454C21.5734 13.6343 20.9977 13.7233 20.4275 13.8376C20.2151 13.8794 20.1769 13.8049 20.1352 13.6234C19.5359 11.0004 17.9778 9.18698 15.4918 8.16864C15.0287 7.97804 14.5421 7.86005 14.0463 7.77836C13.9373 7.76021 13.8411 7.74387 13.8847 7.62951Z" fill="#FFCC66"/>
</g>
<defs>
<clipPath id="clip0_472_181">
<rect width="28" height="28" fill="white"/>
</clipPath>
</defs>
</svg>
