<svg width="26" height="15" viewBox="0 0 26 15" fill="none" xmlns="http://www.w3.org/2000/svg">
<path d="M25.8105 11.4965C25.634 11.7593 25.3834 11.8212 25.0768 11.8165C24.1033 11.8024 23.1298 11.8125 22.1556 11.8105C21.8309 11.8098 21.5715 11.6191 21.4873 11.3092C20.8958 9.11697 20.0907 6.99748 19.2681 4.8854C18.9953 4.18407 18.7197 3.48409 18.3498 2.82453C18.1902 2.54022 18.3485 2.2384 18.7083 2.10703C19.8381 1.69472 21.0043 1.43062 22.194 1.26691C23.1594 1.13419 24.1296 1.07558 25.1044 1.05739C25.4184 1.05132 25.6569 1.1315 25.8098 1.41378C25.8105 4.77559 25.8105 8.13605 25.8105 11.4965Z" fill="#FFCC66"/>
<path d="M13.1884 14.9749C12.5666 15.0658 12.0303 14.9048 11.5668 14.5686C9.88049 13.3465 8.23259 12.0746 6.63859 10.7346C6.28692 10.4388 5.99386 10.0737 5.66778 9.74691C5.59098 9.66944 5.61255 9.6061 5.64084 9.52324C6.24314 7.73454 6.71742 5.91149 7.12973 4.07091C7.18093 3.84185 7.22473 3.61144 7.27526 3.3817C7.2948 3.29345 7.30558 3.21126 7.44167 3.21261C8.09516 3.22069 8.74866 3.21597 9.44123 3.21597C9.29638 3.3871 9.16973 3.52655 9.0552 3.67477C8.51758 4.37206 8.06148 5.10842 7.94425 6.00648C7.84858 6.7388 8.22855 7.29056 8.92786 7.51895C10.1419 7.91509 11.0945 7.5102 11.8976 6.60675C11.9932 6.49963 12.0849 6.43832 12.2311 6.42283C12.4978 6.39453 12.7498 6.31503 12.9715 6.14795C13.1177 6.03747 13.2524 6.01389 13.4262 6.15941C15.0566 7.52098 16.751 8.80507 18.3335 10.2246C18.7027 10.556 19.045 10.9144 19.3171 11.3335C19.4182 11.4884 19.5078 11.6501 19.5449 11.8341C19.6264 12.239 19.3448 12.5893 18.9318 12.6102C18.7795 12.6176 18.6825 12.5415 18.5841 12.4424C17.6174 11.4723 16.6479 10.5055 15.6811 9.53604C15.5275 9.38176 15.3645 9.24971 15.1307 9.2989C14.9192 9.34336 14.7723 9.47136 14.7049 9.68358C14.6348 9.90523 14.7198 10.0784 14.8707 10.2293C15.5767 10.9374 16.2841 11.6434 16.9908 12.3508C17.2401 12.6001 17.4853 12.8547 17.742 13.0966C17.8458 13.1943 17.8404 13.2576 17.7514 13.3634C17.4779 13.6888 17.1249 13.7568 16.7294 13.7117C16.6028 13.6969 16.5233 13.6079 16.4404 13.5244C15.609 12.6924 14.777 11.8617 13.9463 11.0283C13.7846 10.8659 13.6095 10.7453 13.3663 10.8141C12.9391 10.9353 12.8327 11.4137 13.1648 11.7485C13.8325 12.4229 14.5068 13.0919 15.1779 13.7629C15.2493 13.8343 15.3119 13.9185 15.3941 13.9738C15.6286 14.1314 15.5639 14.3059 15.4602 14.5087C15.2702 14.8812 14.6018 14.9486 14.329 14.6535C13.6843 13.9576 12.9944 13.3041 12.324 12.6317C12.1684 12.4754 11.9966 12.3636 11.7649 12.4236C11.3458 12.532 11.2151 13.0137 11.527 13.3344C12.0135 13.8343 12.5106 14.3227 13.0045 14.8152C13.0611 14.8732 13.1264 14.9217 13.1884 14.9749Z" fill="#FFCC66"/>
<path d="M0.000657919 5.37182C0.000657919 3.81757 0.000657919 2.26332 0.000657919 0.709075C0.000657919 0.164044 0.2048 -0.0400894 0.749831 0.00639654C2.24614 0.134401 3.74717 0.23411 5.20036 0.654505C5.53991 0.752866 5.85992 0.888284 6.15568 1.0904C6.41371 1.26624 6.47973 1.48721 6.44268 1.78229C6.33354 2.6406 6.16983 3.48745 5.97445 4.32959C5.52307 6.28133 4.91942 8.19129 4.37439 10.1174C4.22146 10.6584 4.1204 10.7406 3.54775 10.7406C2.58165 10.7406 1.61555 10.7413 0.649449 10.7406C0.16842 10.7399 0.00067371 10.5702 0 10.0851C0 8.514 0.000657919 6.94291 0.000657919 5.37182Z" fill="#FFCC66"/>
<path d="M20.2875 10.5244C20.2275 10.5365 20.1952 10.4961 20.1628 10.4577C19.1401 9.24097 17.8978 8.2641 16.6804 7.25825C15.8127 6.54209 14.9705 5.79562 14.1156 5.0633C13.8468 4.83289 13.5342 4.76552 13.2034 4.87938C12.9191 4.97707 12.6483 5.11181 12.3714 5.23038C12.2009 5.30314 12.0278 5.35771 11.8378 5.36108C11.6188 5.36445 11.4612 5.48235 11.3426 5.66088C11.2119 5.8576 11.063 6.03816 10.8872 6.19648C10.4237 6.61283 9.90762 6.66336 9.34305 6.43363C9.17732 6.36626 9.11399 6.25712 9.12477 6.08397C9.14364 5.7835 9.25345 5.50997 9.39291 5.25261C10.0316 4.07834 10.9727 3.19443 12.1127 2.52409C12.8463 2.09224 13.6204 2.20003 14.373 2.48636C15.4597 2.90069 16.5282 3.3642 17.6391 3.71453C17.7772 3.75832 17.8062 3.86949 17.8534 3.97055C18.3883 5.11787 18.812 6.30966 19.2473 7.49606C19.5962 8.44667 19.9277 9.40468 20.2639 10.36C20.2834 10.4105 20.336 10.4624 20.2875 10.5244Z" fill="#FFCC66"/>
</svg>
