<svg width="83" height="74" viewBox="0 0 83 74" fill="none" xmlns="http://www.w3.org/2000/svg">
<path d="M0 31.1881C5.53043 31.1795 11.0609 31.173 16.5913 31.1493C17.0527 31.1472 17.0982 31.3195 17.0874 31.718C16.9552 35.8303 13.8163 39.3265 9.73728 39.8715C5.56509 40.4294 1.52504 37.8552 0.355264 33.8894C0.25995 33.5706 0.283778 33.2087 0 32.961C0 32.3707 0 31.7784 0 31.1881Z" fill="#FFCC66"/>
<path d="M19.5547 39.1456C21.5845 41.8555 24.1688 43.721 27.4745 44.4103C32.9378 45.552 37.4696 43.9213 41.0504 39.669C41.3212 39.348 41.4403 39.0271 41.8909 39.5871C47.547 46.6032 57.6612 46.5214 63.2024 39.4407C63.2674 39.3567 63.3389 39.277 63.4515 39.1412C64.1989 40.0309 64.9159 40.9163 65.8084 41.6379C69.2268 44.4038 73.0913 45.3517 77.3978 44.4275C78.0131 44.2961 78.1452 44.3823 78.1452 45.0242C78.1235 54.1018 78.1235 63.1794 78.1452 72.257C78.1474 72.8558 78.0109 73.0023 77.4 73.0023C53.4716 72.9851 29.5411 72.9851 5.61274 73.0001C5.03652 73.0001 4.84589 72.9075 4.84806 72.2742C4.87405 63.1686 4.86539 54.0652 4.86322 44.9596C4.86322 44.5697 4.78957 44.2638 5.42211 44.3931C11.1258 45.5671 15.7768 43.8394 19.3814 39.3006C19.4139 39.2619 19.4594 39.2296 19.5547 39.1456Z" fill="#FFCC66"/>
<path d="M39.0639 13.2203C39.0639 17.3563 39.0531 21.4901 39.0769 25.6261C39.0813 26.184 38.9426 26.3391 38.3686 26.337C33.293 26.3133 28.2154 26.3111 23.1398 26.337C22.5181 26.3391 22.4423 26.1323 22.5355 25.6045C23.6446 19.3489 24.7407 13.0889 25.8412 6.83114C26.1943 4.82348 26.5842 2.82443 26.8831 0.808144C26.9806 0.144666 27.234 0.00249212 27.8623 0.00895456C31.3174 0.0391126 34.7748 0.0520375 38.2299 0.00033797C38.9903 -0.0104328 39.0813 0.23514 39.0769 0.89431C39.0488 5.00442 39.0639 9.11239 39.0639 13.2203Z" fill="#FFCC66"/>
<path d="M43.9272 13.1083C43.9272 9.00034 43.9445 4.89238 43.9099 0.784418C43.9055 0.133865 44.0983 0.00677034 44.7092 0.0110786C48.1925 0.0390826 51.6759 0.0433909 55.1592 0.00892449C55.8242 0.00246204 55.9997 0.226494 56.1058 0.84258C57.5182 9.00465 58.9588 17.1624 60.3993 25.3202C60.577 26.324 60.5921 26.3218 59.5762 26.3218C54.6068 26.3218 49.6396 26.3111 44.6724 26.3369C44.0745 26.3391 43.9099 26.2055 43.9142 25.5937C43.9423 21.4319 43.9272 17.2701 43.9272 13.1083Z" fill="#FFCC66"/>
<path d="M9.28021 26.3218C6.76953 26.3218 4.25885 26.3089 1.75033 26.3304C1.18927 26.3347 0.989979 26.2874 1.21743 25.6433C4.17436 17.2938 7.10746 8.93354 10.0297 0.571134C10.1814 0.135996 10.3893 0.0132098 10.8356 0.0153639C14.3709 0.0325971 17.9084 0.0390596 21.4437 0.0110557C22.0394 0.00674735 22.0936 0.202775 22.0047 0.706846C20.5425 8.96585 19.089 17.227 17.6549 25.4903C17.5466 26.115 17.3581 26.3606 16.6498 26.3434C14.1933 26.2874 11.7367 26.3218 9.28021 26.3218Z" fill="#FFCC66"/>
<path d="M73.713 26.3218C71.2024 26.3218 68.6917 26.3003 66.1832 26.3369C65.6243 26.3455 65.4553 26.1409 65.3708 25.6497C64.5 20.6069 63.614 15.564 62.7302 10.5233C62.1604 7.27699 61.5994 4.02853 61.0037 0.786537C60.8975 0.211379 60.9473 0.000272821 61.6275 0.00673527C65.1087 0.0433558 68.592 0.032585 72.0732 0.0131977C72.5714 0.0110436 72.8119 0.127368 72.9917 0.642209C75.8879 8.95722 78.8037 17.2658 81.7476 25.5636C81.9989 26.2723 81.8018 26.339 81.1649 26.3326C78.6802 26.3067 76.1955 26.3218 73.713 26.3218Z" fill="#FFCC66"/>
<path d="M52.4752 31.1578C55.0942 31.1578 57.7132 31.1729 60.33 31.1449C60.8932 31.1384 61.0448 31.2677 61.008 31.8515C60.7372 36.3989 57.1109 39.8821 52.5488 39.9295C48.0972 39.9769 44.3279 36.5734 43.9488 32.1638C43.8622 31.1578 43.8622 31.1557 44.8608 31.1557C47.3996 31.1578 49.9363 31.1578 52.4752 31.1578Z" fill="#FFCC66"/>
<path d="M30.5116 31.1579C33.0764 31.1579 35.6413 31.1837 38.2039 31.1406C38.8971 31.1299 39.1116 31.2613 39.0639 32.0001C38.7758 36.4765 34.9199 40.0179 30.3643 39.9296C25.787 39.8412 22.0849 36.1921 21.9701 31.6964C21.9571 31.1665 22.1759 31.1514 22.5766 31.1536C25.2216 31.1643 27.8666 31.1579 30.5116 31.1579Z" fill="#FFCC66"/>
<path d="M74.4994 31.158C77.1184 31.158 79.7374 31.1666 82.3542 31.1494C82.8005 31.1473 83.0084 31.1817 82.9998 31.7375C82.9304 36.2203 79.0225 39.962 74.3954 39.9319C69.7662 39.9017 65.9016 36.1147 65.8951 31.6362C65.8951 31.1236 66.1399 31.1537 66.4821 31.1537C69.1531 31.1602 71.8263 31.158 74.4994 31.158Z" fill="#FFCC66"/>
</svg>
