<svg width="82" height="75" viewBox="0 0 82 75" fill="none" xmlns="http://www.w3.org/2000/svg">
<path d="M0 51.7812C0.644918 50.3609 0.966573 48.8347 1.41528 47.3534C3.6926 39.8329 5.93453 32.3011 8.19094 24.7742C8.24884 24.5816 8.32443 24.3939 8.52707 24.2205C8.52707 24.4934 8.52707 24.7678 8.52707 25.0406C8.52707 32.2032 8.47882 39.3675 8.54315 46.5285C8.58979 51.64 10.8253 55.5752 15.3172 58.127C17.3308 59.2696 19.5373 59.6644 21.85 59.6612C37.8604 59.6436 53.8708 59.6516 69.8811 59.6516C70.2012 59.6516 70.5212 59.6516 70.9506 59.6516C70.4746 61.157 70.0114 62.611 69.5546 64.0666C68.9901 65.8657 68.4369 67.6664 67.8708 69.4639C66.5649 73.6157 62.5715 75.8321 58.3675 74.7102C42.4327 70.4589 26.4995 66.1963 10.5664 61.937C8.86963 61.4828 7.15843 61.08 5.48421 60.5552C2.82735 59.7222 1.11132 57.9199 0.294314 55.259C0.231592 55.0536 0.284665 54.7647 0 54.6588C0 53.6991 0 52.7394 0 51.7812Z" fill="#FFCC66"/>
<path d="M47.8414 54.5368C39.4076 54.5368 30.9739 54.5432 22.5401 54.5336C18.1623 54.5288 14.8332 51.9449 13.8715 47.8364C13.701 47.1078 13.6527 46.3631 13.6527 45.6169C13.6527 33.3925 13.6463 21.168 13.6543 8.94363C13.6576 3.66837 17.3341 0.00120366 22.6028 0.00120366C39.4173 -0.000401221 56.2302 -0.000401221 73.0447 0.00120366C78.3295 0.00120366 81.9947 3.65392 81.9964 8.92758C81.9996 21.205 82.0028 33.4823 81.9947 45.7597C81.9915 50.21 79.1192 53.6782 74.8154 54.4261C74.1641 54.54 73.487 54.532 72.8212 54.532C64.4951 54.54 56.1675 54.5368 47.8414 54.5368ZM75.1515 32.7072C75.1515 32.2995 75.1515 32.0973 75.1515 31.8951C75.1515 24.2526 75.1531 16.6102 75.1499 8.9693C75.1499 7.36602 74.6031 6.8332 72.9739 6.8332C56.2173 6.8316 39.4591 6.8316 22.7025 6.8332C21.0379 6.8332 20.4992 7.37244 20.4992 9.0319C20.4992 19.3096 20.4992 29.5889 20.4992 39.8666C20.4992 40.0912 20.4992 40.3175 20.4992 40.5422C20.5683 40.5823 20.6391 40.6209 20.7082 40.661C20.8803 40.4331 21.0283 40.1811 21.2277 39.9805C24.0341 37.1704 26.8438 34.3634 29.6599 31.5629C32.3827 28.8554 35.9161 28.8554 38.6614 31.5565C39.7438 32.6221 40.8599 33.6589 41.8763 34.7855C42.436 35.405 42.6966 35.283 43.1549 34.6988C44.2904 33.2544 45.495 31.8646 46.6722 30.4523C49.4722 27.0997 52.269 23.7423 55.0771 20.3961C56.6435 18.528 58.6201 17.732 61.0486 18.2167C62.4896 18.5039 63.6299 19.2839 64.5787 20.3945C68.043 24.4452 71.5217 28.4815 75.1515 32.7072Z" fill="#FFCC66"/>
<path d="M30.7133 23.8466C26.9563 23.8289 23.8877 20.7556 23.9054 17.0274C23.9231 13.2608 27.04 10.197 30.8242 10.2291C34.5586 10.2596 37.6417 13.3908 37.5886 17.098C37.534 20.8647 34.4782 23.8642 30.7133 23.8466Z" fill="#FFCC66"/>
</svg>
