<svg width="27" height="30" viewBox="0 0 27 30" fill="none" xmlns="http://www.w3.org/2000/svg">
<path d="M21.052 13.4965C21.052 13.6531 21.052 13.7631 21.052 13.8723C21.052 19.1271 21.0493 24.3819 21.0592 29.6367C21.0601 29.9256 20.9988 29.9999 20.6986 29.999C13.9201 29.9891 7.14083 29.9891 0.362414 29.999C0.0676217 29.999 -0.000892767 29.9337 8.73841e-06 29.6402C0.00992529 24.3407 0.00722078 19.0412 0.00722078 13.7425C0.00722078 13.3453 0.00631928 13.3507 0.389459 13.442C0.696872 13.5144 0.938476 13.6871 1.15664 13.9018C1.33243 14.0744 1.49831 14.2578 1.68222 14.4215C2.28623 14.9583 3.12913 14.9583 3.73314 14.4197C3.93328 14.2408 4.11177 14.0386 4.3074 13.8535C4.9682 13.2281 5.84988 13.2299 6.50888 13.8561C6.67926 14.0181 6.83612 14.1934 7.00651 14.3562C7.66731 14.9851 8.54267 14.9833 9.20708 14.35C9.37747 14.188 9.53523 14.0127 9.70561 13.8508C10.3565 13.2353 11.2274 13.2299 11.8818 13.8374C12.054 13.9975 12.2118 14.1728 12.3804 14.3365C13.0511 14.9851 13.9337 14.9896 14.6053 14.3464C14.7829 14.1764 14.947 13.9912 15.1282 13.8239C15.7592 13.2425 16.6193 13.2398 17.2557 13.8186C17.4297 13.9769 17.5866 14.1531 17.7552 14.3169C18.443 14.9878 19.3003 14.9959 20.0044 14.3446C20.3199 14.0512 20.5706 13.6799 21.052 13.4965Z" fill="black"/>
<path d="M22.1455 13.509C22.507 13.6316 22.7333 13.8937 22.9694 14.1388C23.2435 14.4233 23.5257 14.7024 23.9314 14.7785C24.4416 14.8751 24.9176 14.7901 25.3107 14.4242C25.4991 14.2489 25.6758 14.061 25.8597 13.8812C26.0201 13.7229 26.1968 13.5896 26.4096 13.5046C26.937 13.2917 26.9893 13.3239 26.9893 13.8687C26.9893 19.1217 26.9866 24.3747 26.9974 29.6277C26.9983 29.9381 26.9117 30.0034 26.6142 29.9999C25.2097 29.9838 23.8051 29.99 22.3997 29.9954C22.2212 29.9963 22.1238 29.9909 22.1238 29.7574C22.132 24.3926 22.1301 19.0278 22.1301 13.6638C22.132 13.6209 22.1392 13.5797 22.1455 13.509Z" fill="black"/>
<path d="M6.48454 12.525C5.18367 12.0866 4.13161 12.3872 3.26076 13.374C2.80279 13.8919 2.6306 13.8883 2.1501 13.3775C1.87965 13.0904 1.59658 12.822 1.24319 12.6404C1.11788 12.576 1.0683 12.4794 1.03945 12.3568C0.433636 9.77861 -0.00810199 7.17894 0.0126326 4.52112C0.0207462 3.44851 0.10098 2.38217 0.4724 1.36055C1.01601 -0.130729 2.00766 -0.411629 3.23191 0.594781C4.19021 1.38291 4.84019 2.41706 5.45141 3.47267C6.08788 4.5739 6.60895 5.73061 7.09125 6.90609C7.15706 7.06712 7.14083 7.19057 7.06601 7.34176C6.67836 8.12363 6.48814 8.9538 6.48634 9.82513C6.48273 10.7161 6.48454 11.608 6.48454 12.525ZM1.90579 7.28629C1.93464 7.55735 2.05634 7.76221 2.33221 7.82304C2.60536 7.88388 2.82803 7.77742 2.93892 7.52067C3.04439 7.27645 3.11742 7.01881 3.20306 6.76654C3.53301 5.79859 3.86206 4.83065 4.19471 3.8636C4.27044 3.64264 4.24249 3.44494 4.07932 3.27675C3.93508 3.12736 3.75208 3.09068 3.55284 3.14167C3.3482 3.19356 3.23732 3.33669 3.17241 3.52813C2.76853 4.71704 2.36286 5.90594 1.95898 7.09485C1.93825 7.15658 1.92382 7.22188 1.90579 7.28629ZM3.71331 11.9623C3.96663 11.9453 4.14423 11.8129 4.23168 11.5669C4.34707 11.2422 4.45525 10.9147 4.56704 10.5882C4.86183 9.72494 5.16023 8.86345 5.44781 7.99838C5.5632 7.65039 5.42888 7.35965 5.12958 7.25677C4.83569 7.15568 4.55712 7.31134 4.4273 7.65576C4.35338 7.85346 4.28847 8.05474 4.22086 8.25513C3.8882 9.2347 3.55104 10.2125 3.22379 11.1938C3.08947 11.6009 3.31845 11.956 3.71331 11.9623Z" fill="#010101"/>
<path d="M14.4493 12.9651C14.4556 10.7483 15.0353 8.85446 16.7662 7.46338C17.839 6.60189 19.3292 6.42745 20.4849 7.89636C20.64 7.25852 20.9005 6.69493 21.3368 6.22438C22.0075 5.50245 22.8496 5.26091 23.8088 5.38168C24.1991 5.43088 24.4056 5.68852 24.3551 6.00789C24.3064 6.31384 24.0603 6.46949 23.6726 6.43908C22.5268 6.34873 21.8263 6.90426 21.5433 8.15847C21.7777 8.09227 21.9922 8.01087 22.214 7.97151C23.276 7.78364 24.191 8.21841 24.7517 9.19888C25.4089 10.3484 25.5072 11.5928 25.2403 12.8568C25.1556 13.2558 24.768 13.5162 24.4074 13.7183C24.273 13.7935 24.0981 13.7425 23.9764 13.6146C23.8448 13.4777 23.7105 13.3435 23.5834 13.2031C22.525 12.0347 20.6643 12.0132 19.6177 13.1905C18.9785 13.9089 18.8099 13.9178 18.1635 13.1905C17.2611 12.1752 15.7673 12.0356 14.6549 12.8193C14.6116 12.8515 14.5674 12.8819 14.4493 12.9651Z" fill="#010101"/>
<path d="M7.56365 11.1974C7.60151 10.4844 7.47981 9.63364 7.68265 8.7963C8.0694 7.19946 9.0322 6.0866 10.553 5.45681C10.7613 5.37093 10.8154 5.27521 10.8064 5.07035C10.7901 4.70357 10.8118 4.3341 10.7973 3.96732C10.7901 3.7884 10.8487 3.74546 11.0227 3.74725C11.9549 3.7553 12.8879 3.7553 13.8201 3.74725C13.9968 3.74546 14.05 3.79377 14.0437 3.96911C14.0301 4.34752 14.05 4.72772 14.0347 5.10613C14.0274 5.28952 14.0797 5.3754 14.2609 5.44339C14.8667 5.66972 15.3941 6.02219 15.8566 6.47306C15.9738 6.58757 16.0342 6.65377 15.8683 6.80495C13.8769 8.6308 13.171 10.9138 13.4631 13.5448C13.4694 13.6047 13.5244 13.6807 13.4424 13.7201C13.3784 13.7514 13.3089 13.7201 13.2585 13.6709C13.1142 13.5314 12.9637 13.3963 12.8311 13.246C11.7385 12.0114 9.8661 12.0097 8.77077 13.2451C8.67431 13.3542 8.57244 13.458 8.47417 13.5645C8.32182 13.7291 8.12439 13.8069 7.92876 13.704C7.72773 13.5984 7.54382 13.4625 7.55554 13.1673C7.57988 12.5554 7.56365 11.9417 7.56365 11.1974Z" fill="#010101"/>
<path d="M12.3966 2.6801C11.7673 2.6801 11.1381 2.67473 10.5088 2.68368C10.3331 2.68636 10.2474 2.66221 10.2573 2.45556C10.2754 2.06641 10.2736 1.67458 10.2573 1.28454C10.2492 1.09489 10.3249 1.06984 10.489 1.07074C11.7818 1.0761 13.0736 1.07789 14.3664 1.06895C14.5557 1.06805 14.5864 1.13515 14.5827 1.29796C14.5728 1.688 14.5683 2.07893 14.5845 2.46897C14.5927 2.65863 14.5169 2.68546 14.3529 2.68368C13.7002 2.67562 13.0484 2.6801 12.3966 2.6801Z" fill="black"/>
</svg>
