<svg width="18" height="21" viewBox="0 0 18 21" fill="none" xmlns="http://www.w3.org/2000/svg">
<path d="M8.98412 20.0027C6.54352 20.0027 4.10236 20.004 1.66177 20.0021C0.832635 20.0014 0.195272 19.4652 0.037341 18.6095C-0.0906957 17.916 0.11405 17.3335 0.597431 16.8724C1.10845 16.3844 1.53261 15.8162 1.87329 15.1704C2.44071 14.0948 2.70129 12.9284 2.70299 11.6862C2.70468 10.7095 2.69227 9.73293 2.71032 8.75695C2.76898 5.50638 5.0381 2.6204 7.92711 2.11549C8.0715 2.09044 8.11324 2.03656 8.10816 1.88058C8.09858 1.57613 8.09914 1.27106 8.10816 0.966613C8.12452 0.415351 8.51935 -0.00373352 9.00893 2.50829e-05C9.48837 0.00378369 9.87755 0.41911 9.89504 0.959096C9.90519 1.27106 9.90293 1.58428 9.89673 1.89624C9.89447 2.02529 9.91816 2.08668 10.0496 2.11173C12.757 2.62917 14.814 4.957 15.2393 7.98017C15.2934 8.36668 15.2991 8.75758 15.303 9.14847C15.3138 10.2028 15.2585 11.2589 15.3318 12.3113C15.4559 14.096 16.131 15.5901 17.3274 16.7866C17.6793 17.1386 17.9546 17.5277 17.9935 18.0683C18.073 19.1695 17.3685 20.0008 16.3499 20.0027C14.4649 20.0065 12.5799 20.004 10.6943 20.004C10.1235 20.0027 9.55379 20.0027 8.98412 20.0027Z" fill="white"/>
</svg>
