<svg width="25" height="25" viewBox="0 0 25 25" fill="none" xmlns="http://www.w3.org/2000/svg">
<path d="M0 11.1842C0 11.119 0 11.0538 0 10.9892C0.0495866 10.7125 0.0548063 10.4359 0 10.1592C0 10.1103 0 10.0614 0 10.0131C0.0835144 9.97655 0.0456732 9.90021 0.0502404 9.84279C0.103089 9.15249 0.213358 8.47133 0.396045 7.80322C2.06829 1.68187 8.75661 -1.61368 14.6287 0.789315C19.4021 2.74277 22.0543 7.82279 20.949 12.8956C19.9756 17.3623 16.098 20.7721 11.5778 21.1375C9.51085 21.3045 7.53587 20.9587 5.71095 19.9689C2.57329 18.2673 0.706613 15.6405 0.133757 12.1062C0.08417 11.7989 0.11418 11.4811 0 11.1842ZM10.6207 16.5057C12.182 16.5057 13.7427 16.5031 15.304 16.5096C15.4691 16.5102 15.5232 16.4757 15.5219 16.2995C15.5128 15.3482 15.5239 14.3969 15.5161 13.4457C15.5056 12.2145 14.6163 11.3239 13.3904 11.32C11.5446 11.3141 9.69875 11.3154 7.8536 11.32C6.61263 11.3232 5.72138 12.2171 5.71616 13.4574C5.71224 14.4002 5.72139 15.3437 5.7103 16.2865C5.70834 16.4731 5.75923 16.5109 5.938 16.5096C7.49868 16.5024 9.05935 16.5057 10.6207 16.5057ZM12.8449 6.75015C12.8468 5.51831 11.8486 4.51353 10.6194 4.50896C9.39341 4.5044 8.38797 5.50983 8.38602 6.74167C8.38406 7.97416 9.38296 8.97959 10.6109 8.98286C11.8375 8.98547 12.8423 7.98134 12.8449 6.75015Z" fill="#FFCC66"/>
<path d="M23.5806 25.0001C23.1532 24.7991 22.857 24.4409 22.5334 24.1173C21.1587 22.7445 19.7872 21.3685 18.4092 19.999C18.2872 19.8776 18.2578 19.8176 18.4099 19.693C18.8751 19.3106 19.2998 18.8839 19.688 18.4233C19.7846 18.3091 19.8361 18.3013 19.9477 18.4129C21.5012 19.9748 23.0586 21.5329 24.6193 23.0877C25.3265 23.7924 24.8607 24.8787 24.0915 24.9622C24.083 24.9629 24.0771 24.987 24.0699 25.0001C23.9061 25.0001 23.743 25.0001 23.5806 25.0001Z" fill="#FFCC66"/>
</svg>
