<svg width="93" height="87" viewBox="0 0 93 87" fill="none" xmlns="http://www.w3.org/2000/svg">
<g clip-path="url(#clip0_438_1601)">
<path d="M46.5536 0.534709C45.4149 -0.00836462 44.1487 -0.0696135 43.3437 0.054926C42.5893 0.171299 41.4992 0.46121 40.5809 1.18599C40.0105 1.63719 39.5858 2.19864 39.3188 2.854C39.0033 3.63186 38.9062 4.54855 39.0316 5.57958C39.0498 5.73474 39.1287 5.87153 39.2521 5.96545C39.3755 6.05936 39.5292 6.10019 39.6829 6.0757L41.6589 5.77149C41.9381 5.72862 42.1464 5.48158 42.1423 5.19779C42.1363 4.55876 42.3446 3.44812 43.819 3.19495C44.9436 3.00304 45.5322 3.75436 45.7324 4.08715C46.0601 4.62818 46.1025 5.32233 45.8457 5.94503C45.4513 6.90051 44.5047 7.1843 43.9748 7.26597C43.366 7.36192 42.9453 7.93766 43.0383 8.54811L43.3619 10.6939C43.4085 11.0083 43.6997 11.2226 44.0112 11.1757L45.9367 10.8797C46.2482 10.8327 46.4605 10.5387 46.414 10.2243L46.3452 9.77309C46.3432 9.76288 46.3493 9.75267 46.3594 9.74655C46.772 9.52605 47.5608 9.02177 48.208 8.13978C49.0332 7.01484 49.3366 5.67962 49.1081 4.17085C48.7885 2.01897 47.5426 1.00428 46.5536 0.534709Z" fill="#EBEBEB"/>
<path d="M45.154 11.5573L44.9862 11.5839C44.1812 11.7084 43.625 12.4699 43.7483 13.2825C43.8717 14.0951 44.6261 14.6565 45.4311 14.532L45.599 14.5055C46.404 14.3809 46.9602 13.6194 46.8368 12.8068C46.7155 11.9942 45.961 11.4328 45.154 11.5573Z" fill="#EBEBEB"/>
<path d="M6.88886 35.1894C6.31647 34.4667 5.50947 34.0196 4.94517 33.8399C4.41525 33.6725 3.61027 33.5092 2.78101 33.6868C2.26526 33.797 1.81018 34.0278 1.42791 34.3707C0.974853 34.777 0.620903 35.3446 0.378194 36.0592C0.341787 36.1653 0.349878 36.2817 0.400442 36.3817C0.451006 36.4838 0.537977 36.5594 0.647196 36.592L2.03468 37.031C2.23087 37.0922 2.44526 36.9983 2.53224 36.8125C2.73045 36.392 3.21789 35.7346 4.26356 36.0469C5.05843 36.2838 5.20608 36.9657 5.23237 37.2474C5.27485 37.7068 5.0827 38.1743 4.71864 38.4969C4.15839 38.995 3.45048 38.8725 3.07833 38.7562C2.64954 38.6214 2.19244 38.8623 2.05895 39.2911L1.58972 40.7978C1.52095 41.0183 1.6423 41.2531 1.86074 41.3225L3.21182 41.7512C3.43026 41.8207 3.66285 41.6982 3.73162 41.4777L3.83073 41.1612C3.83275 41.153 3.84084 41.149 3.84691 41.149C4.1867 41.1367 4.86224 41.0632 5.56407 40.6957C6.46007 40.2261 7.08101 39.4524 7.41069 38.3928C7.8779 36.8799 7.38439 35.8162 6.88886 35.1894Z" fill="#EBEBEB"/>
<path d="M2.48179 41.9409L2.36448 41.9041C1.79816 41.7245 1.19543 42.043 1.01744 42.6146C0.839458 43.1863 1.15498 43.7947 1.7213 43.9744L1.83861 44.0111C2.40493 44.1908 3.00766 43.8723 3.18564 43.3006C3.36161 42.729 3.04609 42.1185 2.48179 41.9409Z" fill="#EBEBEB"/>
<path d="M91.934 33.2195C91.1047 32.2252 89.9559 31.6229 89.155 31.3922C88.4066 31.1758 87.2699 30.9757 86.111 31.2554C85.3909 31.4289 84.7599 31.7679 84.234 32.2619C83.6111 32.8479 83.1358 33.6584 82.8162 34.6711C82.7677 34.8221 82.7838 34.9834 82.8587 35.1243C82.9335 35.2652 83.0589 35.3672 83.2126 35.4122L85.1766 35.9818C85.4536 36.0614 85.751 35.9226 85.8683 35.6572C86.1312 35.061 86.7946 34.1198 88.2731 34.52C89.3997 34.8262 89.6282 35.7776 89.6748 36.1717C89.7496 36.8148 89.4968 37.4783 88.9952 37.9458C88.2246 38.6645 87.2254 38.5195 86.6996 38.3684C86.0928 38.1949 85.4597 38.5481 85.2878 39.1565L84.681 41.29C84.592 41.6024 84.772 41.927 85.0795 42.0168L86.9928 42.5701C87.3023 42.66 87.6239 42.4782 87.7129 42.1679L87.8403 41.7188C87.8443 41.7086 87.8524 41.7004 87.8646 41.7004C88.3419 41.6718 89.2884 41.5452 90.2593 41.0042C91.5011 40.3141 92.3466 39.2035 92.7733 37.7049C93.3821 35.5612 92.654 34.0831 91.934 33.2195Z" fill="#EBEBEB"/>
<path d="M85.9774 42.8579L85.8095 42.8089C85.0086 42.5782 84.1712 43.0457 83.9407 43.8542C83.7121 44.6627 84.1753 45.5079 84.9762 45.7407L85.1441 45.7897C85.945 46.0204 86.7824 45.5528 87.013 44.7444C87.2435 43.9359 86.7783 43.0906 85.9774 42.8579Z" fill="#EBEBEB"/>
<path d="M27.1145 50.6772C26.1599 49.9565 24.9989 49.6584 24.2283 49.6196C23.5083 49.5829 22.4424 49.6441 21.4554 50.1423C20.8425 50.4506 20.343 50.8916 19.9728 51.4489C19.5339 52.1104 19.273 52.9413 19.1962 53.9213C19.184 54.0683 19.2326 54.2112 19.3276 54.3215C19.4247 54.4338 19.5582 54.4991 19.7059 54.5052L21.5949 54.6012C21.8619 54.6155 22.1006 54.4256 22.1512 54.1622C22.2644 53.5681 22.6669 52.58 24.0827 52.6269C25.1607 52.6637 25.5653 53.4722 25.6907 53.8193C25.8929 54.3827 25.8019 55.034 25.4479 55.5628C24.9039 56.3733 23.9715 56.455 23.4658 56.4305C22.8833 56.404 22.3858 56.8572 22.3554 57.4411L22.2523 59.4929C22.2381 59.7931 22.4667 60.0483 22.764 60.0646L24.6045 60.1585C24.9019 60.1728 25.1547 59.9421 25.1709 59.642L25.1931 59.2112C25.1931 59.201 25.2012 59.1928 25.2113 59.1887C25.636 59.0622 26.4613 58.7457 27.2258 58.0536C28.2007 57.1675 28.7326 55.9875 28.8054 54.5461C28.9086 52.482 27.9438 51.3019 27.1145 50.6772Z" fill="#EBEBEB"/>
<path d="M23.753 60.6301L23.5912 60.6219C22.8206 60.5831 22.1632 61.1833 22.1248 61.9612C22.0864 62.7391 22.681 63.4026 23.4516 63.4414L23.6134 63.4496C24.384 63.4883 25.0414 62.8881 25.0798 62.1102C25.1162 61.3344 24.5216 60.6709 23.753 60.6301Z" fill="#EBEBEB"/>
<path d="M89.149 86.9448C89.149 86.9754 69.1903 86.9999 44.5775 86.9999C19.9547 86.9999 0 86.9754 0 86.9448C0 86.9141 19.9547 86.8896 44.5775 86.8896C69.1903 86.8896 89.149 86.9141 89.149 86.9448Z" fill="#263238"/>
<path d="M10.5104 21.5913C13.8656 20.2794 15.5319 16.4705 14.2323 13.0838C12.9327 9.69706 9.15933 8.01503 5.80422 9.32686C2.44911 10.6387 0.782773 14.4476 2.08236 17.8344C3.38195 21.2211 7.15533 22.9031 10.5104 21.5913Z" fill="white"/>
<path d="M14.6719 15.4595C14.6719 15.4595 14.6678 15.4228 14.6617 15.3534C14.6577 15.2799 14.6496 15.1758 14.6415 15.041C14.6375 14.9716 14.6334 14.8961 14.6274 14.8103C14.6193 14.7266 14.6011 14.6347 14.5869 14.5347C14.5707 14.4346 14.5545 14.3285 14.5363 14.2141C14.5222 14.0998 14.4797 13.9834 14.4514 13.8548C14.3361 13.3465 14.1015 12.7462 13.7293 12.1113C13.3552 11.4784 12.8151 10.8148 12.0789 10.2534C11.9859 10.184 11.8928 10.1146 11.7978 10.0431C11.6987 9.97776 11.5955 9.91856 11.4924 9.85527C11.3872 9.79606 11.2881 9.72256 11.1768 9.67152C11.0656 9.61844 10.9544 9.56331 10.8411 9.50819C10.7845 9.48165 10.7278 9.45306 10.6692 9.42652C10.6105 9.40407 10.5499 9.38161 10.4892 9.36119C10.3678 9.31628 10.2465 9.27136 10.1251 9.22644C10.0017 9.18561 9.87229 9.15907 9.74284 9.12232C9.6134 9.0917 9.48598 9.04678 9.35046 9.03249C9.08348 8.9937 8.81246 8.93857 8.53132 8.93653C8.39176 8.93245 8.25018 8.91816 8.1086 8.9202C7.96702 8.92837 7.82342 8.93449 7.67982 8.94266C7.60701 8.94674 7.53622 8.94674 7.4634 8.95695L7.24699 8.98961C7.10338 9.01411 6.95574 9.03045 6.81213 9.06107C6.52695 9.13865 6.22963 9.19786 5.94849 9.31628C5.65724 9.41019 5.3842 9.55515 5.10306 9.69194C4.96552 9.76748 4.83608 9.85322 4.70057 9.93489C4.63382 9.97776 4.56303 10.0145 4.50033 10.0635L4.31021 10.2085C4.04727 10.3902 3.8167 10.6188 3.57601 10.8393C3.4668 10.9598 3.35758 11.0823 3.24633 11.2048L3.16341 11.2967L3.08857 11.3967L2.94093 11.5968L2.79126 11.7969L2.66181 12.0112L2.53237 12.2276L2.46764 12.3358L2.41303 12.4502C2.34022 12.6033 2.26741 12.7564 2.19257 12.9116C2.13392 13.0729 2.07526 13.2342 2.01661 13.3955C1.80626 14.0508 1.69097 14.747 1.68288 15.4575C1.693 16.1659 1.80626 16.8642 2.01661 17.5195C2.07526 17.6808 2.13392 17.8421 2.19257 18.0034C2.26539 18.1586 2.34022 18.3117 2.41303 18.4648L2.46764 18.5792L2.53237 18.6874L2.66181 18.9038L2.79126 19.1181L2.94093 19.3203L3.08857 19.5203L3.16341 19.6204L3.24633 19.7123C3.35758 19.8348 3.4668 19.9573 3.57601 20.0777C3.8167 20.2982 4.04727 20.5248 4.31021 20.7086L4.50033 20.8535C4.56303 20.9025 4.63382 20.9393 4.70057 20.9822C4.83608 21.0638 4.96755 21.1496 5.10306 21.2251C5.3842 21.3619 5.65724 21.5069 5.94849 21.6008C6.22963 21.7192 6.52695 21.7784 6.81213 21.856C6.95776 21.8866 7.10338 21.9029 7.24699 21.9274L7.4634 21.9601C7.53622 21.9703 7.60701 21.9683 7.67982 21.9744C7.82342 21.9826 7.96702 21.9887 8.1086 21.9968C8.25018 21.9989 8.39176 21.9846 8.53132 21.9805C8.81246 21.9785 9.08348 21.9233 9.35046 21.8846C9.48598 21.8703 9.6134 21.8253 9.74284 21.7947C9.87027 21.76 10.0017 21.7335 10.1251 21.6906C10.2485 21.6457 10.3698 21.6008 10.4892 21.5559C10.5499 21.5334 10.6085 21.5109 10.6692 21.4905C10.7258 21.464 10.7845 21.4354 10.8411 21.4089C10.9544 21.3537 11.0656 21.3006 11.1768 21.2455C11.2901 21.1945 11.3892 21.121 11.4924 21.0618C11.5955 20.9985 11.6987 20.9393 11.7978 20.8739C11.8928 20.8025 11.9859 20.7331 12.0789 20.6637C12.8151 20.1022 13.3552 19.4407 13.7293 18.8058C14.1015 18.1688 14.3361 17.5685 14.4514 17.0622C14.4797 16.9356 14.5222 16.8193 14.5363 16.7029C14.5545 16.5886 14.5707 16.4824 14.5869 16.3824C14.6011 16.2823 14.6193 16.1925 14.6274 16.1067C14.6314 16.023 14.6375 15.9455 14.6415 15.876C14.6496 15.7413 14.6557 15.6372 14.6617 15.5637C14.6658 15.4963 14.6719 15.4595 14.6719 15.4595C14.6719 15.4595 14.6739 15.4963 14.6698 15.5657C14.6678 15.6392 14.6638 15.7433 14.6577 15.8781C14.6557 15.9475 14.6516 16.0251 14.6476 16.1088C14.6395 16.1925 14.6233 16.2844 14.6112 16.3844C14.597 16.4844 14.5808 16.5906 14.5647 16.707C14.5525 16.8234 14.5121 16.9397 14.4838 17.0683C14.3725 17.5808 14.1419 18.1851 13.7718 18.8282C13.3997 19.4693 12.8576 20.139 12.1173 20.7086C12.0243 20.78 11.9313 20.8494 11.8362 20.9229C11.7371 20.9883 11.6319 21.0495 11.5288 21.1149C11.4236 21.1761 11.3225 21.2496 11.2092 21.3027C11.098 21.3578 10.9847 21.4129 10.8694 21.4681C10.8128 21.4966 10.7541 21.5232 10.6975 21.5518C10.6368 21.5742 10.5761 21.5967 10.5155 21.6191C10.3941 21.6641 10.2707 21.709 10.1474 21.7559C10.022 21.7988 9.89049 21.8253 9.76105 21.8621C9.62958 21.8927 9.50216 21.9397 9.36462 21.954C9.0936 21.9928 8.82055 22.0499 8.53739 22.052C8.39581 22.0581 8.25423 22.0724 8.11063 22.0703C7.96702 22.0642 7.82342 22.056 7.67779 22.0479C7.60498 22.0438 7.53217 22.0438 7.45936 22.0336L7.24092 22.0009C7.09529 21.9764 6.94765 21.9601 6.8 21.9295C6.51077 21.8498 6.21143 21.7927 5.92625 21.6722C5.63297 21.5783 5.35588 21.4313 5.0707 21.2945C4.93316 21.219 4.79967 21.1312 4.66214 21.0495C4.59539 21.0067 4.52258 20.9699 4.45988 20.9209L4.26571 20.7759C3.99873 20.5922 3.76614 20.3615 3.5214 20.139C3.41016 20.0165 3.29892 19.8919 3.18768 19.7694L3.10475 19.6755L3.02992 19.5755L2.88025 19.3733L2.72856 19.1692L2.59709 18.9507L2.46562 18.7323L2.39888 18.622L2.34224 18.5057C2.26741 18.3505 2.1946 18.1953 2.11976 18.0381C2.06111 17.8748 2.00043 17.7115 1.94177 17.5481C1.72738 16.8846 1.61209 16.1782 1.604 15.4595C1.61412 14.7409 1.7294 14.0365 1.94177 13.373C2.00043 13.2097 2.06111 13.0463 2.11976 12.883C2.1946 12.7278 2.26943 12.5706 2.34224 12.4155L2.39888 12.2991L2.46562 12.1888L2.59709 11.9704L2.72856 11.7519L2.88025 11.5478L3.02992 11.3457L3.10475 11.2456L3.18768 11.1517C3.29892 11.0272 3.41016 10.9047 3.5214 10.7822C3.76614 10.5596 3.99873 10.3289 4.26571 10.1452L4.45786 10.0002C4.52258 9.95122 4.59337 9.91447 4.66011 9.8716C4.79765 9.78993 4.92912 9.70214 5.06867 9.6266C5.35386 9.48981 5.62893 9.34282 5.92422 9.2489C6.20941 9.12845 6.50875 9.07128 6.79798 8.99166C6.94562 8.96103 7.09327 8.9447 7.2389 8.9202L7.45733 8.88753C7.53015 8.87733 7.60296 8.87937 7.67577 8.87324C7.8214 8.86508 7.965 8.85895 8.1086 8.85078C8.25221 8.84874 8.39379 8.86303 8.53537 8.86916C8.81853 8.8712 9.09158 8.92837 9.3626 8.96716C9.49811 8.98145 9.62756 9.02841 9.75902 9.05903C9.88847 9.09578 10.0199 9.12232 10.1453 9.1652C10.2687 9.21215 10.3921 9.25707 10.5134 9.30198C10.5741 9.32444 10.6348 9.3469 10.6955 9.36936C10.7541 9.39794 10.8108 9.42448 10.8674 9.45306C10.9807 9.50819 11.0939 9.56331 11.2072 9.61844C11.3205 9.67152 11.4196 9.74502 11.5268 9.80627C11.6299 9.8716 11.7351 9.93081 11.8342 9.99818C11.9292 10.0696 12.0243 10.1411 12.1173 10.2126C12.8576 10.7822 13.3976 11.4518 13.7718 12.0929C14.1419 12.736 14.3745 13.3424 14.4838 13.8528C14.5121 13.9814 14.5525 14.0978 14.5647 14.2141C14.5808 14.3285 14.597 14.4367 14.6112 14.5367C14.6253 14.6368 14.6415 14.7286 14.6496 14.8123C14.6537 14.8961 14.6557 14.9736 14.6597 15.043C14.6638 15.1778 14.6678 15.2819 14.6719 15.3554C14.6719 15.4228 14.6719 15.4595 14.6719 15.4595Z" fill="#263238"/>
<path d="M5.83907 14.3325H7.07689C7.07689 14.3325 7.07689 13.2831 8.15694 13.2648C8.71719 13.2546 9.00844 13.6261 9.12575 13.9099C9.26329 14.2407 9.22082 14.6163 9.03676 14.9226C8.82641 15.2717 8.36729 15.5902 7.53197 15.4411V17.2745H8.75562V16.609C8.75562 16.609 10.4728 16.1618 10.4728 14.2529C10.4728 12.4257 8.85068 12.001 8.15492 12.001C7.625 11.999 5.81682 12.1296 5.83907 14.3325Z" fill="#FF725E"/>
<path d="M8.77189 17.75H7.53003V18.9199H8.77189V17.75Z" fill="#FF725E"/>
<path d="M14.967 21.6109C14.967 22.1663 14.5221 22.6154 13.9719 22.6154C13.4218 22.6154 12.9768 22.1663 12.9768 21.6109C12.9768 21.0556 13.4218 20.6064 13.9719 20.6064C14.5221 20.6064 14.967 21.0576 14.967 21.6109Z" fill="white"/>
<path d="M14.9671 21.611C14.959 21.611 14.9611 21.5211 14.9206 21.37C14.8801 21.221 14.779 21.0046 14.5565 20.8372C14.3421 20.6698 13.9882 20.5758 13.6464 20.7045C13.4785 20.7657 13.3187 20.8821 13.2034 21.0413C13.0861 21.1985 13.0214 21.4007 13.0194 21.611C13.0214 21.8192 13.0861 22.0213 13.2034 22.1806C13.3167 22.3398 13.4785 22.4562 13.6464 22.5174C13.9882 22.6461 14.3421 22.5521 14.5565 22.3847C14.779 22.2173 14.8801 22.0009 14.9206 21.8519C14.9611 21.7008 14.957 21.611 14.9671 21.611C14.9691 21.611 14.9712 21.6334 14.9732 21.6763C14.9752 21.7192 14.9691 21.7825 14.953 21.86C14.9206 22.0152 14.8235 22.2479 14.5929 22.4317C14.3705 22.6154 13.9922 22.7236 13.6221 22.5889C13.4401 22.5236 13.2641 22.4011 13.1407 22.2275C13.0133 22.056 12.9405 21.8376 12.9385 21.611C12.9405 21.3843 13.0133 21.1638 13.1407 20.9944C13.2661 20.8208 13.4401 20.6983 13.6221 20.633C13.9922 20.4983 14.3705 20.6065 14.5929 20.7902C14.8235 20.974 14.9206 21.2067 14.953 21.3619C14.9691 21.4415 14.9752 21.5048 14.9732 21.5456C14.9712 21.5905 14.9691 21.611 14.9671 21.611Z" fill="#263238"/>
<path d="M85.402 16.2637C88.0756 13.5648 88.0756 9.1891 85.402 6.49024C82.7283 3.79138 78.3934 3.79138 75.7198 6.49024C73.0461 9.1891 73.0461 13.5648 75.7198 16.2637C78.3934 18.9625 82.7283 18.9625 85.402 16.2637Z" fill="white"/>
<path d="M87.4078 11.3759C87.4078 11.3759 87.4037 11.3371 87.3977 11.2636C87.3936 11.186 87.3855 11.0778 87.3774 10.9349C87.3734 10.8635 87.3693 10.7818 87.3633 10.694C87.3532 10.6062 87.335 10.5103 87.3208 10.4061C87.3046 10.302 87.2864 10.1897 87.2682 10.0693C87.2541 9.94881 87.2096 9.82631 87.1792 9.69157C87.0579 9.1587 86.8111 8.52784 86.4208 7.85818C86.0284 7.19261 85.46 6.49642 84.6874 5.90638C84.5903 5.83289 84.4912 5.75939 84.3921 5.68385C84.289 5.61443 84.1797 5.55318 84.0726 5.48581C83.9633 5.42252 83.8582 5.34494 83.7408 5.29185C83.6235 5.23469 83.5062 5.17752 83.3869 5.12036C83.3262 5.09177 83.2676 5.06319 83.2069 5.03461C83.1442 5.01215 83.0815 4.98765 83.0188 4.96519C82.8914 4.91823 82.7639 4.87128 82.6365 4.82432C82.5071 4.78145 82.3695 4.75286 82.2361 4.71611C82.1005 4.68549 81.965 4.63649 81.8234 4.6222C81.5423 4.58137 81.2571 4.5242 80.9618 4.52216C80.8142 4.51808 80.6665 4.50174 80.5189 4.50583C80.3692 4.51399 80.2195 4.52216 80.0679 4.53033C79.993 4.53645 79.9162 4.53441 79.8413 4.54462L79.6148 4.57932C79.4631 4.60382 79.3094 4.6222 79.1577 4.65486C78.8563 4.73653 78.5469 4.79982 78.2496 4.92436C77.9441 5.02236 77.6569 5.17548 77.3616 5.31839C77.218 5.39802 77.0805 5.48785 76.9369 5.5736C76.8681 5.61851 76.7933 5.65731 76.7266 5.70835L76.5263 5.85943C76.2492 6.05134 76.0085 6.29021 75.7537 6.52092C75.6384 6.6475 75.5231 6.77612 75.4078 6.90474L75.3209 7.0007L75.24 7.10686L75.0842 7.31715L74.9285 7.52948L74.791 7.7561L74.6534 7.98272L74.5847 8.09705L74.526 8.21751C74.4491 8.3788 74.3723 8.54009 74.2954 8.70138C74.2347 8.87083 74.172 9.04029 74.1114 9.20974C73.8889 9.89981 73.7696 10.6307 73.7594 11.3759C73.7696 12.1211 73.8889 12.8541 74.1093 13.5421C74.172 13.7115 74.2327 13.881 74.2934 14.0504C74.3703 14.2117 74.4471 14.373 74.524 14.5343L74.5826 14.6548L74.6514 14.7691L74.7889 14.9957L74.9265 15.2223L75.0822 15.4347L75.2379 15.645L75.3168 15.7491L75.4038 15.845C75.5191 15.9737 75.6344 16.1023 75.7497 16.2289C76.0025 16.4596 76.2452 16.7005 76.5223 16.8904L76.7225 17.0414C76.7893 17.0925 76.8641 17.1313 76.9329 17.1762C77.0744 17.2619 77.212 17.3538 77.3576 17.4314C77.6529 17.5743 77.9401 17.7274 78.2455 17.8254C78.5408 17.95 78.8523 18.0112 79.1536 18.0949C79.3053 18.1276 79.4611 18.1439 79.6107 18.1705L79.8373 18.2052C79.9121 18.2154 79.989 18.2154 80.0638 18.2195C80.2155 18.2276 80.3652 18.2358 80.5148 18.244C80.6645 18.246 80.8122 18.2317 80.9578 18.2276C81.2531 18.2256 81.5362 18.1664 81.8194 18.1276C81.961 18.1133 82.0945 18.0643 82.232 18.0337C82.3675 17.9969 82.503 17.9683 82.6325 17.9255C82.7619 17.8785 82.8893 17.8315 83.0168 17.7846C83.0795 17.7621 83.1422 17.7376 83.2049 17.7152C83.2655 17.6866 83.3242 17.658 83.3849 17.6294C83.5042 17.5723 83.6215 17.5151 83.7388 17.4579C83.8561 17.4048 83.9613 17.3273 84.0705 17.264C84.1777 17.1966 84.2869 17.1333 84.3901 17.0659C84.4892 16.9904 84.5883 16.9169 84.6854 16.8434C85.458 16.2534 86.0264 15.5572 86.4187 14.8916C86.8091 14.224 87.0558 13.5931 87.1772 13.0582C87.2075 12.9255 87.252 12.803 87.2662 12.6805C87.2844 12.5601 87.3026 12.4478 87.3188 12.3436C87.335 12.2395 87.3532 12.1436 87.3613 12.0558C87.3673 11.968 87.3714 11.8863 87.3754 11.8149C87.3835 11.6719 87.3916 11.5637 87.3956 11.4862C87.4017 11.4147 87.4078 11.3759 87.4078 11.3759C87.4078 11.3759 87.4098 11.4147 87.4058 11.4882C87.4037 11.5658 87.3997 11.674 87.3936 11.8169C87.3916 11.8904 87.3876 11.97 87.3835 12.0599C87.3754 12.1497 87.3592 12.2456 87.3451 12.3498C87.3289 12.4539 87.3127 12.5682 87.2965 12.6887C87.2844 12.8112 87.2399 12.9337 87.2116 13.0684C87.0963 13.6054 86.8516 14.2424 86.4632 14.9181C86.0709 15.5919 85.5025 16.2942 84.7258 16.8944C84.6288 16.9679 84.5296 17.0435 84.4285 17.119C84.3254 17.1884 84.2141 17.2517 84.1069 17.3211C83.9957 17.3844 83.8905 17.4641 83.7712 17.5171C83.6539 17.5743 83.5345 17.6335 83.4152 17.6907C83.3545 17.7193 83.2939 17.7499 83.2332 17.7785C83.1705 17.803 83.1058 17.8254 83.0431 17.8499C82.9156 17.8969 82.7862 17.9459 82.6567 17.9928C82.5253 18.0378 82.3877 18.0663 82.2522 18.1031C82.1147 18.1357 81.9792 18.1847 81.8356 18.199C81.5504 18.2399 81.2632 18.3011 80.9659 18.3032C80.8182 18.3093 80.6686 18.3236 80.5169 18.3215C80.3652 18.3134 80.2135 18.3072 80.0618 18.2991C79.9849 18.293 79.9081 18.295 79.8312 18.2848L79.6006 18.2501C79.4469 18.2256 79.2912 18.2072 79.1375 18.1745C78.8341 18.0929 78.5186 18.0296 78.2192 17.905C77.9098 17.805 77.6185 17.6519 77.3212 17.5069C77.1756 17.4273 77.036 17.3354 76.8924 17.2497C76.8216 17.2048 76.7468 17.166 76.68 17.1149L76.4778 16.9618C76.1966 16.7679 75.9519 16.5249 75.695 16.2922C75.5777 16.1635 75.4624 16.0329 75.3451 15.9042L75.2561 15.8062L75.1773 15.7001L75.0195 15.4878L74.8617 15.2734L74.7222 15.0447L74.5826 14.814L74.5139 14.6976L74.4552 14.5751C74.3783 14.4118 74.2995 14.2485 74.2206 14.0852C74.1579 13.9137 74.0952 13.7422 74.0325 13.5707C73.808 12.8724 73.6866 12.1313 73.6765 11.3759C73.6866 10.6226 73.808 9.8794 74.0325 9.18116C74.0952 9.00966 74.1579 8.83817 74.2206 8.66667C74.2995 8.50334 74.3763 8.34001 74.4552 8.17668L74.5139 8.05418L74.5826 7.93781L74.7222 7.7071L74.8617 7.47844L75.0195 7.26407L75.1773 7.05174L75.2561 6.94557L75.3451 6.84758C75.4624 6.71691 75.5798 6.58829 75.695 6.45967C75.9519 6.22692 76.1966 5.98397 76.4778 5.79001L76.68 5.63689C76.7468 5.58585 76.8216 5.54706 76.8924 5.50214C77.036 5.41639 77.1756 5.32452 77.3212 5.2449C77.6205 5.09994 77.9118 4.94682 78.2192 4.84882C78.5186 4.72428 78.8341 4.66099 79.1375 4.57932C79.2912 4.54666 79.4469 4.53033 79.6006 4.50378L79.8312 4.46908C79.9081 4.45887 79.9849 4.45887 80.0618 4.45478C80.2155 4.44662 80.3672 4.44049 80.5169 4.43233C80.6665 4.43029 80.8162 4.44458 80.9659 4.4507C81.2632 4.45274 81.5504 4.51195 81.8356 4.55482C81.9792 4.56912 82.1147 4.62016 82.2522 4.65078C82.3877 4.68753 82.5253 4.71816 82.6567 4.76103C82.7862 4.81003 82.9156 4.85699 83.0431 4.90394C83.1078 4.92844 83.1705 4.9509 83.2332 4.9754C83.2939 5.00398 83.3545 5.03461 83.4152 5.06319C83.5345 5.1224 83.6539 5.17956 83.7712 5.23673C83.8905 5.29185 83.9957 5.36944 84.1069 5.43273C84.2162 5.5001 84.3254 5.56543 84.4285 5.63485C84.5276 5.71039 84.6267 5.78593 84.7258 5.85943C85.5025 6.45762 86.0729 7.16199 86.4632 7.83573C86.8516 8.5115 87.0963 9.14849 87.2116 9.68544C87.2419 9.82019 87.2844 9.94269 87.2965 10.0652C87.3147 10.1856 87.3309 10.2979 87.3451 10.4041C87.3592 10.5082 87.3774 10.6062 87.3835 10.694C87.3876 10.7838 87.3896 10.8635 87.3936 10.937C87.3997 11.0799 87.4037 11.1881 87.4058 11.2657C87.4078 11.3371 87.4078 11.3759 87.4078 11.3759Z" fill="#263238"/>
<path d="M78.1262 10.1917H79.4267C79.4267 10.1917 79.4267 9.08926 80.5614 9.06885C81.15 9.05864 81.4554 9.44859 81.5808 9.74667C81.7244 10.0937 81.6819 10.4878 81.4877 10.8104C81.2673 11.1779 80.7839 11.5106 79.9081 11.3555V13.2828H81.1945V12.5825C81.1945 12.5825 82.9986 12.1109 82.9986 10.106C82.9986 8.18686 81.2936 7.73975 80.5634 7.73975C80.0032 7.73975 78.1019 7.87449 78.1262 10.1917Z" fill="#FF725E"/>
<path d="M81.2086 13.7832H79.9041V15.0143H81.2086V13.7832Z" fill="#FF725E"/>
<path d="M74.1922 17.3294C74.1922 17.9113 73.725 18.385 73.1465 18.385C72.5701 18.385 72.1008 17.9134 72.1008 17.3294C72.1008 16.7455 72.568 16.2739 73.1465 16.2739C73.725 16.276 74.1922 16.7476 74.1922 17.3294Z" fill="white"/>
<path d="M74.1922 17.3295C74.1821 17.3295 74.1861 17.2356 74.1436 17.0763C74.1011 16.9191 73.994 16.6905 73.7614 16.5149C73.5348 16.3393 73.1647 16.2413 72.8047 16.3761C72.6287 16.4414 72.4588 16.5618 72.3395 16.7313C72.2161 16.8967 72.1473 17.109 72.1453 17.3295C72.1473 17.55 72.2161 17.7623 72.3395 17.9277C72.4588 18.0951 72.6287 18.2176 72.8047 18.2829C73.1647 18.4177 73.5348 18.3197 73.7614 18.1441C73.994 17.9685 74.1011 17.7399 74.1436 17.5827C74.1861 17.4234 74.1841 17.3295 74.1922 17.3295C74.1942 17.3295 74.1962 17.352 74.1982 17.3969C74.2003 17.4418 74.1942 17.5071 74.176 17.5908C74.1416 17.7542 74.0405 17.9992 73.7978 18.1931C73.5631 18.3871 73.1667 18.5014 72.7764 18.3585C72.5842 18.2911 72.4002 18.1604 72.2707 17.9787C72.1372 17.7991 72.0604 17.5684 72.0583 17.3295C72.0604 17.0906 72.1372 16.8599 72.2707 16.6803C72.4022 16.4986 72.5842 16.3679 72.7764 16.3005C73.1667 16.1596 73.5631 16.274 73.7978 16.4659C74.0405 16.6578 74.1416 16.9028 74.176 17.0682C74.1942 17.1519 74.1982 17.2172 74.1982 17.2621C74.1982 17.307 74.1962 17.3295 74.1922 17.3295Z" fill="#263238"/>
<path d="M36.1436 68.0759C33.9612 62.5554 32.3229 58.7212 32.3229 58.7212L12.3621 61.7836C12.3621 61.7836 8.7741 71.069 9.08557 75.2809C9.39705 79.4927 10.8573 86.912 10.8573 86.912H35.0109C35.0109 86.9141 38.328 73.5965 36.1436 68.0759Z" fill="#263238"/>
<path d="M28.5568 22.2003C28.7126 20.6078 28.9492 19.0051 29.5277 17.5148C30.1041 16.0244 31.0507 14.6401 32.3876 13.7786L32.7314 14.1011C32.9681 13.4172 33.5991 12.8884 34.3091 12.7782C35.019 12.6679 35.7774 12.9823 36.2062 13.5642C36.9728 13.356 37.8506 13.6724 38.3137 14.3216C38.7769 14.9709 38.7931 15.9121 38.3542 16.5797C39.0722 16.6716 39.7053 17.2412 39.8772 17.9496C40.0491 18.6581 39.7498 19.4604 39.1572 19.8769C39.948 20.567 40.2635 21.7613 39.9156 22.7556C39.5698 23.7519 38.5848 24.4849 37.5391 24.5237C37.7717 25.4404 37.2984 26.4898 36.4611 26.9124C35.6237 27.337 34.5073 27.092 33.9187 26.3571C33.9915 27.3105 33.2371 28.2129 32.3168 28.4395C31.3965 28.6661 30.3933 28.2905 29.7239 27.6167C29.0524 26.943 28.6843 26.0079 28.5407 25.0627C28.3971 24.1153 28.4618 23.1517 28.5568 22.2003Z" fill="#263238"/>
<path d="M32.8042 15.1426C33.7224 15.4427 33.9105 16.194 34.1007 16.8188C34.5112 18.1642 34.0501 20.1568 33.3038 21.3471C32.5574 22.5374 31.7383 23.1417 30.3589 23.3438C30.3144 21.2062 30.2699 19.0707 30.2234 16.9331L32.8042 15.1426Z" fill="#FF725E"/>
<path d="M33.322 18.8235C33.949 18.0007 33.86 16.7104 33.1258 15.9836C33.5283 15.4732 33.3827 14.6871 32.9741 14.1829C32.5656 13.6786 31.9588 13.3887 31.3723 13.1151C31.0507 11.6247 29.3922 10.5753 27.9218 10.9326C27.1552 9.79539 25.525 9.61777 24.2184 10.0016C23.8989 10.0955 23.5793 10.216 23.2476 10.216C23.0029 10.2139 22.7662 10.1486 22.5235 10.1139C21.1947 9.93423 19.8739 10.8775 19.3562 12.1269C19.2732 12.327 19.2045 12.5373 19.073 12.7088C18.9011 12.9334 18.6381 13.0661 18.4157 13.2396C17.9343 13.6153 17.6268 14.2114 17.6026 14.8239C17.5803 15.3445 17.7462 15.8978 17.5277 16.3715C17.4185 16.6083 17.2223 16.8002 17.1374 17.0473C16.8906 17.7639 17.6774 18.4948 17.5318 19.2379C17.5015 19.389 17.4347 19.5299 17.3922 19.6789C17.3073 19.9831 17.3356 20.318 17.4711 20.6038C17.5763 20.8243 17.7462 21.0244 17.7603 21.2694C17.7705 21.4551 17.6895 21.6307 17.6531 21.8124C17.5641 22.2555 18.5127 23.9684 18.891 24.2093L30.2437 24.3114C31.1033 24.1338 31.8031 23.3477 31.886 22.4678C31.9002 22.3208 31.9022 22.1615 31.9912 22.0472C32.068 21.9492 32.1914 21.9023 32.3006 21.8431C33.0308 21.447 33.1198 20.4343 33.0429 19.5993C33.0328 19.4829 33.0207 19.3625 33.049 19.2502C33.0975 19.0869 33.2189 18.9582 33.322 18.8235Z" fill="#263238"/>
<path d="M30.0697 18.8397C30.104 16.8124 28.844 14.4808 26.8477 13.4886C25.5897 12.8639 24.6087 12.8598 23.9473 12.7822C22.4648 12.6087 21.2694 13.3498 21.2694 13.3498C20.6445 13.4988 18.3509 15.618 18.2315 17.9169C18.1001 20.473 18.0374 23.5967 18.3569 25.4995C19.0001 29.3235 21.9146 29.7808 21.9146 29.7808C21.9146 29.7747 21.6436 36.1384 21.6436 36.1384L27.2441 40.7709L28.9552 33.1638L30.0697 18.8397Z" fill="#FFBF9D"/>
<path d="M21.9126 29.779C21.9126 29.779 24.4853 29.9178 26.9973 28.356C26.9973 28.356 25.6726 31.0713 21.8701 30.7528L21.9126 29.779Z" fill="#FF9A6C"/>
<path d="M29.4973 22.4783C29.4953 22.1924 29.8148 21.5167 30.094 21.4697C30.8383 21.3452 32.1812 21.3901 32.2156 23.3011C32.2601 25.9123 29.7198 25.3304 29.647 25.3447C29.2323 25.4284 29.5054 23.4623 29.4973 22.4783Z" fill="#FFBF9D"/>
<path d="M30.3428 24.3769C30.3549 24.3687 30.3893 24.4075 30.4642 24.4422C30.539 24.4749 30.6664 24.4973 30.8019 24.4442C31.073 24.3381 31.2954 23.8971 31.3015 23.4255C31.3035 23.1866 31.2509 22.962 31.164 22.7762C31.0811 22.5863 30.9577 22.4557 30.8181 22.4332C30.6806 22.4026 30.5855 22.4884 30.5552 22.5618C30.5208 22.6353 30.539 22.6884 30.5248 22.6925C30.5168 22.6986 30.4682 22.6496 30.4884 22.5414C30.4986 22.4884 30.5269 22.4271 30.5875 22.3761C30.6482 22.325 30.7392 22.2964 30.8363 22.3046C31.0366 22.3148 31.2186 22.4965 31.3136 22.7007C31.4208 22.9048 31.4856 23.158 31.4815 23.4255C31.4734 23.9522 31.2166 24.4483 30.8424 24.5647C30.6604 24.6157 30.5087 24.5626 30.4298 24.5034C30.3489 24.4401 30.3347 24.383 30.3428 24.3769Z" fill="#FF9A6C"/>
<path d="M17.6753 17.5294C17.7582 16.5801 18.1324 15.6818 18.5854 14.8467C18.8989 14.269 19.261 13.7055 19.7545 13.2726C20.1671 12.9133 20.6586 12.6581 21.1521 12.4213C22.4486 11.8006 23.8947 11.2739 25.2943 11.5924C26.0447 11.7639 26.7223 12.1661 27.3796 12.5703C27.8832 12.8806 28.3909 13.1971 28.8136 13.6136C29.1837 13.979 29.4831 14.4119 29.744 14.8631C30.371 15.937 30.8119 17.1374 30.8969 18.3808C30.9818 19.6242 31.9142 20.7226 31.1922 21.7332C31.1355 21.8107 29.8512 22.0802 29.7622 22.1149C29.5539 22.1986 29.3233 21.97 29.3253 21.7434C29.3273 21.5167 29.4811 21.3207 29.6489 21.1676C29.3294 21.1574 29.1089 20.796 29.1291 20.4735C29.1494 20.1509 29.3395 19.8671 29.5296 19.6058C29.5539 19.5711 29.5802 19.5364 29.5862 19.4935C29.6004 19.3832 29.477 19.3159 29.382 19.2587C28.9208 18.9831 28.8702 18.2175 29.2889 17.8826C28.672 17.7377 28.2716 16.9884 28.492 16.3902C28.5264 16.2963 28.5749 16.1881 28.5284 16.0983C28.486 16.0105 28.3788 15.9839 28.2857 15.9574C27.6021 15.7532 27.143 14.9733 27.2926 14.271C26.9326 14.2894 26.5686 14.3077 26.2186 14.222C25.8687 14.1363 25.531 13.93 25.3712 13.6054C25.1426 14.0219 24.6916 14.3057 24.2203 14.3322C23.7491 14.3588 23.2718 14.124 23.0007 13.734C22.398 13.7912 21.7811 13.6953 21.2249 13.4564C21.0874 14.024 20.6444 14.5037 20.0963 14.6834C19.9891 14.7181 19.8657 14.7528 19.8152 14.8529C19.7828 14.9162 19.7869 14.9937 19.7909 15.0652C19.8091 15.4306 19.5644 15.5858 19.3641 15.89C19.1659 16.1942 18.818 16.6495 18.4702 16.5474C18.5086 17.1681 18.1789 17.6213 17.6611 17.9561L17.6753 17.5294Z" fill="#263238"/>
<path d="M17.1394 17.0515C17.1394 17.0515 17.1637 16.9433 17.2769 16.7697C17.3315 16.6819 17.4084 16.5799 17.4792 16.4492C17.55 16.3185 17.6046 16.1532 17.6208 15.9592C17.639 15.7673 17.6228 15.5488 17.6046 15.314C17.5864 15.0772 17.5662 14.8159 17.6188 14.5382C17.6673 14.2626 17.7765 13.9768 17.9525 13.7114C18.0395 13.5787 18.1446 13.4541 18.268 13.3398C18.3894 13.2234 18.5309 13.1275 18.6745 13.0295C18.8161 12.9315 18.9597 12.8253 19.0649 12.6844C19.1701 12.5415 19.2368 12.368 19.3056 12.1904C19.4451 11.8331 19.6514 11.4839 19.9245 11.1757C20.1975 10.8674 20.5292 10.5877 20.9196 10.3876C21.1117 10.2814 21.3241 10.21 21.5405 10.1467C21.761 10.0977 21.9875 10.0568 22.2201 10.063C22.3354 10.0609 22.4527 10.0773 22.568 10.0875C22.6833 10.1038 22.7986 10.1283 22.9118 10.1487C23.1404 10.1916 23.373 10.1977 23.6036 10.1426C23.8341 10.0936 24.0607 10.0079 24.2993 9.9466C24.536 9.87923 24.7827 9.83839 25.0315 9.80981C25.2803 9.78123 25.5351 9.78123 25.79 9.79552C26.0448 9.81389 26.2996 9.86085 26.5504 9.93027C27.046 10.0793 27.5294 10.3549 27.8611 10.7857C27.8934 10.8286 27.9258 10.8715 27.9582 10.9143L27.9177 10.898C28.6984 10.7081 29.5176 10.9143 30.1486 11.3329C30.7857 11.7494 31.259 12.3966 31.4127 13.1091L31.3925 13.0825C31.706 13.2295 32.0175 13.3765 32.3047 13.5582C32.5899 13.7379 32.8528 13.9543 33.051 14.2197C33.2472 14.4872 33.3665 14.8016 33.3948 15.1181C33.4252 15.4345 33.3463 15.7612 33.1542 16.0041L33.1521 15.9612C33.5243 16.3328 33.7144 16.8269 33.7589 17.2965C33.8034 17.7681 33.7083 18.2295 33.5 18.597C33.4535 18.6909 33.3888 18.7746 33.3301 18.8563C33.2674 18.9359 33.2047 19.0114 33.1542 19.0911C33.1036 19.1707 33.0712 19.2585 33.0652 19.3483C33.0571 19.4381 33.0672 19.53 33.0753 19.6198C33.1056 19.9792 33.0995 20.314 33.055 20.6121C33.0105 20.9081 32.9276 21.1694 32.8063 21.3695C32.689 21.5716 32.5393 21.7105 32.4078 21.7962C32.2743 21.8861 32.157 21.9228 32.0923 21.9698C32.0256 22.0147 32.0013 22.0514 31.9993 22.0494C31.9993 22.0494 32.0195 22.0106 32.0862 21.9616C32.151 21.9085 32.2683 21.8697 32.3977 21.7799C32.5272 21.6921 32.6708 21.5533 32.782 21.3552C32.8973 21.1572 32.9762 20.8999 33.0186 20.608C33.0591 20.314 33.0631 19.9833 33.0288 19.626C33.0207 19.5361 33.0085 19.4443 33.0166 19.3463C33.0227 19.2483 33.0591 19.1523 33.1117 19.0666C33.1643 18.9808 33.229 18.9053 33.2897 18.8257C33.3463 18.744 33.407 18.6644 33.4535 18.5704C33.6537 18.2111 33.7447 17.762 33.6982 17.3026C33.6537 16.8453 33.4656 16.3634 33.1056 16.0082L33.0854 15.9878L33.1036 15.9653C33.2836 15.7387 33.3564 15.4304 33.3261 15.1262C33.2978 14.822 33.1825 14.5199 32.9923 14.2646C32.8022 14.0094 32.5454 13.7992 32.2642 13.6215C31.9831 13.4439 31.6736 13.299 31.3601 13.152L31.3439 13.1438L31.3399 13.1254C31.1902 12.4333 30.7291 11.8045 30.1061 11.3982C29.4892 10.9899 28.6903 10.7918 27.9339 10.9735L27.9096 10.9797L27.8934 10.9572C27.8631 10.9164 27.8307 10.8755 27.8004 10.8347C27.4829 10.4182 27.0136 10.1487 26.5302 10.0038C26.2855 9.93435 26.0367 9.89148 25.7859 9.87106C25.5351 9.85677 25.2863 9.85677 25.0416 9.88331C24.7969 9.91189 24.5542 9.95068 24.3216 10.0181C24.0869 10.0793 23.8584 10.1651 23.6197 10.2141C23.5004 10.2386 23.379 10.2549 23.2577 10.2549C23.1363 10.2549 23.017 10.2386 22.8997 10.2181C22.7844 10.1977 22.6691 10.1753 22.5559 10.1569C22.4426 10.1467 22.3293 10.1303 22.2161 10.1324C21.9895 10.1263 21.7691 10.1651 21.5547 10.212C21.3443 10.2733 21.136 10.3427 20.9479 10.4468C20.5636 10.6408 20.238 10.9143 19.969 11.2165C19.698 11.5187 19.4957 11.8617 19.3561 12.2108C19.2854 12.3863 19.2186 12.566 19.1053 12.7171C18.9921 12.8682 18.8424 12.9764 18.7008 13.0744C18.5572 13.1724 18.4177 13.2663 18.2983 13.3786C18.179 13.4888 18.0759 13.6113 17.9889 13.74C17.8149 13.9972 17.7077 14.2769 17.6572 14.5464C17.6046 14.8159 17.6208 15.0752 17.637 15.312C17.6531 15.5488 17.6693 15.7673 17.6471 15.9633C17.6309 16.1593 17.5702 16.3287 17.4954 16.4614C17.4205 16.5921 17.3417 16.6921 17.285 16.7779C17.2284 16.8616 17.19 16.931 17.1677 16.978C17.1495 17.0249 17.1414 17.0515 17.1394 17.0515Z" fill="#455A64"/>
<path d="M26.7063 10.3715C26.7023 10.3776 26.6375 10.3327 26.5121 10.2715C26.3867 10.2123 26.1946 10.1367 25.9458 10.1102C25.6991 10.0816 25.3957 10.1061 25.0963 10.2429C24.799 10.3776 24.5118 10.6247 24.3278 10.9575C24.2752 11.0534 24.2307 11.1555 24.2024 11.2535C24.1761 11.3515 24.172 11.4577 24.2226 11.5291L24.2873 11.6169L24.1821 11.5883C23.8949 11.5087 23.5996 11.5659 23.3832 11.6904C23.1627 11.8149 23.0232 12.0068 22.9484 12.1763C22.8715 12.3498 22.8533 12.503 22.8513 12.6071C22.8493 12.7112 22.8573 12.7684 22.8513 12.7704C22.8493 12.7704 22.8452 12.7561 22.8391 12.7296C22.8331 12.703 22.827 12.6622 22.825 12.6071C22.8209 12.5009 22.831 12.3396 22.9039 12.1559C22.9767 11.9742 23.1183 11.768 23.3508 11.6312C23.5794 11.4944 23.8929 11.4291 24.2024 11.5128L24.1619 11.572C24.0891 11.4699 24.0992 11.3392 24.1275 11.231C24.1579 11.1208 24.2044 11.0187 24.261 10.9166C24.4532 10.5675 24.7565 10.3123 25.068 10.1755C25.3835 10.0367 25.7011 10.0183 25.9539 10.0551C26.2087 10.0898 26.4029 10.1755 26.5263 10.2449C26.589 10.2796 26.6355 10.3103 26.6638 10.3348C26.6921 10.3552 26.7083 10.3695 26.7063 10.3715Z" fill="#455A64"/>
<path d="M30.9273 13.3355C30.9314 13.3396 30.901 13.3743 30.8383 13.4294C30.7756 13.4846 30.6806 13.5622 30.5471 13.6377C30.4136 13.7112 30.2396 13.7847 30.0313 13.799C29.827 13.8133 29.5823 13.7684 29.3881 13.6071L29.4448 13.5969C29.4205 13.6316 29.3942 13.6683 29.3699 13.7051C29.3416 13.7398 29.3113 13.7745 29.283 13.8092C29.0949 14.0093 28.8643 14.1481 28.6398 14.2196C28.4153 14.2951 28.2009 14.3155 28.0229 14.3033C27.8449 14.291 27.7074 14.2481 27.6143 14.2134C27.5233 14.1726 27.4768 14.1461 27.4788 14.142C27.4849 14.1256 27.6791 14.2359 28.0249 14.2481C28.1968 14.2543 28.4011 14.2277 28.6155 14.1522C28.8279 14.0787 29.0463 13.946 29.2263 13.7561C29.2546 13.7234 29.283 13.6908 29.3093 13.6581C29.3335 13.6234 29.3578 13.5887 29.38 13.556L29.4043 13.5193L29.4367 13.5458C29.6106 13.6908 29.8351 13.7377 30.0273 13.7275C30.2214 13.7194 30.3913 13.6561 30.5228 13.5907C30.7857 13.4539 30.9192 13.3253 30.9273 13.3355Z" fill="#455A64"/>
<path d="M32.3148 15.7468C32.3168 15.7468 32.3148 15.7631 32.3087 15.7958C32.3006 15.8264 32.2844 15.8713 32.2521 15.9224C32.1894 16.0244 32.0478 16.151 31.8374 16.2061C31.6251 16.2633 31.3601 16.2225 31.0972 16.1306C30.9657 16.0836 30.8282 16.0367 30.6866 15.9714C30.5491 15.906 30.4014 15.8101 30.3266 15.6447C30.3205 15.6304 30.3144 15.6161 30.3104 15.6018L30.3711 15.6202C30.1243 15.8182 29.8675 15.9918 29.6065 16.0918C29.3477 16.1959 29.0867 16.2143 28.8804 16.1735C28.6721 16.1347 28.5184 16.0489 28.4314 15.9714C28.3869 15.9346 28.3546 15.8999 28.3364 15.8754C28.3182 15.8509 28.308 15.8366 28.3101 15.8366C28.3161 15.8325 28.3566 15.8815 28.4476 15.9489C28.5386 16.0163 28.6883 16.0918 28.8865 16.1204C29.0847 16.151 29.3294 16.1286 29.5782 16.0265C29.827 15.9264 30.0738 15.757 30.3205 15.561L30.361 15.5283L30.3812 15.5794C30.3852 15.5896 30.3893 15.6018 30.3953 15.6141C30.456 15.7488 30.5875 15.8386 30.7169 15.9019C30.8484 15.9652 30.988 16.0142 31.1174 16.0612C31.3743 16.1551 31.623 16.198 31.8213 16.151C32.0215 16.1061 32.157 15.9959 32.2238 15.904C32.2966 15.8121 32.3067 15.7447 32.3148 15.7468Z" fill="#455A64"/>
<path d="M23.9594 21.051C23.9432 21.3062 24.1415 21.5308 24.4044 21.5533C24.6673 21.5757 24.8938 21.3879 24.9121 21.1347C24.9282 20.8795 24.73 20.655 24.4671 20.6325C24.2042 20.608 23.9756 20.7979 23.9594 21.051Z" fill="#263238"/>
<path d="M19.3217 20.9223C19.3055 21.1775 19.5038 21.4021 19.7667 21.4246C20.0296 21.447 20.2562 21.2592 20.2744 21.006C20.2905 20.7508 20.0923 20.5262 19.8294 20.5038C19.5665 20.4813 19.3379 20.6691 19.3217 20.9223Z" fill="#263238"/>
<path d="M19.1316 19.32C19.1882 19.3853 19.5604 19.126 20.0741 19.1444C20.5879 19.1546 20.958 19.4343 21.0166 19.373C21.045 19.3465 20.9883 19.2301 20.8285 19.1036C20.6708 18.977 20.3977 18.8524 20.0761 18.8422C19.7546 18.8341 19.4815 18.9443 19.3237 19.0607C19.1619 19.1791 19.1033 19.2914 19.1316 19.32Z" fill="#263238"/>
<path d="M24.2527 19.579C24.3174 19.6383 24.6593 19.3422 25.173 19.3055C25.6867 19.2626 26.0811 19.5015 26.1337 19.4341C26.158 19.4035 26.0912 19.2953 25.9173 19.185C25.7474 19.0768 25.4642 18.9788 25.1426 19.0033C24.8231 19.0278 24.5622 19.1666 24.4145 19.2993C24.2689 19.4361 24.2224 19.5545 24.2527 19.579Z" fill="#263238"/>
<path d="M22.3333 23.4826C22.3373 23.454 22.0177 23.3867 21.502 23.303C21.3705 23.2846 21.2471 23.254 21.2289 23.1641C21.2006 23.0682 21.2613 22.9253 21.3301 22.7742C21.4636 22.4577 21.6031 22.1249 21.7508 21.7758C22.3373 20.3548 22.7661 19.1829 22.7074 19.1605C22.6508 19.138 22.129 20.2711 21.5445 21.6921C21.4029 22.0433 21.2674 22.3761 21.1399 22.6966C21.0853 22.8456 20.9943 23.0151 21.055 23.2152C21.0874 23.3152 21.1824 23.3907 21.2653 23.4173C21.3483 23.4459 21.4231 23.45 21.4878 23.4561C22.0056 23.4989 22.3292 23.5112 22.3333 23.4826Z" fill="#263238"/>
<path d="M23.1302 24.2543C23.3223 24.2809 23.5165 24.3829 23.6278 24.5463C23.741 24.7096 23.8219 25.0914 23.7107 25.2384C23.6156 25.365 23.1909 25.365 22.8976 25.3282C22.7621 25.3119 22.6488 25.2159 22.6043 25.0853L22.489 24.7504C22.4223 24.5585 22.5214 24.3442 22.7135 24.2849C22.843 24.2421 22.9866 24.2339 23.1302 24.2543Z" fill="#FF9A6C"/>
<path d="M24.0182 17.6824C24.0951 17.811 24.5865 17.6457 25.1933 17.6028C25.8001 17.5456 26.3118 17.6273 26.3664 17.4864C26.3907 17.419 26.2815 17.3068 26.063 17.2088C25.8446 17.1128 25.5149 17.0454 25.1508 17.074C24.7868 17.1046 24.4713 17.2251 24.2731 17.3578C24.0728 17.4905 23.9838 17.6212 24.0182 17.6824Z" fill="#263238"/>
<path d="M19.2591 18.4664C19.3663 18.5808 19.7749 18.448 20.2684 18.4297C20.7619 18.395 21.1826 18.4848 21.2756 18.3582C21.3161 18.297 21.2473 18.1806 21.0613 18.0744C20.8772 17.9683 20.5738 17.8846 20.236 17.9029C19.8963 17.9213 19.605 18.0356 19.4371 18.1622C19.2652 18.2868 19.2106 18.4113 19.2591 18.4664Z" fill="#263238"/>
<path d="M37.003 40.0525L32.1448 57.8412L33.8498 62.9391C27.4342 65.7933 18.1607 66.6998 10.8491 63.1249C10.8491 63.1249 13.3328 55.771 13.4178 54.3377C13.5027 52.9066 12.8919 44.542 13.5675 41.7368C14.243 38.9316 16.1786 32.921 16.1786 32.921L21.8701 32.0084C24.4792 33.4233 26.1499 33.6336 28.9552 31.9941L34.2564 33.162L37.003 40.0525Z" fill="#FFCC66"/>
<path d="M16.2636 32.9128C16.2636 32.9128 13.2075 33.2394 11.9777 35.7772C10.7622 38.2843 7.38852 49.3765 7.20446 51.2303C7.02041 53.0841 8.51104 55.579 9.80954 55.922L13.7475 51.9592L17.0139 52.2532L21.316 31.9961L16.2636 32.9128Z" fill="#FFCC66"/>
<path d="M13.9558 39.728C13.0052 42.2168 12.7362 44.9648 13.1872 47.5924C12.4692 47.3229 11.7532 47.0514 11.0352 46.7819C11.6218 47.5985 12.3924 48.2804 13.2702 48.7602C12.6897 48.5907 12.095 48.4192 11.4923 48.4601C10.8896 48.4989 10.2666 48.7929 9.99561 49.338C10.6995 49.2073 11.4155 49.0787 12.1254 49.1624C12.8353 49.2461 13.5513 49.5769 13.9336 50.1873C13.4036 47.8762 13.1994 45.4895 13.3288 43.1212" fill="#263238"/>
<g opacity="0.3">
<path d="M13.0639 54.9829L29.1009 56.5876C27.944 56.5631 27.0561 57.5513 26.0549 58.1352C24.2022 59.2173 21.8945 58.9151 19.7789 58.5782C18.0273 58.3006 16.2738 58.0209 14.5222 57.7432C14.0793 57.6738 13.608 57.588 13.2824 57.2797C12.6999 56.7244 12.8596 55.7649 13.0639 54.9829Z" fill="black"/>
</g>
<path d="M25.3127 53.6516L27.9987 51.0343C28.2596 50.7811 28.6156 50.6545 28.9776 50.6872C29.7442 50.7607 31.0426 50.8954 31.3096 51.0016C31.6939 51.1527 32.056 51.3671 32.1632 51.561C32.2703 51.755 32.6324 52.9187 32.6546 53.0902C32.6647 53.1739 32.6405 53.4148 32.6122 53.6414C32.5778 53.9089 32.2865 54.0661 32.056 53.9334C31.9508 53.8742 31.8557 53.7945 31.8031 53.6925C31.6332 53.3699 31.6535 53.2392 31.6535 53.2392C31.6535 53.2392 31.7384 54.403 30.7999 54.4234C30.7999 54.4234 31.2328 55.4136 30.0233 55.8239C30.0233 55.8239 30.0678 56.4691 29.0565 56.5569C28.0452 56.6426 27.129 56.5569 27.129 56.5569C27.129 56.5569 25.2824 57.8962 23.9798 57.9819C22.6773 58.0677 19.7648 57.494 19.7648 57.494L19.4128 52.0755L25.3127 53.6516Z" fill="#FFBF9D"/>
<path d="M28.9512 51.992C28.9472 52.0022 29.1131 52.0716 29.3821 52.1737C29.6511 52.2758 30.0273 52.4105 30.452 52.5248C30.6623 52.5861 30.8747 52.6188 31.0527 52.6678C31.2327 52.7168 31.3399 52.8515 31.4188 52.9699C31.4977 53.0904 31.5583 53.1925 31.613 53.2537C31.6655 53.317 31.704 53.3435 31.706 53.3395C31.71 53.3354 31.6797 53.3027 31.6352 53.2353C31.5887 53.17 31.5361 53.0659 31.4613 52.9413C31.4228 52.878 31.3783 52.8107 31.3156 52.7474C31.2529 52.6841 31.168 52.633 31.0729 52.6024C30.8848 52.5473 30.6826 52.5126 30.4702 52.4513C30.0475 52.337 29.6713 52.2104 29.3982 52.1206C29.1232 52.0348 28.9533 51.9818 28.9512 51.992Z" fill="#FF9A6C"/>
<path d="M28.6053 53.652C28.6013 53.6622 28.7166 53.7153 28.9047 53.7908C29.0928 53.8664 29.3557 53.9664 29.649 54.0644C29.9423 54.1645 30.2113 54.2441 30.4074 54.2972C30.6036 54.3502 30.727 54.3768 30.729 54.3666C30.7311 54.3564 30.6137 54.3135 30.4216 54.2482C30.2032 54.1747 29.9503 54.0889 29.6712 53.995C29.3921 53.9011 29.1393 53.8153 28.9209 53.7418C28.7287 53.6806 28.6074 53.6438 28.6053 53.652Z" fill="#FF9A6C"/>
<path d="M27.9399 55.1971C27.9379 55.2196 28.4072 55.2686 28.9654 55.4217C29.5256 55.5728 29.9565 55.7688 29.9645 55.7484C29.9686 55.7402 29.8654 55.6789 29.6915 55.6014C29.5155 55.5217 29.2688 55.4278 28.9856 55.3502C28.7025 55.2727 28.4415 55.2298 28.2514 55.2073C28.0613 55.189 27.942 55.189 27.9399 55.1971Z" fill="#FF9A6C"/>
<path d="M21.7206 57.8412L9.80762 55.9221C9.80762 55.9221 11.2396 49.8911 13.3269 49.8911C13.6323 49.8911 24.2144 53.3619 24.2144 53.3619L21.7206 57.8412Z" fill="#FFCC66"/>
<path d="M23.8059 55.2156C23.814 55.2217 23.9172 55.1217 24.085 54.9583C24.2691 54.7766 24.4916 54.5561 24.7363 54.3132C24.9891 54.06 25.2156 53.8252 25.3734 53.6517C25.5312 53.4781 25.6242 53.3638 25.6161 53.3577C25.608 53.3516 25.5049 53.4516 25.337 53.6149C25.1529 53.7966 24.9305 54.0171 24.6857 54.2601C24.4329 54.5132 24.2084 54.748 24.0486 54.9216C23.8909 55.0951 23.7978 55.2074 23.8059 55.2156Z" fill="#FF9A6C"/>
<path d="M24.2165 53.3599C24.2144 53.366 24.1618 53.3558 24.0648 53.3313C23.9474 53.3007 23.8079 53.2619 23.64 53.2169C23.2476 53.1026 22.7238 52.9515 22.0887 52.7657C20.7801 52.3778 18.976 51.8307 16.9857 51.2161C15.8834 50.8732 14.8398 50.5485 13.9135 50.2586L13.8892 50.2505L13.871 50.226C13.5069 49.7298 12.9669 49.4277 12.4815 49.2786C11.988 49.1276 11.5268 49.1092 11.1526 49.1418C10.7785 49.1725 10.4892 49.2562 10.2951 49.3154C10.1009 49.3787 9.99977 49.4236 9.99573 49.4154C9.99168 49.4073 10.0867 49.3481 10.2769 49.2684C10.469 49.1929 10.7582 49.0949 11.1425 49.05C11.5228 49.001 12.0001 49.0071 12.5159 49.1541C13.0276 49.3052 13.5878 49.5971 13.9964 50.1402L13.9539 50.1075C14.8823 50.3913 15.9279 50.7119 17.0302 51.0487C19.0205 51.6633 20.8185 52.2288 22.117 52.6473C22.746 52.8535 23.2638 53.023 23.6542 53.1496C23.818 53.2067 23.9555 53.2557 24.0688 53.2945C24.1699 53.3333 24.2185 53.3537 24.2165 53.3599Z" fill="#263238"/>
<path d="M21.4433 33.9131C21.5424 33.5783 22.1027 30.4893 22.3292 29.7707C22.6508 28.756 25.2599 26.9451 25.2599 26.9451C25.2599 26.9451 24.8514 25.9937 23.7389 26.4877C22.4243 27.0737 21.773 28.0598 21.4413 27.8577C21.1096 27.6576 19.0445 25.5343 18.4802 25.6017C17.918 25.669 17.7926 26.2529 17.9928 26.4857C18.191 26.7205 18.4155 27.1063 18.4155 27.1063C18.4155 27.1063 17.2222 26.745 17.4548 28.0618C17.4548 28.0618 16.0956 27.2064 16.2291 29.0132C16.2291 29.0132 15.3351 28.6457 15.1349 29.2807C14.9367 29.9156 15.5253 30.6527 15.8246 31.1529C16.1219 31.6551 17.0907 34.5644 17.0907 34.5644L17.1029 37.1308L21.8539 36.1446L21.4433 33.9131Z" fill="#FFBF9D"/>
<path d="M21.4433 33.9132C21.4473 33.9132 21.4595 33.9642 21.4817 34.0602C21.504 34.1684 21.5343 34.3093 21.5707 34.491C21.6476 34.8789 21.7548 35.4322 21.8923 36.1386L21.9004 36.1774L21.862 36.1855C20.6889 36.4346 19.0668 36.7817 17.117 37.1961L17.0381 37.2125V37.1308C17.0321 36.3407 17.026 35.4771 17.0199 34.5645L17.024 34.5869C16.6842 33.6008 16.3322 32.5392 15.8893 31.4653C15.6729 30.9487 15.2218 30.4996 15.06 29.8728C15.0196 29.7176 15.0014 29.5502 15.0277 29.3828C15.052 29.2215 15.1288 29.0378 15.2845 28.9357C15.4383 28.8336 15.6183 28.8112 15.7821 28.8234C15.948 28.8357 16.1057 28.8724 16.2635 28.9316L16.1482 29.0174C16.1421 28.8418 16.134 28.6621 16.1603 28.4763C16.1927 28.2967 16.2331 28.0945 16.3869 27.9435C16.5365 27.7842 16.7711 27.7495 16.9613 27.7842C17.1575 27.8169 17.3334 27.8863 17.5033 27.9884L17.3739 28.0762C17.3415 27.8332 17.3011 27.5392 17.4629 27.2718C17.564 27.1044 17.7521 27.0084 17.926 26.9839C18.104 26.9574 18.2739 26.9757 18.4438 27.0207L18.3447 27.1472C18.2254 26.9472 18.0979 26.745 17.9564 26.5674C17.8654 26.4755 17.8168 26.3142 17.8229 26.1836C17.8289 26.0488 17.8755 25.9182 17.9523 25.8079C18.0292 25.6977 18.1384 25.614 18.2598 25.567C18.3204 25.5446 18.3831 25.5262 18.4458 25.518C18.5065 25.5098 18.5915 25.5201 18.6521 25.5364C18.8969 25.616 19.0829 25.7548 19.271 25.8875C20.0113 26.4347 20.6464 27.0615 21.2875 27.627C21.3644 27.6903 21.4574 27.7801 21.5141 27.7944C21.5707 27.8128 21.6678 27.7679 21.7487 27.7189C21.9186 27.6127 22.0804 27.4759 22.2422 27.3494C22.5658 27.0901 22.9016 26.8471 23.2535 26.647C23.6034 26.4612 23.9715 26.255 24.3861 26.2714C24.8028 26.2795 25.1608 26.5592 25.3266 26.9124L25.3509 26.9635L25.3024 26.9982C24.285 27.7271 23.3708 28.4457 22.7256 29.2195C22.5638 29.4134 22.4384 29.6196 22.3676 29.8381C22.3009 30.0627 22.2503 30.2873 22.1997 30.5016C22.1067 30.9304 22.0197 31.3264 21.9429 31.6817C21.7932 32.3861 21.6759 32.9414 21.593 33.3334C21.5505 33.5232 21.5181 33.6682 21.4918 33.7642C21.4655 33.8662 21.4433 33.9132 21.4433 33.9132C21.4392 33.9132 21.4514 33.8622 21.4696 33.7642C21.4898 33.656 21.5161 33.511 21.5505 33.3293C21.6253 32.9353 21.7285 32.3779 21.862 31.6694C21.9348 31.3101 22.0157 30.914 22.1026 30.4833C22.1492 30.2668 22.1977 30.0423 22.2645 29.8116C22.3373 29.5747 22.4728 29.3522 22.6346 29.1542C23.2899 28.3559 24.2001 27.6311 25.2215 26.8879L25.1972 26.9737C25.0516 26.6715 24.736 26.4265 24.3801 26.4225C24.0221 26.4061 23.6701 26.598 23.3283 26.7838C22.9865 26.9798 22.6629 27.2166 22.3413 27.478C22.1775 27.6066 22.0197 27.7434 21.8316 27.8618C21.7366 27.9128 21.6294 27.9884 21.4736 27.9557C21.328 27.9006 21.2734 27.823 21.1824 27.7536C20.5352 27.184 19.9001 26.5613 19.174 26.0284C18.994 25.8998 18.8018 25.7671 18.6056 25.7038C18.5571 25.6936 18.5227 25.6854 18.4721 25.6915C18.4216 25.6977 18.371 25.714 18.3245 25.7303C18.2314 25.7671 18.1485 25.8304 18.0919 25.9141C17.9766 26.0754 17.9483 26.3204 18.0878 26.4633C18.2416 26.6552 18.369 26.8553 18.4924 27.0656L18.5995 27.2473L18.3932 27.1921C18.1162 27.1166 17.7521 27.1248 17.6065 27.3698C17.4851 27.5576 17.5094 27.8251 17.5417 28.0496L17.568 28.2293L17.4123 28.1374C17.2667 28.0517 17.0968 27.9843 16.935 27.9578C16.7711 27.9292 16.6073 27.9578 16.5062 28.068C16.2958 28.2967 16.3019 28.6846 16.3161 29.0072L16.3221 29.1378L16.2008 29.0929C15.9338 28.9949 15.598 28.9357 15.3816 29.0786C15.2744 29.148 15.2178 29.2746 15.1935 29.4134C15.1713 29.5502 15.1854 29.6952 15.2218 29.834C15.2947 30.1137 15.4403 30.375 15.594 30.6262C15.7457 30.8752 15.9277 31.1223 16.039 31.404C16.4839 32.4922 16.8298 33.5498 17.1655 34.542L17.1696 34.5543V34.5665C17.1716 35.4771 17.1716 36.3427 17.1736 37.1328L17.0948 37.0675C19.0486 36.6735 20.6747 36.3448 21.8498 36.1079L21.8195 36.1549C21.6981 35.4424 21.601 34.885 21.5343 34.493C21.506 34.3113 21.4817 34.1684 21.4655 34.0622C21.4453 33.9642 21.4392 33.9132 21.4433 33.9132Z" fill="#FF9A6C"/>
<path d="M18.4215 27.1389C18.4094 27.1552 18.6764 27.3859 18.998 27.682C19.3196 27.976 19.5724 28.225 19.5886 28.2107C19.6027 28.1985 19.3701 27.9249 19.0465 27.6289C18.7229 27.3308 18.4317 27.1246 18.4215 27.1389Z" fill="#FF9A6C"/>
<path d="M17.3576 27.9906C17.3415 27.9987 17.4426 28.258 17.6509 28.5255C17.8572 28.795 18.0817 28.9603 18.0918 28.944C18.106 28.9277 17.9078 28.7439 17.7075 28.4805C17.5053 28.2192 17.3779 27.9803 17.3576 27.9906Z" fill="#FF9A6C"/>
<path d="M16.2474 28.9479C16.2312 28.9602 16.3425 29.1439 16.4962 29.3583C16.6499 29.5747 16.7874 29.738 16.8036 29.7278C16.8198 29.7156 16.7086 29.5318 16.5548 29.3174C16.4011 29.101 16.2636 28.9357 16.2474 28.9479Z" fill="#FF9A6C"/>
<path d="M34.6387 32.9966L29.5297 38.1415L24.2872 44.789L22.2019 35.9304L16.8765 37.0349C16.8765 37.0349 17.2527 47.041 18.8909 51.5754C19.2024 52.439 20.1247 53.0801 20.5373 53.2781C23.1121 54.5133 25.6261 52.6024 25.6261 52.6024C25.6261 52.6024 36.368 45.3239 37.533 40.4526C38.0832 38.1517 37.8627 35.4159 36.9262 34.291C36.1031 33.3028 34.6387 32.9966 34.6387 32.9966Z" fill="#FFCC66"/>
<path d="M37.533 40.4549C37.533 40.4549 37.5209 40.5079 37.4926 40.6121C37.4582 40.7142 37.4319 40.8734 37.349 41.0674C37.2134 41.4655 36.9364 42.0249 36.5055 42.6945C36.0727 43.3642 35.476 44.138 34.7176 44.9771C33.9571 45.8121 33.0449 46.7206 31.9851 47.6679C30.9293 48.6173 29.7299 49.6095 28.4072 50.6283C27.7458 51.1367 27.054 51.6532 26.33 52.1697C26.1479 52.2984 25.9659 52.427 25.7798 52.5556C25.5978 52.6822 25.4057 52.8169 25.2074 52.9292C24.809 53.1579 24.3822 53.3498 23.9312 53.4907C23.0372 53.7826 22.0259 53.8418 21.0773 53.5458C20.956 53.5172 20.8468 53.458 20.7295 53.4151C20.6142 53.3682 20.4969 53.3253 20.3876 53.26C20.1672 53.1375 19.9629 52.9884 19.7667 52.8271C19.3824 52.5005 19.0325 52.1003 18.8444 51.6063C18.5046 50.6324 18.2599 49.6136 18.0455 48.5744C17.8493 47.5312 17.6693 46.4695 17.5318 45.3895C17.1556 42.5067 16.9432 39.6974 16.8218 37.0392L16.8198 36.9963L16.8623 36.9882C18.721 36.6043 20.5029 36.2348 22.1898 35.8857L22.2343 35.8755L22.2444 35.9204C23.0312 39.285 23.733 42.2801 24.3175 44.7811L24.2568 44.7647C26.0549 42.8109 27.499 41.2429 28.4961 40.1609C28.9937 39.6239 29.38 39.2074 29.6429 38.9236C29.7724 38.7848 29.8715 38.6786 29.9423 38.6051C30.009 38.5337 30.0454 38.499 30.0454 38.499C30.0454 38.499 30.0131 38.5378 29.9484 38.6113C29.8816 38.6868 29.7845 38.795 29.6571 38.9359C29.3962 39.2238 29.0159 39.6443 28.5245 40.1854C27.5334 41.2736 26.0974 42.8477 24.3094 44.8117L24.2629 44.8627L24.2467 44.7954C23.6561 42.2964 22.9462 39.3034 22.1513 35.9408L22.2059 35.9755C20.5191 36.3267 18.7392 36.6962 16.8805 37.0841L16.921 37.0311C17.0443 39.6872 17.2587 42.4945 17.6329 45.3711C17.7684 46.4511 17.9484 47.5087 18.1446 48.5499C18.359 49.585 18.6017 50.6018 18.9375 51.5654C19.1154 52.035 19.4532 52.4249 19.8274 52.7434C20.0175 52.9006 20.2177 53.0476 20.4301 53.1661C20.5333 53.2273 20.6506 53.2681 20.7618 53.3151C20.8751 53.3559 20.9843 53.4151 21.1016 53.4437C22.028 53.7336 23.017 53.6785 23.8968 53.3927C24.3398 53.2538 24.7605 53.066 25.1549 52.8414C25.3531 52.7291 25.5331 52.6026 25.7212 52.4719C25.9052 52.3433 26.0893 52.2147 26.2693 52.0881C26.9934 51.5736 27.6851 51.0611 28.3465 50.5528C29.6692 49.5381 30.8707 48.552 31.9264 47.6067C32.9883 46.6655 33.9025 45.7631 34.665 44.9322C35.4255 44.0992 36.0242 43.3315 36.461 42.668C36.8939 42.0024 37.177 41.4491 37.3186 41.0551C37.4056 40.8632 37.4339 40.706 37.4723 40.6039C37.5148 40.5059 37.533 40.4549 37.533 40.4549Z" fill="#263238"/>
<path d="M25.256 48.8581C25.2378 48.854 25.3005 48.5988 25.3329 48.1782C25.3531 47.9679 25.3491 47.7168 25.3349 47.4412C25.3127 47.1635 25.2662 46.8614 25.1873 46.5511C25.0295 45.9284 24.7646 45.4057 24.5522 45.0443C24.3358 44.685 24.174 44.4768 24.1881 44.4666C24.1942 44.4625 24.2387 44.5094 24.3155 44.6013C24.3944 44.6911 24.4955 44.83 24.6149 45.0055C24.8475 45.3608 25.1286 45.8896 25.2904 46.5245C25.3713 46.841 25.4138 47.1513 25.432 47.4351C25.4421 47.7189 25.436 47.9741 25.4077 48.1864C25.3814 48.3987 25.3491 48.5682 25.3167 48.6825C25.2844 48.7969 25.2641 48.8601 25.256 48.8581Z" fill="#263238"/>
<path d="M24.5298 24.7609C24.5197 24.7895 24.4105 24.7772 24.2426 24.7425C24.0748 24.7098 23.8482 24.6568 23.5994 24.6384C23.3486 24.618 23.1241 24.6363 22.9704 24.6772C22.8127 24.7139 22.7459 24.7793 22.7196 24.769C22.7075 24.7629 22.7075 24.7282 22.7399 24.6813C22.7702 24.6343 22.8329 24.5812 22.9158 24.5383C23.0837 24.4506 23.3426 24.4056 23.6156 24.4281C23.8907 24.4506 24.1273 24.5302 24.2871 24.6016C24.4489 24.6731 24.5379 24.7343 24.5298 24.7609Z" fill="#263238"/>
<g opacity="0.3">
<path d="M32.6445 57.5617C32.6445 57.5617 30.3064 57.2717 29.0484 57.0757C28.3607 56.9675 27.313 56.8573 27.1148 56.6633C26.868 56.4224 26.8701 56.0202 26.8438 55.6752C26.3968 49.7851 28.4032 43.4152 34.6044 39.6157L36.186 40.0363L36.0829 43.8725L32.6445 57.5617Z" fill="black"/>
</g>
<path d="M69.1964 11.6617C69.9892 11.7331 70.7881 11.1268 70.9378 10.3367C71.0875 9.54655 70.5697 8.68498 69.8072 8.45428C70.2865 7.93366 70.3897 7.09455 70.0519 6.47186C69.7121 5.84712 68.9577 5.48575 68.264 5.61437C68.2175 4.91409 67.7866 4.25056 67.1677 3.93003C66.5488 3.60949 65.7641 3.6442 65.1735 4.01577C64.3887 3.36858 63.1489 3.3747 62.3702 4.02802C61.6926 3.91778 60.9645 4.29956 60.6611 4.92226C60.3598 5.54496 60.5074 6.35957 61.009 6.83322" fill="#263238"/>
<path d="M62.0606 5.65556L62.4186 5.64739C66.0127 5.56369 69.0668 8.27701 69.441 11.8866C69.7868 15.2431 70.1266 18.9568 70.1469 20.7616C70.1873 24.4978 66.5002 25.1654 66.5002 25.1654L66.9168 29.6468L57.9285 29.5773L56.7574 13.3198C56.3347 9.44687 58.2157 5.97201 62.0606 5.65556Z" fill="#FFBF9D"/>
<path d="M66.5021 25.1633C66.5021 25.1633 63.9213 25.3573 61.3992 23.8403C61.3992 23.8403 62.9019 26.5639 66.5871 26.1412L66.5021 25.1633Z" fill="#FF9A6C"/>
<path d="M68.3083 15.9392C68.3244 16.221 68.102 16.4659 67.8107 16.4884C67.5194 16.5109 67.2707 16.3026 67.2545 16.0209C67.2383 15.7391 67.4608 15.4921 67.75 15.4696C68.0413 15.4492 68.2921 15.6595 68.3083 15.9392Z" fill="#263238"/>
<path d="M68.6845 13.732C68.6198 13.8034 68.2132 13.5135 67.6449 13.5278C67.0766 13.534 66.666 13.8402 66.6033 13.7708C66.5729 13.7402 66.6356 13.6136 66.8156 13.4747C66.9916 13.338 67.293 13.2012 67.6489 13.195C68.0029 13.1889 68.3043 13.3135 68.4782 13.4441C68.6542 13.5748 68.7169 13.6993 68.6845 13.732Z" fill="#263238"/>
<path d="M63.4118 15.9392C63.4279 16.221 63.2055 16.4659 62.9142 16.4884C62.623 16.5109 62.3742 16.3026 62.358 16.0209C62.3418 15.7391 62.5643 15.4941 62.8556 15.4696C63.1448 15.4492 63.3936 15.6595 63.4118 15.9392Z" fill="#263238"/>
<path d="M63.0981 13.9712C63.0333 14.0427 62.6268 13.7528 62.0585 13.7671C61.4901 13.7732 61.0795 14.0795 61.0168 14.01C60.9865 13.9794 61.0492 13.8528 61.2292 13.714C61.4052 13.5772 61.7065 13.4404 62.0605 13.4343C62.4144 13.4282 62.7158 13.5527 62.8897 13.6834C63.0657 13.814 63.1284 13.9386 63.0981 13.9712Z" fill="#263238"/>
<path d="M65.2604 18.1786C65.2563 18.146 65.6082 18.0766 66.1806 17.9888C66.3263 17.9704 66.4618 17.9377 66.484 17.8377C66.5164 17.7315 66.4517 17.5743 66.3768 17.4049C66.2312 17.0537 66.0815 16.6842 65.9217 16.2983C65.2887 14.7222 64.8275 13.4257 64.8902 13.4012C64.9529 13.3767 65.5172 14.6323 66.1503 16.2085C66.302 16.5964 66.4496 16.968 66.5872 17.3212C66.6458 17.4865 66.7449 17.6723 66.6762 17.8949C66.6398 18.0051 66.5346 18.0868 66.4415 18.1154C66.3485 18.146 66.2676 18.1501 66.1948 18.1562C65.6204 18.2011 65.2624 18.2113 65.2604 18.1786Z" fill="#263238"/>
<path d="M63.2176 12.785C63.1468 12.932 62.6553 12.785 62.0546 12.7809C61.4539 12.7625 60.9523 12.887 60.8936 12.738C60.8673 12.6665 60.9725 12.5338 61.1849 12.4113C61.3972 12.2888 61.7208 12.1929 62.0809 12.199C62.4409 12.2072 62.7564 12.3174 62.9566 12.4481C63.1589 12.5788 63.2499 12.7155 63.2176 12.785Z" fill="#263238"/>
<path d="M68.6583 11.364C68.541 11.4967 68.0698 11.3722 67.5055 11.3803C66.9412 11.3701 66.4659 11.4926 66.3526 11.3579C66.3021 11.2925 66.3749 11.1598 66.5812 11.0312C66.7834 10.9026 67.1252 10.7944 67.5136 10.7964C67.9019 10.7985 68.2397 10.9087 68.4399 11.0373C68.6401 11.168 68.7089 11.3007 68.6583 11.364Z" fill="#263238"/>
<path d="M69.0426 10.1818C69.0426 10.1818 68.0131 7.86452 66.8825 7.34595C65.5152 6.71713 64.9671 8.22997 63.6686 7.89515C62.3701 7.56236 61.0655 6.95804 59.7711 7.99519C58.3553 9.13033 59.047 9.88778 58.9965 11.5456C58.7902 18.2748 57.6191 20.2021 57.2004 17.0457C57.1539 16.7007 56.1952 16.4455 56.0192 14.9837C55.7927 13.0891 55.6673 10.782 56.0556 9.42433C56.3833 8.27897 57.0062 7.47865 58.1389 6.58646C59.9248 5.17774 62.4187 5.08995 64.1176 5.22061C65.8166 5.35536 69.1295 7.24795 69.0426 10.1818Z" fill="#263238"/>
<path d="M57.4329 16.9396C57.3965 16.3639 56.8929 15.9209 56.3266 15.9882C55.6389 16.0699 54.8784 16.4843 54.9573 17.9237C55.0969 20.4757 57.6069 19.8081 57.6069 19.7346C57.6069 19.6836 57.5017 18.0074 57.4329 16.9396Z" fill="#FFBF9D"/>
<path d="M57.0043 18.8038C56.9921 18.7956 56.9618 18.8364 56.889 18.8752C56.8182 18.912 56.6948 18.9426 56.5593 18.8997C56.2862 18.816 56.0375 18.3995 56.0011 17.9402C55.9829 17.7074 56.0172 17.4849 56.0901 17.297C56.1568 17.1051 56.2701 16.9683 56.4015 16.9377C56.533 16.8989 56.6341 16.9745 56.6685 17.0459C56.7069 17.1153 56.6928 17.1664 56.7069 17.1705C56.715 17.1766 56.7595 17.1255 56.7332 17.0194C56.7191 16.9683 56.6867 16.9112 56.624 16.8642C56.5613 16.8173 56.4703 16.7968 56.3773 16.8132C56.1831 16.8377 56.0172 17.0276 55.9384 17.2338C55.8494 17.442 55.8028 17.6931 55.8251 17.9545C55.8696 18.4669 56.1568 18.9344 56.5269 19.0202C56.7069 19.0569 56.8526 18.9957 56.9254 18.9304C57.0043 18.865 57.0144 18.8079 57.0043 18.8038Z" fill="#FF9A6C"/>
<path d="M57.3683 11.9905C57.702 12.209 58.054 12.4336 58.4524 12.4642C58.8488 12.4948 59.2958 12.2539 59.3545 11.8558C59.3808 11.6782 59.3322 11.472 59.4455 11.3311C59.579 11.1637 59.8359 11.2086 60.0482 11.227C60.7865 11.2882 61.6258 10.4471 61.7978 9.72025C61.9919 9.99995 62.4045 10.0755 62.6836 9.88358C62.9628 9.69167 63.0639 9.58346 63.2803 9.32213C63.4967 9.0608 63.8021 8.82397 64.1379 8.86276C64.326 8.88522 64.504 8.99343 64.69 8.97301C65.0217 8.93626 65.1755 8.53815 65.2179 8.20536C65.2604 7.87053 65.2907 7.48262 65.5678 7.29479C65.8247 7.12125 66.1645 7.20904 66.4719 7.24783C66.7794 7.28663 67.1717 7.20496 67.2425 6.90076C67.281 6.74151 67.2081 6.57614 67.1192 6.43935C66.7106 5.82278 65.8449 5.56553 65.1694 5.85953C64.9024 5.02246 64.1055 4.38343 63.2358 4.31197C62.3661 4.24051 61.4782 4.73867 61.0777 5.52266C60.5316 5.04492 59.7509 4.85913 59.0491 5.03675C58.3493 5.21641 57.7486 5.7554 57.4937 6.43731C56.8748 6.28827 56.179 6.54551 55.8008 7.06205C55.4226 7.57858 55.3842 8.32582 55.7078 8.8791C55.2588 9.15268 54.8806 9.61817 54.8826 10.147C54.8846 10.6757 55.4084 11.1902 55.91 11.0391C55.7159 11.4556 55.8939 12.011 56.2943 12.2315C56.6948 12.452 57.253 12.305 57.4957 11.913" fill="#263238"/>
<path d="M65.3757 6.60899C65.3778 6.60899 65.3778 6.62532 65.3757 6.65595C65.3737 6.68657 65.3717 6.73353 65.3636 6.79274C65.3434 6.91115 65.3009 7.08673 65.1917 7.28885C65.0825 7.48893 64.9105 7.71964 64.6456 7.90542C64.3847 8.09325 64.0267 8.24025 63.6161 8.228L63.6586 8.17084C63.7415 8.38725 63.7273 8.65062 63.6242 8.87724C63.5271 9.10794 63.3714 9.31415 63.2055 9.51627C63.1206 9.61223 63.0478 9.72656 62.9284 9.81639C62.8131 9.90214 62.6736 9.95522 62.53 9.97564C62.2448 10.0185 61.9212 9.93685 61.7088 9.70002L61.8018 9.67143C61.7493 10.1798 61.4742 10.6963 61.0272 11.0148C60.7906 11.1965 60.4953 11.3109 60.202 11.3088C59.9087 11.3129 59.6357 11.2333 59.3788 11.1475L59.4455 11.1149C59.3161 11.4354 59.1138 11.711 58.8651 11.9172C58.6203 12.1234 58.2907 12.248 57.9893 12.1806C57.3886 12.0663 56.982 11.5742 56.891 11.1047L56.9497 11.1312C56.6564 11.3007 56.3389 11.3252 56.084 11.2802C55.8251 11.2394 55.6188 11.1292 55.4712 11.021C55.3235 10.9107 55.2345 10.7943 55.182 10.7147C55.1334 10.631 55.1112 10.5861 55.1152 10.584C55.1273 10.5738 55.2042 10.776 55.4975 10.9842C55.6431 11.0842 55.8454 11.1822 56.0941 11.2169C56.3409 11.2537 56.6423 11.2251 56.9113 11.0618L56.9578 11.0332L56.9699 11.0863C57.0609 11.5252 57.4533 11.9846 58.0095 12.0826C58.2826 12.1398 58.5718 12.0295 58.8044 11.8356C59.037 11.6416 59.2312 11.3762 59.3505 11.074L59.3687 11.0271L59.4172 11.0434C59.67 11.1271 59.933 11.2027 60.204 11.1986C60.475 11.1986 60.74 11.0965 60.9645 10.925C61.3872 10.6228 61.6441 10.141 61.6967 9.65714L61.7088 9.53669L61.7897 9.62856C61.9697 9.83272 62.2589 9.9103 62.5158 9.87151C62.6432 9.85314 62.7686 9.80822 62.8677 9.73268C62.9648 9.66123 63.0417 9.54894 63.1287 9.45094C63.2945 9.2529 63.4462 9.05486 63.5372 8.84049C63.6343 8.62816 63.6485 8.39746 63.5777 8.20146L63.5554 8.14021L63.6181 8.14225C64.0044 8.15859 64.3503 8.02588 64.6051 7.84826C64.864 7.67268 65.0359 7.45422 65.1492 7.26435C65.3717 6.8744 65.3575 6.60286 65.3757 6.60899Z" fill="#455A64"/>
<path d="M47.1786 29.2441C47.1786 29.2441 37.6685 32.6251 34.9178 34.0216C32.7678 35.1118 31.4066 39.0705 34.7135 40.7201C37.179 41.9512 50.53 39.5993 50.53 39.5993L47.1786 29.2441Z" fill="#FFBF9D"/>
<path d="M76.2126 62.8574L52.0489 61.9346L51.1732 70.2379L50.2043 86.8935L62.54 86.9466C62.5461 86.8751 64.0792 77.5837 64.0792 77.5837L64.777 77.3999L64.7123 86.9466H76.2733C76.8801 79.0475 77.228 72.4102 77.2482 71.7875C77.414 66.8508 76.2126 62.8574 76.2126 62.8574Z" fill="#263238"/>
<path d="M63.2074 72.4082C63.2033 72.4204 63.3328 72.4878 63.5735 72.596C63.8162 72.7001 64.1742 72.8573 64.6535 72.9268C64.8922 72.9594 65.1632 72.9615 65.4443 72.8982C65.7234 72.8349 66.0208 72.7022 66.2554 72.4613C66.49 72.2204 66.6336 71.8916 66.7206 71.5548C66.8075 71.2138 66.85 70.8606 66.9067 70.5013C67.121 69.0619 67.2505 67.7492 67.3193 66.7978C67.3536 66.3221 67.3739 65.9362 67.382 65.6708C67.39 65.4033 67.388 65.2563 67.3759 65.2563C67.3638 65.2563 67.3415 65.4013 67.3112 65.6667C67.2788 65.9709 67.2384 66.3445 67.1918 66.7876C67.0907 67.7349 66.941 69.0395 66.7266 70.4748C66.6174 71.1852 66.5527 71.9059 66.1361 72.3449C65.7174 72.7757 65.1147 72.8451 64.6697 72.7981C64.2106 72.7491 63.8505 72.6123 63.5997 72.5307C63.351 72.4429 63.2134 72.3959 63.2074 72.4082Z" fill="#455A64"/>
<path d="M65.5113 65.5852C65.5133 65.577 65.4546 65.5423 65.3333 65.5403C65.214 65.5362 65.0339 65.5811 64.86 65.7159C64.6941 65.8506 64.5202 66.0874 64.5263 66.4019C64.5263 66.7204 64.7831 67.0205 65.1088 67.1226C65.4304 67.2348 65.8147 67.145 66.0007 66.8878C66.1888 66.6387 66.1888 66.3447 66.1322 66.1365C66.0715 65.9221 65.9522 65.7792 65.8531 65.7118C65.754 65.6403 65.6852 65.6342 65.6832 65.6424C65.6609 65.6669 65.932 65.7771 66.0068 66.1671C66.0412 66.3508 66.021 66.5979 65.8693 66.7836C65.7236 66.9715 65.4304 67.0389 65.1654 66.949C64.8984 66.8612 64.7022 66.6346 64.6941 66.3937C64.68 66.1548 64.8094 65.9425 64.945 65.8159C65.2322 65.5464 65.5153 65.6179 65.5113 65.5852Z" fill="#455A64"/>
<path d="M52.0469 69.7379C52.0469 69.7502 52.15 69.7624 52.3422 69.7706C52.5323 69.7828 52.8094 69.7767 53.1492 69.7461C53.8288 69.6869 54.7632 69.4786 55.7098 69.0295C56.6563 68.5762 57.4087 67.978 57.8861 67.488C58.1247 67.243 58.3067 67.0328 58.418 66.8756C58.5312 66.7204 58.5899 66.6326 58.5798 66.6244C58.5555 66.604 58.2926 66.9348 57.7971 67.3941C57.3056 67.8535 56.5572 68.4211 55.6329 68.8641C54.7066 69.3031 53.7984 69.5256 53.133 69.6175C52.4676 69.7114 52.0469 69.7053 52.0469 69.7379Z" fill="#455A64"/>
<path d="M76.698 61.5018C76.2247 60.4116 76.3117 60.3115 76.3117 60.3115L74.9687 48.4435L73.6783 36.8981L72.6327 28.3539L66.5872 27.0472C66.5872 27.0472 65.8914 28.9929 62.9688 29.0521C59.6032 29.1195 57.6737 26.0815 57.6737 26.0815L48.0078 28.1763L51.6424 53.3414L52.0772 60.1196C52.0772 60.1196 51.3552 61.216 51.3552 62.394C51.3552 63.57 51.3087 64.3539 51.3087 64.3539C60.2808 66.8427 69.1842 68.9966 77.3756 66.5875C77.3776 66.5916 77.1733 62.592 76.698 61.5018Z" fill="#FFCC66"/>
<path d="M70.426 27.9106C70.426 27.9106 73.9109 28.3026 75.1467 29.6277C76.3825 30.9527 80.3346 37.5063 80.3346 37.5063L74.5945 45.4319L71.9349 41.7692L70.426 27.9106Z" fill="#FFCC66"/>
<path d="M73.0838 32.0127C73.1323 32.0086 73.6804 36.3634 74.3094 41.7411C74.9385 47.1208 75.4097 51.4837 75.3612 51.4878C75.3126 51.4919 74.7645 47.1371 74.1355 41.7574C73.5065 36.3797 73.0352 32.0168 73.0838 32.0127Z" fill="#FFCC66"/>
<path d="M48.0079 28.1787L40.2695 31.6454L43.0688 39.5547L50.528 40.747L48.0079 28.1787Z" fill="#FFCC66"/>
<path d="M49.0738 33.4214C49.1244 33.4153 49.4945 36.5002 49.899 40.3119C50.3036 44.1236 50.5887 47.2167 50.5362 47.2228C50.4856 47.2289 50.1155 44.144 49.7109 40.3323C49.3085 36.5206 49.0213 33.4255 49.0738 33.4214Z" fill="#263238"/>
<g opacity="0.3">
<path d="M50.981 73.517C55.1839 71.9919 57.5119 68.9866 59.3908 65.7996C61.2698 62.6126 61.5388 58.1251 60.3354 54.6196C60.3354 54.6196 51.6525 63.0985 51.5898 63.2864C51.5291 63.4742 50.981 73.517 50.981 73.517Z" fill="black"/>
</g>
<g opacity="0.3">
<path d="M62.801 28.9442C62.6979 29.8058 63.1732 30.6347 63.7577 31.2717C64.3422 31.9066 65.0501 32.4252 65.5821 33.1071C66.1908 33.8829 66.5387 34.8302 66.8765 35.7592C67.5844 37.6987 68.2903 39.6403 68.9982 41.5798C69.607 43.2499 70.2239 44.9383 71.1907 46.4287C72.1554 47.9191 73.5166 49.2155 75.1953 49.7607L73.9211 38.8298L67.1961 27.9111L62.801 28.9442Z" fill="black"/>
</g>
<path d="M69.7708 29.0401C69.7708 28.9033 69.878 23.84 69.5423 23.2888C69.2065 22.7396 68.9375 22.2231 68.8688 21.7086C68.8688 21.7086 69.0528 21.4085 68.7171 21.2186C68.3833 21.0308 67.8534 21.4901 67.8413 22.3027C67.8292 23.1153 67.9222 24.5056 67.9222 24.5056C67.9222 24.5056 64.2209 22.3864 63.2076 22.3272C62.1922 22.268 60.6713 22.0802 60.5904 22.5742C60.5095 23.0683 60.5782 23.1867 61.1081 23.3745C61.6381 23.5624 62.4794 23.693 63.3107 23.9748C64.14 24.2565 64.5202 24.4505 64.5202 24.4505C64.5202 24.4505 62.6291 23.889 62.2145 24.4505C61.7999 25.0119 61.8565 25.5183 62.1214 25.7898C62.1214 25.7898 61.5571 26.0246 61.6138 26.6493C61.6704 27.2741 61.9475 27.4272 61.9475 27.4272C61.9475 27.4272 61.3933 27.8518 61.6603 28.3929C61.9253 28.9339 62.5482 28.593 63.1368 29.2054C63.7253 29.8179 65.1897 31.2552 65.754 31.5737C66.3183 31.8922 67.6107 32.0209 67.6107 32.0209L69.7708 29.0401Z" fill="#FFBF9D"/>
<path d="M69.7708 29.0401C69.7728 29.0401 69.7607 29.0585 69.7384 29.0911C69.7121 29.1279 69.6778 29.1769 69.6333 29.2422C69.5362 29.3769 69.3986 29.5729 69.2186 29.8261C68.8505 30.3406 68.3145 31.0878 67.635 32.0352L67.6248 32.0474L67.6087 32.0454C67.3538 32.0188 67.0868 31.98 66.8098 31.9269C66.5327 31.8739 66.2454 31.8085 65.9582 31.7003C65.8126 31.6472 65.6731 31.5676 65.5456 31.4737C65.4142 31.3818 65.2908 31.2797 65.1634 31.1756C64.9126 30.9653 64.6598 30.7387 64.4049 30.4998C64.1501 30.263 63.8912 30.0139 63.6282 29.7547C63.4988 29.624 63.3653 29.4913 63.2318 29.3586C63.1003 29.2197 62.9709 29.087 62.805 28.9952C62.6432 28.8992 62.4572 28.8543 62.265 28.8114C62.0789 28.7685 61.8524 28.7236 61.7129 28.546C61.5753 28.3806 61.5167 28.1458 61.5693 27.9294C61.6239 27.713 61.7574 27.5334 61.9252 27.3904L61.9313 27.4639C61.7857 27.3619 61.7129 27.2128 61.6562 27.0597C61.6036 26.9045 61.5753 26.7432 61.5693 26.5738C61.5632 26.4043 61.6138 26.2288 61.7108 26.0818C61.8099 25.9368 61.9434 25.8225 62.1052 25.7449L62.0911 25.8204C61.8544 25.5816 61.818 25.1998 61.9273 24.8956C61.9778 24.7404 62.0567 24.5934 62.1518 24.4607C62.1942 24.3933 62.263 24.3219 62.3399 24.2831C62.4147 24.2402 62.4956 24.2137 62.5765 24.1932C62.9042 24.1238 63.2338 24.1524 63.5615 24.1953C63.8892 24.2422 64.2128 24.3117 64.5364 24.4035L64.502 24.4934C64.0166 24.2688 63.4907 24.0769 62.9547 23.9135C62.4167 23.7523 61.8544 23.6461 61.2942 23.4848C61.094 23.4215 60.8937 23.3623 60.7076 23.2418C60.6146 23.1806 60.5377 23.0724 60.5236 22.956C60.5074 22.8417 60.5195 22.7355 60.5337 22.6314C60.5418 22.5844 60.5458 22.5191 60.5802 22.464C60.6126 22.4109 60.6591 22.3721 60.7076 22.3415C60.8047 22.2843 60.9079 22.2578 61.011 22.2374C61.2173 22.1986 61.4216 22.1925 61.6239 22.1904C62.0304 22.1904 62.4289 22.2231 62.8233 22.2496C63.0215 22.266 63.2136 22.268 63.4159 22.3068C63.513 22.3292 63.608 22.3578 63.7031 22.3844L63.9802 22.4824C64.7083 22.7621 65.3899 23.101 66.0472 23.4358C66.7046 23.7747 67.3356 24.1177 67.9424 24.4627L67.8777 24.5036C67.8332 23.7012 67.7846 22.9336 67.8049 22.1904C67.8332 21.8209 67.9727 21.4391 68.2781 21.2247C68.355 21.1737 68.444 21.139 68.5391 21.1349C68.6341 21.1288 68.7292 21.1696 68.8 21.2247C68.8728 21.2798 68.9335 21.3615 68.9476 21.4554C68.9638 21.5493 68.9415 21.6412 68.897 21.7229L68.9031 21.6984C68.982 22.2639 69.2631 22.7519 69.524 23.1949C69.5564 23.248 69.5948 23.3092 69.613 23.3746C69.6353 23.4378 69.6454 23.5011 69.6596 23.5644C69.6818 23.691 69.698 23.8155 69.7101 23.938C69.7364 24.183 69.7506 24.4219 69.7627 24.6506C69.8072 25.5713 69.8052 26.3655 69.8052 27.0148C69.8032 27.664 69.7951 28.1703 69.787 28.5133C69.7829 28.6828 69.7789 28.8114 69.7769 28.9033C69.7748 28.9952 69.7708 29.0401 69.7708 29.0401C69.7708 29.0401 69.7668 28.9952 69.7668 28.9074C69.7668 28.8155 69.7668 28.6848 69.7668 28.5174C69.7668 28.1703 69.7668 27.6661 69.7647 27.0209C69.7587 26.3717 69.7526 25.5775 69.7041 24.6608C69.6899 24.4321 69.6737 24.1953 69.6474 23.9523C69.6353 23.8298 69.6171 23.7073 69.5948 23.5848C69.5685 23.4583 69.5443 23.346 69.4674 23.2378C69.2025 22.7927 68.9173 22.3027 68.8303 21.7168L68.8283 21.7045L68.8343 21.6923C68.8687 21.629 68.8869 21.5493 68.8748 21.4758C68.8627 21.4023 68.8161 21.339 68.7534 21.2921C68.6301 21.188 68.4561 21.2043 68.3206 21.2962C68.0455 21.4881 67.91 21.8495 67.8858 22.2027C67.8676 22.9315 67.9161 23.7053 67.9646 24.5036L67.9687 24.5832L67.8999 24.5444C67.2952 24.2014 66.6641 23.8605 66.0068 23.5236C65.3495 23.1888 64.6678 22.8519 63.9478 22.5763L63.6748 22.4803C63.5817 22.4558 63.4887 22.4272 63.3956 22.4048C63.2136 22.368 63.0114 22.3639 62.8152 22.3497C62.4208 22.3231 62.0223 22.2925 61.6218 22.2904C61.4216 22.2925 61.2214 22.2986 61.0252 22.3354C60.8391 22.3742 60.6207 22.4415 60.6267 22.6477C60.6126 22.7478 60.6025 22.8499 60.6166 22.9417C60.6308 23.0356 60.6813 23.1091 60.7602 23.1622C60.922 23.2684 61.1263 23.3296 61.3205 23.3909C61.8726 23.5481 62.4369 23.6563 62.981 23.8196C63.5231 23.987 64.0449 24.1749 64.5424 24.4076L64.5081 24.4975C64.1905 24.4076 63.8689 24.3382 63.5473 24.2912C63.2278 24.2484 62.9001 24.2218 62.5967 24.2872C62.4471 24.3239 62.3055 24.3852 62.2286 24.5158C62.1396 24.6424 62.0648 24.7812 62.0162 24.9262C61.9151 25.212 61.9495 25.5489 62.1558 25.7571L62.2023 25.8041L62.1416 25.8327C62.0021 25.898 61.8726 26.0062 61.7857 26.1348C61.6987 26.2655 61.6542 26.4186 61.6583 26.5738C61.6623 26.729 61.6906 26.8882 61.7392 27.0311C61.7877 27.172 61.8666 27.3149 61.9717 27.3884L62.0223 27.4231L61.9758 27.4619C61.8241 27.5885 61.6967 27.762 61.6502 27.9498C61.6036 28.1377 61.6562 28.3459 61.7756 28.4909C61.8929 28.642 62.0931 28.6869 62.2812 28.7298C62.4733 28.7726 62.6716 28.8216 62.8435 28.9237C63.0174 29.0197 63.159 29.1667 63.2864 29.3014C63.4199 29.4362 63.5514 29.5689 63.6808 29.6995C63.9417 29.9588 64.1986 30.2079 64.4535 30.4468C64.7083 30.6856 64.9571 30.9123 65.2059 31.1225C65.4587 31.3267 65.6994 31.539 65.9805 31.6411C66.2616 31.7493 66.5468 31.8167 66.8199 31.8698C67.0949 31.9229 67.3599 31.9637 67.6127 31.9923L67.5884 32.0025C68.2761 31.0633 68.8182 30.3243 69.1903 29.8139C69.3764 29.5627 69.518 29.3688 69.6171 29.2361C69.6656 29.1728 69.702 29.1238 69.7283 29.0891C69.7566 29.0564 69.7708 29.0401 69.7708 29.0401Z" fill="#FF9A6C"/>
<path d="M81.7627 40.8612C81.3926 40.1487 80.5572 38.6624 80.1547 37.7539L77.5092 38.7236C77.5092 38.7236 70.0156 28.5073 69.7769 28.5073C69.5383 28.5073 66.2839 31.5534 66.2839 31.5534C66.4275 31.6984 73.1748 47.3067 75.7577 48.9971C78.3405 50.6876 80.268 51.7615 81.6555 49.3462C83.045 46.931 83.3909 44.0013 81.7627 40.8612Z" fill="#FFBF9D"/>
<path d="M80.8991 43.309C80.893 43.311 80.8485 43.2416 80.7757 43.1109C80.7029 42.9803 80.5937 42.7924 80.4561 42.5638C80.1811 42.1044 79.7725 41.4858 79.279 40.8366C78.7835 40.1873 78.3041 39.6238 77.9542 39.2175C77.7904 39.0256 77.6508 38.8643 77.5396 38.7357C77.4425 38.6214 77.3919 38.5561 77.396 38.552C77.4 38.5479 77.4607 38.603 77.5679 38.7112C77.6731 38.8174 77.8227 38.9746 78.0048 39.1726C78.3668 39.5667 78.8583 40.124 79.3559 40.7773C79.8534 41.4307 80.2539 42.0574 80.5148 42.5291C80.6463 42.7639 80.7454 42.9578 80.8101 43.0946C80.8728 43.2293 80.9051 43.3069 80.8991 43.309Z" fill="#FF9A6C"/>
<path d="M65.6569 20.5572C65.5901 20.6083 65.311 20.3163 64.8681 20.1612C64.4292 19.9937 64.0307 20.0346 64.0105 19.9529C64.0024 19.9162 64.0975 19.8508 64.2734 19.8182C64.4494 19.7835 64.7063 19.7916 64.9651 19.8855C65.224 19.9815 65.4263 20.1428 65.5396 20.2816C65.6548 20.4245 65.6872 20.5348 65.6569 20.5572Z" fill="#263238"/>
<path d="M72.4204 61.4324C72.4224 61.4345 72.39 61.4549 72.3273 61.4876C72.2646 61.5182 72.1736 61.5733 72.0502 61.6223C71.8035 61.7285 71.4333 61.851 70.958 61.9183C70.4827 61.9857 69.9083 61.9918 69.2793 61.9102C68.6503 61.8305 67.9727 61.6693 67.2749 61.459C65.8814 61.0282 64.6496 60.5586 63.7658 60.1932C63.3248 60.0115 62.9709 59.8542 62.7282 59.744C62.6149 59.6909 62.5239 59.648 62.4491 59.6133C62.3864 59.5827 62.354 59.5643 62.354 59.5623C62.356 59.5582 62.3904 59.5705 62.4551 59.597C62.53 59.6276 62.625 59.6644 62.7403 59.7113C62.9992 59.8155 63.3552 59.9584 63.788 60.1319C64.6759 60.479 65.9097 60.9404 67.2992 61.3671C67.9929 61.5774 68.6665 61.7387 69.2874 61.8244C69.9083 61.9102 70.4767 61.9102 70.9459 61.853C71.4151 61.7958 71.7853 61.6836 72.034 61.5896C72.2828 61.4896 72.4163 61.4243 72.4204 61.4324Z" fill="#263238"/>
<path d="M54.118 41.9531C50.7403 39.6563 46.7235 38.8355 44.0901 38.8335C41.6246 38.8315 37.9941 39.2214 34.7074 41.0895C32.6666 42.2491 31.0384 43.8355 29.8653 45.8036C28.4779 48.1352 27.7255 51.018 27.6304 54.3764C27.6162 54.8807 27.8003 55.3564 28.1482 55.7198C28.4981 56.0832 28.9693 56.2854 29.4709 56.2854L35.9371 56.2894C36.8493 56.2894 37.6341 55.6035 37.7635 54.6929C38.0507 52.6451 39.2582 49.2009 44.0962 49.1192C47.7854 49.06 49.3023 51.7529 49.7837 52.9146C50.5684 54.8052 50.3682 57.0469 49.2457 58.9089C47.5224 61.7712 44.3571 62.2081 42.6237 62.2122C40.6295 62.2183 39.0074 63.8516 39.0054 65.8524L39.0013 72.8757C39.0013 73.9006 39.8265 74.7356 40.8439 74.7376L47.1442 74.7417C48.1595 74.7417 48.9868 73.9087 48.9888 72.8818V71.4057C48.9888 71.371 49.011 71.3403 49.0454 71.3281C50.4734 70.8238 53.2402 69.605 55.7341 67.104C58.9176 63.9129 60.5336 59.7949 60.5357 54.8603C60.5417 47.8024 57.0487 43.9457 54.118 41.9531Z" fill="#FF725E"/>
<path d="M44.3064 76.5117H43.7543C41.1189 76.5097 38.9749 78.6718 38.9729 81.332C38.9709 83.9923 41.1128 86.1564 43.7482 86.1584H44.3004C46.9358 86.1605 49.0797 83.9984 49.0817 81.3381C49.0858 78.6779 46.9418 76.5138 44.3064 76.5117Z" fill="#FF725E"/>
<g opacity="0.3">
<path d="M60.293 50.3525C60.2081 49.6338 60.022 48.9458 59.7611 48.2843C58.499 45.1075 55.54 42.9414 52.1704 42.5555L35.9109 40.6895C37.6786 42.5126 39.9864 42.876 42.4337 43.5171C44.881 44.1582 47.5144 45.1177 49.988 45.6486C50.7809 45.818 51.602 46.0324 52.2189 46.5632C52.8216 47.0818 53.1574 47.8392 53.4749 48.5722C53.9442 49.6563 54.4154 50.7424 54.8847 51.8265C55.4206 53.0658 56.1346 54.4643 57.5808 54.544C58.1633 54.5766 58.7356 54.3561 59.1786 53.9723C60.2263 53.0638 60.4467 51.653 60.293 50.3525Z" fill="black"/>
</g>
<path d="M60.0623 45.9571C59.9369 45.7345 57.4653 42.6843 56.2376 41.5022C55.4448 40.7387 54.2494 40.2119 53.4991 39.9343C53.4991 39.9343 41.127 35.4243 40.2694 34.9854L34.7134 40.7244C36.647 41.2674 49.7816 44.4585 53.0217 45.1772C53.588 45.8448 54.1584 46.3919 54.1584 46.3919L55.1009 48.6255C55.1009 48.6255 55.2102 49.4381 55.1414 50.3098C55.0726 51.1816 55.7745 50.8427 55.7745 50.8427C55.7745 50.8427 55.7421 51.3837 55.7866 52.1657C55.7866 52.1738 55.7866 52.182 55.7886 52.1881C55.8351 52.772 56.6664 52.8435 56.8424 52.2861L57.4815 50.2731C57.4815 50.2731 57.3986 52.1065 57.3642 53.1252C57.3581 53.311 57.3905 53.4621 57.4471 53.5866C57.6918 54.1277 58.4887 54.0256 58.6243 53.4478L59.3726 50.2629L59.1299 48.3111L59.7569 50.0934C59.7569 50.0934 59.9308 51.0469 59.8944 52.3841C59.8803 52.919 60.0603 53.1477 60.2787 53.2273C60.6468 53.3621 61.0352 53.066 61.0675 52.672L61.3062 49.7198C61.3042 49.7218 60.1877 46.1817 60.0623 45.9571Z" fill="#FFBF9D"/>
<path d="M39.4705 34.7607C39.4766 34.7382 39.8265 34.7933 40.3807 34.9485C40.9349 35.1016 41.6853 35.363 42.4963 35.6876C43.3074 36.0142 44.0335 36.3266 44.5593 36.5532C45.0852 36.7798 45.4088 36.9207 45.3987 36.9473C45.3906 36.9718 45.0488 36.8738 44.5108 36.6778C43.9708 36.4838 43.2366 36.1898 42.4275 35.8632C41.6185 35.5385 40.8823 35.2609 40.3423 35.0751C39.8022 34.8913 39.4645 34.7872 39.4705 34.7607Z" fill="#FF9A6C"/>
</g>
<defs>
<clipPath id="clip0_438_1601">
<rect width="93" height="87" fill="white"/>
</clipPath>
</defs>
</svg>
