<svg width="30" height="29" viewBox="0 0 30 29" fill="none" xmlns="http://www.w3.org/2000/svg">
<path d="M0.00439466 26.393C0.00439466 20.5977 0.00439466 14.8031 0.00439466 9.00781C0.0785366 8.99948 0.152679 8.98435 0.226064 8.98435C9.73515 8.98359 19.2442 8.98435 28.7533 8.97829C28.9614 8.97829 28.9931 9.04413 28.9931 9.23181C28.9879 14.7615 28.9886 20.2912 28.9894 25.8209C28.9894 26.2016 28.9319 26.5724 28.8017 26.9296C28.3357 28.2138 27.1767 28.9971 25.7354 28.9971C18.7737 28.9978 11.8111 28.9978 4.84935 28.9971C4.24562 28.9971 3.64189 29.0061 3.03816 28.9925C1.70739 28.9623 0.520362 28.0496 0.135278 26.7775C0.0966938 26.6481 0.113338 26.499 0.00439466 26.393ZM4.09279 21.7767C4.09279 22.3519 4.08977 22.927 4.09355 23.5022C4.09733 24.1008 4.44459 24.4504 5.04454 24.4519C6.19449 24.4565 7.34445 24.4565 8.49516 24.4519C9.08376 24.4497 9.43177 24.1076 9.43556 23.5219C9.44236 22.3617 9.44236 21.2024 9.43556 20.0422C9.43253 19.4535 9.0883 19.1107 8.50046 19.1076C7.34067 19.1023 6.18163 19.1016 5.02184 19.1076C4.43929 19.1107 4.09809 19.4633 4.09355 20.0506C4.08977 20.6265 4.09279 21.2016 4.09279 21.7767ZM22.2379 19.1061C21.672 19.1061 21.1069 19.1038 20.541 19.1069C19.8971 19.1099 19.5597 19.4414 19.5574 20.0801C19.5544 21.2114 19.5544 22.3436 19.5574 23.4749C19.559 24.1159 19.8964 24.4519 20.5364 24.4534C21.6675 24.4557 22.7993 24.4565 23.9303 24.4534C24.5514 24.4519 24.8987 24.1083 24.901 23.4939C24.904 22.3526 24.904 21.2114 24.901 20.071C24.8995 19.4527 24.556 19.1122 23.9348 19.1084C23.3697 19.1038 22.8038 19.1061 22.2379 19.1061ZM22.219 17.1673C22.8038 17.1673 23.3879 17.1695 23.9727 17.1665C24.5416 17.1635 24.8964 16.8229 24.8995 16.2569C24.9063 15.0877 24.9055 13.9185 24.8995 12.7485C24.8964 12.1809 24.5431 11.8366 23.9772 11.8351C22.8083 11.8328 21.6395 11.8321 20.4698 11.8351C19.9145 11.8366 19.5635 12.1726 19.5597 12.7296C19.5506 13.9086 19.5514 15.0869 19.5597 16.266C19.5635 16.8343 19.9161 17.1635 20.4941 17.1658C21.069 17.1688 21.644 17.1673 22.219 17.1673ZM6.77023 17.1673C7.35504 17.1673 7.9391 17.1703 8.52391 17.1665C9.06636 17.1635 9.42723 16.8358 9.43253 16.2993C9.44539 15.1021 9.44463 13.9041 9.43253 12.7061C9.42723 12.1681 9.06787 11.8374 8.5277 11.8358C7.34899 11.8328 6.17104 11.8321 4.99233 11.8358C4.45972 11.8374 4.09885 12.1832 4.09506 12.716C4.08599 13.9041 4.08674 15.0922 4.09506 16.2803C4.09885 16.8139 4.45821 17.1612 4.98855 17.165C5.58244 17.1711 6.17634 17.1673 6.77023 17.1673ZM11.8316 21.779C11.8316 22.3542 11.83 22.9293 11.8323 23.5044C11.8346 24.1076 12.172 24.4504 12.778 24.4527C13.928 24.4565 15.0779 24.4572 16.2286 24.4527C16.8165 24.4504 17.1607 24.1031 17.1622 23.5203C17.1645 22.3602 17.1645 21.2008 17.1622 20.0407C17.1607 19.4648 16.8278 19.1129 16.2589 19.1091C15.0802 19.1016 13.9022 19.1008 12.7235 19.1099C12.1712 19.1144 11.8353 19.4701 11.8323 20.0248C11.8293 20.6091 11.8316 21.194 11.8316 21.779ZM17.2734 13.3085C17.2696 12.8666 17.0661 12.5555 16.7522 12.4329C16.4019 12.296 16.0834 12.3633 15.8171 12.6267C15.208 13.2298 14.6013 13.8352 14.0006 14.4475C13.8901 14.5602 13.8251 14.5723 13.7154 14.449C13.5459 14.2598 13.3621 14.0827 13.1767 13.9094C12.8083 13.5651 12.2915 13.5673 11.9609 13.9079C11.6386 14.2393 11.6348 14.7532 11.973 15.1036C12.3846 15.5311 12.8045 15.9511 13.2319 16.3628C13.6238 16.7397 14.0997 16.7367 14.487 16.3538C15.3306 15.519 16.1666 14.676 17.0064 13.8367C17.1796 13.6619 17.2727 13.4538 17.2734 13.3085Z" fill="#FFCC66"/>
<path d="M17.0451 0.00405276C17.1775 0.00405276 17.3091 0.00405276 17.4415 0.00405276C17.9235 0.214434 18.0914 0.582223 18.0793 1.10288C18.0536 2.20549 18.0687 3.30961 18.0725 4.41298C18.074 4.96088 18.4281 5.33775 18.9274 5.33624C19.4275 5.33473 19.7672 4.96315 19.7695 4.40768C19.7717 3.63427 19.7808 2.86085 19.7642 2.08819C19.7589 1.85435 19.8368 1.80743 20.0486 1.81651C20.4345 1.8324 20.8218 1.82105 21.2077 1.82105C21.8386 1.82105 21.8621 1.81954 21.8311 1.19899C21.8046 0.673035 21.9355 0.259084 22.4234 0.00480953C22.5747 0.00480953 22.7253 0.00480953 22.8766 0.00480953C23.3782 0.194758 23.5514 0.568602 23.5424 1.08926C23.5242 2.17446 23.5371 3.25967 23.5371 4.34487C23.5371 4.51515 23.5371 4.6839 23.612 4.84358C23.7769 5.19624 24.1605 5.39602 24.5448 5.32489C24.9382 5.25224 25.2234 4.91472 25.2317 4.47125C25.2439 3.82951 25.2348 3.18777 25.2355 2.54604C25.2355 1.79078 25.2355 1.79078 25.9898 1.82484C27.4885 1.89295 28.7217 2.98269 28.9411 4.46369C29.0629 5.28781 28.9578 6.12252 28.9971 6.95042C29.0092 7.21302 28.954 7.29173 28.671 7.29097C19.2172 7.28189 9.76407 7.2834 0.310213 7.28189C0.208835 7.28189 0.102918 7.31216 0.00683614 7.25162C0.00683614 6.30793 0.00683614 5.36424 0.00683614 4.42055C0.106701 4.37741 0.0779519 4.27374 0.0991353 4.20109C0.482706 2.87674 1.34593 2.0776 2.70923 1.86494C3.45595 1.7484 4.21477 1.83543 4.9683 1.82181C5.46005 1.81273 5.47972 1.81954 5.45551 1.31932C5.42828 0.764604 5.49864 0.274976 6.06454 0.00405276C6.21585 0.00405276 6.3664 0.00405276 6.51771 0.00405276C7.01779 0.209137 7.17969 0.587521 7.16683 1.11574C7.14111 2.19944 7.16154 3.28388 7.15775 4.36758C7.15624 4.69828 7.24476 4.98434 7.52468 5.1811C7.79326 5.36954 8.08907 5.39602 8.38109 5.25224C8.69431 5.09786 8.85621 4.83147 8.85697 4.47882C8.85923 3.6774 8.8668 2.87599 8.85243 2.07533C8.84864 1.85511 8.91673 1.80592 9.12327 1.81575C9.48036 1.83316 9.83897 1.82332 10.1976 1.81954C10.4313 1.81727 10.7362 1.89295 10.8792 1.77565C11.0313 1.65078 10.939 1.33142 10.9216 1.10212C10.8823 0.58071 11.0759 0.213677 11.5571 0.003296C11.6895 0.003296 11.8211 0.003296 11.9535 0.003296C12.4657 0.189461 12.6412 0.564818 12.6322 1.09456C12.6125 2.18733 12.6261 3.2801 12.6269 4.37363C12.6269 4.49547 12.6216 4.61731 12.6609 4.73688C12.7941 5.14553 13.1769 5.38846 13.6036 5.32791C14.0098 5.2704 14.317 4.92153 14.3223 4.47655C14.3314 3.66605 14.3314 2.85555 14.3208 2.04581C14.3185 1.85586 14.376 1.80894 14.5568 1.81575C14.9237 1.82938 15.2914 1.82559 15.6584 1.81803C15.8906 1.81273 16.2076 1.92246 16.3324 1.77413C16.4505 1.63413 16.3884 1.32688 16.3733 1.09456C16.3355 0.564818 16.5352 0.191731 17.0451 0.00405276Z" fill="#FFCC66"/>
<path d="M22.4233 0.00405276C21.9353 0.258327 21.8045 0.673036 21.8309 1.19823C21.862 1.81954 21.8385 1.8203 21.2075 1.8203C20.8209 1.8203 20.4343 1.83165 20.0485 1.81575C19.8367 1.80667 19.7587 1.85359 19.764 2.08743C19.7807 2.86009 19.7724 3.63427 19.7693 4.40693C19.7678 4.9624 19.4281 5.33397 18.9273 5.33548C18.428 5.337 18.0747 4.96013 18.0724 4.41223C18.0686 3.30886 18.0535 2.20473 18.0792 1.10212C18.0913 0.58071 17.9234 0.213677 17.4414 0.003296C19.1021 0.00405276 20.7627 0.00405276 22.4233 0.00405276Z" fill="#FCFCFC"/>
<path d="M11.5532 0.00378429C11.0721 0.214166 10.8776 0.580441 10.9177 1.10261C10.9351 1.33191 11.0274 1.65127 10.8754 1.77613C10.7324 1.89343 10.4275 1.81776 10.1937 1.82003C9.83588 1.82381 9.47727 1.83365 9.11942 1.81624C8.91364 1.80641 8.8448 1.8556 8.84858 2.07581C8.86295 2.87648 8.85539 3.67865 8.85312 4.47931C8.85236 4.83196 8.69046 5.09835 8.37725 5.25273C8.08522 5.39651 7.78941 5.37003 7.52083 5.18159C7.24091 4.98483 7.15315 4.69877 7.15391 4.36806C7.15769 3.28362 7.13726 2.19917 7.16298 1.11623C7.17585 0.588009 7.01394 0.209625 6.51386 0.00454106C8.19492 0.00378429 9.87446 0.00378429 11.5532 0.00378429Z" fill="#FCFCFC"/>
<path d="M17.0449 0.00378429C16.535 0.191463 16.3353 0.564549 16.3693 1.09504C16.3845 1.32661 16.4458 1.63462 16.3285 1.77462C16.2037 1.92295 15.8874 1.81322 15.6544 1.81851C15.2875 1.82608 14.919 1.82987 14.5529 1.81624C14.372 1.80943 14.3138 1.85635 14.3168 2.0463C14.3274 2.8568 14.3282 3.6673 14.3183 4.47704C14.313 4.92202 14.0059 5.27089 13.5996 5.3284C13.1729 5.38894 12.7909 5.14678 12.6569 4.73737C12.6176 4.61704 12.6229 4.49596 12.6229 4.37412C12.6221 3.28135 12.6085 2.18782 12.6282 1.09504C12.638 0.565306 12.4618 0.189949 11.9496 0.00378429C13.648 0.00378429 15.3465 0.00378429 17.0449 0.00378429Z" fill="#FCFCFC"/>
<path d="M6.06225 0.0038002C5.49635 0.274723 5.42599 0.764352 5.45323 1.31906C5.47744 1.81929 5.45852 1.81323 4.96601 1.82156C4.21248 1.83518 3.45366 1.74815 2.70695 1.86469C1.34364 2.0781 0.48042 2.87725 0.0968491 4.20159C0.0756657 4.27424 0.104415 4.37792 0.00454995 4.42105C0.00454995 3.00892 0.0083327 1.59755 1.06457e-05 0.185424C-0.000745905 0.0242329 0.0385947 -0.00074041 0.190661 1.63577e-05C2.14786 0.0060705 4.10505 0.0038002 6.06225 0.0038002Z" fill="#FCFCFC"/>
<path d="M6.75243 22.7544C6.49823 22.7544 6.24403 22.7491 5.98983 22.7567C5.85289 22.7605 5.78556 22.7325 5.78783 22.5728C5.79691 22.0454 5.79615 21.5179 5.78783 20.9912C5.78556 20.836 5.84457 20.8012 5.98605 20.8027C6.50353 20.8088 7.02177 20.8111 7.53925 20.802C7.7072 20.799 7.74427 20.8625 7.742 21.0161C7.73444 21.5247 7.73217 22.0332 7.74276 22.541C7.74654 22.7219 7.68148 22.7658 7.51428 22.7575C7.26159 22.7454 7.00663 22.7544 6.75243 22.7544Z" fill="#FFCC66"/>
<path d="M23.2035 21.7995C23.2035 22.0538 23.1967 22.308 23.2065 22.5623C23.2118 22.7076 23.1672 22.7598 23.0159 22.7576C22.4886 22.75 21.962 22.7508 21.4347 22.7568C21.3008 22.7583 21.2523 22.7152 21.2539 22.5797C21.2592 22.0523 21.2599 21.5248 21.2531 20.9981C21.2516 20.8528 21.294 20.7998 21.4453 20.8021C21.9726 20.8096 22.4991 20.8081 23.0265 20.8028C23.1589 20.8013 23.2103 20.8429 23.2065 20.9799C23.1974 21.2531 23.2035 21.5263 23.2035 21.7995Z" fill="#FFCC66"/>
<path d="M22.2163 15.4683C21.9621 15.4683 21.7087 15.463 21.4544 15.4705C21.3205 15.4743 21.2487 15.4554 21.2517 15.2912C21.2615 14.7645 21.2585 14.2378 21.2532 13.7111C21.2517 13.5801 21.2857 13.5294 21.4257 13.531C21.9613 13.5378 22.4977 13.5378 23.0334 13.531C23.1726 13.5294 23.2074 13.5786 23.2059 13.7103C23.1998 14.237 23.1968 14.7637 23.2074 15.2904C23.2104 15.4539 23.1393 15.4736 23.0061 15.4698C22.7429 15.463 22.4796 15.4683 22.2163 15.4683Z" fill="#FFCC66"/>
<path d="M6.75365 15.4683C6.49038 15.4683 6.2271 15.4623 5.96382 15.4706C5.82764 15.4751 5.78678 15.429 5.7883 15.2935C5.79511 14.7668 5.79435 14.2401 5.78905 13.7134C5.78754 13.5855 5.81553 13.5287 5.95852 13.531C6.49416 13.5378 7.03055 13.5378 7.56619 13.531C7.70237 13.5295 7.74398 13.5726 7.74171 13.7081C7.7349 14.2348 7.73339 14.7615 7.74247 15.2882C7.74549 15.4479 7.68043 15.4751 7.54274 15.4706C7.28021 15.4623 7.01693 15.4683 6.75365 15.4683Z" fill="#FFCC66"/>
<path d="M14.513 20.805C14.7763 20.805 15.0396 20.8096 15.3029 20.8028C15.4239 20.7997 15.467 20.8399 15.4663 20.9632C15.4617 21.5088 15.461 22.0545 15.4663 22.6001C15.4678 22.7272 15.4171 22.7575 15.2998 22.7567C14.7642 22.7522 14.2278 22.7514 13.6922 22.7567C13.5711 22.7583 13.528 22.7197 13.5288 22.5971C13.5333 22.0514 13.534 21.5058 13.5288 20.9602C13.5272 20.833 13.5779 20.8005 13.6952 20.8035C13.9676 20.8096 14.2407 20.805 14.513 20.805Z" fill="#FFCC66"/>
</svg>
