<svg width="30" height="12" viewBox="0 0 30 12" fill="none" xmlns="http://www.w3.org/2000/svg">
<path d="M29.9994 10.9577C29.885 11.0809 29.8403 11.2197 29.6971 11.3379C29.216 11.7329 28.3662 11.7315 27.8952 11.3315C27.6793 11.1482 27.5905 10.9457 27.6007 10.7291C27.6409 9.88207 27.7304 9.03612 27.8333 8.19087C27.9202 7.4773 28.0224 6.76408 28.1253 6.05122C28.1374 5.96768 28.0959 5.95105 27.9534 5.94928C27.2799 5.93972 27.0013 5.78009 27.0071 5.4049C27.0179 4.62832 26.9687 3.85139 27.0371 3.07516C27.1246 2.08055 27.6831 1.17124 28.6665 0.339801C28.7732 0.249543 28.885 0.160346 29.0013 0.0736272C29.069 0.0226577 29.1585 -0.0166313 29.2844 0.00708367C29.4045 0.0297368 29.4498 0.08283 29.4498 0.150435C29.4498 0.19291 29.4511 0.235031 29.4511 0.277505C29.4511 2.02887 29.4562 3.78024 29.4479 5.53126C29.4454 6.1351 29.5936 6.73258 29.6582 7.33359C29.7342 8.04292 29.8192 8.75189 29.8978 9.46122C29.9195 9.65837 29.9335 9.85623 29.9514 10.0534C29.9534 10.0757 29.9444 10.1015 30 10.11C29.9994 10.3928 29.9994 10.6753 29.9994 10.9577Z" fill="#FFC558"/>
<path d="M15.5169 0.528833C20.7555 0.547029 25.0021 2.75099 25 5.55394C24.9979 8.37026 20.7245 10.575 15.4852 10.5753C10.2424 10.5757 5.99719 8.31753 6 5.55209C6.00351 2.77773 10.2804 0.520292 15.5169 0.528833ZM22.7169 5.55989C22.7379 3.47438 19.5169 1.76209 15.5351 1.74241C11.5695 1.72272 8.29158 3.4469 8.29228 5.55246C8.29228 7.64724 11.5133 9.35471 15.4796 9.36362C19.4446 9.37254 22.6951 7.66395 22.7169 5.55989Z" fill="#FFC558"/>
<path d="M1.29577 1.95589C1.25567 2.32698 1.2139 2.69843 1.17548 3.06952C1.15543 3.25701 1.35509 3.37445 1.70679 3.38401C2.061 3.39391 2.30661 3.2754 2.31914 3.08084C2.36509 2.34255 2.40686 1.6039 2.4503 0.865613C2.45281 0.828114 2.4503 0.790262 2.45865 0.752764C2.48956 0.617275 2.69842 0.530605 2.99248 0.528836C3.28737 0.527067 3.51043 0.6102 3.53716 0.745335C3.56389 0.881178 3.57225 1.01773 3.57977 1.15428C3.61318 1.75637 3.64326 2.35847 3.675 2.96056C3.67834 3.02176 3.67751 3.08331 3.69672 3.14345C3.74601 3.29734 4.00331 3.39568 4.30991 3.38259C4.62987 3.36915 4.84791 3.25984 4.83788 3.1056C4.82619 2.92235 4.79778 2.73911 4.77606 2.55586C4.70672 1.97322 4.63655 1.39094 4.56888 0.808304C4.54883 0.633195 4.72427 0.534143 5.05174 0.52919C5.36335 0.524591 5.56218 0.614445 5.5864 0.77965C5.72174 1.70437 5.84872 2.62944 5.99074 3.55416C6.07344 4.08975 5.60311 4.50471 4.54633 4.80186C3.90724 4.98122 3.68001 5.23592 3.7552 5.55537C3.95904 6.41641 4.13197 7.27851 4.25728 8.14239C4.37925 8.98291 4.49202 9.82344 4.5647 10.665C4.58559 10.9098 4.48952 11.1419 4.15452 11.3485C3.53632 11.7298 2.45448 11.727 1.83711 11.3439C1.53052 11.1536 1.42025 10.9413 1.43779 10.716C1.5489 9.30059 1.74689 7.88768 2.0468 6.47725C2.11363 6.16347 2.17796 5.84969 2.24897 5.53591C2.32165 5.21611 2.05098 4.96919 1.41607 4.78984C0.346756 4.48737 -0.0784638 4.06004 0.0117597 3.5202C0.158791 2.64748 0.269899 1.77406 0.398551 0.900988C0.408576 0.830944 0.422778 0.760193 0.453688 0.691211C0.502977 0.582961 0.681753 0.530959 0.929032 0.530605C1.19469 0.529898 1.36595 0.590036 1.41858 0.702531C1.43362 0.734369 1.44113 0.767976 1.43696 0.800168C1.39268 1.18541 1.34506 1.57065 1.29828 1.95589C1.29744 1.95589 1.29661 1.95589 1.29577 1.95589Z" fill="#FFC558"/>
<path d="M15.4902 2.64388C18.4991 2.63189 20.9764 3.93468 20.9998 5.54064C21.0233 7.13886 18.5357 8.46021 15.5026 8.46021C12.4951 8.45983 10.031 7.16593 10.0003 5.5708C9.97025 3.9749 12.4446 2.65587 15.4902 2.64388Z" fill="#FFC558"/>
</svg>
