<svg width="21" height="25" viewBox="0 0 21 25" fill="none" xmlns="http://www.w3.org/2000/svg">
<g clip-path="url(#clip0_467_111)">
<path d="M3.73789 25.0001C3.45883 24.8679 3.14527 24.8704 2.85511 24.7713C1.2066 24.2097 0.221566 23.0786 0.0607809 21.3602C-0.130806 19.3127 0.134089 17.3001 0.910908 15.3835C1.37417 14.2414 2.06659 13.2553 3.20009 12.646C3.92208 12.2581 4.69644 12.0899 5.50899 12.0758C5.78805 12.0709 6.03323 12.1908 6.26425 12.3346C6.6314 12.5628 6.99178 12.8026 7.36079 13.0277C9.45777 14.3056 11.556 14.3056 13.6511 13.0228C13.9505 12.8393 14.2548 12.6613 14.5351 12.452C15.031 12.0819 15.5781 12.0355 16.1664 12.1193C17.797 12.3517 18.9558 13.2308 19.7375 14.6451C20.4392 15.9145 20.7374 17.2958 20.9012 18.7157C20.9838 19.4277 21.0115 20.1429 20.9973 20.8592C20.953 23.1129 19.4954 24.6985 17.2327 24.9524C17.1982 24.956 17.1693 24.9609 17.1613 25.0007C12.687 25.0001 8.21215 25.0001 3.73789 25.0001Z" fill="#FFCC66"/>
<path d="M16.4118 6.01956C16.4149 9.34743 13.6686 12.0685 10.3328 12.044C6.96064 12.0189 4.28212 9.35416 4.28027 6.02201C4.27843 2.68435 6.9976 -0.0109777 10.3556 3.36189e-05C13.713 0.0110449 16.4088 2.69047 16.4118 6.01956Z" fill="#FFCC66"/>
</g>
<defs>
<clipPath id="clip0_467_111">
<rect width="21" height="25" fill="white"/>
</clipPath>
</defs>
</svg>
