<svg width="18" height="23" viewBox="0 0 18 23" fill="none" xmlns="http://www.w3.org/2000/svg">
<path d="M1.50107 0C4.70816 0 7.91594 0 11.123 0C11.1057 1.24918 11.1029 2.49903 11.1258 3.74821C11.1265 3.79241 11.1355 3.83729 11.1438 3.88149C11.4213 5.37819 12.6267 6.371 14.1789 6.37644C15.2401 6.37984 16.3013 6.38392 17.3624 6.37168C17.5802 6.36896 17.6184 6.43492 17.6177 6.63145C17.6121 11.0399 17.6135 15.4484 17.6135 19.8569C17.6135 20.2983 17.6204 20.7403 17.6121 21.1816C17.5913 22.241 16.8228 22.9986 15.7603 22.9986C11.1265 23.0013 6.49273 22.9993 1.85826 22.9999C1.66614 22.9999 1.47818 22.9768 1.29438 22.9211C0.482902 22.6735 0.000866969 22.0064 0.000866969 21.1177C-0.000520181 14.7038 0.000173394 8.28931 0.000173394 1.87546C0.000173394 1.83058 0.000173394 1.7857 0.00225412 1.74082C0.0466429 0.885372 0.585551 0.244803 1.4331 0.0442006C1.46292 0.0367205 1.49205 0.0360405 1.50107 0ZM9.10681 19.1293C11.0003 19.1293 12.8937 19.1293 14.7872 19.1293C15.2782 19.1293 15.5661 18.909 15.5661 18.535C15.5654 18.1617 15.2789 17.9427 14.7844 17.9427C11.0051 17.9427 7.22584 17.9427 3.44655 17.9434C3.34737 17.9434 3.24749 17.9461 3.15039 17.9624C2.79459 18.0223 2.58305 18.3636 2.68639 18.7023C2.77517 18.992 2.99572 19.1293 3.38066 19.1293C5.28938 19.1293 7.19809 19.1293 9.10681 19.1293ZM9.10889 14.6596C10.9864 14.6596 12.8646 14.6596 14.7421 14.659C14.8413 14.659 14.9412 14.6596 15.039 14.6488C15.3171 14.6182 15.5279 14.4073 15.5612 14.1347C15.5931 13.8715 15.426 13.6138 15.1652 13.5186C15.0473 13.4757 14.9259 13.4798 14.8038 13.4798C11.01 13.4798 7.21613 13.4798 3.42227 13.4798C3.34598 13.4798 3.26899 13.4764 3.19339 13.4853C2.90625 13.5213 2.68986 13.7389 2.65865 14.0177C2.62952 14.2754 2.80707 14.5447 3.06647 14.6277C3.192 14.6678 3.32309 14.659 3.45279 14.659C5.33793 14.6596 7.22376 14.6596 9.10889 14.6596ZM6.50937 9.02576C5.44127 9.02576 4.37386 9.0244 3.30575 9.02644C3.00266 9.02712 2.78557 9.16788 2.69541 9.40928C2.54421 9.81729 2.83898 10.1988 3.31546 10.1995C5.03899 10.2022 6.76322 10.2008 8.48676 10.2008C8.914 10.2008 9.34124 10.2069 9.76779 10.1974C10.1215 10.1899 10.3663 9.92541 10.3532 9.58541C10.3407 9.2556 10.0854 9.0278 9.71161 9.02712C8.64558 9.0244 7.57748 9.02576 6.50937 9.02576Z" fill="#FFCC66"/>
<path d="M16.5801 5.26627C15.6882 5.24451 14.7359 5.32067 13.7878 5.23091C12.9257 5.14999 12.2522 4.40334 12.2404 3.55537C12.2279 2.68767 12.2376 1.81998 12.2376 0.978812C13.6817 2.40411 15.1375 3.84165 16.5801 5.26627Z" fill="#FFCC66"/>
</svg>
