<svg width="23" height="23" viewBox="0 0 23 23" fill="none" xmlns="http://www.w3.org/2000/svg">
<g clip-path="url(#clip0_467_61)">
<path d="M11.5024 7.73064C15.2496 7.73064 18.9975 7.73253 22.7447 7.72559C22.9484 7.72496 23.0009 7.77035 23.0002 7.98088C22.9927 11.809 22.9977 15.637 22.9934 19.4651C22.9915 21.2181 21.857 22.6023 20.1583 22.9383C19.9134 22.9869 19.6641 23.0001 19.4142 23.0001C14.1395 22.9995 8.86537 23.0007 3.59065 22.9988C1.79326 22.9982 0.426938 21.8951 0.0758309 20.168C0.028975 19.9366 0.0102326 19.7015 0.0102326 19.4651C0.0102326 15.6288 0.0114821 11.7932 0.00585938 7.95693C0.00585938 7.76972 0.0545895 7.72559 0.23639 7.72559C3.99173 7.7319 7.74708 7.73064 11.5024 7.73064ZM11.4568 19.9952C12.329 19.9952 13.2005 20.0015 14.0726 19.9934C14.9704 19.9852 15.5345 19.0352 15.1209 18.2296C14.723 17.455 14.1351 16.8662 13.3729 16.454C13.1624 16.3405 12.9425 16.3159 12.7201 16.401C11.8448 16.7383 10.9714 16.7036 10.0961 16.401C9.85435 16.3178 9.62444 16.3405 9.40453 16.4798C8.73168 16.9066 8.19877 17.4663 7.81892 18.1704C7.35411 19.0314 7.91638 19.9902 8.88786 19.994C9.74376 19.9984 10.6003 19.9959 11.4568 19.9952ZM11.5293 10.733C10.5178 10.721 9.60257 11.6167 9.58758 12.6341C9.57071 13.7681 10.4129 14.677 11.4912 14.6884C12.5714 14.6997 13.4972 13.787 13.5116 12.6971C13.5253 11.6463 12.6163 10.7456 11.5293 10.733Z" fill="#FFCC66"/>
<path d="M11.4935 5.79944C7.75438 5.79944 4.01465 5.79755 0.274926 5.80322C0.0725086 5.80385 -0.00371036 5.76792 0.00441133 5.541C0.0337744 4.73226 -0.0436941 3.92038 0.0412713 3.11417C0.227445 1.34669 1.61126 0.0689771 3.37741 0.00405166C3.4555 0.000899934 3.53297 0.000899935 3.61107 0.000899935C8.87767 0.000899935 14.1443 -0.000360754 19.4103 0.00153028C20.9546 0.00216062 22.1929 0.814675 22.7395 2.17496C22.9113 2.60296 22.9907 3.04861 22.9932 3.50751C22.9969 4.19143 22.9863 4.87535 22.9994 5.55928C23.0032 5.75468 22.9538 5.80448 22.7589 5.80448C19.0035 5.79755 15.2488 5.79944 11.4935 5.79944ZM2.89073 2.8967C2.89198 3.44321 3.31119 3.86743 3.84847 3.86491C4.37013 3.86239 4.79746 3.43502 4.80246 2.90994C4.80745 2.38171 4.37013 1.93858 3.83972 1.9348C3.28058 1.93038 2.89011 2.32624 2.89073 2.8967ZM7.57882 3.86491C8.10423 3.86428 8.52594 3.44195 8.53219 2.91246C8.53781 2.37856 8.10174 1.93291 7.57508 1.9348C7.04592 1.93669 6.61734 2.37919 6.62421 2.91687C6.63046 3.44825 7.05154 3.86554 7.57882 3.86491Z" fill="#FFCC66"/>
</g>
<defs>
<clipPath id="clip0_467_61">
<rect width="23" height="23" fill="white"/>
</clipPath>
</defs>
</svg>
