<svg width="94" height="14" viewBox="0 0 94 14" fill="none" xmlns="http://www.w3.org/2000/svg">
<g clip-path="url(#clip0_279_764)">
<path d="M13.9998 5.6571C13.9944 5.87794 13.8769 6.12884 13.6661 6.34342C12.8401 7.18546 12.017 8.03043 11.1897 8.87122C11.1104 8.95179 11.0793 9.02109 11.0999 9.14216C11.3051 10.3566 11.5053 11.5718 11.6967 12.7884C11.7626 13.2075 11.6258 13.5644 11.2707 13.812C10.9248 14.0533 10.5588 14.0546 10.1911 13.8512C9.18083 13.2935 8.16842 12.7387 7.16147 12.1751C7.03555 12.1045 6.94698 12.1087 6.82316 12.1784C5.82167 12.7412 4.81598 13.2973 3.81028 13.8525C3.44385 14.055 3.07616 14.055 2.73114 13.8099C2.38611 13.5649 2.24088 13.2217 2.30762 12.8034C2.50406 11.5769 2.70511 10.3516 2.90743 9.12587C2.92464 9.02109 2.8919 8.95262 2.8197 8.87957C1.9903 8.03377 1.1651 7.18338 0.336113 6.33716C0.0171125 6.01153 -0.0857233 5.63539 0.0720982 5.20706C0.226562 4.78792 0.552278 4.59212 0.987547 4.5295C2.10951 4.36752 3.22937 4.19135 4.35091 4.02478C4.45458 4.00933 4.49907 3.95214 4.53895 3.86697C5.04054 2.80325 5.54758 1.74204 6.04623 0.67665C6.19062 0.368138 6.39587 0.133936 6.7325 0.0387521C7.21016 -0.095674 7.68069 0.119742 7.90525 0.584389C8.25615 1.31079 8.59865 2.04095 8.9441 2.76986C9.12249 3.146 9.30423 3.52089 9.47549 3.89995C9.51494 3.98762 9.57706 4.00975 9.65555 4.02144C10.4921 4.14919 11.329 4.27568 12.1656 4.40343C12.4909 4.45311 12.8166 4.49986 13.1411 4.55622C13.6527 4.64598 14.0011 5.06387 13.9998 5.6571Z" fill="#FECA2B"/>
</g>
<g clip-path="url(#clip1_279_764)">
<path d="M33.9998 5.6571C33.9943 5.87794 33.8768 6.12884 33.6661 6.34342C32.84 7.18546 32.0169 8.03043 31.1896 8.87122C31.1103 8.95179 31.0792 9.02109 31.0998 9.14216C31.305 10.3566 31.5053 11.5718 31.6967 12.7884C31.7626 13.2075 31.6257 13.5644 31.2706 13.812C30.9248 14.0533 30.5587 14.0546 30.1911 13.8512C29.1807 13.2935 28.1683 12.7387 27.1614 12.1751C27.0355 12.1045 26.9469 12.1087 26.8231 12.1784C25.8216 12.7412 24.8159 13.2973 23.8102 13.8525C23.4438 14.055 23.0761 14.055 22.7311 13.8099C22.386 13.5649 22.2408 13.2217 22.3075 12.8034C22.504 11.5769 22.705 10.3516 22.9073 9.12587C22.9245 9.02109 22.8918 8.95262 22.8196 8.87957C21.9902 8.03377 21.165 7.18338 20.336 6.33716C20.017 6.01153 19.9142 5.63539 20.072 5.20706C20.2265 4.78792 20.5522 4.59212 20.9875 4.5295C22.1094 4.36752 23.2293 4.19135 24.3508 4.02478C24.4545 4.00933 24.499 3.95214 24.5389 3.86697C25.0404 2.80325 25.5475 1.74204 26.0461 0.67665C26.1905 0.368138 26.3958 0.133936 26.7324 0.0387521C27.2101 -0.095674 27.6806 0.119742 27.9052 0.584389C28.2561 1.31079 28.5986 2.04095 28.944 2.76986C29.1224 3.146 29.3041 3.52089 29.4754 3.89995C29.5149 3.98762 29.577 4.00975 29.6555 4.02144C30.492 4.14919 31.329 4.27568 32.1655 4.40343C32.4908 4.45311 32.8165 4.49986 33.141 4.55622C33.6526 4.64598 34.001 5.06387 33.9998 5.6571Z" fill="#FECA2B"/>
</g>
<g clip-path="url(#clip2_279_764)">
<path d="M53.9997 5.6571C53.9942 5.87794 53.8767 6.12884 53.666 6.34342C52.8399 7.18546 52.0168 8.03043 51.1895 8.87122C51.1102 8.95179 51.0791 9.02109 51.0997 9.14216C51.305 10.3566 51.5052 11.5718 51.6966 12.7884C51.7625 13.2075 51.6256 13.5644 51.2705 13.812C50.9247 14.0533 50.5587 14.0546 50.191 13.8512C49.1807 13.2935 48.1682 12.7387 47.1613 12.1751C47.0354 12.1045 46.9468 12.1087 46.823 12.1784C45.8215 12.7412 44.8158 13.2973 43.8101 13.8525C43.4437 14.055 43.076 14.055 42.731 13.8099C42.3859 13.5649 42.2407 13.2217 42.3074 12.8034C42.5039 11.5769 42.7049 10.3516 42.9073 9.12587C42.9245 9.02109 42.8917 8.95262 42.8195 8.87957C41.9901 8.03377 41.1649 7.18338 40.3359 6.33716C40.0169 6.01153 39.9141 5.63539 40.0719 5.20706C40.2264 4.78792 40.5521 4.59212 40.9874 4.5295C42.1093 4.36752 43.2292 4.19135 44.3507 4.02478C44.4544 4.00933 44.4989 3.95214 44.5388 3.86697C45.0404 2.80325 45.5474 1.74204 46.0461 0.67665C46.1904 0.368138 46.3957 0.133936 46.7323 0.0387521C47.21 -0.095674 47.6805 0.119742 47.9051 0.584389C48.256 1.31079 48.5985 2.04095 48.9439 2.76986C49.1223 3.146 49.3041 3.52089 49.4753 3.89995C49.5148 3.98762 49.5769 4.00975 49.6554 4.02144C50.4919 4.14919 51.3289 4.27568 52.1654 4.40343C52.4907 4.45311 52.8164 4.49986 53.1409 4.55622C53.6525 4.64598 54.0009 5.06387 53.9997 5.6571Z" fill="#FECA2B"/>
</g>
<g clip-path="url(#clip3_279_764)">
<path d="M73.9996 5.6571C73.9941 5.87794 73.8766 6.12884 73.6659 6.34342C72.8398 7.18546 72.0167 8.03043 71.1894 8.87122C71.1101 8.95179 71.079 9.02109 71.0996 9.14216C71.3049 10.3566 71.5051 11.5718 71.6965 12.7884C71.7624 13.2075 71.6255 13.5644 71.2704 13.812C70.9246 14.0533 70.5586 14.0546 70.1909 13.8512C69.1806 13.2935 68.1682 12.7387 67.1612 12.1751C67.0353 12.1045 66.9467 12.1087 66.8229 12.1784C65.8214 12.7412 64.8157 13.2973 63.81 13.8525C63.4436 14.055 63.0759 14.055 62.7309 13.8099C62.3859 13.5649 62.2406 13.2217 62.3074 12.8034C62.5038 11.5769 62.7049 10.3516 62.9072 9.12587C62.9244 9.02109 62.8916 8.95262 62.8194 8.87957C61.99 8.03377 61.1648 7.18338 60.3359 6.33716C60.0169 6.01153 59.914 5.63539 60.0718 5.20706C60.2263 4.78792 60.552 4.59212 60.9873 4.5295C62.1092 4.36752 63.2291 4.19135 64.3506 4.02478C64.4543 4.00933 64.4988 3.95214 64.5387 3.86697C65.0403 2.80325 65.5473 1.74204 66.046 0.67665C66.1904 0.368138 66.3956 0.133936 66.7322 0.0387521C67.2099 -0.095674 67.6804 0.119742 67.905 0.584389C68.2559 1.31079 68.5984 2.04095 68.9438 2.76986C69.1222 3.146 69.304 3.52089 69.4752 3.89995C69.5147 3.98762 69.5768 4.00975 69.6553 4.02144C70.4918 4.14919 71.3288 4.27568 72.1653 4.40343C72.4906 4.45311 72.8163 4.49986 73.1408 4.55622C73.6525 4.64598 74.0008 5.06387 73.9996 5.6571Z" fill="#FECA2B"/>
</g>
<g clip-path="url(#clip4_279_764)">
<path d="M93.9995 5.65716C93.994 5.878 93.8765 6.1289 93.6658 6.34348C92.8398 7.18552 92.0167 8.03049 91.1893 8.87128C91.11 8.95185 91.079 9.02115 91.0995 9.14222C91.3048 10.3566 91.505 11.5719 91.6964 12.7884C91.7623 13.2076 91.6255 13.5645 91.2704 13.8121C90.9245 14.0534 90.5585 14.0546 90.1908 13.8513C89.1805 13.2936 88.1681 12.7387 87.1611 12.1752C87.0352 12.1046 86.9466 12.1088 86.8228 12.1785C85.8213 12.7412 84.8156 13.2973 83.8099 13.8526C83.4435 14.055 83.0758 14.055 82.7308 13.81C82.3858 13.5649 82.2405 13.2218 82.3073 12.8035C82.5037 11.5769 82.7048 10.3516 82.9071 9.12594C82.9243 9.02115 82.8915 8.95268 82.8194 8.87963C81.99 8.03383 81.1647 7.18344 80.3358 6.33722C80.0168 6.01159 79.9139 5.63545 80.0717 5.20712C80.2262 4.78798 80.5519 4.59219 80.9872 4.52956C82.1092 4.36759 83.229 4.19141 84.3506 4.02484C84.4542 4.00939 84.4987 3.9522 84.5386 3.86704C85.0402 2.80332 85.5472 1.7421 86.0459 0.676711C86.1903 0.368199 86.3955 0.133997 86.7321 0.0388132C87.2098 -0.095613 87.6803 0.119803 87.9049 0.58445C88.2558 1.31085 88.5983 2.04101 88.9437 2.76992C89.1221 3.14606 89.3039 3.52095 89.4751 3.90002C89.5146 3.98769 89.5767 4.00981 89.6552 4.0215C90.4917 4.14925 91.3287 4.27574 92.1652 4.40349C92.4905 4.45317 92.8163 4.49992 93.1407 4.55628C93.6524 4.64604 94.0008 5.06393 93.9995 5.65716Z" fill="#FECA2B"/>
</g>
<defs>
<clipPath id="clip0_279_764">
<rect width="14" height="14" fill="white"/>
</clipPath>
<clipPath id="clip1_279_764">
<rect width="14" height="14" fill="white" transform="translate(19.9999)"/>
</clipPath>
<clipPath id="clip2_279_764">
<rect width="14" height="14" fill="white" transform="translate(39.9998)"/>
</clipPath>
<clipPath id="clip3_279_764">
<rect width="14" height="14" fill="white" transform="translate(59.9997)"/>
</clipPath>
<clipPath id="clip4_279_764">
<rect width="14" height="14" fill="white" transform="translate(79.9997 6.10349e-05)"/>
</clipPath>
</defs>
</svg>
